<?xml version="1.0" encoding="utf-8" standalone="no"?>
<!DOCTYPE svg PUBLIC "-//W3C//DTD SVG 1.1//EN"
  "http://www.w3.org/Graphics/SVG/1.1/DTD/svg11.dtd">
<!-- Created with matplotlib (https://matplotlib.org/) -->
<svg height="468pt" version="1.1" viewBox="0 0 648 468" width="648pt" xmlns="http://www.w3.org/2000/svg" xmlns:xlink="http://www.w3.org/1999/xlink">
 <defs>
  <style type="text/css">
*{stroke-linecap:butt;stroke-linejoin:round;}
  </style>
 </defs>
 <g id="figure_1">
  <g id="patch_1">
   <path d="M 0 468 
L 648 468 
L 648 0 
L 0 0 
z
" style="fill:#ffffff;"/>
  </g>
  <g id="axes_1">
   <g id="patch_2">
    <path d="M 44.18499 204.932509 
L 644.99976 204.932509 
L 644.99976 16.29474 
L 44.18499 16.29474 
z
" style="fill:#ffffff;"/>
   </g>
   <g id="matplotlib.axis_1"/>
   <g id="matplotlib.axis_2">
    <g id="ytick_1">
     <g id="text_1">
      <!-- 0.3 -->
      <defs>
       <path d="M 31.78125 3.421875 
Q 39.265625 3.421875 42.96875 11.625 
Q 46.6875 19.828125 46.6875 36.375 
Q 46.6875 52.984375 42.96875 61.1875 
Q 39.265625 69.390625 31.78125 69.390625 
Q 24.3125 69.390625 20.59375 61.1875 
Q 16.890625 52.984375 16.890625 36.375 
Q 16.890625 19.828125 20.59375 11.625 
Q 24.3125 3.421875 31.78125 3.421875 
z
M 31.78125 -1.421875 
Q 19.921875 -1.421875 13.25 8.53125 
Q 6.59375 18.5 6.59375 36.375 
Q 6.59375 54.296875 13.25 64.25 
Q 19.921875 74.21875 31.78125 74.21875 
Q 43.703125 74.21875 50.34375 64.25 
Q 56.984375 54.296875 56.984375 36.375 
Q 56.984375 18.5 50.34375 8.53125 
Q 43.703125 -1.421875 31.78125 -1.421875 
z
" id="DejaVuSerif-48"/>
       <path d="M 9.421875 5.078125 
Q 9.421875 7.8125 11.28125 9.71875 
Q 13.140625 11.625 15.921875 11.625 
Q 18.609375 11.625 20.5 9.71875 
Q 22.40625 7.8125 22.40625 5.078125 
Q 22.40625 2.390625 20.5 0.484375 
Q 18.609375 -1.421875 15.921875 -1.421875 
Q 13.140625 -1.421875 11.28125 0.453125 
Q 9.421875 2.34375 9.421875 5.078125 
z
" id="DejaVuSerif-46"/>
       <path d="M 9.71875 69.828125 
Q 15.4375 71.96875 20.671875 73.09375 
Q 25.921875 74.21875 30.515625 74.21875 
Q 41.21875 74.21875 47.21875 69.59375 
Q 53.21875 64.984375 53.21875 56.78125 
Q 53.21875 50.203125 49.0625 45.78125 
Q 44.921875 41.359375 37.3125 39.796875 
Q 46.296875 38.53125 51.25 33.28125 
Q 56.203125 28.03125 56.203125 19.671875 
Q 56.203125 9.46875 49.34375 4.015625 
Q 42.484375 -1.421875 29.59375 -1.421875 
Q 23.875 -1.421875 18.421875 -0.1875 
Q 12.984375 1.03125 7.625 3.515625 
L 7.625 17.671875 
L 13.09375 17.671875 
Q 13.578125 10.640625 17.828125 7.03125 
Q 22.078125 3.421875 29.78125 3.421875 
Q 37.25 3.421875 41.578125 7.734375 
Q 45.90625 12.0625 45.90625 19.578125 
Q 45.90625 28.171875 41.453125 32.59375 
Q 37.015625 37.015625 28.421875 37.015625 
L 23.78125 37.015625 
L 23.78125 42 
L 26.21875 42 
Q 34.765625 42 39.03125 45.53125 
Q 43.3125 49.078125 43.3125 56.203125 
Q 43.3125 62.59375 39.796875 65.984375 
Q 36.28125 69.390625 29.6875 69.390625 
Q 23.09375 69.390625 19.453125 66.265625 
Q 15.828125 63.140625 15.1875 56.984375 
L 9.71875 56.984375 
z
" id="DejaVuSerif-51"/>
      </defs>
      <g style="fill:#262626;" transform="translate(21.89024 207.727783)scale(0.088 -0.088)">
       <use xlink:href="#DejaVuSerif-48"/>
       <use x="63.623047" xlink:href="#DejaVuSerif-46"/>
       <use x="95.410156" xlink:href="#DejaVuSerif-51"/>
      </g>
     </g>
    </g>
    <g id="ytick_2">
     <g id="text_2">
      <!-- 0.4 -->
      <defs>
       <path d="M 34.90625 24.703125 
L 34.90625 63.484375 
L 10.015625 24.703125 
z
M 56.390625 0 
L 23.1875 0 
L 23.1875 5.171875 
L 34.90625 5.171875 
L 34.90625 19.484375 
L 3.078125 19.484375 
L 3.078125 24.8125 
L 35.015625 74.21875 
L 44.671875 74.21875 
L 44.671875 24.703125 
L 58.59375 24.703125 
L 58.59375 19.484375 
L 44.671875 19.484375 
L 44.671875 5.171875 
L 56.390625 5.171875 
z
" id="DejaVuSerif-52"/>
      </defs>
      <g style="fill:#262626;" transform="translate(21.89024 177.50465)scale(0.088 -0.088)">
       <use xlink:href="#DejaVuSerif-48"/>
       <use x="63.623047" xlink:href="#DejaVuSerif-46"/>
       <use x="95.410156" xlink:href="#DejaVuSerif-52"/>
      </g>
     </g>
    </g>
    <g id="ytick_3">
     <g id="text_3">
      <!-- 0.5 -->
      <defs>
       <path d="M 50.296875 72.90625 
L 50.296875 64.890625 
L 16.890625 64.890625 
L 16.890625 44 
Q 19.4375 45.75 22.828125 46.625 
Q 26.21875 47.515625 30.421875 47.515625 
Q 42.234375 47.515625 49.0625 40.96875 
Q 55.90625 34.421875 55.90625 23.09375 
Q 55.90625 11.53125 49 5.046875 
Q 42.09375 -1.421875 29.59375 -1.421875 
Q 24.5625 -1.421875 19.28125 -0.1875 
Q 14.015625 1.03125 8.5 3.515625 
L 8.5 17.671875 
L 14.015625 17.671875 
Q 14.453125 10.75 18.421875 7.078125 
Q 22.40625 3.421875 29.59375 3.421875 
Q 37.3125 3.421875 41.453125 8.5 
Q 45.609375 13.578125 45.609375 23.09375 
Q 45.609375 32.5625 41.484375 37.609375 
Q 37.359375 42.671875 29.59375 42.671875 
Q 25.203125 42.671875 21.84375 41.109375 
Q 18.5 39.546875 15.921875 36.28125 
L 11.71875 36.28125 
L 11.71875 72.90625 
z
" id="DejaVuSerif-53"/>
      </defs>
      <g style="fill:#262626;" transform="translate(21.89024 147.281516)scale(0.088 -0.088)">
       <use xlink:href="#DejaVuSerif-48"/>
       <use x="63.623047" xlink:href="#DejaVuSerif-46"/>
       <use x="95.410156" xlink:href="#DejaVuSerif-53"/>
      </g>
     </g>
    </g>
    <g id="ytick_4">
     <g id="text_4">
      <!-- 0.6 -->
      <defs>
       <path d="M 32.71875 3.421875 
Q 39.59375 3.421875 43.296875 8.46875 
Q 47.015625 13.53125 47.015625 23 
Q 47.015625 32.46875 43.296875 37.515625 
Q 39.59375 42.578125 32.71875 42.578125 
Q 25.734375 42.578125 22.0625 37.6875 
Q 18.40625 32.8125 18.40625 23.578125 
Q 18.40625 13.875 22.109375 8.640625 
Q 25.828125 3.421875 32.71875 3.421875 
z
M 16.796875 40.140625 
Q 20.125 43.796875 24.3125 45.59375 
Q 28.515625 47.40625 33.796875 47.40625 
Q 44.671875 47.40625 51 40.859375 
Q 57.328125 34.328125 57.328125 23 
Q 57.328125 11.921875 50.515625 5.25 
Q 43.703125 -1.421875 32.328125 -1.421875 
Q 19.96875 -1.421875 13.328125 7.78125 
Q 6.6875 17 6.6875 34.078125 
Q 6.6875 53.21875 14.546875 63.71875 
Q 22.40625 74.21875 36.71875 74.21875 
Q 40.578125 74.21875 44.828125 73.484375 
Q 49.078125 72.75 53.515625 71.296875 
L 53.515625 59.28125 
L 48 59.28125 
Q 47.40625 64.203125 44.234375 66.796875 
Q 41.0625 69.390625 35.6875 69.390625 
Q 26.21875 69.390625 21.578125 62.203125 
Q 16.9375 55.03125 16.796875 40.140625 
z
" id="DejaVuSerif-54"/>
      </defs>
      <g style="fill:#262626;" transform="translate(21.89024 117.058383)scale(0.088 -0.088)">
       <use xlink:href="#DejaVuSerif-48"/>
       <use x="63.623047" xlink:href="#DejaVuSerif-46"/>
       <use x="95.410156" xlink:href="#DejaVuSerif-54"/>
      </g>
     </g>
    </g>
    <g id="ytick_5">
     <g id="text_5">
      <!-- 0.7 -->
      <defs>
       <path d="M 56.390625 67.921875 
L 27.875 0 
L 20.609375 0 
L 47.796875 64.890625 
L 14.109375 64.890625 
L 14.109375 55.90625 
L 8.40625 55.90625 
L 8.40625 72.90625 
L 56.390625 72.90625 
z
" id="DejaVuSerif-55"/>
      </defs>
      <g style="fill:#262626;" transform="translate(21.89024 86.83525)scale(0.088 -0.088)">
       <use xlink:href="#DejaVuSerif-48"/>
       <use x="63.623047" xlink:href="#DejaVuSerif-46"/>
       <use x="95.410156" xlink:href="#DejaVuSerif-55"/>
      </g>
     </g>
    </g>
    <g id="ytick_6">
     <g id="text_6">
      <!-- 0.8 -->
      <defs>
       <path d="M 46.578125 19.921875 
Q 46.578125 27.734375 42.6875 32.046875 
Q 38.8125 36.375 31.78125 36.375 
Q 24.75 36.375 20.875 32.046875 
Q 17 27.734375 17 19.921875 
Q 17 12.0625 20.875 7.734375 
Q 24.75 3.421875 31.78125 3.421875 
Q 38.8125 3.421875 42.6875 7.734375 
Q 46.578125 12.0625 46.578125 19.921875 
z
M 44.578125 55.328125 
Q 44.578125 61.96875 41.203125 65.671875 
Q 37.84375 69.390625 31.78125 69.390625 
Q 25.78125 69.390625 22.390625 65.671875 
Q 19 61.96875 19 55.328125 
Q 19 48.640625 22.390625 44.921875 
Q 25.78125 41.21875 31.78125 41.21875 
Q 37.84375 41.21875 41.203125 44.921875 
Q 44.578125 48.640625 44.578125 55.328125 
z
M 39.3125 38.8125 
Q 47.609375 37.703125 52.25 32.6875 
Q 56.890625 27.6875 56.890625 19.921875 
Q 56.890625 9.671875 50.390625 4.125 
Q 43.890625 -1.421875 31.78125 -1.421875 
Q 19.734375 -1.421875 13.203125 4.125 
Q 6.6875 9.671875 6.6875 19.921875 
Q 6.6875 27.6875 11.328125 32.6875 
Q 15.96875 37.703125 24.3125 38.8125 
Q 16.9375 40.140625 13 44.40625 
Q 9.078125 48.6875 9.078125 55.328125 
Q 9.078125 64.109375 15.125 69.15625 
Q 21.1875 74.21875 31.78125 74.21875 
Q 42.390625 74.21875 48.4375 69.15625 
Q 54.5 64.109375 54.5 55.328125 
Q 54.5 48.6875 50.5625 44.40625 
Q 46.625 40.140625 39.3125 38.8125 
z
" id="DejaVuSerif-56"/>
      </defs>
      <g style="fill:#262626;" transform="translate(21.89024 56.612116)scale(0.088 -0.088)">
       <use xlink:href="#DejaVuSerif-48"/>
       <use x="63.623047" xlink:href="#DejaVuSerif-46"/>
       <use x="95.410156" xlink:href="#DejaVuSerif-56"/>
      </g>
     </g>
    </g>
    <g id="ytick_7">
     <g id="text_7">
      <!-- 0.9 -->
      <defs>
       <path d="M 46.78125 32.671875 
Q 43.5 29 39.25 27.1875 
Q 35.015625 25.390625 29.6875 25.390625 
Q 18.84375 25.390625 12.5625 31.9375 
Q 6.296875 38.484375 6.296875 49.8125 
Q 6.296875 60.890625 13.109375 67.546875 
Q 19.921875 74.21875 31.296875 74.21875 
Q 43.65625 74.21875 50.265625 65.015625 
Q 56.890625 55.8125 56.890625 38.71875 
Q 56.890625 19.578125 49.015625 9.078125 
Q 41.15625 -1.421875 26.90625 -1.421875 
Q 23.046875 -1.421875 18.796875 -0.6875 
Q 14.546875 0.046875 10.109375 1.515625 
L 10.109375 13.625 
L 15.578125 13.625 
Q 16.21875 8.6875 19.390625 6.046875 
Q 22.5625 3.421875 27.875 3.421875 
Q 37.359375 3.421875 41.984375 10.5625 
Q 46.625 17.71875 46.78125 32.671875 
z
M 30.90625 69.390625 
Q 23.96875 69.390625 20.28125 64.328125 
Q 16.609375 59.28125 16.609375 49.8125 
Q 16.609375 40.328125 20.28125 35.25 
Q 23.96875 30.171875 30.90625 30.171875 
Q 37.84375 30.171875 41.53125 35.078125 
Q 45.21875 39.984375 45.21875 49.21875 
Q 45.21875 58.9375 41.5 64.15625 
Q 37.796875 69.390625 30.90625 69.390625 
z
" id="DejaVuSerif-57"/>
      </defs>
      <g style="fill:#262626;" transform="translate(21.89024 26.388983)scale(0.088 -0.088)">
       <use xlink:href="#DejaVuSerif-48"/>
       <use x="63.623047" xlink:href="#DejaVuSerif-46"/>
       <use x="95.410156" xlink:href="#DejaVuSerif-57"/>
      </g>
     </g>
    </g>
    <g id="text_8">
     <!-- Accuracy -->
     <defs>
      <path d="M 20.015625 26.421875 
L 46.78125 26.421875 
L 33.40625 61.078125 
z
M -0.59375 0 
L -0.59375 5.171875 
L 5.8125 5.171875 
L 31.78125 72.90625 
L 39.984375 72.90625 
L 66.015625 5.171875 
L 73.1875 5.171875 
L 73.1875 0 
L 46.6875 0 
L 46.6875 5.171875 
L 54.78125 5.171875 
L 48.6875 21.1875 
L 18.015625 21.1875 
L 11.921875 5.171875 
L 19.921875 5.171875 
L 19.921875 0 
z
" id="DejaVuSerif-65"/>
      <path d="M 51.421875 15.578125 
Q 49.515625 7.28125 44.09375 2.921875 
Q 38.671875 -1.421875 30.078125 -1.421875 
Q 18.75 -1.421875 11.859375 6.078125 
Q 4.984375 13.578125 4.984375 25.984375 
Q 4.984375 38.421875 11.859375 45.875 
Q 18.75 53.328125 30.078125 53.328125 
Q 35.015625 53.328125 39.890625 52.171875 
Q 44.78125 51.03125 49.703125 48.6875 
L 49.703125 35.40625 
L 44.484375 35.40625 
Q 43.453125 42.234375 40.015625 45.359375 
Q 36.578125 48.484375 30.171875 48.484375 
Q 22.90625 48.484375 19.1875 42.84375 
Q 15.484375 37.203125 15.484375 25.984375 
Q 15.484375 14.75 19.171875 9.078125 
Q 22.859375 3.421875 30.171875 3.421875 
Q 35.984375 3.421875 39.453125 6.4375 
Q 42.921875 9.46875 44.1875 15.578125 
z
" id="DejaVuSerif-99"/>
      <path d="M 35.40625 51.90625 
L 52.203125 51.90625 
L 52.203125 5.171875 
L 60.6875 5.171875 
L 60.6875 0 
L 43.21875 0 
L 43.21875 9.1875 
Q 40.71875 4 36.765625 1.28125 
Q 32.8125 -1.421875 27.59375 -1.421875 
Q 18.953125 -1.421875 14.875 3.484375 
Q 10.796875 8.40625 10.796875 18.890625 
L 10.796875 46.6875 
L 2.6875 46.6875 
L 2.6875 51.90625 
L 19.828125 51.90625 
L 19.828125 21.6875 
Q 19.828125 12.203125 22.140625 8.6875 
Q 24.46875 5.171875 30.421875 5.171875 
Q 36.671875 5.171875 39.9375 9.765625 
Q 43.21875 14.359375 43.21875 23.09375 
L 43.21875 46.6875 
L 35.40625 46.6875 
z
" id="DejaVuSerif-117"/>
      <path d="M 47.796875 52 
L 47.796875 39.015625 
L 42.625 39.015625 
Q 42.390625 42.875 40.484375 44.78125 
Q 38.578125 46.6875 34.90625 46.6875 
Q 28.265625 46.6875 24.71875 42.09375 
Q 21.1875 37.5 21.1875 28.90625 
L 21.1875 5.171875 
L 31.59375 5.171875 
L 31.59375 0 
L 4.109375 0 
L 4.109375 5.171875 
L 12.203125 5.171875 
L 12.203125 46.78125 
L 3.609375 46.78125 
L 3.609375 51.90625 
L 21.1875 51.90625 
L 21.1875 42.671875 
Q 23.828125 48.09375 27.96875 50.703125 
Q 32.125 53.328125 38.09375 53.328125 
Q 40.28125 53.328125 42.703125 52.984375 
Q 45.125 52.640625 47.796875 52 
z
" id="DejaVuSerif-114"/>
      <path d="M 39.796875 16.3125 
L 39.796875 27.296875 
L 28.21875 27.296875 
Q 21.53125 27.296875 18.25 24.40625 
Q 14.984375 21.53125 14.984375 15.578125 
Q 14.984375 10.15625 18.296875 6.984375 
Q 21.625 3.8125 27.296875 3.8125 
Q 32.90625 3.8125 36.34375 7.28125 
Q 39.796875 10.75 39.796875 16.3125 
z
M 48.78125 32.421875 
L 48.78125 5.171875 
L 56.78125 5.171875 
L 56.78125 0 
L 39.796875 0 
L 39.796875 5.609375 
Q 36.8125 2 32.90625 0.28125 
Q 29 -1.421875 23.78125 -1.421875 
Q 15.140625 -1.421875 10.0625 3.171875 
Q 4.984375 7.765625 4.984375 15.578125 
Q 4.984375 23.640625 10.796875 28.078125 
Q 16.609375 32.515625 27.203125 32.515625 
L 39.796875 32.515625 
L 39.796875 36.078125 
Q 39.796875 42 36.203125 45.234375 
Q 32.625 48.484375 26.125 48.484375 
Q 20.75 48.484375 17.578125 46.046875 
Q 14.40625 43.609375 13.625 38.8125 
L 8.984375 38.8125 
L 8.984375 49.3125 
Q 13.671875 51.3125 18.09375 52.3125 
Q 22.515625 53.328125 26.703125 53.328125 
Q 37.5 53.328125 43.140625 47.96875 
Q 48.78125 42.625 48.78125 32.421875 
z
" id="DejaVuSerif-97"/>
      <path d="M 21.578125 -9.515625 
L 25 -0.875 
L 5.609375 46.6875 
L -0.296875 46.6875 
L -0.296875 51.90625 
L 23.578125 51.90625 
L 23.578125 46.6875 
L 15.28125 46.6875 
L 29.890625 10.984375 
L 44.484375 46.6875 
L 36.71875 46.6875 
L 36.71875 51.90625 
L 56.203125 51.90625 
L 56.203125 46.6875 
L 50.390625 46.6875 
L 26.609375 -11.71875 
Q 24.171875 -17.78125 21.1875 -20 
Q 18.21875 -22.21875 12.796875 -22.21875 
Q 10.5 -22.21875 8.078125 -21.828125 
Q 5.671875 -21.4375 3.21875 -20.703125 
L 3.21875 -10.796875 
L 7.8125 -10.796875 
Q 8.109375 -14.109375 9.5 -15.546875 
Q 10.890625 -17 13.8125 -17 
Q 16.5 -17 18.140625 -15.5 
Q 19.78125 -14.015625 21.578125 -9.515625 
z
" id="DejaVuSerif-121"/>
     </defs>
     <g style="fill:#262626;" transform="translate(15.75724 133.103875)rotate(-90)scale(0.096 -0.096)">
      <use xlink:href="#DejaVuSerif-65"/>
      <use x="72.216797" xlink:href="#DejaVuSerif-99"/>
      <use x="128.222656" xlink:href="#DejaVuSerif-99"/>
      <use x="184.228516" xlink:href="#DejaVuSerif-117"/>
      <use x="248.632812" xlink:href="#DejaVuSerif-114"/>
      <use x="296.435547" xlink:href="#DejaVuSerif-97"/>
      <use x="356.054688" xlink:href="#DejaVuSerif-99"/>
      <use x="412.060547" xlink:href="#DejaVuSerif-121"/>
     </g>
    </g>
   </g>
   <g id="line2d_1">
    <path clip-path="url(#pe74be56358)" d="M 71.494752 196.358065 
L 74.239452 142.930605 
L 76.984152 122.041297 
L 79.728851 111.473767 
L 82.473551 102.823148 
L 85.218251 98.645286 
L 87.962951 94.762338 
L 90.70765 91.616647 
L 96.19705 81.540622 
L 101.686449 78.984758 
L 104.431149 77.313617 
L 107.175849 77.657674 
L 109.920548 76.281446 
L 112.665248 72.103585 
L 115.409948 73.971335 
L 118.154648 69.891778 
L 120.899347 67.188448 
L 123.644047 68.122332 
L 126.388747 69.203646 
L 129.133447 67.139305 
L 131.878146 67.041 
L 134.622846 66.746087 
L 137.367546 66.696943 
L 140.112245 62.371616 
L 142.856945 61.929255 
L 145.601645 63.010586 
L 148.346345 62.519082 
L 151.091044 61.536054 
L 153.835744 57.948002 
L 156.580444 57.259888 
L 159.325144 56.129413 
L 162.069843 59.619143 
L 164.814543 58.881886 
L 167.559243 55.490443 
L 170.303942 56.86667 
L 173.048642 54.802329 
L 175.793342 52.934579 
L 178.538042 55.637891 
L 181.282741 50.673611 
L 184.027441 51.50919 
L 186.772141 54.015911 
L 189.51684 52.836274 
L 192.26154 52.73797 
L 195.00624 48.314356 
L 197.75094 52.787113 
L 200.495639 52.295608 
L 203.240339 51.017668 
L 205.985039 54.310806 
L 208.729739 51.656638 
L 211.474438 51.115972 
L 214.219138 49.149917 
L 216.963838 46.93811 
L 219.708537 47.871995 
L 222.453237 50.083802 
L 225.197937 52.000695 
L 227.942637 49.297383 
L 230.687336 48.560108 
L 233.432036 48.510965 
L 236.176736 46.446606 
L 238.921436 45.512722 
L 241.666135 44.382247 
L 244.410835 43.743276 
L 247.155535 49.64144 
L 249.900234 44.726304 
L 252.644934 49.64144 
L 255.389634 48.609252 
L 258.134334 46.397445 
L 260.879033 46.397445 
L 263.623733 48.16689 
L 266.368433 46.495749 
L 269.113133 49.248222 
L 271.857832 44.431408 
L 274.602532 44.185638 
L 277.347232 45.660188 
L 280.091931 43.595828 
L 282.836631 42.367049 
L 285.581331 45.463579 
L 288.326031 43.006019 
L 291.07073 42.416192 
L 293.81543 43.399219 
L 296.56013 46.299158 
L 299.30483 41.58063 
L 302.049529 39.860328 
L 304.794229 42.858553 
L 307.538929 40.892499 
L 310.283628 39.270519 
L 313.028328 40.794212 
L 315.773028 39.07391 
L 318.517728 40.400994 
L 321.262427 39.368824 
L 324.007127 37.795969 
L 326.751827 40.794212 
L 329.496527 40.646746 
L 332.241226 41.433165 
L 334.985926 38.189187 
L 337.730626 37.746826 
L 340.475325 40.94166 
L 343.220025 43.300915 
L 345.964725 42.022992 
L 348.709425 39.123053 
L 351.454124 37.599378 
L 354.198824 38.877301 
L 356.943524 41.924687 
L 359.688223 43.350076 
L 362.432923 41.384021 
L 365.177623 41.924687 
L 367.922323 39.762024 
L 370.667022 40.499299 
L 373.411722 38.041739 
L 376.156422 40.646746 
L 378.901122 38.484101 
L 381.645821 38.385796 
L 384.390521 35.584162 
L 387.135221 35.190962 
L 389.87992 35.190962 
L 392.62462 37.550217 
L 395.36932 38.877301 
L 398.11402 39.368824 
L 400.858719 37.795969 
L 403.603419 34.10963 
L 406.348119 33.913021 
L 409.092819 34.846905 
L 411.837518 33.716412 
L 414.582218 34.404544 
L 417.326918 36.124828 
L 420.071617 33.863878 
L 422.816317 36.124828 
L 425.561017 34.453687 
L 428.305717 37.501073 
L 431.050416 35.043496 
L 433.795116 33.323212 
L 436.539816 36.616351 
L 439.284516 31.4063 
L 442.029215 32.585937 
L 444.773915 34.011326 
L 447.518615 32.63508 
L 450.263314 30.767348 
L 453.008014 33.372355 
L 455.752714 32.389328 
L 458.497414 29.833464 
L 461.242113 30.423273 
L 463.986813 31.701214 
L 466.731513 30.963939 
L 469.476213 29.735159 
L 472.220912 31.455462 
L 474.965612 33.372355 
L 477.710312 32.291023 
L 480.455011 36.665494 
L 483.199711 34.355382 
L 485.944411 31.701214 
L 488.689111 32.438489 
L 491.43381 31.750357 
L 494.17851 38.828158 
L 496.92321 32.389328 
L 499.66791 31.160548 
L 502.412609 32.733385 
L 505.157309 35.682467 
L 507.902009 32.684241 
L 510.646708 31.701214 
L 513.391408 30.324969 
L 516.136108 30.030073 
L 518.880808 32.536794 
L 521.625507 30.816491 
L 524.370207 30.865634 
L 527.114907 35.485858 
L 529.859606 33.863878 
L 532.604306 35.535019 
L 535.349006 30.128378 
L 538.093706 27.867409 
L 540.838405 30.669043 
L 543.583105 34.207935 
L 546.327805 34.945192 
L 549.072505 36.812942 
L 551.817204 33.126603 
L 554.561904 30.963939 
L 557.306604 30.079216 
L 560.051303 30.472434 
L 562.796003 28.653828 
L 565.540703 28.555523 
L 568.285403 34.060469 
L 571.030102 30.963939 
L 573.774802 28.064018 
L 576.519502 31.701214 
L 579.264202 29.440246 
L 582.008901 29.587712 
L 584.753601 27.719961 
L 587.498301 27.719961 
L 590.243 29.587712 
L 595.7324 30.570739 
L 598.4771 25.80305 
L 601.221799 26.540325 
L 603.966499 24.869184 
L 606.711199 27.031848 
L 609.455899 29.341959 
L 612.200598 25.114936 
L 614.945298 25.016632 
L 617.689998 27.474209 
L 617.689998 27.474209 
" style="fill:none;stroke:#c8102e;stroke-linecap:round;stroke-width:1.2;"/>
   </g>
   <g id="line2d_2">
    <path clip-path="url(#pe74be56358)" d="M 71.494752 142.611336 
L 74.239452 119.612272 
L 76.984152 106.343574 
L 79.728851 97.645217 
L 82.473551 94.549174 
L 85.218251 86.735396 
L 87.962951 85.408528 
L 90.70765 81.427924 
L 93.45235 78.331898 
L 96.19705 74.351276 
L 98.94175 73.024408 
L 101.686449 71.9924 
L 104.431149 71.402681 
L 107.175849 67.127217 
L 109.920548 67.274647 
L 112.665248 63.588902 
L 115.409948 64.326051 
L 118.154648 63.441473 
L 120.899347 60.050588 
L 123.644047 62.999183 
L 126.388747 60.492877 
L 129.133447 60.198018 
L 131.878146 62.262034 
L 134.622846 60.935166 
L 137.367546 58.428842 
L 140.112245 59.313439 
L 142.856945 57.691693 
L 145.601645 56.954544 
L 148.346345 57.691693 
L 151.091044 55.037957 
L 153.835744 56.069966 
L 156.580444 54.300808 
L 159.325144 53.711089 
L 162.069843 55.185387 
L 164.814543 55.332817 
L 167.559243 54.153379 
L 170.303942 55.185387 
L 173.048642 52.236791 
L 175.793342 52.826511 
L 178.538042 52.826511 
L 181.282741 52.679081 
L 184.027441 54.005949 
L 186.772141 52.236791 
L 189.51684 52.531651 
L 192.26154 52.236791 
L 195.00624 49.583055 
L 197.75094 53.12137 
L 200.495639 50.320204 
L 203.240339 55.332817 
L 205.985039 49.583055 
L 208.729739 50.025345 
L 211.474438 52.236791 
L 214.219138 50.467634 
L 216.963838 47.961328 
L 219.708537 50.172775 
L 222.453237 51.204783 
L 225.197937 49.435626 
L 227.942637 50.172775 
L 230.687336 51.204783 
L 233.432036 50.909923 
L 236.176736 47.519039 
L 238.921436 48.551047 
L 241.666135 46.929319 
L 244.410835 48.551047 
L 247.155535 51.057353 
L 249.900234 48.256187 
L 252.644934 51.352213 
L 255.389634 48.993336 
L 258.134334 47.371609 
L 260.879033 48.993336 
L 263.623733 49.435626 
L 266.368433 51.057353 
L 269.113133 47.666468 
L 271.857832 47.666468 
L 274.602532 46.78189 
L 277.347232 47.224179 
L 280.091931 47.371609 
L 282.836631 47.666468 
L 285.581331 46.044741 
L 288.326031 46.78189 
L 291.07073 47.371609 
L 293.81543 46.044741 
L 296.56013 48.403617 
L 299.30483 48.403617 
L 302.049529 49.140766 
L 304.794229 47.519039 
L 307.538929 46.63446 
L 310.283628 46.63446 
L 313.028328 46.78189 
L 315.773028 46.192171 
L 318.517728 48.108758 
L 321.262427 47.076749 
L 324.007127 47.371609 
L 326.751827 48.256187 
L 329.496527 46.929319 
L 332.241226 46.929319 
L 334.985926 46.3396 
L 337.730626 47.961328 
L 340.475325 49.288196 
L 343.220025 48.551047 
L 345.964725 48.698477 
L 348.709425 46.929319 
L 351.454124 46.48703 
L 354.198824 48.256187 
L 356.943524 45.455022 
L 359.688223 47.076749 
L 362.432923 45.897311 
L 365.177623 46.3396 
L 367.922323 50.025345 
L 370.667022 45.602451 
L 373.411722 44.128154 
L 376.156422 47.076749 
L 378.901122 45.455022 
L 381.645821 45.602451 
L 384.390521 47.224179 
L 387.135221 45.602451 
L 389.87992 45.012732 
L 392.62462 45.160162 
L 395.36932 45.749881 
L 398.11402 45.012732 
L 400.858719 47.224179 
L 403.603419 45.602451 
L 406.348119 45.897311 
L 411.837518 45.897311 
L 414.582218 46.044741 
L 417.326918 46.48703 
L 420.071617 43.538435 
L 422.816317 45.012732 
L 425.561017 44.275583 
L 428.305717 46.63446 
L 431.050416 46.192171 
L 433.795116 46.3396 
L 436.539816 45.012732 
L 439.284516 45.455022 
L 442.029215 46.044741 
L 444.773915 44.865303 
L 447.518615 45.749881 
L 450.263314 44.275583 
L 453.008014 44.570443 
L 455.752714 44.570443 
L 458.497414 44.275583 
L 461.242113 44.717873 
L 463.986813 44.423013 
L 466.731513 43.980724 
L 469.476213 44.570443 
L 472.220912 43.096145 
L 474.965612 43.685864 
L 480.455011 46.044741 
L 483.199711 44.865303 
L 485.944411 45.012732 
L 488.689111 43.833294 
L 491.43381 44.570443 
L 494.17851 44.275583 
L 496.92321 42.948715 
L 499.66791 45.012732 
L 502.412609 45.160162 
L 505.157309 46.78189 
L 507.902009 45.455022 
L 510.646708 44.865303 
L 516.136108 45.455022 
L 518.880808 44.570443 
L 521.625507 44.717873 
L 524.370207 46.192171 
L 527.114907 46.929319 
L 529.859606 49.877915 
L 532.604306 49.583055 
L 535.349006 45.160162 
L 538.093706 44.128154 
L 540.838405 48.256187 
L 543.583105 44.865303 
L 546.327805 47.224179 
L 549.072505 46.192171 
L 551.817204 43.980724 
L 554.561904 42.653856 
L 557.306604 44.865303 
L 560.051303 45.602451 
L 562.796003 46.48703 
L 565.540703 46.78189 
L 568.285403 44.423013 
L 571.030102 44.423013 
L 573.774802 44.717873 
L 576.519502 43.833294 
L 579.264202 45.602451 
L 582.008901 45.455022 
L 584.753601 45.160162 
L 587.498301 44.128154 
L 590.243 46.044741 
L 592.9877 45.602451 
L 595.7324 44.570443 
L 598.4771 44.275583 
L 601.221799 43.391005 
L 603.966499 44.717873 
L 606.711199 45.012732 
L 609.455899 46.48703 
L 612.200598 43.391005 
L 614.945298 44.717873 
L 617.689998 43.538435 
L 617.689998 43.538435 
" style="fill:none;stroke:#00b388;stroke-linecap:round;stroke-width:1.2;"/>
   </g>
   <g id="line2d_3"/>
   <g id="line2d_4"/>
   <g id="patch_3">
    <path d="M 44.18499 204.932509 
L 44.18499 16.29474 
" style="fill:none;stroke:#262626;stroke-linecap:square;stroke-linejoin:miter;"/>
   </g>
   <g id="patch_4">
    <path d="M 644.99976 204.932509 
L 644.99976 16.29474 
" style="fill:none;stroke:#262626;stroke-linecap:square;stroke-linejoin:miter;"/>
   </g>
   <g id="patch_5">
    <path d="M 44.18499 204.932509 
L 644.99976 204.932509 
" style="fill:none;stroke:#262626;stroke-linecap:square;stroke-linejoin:miter;"/>
   </g>
   <g id="patch_6">
    <path d="M 44.18499 16.29474 
L 644.99976 16.29474 
" style="fill:none;stroke:#262626;stroke-linecap:square;stroke-linejoin:miter;"/>
   </g>
   <g id="text_9">
    <!-- Indian Pines 1D-CNN Training History -->
    <defs>
     <path d="M 24.703125 5.171875 
L 33.984375 5.171875 
L 33.984375 0 
L 5.515625 0 
L 5.515625 5.171875 
L 14.796875 5.171875 
L 14.796875 67.671875 
L 5.515625 67.671875 
L 5.515625 72.90625 
L 33.984375 72.90625 
L 33.984375 67.671875 
L 24.703125 67.671875 
z
" id="DejaVuSerif-73"/>
     <path d="M 4.109375 0 
L 4.109375 5.171875 
L 12.203125 5.171875 
L 12.203125 46.6875 
L 3.609375 46.6875 
L 3.609375 51.90625 
L 21.1875 51.90625 
L 21.1875 42.671875 
Q 23.6875 47.953125 27.65625 50.640625 
Q 31.640625 53.328125 36.921875 53.328125 
Q 45.515625 53.328125 49.5625 48.390625 
Q 53.609375 43.453125 53.609375 33.015625 
L 53.609375 5.171875 
L 61.625 5.171875 
L 61.625 0 
L 36.8125 0 
L 36.8125 5.171875 
L 44.578125 5.171875 
L 44.578125 30.171875 
Q 44.578125 39.703125 42.234375 43.234375 
Q 39.890625 46.78125 33.984375 46.78125 
Q 27.734375 46.78125 24.453125 42.203125 
Q 21.1875 37.640625 21.1875 28.90625 
L 21.1875 5.171875 
L 29 5.171875 
L 29 0 
z
" id="DejaVuSerif-110"/>
     <path d="M 52.484375 5.171875 
L 61.078125 5.171875 
L 61.078125 0 
L 43.5 0 
L 43.5 8.109375 
Q 40.875 3.21875 36.796875 0.890625 
Q 32.71875 -1.421875 26.703125 -1.421875 
Q 17.140625 -1.421875 11.0625 6.171875 
Q 4.984375 13.765625 4.984375 25.984375 
Q 4.984375 38.1875 11.03125 45.75 
Q 17.09375 53.328125 26.703125 53.328125 
Q 32.71875 53.328125 36.796875 51 
Q 40.875 48.6875 43.5 43.796875 
L 43.5 70.796875 
L 35.015625 70.796875 
L 35.015625 75.984375 
L 52.484375 75.984375 
z
M 43.5 23.390625 
L 43.5 28.515625 
Q 43.5 37.84375 39.90625 42.765625 
Q 36.328125 47.703125 29.5 47.703125 
Q 22.5625 47.703125 19.015625 42.234375 
Q 15.484375 36.765625 15.484375 25.984375 
Q 15.484375 15.234375 19.015625 9.71875 
Q 22.5625 4.203125 29.5 4.203125 
Q 36.328125 4.203125 39.90625 9.109375 
Q 43.5 14.015625 43.5 23.390625 
z
" id="DejaVuSerif-100"/>
     <path d="M 9.71875 68.015625 
Q 9.71875 70.265625 11.34375 71.921875 
Q 12.984375 73.578125 15.28125 73.578125 
Q 17.53125 73.578125 19.15625 71.921875 
Q 20.796875 70.265625 20.796875 68.015625 
Q 20.796875 65.71875 19.1875 64.109375 
Q 17.578125 62.5 15.28125 62.5 
Q 12.984375 62.5 11.34375 64.109375 
Q 9.71875 65.71875 9.71875 68.015625 
z
M 21.1875 5.171875 
L 29.6875 5.171875 
L 29.6875 0 
L 3.609375 0 
L 3.609375 5.171875 
L 12.203125 5.171875 
L 12.203125 46.6875 
L 3.609375 46.6875 
L 3.609375 51.90625 
L 21.1875 51.90625 
z
" id="DejaVuSerif-105"/>
     <path id="DejaVuSerif-32"/>
     <path d="M 24.703125 37.109375 
L 37.59375 37.109375 
Q 44.875 37.109375 48.671875 41.03125 
Q 52.484375 44.96875 52.484375 52.390625 
Q 52.484375 59.859375 48.671875 63.765625 
Q 44.875 67.671875 37.59375 67.671875 
L 24.703125 67.671875 
z
M 5.515625 0 
L 5.515625 5.171875 
L 14.796875 5.171875 
L 14.796875 67.671875 
L 5.515625 67.671875 
L 5.515625 72.90625 
L 39.984375 72.90625 
Q 50.921875 72.90625 57.3125 67.359375 
Q 63.71875 61.8125 63.71875 52.390625 
Q 63.71875 43.015625 57.3125 37.453125 
Q 50.921875 31.890625 39.984375 31.890625 
L 24.703125 31.890625 
L 24.703125 5.171875 
L 35.984375 5.171875 
L 35.984375 0 
z
" id="DejaVuSerif-80"/>
     <path d="M 54.203125 25 
L 15.484375 25 
L 15.484375 24.609375 
Q 15.484375 14.109375 19.4375 8.765625 
Q 23.390625 3.421875 31.109375 3.421875 
Q 37.015625 3.421875 40.796875 6.515625 
Q 44.578125 9.625 46.09375 15.71875 
L 53.328125 15.71875 
Q 51.171875 7.171875 45.375 2.875 
Q 39.59375 -1.421875 30.171875 -1.421875 
Q 18.796875 -1.421875 11.890625 6.078125 
Q 4.984375 13.578125 4.984375 25.984375 
Q 4.984375 38.28125 11.765625 45.796875 
Q 18.5625 53.328125 29.59375 53.328125 
Q 41.359375 53.328125 47.65625 46.0625 
Q 53.953125 38.8125 54.203125 25 
z
M 43.609375 30.171875 
Q 43.3125 39.265625 39.765625 43.875 
Q 36.234375 48.484375 29.59375 48.484375 
Q 23.390625 48.484375 19.828125 43.84375 
Q 16.265625 39.203125 15.484375 30.171875 
z
" id="DejaVuSerif-101"/>
     <path d="M 5.609375 2.875 
L 5.609375 14.984375 
L 10.796875 14.984375 
Q 10.984375 9.1875 14.421875 6.296875 
Q 17.875 3.421875 24.609375 3.421875 
Q 30.671875 3.421875 33.84375 5.6875 
Q 37.015625 7.953125 37.015625 12.3125 
Q 37.015625 15.71875 34.6875 17.8125 
Q 32.375 19.921875 24.90625 22.3125 
L 18.40625 24.515625 
Q 11.71875 26.65625 8.71875 29.875 
Q 5.71875 33.109375 5.71875 38.09375 
Q 5.71875 45.21875 10.9375 49.265625 
Q 16.15625 53.328125 25.390625 53.328125 
Q 29.5 53.328125 34.03125 52.25 
Q 38.578125 51.171875 43.40625 49.125 
L 43.40625 37.796875 
L 38.234375 37.796875 
Q 38.03125 42.828125 34.703125 45.65625 
Q 31.390625 48.484375 25.6875 48.484375 
Q 20.015625 48.484375 17.109375 46.484375 
Q 14.203125 44.484375 14.203125 40.484375 
Q 14.203125 37.203125 16.40625 35.21875 
Q 18.609375 33.25 25.203125 31.203125 
L 32.328125 29 
Q 39.703125 26.703125 42.9375 23.265625 
Q 46.1875 19.828125 46.1875 14.40625 
Q 46.1875 7.03125 40.546875 2.796875 
Q 34.90625 -1.421875 25 -1.421875 
Q 19.96875 -1.421875 15.1875 -0.34375 
Q 10.40625 0.734375 5.609375 2.875 
z
" id="DejaVuSerif-115"/>
     <path d="M 14.203125 0 
L 14.203125 5.171875 
L 26.90625 5.171875 
L 26.90625 65.828125 
L 12.203125 56.296875 
L 12.203125 62.703125 
L 29.984375 74.21875 
L 36.71875 74.21875 
L 36.71875 5.171875 
L 49.421875 5.171875 
L 49.421875 0 
z
" id="DejaVuSerif-49"/>
     <path d="M 24.703125 5.171875 
L 33.796875 5.171875 
Q 48 5.171875 55.59375 13.28125 
Q 63.1875 21.390625 63.1875 36.53125 
Q 63.1875 51.65625 55.609375 59.65625 
Q 48.046875 67.671875 33.796875 67.671875 
L 24.703125 67.671875 
z
M 5.515625 0 
L 5.515625 5.171875 
L 14.796875 5.171875 
L 14.796875 67.671875 
L 5.515625 67.671875 
L 5.515625 72.90625 
L 34.515625 72.90625 
Q 53.375 72.90625 63.890625 63.28125 
Q 74.421875 53.65625 74.421875 36.53125 
Q 74.421875 19.34375 63.875 9.671875 
Q 53.328125 0 34.515625 0 
z
" id="DejaVuSerif-68"/>
     <path d="M 4.390625 30.609375 
L 29.390625 30.609375 
L 29.390625 23 
L 4.390625 23 
z
" id="DejaVuSerif-45"/>
     <path d="M 70.515625 19.28125 
Q 67.28125 9.078125 59.6875 3.828125 
Q 52.09375 -1.421875 40.484375 -1.421875 
Q 33.34375 -1.421875 27.234375 1.015625 
Q 21.140625 3.46875 16.40625 8.203125 
Q 10.9375 13.671875 8.265625 20.625 
Q 5.609375 27.59375 5.609375 36.375 
Q 5.609375 53.375 15.421875 63.796875 
Q 25.25 74.21875 41.3125 74.21875 
Q 47.265625 74.21875 54 72.65625 
Q 60.75 71.09375 68.5 67.921875 
L 68.5 51.125 
L 62.984375 51.125 
Q 61.1875 60.296875 55.734375 64.640625 
Q 50.296875 69 40.484375 69 
Q 28.8125 69 22.796875 60.71875 
Q 16.796875 52.4375 16.796875 36.375 
Q 16.796875 20.359375 22.796875 12.078125 
Q 28.8125 3.8125 40.484375 3.8125 
Q 48.640625 3.8125 53.90625 7.6875 
Q 59.1875 11.578125 61.53125 19.28125 
z
" id="DejaVuSerif-67"/>
     <path d="M 4.890625 0 
L 4.890625 5.171875 
L 14.703125 5.171875 
L 14.703125 67.671875 
L 4.890625 67.671875 
L 4.890625 72.90625 
L 23.578125 72.90625 
L 67.28125 15.375 
L 67.28125 67.671875 
L 57.515625 67.671875 
L 57.515625 72.90625 
L 83.109375 72.90625 
L 83.109375 67.671875 
L 73.296875 67.671875 
L 73.296875 -1.421875 
L 67.390625 -1.421875 
L 20.703125 60.015625 
L 20.703125 5.171875 
L 30.515625 5.171875 
L 30.515625 0 
z
" id="DejaVuSerif-78"/>
     <path d="M 19.09375 0 
L 19.09375 5.171875 
L 28.421875 5.171875 
L 28.421875 67.09375 
L 6.984375 67.09375 
L 6.984375 55.71875 
L 0.984375 55.71875 
L 0.984375 72.90625 
L 65.71875 72.90625 
L 65.71875 55.71875 
L 59.71875 55.71875 
L 59.71875 67.09375 
L 38.28125 67.09375 
L 38.28125 5.171875 
L 47.609375 5.171875 
L 47.609375 0 
z
" id="DejaVuSerif-84"/>
     <path d="M 52.484375 46.6875 
L 52.484375 1.125 
Q 52.484375 -10.0625 46.328125 -16.140625 
Q 40.1875 -22.21875 28.8125 -22.21875 
Q 23.6875 -22.21875 19 -21.28125 
Q 14.3125 -20.359375 10.015625 -18.5 
L 10.015625 -7.625 
L 14.703125 -7.625 
Q 15.578125 -12.703125 18.84375 -15.046875 
Q 22.125 -17.390625 28.21875 -17.390625 
Q 36.140625 -17.390625 39.8125 -12.921875 
Q 43.5 -8.453125 43.5 1.125 
L 43.5 8.109375 
Q 40.875 3.21875 36.796875 0.890625 
Q 32.71875 -1.421875 26.703125 -1.421875 
Q 17.140625 -1.421875 11.0625 6.171875 
Q 4.984375 13.765625 4.984375 25.984375 
Q 4.984375 38.1875 11.03125 45.75 
Q 17.09375 53.328125 26.703125 53.328125 
Q 32.71875 53.328125 36.796875 51 
Q 40.875 48.6875 43.5 43.796875 
L 43.5 51.90625 
L 61.078125 51.90625 
L 61.078125 46.6875 
z
M 43.5 28.515625 
Q 43.5 37.84375 39.90625 42.765625 
Q 36.328125 47.703125 29.5 47.703125 
Q 22.5625 47.703125 19.015625 42.234375 
Q 15.484375 36.765625 15.484375 25.984375 
Q 15.484375 15.234375 19.015625 9.71875 
Q 22.5625 4.203125 29.5 4.203125 
Q 36.328125 4.203125 39.90625 9.109375 
Q 43.5 14.015625 43.5 23.390625 
z
" id="DejaVuSerif-103"/>
     <path d="M 5.515625 0 
L 5.515625 5.171875 
L 14.796875 5.171875 
L 14.796875 67.671875 
L 5.515625 67.671875 
L 5.515625 72.90625 
L 33.984375 72.90625 
L 33.984375 67.671875 
L 24.703125 67.671875 
L 24.703125 42.484375 
L 62.5 42.484375 
L 62.5 67.671875 
L 53.21875 67.671875 
L 53.21875 72.90625 
L 81.6875 72.90625 
L 81.6875 67.671875 
L 72.40625 67.671875 
L 72.40625 5.171875 
L 81.6875 5.171875 
L 81.6875 0 
L 53.21875 0 
L 53.21875 5.171875 
L 62.5 5.171875 
L 62.5 36.53125 
L 24.703125 36.53125 
L 24.703125 5.171875 
L 33.984375 5.171875 
L 33.984375 0 
z
" id="DejaVuSerif-72"/>
     <path d="M 10.796875 46.6875 
L 2.875 46.6875 
L 2.875 51.90625 
L 10.796875 51.90625 
L 10.796875 68.015625 
L 19.828125 68.015625 
L 19.828125 51.90625 
L 36.71875 51.90625 
L 36.71875 46.6875 
L 19.828125 46.6875 
L 19.828125 13.71875 
Q 19.828125 7.125 21.09375 5.265625 
Q 22.359375 3.421875 25.78125 3.421875 
Q 29.296875 3.421875 30.90625 5.484375 
Q 32.515625 7.5625 32.625 12.203125 
L 39.40625 12.203125 
Q 39.015625 5.125 35.546875 1.84375 
Q 32.078125 -1.421875 25 -1.421875 
Q 17.234375 -1.421875 14.015625 2.015625 
Q 10.796875 5.46875 10.796875 13.71875 
z
" id="DejaVuSerif-116"/>
     <path d="M 30.078125 3.421875 
Q 37.3125 3.421875 40.984375 9.125 
Q 44.671875 14.84375 44.671875 25.984375 
Q 44.671875 37.109375 40.984375 42.796875 
Q 37.3125 48.484375 30.078125 48.484375 
Q 22.859375 48.484375 19.171875 42.796875 
Q 15.484375 37.109375 15.484375 25.984375 
Q 15.484375 14.84375 19.1875 9.125 
Q 22.90625 3.421875 30.078125 3.421875 
z
M 30.078125 -1.421875 
Q 18.75 -1.421875 11.859375 6.078125 
Q 4.984375 13.578125 4.984375 25.984375 
Q 4.984375 38.375 11.84375 45.84375 
Q 18.703125 53.328125 30.078125 53.328125 
Q 41.453125 53.328125 48.3125 45.84375 
Q 55.171875 38.375 55.171875 25.984375 
Q 55.171875 13.578125 48.3125 6.078125 
Q 41.453125 -1.421875 30.078125 -1.421875 
z
" id="DejaVuSerif-111"/>
    </defs>
    <g style="fill:#262626;" transform="translate(250.489875 10.29474)scale(0.096 -0.096)">
     <use xlink:href="#DejaVuSerif-73"/>
     <use x="39.501953" xlink:href="#DejaVuSerif-110"/>
     <use x="103.90625" xlink:href="#DejaVuSerif-100"/>
     <use x="167.919922" xlink:href="#DejaVuSerif-105"/>
     <use x="199.902344" xlink:href="#DejaVuSerif-97"/>
     <use x="259.521484" xlink:href="#DejaVuSerif-110"/>
     <use x="323.925781" xlink:href="#DejaVuSerif-32"/>
     <use x="355.712891" xlink:href="#DejaVuSerif-80"/>
     <use x="422.998047" xlink:href="#DejaVuSerif-105"/>
     <use x="454.980469" xlink:href="#DejaVuSerif-110"/>
     <use x="519.384766" xlink:href="#DejaVuSerif-101"/>
     <use x="578.564453" xlink:href="#DejaVuSerif-115"/>
     <use x="629.882812" xlink:href="#DejaVuSerif-32"/>
     <use x="661.669922" xlink:href="#DejaVuSerif-49"/>
     <use x="725.292969" xlink:href="#DejaVuSerif-68"/>
     <use x="805.484375" xlink:href="#DejaVuSerif-45"/>
     <use x="839.273438" xlink:href="#DejaVuSerif-67"/>
     <use x="915.787109" xlink:href="#DejaVuSerif-78"/>
     <use x="1003.287109" xlink:href="#DejaVuSerif-78"/>
     <use x="1090.787109" xlink:href="#DejaVuSerif-32"/>
     <use x="1122.574219" xlink:href="#DejaVuSerif-84"/>
     <use x="1189.273438" xlink:href="#DejaVuSerif-114"/>
     <use x="1237.076172" xlink:href="#DejaVuSerif-97"/>
     <use x="1296.695312" xlink:href="#DejaVuSerif-105"/>
     <use x="1328.677734" xlink:href="#DejaVuSerif-110"/>
     <use x="1393.082031" xlink:href="#DejaVuSerif-105"/>
     <use x="1425.064453" xlink:href="#DejaVuSerif-110"/>
     <use x="1489.46875" xlink:href="#DejaVuSerif-103"/>
     <use x="1553.482422" xlink:href="#DejaVuSerif-32"/>
     <use x="1585.269531" xlink:href="#DejaVuSerif-72"/>
     <use x="1672.476562" xlink:href="#DejaVuSerif-105"/>
     <use x="1704.458984" xlink:href="#DejaVuSerif-115"/>
     <use x="1755.777344" xlink:href="#DejaVuSerif-116"/>
     <use x="1795.962891" xlink:href="#DejaVuSerif-111"/>
     <use x="1856.167969" xlink:href="#DejaVuSerif-114"/>
     <use x="1903.970703" xlink:href="#DejaVuSerif-121"/>
    </g>
   </g>
  </g>
  <g id="axes_2">
   <g id="legend_1">
    <g id="line2d_5">
     <path d="M 269.483688 225.801572 
L 287.083688 225.801572 
" style="fill:none;stroke:#c8102e;stroke-linecap:round;stroke-width:1.2;"/>
    </g>
    <g id="line2d_6"/>
    <g id="text_10">
     <!-- Training -->
     <g style="fill:#262626;" transform="translate(294.123688 228.881572)scale(0.088 -0.088)">
      <use xlink:href="#DejaVuSerif-84"/>
      <use x="66.699219" xlink:href="#DejaVuSerif-114"/>
      <use x="114.501953" xlink:href="#DejaVuSerif-97"/>
      <use x="174.121094" xlink:href="#DejaVuSerif-105"/>
      <use x="206.103516" xlink:href="#DejaVuSerif-110"/>
      <use x="270.507812" xlink:href="#DejaVuSerif-105"/>
      <use x="302.490234" xlink:href="#DejaVuSerif-110"/>
      <use x="366.894531" xlink:href="#DejaVuSerif-103"/>
     </g>
    </g>
    <g id="line2d_7">
     <path d="M 349.644813 225.801572 
L 367.244813 225.801572 
" style="fill:none;stroke:#00b388;stroke-linecap:round;stroke-width:1.2;"/>
    </g>
    <g id="line2d_8"/>
    <g id="text_11">
     <!-- Validation -->
     <defs>
      <path d="M 17.484375 67.671875 
L 39.015625 11.71875 
L 60.5 67.671875 
L 52.296875 67.671875 
L 52.296875 72.90625 
L 73.6875 72.90625 
L 73.6875 67.671875 
L 66.609375 67.671875 
L 40.578125 0 
L 32.171875 0 
L 6.296875 67.671875 
L -0.984375 67.671875 
L -0.984375 72.90625 
L 25.59375 72.90625 
L 25.59375 67.671875 
z
" id="DejaVuSerif-86"/>
      <path d="M 20.515625 5.171875 
L 29 5.171875 
L 29 0 
L 2.875 0 
L 2.875 5.171875 
L 11.53125 5.171875 
L 11.53125 70.796875 
L 2.875 70.796875 
L 2.875 75.984375 
L 20.515625 75.984375 
z
" id="DejaVuSerif-108"/>
     </defs>
     <g style="fill:#262626;" transform="translate(374.284813 228.881572)scale(0.088 -0.088)">
      <use xlink:href="#DejaVuSerif-86"/>
      <use x="72.076172" xlink:href="#DejaVuSerif-97"/>
      <use x="131.695312" xlink:href="#DejaVuSerif-108"/>
      <use x="163.677734" xlink:href="#DejaVuSerif-105"/>
      <use x="195.660156" xlink:href="#DejaVuSerif-100"/>
      <use x="259.673828" xlink:href="#DejaVuSerif-97"/>
      <use x="319.292969" xlink:href="#DejaVuSerif-116"/>
      <use x="359.478516" xlink:href="#DejaVuSerif-105"/>
      <use x="391.460938" xlink:href="#DejaVuSerif-111"/>
      <use x="451.666016" xlink:href="#DejaVuSerif-110"/>
     </g>
    </g>
   </g>
  </g>
  <g id="axes_3">
   <g id="patch_7">
    <path d="M 44.18499 434.89201 
L 644.99976 434.89201 
L 644.99976 246.254241 
L 44.18499 246.254241 
z
" style="fill:#ffffff;"/>
   </g>
   <g id="matplotlib.axis_3">
    <g id="xtick_1">
     <g id="text_12">
      <!-- 0 -->
      <g style="fill:#262626;" transform="translate(68.695252 449.878635)scale(0.088 -0.088)">
       <use xlink:href="#DejaVuSerif-48"/>
      </g>
     </g>
    </g>
    <g id="xtick_2">
     <g id="text_13">
      <!-- 25 -->
      <defs>
       <path d="M 12.796875 55.515625 
L 7.328125 55.515625 
L 7.328125 68.5 
Q 12.546875 71.296875 17.84375 72.75 
Q 23.140625 74.21875 28.21875 74.21875 
Q 39.59375 74.21875 46.1875 68.703125 
Q 52.78125 63.1875 52.78125 53.71875 
Q 52.78125 43.015625 37.84375 28.125 
Q 36.671875 27 36.078125 26.421875 
L 17.671875 8.015625 
L 48.09375 8.015625 
L 48.09375 17 
L 53.8125 17 
L 53.8125 0 
L 6.78125 0 
L 6.78125 5.328125 
L 28.90625 27.390625 
Q 36.234375 34.71875 39.359375 40.84375 
Q 42.484375 46.96875 42.484375 53.71875 
Q 42.484375 61.078125 38.640625 65.234375 
Q 34.8125 69.390625 28.078125 69.390625 
Q 21.09375 69.390625 17.28125 65.921875 
Q 13.484375 62.453125 12.796875 55.515625 
z
" id="DejaVuSerif-50"/>
      </defs>
      <g style="fill:#262626;" transform="translate(134.513245 449.878635)scale(0.088 -0.088)">
       <use xlink:href="#DejaVuSerif-50"/>
       <use x="63.623047" xlink:href="#DejaVuSerif-53"/>
      </g>
     </g>
    </g>
    <g id="xtick_3">
     <g id="text_14">
      <!-- 50 -->
      <g style="fill:#262626;" transform="translate(203.130739 449.878635)scale(0.088 -0.088)">
       <use xlink:href="#DejaVuSerif-53"/>
       <use x="63.623047" xlink:href="#DejaVuSerif-48"/>
      </g>
     </g>
    </g>
    <g id="xtick_4">
     <g id="text_15">
      <!-- 75 -->
      <g style="fill:#262626;" transform="translate(271.748232 449.878635)scale(0.088 -0.088)">
       <use xlink:href="#DejaVuSerif-55"/>
       <use x="63.623047" xlink:href="#DejaVuSerif-53"/>
      </g>
     </g>
    </g>
    <g id="xtick_5">
     <g id="text_16">
      <!-- 100 -->
      <g style="fill:#262626;" transform="translate(337.566225 449.878635)scale(0.088 -0.088)">
       <use xlink:href="#DejaVuSerif-49"/>
       <use x="63.623047" xlink:href="#DejaVuSerif-48"/>
       <use x="127.246094" xlink:href="#DejaVuSerif-48"/>
      </g>
     </g>
    </g>
    <g id="xtick_6">
     <g id="text_17">
      <!-- 125 -->
      <g style="fill:#262626;" transform="translate(406.183718 449.878635)scale(0.088 -0.088)">
       <use xlink:href="#DejaVuSerif-49"/>
       <use x="63.623047" xlink:href="#DejaVuSerif-50"/>
       <use x="127.246094" xlink:href="#DejaVuSerif-53"/>
      </g>
     </g>
    </g>
    <g id="xtick_7">
     <g id="text_18">
      <!-- 150 -->
      <g style="fill:#262626;" transform="translate(474.801211 449.878635)scale(0.088 -0.088)">
       <use xlink:href="#DejaVuSerif-49"/>
       <use x="63.623047" xlink:href="#DejaVuSerif-53"/>
       <use x="127.246094" xlink:href="#DejaVuSerif-48"/>
      </g>
     </g>
    </g>
    <g id="xtick_8">
     <g id="text_19">
      <!-- 175 -->
      <g style="fill:#262626;" transform="translate(543.418704 449.878635)scale(0.088 -0.088)">
       <use xlink:href="#DejaVuSerif-49"/>
       <use x="63.623047" xlink:href="#DejaVuSerif-55"/>
       <use x="127.246094" xlink:href="#DejaVuSerif-53"/>
      </g>
     </g>
    </g>
    <g id="xtick_9">
     <g id="text_20">
      <!-- 200 -->
      <g style="fill:#262626;" transform="translate(612.036197 449.878635)scale(0.088 -0.088)">
       <use xlink:href="#DejaVuSerif-50"/>
       <use x="63.623047" xlink:href="#DejaVuSerif-48"/>
       <use x="127.246094" xlink:href="#DejaVuSerif-48"/>
      </g>
     </g>
    </g>
    <g id="text_21">
     <!-- Epoch -->
     <defs>
      <path d="M 5.515625 0 
L 5.515625 5.171875 
L 14.796875 5.171875 
L 14.796875 67.671875 
L 5.515625 67.671875 
L 5.515625 72.90625 
L 64.203125 72.90625 
L 64.203125 56.6875 
L 58.203125 56.6875 
L 58.203125 66.890625 
L 24.703125 66.890625 
L 24.703125 42.484375 
L 48.578125 42.484375 
L 48.578125 51.609375 
L 54.59375 51.609375 
L 54.59375 27.390625 
L 48.578125 27.390625 
L 48.578125 36.53125 
L 24.703125 36.53125 
L 24.703125 6 
L 58.984375 6 
L 58.984375 16.21875 
L 64.984375 16.21875 
L 64.984375 0 
z
" id="DejaVuSerif-69"/>
      <path d="M 20.515625 28.515625 
L 20.515625 23.390625 
Q 20.515625 14.015625 24.09375 9.109375 
Q 27.6875 4.203125 34.515625 4.203125 
Q 41.40625 4.203125 44.9375 9.71875 
Q 48.484375 15.234375 48.484375 25.984375 
Q 48.484375 36.765625 44.9375 42.234375 
Q 41.40625 47.703125 34.515625 47.703125 
Q 27.6875 47.703125 24.09375 42.765625 
Q 20.515625 37.84375 20.515625 28.515625 
z
M 11.53125 46.6875 
L 2.875 46.6875 
L 2.875 51.90625 
L 20.515625 51.90625 
L 20.515625 43.796875 
Q 23.140625 48.6875 27.21875 51 
Q 31.296875 53.328125 37.3125 53.328125 
Q 46.875 53.328125 52.921875 45.75 
Q 58.984375 38.1875 58.984375 25.984375 
Q 58.984375 13.765625 52.921875 6.171875 
Q 46.875 -1.421875 37.3125 -1.421875 
Q 31.296875 -1.421875 27.21875 0.890625 
Q 23.140625 3.21875 20.515625 8.109375 
L 20.515625 -15.578125 
L 29 -15.578125 
L 29 -20.796875 
L 2.875 -20.796875 
L 2.875 -15.578125 
L 11.53125 -15.578125 
z
" id="DejaVuSerif-112"/>
      <path d="M 4.109375 0 
L 4.109375 5.171875 
L 12.203125 5.171875 
L 12.203125 70.796875 
L 3.609375 70.796875 
L 3.609375 75.984375 
L 21.1875 75.984375 
L 21.1875 42.671875 
Q 23.6875 47.953125 27.65625 50.640625 
Q 31.640625 53.328125 36.921875 53.328125 
Q 45.515625 53.328125 49.5625 48.390625 
Q 53.609375 43.453125 53.609375 33.015625 
L 53.609375 5.171875 
L 61.625 5.171875 
L 61.625 0 
L 36.8125 0 
L 36.8125 5.171875 
L 44.578125 5.171875 
L 44.578125 30.171875 
Q 44.578125 39.703125 42.25 43.1875 
Q 39.9375 46.6875 33.984375 46.6875 
Q 27.734375 46.6875 24.453125 42.140625 
Q 21.1875 37.59375 21.1875 28.90625 
L 21.1875 5.171875 
L 29 5.171875 
L 29 0 
z
" id="DejaVuSerif-104"/>
     </defs>
     <g style="fill:#262626;" transform="translate(329.346375 463.00326)scale(0.096 -0.096)">
      <use xlink:href="#DejaVuSerif-69"/>
      <use x="72.998047" xlink:href="#DejaVuSerif-112"/>
      <use x="137.011719" xlink:href="#DejaVuSerif-111"/>
      <use x="197.216797" xlink:href="#DejaVuSerif-99"/>
      <use x="253.222656" xlink:href="#DejaVuSerif-104"/>
     </g>
    </g>
   </g>
   <g id="matplotlib.axis_4">
    <g id="ytick_8">
     <g id="text_22">
      <!-- 0.25 -->
      <g style="fill:#262626;" transform="translate(16.29124 433.256154)scale(0.088 -0.088)">
       <use xlink:href="#DejaVuSerif-48"/>
       <use x="63.623047" xlink:href="#DejaVuSerif-46"/>
       <use x="95.410156" xlink:href="#DejaVuSerif-50"/>
       <use x="159.033203" xlink:href="#DejaVuSerif-53"/>
      </g>
     </g>
    </g>
    <g id="ytick_9">
     <g id="text_23">
      <!-- 0.50 -->
      <g style="fill:#262626;" transform="translate(16.29124 410.367713)scale(0.088 -0.088)">
       <use xlink:href="#DejaVuSerif-48"/>
       <use x="63.623047" xlink:href="#DejaVuSerif-46"/>
       <use x="95.410156" xlink:href="#DejaVuSerif-53"/>
       <use x="159.033203" xlink:href="#DejaVuSerif-48"/>
      </g>
     </g>
    </g>
    <g id="ytick_10">
     <g id="text_24">
      <!-- 0.75 -->
      <g style="fill:#262626;" transform="translate(16.29124 387.479272)scale(0.088 -0.088)">
       <use xlink:href="#DejaVuSerif-48"/>
       <use x="63.623047" xlink:href="#DejaVuSerif-46"/>
       <use x="95.410156" xlink:href="#DejaVuSerif-55"/>
       <use x="159.033203" xlink:href="#DejaVuSerif-53"/>
      </g>
     </g>
    </g>
    <g id="ytick_11">
     <g id="text_25">
      <!-- 1.00 -->
      <g style="fill:#262626;" transform="translate(16.29124 364.59083)scale(0.088 -0.088)">
       <use xlink:href="#DejaVuSerif-49"/>
       <use x="63.623047" xlink:href="#DejaVuSerif-46"/>
       <use x="95.410156" xlink:href="#DejaVuSerif-48"/>
       <use x="159.033203" xlink:href="#DejaVuSerif-48"/>
      </g>
     </g>
    </g>
    <g id="ytick_12">
     <g id="text_26">
      <!-- 1.25 -->
      <g style="fill:#262626;" transform="translate(16.29124 341.702389)scale(0.088 -0.088)">
       <use xlink:href="#DejaVuSerif-49"/>
       <use x="63.623047" xlink:href="#DejaVuSerif-46"/>
       <use x="95.410156" xlink:href="#DejaVuSerif-50"/>
       <use x="159.033203" xlink:href="#DejaVuSerif-53"/>
      </g>
     </g>
    </g>
    <g id="ytick_13">
     <g id="text_27">
      <!-- 1.50 -->
      <g style="fill:#262626;" transform="translate(16.29124 318.813948)scale(0.088 -0.088)">
       <use xlink:href="#DejaVuSerif-49"/>
       <use x="63.623047" xlink:href="#DejaVuSerif-46"/>
       <use x="95.410156" xlink:href="#DejaVuSerif-53"/>
       <use x="159.033203" xlink:href="#DejaVuSerif-48"/>
      </g>
     </g>
    </g>
    <g id="ytick_14">
     <g id="text_28">
      <!-- 1.75 -->
      <g style="fill:#262626;" transform="translate(16.29124 295.925507)scale(0.088 -0.088)">
       <use xlink:href="#DejaVuSerif-49"/>
       <use x="63.623047" xlink:href="#DejaVuSerif-46"/>
       <use x="95.410156" xlink:href="#DejaVuSerif-55"/>
       <use x="159.033203" xlink:href="#DejaVuSerif-53"/>
      </g>
     </g>
    </g>
    <g id="ytick_15">
     <g id="text_29">
      <!-- 2.00 -->
      <g style="fill:#262626;" transform="translate(16.29124 273.037065)scale(0.088 -0.088)">
       <use xlink:href="#DejaVuSerif-50"/>
       <use x="63.623047" xlink:href="#DejaVuSerif-46"/>
       <use x="95.410156" xlink:href="#DejaVuSerif-48"/>
       <use x="159.033203" xlink:href="#DejaVuSerif-48"/>
      </g>
     </g>
    </g>
    <g id="ytick_16">
     <g id="text_30">
      <!-- 2.25 -->
      <g style="fill:#262626;" transform="translate(16.29124 250.148624)scale(0.088 -0.088)">
       <use xlink:href="#DejaVuSerif-50"/>
       <use x="63.623047" xlink:href="#DejaVuSerif-46"/>
       <use x="95.410156" xlink:href="#DejaVuSerif-50"/>
       <use x="159.033203" xlink:href="#DejaVuSerif-53"/>
      </g>
     </g>
    </g>
    <g id="text_31">
     <!-- Loss -->
     <defs>
      <path d="M 5.515625 0 
L 5.515625 5.171875 
L 14.796875 5.171875 
L 14.796875 67.671875 
L 5.515625 67.671875 
L 5.515625 72.90625 
L 33.984375 72.90625 
L 33.984375 67.671875 
L 24.703125 67.671875 
L 24.703125 6 
L 58.015625 6 
L 58.015625 18.21875 
L 64.015625 18.21875 
L 64.015625 0 
z
" id="DejaVuSerif-76"/>
     </defs>
     <g style="fill:#262626;" transform="translate(10.29474 351.576375)rotate(-90)scale(0.096 -0.096)">
      <use xlink:href="#DejaVuSerif-76"/>
      <use x="66.40625" xlink:href="#DejaVuSerif-111"/>
      <use x="126.611328" xlink:href="#DejaVuSerif-115"/>
      <use x="177.929688" xlink:href="#DejaVuSerif-115"/>
     </g>
    </g>
   </g>
   <g id="line2d_9">
    <path clip-path="url(#pef2e16ab9a)" d="M 71.494752 254.828685 
L 74.239452 318.326926 
L 76.984152 339.406882 
L 79.728851 351.059542 
L 82.473551 358.787167 
L 85.218251 364.777448 
L 87.962951 366.624023 
L 90.70765 371.413245 
L 93.45235 373.591775 
L 96.19705 377.229636 
L 98.94175 379.018089 
L 101.686449 380.596375 
L 104.431149 381.949737 
L 107.175849 383.652394 
L 109.920548 384.424656 
L 112.665248 386.54238 
L 115.409948 386.058988 
L 118.154648 387.794645 
L 120.899347 390.511764 
L 123.644047 390.125122 
L 126.388747 389.30315 
L 129.133447 391.423242 
L 131.878146 390.856491 
L 134.622846 390.938106 
L 140.112245 394.453006 
L 142.856945 395.079189 
L 145.601645 392.618437 
L 148.346345 394.639176 
L 151.091044 396.238021 
L 153.835744 398.627423 
L 156.580444 398.799789 
L 159.325144 398.371372 
L 162.069843 397.16572 
L 164.814543 398.201645 
L 167.559243 400.33255 
L 170.303942 399.984736 
L 173.048642 401.383221 
L 175.793342 402.49965 
L 178.538042 401.111321 
L 181.282741 403.690686 
L 186.772141 402.421201 
L 189.51684 402.949756 
L 192.26154 404.069665 
L 195.00624 405.827351 
L 197.75094 403.681098 
L 200.495639 404.779659 
L 203.240339 402.309822 
L 205.985039 401.70381 
L 208.729739 403.869295 
L 211.474438 405.363074 
L 214.219138 404.839981 
L 216.963838 407.953455 
L 219.708537 406.543599 
L 222.453237 404.151586 
L 225.197937 404.173979 
L 227.942637 405.448507 
L 230.687336 406.137455 
L 233.432036 406.345966 
L 236.176736 408.048153 
L 238.921436 408.817045 
L 241.666135 409.463658 
L 244.410835 408.144727 
L 247.155535 406.141683 
L 249.900234 409.43593 
L 252.644934 405.582217 
L 255.389634 406.259666 
L 258.134334 408.099983 
L 260.879033 408.559674 
L 263.623733 406.098718 
L 266.368433 408.019451 
L 269.113133 404.820939 
L 271.857832 409.373414 
L 274.602532 409.781276 
L 277.347232 409.617914 
L 280.091931 409.796765 
L 282.836631 411.281552 
L 285.581331 408.845475 
L 288.326031 411.040546 
L 291.07073 410.81973 
L 293.81543 412.277452 
L 296.56013 408.593709 
L 299.30483 412.00671 
L 302.049529 412.271628 
L 304.794229 409.996072 
L 307.538929 412.348198 
L 313.028328 413.579055 
L 315.773028 413.632159 
L 318.517728 412.813434 
L 321.262427 413.482815 
L 324.007127 414.305572 
L 326.751827 414.108296 
L 329.496527 414.042508 
L 332.241226 412.663615 
L 334.985926 415.026852 
L 337.730626 414.797535 
L 340.475325 413.66457 
L 343.220025 411.092747 
L 345.964725 412.758409 
L 348.709425 414.591649 
L 351.454124 415.568125 
L 354.198824 415.238106 
L 356.943524 413.34263 
L 359.688223 412.028378 
L 362.432923 413.254996 
L 365.177623 410.945726 
L 367.922323 412.892706 
L 370.667022 413.791069 
L 373.411722 415.389489 
L 376.156422 412.942203 
L 378.901122 415.35239 
L 381.645821 415.617058 
L 384.390521 417.181262 
L 387.135221 417.599401 
L 389.87992 417.784252 
L 395.36932 414.923176 
L 398.11402 414.551082 
L 400.858719 415.646044 
L 403.603419 417.798499 
L 406.348119 418.150432 
L 409.092819 418.083928 
L 411.837518 418.916337 
L 417.326918 417.039192 
L 420.071617 419.175367 
L 422.816317 417.698724 
L 425.561017 417.862922 
L 428.305717 416.247549 
L 433.795116 418.864366 
L 436.539816 418.465228 
L 439.284516 420.448438 
L 442.029215 419.711462 
L 447.518615 420.295193 
L 450.263314 421.355946 
L 453.008014 419.753951 
L 455.752714 420.677889 
L 458.497414 421.458817 
L 461.242113 421.99892 
L 463.986813 420.002607 
L 466.731513 421.015162 
L 469.476213 422.210356 
L 472.220912 421.05597 
L 474.965612 419.741029 
L 477.710312 420.060947 
L 480.455011 416.982388 
L 483.199711 419.519063 
L 485.944411 421.403262 
L 488.689111 420.151683 
L 491.43381 420.51733 
L 494.17851 414.999483 
L 496.92321 420.260834 
L 499.66791 420.813139 
L 502.412609 421.109315 
L 505.157309 416.782812 
L 507.902009 418.366012 
L 510.646708 420.526027 
L 513.391408 422.059452 
L 516.136108 422.088804 
L 518.880808 419.27614 
L 521.625507 420.778414 
L 524.370207 421.585428 
L 527.114907 417.221981 
L 529.859606 418.543582 
L 532.604306 415.622222 
L 535.349006 421.095709 
L 538.093706 423.083911 
L 540.838405 421.826275 
L 543.583105 419.908972 
L 546.327805 416.190071 
L 549.072505 416.306096 
L 551.817204 420.040685 
L 554.561904 421.067352 
L 557.306604 421.956441 
L 560.051303 423.18623 
L 562.796003 423.348724 
L 565.540703 422.610349 
L 568.285403 418.705914 
L 571.030102 421.191818 
L 573.774802 423.99908 
L 576.519502 422.125703 
L 579.264202 423.268062 
L 582.008901 423.180427 
L 584.753601 424.299041 
L 587.498301 425.162646 
L 590.243 422.852265 
L 592.9877 422.361724 
L 595.7324 422.044736 
L 598.4771 424.697726 
L 601.221799 424.869231 
L 603.966499 426.26025 
L 606.711199 425.560043 
L 609.455899 422.67388 
L 612.200598 425.427351 
L 614.945298 426.317566 
L 617.689998 425.653103 
L 617.689998 425.653103 
" style="fill:none;stroke:#c8102e;stroke-linecap:round;stroke-width:1.2;"/>
   </g>
   <g id="line2d_10">
    <path clip-path="url(#pef2e16ab9a)" d="M 71.494752 313.561671 
L 74.239452 344.852296 
L 76.984152 358.223026 
L 79.728851 367.239442 
L 82.473551 371.869677 
L 85.218251 375.406342 
L 87.962951 378.285513 
L 90.70765 380.210518 
L 93.45235 383.158972 
L 96.19705 385.368222 
L 98.94175 386.399965 
L 101.686449 388.025425 
L 104.431149 388.668379 
L 107.175849 390.122712 
L 109.920548 390.781666 
L 112.665248 392.2896 
L 115.409948 392.456544 
L 118.154648 393.715252 
L 120.899347 395.104893 
L 123.644047 394.141315 
L 126.388747 394.196511 
L 129.133447 395.345119 
L 131.878146 395.038277 
L 134.622846 396.160577 
L 137.367546 397.555761 
L 140.112245 395.986169 
L 142.856945 398.031528 
L 145.601645 398.209286 
L 148.346345 398.033076 
L 151.091044 399.316253 
L 153.835744 399.58608 
L 159.325144 400.58665 
L 162.069843 398.484725 
L 164.814543 398.395745 
L 167.559243 400.964235 
L 170.303942 400.154738 
L 173.048642 402.02262 
L 175.793342 400.894345 
L 178.538042 401.302129 
L 181.282741 402.212069 
L 184.027441 399.708044 
L 186.772141 402.669064 
L 189.51684 401.774922 
L 192.26154 401.89318 
L 195.00624 404.500996 
L 197.75094 401.514803 
L 200.495639 403.394092 
L 203.240339 400.099023 
L 205.985039 402.914973 
L 208.729739 404.273105 
L 211.474438 401.498665 
L 214.219138 404.216015 
L 216.963838 403.925101 
L 219.708537 403.767919 
L 222.453237 402.835147 
L 225.197937 403.31341 
L 227.942637 403.664429 
L 230.687336 403.053476 
L 233.432036 404.025543 
L 236.176736 405.210748 
L 238.921436 404.721678 
L 241.666135 404.715258 
L 244.410835 404.170435 
L 247.155535 403.357858 
L 249.900234 405.65328 
L 252.644934 402.049693 
L 255.389634 404.127475 
L 258.134334 403.817523 
L 260.879033 402.751913 
L 263.623733 403.584497 
L 266.368433 402.65443 
L 269.113133 404.398681 
L 271.857832 405.098595 
L 274.602532 405.477844 
L 277.347232 405.32758 
L 280.091931 404.979056 
L 282.836631 404.962374 
L 285.581331 405.309004 
L 288.326031 405.125658 
L 291.07073 405.989605 
L 293.81543 405.653529 
L 296.56013 404.585314 
L 299.30483 405.107187 
L 302.049529 403.553413 
L 304.794229 403.872215 
L 307.538929 405.23431 
L 310.283628 404.669735 
L 313.028328 403.798478 
L 315.773028 404.583531 
L 318.517728 404.96001 
L 321.262427 404.874408 
L 324.007127 405.022945 
L 329.496527 405.755852 
L 332.241226 406.636374 
L 334.985926 405.817872 
L 337.730626 405.309706 
L 340.475325 405.436223 
L 343.220025 403.687486 
L 345.964725 404.523795 
L 348.709425 406.19035 
L 351.454124 405.544838 
L 354.198824 404.765113 
L 356.943524 406.646702 
L 359.688223 403.120549 
L 362.432923 405.226811 
L 365.177623 403.213671 
L 367.922323 402.223736 
L 370.667022 406.288084 
L 373.411722 406.821387 
L 376.156422 404.069204 
L 378.901122 405.554854 
L 381.645821 405.68637 
L 384.390521 403.050385 
L 387.135221 404.818453 
L 389.87992 404.43891 
L 392.62462 405.610413 
L 395.36932 403.35984 
L 398.11402 404.450371 
L 400.858719 404.406013 
L 403.603419 405.29184 
L 406.348119 404.572668 
L 409.092819 405.364792 
L 411.837518 404.113578 
L 414.582218 405.226663 
L 417.326918 404.136708 
L 420.071617 404.775362 
L 422.816317 404.956583 
L 425.561017 405.32539 
L 428.305717 403.752704 
L 431.050416 404.062614 
L 433.795116 405.327825 
L 436.539816 404.904469 
L 439.284516 405.130275 
L 442.029215 404.300365 
L 444.773915 404.830825 
L 447.518615 404.054713 
L 450.263314 403.520231 
L 453.008014 404.368936 
L 455.752714 403.770153 
L 458.497414 404.291874 
L 461.242113 402.867072 
L 463.986813 403.749968 
L 466.731513 404.511028 
L 469.476213 403.639662 
L 472.220912 404.777631 
L 474.965612 403.884473 
L 477.710312 405.942845 
L 480.455011 402.778625 
L 483.199711 403.747727 
L 485.944411 403.985292 
L 488.689111 403.930464 
L 491.43381 403.542709 
L 494.17851 403.347333 
L 496.92321 404.241508 
L 499.66791 404.253487 
L 502.412609 403.227387 
L 505.157309 402.807481 
L 507.902009 403.382091 
L 510.646708 402.139364 
L 513.391408 403.219994 
L 516.136108 402.189958 
L 518.880808 403.964755 
L 521.625507 404.224157 
L 524.370207 403.44149 
L 527.114907 401.134642 
L 529.859606 398.01988 
L 532.604306 398.828474 
L 535.349006 402.684253 
L 538.093706 403.070362 
L 540.838405 400.741424 
L 543.583105 403.555794 
L 546.327805 402.621736 
L 549.072505 402.781276 
L 551.817204 402.657458 
L 554.561904 402.664169 
L 557.306604 403.180048 
L 560.051303 400.228847 
L 562.796003 399.668886 
L 565.540703 401.332618 
L 568.285403 403.372901 
L 571.030102 402.719185 
L 573.774802 403.27966 
L 576.519502 402.055026 
L 579.264202 402.845694 
L 582.008901 400.254778 
L 584.753601 401.762514 
L 587.498301 402.907004 
L 590.243 401.060087 
L 592.9877 400.455602 
L 595.7324 402.084467 
L 598.4771 401.577893 
L 601.221799 402.477484 
L 603.966499 399.908616 
L 606.711199 399.720794 
L 612.200598 402.512919 
L 614.945298 400.845908 
L 617.689998 401.808588 
L 617.689998 401.808588 
" style="fill:none;stroke:#00b388;stroke-linecap:round;stroke-width:1.2;"/>
   </g>
   <g id="patch_8">
    <path d="M 44.18499 434.89201 
L 44.18499 246.254241 
" style="fill:none;stroke:#262626;stroke-linecap:square;stroke-linejoin:miter;"/>
   </g>
   <g id="patch_9">
    <path d="M 644.99976 434.89201 
L 644.99976 246.254241 
" style="fill:none;stroke:#262626;stroke-linecap:square;stroke-linejoin:miter;"/>
   </g>
   <g id="patch_10">
    <path d="M 44.18499 434.89201 
L 644.99976 434.89201 
" style="fill:none;stroke:#262626;stroke-linecap:square;stroke-linejoin:miter;"/>
   </g>
   <g id="patch_11">
    <path d="M 44.18499 246.254241 
L 644.99976 246.254241 
" style="fill:none;stroke:#262626;stroke-linecap:square;stroke-linejoin:miter;"/>
   </g>
  </g>
 </g>
 <defs>
  <clipPath id="pe74be56358">
   <rect height="188.637769" width="600.81477" x="44.18499" y="16.29474"/>
  </clipPath>
  <clipPath id="pef2e16ab9a">
   <rect height="188.637769" width="600.81477" x="44.18499" y="246.254241"/>
  </clipPath>
 </defs>
</svg>
