<?xml version="1.0" encoding="utf-8" standalone="no"?>
<!DOCTYPE svg PUBLIC "-//W3C//DTD SVG 1.1//EN"
  "http://www.w3.org/Graphics/SVG/1.1/DTD/svg11.dtd">
<!-- Created with matplotlib (https://matplotlib.org/) -->
<svg height="468pt" version="1.1" viewBox="0 0 648 468" width="648pt" xmlns="http://www.w3.org/2000/svg" xmlns:xlink="http://www.w3.org/1999/xlink">
 <defs>
  <style type="text/css">
*{stroke-linecap:butt;stroke-linejoin:round;}
  </style>
 </defs>
 <g id="figure_1">
  <g id="patch_1">
   <path d="M 0 468 
L 648 468 
L 648 0 
L 0 0 
z
" style="fill:#ffffff;"/>
  </g>
  <g id="axes_1">
   <g id="patch_2">
    <path d="M 38.58599 208.631112 
L 644.99976 208.631112 
L 644.99976 16.29474 
L 38.58599 16.29474 
z
" style="fill:#ffffff;"/>
   </g>
   <g id="matplotlib.axis_1"/>
   <g id="matplotlib.axis_2">
    <g id="ytick_1">
     <g id="text_1">
      <!-- 0.6 -->
      <defs>
       <path d="M 31.78125 3.421875 
Q 39.265625 3.421875 42.96875 11.625 
Q 46.6875 19.828125 46.6875 36.375 
Q 46.6875 52.984375 42.96875 61.1875 
Q 39.265625 69.390625 31.78125 69.390625 
Q 24.3125 69.390625 20.59375 61.1875 
Q 16.890625 52.984375 16.890625 36.375 
Q 16.890625 19.828125 20.59375 11.625 
Q 24.3125 3.421875 31.78125 3.421875 
z
M 31.78125 -1.421875 
Q 19.921875 -1.421875 13.25 8.53125 
Q 6.59375 18.5 6.59375 36.375 
Q 6.59375 54.296875 13.25 64.25 
Q 19.921875 74.21875 31.78125 74.21875 
Q 43.703125 74.21875 50.34375 64.25 
Q 56.984375 54.296875 56.984375 36.375 
Q 56.984375 18.5 50.34375 8.53125 
Q 43.703125 -1.421875 31.78125 -1.421875 
z
" id="DejaVuSerif-48"/>
       <path d="M 9.421875 5.078125 
Q 9.421875 7.8125 11.28125 9.71875 
Q 13.140625 11.625 15.921875 11.625 
Q 18.609375 11.625 20.5 9.71875 
Q 22.40625 7.8125 22.40625 5.078125 
Q 22.40625 2.390625 20.5 0.484375 
Q 18.609375 -1.421875 15.921875 -1.421875 
Q 13.140625 -1.421875 11.28125 0.453125 
Q 9.421875 2.34375 9.421875 5.078125 
z
" id="DejaVuSerif-46"/>
       <path d="M 32.71875 3.421875 
Q 39.59375 3.421875 43.296875 8.46875 
Q 47.015625 13.53125 47.015625 23 
Q 47.015625 32.46875 43.296875 37.515625 
Q 39.59375 42.578125 32.71875 42.578125 
Q 25.734375 42.578125 22.0625 37.6875 
Q 18.40625 32.8125 18.40625 23.578125 
Q 18.40625 13.875 22.109375 8.640625 
Q 25.828125 3.421875 32.71875 3.421875 
z
M 16.796875 40.140625 
Q 20.125 43.796875 24.3125 45.59375 
Q 28.515625 47.40625 33.796875 47.40625 
Q 44.671875 47.40625 51 40.859375 
Q 57.328125 34.328125 57.328125 23 
Q 57.328125 11.921875 50.515625 5.25 
Q 43.703125 -1.421875 32.328125 -1.421875 
Q 19.96875 -1.421875 13.328125 7.78125 
Q 6.6875 17 6.6875 34.078125 
Q 6.6875 53.21875 14.546875 63.71875 
Q 22.40625 74.21875 36.71875 74.21875 
Q 40.578125 74.21875 44.828125 73.484375 
Q 49.078125 72.75 53.515625 71.296875 
L 53.515625 59.28125 
L 48 59.28125 
Q 47.40625 64.203125 44.234375 66.796875 
Q 41.0625 69.390625 35.6875 69.390625 
Q 26.21875 69.390625 21.578125 62.203125 
Q 16.9375 55.03125 16.796875 40.140625 
z
" id="DejaVuSerif-54"/>
      </defs>
      <g style="fill:#262626;" transform="translate(16.29124 190.09144)scale(0.088 -0.088)">
       <use xlink:href="#DejaVuSerif-48"/>
       <use x="63.623047" xlink:href="#DejaVuSerif-46"/>
       <use x="95.410156" xlink:href="#DejaVuSerif-54"/>
      </g>
     </g>
    </g>
    <g id="ytick_2">
     <g id="text_2">
      <!-- 0.7 -->
      <defs>
       <path d="M 56.390625 67.921875 
L 27.875 0 
L 20.609375 0 
L 47.796875 64.890625 
L 14.109375 64.890625 
L 14.109375 55.90625 
L 8.40625 55.90625 
L 8.40625 72.90625 
L 56.390625 72.90625 
z
" id="DejaVuSerif-55"/>
      </defs>
      <g style="fill:#262626;" transform="translate(16.29124 149.462438)scale(0.088 -0.088)">
       <use xlink:href="#DejaVuSerif-48"/>
       <use x="63.623047" xlink:href="#DejaVuSerif-46"/>
       <use x="95.410156" xlink:href="#DejaVuSerif-55"/>
      </g>
     </g>
    </g>
    <g id="ytick_3">
     <g id="text_3">
      <!-- 0.8 -->
      <defs>
       <path d="M 46.578125 19.921875 
Q 46.578125 27.734375 42.6875 32.046875 
Q 38.8125 36.375 31.78125 36.375 
Q 24.75 36.375 20.875 32.046875 
Q 17 27.734375 17 19.921875 
Q 17 12.0625 20.875 7.734375 
Q 24.75 3.421875 31.78125 3.421875 
Q 38.8125 3.421875 42.6875 7.734375 
Q 46.578125 12.0625 46.578125 19.921875 
z
M 44.578125 55.328125 
Q 44.578125 61.96875 41.203125 65.671875 
Q 37.84375 69.390625 31.78125 69.390625 
Q 25.78125 69.390625 22.390625 65.671875 
Q 19 61.96875 19 55.328125 
Q 19 48.640625 22.390625 44.921875 
Q 25.78125 41.21875 31.78125 41.21875 
Q 37.84375 41.21875 41.203125 44.921875 
Q 44.578125 48.640625 44.578125 55.328125 
z
M 39.3125 38.8125 
Q 47.609375 37.703125 52.25 32.6875 
Q 56.890625 27.6875 56.890625 19.921875 
Q 56.890625 9.671875 50.390625 4.125 
Q 43.890625 -1.421875 31.78125 -1.421875 
Q 19.734375 -1.421875 13.203125 4.125 
Q 6.6875 9.671875 6.6875 19.921875 
Q 6.6875 27.6875 11.328125 32.6875 
Q 15.96875 37.703125 24.3125 38.8125 
Q 16.9375 40.140625 13 44.40625 
Q 9.078125 48.6875 9.078125 55.328125 
Q 9.078125 64.109375 15.125 69.15625 
Q 21.1875 74.21875 31.78125 74.21875 
Q 42.390625 74.21875 48.4375 69.15625 
Q 54.5 64.109375 54.5 55.328125 
Q 54.5 48.6875 50.5625 44.40625 
Q 46.625 40.140625 39.3125 38.8125 
z
" id="DejaVuSerif-56"/>
      </defs>
      <g style="fill:#262626;" transform="translate(16.29124 108.833436)scale(0.088 -0.088)">
       <use xlink:href="#DejaVuSerif-48"/>
       <use x="63.623047" xlink:href="#DejaVuSerif-46"/>
       <use x="95.410156" xlink:href="#DejaVuSerif-56"/>
      </g>
     </g>
    </g>
    <g id="ytick_4">
     <g id="text_4">
      <!-- 0.9 -->
      <defs>
       <path d="M 46.78125 32.671875 
Q 43.5 29 39.25 27.1875 
Q 35.015625 25.390625 29.6875 25.390625 
Q 18.84375 25.390625 12.5625 31.9375 
Q 6.296875 38.484375 6.296875 49.8125 
Q 6.296875 60.890625 13.109375 67.546875 
Q 19.921875 74.21875 31.296875 74.21875 
Q 43.65625 74.21875 50.265625 65.015625 
Q 56.890625 55.8125 56.890625 38.71875 
Q 56.890625 19.578125 49.015625 9.078125 
Q 41.15625 -1.421875 26.90625 -1.421875 
Q 23.046875 -1.421875 18.796875 -0.6875 
Q 14.546875 0.046875 10.109375 1.515625 
L 10.109375 13.625 
L 15.578125 13.625 
Q 16.21875 8.6875 19.390625 6.046875 
Q 22.5625 3.421875 27.875 3.421875 
Q 37.359375 3.421875 41.984375 10.5625 
Q 46.625 17.71875 46.78125 32.671875 
z
M 30.90625 69.390625 
Q 23.96875 69.390625 20.28125 64.328125 
Q 16.609375 59.28125 16.609375 49.8125 
Q 16.609375 40.328125 20.28125 35.25 
Q 23.96875 30.171875 30.90625 30.171875 
Q 37.84375 30.171875 41.53125 35.078125 
Q 45.21875 39.984375 45.21875 49.21875 
Q 45.21875 58.9375 41.5 64.15625 
Q 37.796875 69.390625 30.90625 69.390625 
z
" id="DejaVuSerif-57"/>
      </defs>
      <g style="fill:#262626;" transform="translate(16.29124 68.204434)scale(0.088 -0.088)">
       <use xlink:href="#DejaVuSerif-48"/>
       <use x="63.623047" xlink:href="#DejaVuSerif-46"/>
       <use x="95.410156" xlink:href="#DejaVuSerif-57"/>
      </g>
     </g>
    </g>
    <g id="ytick_5">
     <g id="text_5">
      <!-- 1.0 -->
      <defs>
       <path d="M 14.203125 0 
L 14.203125 5.171875 
L 26.90625 5.171875 
L 26.90625 65.828125 
L 12.203125 56.296875 
L 12.203125 62.703125 
L 29.984375 74.21875 
L 36.71875 74.21875 
L 36.71875 5.171875 
L 49.421875 5.171875 
L 49.421875 0 
z
" id="DejaVuSerif-49"/>
      </defs>
      <g style="fill:#262626;" transform="translate(16.29124 27.575431)scale(0.088 -0.088)">
       <use xlink:href="#DejaVuSerif-49"/>
       <use x="63.623047" xlink:href="#DejaVuSerif-46"/>
       <use x="95.410156" xlink:href="#DejaVuSerif-48"/>
      </g>
     </g>
    </g>
    <g id="text_6">
     <!-- Accuracy -->
     <defs>
      <path d="M 20.015625 26.421875 
L 46.78125 26.421875 
L 33.40625 61.078125 
z
M -0.59375 0 
L -0.59375 5.171875 
L 5.8125 5.171875 
L 31.78125 72.90625 
L 39.984375 72.90625 
L 66.015625 5.171875 
L 73.1875 5.171875 
L 73.1875 0 
L 46.6875 0 
L 46.6875 5.171875 
L 54.78125 5.171875 
L 48.6875 21.1875 
L 18.015625 21.1875 
L 11.921875 5.171875 
L 19.921875 5.171875 
L 19.921875 0 
z
" id="DejaVuSerif-65"/>
      <path d="M 51.421875 15.578125 
Q 49.515625 7.28125 44.09375 2.921875 
Q 38.671875 -1.421875 30.078125 -1.421875 
Q 18.75 -1.421875 11.859375 6.078125 
Q 4.984375 13.578125 4.984375 25.984375 
Q 4.984375 38.421875 11.859375 45.875 
Q 18.75 53.328125 30.078125 53.328125 
Q 35.015625 53.328125 39.890625 52.171875 
Q 44.78125 51.03125 49.703125 48.6875 
L 49.703125 35.40625 
L 44.484375 35.40625 
Q 43.453125 42.234375 40.015625 45.359375 
Q 36.578125 48.484375 30.171875 48.484375 
Q 22.90625 48.484375 19.1875 42.84375 
Q 15.484375 37.203125 15.484375 25.984375 
Q 15.484375 14.75 19.171875 9.078125 
Q 22.859375 3.421875 30.171875 3.421875 
Q 35.984375 3.421875 39.453125 6.4375 
Q 42.921875 9.46875 44.1875 15.578125 
z
" id="DejaVuSerif-99"/>
      <path d="M 35.40625 51.90625 
L 52.203125 51.90625 
L 52.203125 5.171875 
L 60.6875 5.171875 
L 60.6875 0 
L 43.21875 0 
L 43.21875 9.1875 
Q 40.71875 4 36.765625 1.28125 
Q 32.8125 -1.421875 27.59375 -1.421875 
Q 18.953125 -1.421875 14.875 3.484375 
Q 10.796875 8.40625 10.796875 18.890625 
L 10.796875 46.6875 
L 2.6875 46.6875 
L 2.6875 51.90625 
L 19.828125 51.90625 
L 19.828125 21.6875 
Q 19.828125 12.203125 22.140625 8.6875 
Q 24.46875 5.171875 30.421875 5.171875 
Q 36.671875 5.171875 39.9375 9.765625 
Q 43.21875 14.359375 43.21875 23.09375 
L 43.21875 46.6875 
L 35.40625 46.6875 
z
" id="DejaVuSerif-117"/>
      <path d="M 47.796875 52 
L 47.796875 39.015625 
L 42.625 39.015625 
Q 42.390625 42.875 40.484375 44.78125 
Q 38.578125 46.6875 34.90625 46.6875 
Q 28.265625 46.6875 24.71875 42.09375 
Q 21.1875 37.5 21.1875 28.90625 
L 21.1875 5.171875 
L 31.59375 5.171875 
L 31.59375 0 
L 4.109375 0 
L 4.109375 5.171875 
L 12.203125 5.171875 
L 12.203125 46.78125 
L 3.609375 46.78125 
L 3.609375 51.90625 
L 21.1875 51.90625 
L 21.1875 42.671875 
Q 23.828125 48.09375 27.96875 50.703125 
Q 32.125 53.328125 38.09375 53.328125 
Q 40.28125 53.328125 42.703125 52.984375 
Q 45.125 52.640625 47.796875 52 
z
" id="DejaVuSerif-114"/>
      <path d="M 39.796875 16.3125 
L 39.796875 27.296875 
L 28.21875 27.296875 
Q 21.53125 27.296875 18.25 24.40625 
Q 14.984375 21.53125 14.984375 15.578125 
Q 14.984375 10.15625 18.296875 6.984375 
Q 21.625 3.8125 27.296875 3.8125 
Q 32.90625 3.8125 36.34375 7.28125 
Q 39.796875 10.75 39.796875 16.3125 
z
M 48.78125 32.421875 
L 48.78125 5.171875 
L 56.78125 5.171875 
L 56.78125 0 
L 39.796875 0 
L 39.796875 5.609375 
Q 36.8125 2 32.90625 0.28125 
Q 29 -1.421875 23.78125 -1.421875 
Q 15.140625 -1.421875 10.0625 3.171875 
Q 4.984375 7.765625 4.984375 15.578125 
Q 4.984375 23.640625 10.796875 28.078125 
Q 16.609375 32.515625 27.203125 32.515625 
L 39.796875 32.515625 
L 39.796875 36.078125 
Q 39.796875 42 36.203125 45.234375 
Q 32.625 48.484375 26.125 48.484375 
Q 20.75 48.484375 17.578125 46.046875 
Q 14.40625 43.609375 13.625 38.8125 
L 8.984375 38.8125 
L 8.984375 49.3125 
Q 13.671875 51.3125 18.09375 52.3125 
Q 22.515625 53.328125 26.703125 53.328125 
Q 37.5 53.328125 43.140625 47.96875 
Q 48.78125 42.625 48.78125 32.421875 
z
" id="DejaVuSerif-97"/>
      <path d="M 21.578125 -9.515625 
L 25 -0.875 
L 5.609375 46.6875 
L -0.296875 46.6875 
L -0.296875 51.90625 
L 23.578125 51.90625 
L 23.578125 46.6875 
L 15.28125 46.6875 
L 29.890625 10.984375 
L 44.484375 46.6875 
L 36.71875 46.6875 
L 36.71875 51.90625 
L 56.203125 51.90625 
L 56.203125 46.6875 
L 50.390625 46.6875 
L 26.609375 -11.71875 
Q 24.171875 -17.78125 21.1875 -20 
Q 18.21875 -22.21875 12.796875 -22.21875 
Q 10.5 -22.21875 8.078125 -21.828125 
Q 5.671875 -21.4375 3.21875 -20.703125 
L 3.21875 -10.796875 
L 7.8125 -10.796875 
Q 8.109375 -14.109375 9.5 -15.546875 
Q 10.890625 -17 13.8125 -17 
Q 16.5 -17 18.140625 -15.5 
Q 19.78125 -14.015625 21.578125 -9.515625 
z
" id="DejaVuSerif-121"/>
     </defs>
     <g style="fill:#262626;" transform="translate(10.15824 134.953176)rotate(-90)scale(0.096 -0.096)">
      <use xlink:href="#DejaVuSerif-65"/>
      <use x="72.216797" xlink:href="#DejaVuSerif-99"/>
      <use x="128.222656" xlink:href="#DejaVuSerif-99"/>
      <use x="184.228516" xlink:href="#DejaVuSerif-117"/>
      <use x="248.632812" xlink:href="#DejaVuSerif-114"/>
      <use x="296.435547" xlink:href="#DejaVuSerif-97"/>
      <use x="356.054688" xlink:href="#DejaVuSerif-99"/>
      <use x="412.060547" xlink:href="#DejaVuSerif-121"/>
     </g>
    </g>
   </g>
   <g id="line2d_1">
    <path clip-path="url(#p9c9e174571)" d="M 66.150252 199.88855 
L 68.92053 123.268329 
L 71.690808 91.061426 
L 74.461085 73.605299 
L 77.231363 61.881983 
L 80.00164 61.431091 
L 82.771918 52.477569 
L 85.542196 49.45011 
L 88.312473 43.298613 
L 91.082751 43.652881 
L 93.853028 42.30018 
L 96.623306 41.366188 
L 99.393584 39.015078 
L 102.163861 38.531978 
L 104.934139 36.921635 
L 107.704417 34.699359 
L 110.474694 33.5077 
L 113.244972 32.477082 
L 116.015249 33.475491 
L 118.785527 34.795984 
L 121.555805 33.668741 
L 124.326082 36.180868 
L 127.09636 34.473901 
L 129.866637 30.415848 
L 132.636915 31.15659 
L 135.407193 30.770115 
L 138.17747 30.898948 
L 140.947748 32.541499 
L 143.718026 30.802323 
L 146.488303 31.478673 
L 149.258581 30.898948 
L 152.028858 28.99873 
L 154.799136 28.547838 
L 160.339691 29.610664 
L 163.109969 29.449647 
L 165.880246 28.257988 
L 168.650524 29.19198 
L 171.420802 28.322404 
L 174.191079 27.903696 
L 176.961357 28.322404 
L 179.731635 28.99873 
L 182.501912 29.256397 
L 185.27219 29.159772 
L 188.042467 28.837713 
L 190.812745 28.805505 
L 193.583023 27.807096 
L 196.3533 27.356179 
L 199.123578 28.161363 
L 201.893855 28.483422 
L 204.664133 27.517221 
L 207.434411 26.905287 
L 210.204688 28.225779 
L 212.974966 29.320814 
L 215.745244 27.22737 
L 218.515521 27.098537 
L 221.285799 28.386797 
L 224.056076 27.83928 
L 226.826354 28.290196 
L 229.596632 27.034121 
L 232.366909 27.130745 
L 235.137187 26.293354 
L 237.907464 27.517221 
L 240.677742 27.742679 
L 243.44802 29.417438 
L 246.218297 28.03253 
L 248.988575 26.518812 
L 254.52913 27.388388 
L 257.299408 26.132336 
L 260.069685 25.617003 
L 262.839963 27.549429 
L 265.610241 26.840871 
L 268.380518 27.001912 
L 271.150796 26.808662 
L 273.921073 28.322404 
L 276.691351 27.388388 
L 279.461629 26.840871 
L 282.231906 26.937496 
L 285.002184 25.906878 
L 287.772462 26.712062 
L 290.542739 28.257988 
L 293.313017 28.161363 
L 296.083294 27.549429 
L 298.853572 25.778045 
L 301.62385 25.745837 
L 304.394127 26.583228 
L 307.164405 26.261145 
L 309.934682 26.744246 
L 312.70496 26.969704 
L 315.475238 26.840871 
L 318.245515 27.130745 
L 321.015793 26.486604 
L 323.786071 26.969704 
L 326.556348 26.840871 
L 329.326626 27.001912 
L 332.096903 26.132336 
L 334.867181 25.939087 
L 337.637459 26.261145 
L 343.178014 25.455986 
L 345.948291 25.617003 
L 348.718569 26.486604 
L 351.488847 25.842462 
L 354.259124 25.520403 
L 357.029402 26.06792 
L 359.799679 27.549429 
L 362.569957 26.615437 
L 365.340235 26.679853 
L 368.110512 27.130745 
L 370.88079 26.228937 
L 373.651068 25.488194 
L 376.421345 26.325562 
L 379.191623 26.583228 
L 381.9619 26.518812 
L 384.732178 27.22737 
L 387.502456 27.259579 
L 390.272733 25.971295 
L 393.043011 26.003503 
L 395.813288 26.840871 
L 398.583566 26.679853 
L 401.353844 26.293354 
L 404.124121 26.293354 
L 406.894399 26.035711 
L 409.664677 26.35777 
L 412.434954 25.359361 
L 415.205232 26.261145 
L 417.975509 26.422187 
L 420.745787 26.100128 
L 423.516065 25.552611 
L 426.286342 26.422187 
L 429.05662 25.520403 
L 431.826897 26.389979 
L 434.597175 26.840871 
L 437.367453 26.712062 
L 440.13773 26.325562 
L 442.908008 27.646054 
L 445.678286 26.422187 
L 448.448563 25.552611 
L 451.218841 26.518812 
L 456.759396 26.164545 
L 459.529674 26.840871 
L 465.070229 26.132336 
L 467.840506 26.679853 
L 476.151339 25.713628 
L 478.921617 25.906878 
L 481.691895 32.766957 
L 484.462172 27.774887 
L 487.23245 26.132336 
L 490.002727 26.840871 
L 492.773005 26.196729 
L 495.543283 25.939087 
L 498.31356 26.035711 
L 501.083838 25.520403 
L 503.854115 25.87467 
L 506.624393 25.39157 
L 509.394671 25.842462 
L 512.164948 25.617003 
L 514.935226 26.518812 
L 517.705504 26.55102 
L 520.475781 25.939087 
L 523.246059 25.455986 
L 526.016336 25.617003 
L 528.786614 25.39157 
L 531.556892 25.455986 
L 534.327169 25.037302 
L 537.097447 25.262736 
L 539.867724 25.133903 
L 542.638002 25.488194 
L 545.40828 25.713628 
L 548.178557 25.552611 
L 550.948835 25.101695 
L 553.719113 25.262736 
L 556.48939 25.552611 
L 559.259668 25.520403 
L 562.029945 25.87467 
L 567.570501 25.971295 
L 570.340778 25.713628 
L 573.111056 25.87467 
L 575.881333 26.164545 
L 578.651611 27.420596 
L 581.421889 26.261145 
L 584.192166 26.422187 
L 589.732722 25.810253 
L 592.502999 25.778045 
L 595.273277 26.712062 
L 598.043554 25.87467 
L 603.58411 25.971295 
L 606.354387 25.810253 
L 609.124665 25.327153 
L 611.894942 25.069486 
L 614.66522 25.906878 
L 617.435498 25.87467 
L 617.435498 25.87467 
" style="fill:none;stroke:#c8102e;stroke-linecap:round;stroke-width:1.2;"/>
   </g>
   <g id="line2d_2">
    <path clip-path="url(#p9c9e174571)" d="M 66.150252 119.500126 
L 68.92053 74.281649 
L 74.461085 52.831836 
L 77.231363 49.063634 
L 80.00164 47.710958 
L 82.771918 42.879905 
L 85.542196 40.947504 
L 88.312473 41.237354 
L 91.082751 42.01033 
L 93.853028 38.918453 
L 96.623306 39.401578 
L 99.393584 39.401578 
L 102.163861 39.788053 
L 104.934139 39.304953 
L 107.704417 36.792802 
L 110.474694 35.633351 
L 113.244972 36.309701 
L 116.015249 37.952252 
L 118.785527 36.792802 
L 121.555805 37.469152 
L 124.326082 36.502951 
L 127.09636 34.957025 
L 129.866637 34.087425 
L 132.636915 34.957025 
L 135.407193 33.70095 
L 138.17747 35.150251 
L 146.488303 35.343501 
L 149.258581 34.66715 
L 152.028858 33.121224 
L 154.799136 33.604325 
L 157.569414 33.024599 
L 160.339691 35.729976 
L 165.880246 33.797574 
L 168.650524 33.411075 
L 171.420802 32.734749 
L 174.191079 33.314474 
L 176.961357 33.121224 
L 182.501912 33.894199 
L 185.27219 33.9908 
L 188.042467 35.826601 
L 190.812745 32.831349 
L 193.583023 34.3773 
L 196.3533 33.121224 
L 199.123578 32.927974 
L 204.664133 31.865149 
L 207.434411 34.763775 
L 210.204688 34.957025 
L 212.974966 33.894199 
L 215.745244 33.411075 
L 218.515521 33.411075 
L 224.056076 34.3773 
L 226.826354 33.797574 
L 229.596632 33.894199 
L 232.366909 32.444874 
L 235.137187 32.927974 
L 237.907464 33.797574 
L 240.677742 35.729976 
L 243.44802 37.952252 
L 246.218297 32.251648 
L 248.988575 33.894199 
L 251.758853 32.638124 
L 254.52913 34.18405 
L 257.299408 31.768524 
L 260.069685 32.251648 
L 262.839963 34.3773 
L 265.610241 32.927974 
L 268.380518 33.314474 
L 271.150796 33.411075 
L 273.921073 34.087425 
L 276.691351 33.411075 
L 279.461629 32.444874 
L 282.231906 32.348249 
L 285.002184 33.797574 
L 287.772462 33.70095 
L 290.542739 34.8604 
L 293.313017 33.411075 
L 296.083294 32.734749 
L 298.853572 32.444874 
L 301.62385 31.865149 
L 304.394127 32.348249 
L 307.164405 33.314474 
L 309.934682 33.314474 
L 312.70496 33.894199 
L 315.475238 33.797574 
L 318.245515 35.343501 
L 321.015793 34.087425 
L 323.786071 34.763775 
L 326.556348 33.9908 
L 329.326626 32.541499 
L 332.096903 33.5077 
L 334.867181 33.411075 
L 337.637459 32.831349 
L 340.407736 33.604325 
L 343.178014 33.217849 
L 345.948291 31.768524 
L 348.718569 33.121224 
L 351.488847 33.314474 
L 357.029402 32.831349 
L 359.799679 34.66715 
L 362.569957 33.894199 
L 365.340235 35.826601 
L 368.110512 32.444874 
L 370.88079 32.058399 
L 373.651068 32.058399 
L 376.421345 32.348249 
L 379.191623 33.70095 
L 381.9619 33.217849 
L 384.732178 33.024599 
L 387.502456 34.280675 
L 390.272733 32.251648 
L 393.043011 35.633351 
L 395.813288 32.831349 
L 398.583566 32.927974 
L 401.353844 34.66715 
L 404.124121 32.831349 
L 406.894399 32.348249 
L 409.664677 32.638124 
L 412.434954 31.961774 
L 415.205232 31.575298 
L 417.975509 34.087425 
L 420.745787 32.927974 
L 423.516065 33.121224 
L 426.286342 31.865149 
L 429.05662 31.671923 
L 431.826897 32.927974 
L 434.597175 33.217849 
L 437.367453 33.217849 
L 440.13773 33.411075 
L 442.908008 32.444874 
L 445.678286 33.70095 
L 448.448563 32.155023 
L 451.218841 34.3773 
L 456.759396 32.831349 
L 459.529674 33.217849 
L 462.299951 31.285423 
L 465.070229 34.66715 
L 467.840506 32.251648 
L 470.610784 33.217849 
L 473.381062 32.348249 
L 476.151339 32.251648 
L 478.921617 32.734749 
L 481.691895 35.053626 
L 484.462172 33.604325 
L 487.23245 33.604325 
L 490.002727 31.575298 
L 492.773005 31.382048 
L 495.543283 32.638124 
L 498.31356 32.638124 
L 503.854115 31.478673 
L 506.624393 32.251648 
L 509.394671 31.961774 
L 512.164948 32.638124 
L 514.935226 31.768524 
L 517.705504 33.5077 
L 523.246059 31.285423 
L 526.016336 31.575298 
L 528.786614 32.155023 
L 534.327169 30.898948 
L 537.097447 31.865149 
L 539.867724 31.768524 
L 542.638002 33.217849 
L 545.40828 32.831349 
L 548.178557 32.831349 
L 550.948835 33.217849 
L 553.719113 31.865149 
L 556.48939 32.541499 
L 559.259668 32.831349 
L 562.029945 32.638124 
L 564.800223 32.734749 
L 567.570501 31.961774 
L 570.340778 33.894199 
L 573.111056 32.638124 
L 575.881333 33.70095 
L 578.651611 32.638124 
L 581.421889 32.541499 
L 584.192166 33.314474 
L 586.962444 32.251648 
L 589.732722 32.541499 
L 592.502999 33.217849 
L 595.273277 32.734749 
L 598.043554 32.638124 
L 600.813832 31.382048 
L 603.58411 32.251648 
L 606.354387 32.251648 
L 609.124665 31.961774 
L 611.894942 32.831349 
L 614.66522 32.734749 
L 617.435498 33.217849 
L 617.435498 33.217849 
" style="fill:none;stroke:#00b388;stroke-linecap:round;stroke-width:1.2;"/>
   </g>
   <g id="line2d_3"/>
   <g id="line2d_4"/>
   <g id="patch_3">
    <path d="M 38.58599 208.631112 
L 38.58599 16.29474 
" style="fill:none;stroke:#262626;stroke-linecap:square;stroke-linejoin:miter;"/>
   </g>
   <g id="patch_4">
    <path d="M 644.99976 208.631112 
L 644.99976 16.29474 
" style="fill:none;stroke:#262626;stroke-linecap:square;stroke-linejoin:miter;"/>
   </g>
   <g id="patch_5">
    <path d="M 38.58599 208.631112 
L 644.99976 208.631112 
" style="fill:none;stroke:#262626;stroke-linecap:square;stroke-linejoin:miter;"/>
   </g>
   <g id="patch_6">
    <path d="M 38.58599 16.29474 
L 644.99976 16.29474 
" style="fill:none;stroke:#262626;stroke-linecap:square;stroke-linejoin:miter;"/>
   </g>
   <g id="text_7">
    <!-- Indian Pines 3D-CNN Training History -->
    <defs>
     <path d="M 24.703125 5.171875 
L 33.984375 5.171875 
L 33.984375 0 
L 5.515625 0 
L 5.515625 5.171875 
L 14.796875 5.171875 
L 14.796875 67.671875 
L 5.515625 67.671875 
L 5.515625 72.90625 
L 33.984375 72.90625 
L 33.984375 67.671875 
L 24.703125 67.671875 
z
" id="DejaVuSerif-73"/>
     <path d="M 4.109375 0 
L 4.109375 5.171875 
L 12.203125 5.171875 
L 12.203125 46.6875 
L 3.609375 46.6875 
L 3.609375 51.90625 
L 21.1875 51.90625 
L 21.1875 42.671875 
Q 23.6875 47.953125 27.65625 50.640625 
Q 31.640625 53.328125 36.921875 53.328125 
Q 45.515625 53.328125 49.5625 48.390625 
Q 53.609375 43.453125 53.609375 33.015625 
L 53.609375 5.171875 
L 61.625 5.171875 
L 61.625 0 
L 36.8125 0 
L 36.8125 5.171875 
L 44.578125 5.171875 
L 44.578125 30.171875 
Q 44.578125 39.703125 42.234375 43.234375 
Q 39.890625 46.78125 33.984375 46.78125 
Q 27.734375 46.78125 24.453125 42.203125 
Q 21.1875 37.640625 21.1875 28.90625 
L 21.1875 5.171875 
L 29 5.171875 
L 29 0 
z
" id="DejaVuSerif-110"/>
     <path d="M 52.484375 5.171875 
L 61.078125 5.171875 
L 61.078125 0 
L 43.5 0 
L 43.5 8.109375 
Q 40.875 3.21875 36.796875 0.890625 
Q 32.71875 -1.421875 26.703125 -1.421875 
Q 17.140625 -1.421875 11.0625 6.171875 
Q 4.984375 13.765625 4.984375 25.984375 
Q 4.984375 38.1875 11.03125 45.75 
Q 17.09375 53.328125 26.703125 53.328125 
Q 32.71875 53.328125 36.796875 51 
Q 40.875 48.6875 43.5 43.796875 
L 43.5 70.796875 
L 35.015625 70.796875 
L 35.015625 75.984375 
L 52.484375 75.984375 
z
M 43.5 23.390625 
L 43.5 28.515625 
Q 43.5 37.84375 39.90625 42.765625 
Q 36.328125 47.703125 29.5 47.703125 
Q 22.5625 47.703125 19.015625 42.234375 
Q 15.484375 36.765625 15.484375 25.984375 
Q 15.484375 15.234375 19.015625 9.71875 
Q 22.5625 4.203125 29.5 4.203125 
Q 36.328125 4.203125 39.90625 9.109375 
Q 43.5 14.015625 43.5 23.390625 
z
" id="DejaVuSerif-100"/>
     <path d="M 9.71875 68.015625 
Q 9.71875 70.265625 11.34375 71.921875 
Q 12.984375 73.578125 15.28125 73.578125 
Q 17.53125 73.578125 19.15625 71.921875 
Q 20.796875 70.265625 20.796875 68.015625 
Q 20.796875 65.71875 19.1875 64.109375 
Q 17.578125 62.5 15.28125 62.5 
Q 12.984375 62.5 11.34375 64.109375 
Q 9.71875 65.71875 9.71875 68.015625 
z
M 21.1875 5.171875 
L 29.6875 5.171875 
L 29.6875 0 
L 3.609375 0 
L 3.609375 5.171875 
L 12.203125 5.171875 
L 12.203125 46.6875 
L 3.609375 46.6875 
L 3.609375 51.90625 
L 21.1875 51.90625 
z
" id="DejaVuSerif-105"/>
     <path id="DejaVuSerif-32"/>
     <path d="M 24.703125 37.109375 
L 37.59375 37.109375 
Q 44.875 37.109375 48.671875 41.03125 
Q 52.484375 44.96875 52.484375 52.390625 
Q 52.484375 59.859375 48.671875 63.765625 
Q 44.875 67.671875 37.59375 67.671875 
L 24.703125 67.671875 
z
M 5.515625 0 
L 5.515625 5.171875 
L 14.796875 5.171875 
L 14.796875 67.671875 
L 5.515625 67.671875 
L 5.515625 72.90625 
L 39.984375 72.90625 
Q 50.921875 72.90625 57.3125 67.359375 
Q 63.71875 61.8125 63.71875 52.390625 
Q 63.71875 43.015625 57.3125 37.453125 
Q 50.921875 31.890625 39.984375 31.890625 
L 24.703125 31.890625 
L 24.703125 5.171875 
L 35.984375 5.171875 
L 35.984375 0 
z
" id="DejaVuSerif-80"/>
     <path d="M 54.203125 25 
L 15.484375 25 
L 15.484375 24.609375 
Q 15.484375 14.109375 19.4375 8.765625 
Q 23.390625 3.421875 31.109375 3.421875 
Q 37.015625 3.421875 40.796875 6.515625 
Q 44.578125 9.625 46.09375 15.71875 
L 53.328125 15.71875 
Q 51.171875 7.171875 45.375 2.875 
Q 39.59375 -1.421875 30.171875 -1.421875 
Q 18.796875 -1.421875 11.890625 6.078125 
Q 4.984375 13.578125 4.984375 25.984375 
Q 4.984375 38.28125 11.765625 45.796875 
Q 18.5625 53.328125 29.59375 53.328125 
Q 41.359375 53.328125 47.65625 46.0625 
Q 53.953125 38.8125 54.203125 25 
z
M 43.609375 30.171875 
Q 43.3125 39.265625 39.765625 43.875 
Q 36.234375 48.484375 29.59375 48.484375 
Q 23.390625 48.484375 19.828125 43.84375 
Q 16.265625 39.203125 15.484375 30.171875 
z
" id="DejaVuSerif-101"/>
     <path d="M 5.609375 2.875 
L 5.609375 14.984375 
L 10.796875 14.984375 
Q 10.984375 9.1875 14.421875 6.296875 
Q 17.875 3.421875 24.609375 3.421875 
Q 30.671875 3.421875 33.84375 5.6875 
Q 37.015625 7.953125 37.015625 12.3125 
Q 37.015625 15.71875 34.6875 17.8125 
Q 32.375 19.921875 24.90625 22.3125 
L 18.40625 24.515625 
Q 11.71875 26.65625 8.71875 29.875 
Q 5.71875 33.109375 5.71875 38.09375 
Q 5.71875 45.21875 10.9375 49.265625 
Q 16.15625 53.328125 25.390625 53.328125 
Q 29.5 53.328125 34.03125 52.25 
Q 38.578125 51.171875 43.40625 49.125 
L 43.40625 37.796875 
L 38.234375 37.796875 
Q 38.03125 42.828125 34.703125 45.65625 
Q 31.390625 48.484375 25.6875 48.484375 
Q 20.015625 48.484375 17.109375 46.484375 
Q 14.203125 44.484375 14.203125 40.484375 
Q 14.203125 37.203125 16.40625 35.21875 
Q 18.609375 33.25 25.203125 31.203125 
L 32.328125 29 
Q 39.703125 26.703125 42.9375 23.265625 
Q 46.1875 19.828125 46.1875 14.40625 
Q 46.1875 7.03125 40.546875 2.796875 
Q 34.90625 -1.421875 25 -1.421875 
Q 19.96875 -1.421875 15.1875 -0.34375 
Q 10.40625 0.734375 5.609375 2.875 
z
" id="DejaVuSerif-115"/>
     <path d="M 9.71875 69.828125 
Q 15.4375 71.96875 20.671875 73.09375 
Q 25.921875 74.21875 30.515625 74.21875 
Q 41.21875 74.21875 47.21875 69.59375 
Q 53.21875 64.984375 53.21875 56.78125 
Q 53.21875 50.203125 49.0625 45.78125 
Q 44.921875 41.359375 37.3125 39.796875 
Q 46.296875 38.53125 51.25 33.28125 
Q 56.203125 28.03125 56.203125 19.671875 
Q 56.203125 9.46875 49.34375 4.015625 
Q 42.484375 -1.421875 29.59375 -1.421875 
Q 23.875 -1.421875 18.421875 -0.1875 
Q 12.984375 1.03125 7.625 3.515625 
L 7.625 17.671875 
L 13.09375 17.671875 
Q 13.578125 10.640625 17.828125 7.03125 
Q 22.078125 3.421875 29.78125 3.421875 
Q 37.25 3.421875 41.578125 7.734375 
Q 45.90625 12.0625 45.90625 19.578125 
Q 45.90625 28.171875 41.453125 32.59375 
Q 37.015625 37.015625 28.421875 37.015625 
L 23.78125 37.015625 
L 23.78125 42 
L 26.21875 42 
Q 34.765625 42 39.03125 45.53125 
Q 43.3125 49.078125 43.3125 56.203125 
Q 43.3125 62.59375 39.796875 65.984375 
Q 36.28125 69.390625 29.6875 69.390625 
Q 23.09375 69.390625 19.453125 66.265625 
Q 15.828125 63.140625 15.1875 56.984375 
L 9.71875 56.984375 
z
" id="DejaVuSerif-51"/>
     <path d="M 24.703125 5.171875 
L 33.796875 5.171875 
Q 48 5.171875 55.59375 13.28125 
Q 63.1875 21.390625 63.1875 36.53125 
Q 63.1875 51.65625 55.609375 59.65625 
Q 48.046875 67.671875 33.796875 67.671875 
L 24.703125 67.671875 
z
M 5.515625 0 
L 5.515625 5.171875 
L 14.796875 5.171875 
L 14.796875 67.671875 
L 5.515625 67.671875 
L 5.515625 72.90625 
L 34.515625 72.90625 
Q 53.375 72.90625 63.890625 63.28125 
Q 74.421875 53.65625 74.421875 36.53125 
Q 74.421875 19.34375 63.875 9.671875 
Q 53.328125 0 34.515625 0 
z
" id="DejaVuSerif-68"/>
     <path d="M 4.390625 30.609375 
L 29.390625 30.609375 
L 29.390625 23 
L 4.390625 23 
z
" id="DejaVuSerif-45"/>
     <path d="M 70.515625 19.28125 
Q 67.28125 9.078125 59.6875 3.828125 
Q 52.09375 -1.421875 40.484375 -1.421875 
Q 33.34375 -1.421875 27.234375 1.015625 
Q 21.140625 3.46875 16.40625 8.203125 
Q 10.9375 13.671875 8.265625 20.625 
Q 5.609375 27.59375 5.609375 36.375 
Q 5.609375 53.375 15.421875 63.796875 
Q 25.25 74.21875 41.3125 74.21875 
Q 47.265625 74.21875 54 72.65625 
Q 60.75 71.09375 68.5 67.921875 
L 68.5 51.125 
L 62.984375 51.125 
Q 61.1875 60.296875 55.734375 64.640625 
Q 50.296875 69 40.484375 69 
Q 28.8125 69 22.796875 60.71875 
Q 16.796875 52.4375 16.796875 36.375 
Q 16.796875 20.359375 22.796875 12.078125 
Q 28.8125 3.8125 40.484375 3.8125 
Q 48.640625 3.8125 53.90625 7.6875 
Q 59.1875 11.578125 61.53125 19.28125 
z
" id="DejaVuSerif-67"/>
     <path d="M 4.890625 0 
L 4.890625 5.171875 
L 14.703125 5.171875 
L 14.703125 67.671875 
L 4.890625 67.671875 
L 4.890625 72.90625 
L 23.578125 72.90625 
L 67.28125 15.375 
L 67.28125 67.671875 
L 57.515625 67.671875 
L 57.515625 72.90625 
L 83.109375 72.90625 
L 83.109375 67.671875 
L 73.296875 67.671875 
L 73.296875 -1.421875 
L 67.390625 -1.421875 
L 20.703125 60.015625 
L 20.703125 5.171875 
L 30.515625 5.171875 
L 30.515625 0 
z
" id="DejaVuSerif-78"/>
     <path d="M 19.09375 0 
L 19.09375 5.171875 
L 28.421875 5.171875 
L 28.421875 67.09375 
L 6.984375 67.09375 
L 6.984375 55.71875 
L 0.984375 55.71875 
L 0.984375 72.90625 
L 65.71875 72.90625 
L 65.71875 55.71875 
L 59.71875 55.71875 
L 59.71875 67.09375 
L 38.28125 67.09375 
L 38.28125 5.171875 
L 47.609375 5.171875 
L 47.609375 0 
z
" id="DejaVuSerif-84"/>
     <path d="M 52.484375 46.6875 
L 52.484375 1.125 
Q 52.484375 -10.0625 46.328125 -16.140625 
Q 40.1875 -22.21875 28.8125 -22.21875 
Q 23.6875 -22.21875 19 -21.28125 
Q 14.3125 -20.359375 10.015625 -18.5 
L 10.015625 -7.625 
L 14.703125 -7.625 
Q 15.578125 -12.703125 18.84375 -15.046875 
Q 22.125 -17.390625 28.21875 -17.390625 
Q 36.140625 -17.390625 39.8125 -12.921875 
Q 43.5 -8.453125 43.5 1.125 
L 43.5 8.109375 
Q 40.875 3.21875 36.796875 0.890625 
Q 32.71875 -1.421875 26.703125 -1.421875 
Q 17.140625 -1.421875 11.0625 6.171875 
Q 4.984375 13.765625 4.984375 25.984375 
Q 4.984375 38.1875 11.03125 45.75 
Q 17.09375 53.328125 26.703125 53.328125 
Q 32.71875 53.328125 36.796875 51 
Q 40.875 48.6875 43.5 43.796875 
L 43.5 51.90625 
L 61.078125 51.90625 
L 61.078125 46.6875 
z
M 43.5 28.515625 
Q 43.5 37.84375 39.90625 42.765625 
Q 36.328125 47.703125 29.5 47.703125 
Q 22.5625 47.703125 19.015625 42.234375 
Q 15.484375 36.765625 15.484375 25.984375 
Q 15.484375 15.234375 19.015625 9.71875 
Q 22.5625 4.203125 29.5 4.203125 
Q 36.328125 4.203125 39.90625 9.109375 
Q 43.5 14.015625 43.5 23.390625 
z
" id="DejaVuSerif-103"/>
     <path d="M 5.515625 0 
L 5.515625 5.171875 
L 14.796875 5.171875 
L 14.796875 67.671875 
L 5.515625 67.671875 
L 5.515625 72.90625 
L 33.984375 72.90625 
L 33.984375 67.671875 
L 24.703125 67.671875 
L 24.703125 42.484375 
L 62.5 42.484375 
L 62.5 67.671875 
L 53.21875 67.671875 
L 53.21875 72.90625 
L 81.6875 72.90625 
L 81.6875 67.671875 
L 72.40625 67.671875 
L 72.40625 5.171875 
L 81.6875 5.171875 
L 81.6875 0 
L 53.21875 0 
L 53.21875 5.171875 
L 62.5 5.171875 
L 62.5 36.53125 
L 24.703125 36.53125 
L 24.703125 5.171875 
L 33.984375 5.171875 
L 33.984375 0 
z
" id="DejaVuSerif-72"/>
     <path d="M 10.796875 46.6875 
L 2.875 46.6875 
L 2.875 51.90625 
L 10.796875 51.90625 
L 10.796875 68.015625 
L 19.828125 68.015625 
L 19.828125 51.90625 
L 36.71875 51.90625 
L 36.71875 46.6875 
L 19.828125 46.6875 
L 19.828125 13.71875 
Q 19.828125 7.125 21.09375 5.265625 
Q 22.359375 3.421875 25.78125 3.421875 
Q 29.296875 3.421875 30.90625 5.484375 
Q 32.515625 7.5625 32.625 12.203125 
L 39.40625 12.203125 
Q 39.015625 5.125 35.546875 1.84375 
Q 32.078125 -1.421875 25 -1.421875 
Q 17.234375 -1.421875 14.015625 2.015625 
Q 10.796875 5.46875 10.796875 13.71875 
z
" id="DejaVuSerif-116"/>
     <path d="M 30.078125 3.421875 
Q 37.3125 3.421875 40.984375 9.125 
Q 44.671875 14.84375 44.671875 25.984375 
Q 44.671875 37.109375 40.984375 42.796875 
Q 37.3125 48.484375 30.078125 48.484375 
Q 22.859375 48.484375 19.171875 42.796875 
Q 15.484375 37.109375 15.484375 25.984375 
Q 15.484375 14.84375 19.1875 9.125 
Q 22.90625 3.421875 30.078125 3.421875 
z
M 30.078125 -1.421875 
Q 18.75 -1.421875 11.859375 6.078125 
Q 4.984375 13.578125 4.984375 25.984375 
Q 4.984375 38.375 11.84375 45.84375 
Q 18.703125 53.328125 30.078125 53.328125 
Q 41.453125 53.328125 48.3125 45.84375 
Q 55.171875 38.375 55.171875 25.984375 
Q 55.171875 13.578125 48.3125 6.078125 
Q 41.453125 -1.421875 30.078125 -1.421875 
z
" id="DejaVuSerif-111"/>
    </defs>
    <g style="fill:#262626;" transform="translate(247.690375 10.29474)scale(0.096 -0.096)">
     <use xlink:href="#DejaVuSerif-73"/>
     <use x="39.501953" xlink:href="#DejaVuSerif-110"/>
     <use x="103.90625" xlink:href="#DejaVuSerif-100"/>
     <use x="167.919922" xlink:href="#DejaVuSerif-105"/>
     <use x="199.902344" xlink:href="#DejaVuSerif-97"/>
     <use x="259.521484" xlink:href="#DejaVuSerif-110"/>
     <use x="323.925781" xlink:href="#DejaVuSerif-32"/>
     <use x="355.712891" xlink:href="#DejaVuSerif-80"/>
     <use x="422.998047" xlink:href="#DejaVuSerif-105"/>
     <use x="454.980469" xlink:href="#DejaVuSerif-110"/>
     <use x="519.384766" xlink:href="#DejaVuSerif-101"/>
     <use x="578.564453" xlink:href="#DejaVuSerif-115"/>
     <use x="629.882812" xlink:href="#DejaVuSerif-32"/>
     <use x="661.669922" xlink:href="#DejaVuSerif-51"/>
     <use x="725.292969" xlink:href="#DejaVuSerif-68"/>
     <use x="805.484375" xlink:href="#DejaVuSerif-45"/>
     <use x="839.273438" xlink:href="#DejaVuSerif-67"/>
     <use x="915.787109" xlink:href="#DejaVuSerif-78"/>
     <use x="1003.287109" xlink:href="#DejaVuSerif-78"/>
     <use x="1090.787109" xlink:href="#DejaVuSerif-32"/>
     <use x="1122.574219" xlink:href="#DejaVuSerif-84"/>
     <use x="1189.273438" xlink:href="#DejaVuSerif-114"/>
     <use x="1237.076172" xlink:href="#DejaVuSerif-97"/>
     <use x="1296.695312" xlink:href="#DejaVuSerif-105"/>
     <use x="1328.677734" xlink:href="#DejaVuSerif-110"/>
     <use x="1393.082031" xlink:href="#DejaVuSerif-105"/>
     <use x="1425.064453" xlink:href="#DejaVuSerif-110"/>
     <use x="1489.46875" xlink:href="#DejaVuSerif-103"/>
     <use x="1553.482422" xlink:href="#DejaVuSerif-32"/>
     <use x="1585.269531" xlink:href="#DejaVuSerif-72"/>
     <use x="1672.476562" xlink:href="#DejaVuSerif-105"/>
     <use x="1704.458984" xlink:href="#DejaVuSerif-115"/>
     <use x="1755.777344" xlink:href="#DejaVuSerif-116"/>
     <use x="1795.962891" xlink:href="#DejaVuSerif-111"/>
     <use x="1856.167969" xlink:href="#DejaVuSerif-114"/>
     <use x="1903.970703" xlink:href="#DejaVuSerif-121"/>
    </g>
   </g>
  </g>
  <g id="axes_2">
   <g id="legend_1">
    <g id="line2d_5">
     <path d="M 266.684188 224.878217 
L 284.284188 224.878217 
" style="fill:none;stroke:#c8102e;stroke-linecap:round;stroke-width:1.2;"/>
    </g>
    <g id="line2d_6"/>
    <g id="text_8">
     <!-- Training -->
     <g style="fill:#262626;" transform="translate(291.324187 227.958217)scale(0.088 -0.088)">
      <use xlink:href="#DejaVuSerif-84"/>
      <use x="66.699219" xlink:href="#DejaVuSerif-114"/>
      <use x="114.501953" xlink:href="#DejaVuSerif-97"/>
      <use x="174.121094" xlink:href="#DejaVuSerif-105"/>
      <use x="206.103516" xlink:href="#DejaVuSerif-110"/>
      <use x="270.507812" xlink:href="#DejaVuSerif-105"/>
      <use x="302.490234" xlink:href="#DejaVuSerif-110"/>
      <use x="366.894531" xlink:href="#DejaVuSerif-103"/>
     </g>
    </g>
    <g id="line2d_7">
     <path d="M 346.845312 224.878217 
L 364.445312 224.878217 
" style="fill:none;stroke:#00b388;stroke-linecap:round;stroke-width:1.2;"/>
    </g>
    <g id="line2d_8"/>
    <g id="text_9">
     <!-- Validation -->
     <defs>
      <path d="M 17.484375 67.671875 
L 39.015625 11.71875 
L 60.5 67.671875 
L 52.296875 67.671875 
L 52.296875 72.90625 
L 73.6875 72.90625 
L 73.6875 67.671875 
L 66.609375 67.671875 
L 40.578125 0 
L 32.171875 0 
L 6.296875 67.671875 
L -0.984375 67.671875 
L -0.984375 72.90625 
L 25.59375 72.90625 
L 25.59375 67.671875 
z
" id="DejaVuSerif-86"/>
      <path d="M 20.515625 5.171875 
L 29 5.171875 
L 29 0 
L 2.875 0 
L 2.875 5.171875 
L 11.53125 5.171875 
L 11.53125 70.796875 
L 2.875 70.796875 
L 2.875 75.984375 
L 20.515625 75.984375 
z
" id="DejaVuSerif-108"/>
     </defs>
     <g style="fill:#262626;" transform="translate(371.485312 227.958217)scale(0.088 -0.088)">
      <use xlink:href="#DejaVuSerif-86"/>
      <use x="72.076172" xlink:href="#DejaVuSerif-97"/>
      <use x="131.695312" xlink:href="#DejaVuSerif-108"/>
      <use x="163.677734" xlink:href="#DejaVuSerif-105"/>
      <use x="195.660156" xlink:href="#DejaVuSerif-100"/>
      <use x="259.673828" xlink:href="#DejaVuSerif-97"/>
      <use x="319.292969" xlink:href="#DejaVuSerif-116"/>
      <use x="359.478516" xlink:href="#DejaVuSerif-105"/>
      <use x="391.460938" xlink:href="#DejaVuSerif-111"/>
      <use x="451.666016" xlink:href="#DejaVuSerif-110"/>
     </g>
    </g>
   </g>
  </g>
  <g id="axes_3">
   <g id="patch_7">
    <path d="M 38.58599 434.89201 
L 644.99976 434.89201 
L 644.99976 242.555638 
L 38.58599 242.555638 
z
" style="fill:#ffffff;"/>
   </g>
   <g id="matplotlib.axis_3">
    <g id="xtick_1">
     <g id="text_10">
      <!-- 0 -->
      <g style="fill:#262626;" transform="translate(63.350752 449.878635)scale(0.088 -0.088)">
       <use xlink:href="#DejaVuSerif-48"/>
      </g>
     </g>
    </g>
    <g id="xtick_2">
     <g id="text_11">
      <!-- 25 -->
      <defs>
       <path d="M 12.796875 55.515625 
L 7.328125 55.515625 
L 7.328125 68.5 
Q 12.546875 71.296875 17.84375 72.75 
Q 23.140625 74.21875 28.21875 74.21875 
Q 39.59375 74.21875 46.1875 68.703125 
Q 52.78125 63.1875 52.78125 53.71875 
Q 52.78125 43.015625 37.84375 28.125 
Q 36.671875 27 36.078125 26.421875 
L 17.671875 8.015625 
L 48.09375 8.015625 
L 48.09375 17 
L 53.8125 17 
L 53.8125 0 
L 6.78125 0 
L 6.78125 5.328125 
L 28.90625 27.390625 
Q 36.234375 34.71875 39.359375 40.84375 
Q 42.484375 46.96875 42.484375 53.71875 
Q 42.484375 61.078125 38.640625 65.234375 
Q 34.8125 69.390625 28.078125 69.390625 
Q 21.09375 69.390625 17.28125 65.921875 
Q 13.484375 62.453125 12.796875 55.515625 
z
" id="DejaVuSerif-50"/>
       <path d="M 50.296875 72.90625 
L 50.296875 64.890625 
L 16.890625 64.890625 
L 16.890625 44 
Q 19.4375 45.75 22.828125 46.625 
Q 26.21875 47.515625 30.421875 47.515625 
Q 42.234375 47.515625 49.0625 40.96875 
Q 55.90625 34.421875 55.90625 23.09375 
Q 55.90625 11.53125 49 5.046875 
Q 42.09375 -1.421875 29.59375 -1.421875 
Q 24.5625 -1.421875 19.28125 -0.1875 
Q 14.015625 1.03125 8.5 3.515625 
L 8.5 17.671875 
L 14.015625 17.671875 
Q 14.453125 10.75 18.421875 7.078125 
Q 22.40625 3.421875 29.59375 3.421875 
Q 37.3125 3.421875 41.453125 8.5 
Q 45.609375 13.578125 45.609375 23.09375 
Q 45.609375 32.5625 41.484375 37.609375 
Q 37.359375 42.671875 29.59375 42.671875 
Q 25.203125 42.671875 21.84375 41.109375 
Q 18.5 39.546875 15.921875 36.28125 
L 11.71875 36.28125 
L 11.71875 72.90625 
z
" id="DejaVuSerif-53"/>
      </defs>
      <g style="fill:#262626;" transform="translate(129.808193 449.878635)scale(0.088 -0.088)">
       <use xlink:href="#DejaVuSerif-50"/>
       <use x="63.623047" xlink:href="#DejaVuSerif-53"/>
      </g>
     </g>
    </g>
    <g id="xtick_3">
     <g id="text_12">
      <!-- 50 -->
      <g style="fill:#262626;" transform="translate(199.065133 449.878635)scale(0.088 -0.088)">
       <use xlink:href="#DejaVuSerif-53"/>
       <use x="63.623047" xlink:href="#DejaVuSerif-48"/>
      </g>
     </g>
    </g>
    <g id="xtick_4">
     <g id="text_13">
      <!-- 75 -->
      <g style="fill:#262626;" transform="translate(268.322073 449.878635)scale(0.088 -0.088)">
       <use xlink:href="#DejaVuSerif-55"/>
       <use x="63.623047" xlink:href="#DejaVuSerif-53"/>
      </g>
     </g>
    </g>
    <g id="xtick_5">
     <g id="text_14">
      <!-- 100 -->
      <g style="fill:#262626;" transform="translate(334.779514 449.878635)scale(0.088 -0.088)">
       <use xlink:href="#DejaVuSerif-49"/>
       <use x="63.623047" xlink:href="#DejaVuSerif-48"/>
       <use x="127.246094" xlink:href="#DejaVuSerif-48"/>
      </g>
     </g>
    </g>
    <g id="xtick_6">
     <g id="text_15">
      <!-- 125 -->
      <g style="fill:#262626;" transform="translate(404.036454 449.878635)scale(0.088 -0.088)">
       <use xlink:href="#DejaVuSerif-49"/>
       <use x="63.623047" xlink:href="#DejaVuSerif-50"/>
       <use x="127.246094" xlink:href="#DejaVuSerif-53"/>
      </g>
     </g>
    </g>
    <g id="xtick_7">
     <g id="text_16">
      <!-- 150 -->
      <g style="fill:#262626;" transform="translate(473.293395 449.878635)scale(0.088 -0.088)">
       <use xlink:href="#DejaVuSerif-49"/>
       <use x="63.623047" xlink:href="#DejaVuSerif-53"/>
       <use x="127.246094" xlink:href="#DejaVuSerif-48"/>
      </g>
     </g>
    </g>
    <g id="xtick_8">
     <g id="text_17">
      <!-- 175 -->
      <g style="fill:#262626;" transform="translate(542.550335 449.878635)scale(0.088 -0.088)">
       <use xlink:href="#DejaVuSerif-49"/>
       <use x="63.623047" xlink:href="#DejaVuSerif-55"/>
       <use x="127.246094" xlink:href="#DejaVuSerif-53"/>
      </g>
     </g>
    </g>
    <g id="xtick_9">
     <g id="text_18">
      <!-- 200 -->
      <g style="fill:#262626;" transform="translate(611.807275 449.878635)scale(0.088 -0.088)">
       <use xlink:href="#DejaVuSerif-50"/>
       <use x="63.623047" xlink:href="#DejaVuSerif-48"/>
       <use x="127.246094" xlink:href="#DejaVuSerif-48"/>
      </g>
     </g>
    </g>
    <g id="text_19">
     <!-- Epoch -->
     <defs>
      <path d="M 5.515625 0 
L 5.515625 5.171875 
L 14.796875 5.171875 
L 14.796875 67.671875 
L 5.515625 67.671875 
L 5.515625 72.90625 
L 64.203125 72.90625 
L 64.203125 56.6875 
L 58.203125 56.6875 
L 58.203125 66.890625 
L 24.703125 66.890625 
L 24.703125 42.484375 
L 48.578125 42.484375 
L 48.578125 51.609375 
L 54.59375 51.609375 
L 54.59375 27.390625 
L 48.578125 27.390625 
L 48.578125 36.53125 
L 24.703125 36.53125 
L 24.703125 6 
L 58.984375 6 
L 58.984375 16.21875 
L 64.984375 16.21875 
L 64.984375 0 
z
" id="DejaVuSerif-69"/>
      <path d="M 20.515625 28.515625 
L 20.515625 23.390625 
Q 20.515625 14.015625 24.09375 9.109375 
Q 27.6875 4.203125 34.515625 4.203125 
Q 41.40625 4.203125 44.9375 9.71875 
Q 48.484375 15.234375 48.484375 25.984375 
Q 48.484375 36.765625 44.9375 42.234375 
Q 41.40625 47.703125 34.515625 47.703125 
Q 27.6875 47.703125 24.09375 42.765625 
Q 20.515625 37.84375 20.515625 28.515625 
z
M 11.53125 46.6875 
L 2.875 46.6875 
L 2.875 51.90625 
L 20.515625 51.90625 
L 20.515625 43.796875 
Q 23.140625 48.6875 27.21875 51 
Q 31.296875 53.328125 37.3125 53.328125 
Q 46.875 53.328125 52.921875 45.75 
Q 58.984375 38.1875 58.984375 25.984375 
Q 58.984375 13.765625 52.921875 6.171875 
Q 46.875 -1.421875 37.3125 -1.421875 
Q 31.296875 -1.421875 27.21875 0.890625 
Q 23.140625 3.21875 20.515625 8.109375 
L 20.515625 -15.578125 
L 29 -15.578125 
L 29 -20.796875 
L 2.875 -20.796875 
L 2.875 -15.578125 
L 11.53125 -15.578125 
z
" id="DejaVuSerif-112"/>
      <path d="M 4.109375 0 
L 4.109375 5.171875 
L 12.203125 5.171875 
L 12.203125 70.796875 
L 3.609375 70.796875 
L 3.609375 75.984375 
L 21.1875 75.984375 
L 21.1875 42.671875 
Q 23.6875 47.953125 27.65625 50.640625 
Q 31.640625 53.328125 36.921875 53.328125 
Q 45.515625 53.328125 49.5625 48.390625 
Q 53.609375 43.453125 53.609375 33.015625 
L 53.609375 5.171875 
L 61.625 5.171875 
L 61.625 0 
L 36.8125 0 
L 36.8125 5.171875 
L 44.578125 5.171875 
L 44.578125 30.171875 
Q 44.578125 39.703125 42.25 43.1875 
Q 39.9375 46.6875 33.984375 46.6875 
Q 27.734375 46.6875 24.453125 42.140625 
Q 21.1875 37.59375 21.1875 28.90625 
L 21.1875 5.171875 
L 29 5.171875 
L 29 0 
z
" id="DejaVuSerif-104"/>
     </defs>
     <g style="fill:#262626;" transform="translate(326.546875 463.00326)scale(0.096 -0.096)">
      <use xlink:href="#DejaVuSerif-69"/>
      <use x="72.998047" xlink:href="#DejaVuSerif-112"/>
      <use x="137.011719" xlink:href="#DejaVuSerif-111"/>
      <use x="197.216797" xlink:href="#DejaVuSerif-99"/>
      <use x="253.222656" xlink:href="#DejaVuSerif-104"/>
     </g>
    </g>
   </g>
   <g id="matplotlib.axis_4">
    <g id="ytick_6">
     <g id="text_20">
      <!-- 0.0 -->
      <g style="fill:#262626;" transform="translate(16.29124 430.278805)scale(0.088 -0.088)">
       <use xlink:href="#DejaVuSerif-48"/>
       <use x="63.623047" xlink:href="#DejaVuSerif-46"/>
       <use x="95.410156" xlink:href="#DejaVuSerif-48"/>
      </g>
     </g>
    </g>
    <g id="ytick_7">
     <g id="text_21">
      <!-- 0.2 -->
      <g style="fill:#262626;" transform="translate(16.29124 408.106427)scale(0.088 -0.088)">
       <use xlink:href="#DejaVuSerif-48"/>
       <use x="63.623047" xlink:href="#DejaVuSerif-46"/>
       <use x="95.410156" xlink:href="#DejaVuSerif-50"/>
      </g>
     </g>
    </g>
    <g id="ytick_8">
     <g id="text_22">
      <!-- 0.4 -->
      <defs>
       <path d="M 34.90625 24.703125 
L 34.90625 63.484375 
L 10.015625 24.703125 
z
M 56.390625 0 
L 23.1875 0 
L 23.1875 5.171875 
L 34.90625 5.171875 
L 34.90625 19.484375 
L 3.078125 19.484375 
L 3.078125 24.8125 
L 35.015625 74.21875 
L 44.671875 74.21875 
L 44.671875 24.703125 
L 58.59375 24.703125 
L 58.59375 19.484375 
L 44.671875 19.484375 
L 44.671875 5.171875 
L 56.390625 5.171875 
z
" id="DejaVuSerif-52"/>
      </defs>
      <g style="fill:#262626;" transform="translate(16.29124 385.934049)scale(0.088 -0.088)">
       <use xlink:href="#DejaVuSerif-48"/>
       <use x="63.623047" xlink:href="#DejaVuSerif-46"/>
       <use x="95.410156" xlink:href="#DejaVuSerif-52"/>
      </g>
     </g>
    </g>
    <g id="ytick_9">
     <g id="text_23">
      <!-- 0.6 -->
      <g style="fill:#262626;" transform="translate(16.29124 363.761672)scale(0.088 -0.088)">
       <use xlink:href="#DejaVuSerif-48"/>
       <use x="63.623047" xlink:href="#DejaVuSerif-46"/>
       <use x="95.410156" xlink:href="#DejaVuSerif-54"/>
      </g>
     </g>
    </g>
    <g id="ytick_10">
     <g id="text_24">
      <!-- 0.8 -->
      <g style="fill:#262626;" transform="translate(16.29124 341.589294)scale(0.088 -0.088)">
       <use xlink:href="#DejaVuSerif-48"/>
       <use x="63.623047" xlink:href="#DejaVuSerif-46"/>
       <use x="95.410156" xlink:href="#DejaVuSerif-56"/>
      </g>
     </g>
    </g>
    <g id="ytick_11">
     <g id="text_25">
      <!-- 1.0 -->
      <g style="fill:#262626;" transform="translate(16.29124 319.416916)scale(0.088 -0.088)">
       <use xlink:href="#DejaVuSerif-49"/>
       <use x="63.623047" xlink:href="#DejaVuSerif-46"/>
       <use x="95.410156" xlink:href="#DejaVuSerif-48"/>
      </g>
     </g>
    </g>
    <g id="ytick_12">
     <g id="text_26">
      <!-- 1.2 -->
      <g style="fill:#262626;" transform="translate(16.29124 297.244538)scale(0.088 -0.088)">
       <use xlink:href="#DejaVuSerif-49"/>
       <use x="63.623047" xlink:href="#DejaVuSerif-46"/>
       <use x="95.410156" xlink:href="#DejaVuSerif-50"/>
      </g>
     </g>
    </g>
    <g id="ytick_13">
     <g id="text_27">
      <!-- 1.4 -->
      <g style="fill:#262626;" transform="translate(16.29124 275.072161)scale(0.088 -0.088)">
       <use xlink:href="#DejaVuSerif-49"/>
       <use x="63.623047" xlink:href="#DejaVuSerif-46"/>
       <use x="95.410156" xlink:href="#DejaVuSerif-52"/>
      </g>
     </g>
    </g>
    <g id="ytick_14">
     <g id="text_28">
      <!-- 1.6 -->
      <g style="fill:#262626;" transform="translate(16.29124 252.899783)scale(0.088 -0.088)">
       <use xlink:href="#DejaVuSerif-49"/>
       <use x="63.623047" xlink:href="#DejaVuSerif-46"/>
       <use x="95.410156" xlink:href="#DejaVuSerif-54"/>
      </g>
     </g>
    </g>
    <g id="text_29">
     <!-- Loss -->
     <defs>
      <path d="M 5.515625 0 
L 5.515625 5.171875 
L 14.796875 5.171875 
L 14.796875 67.671875 
L 5.515625 67.671875 
L 5.515625 72.90625 
L 33.984375 72.90625 
L 33.984375 67.671875 
L 24.703125 67.671875 
L 24.703125 6 
L 58.015625 6 
L 58.015625 18.21875 
L 64.015625 18.21875 
L 64.015625 0 
z
" id="DejaVuSerif-76"/>
     </defs>
     <g style="fill:#262626;" transform="translate(10.29474 349.727074)rotate(-90)scale(0.096 -0.096)">
      <use xlink:href="#DejaVuSerif-76"/>
      <use x="66.40625" xlink:href="#DejaVuSerif-111"/>
      <use x="126.611328" xlink:href="#DejaVuSerif-115"/>
      <use x="177.929688" xlink:href="#DejaVuSerif-115"/>
     </g>
    </g>
   </g>
   <g id="line2d_9">
    <path clip-path="url(#p78c3df1090)" d="M 66.150252 251.2982 
L 68.92053 342.360921 
L 71.690808 371.83147 
L 74.461085 386.416859 
L 77.231363 397.097882 
L 80.00164 396.511472 
L 82.771918 404.585212 
L 85.542196 406.766772 
L 88.312473 411.470098 
L 91.082751 410.832239 
L 93.853028 412.331417 
L 96.623306 413.347004 
L 99.393584 415.209889 
L 102.163861 415.487431 
L 104.934139 416.852109 
L 107.704417 418.695005 
L 110.474694 419.324999 
L 113.244972 419.461238 
L 116.015249 419.050062 
L 118.785527 418.076561 
L 121.555805 418.857083 
L 124.326082 417.20991 
L 127.09636 418.09766 
L 129.866637 421.748227 
L 132.636915 420.910521 
L 135.407193 421.407677 
L 138.17747 421.388612 
L 140.947748 419.8049 
L 143.718026 420.989041 
L 146.488303 420.396431 
L 149.258581 421.286315 
L 152.028858 422.951987 
L 154.799136 423.543188 
L 157.569414 422.566598 
L 160.339691 422.132195 
L 163.109969 422.226838 
L 165.880246 423.260351 
L 168.650524 422.639414 
L 171.420802 423.296654 
L 174.191079 423.693406 
L 179.731635 422.486332 
L 182.501912 422.109886 
L 185.27219 422.930491 
L 188.042467 422.10015 
L 190.812745 422.747839 
L 193.583023 423.758383 
L 196.3533 424.294823 
L 199.123578 423.264638 
L 201.893855 423.17853 
L 204.664133 424.483472 
L 207.434411 424.395012 
L 210.204688 423.155888 
L 212.974966 421.477153 
L 215.745244 424.531395 
L 218.515521 424.421739 
L 221.285799 422.952451 
L 224.056076 423.117822 
L 226.826354 422.981127 
L 229.596632 424.190039 
L 232.366909 424.513253 
L 235.137187 425.185313 
L 240.677742 422.923634 
L 243.44802 421.5987 
L 246.218297 423.286868 
L 248.988575 424.332673 
L 254.52913 423.930737 
L 257.299408 425.127772 
L 260.069685 425.720171 
L 262.839963 423.187108 
L 265.610241 424.409607 
L 268.380518 423.854708 
L 271.150796 424.334946 
L 273.921073 423.060786 
L 276.691351 424.268795 
L 279.461629 424.67718 
L 282.231906 424.320307 
L 285.002184 425.441273 
L 287.772462 424.462543 
L 290.542739 422.530728 
L 293.313017 423.114447 
L 296.083294 423.454797 
L 298.853572 425.432959 
L 301.62385 425.532569 
L 304.394127 424.79018 
L 307.164405 424.942488 
L 309.934682 424.441396 
L 312.70496 424.505621 
L 315.475238 423.470462 
L 318.245515 423.514599 
L 321.015793 424.624531 
L 323.786071 423.965904 
L 326.556348 424.124937 
L 329.326626 423.965261 
L 332.096903 424.641845 
L 334.867181 425.080326 
L 340.407736 425.462451 
L 343.178014 425.785205 
L 345.948291 425.564503 
L 348.718569 424.668235 
L 351.488847 425.083048 
L 354.259124 425.378153 
L 357.029402 424.969135 
L 359.799679 423.707423 
L 362.569957 424.54826 
L 365.340235 423.875851 
L 368.110512 423.708157 
L 370.88079 425.21234 
L 373.651068 425.926084 
L 376.421345 424.630033 
L 379.191623 424.578065 
L 381.9619 424.392182 
L 384.732178 423.579407 
L 387.502456 423.693394 
L 390.272733 425.30034 
L 393.043011 425.085969 
L 395.813288 423.914635 
L 398.583566 424.264602 
L 401.353844 424.8973 
L 404.124121 424.860523 
L 406.894399 424.466451 
L 409.664677 424.979025 
L 412.434954 425.657262 
L 415.205232 424.878684 
L 417.975509 424.319086 
L 420.745787 425.093476 
L 423.516065 425.406715 
L 426.286342 424.857869 
L 429.05662 425.619184 
L 434.597175 423.859771 
L 437.367453 424.329526 
L 440.13773 424.531963 
L 442.908008 423.605002 
L 445.678286 424.979516 
L 448.448563 425.64404 
L 451.218841 424.531184 
L 456.759396 424.96787 
L 459.529674 423.878177 
L 462.299951 424.072071 
L 465.070229 424.988771 
L 467.840506 424.000395 
L 473.381062 425.155338 
L 478.921617 425.16582 
L 481.691895 414.255948 
L 484.462172 422.315161 
L 487.23245 424.915398 
L 490.002727 423.944751 
L 495.543283 425.155963 
L 498.31356 424.701344 
L 501.083838 425.362469 
L 503.854115 425.339847 
L 506.624393 425.195948 
L 509.394671 425.523608 
L 512.164948 425.205199 
L 514.935226 423.912906 
L 517.705504 424.218375 
L 520.475781 424.852452 
L 523.246059 425.946212 
L 526.016336 425.379489 
L 528.786614 425.765625 
L 531.556892 425.481144 
L 534.327169 426.035162 
L 537.097447 426.149448 
L 542.638002 425.329898 
L 545.40828 425.316216 
L 548.178557 425.558394 
L 550.948835 425.928982 
L 556.48939 425.510314 
L 559.259668 425.63914 
L 564.800223 425.423495 
L 567.570501 424.818681 
L 570.340778 425.148244 
L 573.111056 425.352375 
L 575.881333 424.599416 
L 578.651611 422.691732 
L 581.421889 423.924095 
L 584.192166 424.528613 
L 586.962444 424.106115 
L 589.732722 425.039361 
L 592.502999 424.889605 
L 595.273277 424.174916 
L 598.043554 424.984668 
L 600.813832 425.35125 
L 603.58411 424.841417 
L 606.354387 425.055423 
L 609.124665 425.62385 
L 611.894942 425.835099 
L 614.66522 424.065649 
L 617.435498 424.678071 
L 617.435498 424.678071 
" style="fill:none;stroke:#c8102e;stroke-linecap:round;stroke-width:1.2;"/>
   </g>
   <g id="line2d_10">
    <path clip-path="url(#p78c3df1090)" d="M 66.150252 344.829903 
L 68.92053 382.564589 
L 71.690808 395.172084 
L 74.461085 401.773794 
L 77.231363 407.270028 
L 80.00164 408.138453 
L 82.771918 413.212656 
L 85.542196 413.200868 
L 88.312473 413.601647 
L 91.082751 412.682227 
L 93.853028 415.356919 
L 96.623306 415.83265 
L 99.393584 414.752855 
L 102.163861 415.158931 
L 104.934139 414.651688 
L 107.704417 417.068525 
L 110.474694 418.027739 
L 113.244972 417.213326 
L 116.015249 415.476692 
L 118.785527 415.905678 
L 121.555805 414.454372 
L 124.326082 415.730418 
L 127.09636 418.894774 
L 129.866637 417.852978 
L 132.636915 415.95928 
L 135.407193 418.508317 
L 138.17747 416.45679 
L 140.947748 415.964131 
L 143.718026 416.963309 
L 146.488303 414.384539 
L 152.028858 418.723643 
L 154.799136 417.467838 
L 157.569414 419.07211 
L 160.339691 413.498916 
L 163.109969 415.230831 
L 165.880246 416.706651 
L 168.650524 417.711855 
L 171.420802 418.107975 
L 174.191079 416.153271 
L 176.961357 416.693289 
L 179.731635 416.153655 
L 182.501912 417.208414 
L 185.27219 417.725712 
L 188.042467 414.486361 
L 190.812745 419.136001 
L 193.583023 415.300607 
L 196.3533 417.669973 
L 199.123578 416.661528 
L 201.893855 418.353709 
L 204.664133 417.091086 
L 207.434411 412.735688 
L 212.974966 414.300371 
L 215.745244 416.289909 
L 221.285799 415.747487 
L 224.056076 414.277327 
L 226.826354 415.747119 
L 229.596632 415.087055 
L 232.366909 416.763728 
L 235.137187 416.130347 
L 237.907464 413.960247 
L 240.677742 411.992055 
L 243.44802 410.64313 
L 246.218297 415.353212 
L 248.988575 414.799098 
L 251.758853 416.412008 
L 254.52913 415.788708 
L 257.299408 418.203594 
L 260.069685 416.42392 
L 262.839963 415.438734 
L 265.610241 415.7329 
L 268.380518 414.790015 
L 271.150796 415.945856 
L 273.921073 414.225936 
L 276.691351 415.166738 
L 279.461629 414.282872 
L 282.231906 416.118838 
L 285.002184 413.157023 
L 290.542739 412.591 
L 293.313017 413.811238 
L 296.083294 417.207391 
L 298.853572 416.976282 
L 301.62385 416.23277 
L 304.394127 415.857271 
L 307.164405 412.332701 
L 309.934682 414.678958 
L 312.70496 412.779794 
L 315.475238 413.08648 
L 318.245515 410.928205 
L 321.015793 407.790016 
L 323.786071 412.129261 
L 326.556348 412.98328 
L 329.326626 412.759248 
L 332.096903 411.582173 
L 334.867181 413.782064 
L 337.637459 413.127234 
L 340.407736 413.501024 
L 343.178014 412.470232 
L 345.948291 413.97269 
L 348.718569 411.457692 
L 351.488847 409.57896 
L 354.259124 411.738983 
L 357.029402 415.129627 
L 359.799679 413.027023 
L 362.569957 414.283496 
L 365.340235 409.890982 
L 368.110512 416.295168 
L 370.88079 414.193236 
L 373.651068 413.435935 
L 376.421345 413.937928 
L 379.191623 411.107717 
L 381.9619 411.676158 
L 384.732178 409.112245 
L 387.502456 410.271079 
L 390.272733 414.01131 
L 393.043011 407.963136 
L 395.813288 414.10961 
L 398.583566 412.181706 
L 401.353844 410.96218 
L 404.124121 414.207803 
L 406.894399 412.736857 
L 409.664677 413.028248 
L 412.434954 414.507466 
L 415.205232 415.588598 
L 417.975509 411.149495 
L 420.745787 414.315205 
L 423.516065 415.362522 
L 426.286342 415.580373 
L 429.05662 415.48971 
L 431.826897 413.942483 
L 434.597175 414.272187 
L 437.367453 411.108503 
L 440.13773 411.954355 
L 442.908008 413.818336 
L 445.678286 411.142486 
L 448.448563 413.457148 
L 451.218841 410.328206 
L 453.989118 406.172379 
L 456.759396 410.425443 
L 459.529674 410.798663 
L 462.299951 412.705011 
L 465.070229 408.292431 
L 467.840506 411.464189 
L 470.610784 410.11057 
L 473.381062 414.557591 
L 476.151339 415.974623 
L 478.921617 412.691 
L 481.691895 411.06008 
L 484.462172 412.288567 
L 487.23245 410.24049 
L 490.002727 413.763993 
L 492.773005 410.978549 
L 495.543283 411.329391 
L 498.31356 412.22315 
L 501.083838 411.886661 
L 503.854115 414.13325 
L 506.624393 412.141241 
L 509.394671 413.380783 
L 512.164948 412.687367 
L 514.935226 411.543165 
L 517.705504 409.520351 
L 520.475781 412.642064 
L 523.246059 412.834011 
L 526.016336 414.113157 
L 528.786614 412.170768 
L 531.556892 411.538456 
L 534.327169 411.077646 
L 537.097447 410.874653 
L 539.867724 411.401217 
L 542.638002 405.939258 
L 545.40828 409.546242 
L 548.178557 406.080039 
L 550.948835 407.130836 
L 553.719113 410.295332 
L 556.48939 412.880232 
L 559.259668 408.498764 
L 562.029945 407.101912 
L 564.800223 403.309733 
L 567.570501 410.842795 
L 570.340778 406.514463 
L 573.111056 411.451898 
L 575.881333 406.736638 
L 578.651611 408.945827 
L 581.421889 409.960481 
L 584.192166 407.451077 
L 586.962444 412.083698 
L 589.732722 412.694509 
L 592.502999 411.168823 
L 595.273277 409.468892 
L 598.043554 406.615297 
L 600.813832 412.271438 
L 603.58411 411.44701 
L 606.354387 408.408639 
L 609.124665 411.382897 
L 611.894942 409.90264 
L 614.66522 408.824691 
L 617.435498 407.536017 
L 617.435498 407.536017 
" style="fill:none;stroke:#00b388;stroke-linecap:round;stroke-width:1.2;"/>
   </g>
   <g id="patch_8">
    <path d="M 38.58599 434.89201 
L 38.58599 242.555638 
" style="fill:none;stroke:#262626;stroke-linecap:square;stroke-linejoin:miter;"/>
   </g>
   <g id="patch_9">
    <path d="M 644.99976 434.89201 
L 644.99976 242.555638 
" style="fill:none;stroke:#262626;stroke-linecap:square;stroke-linejoin:miter;"/>
   </g>
   <g id="patch_10">
    <path d="M 38.58599 434.89201 
L 644.99976 434.89201 
" style="fill:none;stroke:#262626;stroke-linecap:square;stroke-linejoin:miter;"/>
   </g>
   <g id="patch_11">
    <path d="M 38.58599 242.555638 
L 644.99976 242.555638 
" style="fill:none;stroke:#262626;stroke-linecap:square;stroke-linejoin:miter;"/>
   </g>
  </g>
 </g>
 <defs>
  <clipPath id="p9c9e174571">
   <rect height="192.336372" width="606.41377" x="38.58599" y="16.29474"/>
  </clipPath>
  <clipPath id="p78c3df1090">
   <rect height="192.336372" width="606.41377" x="38.58599" y="242.555638"/>
  </clipPath>
 </defs>
</svg>
