<?xml version="1.0" encoding="utf-8" standalone="no"?>
<!DOCTYPE svg PUBLIC "-//W3C//DTD SVG 1.1//EN"
  "http://www.w3.org/Graphics/SVG/1.1/DTD/svg11.dtd">
<!-- Created with matplotlib (https://matplotlib.org/) -->
<svg height="468pt" version="1.1" viewBox="0 0 648 468" width="648pt" xmlns="http://www.w3.org/2000/svg" xmlns:xlink="http://www.w3.org/1999/xlink">
 <defs>
  <style type="text/css">
*{stroke-linecap:butt;stroke-linejoin:round;}
  </style>
 </defs>
 <g id="figure_1">
  <g id="patch_1">
   <path d="M 0 468 
L 648 468 
L 648 0 
L 0 0 
z
" style="fill:#ffffff;"/>
  </g>
  <g id="axes_1">
   <g id="patch_2">
    <path d="M 46.98724 208.278673 
L 644.99976 208.278673 
L 644.99976 16.29474 
L 46.98724 16.29474 
z
" style="fill:#ffffff;"/>
   </g>
   <g id="matplotlib.axis_1"/>
   <g id="matplotlib.axis_2">
    <g id="ytick_1">
     <g id="text_1">
      <!-- −0.4 -->
      <defs>
       <path d="M 10.59375 35.296875 
L 73.1875 35.296875 
L 73.1875 27.390625 
L 10.59375 27.390625 
z
" id="DejaVuSerif-8722"/>
       <path d="M 31.78125 3.421875 
Q 39.265625 3.421875 42.96875 11.625 
Q 46.6875 19.828125 46.6875 36.375 
Q 46.6875 52.984375 42.96875 61.1875 
Q 39.265625 69.390625 31.78125 69.390625 
Q 24.3125 69.390625 20.59375 61.1875 
Q 16.890625 52.984375 16.890625 36.375 
Q 16.890625 19.828125 20.59375 11.625 
Q 24.3125 3.421875 31.78125 3.421875 
z
M 31.78125 -1.421875 
Q 19.921875 -1.421875 13.25 8.53125 
Q 6.59375 18.5 6.59375 36.375 
Q 6.59375 54.296875 13.25 64.25 
Q 19.921875 74.21875 31.78125 74.21875 
Q 43.703125 74.21875 50.34375 64.25 
Q 56.984375 54.296875 56.984375 36.375 
Q 56.984375 18.5 50.34375 8.53125 
Q 43.703125 -1.421875 31.78125 -1.421875 
z
" id="DejaVuSerif-48"/>
       <path d="M 9.421875 5.078125 
Q 9.421875 7.8125 11.28125 9.71875 
Q 13.140625 11.625 15.921875 11.625 
Q 18.609375 11.625 20.5 9.71875 
Q 22.40625 7.8125 22.40625 5.078125 
Q 22.40625 2.390625 20.5 0.484375 
Q 18.609375 -1.421875 15.921875 -1.421875 
Q 13.140625 -1.421875 11.28125 0.453125 
Q 9.421875 2.34375 9.421875 5.078125 
z
" id="DejaVuSerif-46"/>
       <path d="M 34.90625 24.703125 
L 34.90625 63.484375 
L 10.015625 24.703125 
z
M 56.390625 0 
L 23.1875 0 
L 23.1875 5.171875 
L 34.90625 5.171875 
L 34.90625 19.484375 
L 3.078125 19.484375 
L 3.078125 24.8125 
L 35.015625 74.21875 
L 44.671875 74.21875 
L 44.671875 24.703125 
L 58.59375 24.703125 
L 58.59375 19.484375 
L 44.671875 19.484375 
L 44.671875 5.171875 
L 56.390625 5.171875 
z
" id="DejaVuSerif-52"/>
      </defs>
      <g style="fill:#262626;" transform="translate(17.318365 207.262544)scale(0.088 -0.088)">
       <use xlink:href="#DejaVuSerif-8722"/>
       <use x="83.789062" xlink:href="#DejaVuSerif-48"/>
       <use x="147.412109" xlink:href="#DejaVuSerif-46"/>
       <use x="179.199219" xlink:href="#DejaVuSerif-52"/>
      </g>
     </g>
    </g>
    <g id="ytick_2">
     <g id="text_2">
      <!-- −0.2 -->
      <defs>
       <path d="M 12.796875 55.515625 
L 7.328125 55.515625 
L 7.328125 68.5 
Q 12.546875 71.296875 17.84375 72.75 
Q 23.140625 74.21875 28.21875 74.21875 
Q 39.59375 74.21875 46.1875 68.703125 
Q 52.78125 63.1875 52.78125 53.71875 
Q 52.78125 43.015625 37.84375 28.125 
Q 36.671875 27 36.078125 26.421875 
L 17.671875 8.015625 
L 48.09375 8.015625 
L 48.09375 17 
L 53.8125 17 
L 53.8125 0 
L 6.78125 0 
L 6.78125 5.328125 
L 28.90625 27.390625 
Q 36.234375 34.71875 39.359375 40.84375 
Q 42.484375 46.96875 42.484375 53.71875 
Q 42.484375 61.078125 38.640625 65.234375 
Q 34.8125 69.390625 28.078125 69.390625 
Q 21.09375 69.390625 17.28125 65.921875 
Q 13.484375 62.453125 12.796875 55.515625 
z
" id="DejaVuSerif-50"/>
      </defs>
      <g style="fill:#262626;" transform="translate(17.318365 168.906197)scale(0.088 -0.088)">
       <use xlink:href="#DejaVuSerif-8722"/>
       <use x="83.789062" xlink:href="#DejaVuSerif-48"/>
       <use x="147.412109" xlink:href="#DejaVuSerif-46"/>
       <use x="179.199219" xlink:href="#DejaVuSerif-50"/>
      </g>
     </g>
    </g>
    <g id="ytick_3">
     <g id="text_3">
      <!-- 0.0 -->
      <g style="fill:#262626;" transform="translate(24.69249 130.549851)scale(0.088 -0.088)">
       <use xlink:href="#DejaVuSerif-48"/>
       <use x="63.623047" xlink:href="#DejaVuSerif-46"/>
       <use x="95.410156" xlink:href="#DejaVuSerif-48"/>
      </g>
     </g>
    </g>
    <g id="ytick_4">
     <g id="text_4">
      <!-- 0.2 -->
      <g style="fill:#262626;" transform="translate(24.69249 92.193504)scale(0.088 -0.088)">
       <use xlink:href="#DejaVuSerif-48"/>
       <use x="63.623047" xlink:href="#DejaVuSerif-46"/>
       <use x="95.410156" xlink:href="#DejaVuSerif-50"/>
      </g>
     </g>
    </g>
    <g id="ytick_5">
     <g id="text_5">
      <!-- 0.4 -->
      <g style="fill:#262626;" transform="translate(24.69249 53.837157)scale(0.088 -0.088)">
       <use xlink:href="#DejaVuSerif-48"/>
       <use x="63.623047" xlink:href="#DejaVuSerif-46"/>
       <use x="95.410156" xlink:href="#DejaVuSerif-52"/>
      </g>
     </g>
    </g>
    <g id="text_6">
     <!-- Scaled Intensity -->
     <defs>
      <path d="M 9.28125 3.515625 
L 9.28125 20.125 
L 14.890625 20.0625 
Q 15.140625 11.765625 19.703125 7.78125 
Q 24.265625 3.8125 33.59375 3.8125 
Q 42.28125 3.8125 46.84375 7.25 
Q 51.421875 10.6875 51.421875 17.28125 
Q 51.421875 22.5625 48.65625 25.390625 
Q 45.90625 28.21875 37.015625 30.90625 
L 27.390625 33.796875 
Q 16.9375 36.96875 12.671875 41.703125 
Q 8.40625 46.4375 8.40625 54.6875 
Q 8.40625 63.96875 14.984375 69.09375 
Q 21.578125 74.21875 33.5 74.21875 
Q 38.578125 74.21875 44.625 73.109375 
Q 50.6875 72.015625 57.515625 69.921875 
L 57.515625 54.390625 
L 52 54.390625 
Q 51.171875 62.109375 46.84375 65.546875 
Q 42.53125 69 33.6875 69 
Q 25.984375 69 21.953125 65.84375 
Q 17.921875 62.703125 17.921875 56.6875 
Q 17.921875 51.46875 20.9375 48.484375 
Q 23.96875 45.515625 33.796875 42.578125 
L 42.828125 39.890625 
Q 52.734375 36.921875 56.953125 32.296875 
Q 61.1875 27.6875 61.1875 19.921875 
Q 61.1875 9.328125 54.390625 3.953125 
Q 47.609375 -1.421875 34.1875 -1.421875 
Q 28.171875 -1.421875 21.9375 -0.1875 
Q 15.71875 1.03125 9.28125 3.515625 
z
" id="DejaVuSerif-83"/>
      <path d="M 51.421875 15.578125 
Q 49.515625 7.28125 44.09375 2.921875 
Q 38.671875 -1.421875 30.078125 -1.421875 
Q 18.75 -1.421875 11.859375 6.078125 
Q 4.984375 13.578125 4.984375 25.984375 
Q 4.984375 38.421875 11.859375 45.875 
Q 18.75 53.328125 30.078125 53.328125 
Q 35.015625 53.328125 39.890625 52.171875 
Q 44.78125 51.03125 49.703125 48.6875 
L 49.703125 35.40625 
L 44.484375 35.40625 
Q 43.453125 42.234375 40.015625 45.359375 
Q 36.578125 48.484375 30.171875 48.484375 
Q 22.90625 48.484375 19.1875 42.84375 
Q 15.484375 37.203125 15.484375 25.984375 
Q 15.484375 14.75 19.171875 9.078125 
Q 22.859375 3.421875 30.171875 3.421875 
Q 35.984375 3.421875 39.453125 6.4375 
Q 42.921875 9.46875 44.1875 15.578125 
z
" id="DejaVuSerif-99"/>
      <path d="M 39.796875 16.3125 
L 39.796875 27.296875 
L 28.21875 27.296875 
Q 21.53125 27.296875 18.25 24.40625 
Q 14.984375 21.53125 14.984375 15.578125 
Q 14.984375 10.15625 18.296875 6.984375 
Q 21.625 3.8125 27.296875 3.8125 
Q 32.90625 3.8125 36.34375 7.28125 
Q 39.796875 10.75 39.796875 16.3125 
z
M 48.78125 32.421875 
L 48.78125 5.171875 
L 56.78125 5.171875 
L 56.78125 0 
L 39.796875 0 
L 39.796875 5.609375 
Q 36.8125 2 32.90625 0.28125 
Q 29 -1.421875 23.78125 -1.421875 
Q 15.140625 -1.421875 10.0625 3.171875 
Q 4.984375 7.765625 4.984375 15.578125 
Q 4.984375 23.640625 10.796875 28.078125 
Q 16.609375 32.515625 27.203125 32.515625 
L 39.796875 32.515625 
L 39.796875 36.078125 
Q 39.796875 42 36.203125 45.234375 
Q 32.625 48.484375 26.125 48.484375 
Q 20.75 48.484375 17.578125 46.046875 
Q 14.40625 43.609375 13.625 38.8125 
L 8.984375 38.8125 
L 8.984375 49.3125 
Q 13.671875 51.3125 18.09375 52.3125 
Q 22.515625 53.328125 26.703125 53.328125 
Q 37.5 53.328125 43.140625 47.96875 
Q 48.78125 42.625 48.78125 32.421875 
z
" id="DejaVuSerif-97"/>
      <path d="M 20.515625 5.171875 
L 29 5.171875 
L 29 0 
L 2.875 0 
L 2.875 5.171875 
L 11.53125 5.171875 
L 11.53125 70.796875 
L 2.875 70.796875 
L 2.875 75.984375 
L 20.515625 75.984375 
z
" id="DejaVuSerif-108"/>
      <path d="M 54.203125 25 
L 15.484375 25 
L 15.484375 24.609375 
Q 15.484375 14.109375 19.4375 8.765625 
Q 23.390625 3.421875 31.109375 3.421875 
Q 37.015625 3.421875 40.796875 6.515625 
Q 44.578125 9.625 46.09375 15.71875 
L 53.328125 15.71875 
Q 51.171875 7.171875 45.375 2.875 
Q 39.59375 -1.421875 30.171875 -1.421875 
Q 18.796875 -1.421875 11.890625 6.078125 
Q 4.984375 13.578125 4.984375 25.984375 
Q 4.984375 38.28125 11.765625 45.796875 
Q 18.5625 53.328125 29.59375 53.328125 
Q 41.359375 53.328125 47.65625 46.0625 
Q 53.953125 38.8125 54.203125 25 
z
M 43.609375 30.171875 
Q 43.3125 39.265625 39.765625 43.875 
Q 36.234375 48.484375 29.59375 48.484375 
Q 23.390625 48.484375 19.828125 43.84375 
Q 16.265625 39.203125 15.484375 30.171875 
z
" id="DejaVuSerif-101"/>
      <path d="M 52.484375 5.171875 
L 61.078125 5.171875 
L 61.078125 0 
L 43.5 0 
L 43.5 8.109375 
Q 40.875 3.21875 36.796875 0.890625 
Q 32.71875 -1.421875 26.703125 -1.421875 
Q 17.140625 -1.421875 11.0625 6.171875 
Q 4.984375 13.765625 4.984375 25.984375 
Q 4.984375 38.1875 11.03125 45.75 
Q 17.09375 53.328125 26.703125 53.328125 
Q 32.71875 53.328125 36.796875 51 
Q 40.875 48.6875 43.5 43.796875 
L 43.5 70.796875 
L 35.015625 70.796875 
L 35.015625 75.984375 
L 52.484375 75.984375 
z
M 43.5 23.390625 
L 43.5 28.515625 
Q 43.5 37.84375 39.90625 42.765625 
Q 36.328125 47.703125 29.5 47.703125 
Q 22.5625 47.703125 19.015625 42.234375 
Q 15.484375 36.765625 15.484375 25.984375 
Q 15.484375 15.234375 19.015625 9.71875 
Q 22.5625 4.203125 29.5 4.203125 
Q 36.328125 4.203125 39.90625 9.109375 
Q 43.5 14.015625 43.5 23.390625 
z
" id="DejaVuSerif-100"/>
      <path id="DejaVuSerif-32"/>
      <path d="M 24.703125 5.171875 
L 33.984375 5.171875 
L 33.984375 0 
L 5.515625 0 
L 5.515625 5.171875 
L 14.796875 5.171875 
L 14.796875 67.671875 
L 5.515625 67.671875 
L 5.515625 72.90625 
L 33.984375 72.90625 
L 33.984375 67.671875 
L 24.703125 67.671875 
z
" id="DejaVuSerif-73"/>
      <path d="M 4.109375 0 
L 4.109375 5.171875 
L 12.203125 5.171875 
L 12.203125 46.6875 
L 3.609375 46.6875 
L 3.609375 51.90625 
L 21.1875 51.90625 
L 21.1875 42.671875 
Q 23.6875 47.953125 27.65625 50.640625 
Q 31.640625 53.328125 36.921875 53.328125 
Q 45.515625 53.328125 49.5625 48.390625 
Q 53.609375 43.453125 53.609375 33.015625 
L 53.609375 5.171875 
L 61.625 5.171875 
L 61.625 0 
L 36.8125 0 
L 36.8125 5.171875 
L 44.578125 5.171875 
L 44.578125 30.171875 
Q 44.578125 39.703125 42.234375 43.234375 
Q 39.890625 46.78125 33.984375 46.78125 
Q 27.734375 46.78125 24.453125 42.203125 
Q 21.1875 37.640625 21.1875 28.90625 
L 21.1875 5.171875 
L 29 5.171875 
L 29 0 
z
" id="DejaVuSerif-110"/>
      <path d="M 10.796875 46.6875 
L 2.875 46.6875 
L 2.875 51.90625 
L 10.796875 51.90625 
L 10.796875 68.015625 
L 19.828125 68.015625 
L 19.828125 51.90625 
L 36.71875 51.90625 
L 36.71875 46.6875 
L 19.828125 46.6875 
L 19.828125 13.71875 
Q 19.828125 7.125 21.09375 5.265625 
Q 22.359375 3.421875 25.78125 3.421875 
Q 29.296875 3.421875 30.90625 5.484375 
Q 32.515625 7.5625 32.625 12.203125 
L 39.40625 12.203125 
Q 39.015625 5.125 35.546875 1.84375 
Q 32.078125 -1.421875 25 -1.421875 
Q 17.234375 -1.421875 14.015625 2.015625 
Q 10.796875 5.46875 10.796875 13.71875 
z
" id="DejaVuSerif-116"/>
      <path d="M 5.609375 2.875 
L 5.609375 14.984375 
L 10.796875 14.984375 
Q 10.984375 9.1875 14.421875 6.296875 
Q 17.875 3.421875 24.609375 3.421875 
Q 30.671875 3.421875 33.84375 5.6875 
Q 37.015625 7.953125 37.015625 12.3125 
Q 37.015625 15.71875 34.6875 17.8125 
Q 32.375 19.921875 24.90625 22.3125 
L 18.40625 24.515625 
Q 11.71875 26.65625 8.71875 29.875 
Q 5.71875 33.109375 5.71875 38.09375 
Q 5.71875 45.21875 10.9375 49.265625 
Q 16.15625 53.328125 25.390625 53.328125 
Q 29.5 53.328125 34.03125 52.25 
Q 38.578125 51.171875 43.40625 49.125 
L 43.40625 37.796875 
L 38.234375 37.796875 
Q 38.03125 42.828125 34.703125 45.65625 
Q 31.390625 48.484375 25.6875 48.484375 
Q 20.015625 48.484375 17.109375 46.484375 
Q 14.203125 44.484375 14.203125 40.484375 
Q 14.203125 37.203125 16.40625 35.21875 
Q 18.609375 33.25 25.203125 31.203125 
L 32.328125 29 
Q 39.703125 26.703125 42.9375 23.265625 
Q 46.1875 19.828125 46.1875 14.40625 
Q 46.1875 7.03125 40.546875 2.796875 
Q 34.90625 -1.421875 25 -1.421875 
Q 19.96875 -1.421875 15.1875 -0.34375 
Q 10.40625 0.734375 5.609375 2.875 
z
" id="DejaVuSerif-115"/>
      <path d="M 9.71875 68.015625 
Q 9.71875 70.265625 11.34375 71.921875 
Q 12.984375 73.578125 15.28125 73.578125 
Q 17.53125 73.578125 19.15625 71.921875 
Q 20.796875 70.265625 20.796875 68.015625 
Q 20.796875 65.71875 19.1875 64.109375 
Q 17.578125 62.5 15.28125 62.5 
Q 12.984375 62.5 11.34375 64.109375 
Q 9.71875 65.71875 9.71875 68.015625 
z
M 21.1875 5.171875 
L 29.6875 5.171875 
L 29.6875 0 
L 3.609375 0 
L 3.609375 5.171875 
L 12.203125 5.171875 
L 12.203125 46.6875 
L 3.609375 46.6875 
L 3.609375 51.90625 
L 21.1875 51.90625 
z
" id="DejaVuSerif-105"/>
      <path d="M 21.578125 -9.515625 
L 25 -0.875 
L 5.609375 46.6875 
L -0.296875 46.6875 
L -0.296875 51.90625 
L 23.578125 51.90625 
L 23.578125 46.6875 
L 15.28125 46.6875 
L 29.890625 10.984375 
L 44.484375 46.6875 
L 36.71875 46.6875 
L 36.71875 51.90625 
L 56.203125 51.90625 
L 56.203125 46.6875 
L 50.390625 46.6875 
L 26.609375 -11.71875 
Q 24.171875 -17.78125 21.1875 -20 
Q 18.21875 -22.21875 12.796875 -22.21875 
Q 10.5 -22.21875 8.078125 -21.828125 
Q 5.671875 -21.4375 3.21875 -20.703125 
L 3.21875 -10.796875 
L 7.8125 -10.796875 
Q 8.109375 -14.109375 9.5 -15.546875 
Q 10.890625 -17 13.8125 -17 
Q 16.5 -17 18.140625 -15.5 
Q 19.78125 -14.015625 21.578125 -9.515625 
z
" id="DejaVuSerif-121"/>
     </defs>
     <g style="fill:#262626;" transform="translate(11.185365 151.587457)rotate(-90)scale(0.096 -0.096)">
      <use xlink:href="#DejaVuSerif-83"/>
      <use x="68.505859" xlink:href="#DejaVuSerif-99"/>
      <use x="124.511719" xlink:href="#DejaVuSerif-97"/>
      <use x="184.130859" xlink:href="#DejaVuSerif-108"/>
      <use x="216.113281" xlink:href="#DejaVuSerif-101"/>
      <use x="275.292969" xlink:href="#DejaVuSerif-100"/>
      <use x="339.306641" xlink:href="#DejaVuSerif-32"/>
      <use x="371.09375" xlink:href="#DejaVuSerif-73"/>
      <use x="410.595703" xlink:href="#DejaVuSerif-110"/>
      <use x="475" xlink:href="#DejaVuSerif-116"/>
      <use x="515.185547" xlink:href="#DejaVuSerif-101"/>
      <use x="574.365234" xlink:href="#DejaVuSerif-110"/>
      <use x="638.769531" xlink:href="#DejaVuSerif-115"/>
      <use x="690.087891" xlink:href="#DejaVuSerif-105"/>
      <use x="722.070312" xlink:href="#DejaVuSerif-116"/>
      <use x="762.255859" xlink:href="#DejaVuSerif-121"/>
     </g>
    </g>
   </g>
   <g id="line2d_1">
    <path clip-path="url(#pa40300858a)" d="M 74.169627 101.345921 
L 79.499507 111.547453 
L 84.829387 93.210865 
L 90.159267 102.484137 
L 95.489147 101.108732 
L 100.819027 103.173179 
L 106.148906 100.92618 
L 111.478786 90.131052 
L 116.808666 92.189204 
L 122.138546 109.010564 
L 127.468426 111.724316 
L 132.798306 111.569379 
L 138.128186 101.881458 
L 143.458065 96.539948 
L 148.787945 89.601496 
L 154.117825 89.011412 
L 159.447705 83.045598 
L 164.777585 83.230413 
L 170.107465 80.0609 
L 175.437345 78.995172 
L 180.767224 77.124344 
L 186.097104 74.91116 
L 191.426984 84.89968 
L 196.756864 86.877131 
L 202.086744 82.880036 
L 207.416624 78.366919 
L 212.746504 74.774119 
L 218.076383 69.327683 
L 223.406263 63.690427 
L 228.736143 60.76195 
L 234.066023 61.98763 
L 239.395903 64.666647 
L 244.725783 67.014872 
L 250.055663 60.486152 
L 255.385542 58.642776 
L 260.715422 53.416388 
L 266.045302 52.206671 
L 271.375182 57.79216 
L 276.705062 43.814725 
L 282.034942 55.325264 
L 287.364822 57.619174 
L 292.694701 52.086879 
L 298.024581 53.699296 
L 303.354461 52.791456 
L 308.684341 50.299955 
L 314.014221 55.476314 
L 319.344101 53.711607 
L 324.673981 56.698817 
L 330.00386 51.908399 
L 335.33374 54.995969 
L 340.66362 53.395235 
L 345.9935 54.822411 
L 351.32338 56.602608 
L 356.65326 49.722742 
L 361.98314 51.205479 
L 367.313019 53.790098 
L 372.642899 50.912981 
L 377.972779 49.981805 
L 383.302659 54.479507 
L 388.632539 52.181637 
L 393.962419 54.176063 
L 399.292299 48.245824 
L 404.622178 47.409743 
L 409.952058 48.153998 
L 415.281938 51.265938 
L 420.611818 41.921577 
L 425.941698 41.546021 
L 431.271578 38.982406 
L 436.601458 37.661865 
L 441.931337 38.709186 
L 447.261217 34.564361 
L 452.591097 36.203156 
L 457.920977 33.888727 
L 463.250857 32.986152 
L 468.580737 33.949449 
L 473.910617 33.534672 
L 479.240496 42.370316 
L 484.570376 37.560174 
L 489.900256 35.196306 
L 495.230136 33.591582 
L 500.560016 39.11148 
L 505.889896 39.596318 
L 511.219776 34.981196 
L 516.549655 35.12589 
L 521.879535 37.115676 
L 527.209415 41.120887 
L 532.539295 37.513512 
L 537.869175 29.345775 
L 543.199055 35.891121 
L 548.528935 33.460427 
L 553.858814 30.466616 
L 559.188694 30.146511 
L 564.518574 34.735142 
L 569.848454 29.67403 
L 575.178334 28.323882 
L 580.508214 38.497397 
L 585.838094 29.237008 
L 591.167973 26.688506 
L 596.497853 25.021282 
L 601.827733 31.026361 
L 607.157613 38.120891 
L 612.487493 30.123752 
L 617.817373 29.296896 
" style="fill:none;stroke:#c8102e;stroke-linecap:round;stroke-width:1.2;"/>
   </g>
   <g id="line2d_2">
    <path clip-path="url(#pa40300858a)" d="M 74.169627 150.449024 
L 79.499507 155.372347 
L 84.829387 132.022927 
L 90.159267 136.717864 
L 95.489147 134.492198 
L 100.819027 138.424053 
L 106.148906 136.379519 
L 111.478786 124.567076 
L 116.808666 127.341411 
L 122.138546 143.8663 
L 127.468426 145.624056 
L 132.798306 141.604928 
L 138.128186 134.565709 
L 143.458065 131.020983 
L 148.787945 126.165077 
L 154.117825 123.453069 
L 159.447705 119.655295 
L 164.777585 117.26958 
L 170.107465 115.29232 
L 175.437345 112.811979 
L 180.767224 112.303559 
L 186.097104 110.084013 
L 191.426984 123.348223 
L 196.756864 123.774056 
L 202.086744 117.893366 
L 207.416624 115.346275 
L 212.746504 111.247947 
L 218.076383 109.830879 
L 223.406263 104.226591 
L 228.736143 102.425821 
L 234.066023 104.416318 
L 239.395903 104.732405 
L 244.725783 106.549638 
L 250.055663 103.687918 
L 255.385542 103.027264 
L 260.715422 97.35018 
L 266.045302 98.092383 
L 271.375182 97.897223 
L 276.705062 91.048556 
L 282.034942 93.496142 
L 287.364822 96.593228 
L 292.694701 96.531658 
L 298.024581 96.036738 
L 303.354461 97.236124 
L 308.684341 95.23619 
L 314.014221 97.329341 
L 319.344101 97.134733 
L 324.673981 96.664755 
L 330.00386 95.188263 
L 335.33374 96.991479 
L 340.66362 95.759591 
L 345.9935 92.68056 
L 351.32338 91.086096 
L 356.65326 88.351767 
L 361.98314 88.491415 
L 367.313019 91.344373 
L 372.642899 89.803651 
L 377.972779 89.791694 
L 383.302659 92.425664 
L 388.632539 93.500126 
L 393.962419 95.154372 
L 399.292299 91.468077 
L 404.622178 90.829488 
L 409.952058 88.863722 
L 415.281938 89.511393 
L 420.611818 86.766616 
L 425.941698 87.407705 
L 431.271578 85.513286 
L 436.601458 85.395066 
L 441.931337 86.195487 
L 447.261217 82.751219 
L 452.591097 82.176813 
L 457.920977 79.672612 
L 463.250857 80.471362 
L 468.580737 83.661437 
L 473.910617 84.840904 
L 479.240496 93.323862 
L 484.570376 88.784302 
L 489.900256 87.86488 
L 495.230136 84.995872 
L 500.560016 90.129566 
L 505.889896 93.130979 
L 511.219776 88.479938 
L 516.549655 87.760191 
L 521.879535 89.853994 
L 527.209415 90.734827 
L 532.539295 86.438152 
L 537.869175 80.379293 
L 543.199055 84.359236 
L 548.528935 85.536365 
L 553.858814 79.341453 
L 559.188694 77.407903 
L 564.518574 81.234869 
L 569.848454 76.747215 
L 575.178334 78.905952 
L 580.508214 85.970721 
L 585.838094 76.576532 
L 591.167973 73.593054 
L 596.497853 72.770067 
L 601.827733 75.794823 
L 607.157613 82.258165 
L 612.487493 77.746469 
L 617.817373 76.584219 
" style="fill:none;stroke:#00b388;stroke-linecap:round;stroke-width:1.2;"/>
   </g>
   <g id="line2d_3">
    <path clip-path="url(#pa40300858a)" d="M 74.169627 199.552131 
L 79.499507 199.197242 
L 84.829387 170.834989 
L 90.159267 170.951592 
L 95.489147 167.875665 
L 100.819027 173.674927 
L 106.148906 171.832857 
L 111.478786 159.003099 
L 116.808666 162.493617 
L 122.138546 178.722036 
L 127.468426 179.523795 
L 132.798306 171.640475 
L 138.128186 167.249959 
L 143.458065 165.502015 
L 148.787945 162.72866 
L 154.117825 157.89473 
L 159.447705 156.264995 
L 164.777585 151.308749 
L 170.107465 150.523742 
L 175.437345 146.62879 
L 180.767224 147.482774 
L 186.097104 145.256864 
L 191.426984 161.79677 
L 196.756864 160.67098 
L 202.086744 152.906697 
L 207.416624 152.325632 
L 212.746504 147.721778 
L 218.076383 150.334075 
L 223.406263 144.762757 
L 228.736143 144.089692 
L 234.066023 146.845009 
L 239.395903 144.798162 
L 244.725783 146.084402 
L 250.055663 146.889684 
L 255.385542 147.411753 
L 260.715422 141.283973 
L 266.045302 143.978096 
L 271.375182 138.002286 
L 276.705062 138.282388 
L 282.034942 131.667023 
L 287.364822 135.567286 
L 292.694701 140.976437 
L 298.024581 138.374179 
L 303.354461 141.680791 
L 308.684341 140.172423 
L 314.014221 139.182368 
L 319.344101 140.557862 
L 324.673981 136.630694 
L 330.00386 138.468126 
L 335.33374 138.986985 
L 340.66362 138.123947 
L 345.9935 130.53871 
L 351.32338 125.569581 
L 356.65326 126.980791 
L 361.98314 125.777353 
L 367.313019 128.898647 
L 372.642899 128.694325 
L 377.972779 129.601584 
L 383.302659 130.371822 
L 388.632539 134.818616 
L 393.962419 136.132681 
L 399.292299 134.690327 
L 404.622178 134.249236 
L 409.952058 129.573444 
L 415.281938 127.75685 
L 420.611818 131.611654 
L 425.941698 133.26939 
L 431.271578 132.044166 
L 436.601458 133.128267 
L 441.931337 133.681789 
L 447.261217 130.938078 
L 452.591097 128.150474 
L 457.920977 125.456496 
L 463.250857 127.956574 
L 468.580737 133.373424 
L 473.910617 136.147139 
L 479.240496 144.277407 
L 484.570376 140.008427 
L 489.900256 140.533454 
L 495.230136 136.400163 
L 500.560016 141.147651 
L 505.889896 146.665641 
L 511.219776 141.978683 
L 516.549655 140.394495 
L 521.879535 142.592315 
L 527.209415 140.34877 
L 532.539295 135.362789 
L 537.869175 131.412805 
L 543.199055 132.82735 
L 548.528935 137.612301 
L 553.858814 128.216291 
L 559.188694 124.669295 
L 564.518574 127.734594 
L 569.848454 123.820406 
L 575.178334 129.488022 
L 580.508214 133.444045 
L 585.838094 123.916058 
L 591.167973 120.497599 
L 596.497853 120.518858 
L 601.827733 120.563287 
L 607.157613 126.39544 
L 612.487493 125.369183 
L 617.817373 123.871546 
" style="fill:none;stroke:#f6be00;stroke-linecap:round;stroke-width:1.2;"/>
   </g>
   <g id="line2d_4"/>
   <g id="line2d_5"/>
   <g id="line2d_6"/>
   <g id="patch_3">
    <path d="M 46.98724 208.278673 
L 46.98724 16.29474 
" style="fill:none;stroke:#262626;stroke-linecap:square;stroke-linejoin:miter;"/>
   </g>
   <g id="patch_4">
    <path d="M 644.99976 208.278673 
L 644.99976 16.29474 
" style="fill:none;stroke:#262626;stroke-linecap:square;stroke-linejoin:miter;"/>
   </g>
   <g id="patch_5">
    <path d="M 46.98724 208.278673 
L 644.99976 208.278673 
" style="fill:none;stroke:#262626;stroke-linecap:square;stroke-linejoin:miter;"/>
   </g>
   <g id="patch_6">
    <path d="M 46.98724 16.29474 
L 644.99976 16.29474 
" style="fill:none;stroke:#262626;stroke-linecap:square;stroke-linejoin:miter;"/>
   </g>
   <g id="text_7">
    <!-- Gravel Generated Samples -->
    <defs>
     <path d="M 64.015625 51.125 
Q 62.3125 60.25 56.890625 64.625 
Q 51.46875 69 41.796875 69 
Q 29.203125 69 23 60.890625 
Q 16.796875 52.78125 16.796875 36.375 
Q 16.796875 20.3125 23.1875 12.0625 
Q 29.59375 3.8125 42 3.8125 
Q 47.515625 3.8125 52.53125 5.171875 
Q 57.5625 6.546875 62.109375 9.28125 
L 62.109375 28.078125 
L 48.390625 28.078125 
L 48.390625 33.296875 
L 72.015625 33.296875 
L 72.015625 6.109375 
Q 65.53125 2.34375 58.03125 0.453125 
Q 50.53125 -1.421875 42 -1.421875 
Q 25.484375 -1.421875 15.546875 8.90625 
Q 5.609375 19.234375 5.609375 36.375 
Q 5.609375 53.65625 15.5625 63.9375 
Q 25.53125 74.21875 42.390625 74.21875 
Q 48.640625 74.21875 55.296875 72.78125 
Q 61.96875 71.34375 69.484375 68.40625 
L 69.484375 51.125 
z
" id="DejaVuSerif-71"/>
     <path d="M 47.796875 52 
L 47.796875 39.015625 
L 42.625 39.015625 
Q 42.390625 42.875 40.484375 44.78125 
Q 38.578125 46.6875 34.90625 46.6875 
Q 28.265625 46.6875 24.71875 42.09375 
Q 21.1875 37.5 21.1875 28.90625 
L 21.1875 5.171875 
L 31.59375 5.171875 
L 31.59375 0 
L 4.109375 0 
L 4.109375 5.171875 
L 12.203125 5.171875 
L 12.203125 46.78125 
L 3.609375 46.78125 
L 3.609375 51.90625 
L 21.1875 51.90625 
L 21.1875 42.671875 
Q 23.828125 48.09375 27.96875 50.703125 
Q 32.125 53.328125 38.09375 53.328125 
Q 40.28125 53.328125 42.703125 52.984375 
Q 45.125 52.640625 47.796875 52 
z
" id="DejaVuSerif-114"/>
     <path d="M 24.703125 0 
L 5.609375 46.6875 
L -0.296875 46.6875 
L -0.296875 51.90625 
L 23.578125 51.90625 
L 23.578125 46.6875 
L 15.28125 46.6875 
L 29.890625 10.984375 
L 44.484375 46.6875 
L 36.71875 46.6875 
L 36.71875 51.90625 
L 56.203125 51.90625 
L 56.203125 46.6875 
L 50.390625 46.6875 
L 31.296875 0 
z
" id="DejaVuSerif-118"/>
     <path d="M 51.8125 41.796875 
Q 54.390625 47.515625 58.421875 50.421875 
Q 62.453125 53.328125 67.828125 53.328125 
Q 75.984375 53.328125 79.984375 48.265625 
Q 83.984375 43.21875 83.984375 33.015625 
L 83.984375 5.171875 
L 92.09375 5.171875 
L 92.09375 0 
L 67.1875 0 
L 67.1875 5.171875 
L 75 5.171875 
L 75 31.984375 
Q 75 39.9375 72.65625 43.3125 
Q 70.3125 46.6875 64.890625 46.6875 
Q 58.890625 46.6875 55.734375 42.140625 
Q 52.59375 37.59375 52.59375 28.90625 
L 52.59375 5.171875 
L 60.40625 5.171875 
L 60.40625 0 
L 35.796875 0 
L 35.796875 5.171875 
L 43.609375 5.171875 
L 43.609375 32.328125 
Q 43.609375 40.09375 41.265625 43.390625 
Q 38.921875 46.6875 33.5 46.6875 
Q 27.484375 46.6875 24.328125 42.140625 
Q 21.1875 37.59375 21.1875 28.90625 
L 21.1875 5.171875 
L 29 5.171875 
L 29 0 
L 4.109375 0 
L 4.109375 5.171875 
L 12.203125 5.171875 
L 12.203125 46.78125 
L 3.609375 46.78125 
L 3.609375 51.90625 
L 21.1875 51.90625 
L 21.1875 42.671875 
Q 23.6875 47.859375 27.53125 50.59375 
Q 31.390625 53.328125 36.28125 53.328125 
Q 42.328125 53.328125 46.375 50.3125 
Q 50.4375 47.3125 51.8125 41.796875 
z
" id="DejaVuSerif-109"/>
     <path d="M 20.515625 28.515625 
L 20.515625 23.390625 
Q 20.515625 14.015625 24.09375 9.109375 
Q 27.6875 4.203125 34.515625 4.203125 
Q 41.40625 4.203125 44.9375 9.71875 
Q 48.484375 15.234375 48.484375 25.984375 
Q 48.484375 36.765625 44.9375 42.234375 
Q 41.40625 47.703125 34.515625 47.703125 
Q 27.6875 47.703125 24.09375 42.765625 
Q 20.515625 37.84375 20.515625 28.515625 
z
M 11.53125 46.6875 
L 2.875 46.6875 
L 2.875 51.90625 
L 20.515625 51.90625 
L 20.515625 43.796875 
Q 23.140625 48.6875 27.21875 51 
Q 31.296875 53.328125 37.3125 53.328125 
Q 46.875 53.328125 52.921875 45.75 
Q 58.984375 38.1875 58.984375 25.984375 
Q 58.984375 13.765625 52.921875 6.171875 
Q 46.875 -1.421875 37.3125 -1.421875 
Q 31.296875 -1.421875 27.21875 0.890625 
Q 23.140625 3.21875 20.515625 8.109375 
L 20.515625 -15.578125 
L 29 -15.578125 
L 29 -20.796875 
L 2.875 -20.796875 
L 2.875 -15.578125 
L 11.53125 -15.578125 
z
" id="DejaVuSerif-112"/>
    </defs>
    <g style="fill:#262626;" transform="translate(280.64225 10.29474)scale(0.096 -0.096)">
     <use xlink:href="#DejaVuSerif-71"/>
     <use x="79.882812" xlink:href="#DejaVuSerif-114"/>
     <use x="127.685547" xlink:href="#DejaVuSerif-97"/>
     <use x="187.304688" xlink:href="#DejaVuSerif-118"/>
     <use x="243.798828" xlink:href="#DejaVuSerif-101"/>
     <use x="302.978516" xlink:href="#DejaVuSerif-108"/>
     <use x="334.960938" xlink:href="#DejaVuSerif-32"/>
     <use x="366.748047" xlink:href="#DejaVuSerif-71"/>
     <use x="446.630859" xlink:href="#DejaVuSerif-101"/>
     <use x="505.810547" xlink:href="#DejaVuSerif-110"/>
     <use x="570.214844" xlink:href="#DejaVuSerif-101"/>
     <use x="629.394531" xlink:href="#DejaVuSerif-114"/>
     <use x="677.197266" xlink:href="#DejaVuSerif-97"/>
     <use x="736.816406" xlink:href="#DejaVuSerif-116"/>
     <use x="777.001953" xlink:href="#DejaVuSerif-101"/>
     <use x="836.181641" xlink:href="#DejaVuSerif-100"/>
     <use x="900.195312" xlink:href="#DejaVuSerif-32"/>
     <use x="931.982422" xlink:href="#DejaVuSerif-83"/>
     <use x="1000.488281" xlink:href="#DejaVuSerif-97"/>
     <use x="1060.107422" xlink:href="#DejaVuSerif-109"/>
     <use x="1154.931641" xlink:href="#DejaVuSerif-112"/>
     <use x="1218.945312" xlink:href="#DejaVuSerif-108"/>
     <use x="1250.927734" xlink:href="#DejaVuSerif-101"/>
     <use x="1310.107422" xlink:href="#DejaVuSerif-115"/>
    </g>
   </g>
  </g>
  <g id="axes_2">
   <g id="legend_1">
    <g id="line2d_7">
     <path d="M 156.355562 225.354766 
L 173.955562 225.354766 
" style="fill:none;stroke:#c8102e;stroke-linecap:round;stroke-width:1.2;"/>
    </g>
    <g id="line2d_8"/>
    <g id="text_8">
     <!-- Mean + Standard Deviation -->
     <defs>
      <path d="M 5.515625 0 
L 5.515625 5.171875 
L 14.796875 5.171875 
L 14.796875 67.671875 
L 4.984375 67.671875 
L 4.984375 72.90625 
L 26.21875 72.90625 
L 51.8125 21 
L 77.390625 72.90625 
L 97.3125 72.90625 
L 97.3125 67.671875 
L 87.59375 67.671875 
L 87.59375 5.171875 
L 96.921875 5.171875 
L 96.921875 0 
L 68.40625 0 
L 68.40625 5.171875 
L 77.6875 5.171875 
L 77.6875 61.53125 
L 52.6875 10.6875 
L 45.796875 10.6875 
L 20.796875 61.53125 
L 20.796875 5.171875 
L 30.078125 5.171875 
L 30.078125 0 
z
" id="DejaVuSerif-77"/>
      <path d="M 45.796875 62.703125 
L 45.796875 35.296875 
L 73.1875 35.296875 
L 73.1875 27.390625 
L 45.796875 27.390625 
L 45.796875 0 
L 37.984375 0 
L 37.984375 27.390625 
L 10.59375 27.390625 
L 10.59375 35.296875 
L 37.984375 35.296875 
L 37.984375 62.703125 
z
" id="DejaVuSerif-43"/>
      <path d="M 24.703125 5.171875 
L 33.796875 5.171875 
Q 48 5.171875 55.59375 13.28125 
Q 63.1875 21.390625 63.1875 36.53125 
Q 63.1875 51.65625 55.609375 59.65625 
Q 48.046875 67.671875 33.796875 67.671875 
L 24.703125 67.671875 
z
M 5.515625 0 
L 5.515625 5.171875 
L 14.796875 5.171875 
L 14.796875 67.671875 
L 5.515625 67.671875 
L 5.515625 72.90625 
L 34.515625 72.90625 
Q 53.375 72.90625 63.890625 63.28125 
Q 74.421875 53.65625 74.421875 36.53125 
Q 74.421875 19.34375 63.875 9.671875 
Q 53.328125 0 34.515625 0 
z
" id="DejaVuSerif-68"/>
      <path d="M 30.078125 3.421875 
Q 37.3125 3.421875 40.984375 9.125 
Q 44.671875 14.84375 44.671875 25.984375 
Q 44.671875 37.109375 40.984375 42.796875 
Q 37.3125 48.484375 30.078125 48.484375 
Q 22.859375 48.484375 19.171875 42.796875 
Q 15.484375 37.109375 15.484375 25.984375 
Q 15.484375 14.84375 19.1875 9.125 
Q 22.90625 3.421875 30.078125 3.421875 
z
M 30.078125 -1.421875 
Q 18.75 -1.421875 11.859375 6.078125 
Q 4.984375 13.578125 4.984375 25.984375 
Q 4.984375 38.375 11.84375 45.84375 
Q 18.703125 53.328125 30.078125 53.328125 
Q 41.453125 53.328125 48.3125 45.84375 
Q 55.171875 38.375 55.171875 25.984375 
Q 55.171875 13.578125 48.3125 6.078125 
Q 41.453125 -1.421875 30.078125 -1.421875 
z
" id="DejaVuSerif-111"/>
     </defs>
     <g style="fill:#262626;" transform="translate(180.995563 228.434766)scale(0.088 -0.088)">
      <use xlink:href="#DejaVuSerif-77"/>
      <use x="102.392578" xlink:href="#DejaVuSerif-101"/>
      <use x="161.572266" xlink:href="#DejaVuSerif-97"/>
      <use x="221.191406" xlink:href="#DejaVuSerif-110"/>
      <use x="285.595703" xlink:href="#DejaVuSerif-32"/>
      <use x="317.382812" xlink:href="#DejaVuSerif-43"/>
      <use x="401.171875" xlink:href="#DejaVuSerif-32"/>
      <use x="432.958984" xlink:href="#DejaVuSerif-83"/>
      <use x="501.464844" xlink:href="#DejaVuSerif-116"/>
      <use x="541.650391" xlink:href="#DejaVuSerif-97"/>
      <use x="601.269531" xlink:href="#DejaVuSerif-110"/>
      <use x="665.673828" xlink:href="#DejaVuSerif-100"/>
      <use x="729.6875" xlink:href="#DejaVuSerif-97"/>
      <use x="789.306641" xlink:href="#DejaVuSerif-114"/>
      <use x="837.109375" xlink:href="#DejaVuSerif-100"/>
      <use x="901.123047" xlink:href="#DejaVuSerif-32"/>
      <use x="932.910156" xlink:href="#DejaVuSerif-68"/>
      <use x="1013.085938" xlink:href="#DejaVuSerif-101"/>
      <use x="1072.265625" xlink:href="#DejaVuSerif-118"/>
      <use x="1128.759766" xlink:href="#DejaVuSerif-105"/>
      <use x="1160.742188" xlink:href="#DejaVuSerif-97"/>
      <use x="1220.361328" xlink:href="#DejaVuSerif-116"/>
      <use x="1260.546875" xlink:href="#DejaVuSerif-105"/>
      <use x="1292.529297" xlink:href="#DejaVuSerif-111"/>
      <use x="1352.734375" xlink:href="#DejaVuSerif-110"/>
     </g>
    </g>
    <g id="line2d_9">
     <path d="M 323.306687 225.354766 
L 340.906687 225.354766 
" style="fill:none;stroke:#00b388;stroke-linecap:round;stroke-width:1.2;"/>
    </g>
    <g id="line2d_10"/>
    <g id="text_9">
     <!-- Mean -->
     <g style="fill:#262626;" transform="translate(347.946687 228.434766)scale(0.088 -0.088)">
      <use xlink:href="#DejaVuSerif-77"/>
      <use x="102.392578" xlink:href="#DejaVuSerif-101"/>
      <use x="161.572266" xlink:href="#DejaVuSerif-97"/>
      <use x="221.191406" xlink:href="#DejaVuSerif-110"/>
     </g>
    </g>
    <g id="line2d_11">
     <path d="M 390.680313 225.354766 
L 408.280313 225.354766 
" style="fill:none;stroke:#f6be00;stroke-linecap:round;stroke-width:1.2;"/>
    </g>
    <g id="line2d_12"/>
    <g id="text_10">
     <!-- Mean - Standard Deviation -->
     <defs>
      <path d="M 4.390625 30.609375 
L 29.390625 30.609375 
L 29.390625 23 
L 4.390625 23 
z
" id="DejaVuSerif-45"/>
     </defs>
     <g style="fill:#262626;" transform="translate(415.320312 228.434766)scale(0.088 -0.088)">
      <use xlink:href="#DejaVuSerif-77"/>
      <use x="102.392578" xlink:href="#DejaVuSerif-101"/>
      <use x="161.572266" xlink:href="#DejaVuSerif-97"/>
      <use x="221.191406" xlink:href="#DejaVuSerif-110"/>
      <use x="285.595703" xlink:href="#DejaVuSerif-32"/>
      <use x="317.382812" xlink:href="#DejaVuSerif-45"/>
      <use x="351.171875" xlink:href="#DejaVuSerif-32"/>
      <use x="382.958984" xlink:href="#DejaVuSerif-83"/>
      <use x="451.464844" xlink:href="#DejaVuSerif-116"/>
      <use x="491.650391" xlink:href="#DejaVuSerif-97"/>
      <use x="551.269531" xlink:href="#DejaVuSerif-110"/>
      <use x="615.673828" xlink:href="#DejaVuSerif-100"/>
      <use x="679.6875" xlink:href="#DejaVuSerif-97"/>
      <use x="739.306641" xlink:href="#DejaVuSerif-114"/>
      <use x="787.109375" xlink:href="#DejaVuSerif-100"/>
      <use x="851.123047" xlink:href="#DejaVuSerif-32"/>
      <use x="882.910156" xlink:href="#DejaVuSerif-68"/>
      <use x="963.085938" xlink:href="#DejaVuSerif-101"/>
      <use x="1022.265625" xlink:href="#DejaVuSerif-118"/>
      <use x="1078.759766" xlink:href="#DejaVuSerif-105"/>
      <use x="1110.742188" xlink:href="#DejaVuSerif-97"/>
      <use x="1170.361328" xlink:href="#DejaVuSerif-116"/>
      <use x="1210.546875" xlink:href="#DejaVuSerif-105"/>
      <use x="1242.529297" xlink:href="#DejaVuSerif-111"/>
      <use x="1302.734375" xlink:href="#DejaVuSerif-110"/>
     </g>
    </g>
   </g>
  </g>
  <g id="axes_3">
   <g id="patch_7">
    <path d="M 46.98724 434.89201 
L 644.99976 434.89201 
L 644.99976 242.908077 
L 46.98724 242.908077 
z
" style="fill:#ffffff;"/>
   </g>
   <g id="matplotlib.axis_3">
    <g id="xtick_1">
     <g id="text_11">
      <!-- 0 -->
      <g style="fill:#262626;" transform="translate(71.370127 449.878635)scale(0.088 -0.088)">
       <use xlink:href="#DejaVuSerif-48"/>
      </g>
     </g>
    </g>
    <g id="xtick_2">
     <g id="text_12">
      <!-- 20 -->
      <g style="fill:#262626;" transform="translate(175.168224 449.878635)scale(0.088 -0.088)">
       <use xlink:href="#DejaVuSerif-50"/>
       <use x="63.623047" xlink:href="#DejaVuSerif-48"/>
      </g>
     </g>
    </g>
    <g id="xtick_3">
     <g id="text_13">
      <!-- 40 -->
      <g style="fill:#262626;" transform="translate(281.765822 449.878635)scale(0.088 -0.088)">
       <use xlink:href="#DejaVuSerif-52"/>
       <use x="63.623047" xlink:href="#DejaVuSerif-48"/>
      </g>
     </g>
    </g>
    <g id="xtick_4">
     <g id="text_14">
      <!-- 60 -->
      <defs>
       <path d="M 32.71875 3.421875 
Q 39.59375 3.421875 43.296875 8.46875 
Q 47.015625 13.53125 47.015625 23 
Q 47.015625 32.46875 43.296875 37.515625 
Q 39.59375 42.578125 32.71875 42.578125 
Q 25.734375 42.578125 22.0625 37.6875 
Q 18.40625 32.8125 18.40625 23.578125 
Q 18.40625 13.875 22.109375 8.640625 
Q 25.828125 3.421875 32.71875 3.421875 
z
M 16.796875 40.140625 
Q 20.125 43.796875 24.3125 45.59375 
Q 28.515625 47.40625 33.796875 47.40625 
Q 44.671875 47.40625 51 40.859375 
Q 57.328125 34.328125 57.328125 23 
Q 57.328125 11.921875 50.515625 5.25 
Q 43.703125 -1.421875 32.328125 -1.421875 
Q 19.96875 -1.421875 13.328125 7.78125 
Q 6.6875 17 6.6875 34.078125 
Q 6.6875 53.21875 14.546875 63.71875 
Q 22.40625 74.21875 36.71875 74.21875 
Q 40.578125 74.21875 44.828125 73.484375 
Q 49.078125 72.75 53.515625 71.296875 
L 53.515625 59.28125 
L 48 59.28125 
Q 47.40625 64.203125 44.234375 66.796875 
Q 41.0625 69.390625 35.6875 69.390625 
Q 26.21875 69.390625 21.578125 62.203125 
Q 16.9375 55.03125 16.796875 40.140625 
z
" id="DejaVuSerif-54"/>
      </defs>
      <g style="fill:#262626;" transform="translate(388.363419 449.878635)scale(0.088 -0.088)">
       <use xlink:href="#DejaVuSerif-54"/>
       <use x="63.623047" xlink:href="#DejaVuSerif-48"/>
      </g>
     </g>
    </g>
    <g id="xtick_5">
     <g id="text_15">
      <!-- 80 -->
      <defs>
       <path d="M 46.578125 19.921875 
Q 46.578125 27.734375 42.6875 32.046875 
Q 38.8125 36.375 31.78125 36.375 
Q 24.75 36.375 20.875 32.046875 
Q 17 27.734375 17 19.921875 
Q 17 12.0625 20.875 7.734375 
Q 24.75 3.421875 31.78125 3.421875 
Q 38.8125 3.421875 42.6875 7.734375 
Q 46.578125 12.0625 46.578125 19.921875 
z
M 44.578125 55.328125 
Q 44.578125 61.96875 41.203125 65.671875 
Q 37.84375 69.390625 31.78125 69.390625 
Q 25.78125 69.390625 22.390625 65.671875 
Q 19 61.96875 19 55.328125 
Q 19 48.640625 22.390625 44.921875 
Q 25.78125 41.21875 31.78125 41.21875 
Q 37.84375 41.21875 41.203125 44.921875 
Q 44.578125 48.640625 44.578125 55.328125 
z
M 39.3125 38.8125 
Q 47.609375 37.703125 52.25 32.6875 
Q 56.890625 27.6875 56.890625 19.921875 
Q 56.890625 9.671875 50.390625 4.125 
Q 43.890625 -1.421875 31.78125 -1.421875 
Q 19.734375 -1.421875 13.203125 4.125 
Q 6.6875 9.671875 6.6875 19.921875 
Q 6.6875 27.6875 11.328125 32.6875 
Q 15.96875 37.703125 24.3125 38.8125 
Q 16.9375 40.140625 13 44.40625 
Q 9.078125 48.6875 9.078125 55.328125 
Q 9.078125 64.109375 15.125 69.15625 
Q 21.1875 74.21875 31.78125 74.21875 
Q 42.390625 74.21875 48.4375 69.15625 
Q 54.5 64.109375 54.5 55.328125 
Q 54.5 48.6875 50.5625 44.40625 
Q 46.625 40.140625 39.3125 38.8125 
z
" id="DejaVuSerif-56"/>
      </defs>
      <g style="fill:#262626;" transform="translate(494.961016 449.878635)scale(0.088 -0.088)">
       <use xlink:href="#DejaVuSerif-56"/>
       <use x="63.623047" xlink:href="#DejaVuSerif-48"/>
      </g>
     </g>
    </g>
    <g id="xtick_6">
     <g id="text_16">
      <!-- 100 -->
      <defs>
       <path d="M 14.203125 0 
L 14.203125 5.171875 
L 26.90625 5.171875 
L 26.90625 65.828125 
L 12.203125 56.296875 
L 12.203125 62.703125 
L 29.984375 74.21875 
L 36.71875 74.21875 
L 36.71875 5.171875 
L 49.421875 5.171875 
L 49.421875 0 
z
" id="DejaVuSerif-49"/>
      </defs>
      <g style="fill:#262626;" transform="translate(598.759113 449.878635)scale(0.088 -0.088)">
       <use xlink:href="#DejaVuSerif-49"/>
       <use x="63.623047" xlink:href="#DejaVuSerif-48"/>
       <use x="127.246094" xlink:href="#DejaVuSerif-48"/>
      </g>
     </g>
    </g>
    <g id="text_17">
     <!-- Spectral Band -->
     <defs>
      <path d="M 24.703125 5.171875 
L 39.3125 5.171875 
Q 48.09375 5.171875 52.140625 8.984375 
Q 56.203125 12.796875 56.203125 21.09375 
Q 56.203125 29.34375 52.171875 33.125 
Q 48.140625 36.921875 39.3125 36.921875 
L 24.703125 36.921875 
z
M 24.703125 42.09375 
L 37.109375 42.09375 
Q 45.125 42.09375 48.796875 45.171875 
Q 52.484375 48.25 52.484375 54.890625 
Q 52.484375 61.578125 48.796875 64.625 
Q 45.125 67.671875 37.109375 67.671875 
L 24.703125 67.671875 
z
M 5.515625 0 
L 5.515625 5.171875 
L 14.796875 5.171875 
L 14.796875 67.671875 
L 5.515625 67.671875 
L 5.515625 72.90625 
L 41.5 72.90625 
Q 52.546875 72.90625 58.125 68.390625 
Q 63.71875 63.875 63.71875 54.890625 
Q 63.71875 48.390625 59.828125 44.53125 
Q 55.953125 40.671875 48.484375 39.796875 
Q 57.765625 38.625 62.578125 33.859375 
Q 67.390625 29.109375 67.390625 21.09375 
Q 67.390625 10.25 60.546875 5.125 
Q 53.71875 0 39.203125 0 
z
" id="DejaVuSerif-66"/>
     </defs>
     <g style="fill:#262626;" transform="translate(311.40425 463.00326)scale(0.096 -0.096)">
      <use xlink:href="#DejaVuSerif-83"/>
      <use x="68.505859" xlink:href="#DejaVuSerif-112"/>
      <use x="132.519531" xlink:href="#DejaVuSerif-101"/>
      <use x="191.699219" xlink:href="#DejaVuSerif-99"/>
      <use x="247.705078" xlink:href="#DejaVuSerif-116"/>
      <use x="287.890625" xlink:href="#DejaVuSerif-114"/>
      <use x="335.693359" xlink:href="#DejaVuSerif-97"/>
      <use x="395.3125" xlink:href="#DejaVuSerif-108"/>
      <use x="427.294922" xlink:href="#DejaVuSerif-32"/>
      <use x="459.082031" xlink:href="#DejaVuSerif-66"/>
      <use x="532.568359" xlink:href="#DejaVuSerif-97"/>
      <use x="592.1875" xlink:href="#DejaVuSerif-110"/>
      <use x="656.591797" xlink:href="#DejaVuSerif-100"/>
     </g>
    </g>
   </g>
   <g id="matplotlib.axis_4">
    <g id="ytick_6">
     <g id="text_18">
      <!-- 1000 -->
      <g style="fill:#262626;" transform="translate(16.29124 427.097557)scale(0.088 -0.088)">
       <use xlink:href="#DejaVuSerif-49"/>
       <use x="63.623047" xlink:href="#DejaVuSerif-48"/>
       <use x="127.246094" xlink:href="#DejaVuSerif-48"/>
       <use x="190.869141" xlink:href="#DejaVuSerif-48"/>
      </g>
     </g>
    </g>
    <g id="ytick_7">
     <g id="text_19">
      <!-- 1200 -->
      <g style="fill:#262626;" transform="translate(16.29124 396.699752)scale(0.088 -0.088)">
       <use xlink:href="#DejaVuSerif-49"/>
       <use x="63.623047" xlink:href="#DejaVuSerif-50"/>
       <use x="127.246094" xlink:href="#DejaVuSerif-48"/>
       <use x="190.869141" xlink:href="#DejaVuSerif-48"/>
      </g>
     </g>
    </g>
    <g id="ytick_8">
     <g id="text_20">
      <!-- 1400 -->
      <g style="fill:#262626;" transform="translate(16.29124 366.301947)scale(0.088 -0.088)">
       <use xlink:href="#DejaVuSerif-49"/>
       <use x="63.623047" xlink:href="#DejaVuSerif-52"/>
       <use x="127.246094" xlink:href="#DejaVuSerif-48"/>
       <use x="190.869141" xlink:href="#DejaVuSerif-48"/>
      </g>
     </g>
    </g>
    <g id="ytick_9">
     <g id="text_21">
      <!-- 1600 -->
      <g style="fill:#262626;" transform="translate(16.29124 335.904142)scale(0.088 -0.088)">
       <use xlink:href="#DejaVuSerif-49"/>
       <use x="63.623047" xlink:href="#DejaVuSerif-54"/>
       <use x="127.246094" xlink:href="#DejaVuSerif-48"/>
       <use x="190.869141" xlink:href="#DejaVuSerif-48"/>
      </g>
     </g>
    </g>
    <g id="ytick_10">
     <g id="text_22">
      <!-- 1800 -->
      <g style="fill:#262626;" transform="translate(16.29124 305.506337)scale(0.088 -0.088)">
       <use xlink:href="#DejaVuSerif-49"/>
       <use x="63.623047" xlink:href="#DejaVuSerif-56"/>
       <use x="127.246094" xlink:href="#DejaVuSerif-48"/>
       <use x="190.869141" xlink:href="#DejaVuSerif-48"/>
      </g>
     </g>
    </g>
    <g id="ytick_11">
     <g id="text_23">
      <!-- 2000 -->
      <g style="fill:#262626;" transform="translate(16.29124 275.108532)scale(0.088 -0.088)">
       <use xlink:href="#DejaVuSerif-50"/>
       <use x="63.623047" xlink:href="#DejaVuSerif-48"/>
       <use x="127.246094" xlink:href="#DejaVuSerif-48"/>
       <use x="190.869141" xlink:href="#DejaVuSerif-48"/>
      </g>
     </g>
    </g>
    <g id="text_24">
     <!-- Intensity -->
     <g style="fill:#262626;" transform="translate(10.15824 360.388293)rotate(-90)scale(0.096 -0.096)">
      <use xlink:href="#DejaVuSerif-73"/>
      <use x="39.501953" xlink:href="#DejaVuSerif-110"/>
      <use x="103.90625" xlink:href="#DejaVuSerif-116"/>
      <use x="144.091797" xlink:href="#DejaVuSerif-101"/>
      <use x="203.271484" xlink:href="#DejaVuSerif-110"/>
      <use x="267.675781" xlink:href="#DejaVuSerif-115"/>
      <use x="318.994141" xlink:href="#DejaVuSerif-105"/>
      <use x="350.976562" xlink:href="#DejaVuSerif-116"/>
      <use x="391.162109" xlink:href="#DejaVuSerif-121"/>
     </g>
    </g>
   </g>
   <g id="line2d_13">
    <path clip-path="url(#p88539adf2a)" d="M 74.169627 342.050224 
L 79.499507 350.859608 
L 84.829387 358.683442 
L 90.159267 355.96923 
L 95.489147 352.119129 
L 100.819027 352.08997 
L 106.148906 351.385741 
L 111.478786 353.267078 
L 116.808666 354.799778 
L 122.138546 353.040809 
L 127.468426 349.953975 
L 132.798306 350.727076 
L 138.128186 350.708134 
L 143.458065 349.653511 
L 148.787945 346.88211 
L 154.117825 344.772724 
L 159.447705 342.387998 
L 164.777585 340.128653 
L 170.107465 337.519329 
L 175.437345 334.468255 
L 180.767224 332.353361 
L 186.097104 329.51615 
L 191.426984 325.252258 
L 196.756864 321.999068 
L 202.086744 318.201077 
L 207.416624 312.745509 
L 212.746504 309.987395 
L 218.076383 308.639996 
L 223.406263 306.266998 
L 228.736143 302.249629 
L 234.066023 298.234008 
L 239.395903 295.687945 
L 244.725783 293.306493 
L 250.055663 289.326702 
L 255.385542 285.524382 
L 260.715422 282.036003 
L 266.045302 279.435567 
L 271.375182 277.23207 
L 276.705062 276.537187 
L 282.034942 276.588943 
L 287.364822 274.913984 
L 292.694701 273.443227 
L 298.024581 272.495458 
L 303.354461 271.907749 
L 308.684341 271.431505 
L 314.014221 270.634344 
L 319.344101 270.038252 
L 324.673981 270.342184 
L 330.00386 270.462058 
L 335.33374 271.582217 
L 340.66362 269.865326 
L 345.9935 267.811439 
L 351.32338 267.684946 
L 356.65326 267.91938 
L 361.98314 268.810307 
L 367.313019 269.152558 
L 372.642899 267.924702 
L 377.972779 265.046895 
L 383.302659 264.351644 
L 388.632539 265.855767 
L 393.962419 266.023397 
L 399.292299 265.285391 
L 404.622178 265.184442 
L 409.952058 267.01166 
L 415.281938 268.532969 
L 420.611818 265.761981 
L 425.941698 262.434634 
L 431.271578 261.528683 
L 436.601458 258.935667 
L 441.931337 258.207335 
L 447.261217 260.878227 
L 452.591097 265.71904 
L 457.920977 266.923497 
L 463.250857 263.690529 
L 468.580737 260.695599 
L 473.910617 256.507911 
L 479.240496 255.136375 
L 484.570376 255.179251 
L 489.900256 255.759342 
L 495.230136 256.569238 
L 500.560016 257.672653 
L 505.889896 263.785219 
L 511.219776 273.263145 
L 516.549655 267.93115 
L 521.879535 251.634619 
L 527.209415 252.064822 
L 532.539295 256.957977 
L 537.869175 260.406991 
L 543.199055 262.445754 
L 548.528935 262.710662 
L 553.858814 261.272923 
L 559.188694 261.571778 
L 564.518574 263.559607 
L 569.848454 263.967097 
L 575.178334 265.533167 
L 580.508214 270.663939 
L 585.838094 273.730937 
L 591.167973 271.019072 
L 596.497853 270.264893 
L 601.827733 272.740594 
L 607.157613 273.505844 
L 612.487493 269.158224 
L 617.817373 266.888161 
" style="fill:none;stroke:#c8102e;stroke-linecap:round;stroke-width:1.2;"/>
   </g>
   <g id="line2d_14">
    <path clip-path="url(#p88539adf2a)" d="M 74.169627 384.107846 
L 79.499507 384.883938 
L 84.829387 387.574774 
L 90.159267 383.522844 
L 95.489147 379.422543 
L 100.819027 379.526524 
L 106.148906 378.90271 
L 111.478786 380.554315 
L 116.808666 381.725912 
L 122.138546 380.019276 
L 127.468426 377.215987 
L 132.798306 378.107863 
L 138.128186 378.359054 
L 143.458065 377.397157 
L 148.787945 374.81204 
L 154.117825 373.019815 
L 159.447705 370.895445 
L 164.777585 368.658404 
L 170.107465 365.890813 
L 175.437345 362.926919 
L 180.767224 361.001097 
L 186.097104 358.282818 
L 191.426984 354.202068 
L 196.756864 351.129486 
L 202.086744 347.686742 
L 207.416624 342.72295 
L 212.746504 340.25188 
L 218.076383 339.038067 
L 223.406263 336.750194 
L 228.736143 333.124326 
L 234.066023 329.520687 
L 239.395903 327.262792 
L 244.725783 325.181795 
L 250.055663 321.658242 
L 255.385542 318.29276 
L 260.715422 315.149578 
L 266.045302 312.814349 
L 271.375182 310.843415 
L 276.705062 310.256096 
L 282.034942 310.304394 
L 287.364822 308.785952 
L 292.694701 307.400238 
L 298.024581 306.514806 
L 303.354461 305.980636 
L 308.684341 305.474126 
L 314.014221 304.695137 
L 319.344101 304.226136 
L 324.673981 304.522004 
L 330.00386 304.626492 
L 335.33374 305.645738 
L 340.66362 304.08566 
L 345.9935 302.170193 
L 351.32338 302.166862 
L 356.65326 302.473085 
L 361.98314 303.347728 
L 367.313019 303.612025 
L 372.642899 302.488219 
L 377.972779 300.001942 
L 383.302659 299.478054 
L 388.632539 300.810474 
L 393.962419 300.875354 
L 399.292299 300.255667 
L 404.622178 300.211208 
L 409.952058 301.869112 
L 415.281938 303.057653 
L 420.611818 300.348425 
L 425.941698 297.360128 
L 431.271578 296.588235 
L 436.601458 294.200364 
L 441.931337 293.407907 
L 447.261217 295.740529 
L 452.591097 299.853501 
L 457.920977 300.468264 
L 463.250857 297.396623 
L 468.580737 294.676316 
L 473.910617 290.969348 
L 479.240496 289.815274 
L 484.570376 289.850393 
L 489.900256 290.437495 
L 495.230136 291.157035 
L 500.560016 292.015024 
L 505.889896 297.234207 
L 511.219776 305.215694 
L 516.549655 299.425846 
L 521.879535 285.447056 
L 527.209415 286.450227 
L 532.539295 291.025828 
L 537.869175 293.981251 
L 543.199055 295.588468 
L 548.528935 295.879195 
L 553.858814 294.602675 
L 559.188694 294.92338 
L 564.518574 296.532262 
L 569.848454 296.769912 
L 575.178334 298.206314 
L 580.508214 302.527103 
L 585.838094 304.756034 
L 591.167973 302.046082 
L 596.497853 301.097364 
L 601.827733 303.131149 
L 607.157613 304.220923 
L 612.487493 301.128066 
L 617.817373 299.686523 
" style="fill:none;stroke:#00b388;stroke-linecap:round;stroke-width:1.2;"/>
   </g>
   <g id="line2d_15">
    <path clip-path="url(#p88539adf2a)" d="M 74.169627 426.165468 
L 79.499507 418.908268 
L 84.829387 416.466106 
L 90.159267 411.076457 
L 95.489147 406.725957 
L 100.819027 406.963078 
L 106.148906 406.419679 
L 111.478786 407.841551 
L 116.808666 408.652046 
L 122.138546 406.997743 
L 127.468426 404.477999 
L 132.798306 405.488651 
L 138.128186 406.009974 
L 143.458065 405.140804 
L 148.787945 402.741971 
L 154.117825 401.266907 
L 159.447705 399.402891 
L 164.777585 397.188154 
L 170.107465 394.262298 
L 175.437345 391.385583 
L 180.767224 389.648832 
L 186.097104 387.049485 
L 191.426984 383.151878 
L 196.756864 380.259903 
L 202.086744 377.172408 
L 207.416624 372.700392 
L 212.746504 370.516364 
L 218.076383 369.436139 
L 223.406263 367.233391 
L 228.736143 363.999022 
L 234.066023 360.807366 
L 239.395903 358.837639 
L 244.725783 357.057097 
L 250.055663 353.989782 
L 255.385542 351.061138 
L 260.715422 348.263153 
L 266.045302 346.193131 
L 271.375182 344.45476 
L 276.705062 343.975005 
L 282.034942 344.019845 
L 287.364822 342.657919 
L 292.694701 341.357249 
L 298.024581 340.534153 
L 303.354461 340.053523 
L 308.684341 339.516747 
L 314.014221 338.75593 
L 319.344101 338.414021 
L 324.673981 338.701825 
L 330.00386 338.790927 
L 335.33374 339.70926 
L 340.66362 338.305995 
L 345.9935 336.528947 
L 351.32338 336.648779 
L 356.65326 337.02679 
L 361.98314 337.88515 
L 367.313019 338.071493 
L 372.642899 337.051736 
L 377.972779 334.956989 
L 383.302659 334.604465 
L 388.632539 335.765181 
L 393.962419 335.727311 
L 399.292299 335.225944 
L 404.622178 335.237973 
L 409.952058 336.726563 
L 415.281938 337.582336 
L 420.611818 334.934869 
L 425.941698 332.285622 
L 431.271578 331.647787 
L 436.601458 329.46506 
L 441.931337 328.608478 
L 447.261217 330.602831 
L 452.591097 333.987963 
L 457.920977 334.013031 
L 463.250857 331.102716 
L 468.580737 328.657034 
L 473.910617 325.430785 
L 479.240496 324.494173 
L 484.570376 324.521535 
L 489.900256 325.115648 
L 495.230136 325.744832 
L 500.560016 326.357394 
L 505.889896 330.683194 
L 511.219776 337.168243 
L 516.549655 330.920543 
L 521.879535 319.259493 
L 527.209415 320.835632 
L 532.539295 325.093679 
L 537.869175 327.55551 
L 543.199055 328.731181 
L 548.528935 329.047727 
L 553.858814 327.932426 
L 559.188694 328.274982 
L 564.518574 329.504918 
L 569.848454 329.572728 
L 575.178334 330.87946 
L 580.508214 334.390267 
L 585.838094 335.781131 
L 591.167973 333.073092 
L 596.497853 331.929835 
L 601.827733 333.521704 
L 607.157613 334.936001 
L 612.487493 333.097908 
L 617.817373 332.484885 
" style="fill:none;stroke:#f6be00;stroke-linecap:round;stroke-width:1.2;"/>
   </g>
   <g id="patch_8">
    <path d="M 46.98724 434.89201 
L 46.98724 242.908077 
" style="fill:none;stroke:#262626;stroke-linecap:square;stroke-linejoin:miter;"/>
   </g>
   <g id="patch_9">
    <path d="M 644.99976 434.89201 
L 644.99976 242.908077 
" style="fill:none;stroke:#262626;stroke-linecap:square;stroke-linejoin:miter;"/>
   </g>
   <g id="patch_10">
    <path d="M 46.98724 434.89201 
L 644.99976 434.89201 
" style="fill:none;stroke:#262626;stroke-linecap:square;stroke-linejoin:miter;"/>
   </g>
   <g id="patch_11">
    <path d="M 46.98724 242.908077 
L 644.99976 242.908077 
" style="fill:none;stroke:#262626;stroke-linecap:square;stroke-linejoin:miter;"/>
   </g>
  </g>
 </g>
 <defs>
  <clipPath id="pa40300858a">
   <rect height="191.983933" width="598.01252" x="46.98724" y="16.29474"/>
  </clipPath>
  <clipPath id="p88539adf2a">
   <rect height="191.983933" width="598.01252" x="46.98724" y="242.908077"/>
  </clipPath>
 </defs>
</svg>
