<?xml version="1.0" encoding="utf-8" standalone="no"?>
<!DOCTYPE svg PUBLIC "-//W3C//DTD SVG 1.1//EN"
  "http://www.w3.org/Graphics/SVG/1.1/DTD/svg11.dtd">
<!-- Created with matplotlib (https://matplotlib.org/) -->
<svg height="468pt" version="1.1" viewBox="0 0 648 468" width="648pt" xmlns="http://www.w3.org/2000/svg" xmlns:xlink="http://www.w3.org/1999/xlink">
 <defs>
  <style type="text/css">
*{stroke-linecap:butt;stroke-linejoin:round;}
  </style>
 </defs>
 <g id="figure_1">
  <g id="patch_1">
   <path d="M 0 468 
L 648 468 
L 648 0 
L 0 0 
z
" style="fill:#ffffff;"/>
  </g>
  <g id="axes_1">
   <g id="patch_2">
    <path d="M 46.98724 207.482629 
L 644.99976 207.482629 
L 644.99976 16.29474 
L 46.98724 16.29474 
z
" style="fill:#ffffff;"/>
   </g>
   <g id="matplotlib.axis_1"/>
   <g id="matplotlib.axis_2">
    <g id="ytick_1">
     <g id="text_1">
      <!-- −0.4 -->
      <defs>
       <path d="M 10.59375 35.296875 
L 73.1875 35.296875 
L 73.1875 27.390625 
L 10.59375 27.390625 
z
" id="DejaVuSerif-8722"/>
       <path d="M 31.78125 3.421875 
Q 39.265625 3.421875 42.96875 11.625 
Q 46.6875 19.828125 46.6875 36.375 
Q 46.6875 52.984375 42.96875 61.1875 
Q 39.265625 69.390625 31.78125 69.390625 
Q 24.3125 69.390625 20.59375 61.1875 
Q 16.890625 52.984375 16.890625 36.375 
Q 16.890625 19.828125 20.59375 11.625 
Q 24.3125 3.421875 31.78125 3.421875 
z
M 31.78125 -1.421875 
Q 19.921875 -1.421875 13.25 8.53125 
Q 6.59375 18.5 6.59375 36.375 
Q 6.59375 54.296875 13.25 64.25 
Q 19.921875 74.21875 31.78125 74.21875 
Q 43.703125 74.21875 50.34375 64.25 
Q 56.984375 54.296875 56.984375 36.375 
Q 56.984375 18.5 50.34375 8.53125 
Q 43.703125 -1.421875 31.78125 -1.421875 
z
" id="DejaVuSerif-48"/>
       <path d="M 9.421875 5.078125 
Q 9.421875 7.8125 11.28125 9.71875 
Q 13.140625 11.625 15.921875 11.625 
Q 18.609375 11.625 20.5 9.71875 
Q 22.40625 7.8125 22.40625 5.078125 
Q 22.40625 2.390625 20.5 0.484375 
Q 18.609375 -1.421875 15.921875 -1.421875 
Q 13.140625 -1.421875 11.28125 0.453125 
Q 9.421875 2.34375 9.421875 5.078125 
z
" id="DejaVuSerif-46"/>
       <path d="M 34.90625 24.703125 
L 34.90625 63.484375 
L 10.015625 24.703125 
z
M 56.390625 0 
L 23.1875 0 
L 23.1875 5.171875 
L 34.90625 5.171875 
L 34.90625 19.484375 
L 3.078125 19.484375 
L 3.078125 24.8125 
L 35.015625 74.21875 
L 44.671875 74.21875 
L 44.671875 24.703125 
L 58.59375 24.703125 
L 58.59375 19.484375 
L 44.671875 19.484375 
L 44.671875 5.171875 
L 56.390625 5.171875 
z
" id="DejaVuSerif-52"/>
      </defs>
      <g style="fill:#262626;" transform="translate(17.318365 208.066604)scale(0.088 -0.088)">
       <use xlink:href="#DejaVuSerif-8722"/>
       <use x="83.789062" xlink:href="#DejaVuSerif-48"/>
       <use x="147.412109" xlink:href="#DejaVuSerif-46"/>
       <use x="179.199219" xlink:href="#DejaVuSerif-52"/>
      </g>
     </g>
    </g>
    <g id="ytick_2">
     <g id="text_2">
      <!-- −0.2 -->
      <defs>
       <path d="M 12.796875 55.515625 
L 7.328125 55.515625 
L 7.328125 68.5 
Q 12.546875 71.296875 17.84375 72.75 
Q 23.140625 74.21875 28.21875 74.21875 
Q 39.59375 74.21875 46.1875 68.703125 
Q 52.78125 63.1875 52.78125 53.71875 
Q 52.78125 43.015625 37.84375 28.125 
Q 36.671875 27 36.078125 26.421875 
L 17.671875 8.015625 
L 48.09375 8.015625 
L 48.09375 17 
L 53.8125 17 
L 53.8125 0 
L 6.78125 0 
L 6.78125 5.328125 
L 28.90625 27.390625 
Q 36.234375 34.71875 39.359375 40.84375 
Q 42.484375 46.96875 42.484375 53.71875 
Q 42.484375 61.078125 38.640625 65.234375 
Q 34.8125 69.390625 28.078125 69.390625 
Q 21.09375 69.390625 17.28125 65.921875 
Q 13.484375 62.453125 12.796875 55.515625 
z
" id="DejaVuSerif-50"/>
      </defs>
      <g style="fill:#262626;" transform="translate(17.318365 173.214904)scale(0.088 -0.088)">
       <use xlink:href="#DejaVuSerif-8722"/>
       <use x="83.789062" xlink:href="#DejaVuSerif-48"/>
       <use x="147.412109" xlink:href="#DejaVuSerif-46"/>
       <use x="179.199219" xlink:href="#DejaVuSerif-50"/>
      </g>
     </g>
    </g>
    <g id="ytick_3">
     <g id="text_3">
      <!-- 0.0 -->
      <g style="fill:#262626;" transform="translate(24.69249 138.363204)scale(0.088 -0.088)">
       <use xlink:href="#DejaVuSerif-48"/>
       <use x="63.623047" xlink:href="#DejaVuSerif-46"/>
       <use x="95.410156" xlink:href="#DejaVuSerif-48"/>
      </g>
     </g>
    </g>
    <g id="ytick_4">
     <g id="text_4">
      <!-- 0.2 -->
      <g style="fill:#262626;" transform="translate(24.69249 103.511504)scale(0.088 -0.088)">
       <use xlink:href="#DejaVuSerif-48"/>
       <use x="63.623047" xlink:href="#DejaVuSerif-46"/>
       <use x="95.410156" xlink:href="#DejaVuSerif-50"/>
      </g>
     </g>
    </g>
    <g id="ytick_5">
     <g id="text_5">
      <!-- 0.4 -->
      <g style="fill:#262626;" transform="translate(24.69249 68.659803)scale(0.088 -0.088)">
       <use xlink:href="#DejaVuSerif-48"/>
       <use x="63.623047" xlink:href="#DejaVuSerif-46"/>
       <use x="95.410156" xlink:href="#DejaVuSerif-52"/>
      </g>
     </g>
    </g>
    <g id="ytick_6">
     <g id="text_6">
      <!-- 0.6 -->
      <defs>
       <path d="M 32.71875 3.421875 
Q 39.59375 3.421875 43.296875 8.46875 
Q 47.015625 13.53125 47.015625 23 
Q 47.015625 32.46875 43.296875 37.515625 
Q 39.59375 42.578125 32.71875 42.578125 
Q 25.734375 42.578125 22.0625 37.6875 
Q 18.40625 32.8125 18.40625 23.578125 
Q 18.40625 13.875 22.109375 8.640625 
Q 25.828125 3.421875 32.71875 3.421875 
z
M 16.796875 40.140625 
Q 20.125 43.796875 24.3125 45.59375 
Q 28.515625 47.40625 33.796875 47.40625 
Q 44.671875 47.40625 51 40.859375 
Q 57.328125 34.328125 57.328125 23 
Q 57.328125 11.921875 50.515625 5.25 
Q 43.703125 -1.421875 32.328125 -1.421875 
Q 19.96875 -1.421875 13.328125 7.78125 
Q 6.6875 17 6.6875 34.078125 
Q 6.6875 53.21875 14.546875 63.71875 
Q 22.40625 74.21875 36.71875 74.21875 
Q 40.578125 74.21875 44.828125 73.484375 
Q 49.078125 72.75 53.515625 71.296875 
L 53.515625 59.28125 
L 48 59.28125 
Q 47.40625 64.203125 44.234375 66.796875 
Q 41.0625 69.390625 35.6875 69.390625 
Q 26.21875 69.390625 21.578125 62.203125 
Q 16.9375 55.03125 16.796875 40.140625 
z
" id="DejaVuSerif-54"/>
      </defs>
      <g style="fill:#262626;" transform="translate(24.69249 33.808103)scale(0.088 -0.088)">
       <use xlink:href="#DejaVuSerif-48"/>
       <use x="63.623047" xlink:href="#DejaVuSerif-46"/>
       <use x="95.410156" xlink:href="#DejaVuSerif-54"/>
      </g>
     </g>
    </g>
    <g id="text_7">
     <!-- Scaled Intensity -->
     <defs>
      <path d="M 9.28125 3.515625 
L 9.28125 20.125 
L 14.890625 20.0625 
Q 15.140625 11.765625 19.703125 7.78125 
Q 24.265625 3.8125 33.59375 3.8125 
Q 42.28125 3.8125 46.84375 7.25 
Q 51.421875 10.6875 51.421875 17.28125 
Q 51.421875 22.5625 48.65625 25.390625 
Q 45.90625 28.21875 37.015625 30.90625 
L 27.390625 33.796875 
Q 16.9375 36.96875 12.671875 41.703125 
Q 8.40625 46.4375 8.40625 54.6875 
Q 8.40625 63.96875 14.984375 69.09375 
Q 21.578125 74.21875 33.5 74.21875 
Q 38.578125 74.21875 44.625 73.109375 
Q 50.6875 72.015625 57.515625 69.921875 
L 57.515625 54.390625 
L 52 54.390625 
Q 51.171875 62.109375 46.84375 65.546875 
Q 42.53125 69 33.6875 69 
Q 25.984375 69 21.953125 65.84375 
Q 17.921875 62.703125 17.921875 56.6875 
Q 17.921875 51.46875 20.9375 48.484375 
Q 23.96875 45.515625 33.796875 42.578125 
L 42.828125 39.890625 
Q 52.734375 36.921875 56.953125 32.296875 
Q 61.1875 27.6875 61.1875 19.921875 
Q 61.1875 9.328125 54.390625 3.953125 
Q 47.609375 -1.421875 34.1875 -1.421875 
Q 28.171875 -1.421875 21.9375 -0.1875 
Q 15.71875 1.03125 9.28125 3.515625 
z
" id="DejaVuSerif-83"/>
      <path d="M 51.421875 15.578125 
Q 49.515625 7.28125 44.09375 2.921875 
Q 38.671875 -1.421875 30.078125 -1.421875 
Q 18.75 -1.421875 11.859375 6.078125 
Q 4.984375 13.578125 4.984375 25.984375 
Q 4.984375 38.421875 11.859375 45.875 
Q 18.75 53.328125 30.078125 53.328125 
Q 35.015625 53.328125 39.890625 52.171875 
Q 44.78125 51.03125 49.703125 48.6875 
L 49.703125 35.40625 
L 44.484375 35.40625 
Q 43.453125 42.234375 40.015625 45.359375 
Q 36.578125 48.484375 30.171875 48.484375 
Q 22.90625 48.484375 19.1875 42.84375 
Q 15.484375 37.203125 15.484375 25.984375 
Q 15.484375 14.75 19.171875 9.078125 
Q 22.859375 3.421875 30.171875 3.421875 
Q 35.984375 3.421875 39.453125 6.4375 
Q 42.921875 9.46875 44.1875 15.578125 
z
" id="DejaVuSerif-99"/>
      <path d="M 39.796875 16.3125 
L 39.796875 27.296875 
L 28.21875 27.296875 
Q 21.53125 27.296875 18.25 24.40625 
Q 14.984375 21.53125 14.984375 15.578125 
Q 14.984375 10.15625 18.296875 6.984375 
Q 21.625 3.8125 27.296875 3.8125 
Q 32.90625 3.8125 36.34375 7.28125 
Q 39.796875 10.75 39.796875 16.3125 
z
M 48.78125 32.421875 
L 48.78125 5.171875 
L 56.78125 5.171875 
L 56.78125 0 
L 39.796875 0 
L 39.796875 5.609375 
Q 36.8125 2 32.90625 0.28125 
Q 29 -1.421875 23.78125 -1.421875 
Q 15.140625 -1.421875 10.0625 3.171875 
Q 4.984375 7.765625 4.984375 15.578125 
Q 4.984375 23.640625 10.796875 28.078125 
Q 16.609375 32.515625 27.203125 32.515625 
L 39.796875 32.515625 
L 39.796875 36.078125 
Q 39.796875 42 36.203125 45.234375 
Q 32.625 48.484375 26.125 48.484375 
Q 20.75 48.484375 17.578125 46.046875 
Q 14.40625 43.609375 13.625 38.8125 
L 8.984375 38.8125 
L 8.984375 49.3125 
Q 13.671875 51.3125 18.09375 52.3125 
Q 22.515625 53.328125 26.703125 53.328125 
Q 37.5 53.328125 43.140625 47.96875 
Q 48.78125 42.625 48.78125 32.421875 
z
" id="DejaVuSerif-97"/>
      <path d="M 20.515625 5.171875 
L 29 5.171875 
L 29 0 
L 2.875 0 
L 2.875 5.171875 
L 11.53125 5.171875 
L 11.53125 70.796875 
L 2.875 70.796875 
L 2.875 75.984375 
L 20.515625 75.984375 
z
" id="DejaVuSerif-108"/>
      <path d="M 54.203125 25 
L 15.484375 25 
L 15.484375 24.609375 
Q 15.484375 14.109375 19.4375 8.765625 
Q 23.390625 3.421875 31.109375 3.421875 
Q 37.015625 3.421875 40.796875 6.515625 
Q 44.578125 9.625 46.09375 15.71875 
L 53.328125 15.71875 
Q 51.171875 7.171875 45.375 2.875 
Q 39.59375 -1.421875 30.171875 -1.421875 
Q 18.796875 -1.421875 11.890625 6.078125 
Q 4.984375 13.578125 4.984375 25.984375 
Q 4.984375 38.28125 11.765625 45.796875 
Q 18.5625 53.328125 29.59375 53.328125 
Q 41.359375 53.328125 47.65625 46.0625 
Q 53.953125 38.8125 54.203125 25 
z
M 43.609375 30.171875 
Q 43.3125 39.265625 39.765625 43.875 
Q 36.234375 48.484375 29.59375 48.484375 
Q 23.390625 48.484375 19.828125 43.84375 
Q 16.265625 39.203125 15.484375 30.171875 
z
" id="DejaVuSerif-101"/>
      <path d="M 52.484375 5.171875 
L 61.078125 5.171875 
L 61.078125 0 
L 43.5 0 
L 43.5 8.109375 
Q 40.875 3.21875 36.796875 0.890625 
Q 32.71875 -1.421875 26.703125 -1.421875 
Q 17.140625 -1.421875 11.0625 6.171875 
Q 4.984375 13.765625 4.984375 25.984375 
Q 4.984375 38.1875 11.03125 45.75 
Q 17.09375 53.328125 26.703125 53.328125 
Q 32.71875 53.328125 36.796875 51 
Q 40.875 48.6875 43.5 43.796875 
L 43.5 70.796875 
L 35.015625 70.796875 
L 35.015625 75.984375 
L 52.484375 75.984375 
z
M 43.5 23.390625 
L 43.5 28.515625 
Q 43.5 37.84375 39.90625 42.765625 
Q 36.328125 47.703125 29.5 47.703125 
Q 22.5625 47.703125 19.015625 42.234375 
Q 15.484375 36.765625 15.484375 25.984375 
Q 15.484375 15.234375 19.015625 9.71875 
Q 22.5625 4.203125 29.5 4.203125 
Q 36.328125 4.203125 39.90625 9.109375 
Q 43.5 14.015625 43.5 23.390625 
z
" id="DejaVuSerif-100"/>
      <path id="DejaVuSerif-32"/>
      <path d="M 24.703125 5.171875 
L 33.984375 5.171875 
L 33.984375 0 
L 5.515625 0 
L 5.515625 5.171875 
L 14.796875 5.171875 
L 14.796875 67.671875 
L 5.515625 67.671875 
L 5.515625 72.90625 
L 33.984375 72.90625 
L 33.984375 67.671875 
L 24.703125 67.671875 
z
" id="DejaVuSerif-73"/>
      <path d="M 4.109375 0 
L 4.109375 5.171875 
L 12.203125 5.171875 
L 12.203125 46.6875 
L 3.609375 46.6875 
L 3.609375 51.90625 
L 21.1875 51.90625 
L 21.1875 42.671875 
Q 23.6875 47.953125 27.65625 50.640625 
Q 31.640625 53.328125 36.921875 53.328125 
Q 45.515625 53.328125 49.5625 48.390625 
Q 53.609375 43.453125 53.609375 33.015625 
L 53.609375 5.171875 
L 61.625 5.171875 
L 61.625 0 
L 36.8125 0 
L 36.8125 5.171875 
L 44.578125 5.171875 
L 44.578125 30.171875 
Q 44.578125 39.703125 42.234375 43.234375 
Q 39.890625 46.78125 33.984375 46.78125 
Q 27.734375 46.78125 24.453125 42.203125 
Q 21.1875 37.640625 21.1875 28.90625 
L 21.1875 5.171875 
L 29 5.171875 
L 29 0 
z
" id="DejaVuSerif-110"/>
      <path d="M 10.796875 46.6875 
L 2.875 46.6875 
L 2.875 51.90625 
L 10.796875 51.90625 
L 10.796875 68.015625 
L 19.828125 68.015625 
L 19.828125 51.90625 
L 36.71875 51.90625 
L 36.71875 46.6875 
L 19.828125 46.6875 
L 19.828125 13.71875 
Q 19.828125 7.125 21.09375 5.265625 
Q 22.359375 3.421875 25.78125 3.421875 
Q 29.296875 3.421875 30.90625 5.484375 
Q 32.515625 7.5625 32.625 12.203125 
L 39.40625 12.203125 
Q 39.015625 5.125 35.546875 1.84375 
Q 32.078125 -1.421875 25 -1.421875 
Q 17.234375 -1.421875 14.015625 2.015625 
Q 10.796875 5.46875 10.796875 13.71875 
z
" id="DejaVuSerif-116"/>
      <path d="M 5.609375 2.875 
L 5.609375 14.984375 
L 10.796875 14.984375 
Q 10.984375 9.1875 14.421875 6.296875 
Q 17.875 3.421875 24.609375 3.421875 
Q 30.671875 3.421875 33.84375 5.6875 
Q 37.015625 7.953125 37.015625 12.3125 
Q 37.015625 15.71875 34.6875 17.8125 
Q 32.375 19.921875 24.90625 22.3125 
L 18.40625 24.515625 
Q 11.71875 26.65625 8.71875 29.875 
Q 5.71875 33.109375 5.71875 38.09375 
Q 5.71875 45.21875 10.9375 49.265625 
Q 16.15625 53.328125 25.390625 53.328125 
Q 29.5 53.328125 34.03125 52.25 
Q 38.578125 51.171875 43.40625 49.125 
L 43.40625 37.796875 
L 38.234375 37.796875 
Q 38.03125 42.828125 34.703125 45.65625 
Q 31.390625 48.484375 25.6875 48.484375 
Q 20.015625 48.484375 17.109375 46.484375 
Q 14.203125 44.484375 14.203125 40.484375 
Q 14.203125 37.203125 16.40625 35.21875 
Q 18.609375 33.25 25.203125 31.203125 
L 32.328125 29 
Q 39.703125 26.703125 42.9375 23.265625 
Q 46.1875 19.828125 46.1875 14.40625 
Q 46.1875 7.03125 40.546875 2.796875 
Q 34.90625 -1.421875 25 -1.421875 
Q 19.96875 -1.421875 15.1875 -0.34375 
Q 10.40625 0.734375 5.609375 2.875 
z
" id="DejaVuSerif-115"/>
      <path d="M 9.71875 68.015625 
Q 9.71875 70.265625 11.34375 71.921875 
Q 12.984375 73.578125 15.28125 73.578125 
Q 17.53125 73.578125 19.15625 71.921875 
Q 20.796875 70.265625 20.796875 68.015625 
Q 20.796875 65.71875 19.1875 64.109375 
Q 17.578125 62.5 15.28125 62.5 
Q 12.984375 62.5 11.34375 64.109375 
Q 9.71875 65.71875 9.71875 68.015625 
z
M 21.1875 5.171875 
L 29.6875 5.171875 
L 29.6875 0 
L 3.609375 0 
L 3.609375 5.171875 
L 12.203125 5.171875 
L 12.203125 46.6875 
L 3.609375 46.6875 
L 3.609375 51.90625 
L 21.1875 51.90625 
z
" id="DejaVuSerif-105"/>
      <path d="M 21.578125 -9.515625 
L 25 -0.875 
L 5.609375 46.6875 
L -0.296875 46.6875 
L -0.296875 51.90625 
L 23.578125 51.90625 
L 23.578125 46.6875 
L 15.28125 46.6875 
L 29.890625 10.984375 
L 44.484375 46.6875 
L 36.71875 46.6875 
L 36.71875 51.90625 
L 56.203125 51.90625 
L 56.203125 46.6875 
L 50.390625 46.6875 
L 26.609375 -11.71875 
Q 24.171875 -17.78125 21.1875 -20 
Q 18.21875 -22.21875 12.796875 -22.21875 
Q 10.5 -22.21875 8.078125 -21.828125 
Q 5.671875 -21.4375 3.21875 -20.703125 
L 3.21875 -10.796875 
L 7.8125 -10.796875 
Q 8.109375 -14.109375 9.5 -15.546875 
Q 10.890625 -17 13.8125 -17 
Q 16.5 -17 18.140625 -15.5 
Q 19.78125 -14.015625 21.578125 -9.515625 
z
" id="DejaVuSerif-121"/>
     </defs>
     <g style="fill:#262626;" transform="translate(11.185365 151.189434)rotate(-90)scale(0.096 -0.096)">
      <use xlink:href="#DejaVuSerif-83"/>
      <use x="68.505859" xlink:href="#DejaVuSerif-99"/>
      <use x="124.511719" xlink:href="#DejaVuSerif-97"/>
      <use x="184.130859" xlink:href="#DejaVuSerif-108"/>
      <use x="216.113281" xlink:href="#DejaVuSerif-101"/>
      <use x="275.292969" xlink:href="#DejaVuSerif-100"/>
      <use x="339.306641" xlink:href="#DejaVuSerif-32"/>
      <use x="371.09375" xlink:href="#DejaVuSerif-73"/>
      <use x="410.595703" xlink:href="#DejaVuSerif-110"/>
      <use x="475" xlink:href="#DejaVuSerif-116"/>
      <use x="515.185547" xlink:href="#DejaVuSerif-101"/>
      <use x="574.365234" xlink:href="#DejaVuSerif-110"/>
      <use x="638.769531" xlink:href="#DejaVuSerif-115"/>
      <use x="690.087891" xlink:href="#DejaVuSerif-105"/>
      <use x="722.070312" xlink:href="#DejaVuSerif-116"/>
      <use x="762.255859" xlink:href="#DejaVuSerif-121"/>
     </g>
    </g>
   </g>
   <g id="line2d_1">
    <path clip-path="url(#peb3237c926)" d="M 74.169627 121.595333 
L 79.499507 122.090954 
L 84.829387 105.734843 
L 90.159267 116.344745 
L 95.489147 111.934271 
L 100.819027 116.094732 
L 106.148906 113.564522 
L 111.478786 96.446038 
L 116.808666 102.259271 
L 122.138546 117.744513 
L 127.468426 117.215714 
L 132.798306 116.052166 
L 138.128186 118.239777 
L 143.458065 105.406527 
L 148.787945 100.625604 
L 154.117825 95.797726 
L 159.447705 93.891777 
L 164.777585 96.022783 
L 170.107465 95.153254 
L 175.437345 94.65908 
L 180.767224 93.586415 
L 186.097104 89.69447 
L 191.426984 89.937828 
L 196.756864 98.240159 
L 202.086744 92.376323 
L 207.416624 93.678386 
L 212.746504 85.162368 
L 218.076383 81.701688 
L 223.406263 84.62309 
L 228.736143 72.644315 
L 234.066023 79.874755 
L 239.395903 79.510512 
L 244.725783 80.967599 
L 250.055663 71.890781 
L 255.385542 69.368999 
L 260.715422 66.486947 
L 266.045302 66.228725 
L 271.375182 67.412831 
L 276.705062 58.161737 
L 282.034942 58.324033 
L 287.364822 61.00688 
L 292.694701 57.107085 
L 298.024581 56.706478 
L 303.354461 58.140309 
L 308.684341 58.144298 
L 314.014221 65.233714 
L 319.344101 61.14979 
L 324.673981 62.611602 
L 330.00386 66.736013 
L 335.33374 63.75817 
L 340.66362 72.904593 
L 345.9935 64.097989 
L 351.32338 57.91736 
L 356.65326 56.965012 
L 361.98314 58.654654 
L 367.313019 59.538561 
L 372.642899 62.820311 
L 377.972779 64.28848 
L 383.302659 64.390128 
L 388.632539 73.208931 
L 393.962419 66.856996 
L 399.292299 68.780244 
L 404.622178 71.575563 
L 409.952058 62.403776 
L 415.281938 58.148722 
L 420.611818 50.151101 
L 425.941698 49.481122 
L 431.271578 52.413358 
L 436.601458 49.08505 
L 441.931337 43.681506 
L 447.261217 47.81539 
L 452.591097 42.873136 
L 457.920977 45.285262 
L 463.250857 32.496699 
L 468.580737 31.793733 
L 473.910617 44.953867 
L 479.240496 36.654701 
L 484.570376 37.231843 
L 489.900256 33.484757 
L 495.230136 40.733618 
L 500.560016 42.120688 
L 505.889896 44.440643 
L 511.219776 37.896846 
L 516.549655 25.093338 
L 521.879535 38.164738 
L 527.209415 48.038099 
L 532.539295 38.442829 
L 537.869175 38.602202 
L 543.199055 33.895901 
L 548.528935 37.266213 
L 553.858814 38.132134 
L 559.188694 33.877008 
L 564.518574 44.608221 
L 569.848454 32.006326 
L 575.178334 37.864679 
L 580.508214 51.386833 
L 585.838094 36.431087 
L 591.167973 24.985099 
L 596.497853 25.349461 
L 601.827733 36.552901 
L 607.157613 45.439991 
L 612.487493 31.205736 
L 617.817373 26.430188 
" style="fill:none;stroke:#c8102e;stroke-linecap:round;stroke-width:1.2;"/>
   </g>
   <g id="line2d_2">
    <path clip-path="url(#peb3237c926)" d="M 74.169627 160.193803 
L 79.499507 159.586923 
L 84.829387 142.406734 
L 90.159267 145.70605 
L 95.489147 143.214213 
L 100.819027 143.981489 
L 106.148906 145.53934 
L 111.478786 131.925497 
L 116.808666 136.046894 
L 122.138546 149.395264 
L 127.468426 147.557299 
L 132.798306 146.170135 
L 138.128186 150.391879 
L 143.458065 138.539281 
L 148.787945 134.180872 
L 154.117825 127.113311 
L 159.447705 130.66083 
L 164.777585 127.514054 
L 170.107465 127.291545 
L 175.437345 124.241182 
L 180.767224 126.07689 
L 186.097104 122.728557 
L 191.426984 126.595703 
L 196.756864 135.010081 
L 202.086744 130.124648 
L 207.416624 129.935445 
L 212.746504 124.672318 
L 218.076383 120.334019 
L 223.406263 122.846053 
L 228.736143 112.576761 
L 234.066023 118.993765 
L 239.395903 118.902947 
L 244.725783 117.276919 
L 250.055663 113.796019 
L 255.385542 109.760189 
L 260.715422 109.439824 
L 266.045302 104.88206 
L 271.375182 107.455051 
L 276.705062 98.668262 
L 282.034942 99.996258 
L 287.364822 102.858991 
L 292.694701 97.853162 
L 298.024581 99.630849 
L 303.354461 98.492388 
L 308.684341 97.685704 
L 314.014221 102.520821 
L 319.344101 100.736601 
L 324.673981 102.117429 
L 330.00386 104.562856 
L 335.33374 102.88152 
L 340.66362 109.681666 
L 345.9935 104.042084 
L 351.32338 99.278478 
L 356.65326 95.975267 
L 361.98314 101.00531 
L 367.313019 100.254768 
L 372.642899 97.787329 
L 377.972779 102.372101 
L 383.302659 104.043977 
L 388.632539 113.773889 
L 393.962419 105.649878 
L 399.292299 110.083491 
L 404.622178 111.752672 
L 409.952058 103.881933 
L 415.281938 101.970668 
L 420.611818 93.019734 
L 425.941698 92.716604 
L 431.271578 94.343568 
L 436.601458 92.394078 
L 441.931337 89.423748 
L 447.261217 90.450537 
L 452.591097 87.276325 
L 457.920977 88.895391 
L 463.250857 81.988717 
L 468.580737 82.546785 
L 473.910617 91.526331 
L 479.240496 91.453267 
L 484.570376 90.661313 
L 489.900256 89.099213 
L 495.230136 93.151779 
L 500.560016 92.970375 
L 505.889896 97.6856 
L 511.219776 89.537824 
L 516.549655 79.763566 
L 521.879535 88.236963 
L 527.209415 93.214203 
L 532.539295 89.868581 
L 537.869175 86.899696 
L 543.199055 84.659428 
L 548.528935 85.537408 
L 553.858814 84.429193 
L 559.188694 81.419479 
L 564.518574 88.729454 
L 569.848454 77.886637 
L 575.178334 81.577251 
L 580.508214 93.730358 
L 585.838094 82.162319 
L 591.167973 75.504519 
L 596.497853 73.481263 
L 601.827733 86.847322 
L 607.157613 88.407023 
L 612.487493 76.127742 
L 617.817373 72.059917 
" style="fill:none;stroke:#00b388;stroke-linecap:round;stroke-width:1.2;"/>
   </g>
   <g id="line2d_3">
    <path clip-path="url(#peb3237c926)" d="M 74.169627 198.79227 
L 79.499507 197.082893 
L 84.829387 179.078623 
L 90.159267 175.067354 
L 95.489147 174.494153 
L 100.819027 171.868248 
L 106.148906 177.51416 
L 111.478786 167.404958 
L 116.808666 169.834517 
L 122.138546 181.046015 
L 127.468426 177.898886 
L 132.798306 176.288103 
L 138.128186 182.543983 
L 143.458065 171.672037 
L 148.787945 167.736138 
L 154.117825 158.428896 
L 159.447705 167.429886 
L 164.777585 159.005327 
L 170.107465 159.429836 
L 175.437345 153.823282 
L 180.767224 158.567365 
L 186.097104 155.762644 
L 191.426984 163.25358 
L 196.756864 171.780003 
L 202.086744 167.872973 
L 207.416624 166.192505 
L 212.746504 164.182269 
L 218.076383 158.966349 
L 223.406263 161.069015 
L 228.736143 152.509208 
L 234.066023 158.112772 
L 239.395903 158.295379 
L 244.725783 153.586241 
L 250.055663 155.701255 
L 255.385542 150.151381 
L 260.715422 152.392701 
L 266.045302 143.535395 
L 271.375182 147.497271 
L 276.705062 139.174787 
L 282.034942 141.668484 
L 287.364822 144.711105 
L 292.694701 138.599239 
L 298.024581 142.555223 
L 303.354461 138.844464 
L 308.684341 137.227107 
L 314.014221 139.807932 
L 319.344101 140.323412 
L 324.673981 141.623253 
L 330.00386 142.389697 
L 335.33374 142.004872 
L 340.66362 146.458742 
L 345.9935 143.986182 
L 351.32338 140.639593 
L 356.65326 134.985525 
L 361.98314 143.355963 
L 367.313019 140.970976 
L 372.642899 132.75435 
L 377.972779 140.455724 
L 383.302659 143.697826 
L 388.632539 154.338847 
L 393.962419 144.442762 
L 399.292299 151.386739 
L 404.622178 151.929783 
L 409.952058 145.360092 
L 415.281938 145.792612 
L 420.611818 135.888371 
L 425.941698 135.952087 
L 431.271578 136.273779 
L 436.601458 135.703105 
L 441.931337 135.165989 
L 447.261217 133.085685 
L 452.591097 131.679514 
L 457.920977 132.505515 
L 463.250857 131.48073 
L 468.580737 133.299837 
L 473.910617 138.098796 
L 479.240496 146.251832 
L 484.570376 144.090783 
L 489.900256 144.713663 
L 495.230136 145.569936 
L 500.560016 143.820063 
L 505.889896 150.930551 
L 511.219776 141.178807 
L 516.549655 134.433795 
L 521.879535 138.309192 
L 527.209415 138.390307 
L 532.539295 141.294327 
L 537.869175 135.197186 
L 543.199055 135.422959 
L 548.528935 133.808604 
L 553.858814 130.726251 
L 559.188694 128.961949 
L 564.518574 132.850688 
L 569.848454 123.766943 
L 575.178334 125.289824 
L 580.508214 136.073884 
L 585.838094 127.893546 
L 591.167973 126.023939 
L 596.497853 121.613071 
L 601.827733 137.141737 
L 607.157613 131.374057 
L 612.487493 121.049747 
L 617.817373 117.689651 
" style="fill:none;stroke:#f6be00;stroke-linecap:round;stroke-width:1.2;"/>
   </g>
   <g id="line2d_4"/>
   <g id="line2d_5"/>
   <g id="line2d_6"/>
   <g id="patch_3">
    <path d="M 46.98724 207.482629 
L 46.98724 16.29474 
" style="fill:none;stroke:#262626;stroke-linecap:square;stroke-linejoin:miter;"/>
   </g>
   <g id="patch_4">
    <path d="M 644.99976 207.482629 
L 644.99976 16.29474 
" style="fill:none;stroke:#262626;stroke-linecap:square;stroke-linejoin:miter;"/>
   </g>
   <g id="patch_5">
    <path d="M 46.98724 207.482629 
L 644.99976 207.482629 
" style="fill:none;stroke:#262626;stroke-linecap:square;stroke-linejoin:miter;"/>
   </g>
   <g id="patch_6">
    <path d="M 46.98724 16.29474 
L 644.99976 16.29474 
" style="fill:none;stroke:#262626;stroke-linecap:square;stroke-linejoin:miter;"/>
   </g>
   <g id="text_8">
    <!-- Gravel Generated Samples -->
    <defs>
     <path d="M 64.015625 51.125 
Q 62.3125 60.25 56.890625 64.625 
Q 51.46875 69 41.796875 69 
Q 29.203125 69 23 60.890625 
Q 16.796875 52.78125 16.796875 36.375 
Q 16.796875 20.3125 23.1875 12.0625 
Q 29.59375 3.8125 42 3.8125 
Q 47.515625 3.8125 52.53125 5.171875 
Q 57.5625 6.546875 62.109375 9.28125 
L 62.109375 28.078125 
L 48.390625 28.078125 
L 48.390625 33.296875 
L 72.015625 33.296875 
L 72.015625 6.109375 
Q 65.53125 2.34375 58.03125 0.453125 
Q 50.53125 -1.421875 42 -1.421875 
Q 25.484375 -1.421875 15.546875 8.90625 
Q 5.609375 19.234375 5.609375 36.375 
Q 5.609375 53.65625 15.5625 63.9375 
Q 25.53125 74.21875 42.390625 74.21875 
Q 48.640625 74.21875 55.296875 72.78125 
Q 61.96875 71.34375 69.484375 68.40625 
L 69.484375 51.125 
z
" id="DejaVuSerif-71"/>
     <path d="M 47.796875 52 
L 47.796875 39.015625 
L 42.625 39.015625 
Q 42.390625 42.875 40.484375 44.78125 
Q 38.578125 46.6875 34.90625 46.6875 
Q 28.265625 46.6875 24.71875 42.09375 
Q 21.1875 37.5 21.1875 28.90625 
L 21.1875 5.171875 
L 31.59375 5.171875 
L 31.59375 0 
L 4.109375 0 
L 4.109375 5.171875 
L 12.203125 5.171875 
L 12.203125 46.78125 
L 3.609375 46.78125 
L 3.609375 51.90625 
L 21.1875 51.90625 
L 21.1875 42.671875 
Q 23.828125 48.09375 27.96875 50.703125 
Q 32.125 53.328125 38.09375 53.328125 
Q 40.28125 53.328125 42.703125 52.984375 
Q 45.125 52.640625 47.796875 52 
z
" id="DejaVuSerif-114"/>
     <path d="M 24.703125 0 
L 5.609375 46.6875 
L -0.296875 46.6875 
L -0.296875 51.90625 
L 23.578125 51.90625 
L 23.578125 46.6875 
L 15.28125 46.6875 
L 29.890625 10.984375 
L 44.484375 46.6875 
L 36.71875 46.6875 
L 36.71875 51.90625 
L 56.203125 51.90625 
L 56.203125 46.6875 
L 50.390625 46.6875 
L 31.296875 0 
z
" id="DejaVuSerif-118"/>
     <path d="M 51.8125 41.796875 
Q 54.390625 47.515625 58.421875 50.421875 
Q 62.453125 53.328125 67.828125 53.328125 
Q 75.984375 53.328125 79.984375 48.265625 
Q 83.984375 43.21875 83.984375 33.015625 
L 83.984375 5.171875 
L 92.09375 5.171875 
L 92.09375 0 
L 67.1875 0 
L 67.1875 5.171875 
L 75 5.171875 
L 75 31.984375 
Q 75 39.9375 72.65625 43.3125 
Q 70.3125 46.6875 64.890625 46.6875 
Q 58.890625 46.6875 55.734375 42.140625 
Q 52.59375 37.59375 52.59375 28.90625 
L 52.59375 5.171875 
L 60.40625 5.171875 
L 60.40625 0 
L 35.796875 0 
L 35.796875 5.171875 
L 43.609375 5.171875 
L 43.609375 32.328125 
Q 43.609375 40.09375 41.265625 43.390625 
Q 38.921875 46.6875 33.5 46.6875 
Q 27.484375 46.6875 24.328125 42.140625 
Q 21.1875 37.59375 21.1875 28.90625 
L 21.1875 5.171875 
L 29 5.171875 
L 29 0 
L 4.109375 0 
L 4.109375 5.171875 
L 12.203125 5.171875 
L 12.203125 46.78125 
L 3.609375 46.78125 
L 3.609375 51.90625 
L 21.1875 51.90625 
L 21.1875 42.671875 
Q 23.6875 47.859375 27.53125 50.59375 
Q 31.390625 53.328125 36.28125 53.328125 
Q 42.328125 53.328125 46.375 50.3125 
Q 50.4375 47.3125 51.8125 41.796875 
z
" id="DejaVuSerif-109"/>
     <path d="M 20.515625 28.515625 
L 20.515625 23.390625 
Q 20.515625 14.015625 24.09375 9.109375 
Q 27.6875 4.203125 34.515625 4.203125 
Q 41.40625 4.203125 44.9375 9.71875 
Q 48.484375 15.234375 48.484375 25.984375 
Q 48.484375 36.765625 44.9375 42.234375 
Q 41.40625 47.703125 34.515625 47.703125 
Q 27.6875 47.703125 24.09375 42.765625 
Q 20.515625 37.84375 20.515625 28.515625 
z
M 11.53125 46.6875 
L 2.875 46.6875 
L 2.875 51.90625 
L 20.515625 51.90625 
L 20.515625 43.796875 
Q 23.140625 48.6875 27.21875 51 
Q 31.296875 53.328125 37.3125 53.328125 
Q 46.875 53.328125 52.921875 45.75 
Q 58.984375 38.1875 58.984375 25.984375 
Q 58.984375 13.765625 52.921875 6.171875 
Q 46.875 -1.421875 37.3125 -1.421875 
Q 31.296875 -1.421875 27.21875 0.890625 
Q 23.140625 3.21875 20.515625 8.109375 
L 20.515625 -15.578125 
L 29 -15.578125 
L 29 -20.796875 
L 2.875 -20.796875 
L 2.875 -15.578125 
L 11.53125 -15.578125 
z
" id="DejaVuSerif-112"/>
    </defs>
    <g style="fill:#262626;" transform="translate(280.64225 10.29474)scale(0.096 -0.096)">
     <use xlink:href="#DejaVuSerif-71"/>
     <use x="79.882812" xlink:href="#DejaVuSerif-114"/>
     <use x="127.685547" xlink:href="#DejaVuSerif-97"/>
     <use x="187.304688" xlink:href="#DejaVuSerif-118"/>
     <use x="243.798828" xlink:href="#DejaVuSerif-101"/>
     <use x="302.978516" xlink:href="#DejaVuSerif-108"/>
     <use x="334.960938" xlink:href="#DejaVuSerif-32"/>
     <use x="366.748047" xlink:href="#DejaVuSerif-71"/>
     <use x="446.630859" xlink:href="#DejaVuSerif-101"/>
     <use x="505.810547" xlink:href="#DejaVuSerif-110"/>
     <use x="570.214844" xlink:href="#DejaVuSerif-101"/>
     <use x="629.394531" xlink:href="#DejaVuSerif-114"/>
     <use x="677.197266" xlink:href="#DejaVuSerif-97"/>
     <use x="736.816406" xlink:href="#DejaVuSerif-116"/>
     <use x="777.001953" xlink:href="#DejaVuSerif-101"/>
     <use x="836.181641" xlink:href="#DejaVuSerif-100"/>
     <use x="900.195312" xlink:href="#DejaVuSerif-32"/>
     <use x="931.982422" xlink:href="#DejaVuSerif-83"/>
     <use x="1000.488281" xlink:href="#DejaVuSerif-97"/>
     <use x="1060.107422" xlink:href="#DejaVuSerif-109"/>
     <use x="1154.931641" xlink:href="#DejaVuSerif-112"/>
     <use x="1218.945312" xlink:href="#DejaVuSerif-108"/>
     <use x="1250.927734" xlink:href="#DejaVuSerif-101"/>
     <use x="1310.107422" xlink:href="#DejaVuSerif-115"/>
    </g>
   </g>
  </g>
  <g id="axes_2">
   <g id="legend_1">
    <g id="line2d_7">
     <path d="M 156.355562 226.151535 
L 173.955562 226.151535 
" style="fill:none;stroke:#c8102e;stroke-linecap:round;stroke-width:1.2;"/>
    </g>
    <g id="line2d_8"/>
    <g id="text_9">
     <!-- Mean + Standard Deviation -->
     <defs>
      <path d="M 5.515625 0 
L 5.515625 5.171875 
L 14.796875 5.171875 
L 14.796875 67.671875 
L 4.984375 67.671875 
L 4.984375 72.90625 
L 26.21875 72.90625 
L 51.8125 21 
L 77.390625 72.90625 
L 97.3125 72.90625 
L 97.3125 67.671875 
L 87.59375 67.671875 
L 87.59375 5.171875 
L 96.921875 5.171875 
L 96.921875 0 
L 68.40625 0 
L 68.40625 5.171875 
L 77.6875 5.171875 
L 77.6875 61.53125 
L 52.6875 10.6875 
L 45.796875 10.6875 
L 20.796875 61.53125 
L 20.796875 5.171875 
L 30.078125 5.171875 
L 30.078125 0 
z
" id="DejaVuSerif-77"/>
      <path d="M 45.796875 62.703125 
L 45.796875 35.296875 
L 73.1875 35.296875 
L 73.1875 27.390625 
L 45.796875 27.390625 
L 45.796875 0 
L 37.984375 0 
L 37.984375 27.390625 
L 10.59375 27.390625 
L 10.59375 35.296875 
L 37.984375 35.296875 
L 37.984375 62.703125 
z
" id="DejaVuSerif-43"/>
      <path d="M 24.703125 5.171875 
L 33.796875 5.171875 
Q 48 5.171875 55.59375 13.28125 
Q 63.1875 21.390625 63.1875 36.53125 
Q 63.1875 51.65625 55.609375 59.65625 
Q 48.046875 67.671875 33.796875 67.671875 
L 24.703125 67.671875 
z
M 5.515625 0 
L 5.515625 5.171875 
L 14.796875 5.171875 
L 14.796875 67.671875 
L 5.515625 67.671875 
L 5.515625 72.90625 
L 34.515625 72.90625 
Q 53.375 72.90625 63.890625 63.28125 
Q 74.421875 53.65625 74.421875 36.53125 
Q 74.421875 19.34375 63.875 9.671875 
Q 53.328125 0 34.515625 0 
z
" id="DejaVuSerif-68"/>
      <path d="M 30.078125 3.421875 
Q 37.3125 3.421875 40.984375 9.125 
Q 44.671875 14.84375 44.671875 25.984375 
Q 44.671875 37.109375 40.984375 42.796875 
Q 37.3125 48.484375 30.078125 48.484375 
Q 22.859375 48.484375 19.171875 42.796875 
Q 15.484375 37.109375 15.484375 25.984375 
Q 15.484375 14.84375 19.1875 9.125 
Q 22.90625 3.421875 30.078125 3.421875 
z
M 30.078125 -1.421875 
Q 18.75 -1.421875 11.859375 6.078125 
Q 4.984375 13.578125 4.984375 25.984375 
Q 4.984375 38.375 11.84375 45.84375 
Q 18.703125 53.328125 30.078125 53.328125 
Q 41.453125 53.328125 48.3125 45.84375 
Q 55.171875 38.375 55.171875 25.984375 
Q 55.171875 13.578125 48.3125 6.078125 
Q 41.453125 -1.421875 30.078125 -1.421875 
z
" id="DejaVuSerif-111"/>
     </defs>
     <g style="fill:#262626;" transform="translate(180.995563 229.231535)scale(0.088 -0.088)">
      <use xlink:href="#DejaVuSerif-77"/>
      <use x="102.392578" xlink:href="#DejaVuSerif-101"/>
      <use x="161.572266" xlink:href="#DejaVuSerif-97"/>
      <use x="221.191406" xlink:href="#DejaVuSerif-110"/>
      <use x="285.595703" xlink:href="#DejaVuSerif-32"/>
      <use x="317.382812" xlink:href="#DejaVuSerif-43"/>
      <use x="401.171875" xlink:href="#DejaVuSerif-32"/>
      <use x="432.958984" xlink:href="#DejaVuSerif-83"/>
      <use x="501.464844" xlink:href="#DejaVuSerif-116"/>
      <use x="541.650391" xlink:href="#DejaVuSerif-97"/>
      <use x="601.269531" xlink:href="#DejaVuSerif-110"/>
      <use x="665.673828" xlink:href="#DejaVuSerif-100"/>
      <use x="729.6875" xlink:href="#DejaVuSerif-97"/>
      <use x="789.306641" xlink:href="#DejaVuSerif-114"/>
      <use x="837.109375" xlink:href="#DejaVuSerif-100"/>
      <use x="901.123047" xlink:href="#DejaVuSerif-32"/>
      <use x="932.910156" xlink:href="#DejaVuSerif-68"/>
      <use x="1013.085938" xlink:href="#DejaVuSerif-101"/>
      <use x="1072.265625" xlink:href="#DejaVuSerif-118"/>
      <use x="1128.759766" xlink:href="#DejaVuSerif-105"/>
      <use x="1160.742188" xlink:href="#DejaVuSerif-97"/>
      <use x="1220.361328" xlink:href="#DejaVuSerif-116"/>
      <use x="1260.546875" xlink:href="#DejaVuSerif-105"/>
      <use x="1292.529297" xlink:href="#DejaVuSerif-111"/>
      <use x="1352.734375" xlink:href="#DejaVuSerif-110"/>
     </g>
    </g>
    <g id="line2d_9">
     <path d="M 323.306687 226.151535 
L 340.906687 226.151535 
" style="fill:none;stroke:#00b388;stroke-linecap:round;stroke-width:1.2;"/>
    </g>
    <g id="line2d_10"/>
    <g id="text_10">
     <!-- Mean -->
     <g style="fill:#262626;" transform="translate(347.946687 229.231535)scale(0.088 -0.088)">
      <use xlink:href="#DejaVuSerif-77"/>
      <use x="102.392578" xlink:href="#DejaVuSerif-101"/>
      <use x="161.572266" xlink:href="#DejaVuSerif-97"/>
      <use x="221.191406" xlink:href="#DejaVuSerif-110"/>
     </g>
    </g>
    <g id="line2d_11">
     <path d="M 390.680313 226.151535 
L 408.280313 226.151535 
" style="fill:none;stroke:#f6be00;stroke-linecap:round;stroke-width:1.2;"/>
    </g>
    <g id="line2d_12"/>
    <g id="text_11">
     <!-- Mean - Standard Deviation -->
     <defs>
      <path d="M 4.390625 30.609375 
L 29.390625 30.609375 
L 29.390625 23 
L 4.390625 23 
z
" id="DejaVuSerif-45"/>
     </defs>
     <g style="fill:#262626;" transform="translate(415.320312 229.231535)scale(0.088 -0.088)">
      <use xlink:href="#DejaVuSerif-77"/>
      <use x="102.392578" xlink:href="#DejaVuSerif-101"/>
      <use x="161.572266" xlink:href="#DejaVuSerif-97"/>
      <use x="221.191406" xlink:href="#DejaVuSerif-110"/>
      <use x="285.595703" xlink:href="#DejaVuSerif-32"/>
      <use x="317.382812" xlink:href="#DejaVuSerif-45"/>
      <use x="351.171875" xlink:href="#DejaVuSerif-32"/>
      <use x="382.958984" xlink:href="#DejaVuSerif-83"/>
      <use x="451.464844" xlink:href="#DejaVuSerif-116"/>
      <use x="491.650391" xlink:href="#DejaVuSerif-97"/>
      <use x="551.269531" xlink:href="#DejaVuSerif-110"/>
      <use x="615.673828" xlink:href="#DejaVuSerif-100"/>
      <use x="679.6875" xlink:href="#DejaVuSerif-97"/>
      <use x="739.306641" xlink:href="#DejaVuSerif-114"/>
      <use x="787.109375" xlink:href="#DejaVuSerif-100"/>
      <use x="851.123047" xlink:href="#DejaVuSerif-32"/>
      <use x="882.910156" xlink:href="#DejaVuSerif-68"/>
      <use x="963.085938" xlink:href="#DejaVuSerif-101"/>
      <use x="1022.265625" xlink:href="#DejaVuSerif-118"/>
      <use x="1078.759766" xlink:href="#DejaVuSerif-105"/>
      <use x="1110.742188" xlink:href="#DejaVuSerif-97"/>
      <use x="1170.361328" xlink:href="#DejaVuSerif-116"/>
      <use x="1210.546875" xlink:href="#DejaVuSerif-105"/>
      <use x="1242.529297" xlink:href="#DejaVuSerif-111"/>
      <use x="1302.734375" xlink:href="#DejaVuSerif-110"/>
     </g>
    </g>
   </g>
  </g>
  <g id="axes_3">
   <g id="patch_7">
    <path d="M 46.98724 434.89201 
L 644.99976 434.89201 
L 644.99976 243.704121 
L 46.98724 243.704121 
z
" style="fill:#ffffff;"/>
   </g>
   <g id="matplotlib.axis_3">
    <g id="xtick_1">
     <g id="text_12">
      <!-- 0 -->
      <g style="fill:#262626;" transform="translate(71.370127 449.878635)scale(0.088 -0.088)">
       <use xlink:href="#DejaVuSerif-48"/>
      </g>
     </g>
    </g>
    <g id="xtick_2">
     <g id="text_13">
      <!-- 20 -->
      <g style="fill:#262626;" transform="translate(175.168224 449.878635)scale(0.088 -0.088)">
       <use xlink:href="#DejaVuSerif-50"/>
       <use x="63.623047" xlink:href="#DejaVuSerif-48"/>
      </g>
     </g>
    </g>
    <g id="xtick_3">
     <g id="text_14">
      <!-- 40 -->
      <g style="fill:#262626;" transform="translate(281.765822 449.878635)scale(0.088 -0.088)">
       <use xlink:href="#DejaVuSerif-52"/>
       <use x="63.623047" xlink:href="#DejaVuSerif-48"/>
      </g>
     </g>
    </g>
    <g id="xtick_4">
     <g id="text_15">
      <!-- 60 -->
      <g style="fill:#262626;" transform="translate(388.363419 449.878635)scale(0.088 -0.088)">
       <use xlink:href="#DejaVuSerif-54"/>
       <use x="63.623047" xlink:href="#DejaVuSerif-48"/>
      </g>
     </g>
    </g>
    <g id="xtick_5">
     <g id="text_16">
      <!-- 80 -->
      <defs>
       <path d="M 46.578125 19.921875 
Q 46.578125 27.734375 42.6875 32.046875 
Q 38.8125 36.375 31.78125 36.375 
Q 24.75 36.375 20.875 32.046875 
Q 17 27.734375 17 19.921875 
Q 17 12.0625 20.875 7.734375 
Q 24.75 3.421875 31.78125 3.421875 
Q 38.8125 3.421875 42.6875 7.734375 
Q 46.578125 12.0625 46.578125 19.921875 
z
M 44.578125 55.328125 
Q 44.578125 61.96875 41.203125 65.671875 
Q 37.84375 69.390625 31.78125 69.390625 
Q 25.78125 69.390625 22.390625 65.671875 
Q 19 61.96875 19 55.328125 
Q 19 48.640625 22.390625 44.921875 
Q 25.78125 41.21875 31.78125 41.21875 
Q 37.84375 41.21875 41.203125 44.921875 
Q 44.578125 48.640625 44.578125 55.328125 
z
M 39.3125 38.8125 
Q 47.609375 37.703125 52.25 32.6875 
Q 56.890625 27.6875 56.890625 19.921875 
Q 56.890625 9.671875 50.390625 4.125 
Q 43.890625 -1.421875 31.78125 -1.421875 
Q 19.734375 -1.421875 13.203125 4.125 
Q 6.6875 9.671875 6.6875 19.921875 
Q 6.6875 27.6875 11.328125 32.6875 
Q 15.96875 37.703125 24.3125 38.8125 
Q 16.9375 40.140625 13 44.40625 
Q 9.078125 48.6875 9.078125 55.328125 
Q 9.078125 64.109375 15.125 69.15625 
Q 21.1875 74.21875 31.78125 74.21875 
Q 42.390625 74.21875 48.4375 69.15625 
Q 54.5 64.109375 54.5 55.328125 
Q 54.5 48.6875 50.5625 44.40625 
Q 46.625 40.140625 39.3125 38.8125 
z
" id="DejaVuSerif-56"/>
      </defs>
      <g style="fill:#262626;" transform="translate(494.961016 449.878635)scale(0.088 -0.088)">
       <use xlink:href="#DejaVuSerif-56"/>
       <use x="63.623047" xlink:href="#DejaVuSerif-48"/>
      </g>
     </g>
    </g>
    <g id="xtick_6">
     <g id="text_17">
      <!-- 100 -->
      <defs>
       <path d="M 14.203125 0 
L 14.203125 5.171875 
L 26.90625 5.171875 
L 26.90625 65.828125 
L 12.203125 56.296875 
L 12.203125 62.703125 
L 29.984375 74.21875 
L 36.71875 74.21875 
L 36.71875 5.171875 
L 49.421875 5.171875 
L 49.421875 0 
z
" id="DejaVuSerif-49"/>
      </defs>
      <g style="fill:#262626;" transform="translate(598.759113 449.878635)scale(0.088 -0.088)">
       <use xlink:href="#DejaVuSerif-49"/>
       <use x="63.623047" xlink:href="#DejaVuSerif-48"/>
       <use x="127.246094" xlink:href="#DejaVuSerif-48"/>
      </g>
     </g>
    </g>
    <g id="text_18">
     <!-- Spectral Band -->
     <defs>
      <path d="M 24.703125 5.171875 
L 39.3125 5.171875 
Q 48.09375 5.171875 52.140625 8.984375 
Q 56.203125 12.796875 56.203125 21.09375 
Q 56.203125 29.34375 52.171875 33.125 
Q 48.140625 36.921875 39.3125 36.921875 
L 24.703125 36.921875 
z
M 24.703125 42.09375 
L 37.109375 42.09375 
Q 45.125 42.09375 48.796875 45.171875 
Q 52.484375 48.25 52.484375 54.890625 
Q 52.484375 61.578125 48.796875 64.625 
Q 45.125 67.671875 37.109375 67.671875 
L 24.703125 67.671875 
z
M 5.515625 0 
L 5.515625 5.171875 
L 14.796875 5.171875 
L 14.796875 67.671875 
L 5.515625 67.671875 
L 5.515625 72.90625 
L 41.5 72.90625 
Q 52.546875 72.90625 58.125 68.390625 
Q 63.71875 63.875 63.71875 54.890625 
Q 63.71875 48.390625 59.828125 44.53125 
Q 55.953125 40.671875 48.484375 39.796875 
Q 57.765625 38.625 62.578125 33.859375 
Q 67.390625 29.109375 67.390625 21.09375 
Q 67.390625 10.25 60.546875 5.125 
Q 53.71875 0 39.203125 0 
z
" id="DejaVuSerif-66"/>
     </defs>
     <g style="fill:#262626;" transform="translate(311.40425 463.00326)scale(0.096 -0.096)">
      <use xlink:href="#DejaVuSerif-83"/>
      <use x="68.505859" xlink:href="#DejaVuSerif-112"/>
      <use x="132.519531" xlink:href="#DejaVuSerif-101"/>
      <use x="191.699219" xlink:href="#DejaVuSerif-99"/>
      <use x="247.705078" xlink:href="#DejaVuSerif-116"/>
      <use x="287.890625" xlink:href="#DejaVuSerif-114"/>
      <use x="335.693359" xlink:href="#DejaVuSerif-97"/>
      <use x="395.3125" xlink:href="#DejaVuSerif-108"/>
      <use x="427.294922" xlink:href="#DejaVuSerif-32"/>
      <use x="459.082031" xlink:href="#DejaVuSerif-66"/>
      <use x="532.568359" xlink:href="#DejaVuSerif-97"/>
      <use x="592.1875" xlink:href="#DejaVuSerif-110"/>
      <use x="656.591797" xlink:href="#DejaVuSerif-100"/>
     </g>
    </g>
   </g>
   <g id="matplotlib.axis_4">
    <g id="ytick_7">
     <g id="text_19">
      <!-- 1000 -->
      <g style="fill:#262626;" transform="translate(16.29124 427.143738)scale(0.088 -0.088)">
       <use xlink:href="#DejaVuSerif-49"/>
       <use x="63.623047" xlink:href="#DejaVuSerif-48"/>
       <use x="127.246094" xlink:href="#DejaVuSerif-48"/>
       <use x="190.869141" xlink:href="#DejaVuSerif-48"/>
      </g>
     </g>
    </g>
    <g id="ytick_8">
     <g id="text_20">
      <!-- 1200 -->
      <g style="fill:#262626;" transform="translate(16.29124 396.871975)scale(0.088 -0.088)">
       <use xlink:href="#DejaVuSerif-49"/>
       <use x="63.623047" xlink:href="#DejaVuSerif-50"/>
       <use x="127.246094" xlink:href="#DejaVuSerif-48"/>
       <use x="190.869141" xlink:href="#DejaVuSerif-48"/>
      </g>
     </g>
    </g>
    <g id="ytick_9">
     <g id="text_21">
      <!-- 1400 -->
      <g style="fill:#262626;" transform="translate(16.29124 366.600212)scale(0.088 -0.088)">
       <use xlink:href="#DejaVuSerif-49"/>
       <use x="63.623047" xlink:href="#DejaVuSerif-52"/>
       <use x="127.246094" xlink:href="#DejaVuSerif-48"/>
       <use x="190.869141" xlink:href="#DejaVuSerif-48"/>
      </g>
     </g>
    </g>
    <g id="ytick_10">
     <g id="text_22">
      <!-- 1600 -->
      <g style="fill:#262626;" transform="translate(16.29124 336.328449)scale(0.088 -0.088)">
       <use xlink:href="#DejaVuSerif-49"/>
       <use x="63.623047" xlink:href="#DejaVuSerif-54"/>
       <use x="127.246094" xlink:href="#DejaVuSerif-48"/>
       <use x="190.869141" xlink:href="#DejaVuSerif-48"/>
      </g>
     </g>
    </g>
    <g id="ytick_11">
     <g id="text_23">
      <!-- 1800 -->
      <g style="fill:#262626;" transform="translate(16.29124 306.056686)scale(0.088 -0.088)">
       <use xlink:href="#DejaVuSerif-49"/>
       <use x="63.623047" xlink:href="#DejaVuSerif-56"/>
       <use x="127.246094" xlink:href="#DejaVuSerif-48"/>
       <use x="190.869141" xlink:href="#DejaVuSerif-48"/>
      </g>
     </g>
    </g>
    <g id="ytick_12">
     <g id="text_24">
      <!-- 2000 -->
      <g style="fill:#262626;" transform="translate(16.29124 275.784923)scale(0.088 -0.088)">
       <use xlink:href="#DejaVuSerif-50"/>
       <use x="63.623047" xlink:href="#DejaVuSerif-48"/>
       <use x="127.246094" xlink:href="#DejaVuSerif-48"/>
       <use x="190.869141" xlink:href="#DejaVuSerif-48"/>
      </g>
     </g>
    </g>
    <g id="text_25">
     <!-- Intensity -->
     <g style="fill:#262626;" transform="translate(10.15824 360.786316)rotate(-90)scale(0.096 -0.096)">
      <use xlink:href="#DejaVuSerif-73"/>
      <use x="39.501953" xlink:href="#DejaVuSerif-110"/>
      <use x="103.90625" xlink:href="#DejaVuSerif-116"/>
      <use x="144.091797" xlink:href="#DejaVuSerif-101"/>
      <use x="203.271484" xlink:href="#DejaVuSerif-110"/>
      <use x="267.675781" xlink:href="#DejaVuSerif-115"/>
      <use x="318.994141" xlink:href="#DejaVuSerif-105"/>
      <use x="350.976562" xlink:href="#DejaVuSerif-116"/>
      <use x="391.162109" xlink:href="#DejaVuSerif-121"/>
     </g>
    </g>
   </g>
   <g id="line2d_13">
    <path clip-path="url(#pcb6099b7ed)" d="M 74.169627 342.435184 
L 79.499507 351.208041 
L 84.829387 358.999434 
L 90.159267 356.296477 
L 95.489147 352.462339 
L 100.819027 352.433302 
L 106.148906 351.731993 
L 111.478786 353.605529 
L 116.808666 355.131873 
L 122.138546 353.380197 
L 127.468426 350.306163 
L 132.798306 351.076059 
L 138.128186 351.057195 
L 143.458065 350.006945 
L 148.787945 347.247035 
L 154.117825 345.146396 
L 159.447705 342.771558 
L 164.777585 340.521581 
L 170.107465 337.923076 
L 175.437345 334.884653 
L 180.767224 332.778529 
L 186.097104 329.953082 
L 191.426984 325.70687 
L 196.756864 322.467169 
L 202.086744 318.684926 
L 207.416624 313.251978 
L 212.746504 310.505301 
L 218.076383 309.163489 
L 223.406263 306.800331 
L 228.736143 302.79962 
L 234.066023 298.800649 
L 239.395903 296.265143 
L 244.725783 293.893565 
L 250.055663 289.930276 
L 255.385542 286.143722 
L 260.715422 282.669807 
L 266.045302 280.080154 
L 271.375182 277.885794 
L 276.705062 277.193792 
L 282.034942 277.245332 
L 287.364822 275.577319 
L 292.694701 274.11266 
L 298.024581 273.168822 
L 303.354461 272.583549 
L 308.684341 272.10928 
L 314.014221 271.315424 
L 319.344101 270.721803 
L 324.673981 271.024475 
L 330.00386 271.143852 
L 335.33374 272.259367 
L 340.66362 270.549595 
L 345.9935 268.504225 
L 351.32338 268.378256 
L 356.65326 268.611718 
L 361.98314 269.49895 
L 367.313019 269.839782 
L 372.642899 268.617017 
L 377.972779 265.751143 
L 383.302659 265.058774 
L 388.632539 266.556661 
L 393.962419 266.723595 
L 399.292299 265.98865 
L 404.622178 265.88812 
L 409.952058 267.707761 
L 415.281938 269.222762 
L 420.611818 266.463264 
L 425.941698 263.149714 
L 431.271578 262.247519 
L 436.601458 259.665255 
L 441.931337 258.939942 
L 447.261217 261.59976 
L 452.591097 266.420501 
L 457.920977 267.619964 
L 463.250857 264.400401 
L 468.580737 261.417889 
L 473.910617 257.247565 
L 479.240496 255.881716 
L 484.570376 255.924414 
L 489.900256 256.5021 
L 495.230136 257.308638 
L 500.560016 258.407478 
L 505.889896 264.494698 
L 511.219776 273.933325 
L 516.549655 268.623439 
L 521.879535 252.39448 
L 527.209415 252.822899 
L 532.539295 257.695765 
L 537.869175 261.130478 
L 543.199055 263.160787 
L 548.528935 263.424597 
L 553.858814 261.99282 
L 559.188694 262.290435 
L 564.518574 264.270022 
L 569.848454 264.675823 
L 575.178334 266.235399 
L 580.508214 271.344896 
L 585.838094 274.399178 
L 591.167973 271.698557 
L 596.497853 270.947505 
L 601.827733 273.412941 
L 607.157613 274.175018 
L 612.487493 269.845424 
L 617.817373 267.584775 
" style="fill:none;stroke:#c8102e;stroke-linecap:round;stroke-width:1.2;"/>
   </g>
   <g id="line2d_14">
    <path clip-path="url(#pcb6099b7ed)" d="M 74.169627 384.318418 
L 79.499507 385.091292 
L 84.829387 387.770971 
L 90.159267 383.735841 
L 95.489147 379.652542 
L 100.819027 379.756092 
L 106.148906 379.134865 
L 111.478786 380.779621 
L 116.808666 381.94636 
L 122.138546 380.246801 
L 127.468426 377.455135 
L 132.798306 378.343314 
L 138.128186 378.593463 
L 143.458065 377.635555 
L 148.787945 375.061157 
L 154.117825 373.276363 
L 159.447705 371.160801 
L 164.777585 368.933036 
L 170.107465 366.176921 
L 175.437345 363.225316 
L 180.767224 361.307479 
L 186.097104 358.600471 
L 191.426984 354.536642 
L 196.756864 351.4768 
L 202.086744 348.048332 
L 207.416624 343.105121 
L 212.746504 340.644297 
L 218.076383 339.435517 
L 223.406263 337.157131 
L 228.736143 333.546297 
L 234.066023 329.9576 
L 239.395903 327.709067 
L 244.725783 325.636699 
L 250.055663 322.127756 
L 255.385542 318.776229 
L 260.715422 315.64608 
L 266.045302 313.320533 
L 271.375182 311.357772 
L 276.705062 310.772888 
L 282.034942 310.820986 
L 287.364822 309.30884 
L 292.694701 307.928871 
L 298.024581 307.047111 
L 303.354461 306.515155 
L 308.684341 306.010746 
L 314.014221 305.234987 
L 319.344101 304.767931 
L 324.673981 305.062572 
L 330.00386 305.166627 
L 335.33374 306.181647 
L 340.66362 304.628038 
L 345.9935 302.720513 
L 351.32338 302.717196 
L 356.65326 303.022149 
L 361.98314 303.893165 
L 367.313019 304.156366 
L 372.642899 303.03722 
L 377.972779 300.561252 
L 383.302659 300.039536 
L 388.632539 301.366432 
L 393.962419 301.431042 
L 399.292299 300.813925 
L 404.622178 300.76965 
L 409.952058 302.420679 
L 415.281938 303.604292 
L 420.611818 300.906298 
L 425.941698 297.930392 
L 431.271578 297.1617 
L 436.601458 294.78373 
L 441.931337 293.994558 
L 447.261217 296.317508 
L 452.591097 300.413427 
L 457.920977 301.02564 
L 463.250857 297.966735 
L 468.580737 295.257708 
L 473.910617 291.566111 
L 479.240496 290.416822 
L 484.570376 290.451796 
L 489.900256 291.036463 
L 495.230136 291.75302 
L 500.560016 292.607451 
L 505.889896 297.804993 
L 511.219776 305.753386 
L 516.549655 299.987545 
L 521.879535 286.066716 
L 527.209415 287.065728 
L 532.539295 291.622357 
L 537.869175 294.565525 
L 543.199055 296.166078 
L 548.528935 296.455599 
L 553.858814 295.184372 
L 559.188694 295.503748 
L 564.518574 297.105959 
L 569.848454 297.342624 
L 575.178334 298.773069 
L 580.508214 303.075943 
L 585.838094 305.295632 
L 591.167973 302.596916 
L 596.497853 301.652131 
L 601.827733 303.677484 
L 607.157613 304.762739 
L 612.487493 301.682706 
L 617.817373 300.247141 
" style="fill:none;stroke:#00b388;stroke-linecap:round;stroke-width:1.2;"/>
   </g>
   <g id="line2d_15">
    <path clip-path="url(#pcb6099b7ed)" d="M 74.169627 426.201651 
L 79.499507 418.974543 
L 84.829387 416.542508 
L 90.159267 411.175206 
L 95.489147 406.842745 
L 100.819027 407.078883 
L 106.148906 406.537737 
L 111.478786 407.953714 
L 116.808666 408.760847 
L 122.138546 407.113404 
L 127.468426 404.604108 
L 132.798306 405.610569 
L 138.128186 406.129731 
L 143.458065 405.264165 
L 148.787945 402.875278 
L 154.117825 401.40633 
L 159.447705 399.550044 
L 164.777585 397.34449 
L 170.107465 394.430765 
L 175.437345 391.565978 
L 180.767224 389.836429 
L 186.097104 387.24786 
L 191.426984 383.366414 
L 196.756864 380.48643 
L 202.086744 377.411737 
L 207.416624 372.958264 
L 212.746504 370.783292 
L 218.076383 369.707546 
L 223.406263 367.513931 
L 228.736143 364.292974 
L 234.066023 361.114551 
L 239.395903 359.152992 
L 244.725783 357.379833 
L 250.055663 354.325236 
L 255.385542 351.408736 
L 260.715422 348.622352 
L 266.045302 346.560913 
L 271.375182 344.829751 
L 276.705062 344.351985 
L 282.034942 344.396639 
L 287.364822 343.04036 
L 292.694701 341.745082 
L 298.024581 340.9254 
L 303.354461 340.446762 
L 308.684341 339.912212 
L 314.014221 339.15455 
L 319.344101 338.814059 
L 324.673981 339.100669 
L 330.00386 339.189401 
L 335.33374 340.103927 
L 340.66362 338.70648 
L 345.9935 336.936801 
L 351.32338 337.056136 
L 356.65326 337.43258 
L 361.98314 338.28738 
L 367.313019 338.472951 
L 372.642899 337.457422 
L 377.972779 335.371361 
L 383.302659 335.020298 
L 388.632539 336.176202 
L 393.962419 336.138489 
L 399.292299 335.639201 
L 404.622178 335.65118 
L 409.952058 337.133598 
L 415.281938 337.985822 
L 420.611818 335.349333 
L 425.941698 332.711071 
L 431.271578 332.07588 
L 436.601458 329.902204 
L 441.931337 329.049174 
L 447.261217 331.035257 
L 452.591097 334.406352 
L 457.920977 334.431317 
L 463.250857 331.533069 
L 468.580737 329.097528 
L 473.910617 325.884657 
L 479.240496 324.951928 
L 484.570376 324.979177 
L 489.900256 325.570826 
L 495.230136 326.197401 
L 500.560016 326.807424 
L 505.889896 331.115287 
L 511.219776 337.573446 
L 516.549655 331.351652 
L 521.879535 319.738953 
L 527.209415 321.308557 
L 532.539295 325.548948 
L 537.869175 328.000571 
L 543.199055 329.171368 
L 548.528935 329.486601 
L 553.858814 328.375925 
L 559.188694 328.71706 
L 564.518574 329.941896 
L 569.848454 330.009425 
L 575.178334 331.310739 
L 580.508214 334.806989 
L 585.838094 336.192086 
L 591.167973 333.495276 
L 596.497853 332.356758 
L 601.827733 333.942027 
L 607.157613 335.35046 
L 612.487493 333.519988 
L 617.817373 332.909507 
" style="fill:none;stroke:#f6be00;stroke-linecap:round;stroke-width:1.2;"/>
   </g>
   <g id="patch_8">
    <path d="M 46.98724 434.89201 
L 46.98724 243.704121 
" style="fill:none;stroke:#262626;stroke-linecap:square;stroke-linejoin:miter;"/>
   </g>
   <g id="patch_9">
    <path d="M 644.99976 434.89201 
L 644.99976 243.704121 
" style="fill:none;stroke:#262626;stroke-linecap:square;stroke-linejoin:miter;"/>
   </g>
   <g id="patch_10">
    <path d="M 46.98724 434.89201 
L 644.99976 434.89201 
" style="fill:none;stroke:#262626;stroke-linecap:square;stroke-linejoin:miter;"/>
   </g>
   <g id="patch_11">
    <path d="M 46.98724 243.704121 
L 644.99976 243.704121 
" style="fill:none;stroke:#262626;stroke-linecap:square;stroke-linejoin:miter;"/>
   </g>
  </g>
 </g>
 <defs>
  <clipPath id="peb3237c926">
   <rect height="191.187889" width="598.01252" x="46.98724" y="16.29474"/>
  </clipPath>
  <clipPath id="pcb6099b7ed">
   <rect height="191.187889" width="598.01252" x="46.98724" y="243.704121"/>
  </clipPath>
 </defs>
</svg>
