<?xml version="1.0" encoding="utf-8" standalone="no"?>
<!DOCTYPE svg PUBLIC "-//W3C//DTD SVG 1.1//EN"
  "http://www.w3.org/Graphics/SVG/1.1/DTD/svg11.dtd">
<!-- Created with matplotlib (https://matplotlib.org/) -->
<svg height="468pt" version="1.1" viewBox="0 0 648 468" width="648pt" xmlns="http://www.w3.org/2000/svg" xmlns:xlink="http://www.w3.org/1999/xlink">
 <defs>
  <style type="text/css">
*{stroke-linecap:butt;stroke-linejoin:round;}
  </style>
 </defs>
 <g id="figure_1">
  <g id="patch_1">
   <path d="M 0 468 
L 648 468 
L 648 0 
L 0 0 
z
" style="fill:#ffffff;"/>
  </g>
  <g id="axes_1">
   <g id="patch_2">
    <path d="M 46.98724 207.135693 
L 644.99976 207.135693 
L 644.99976 16.29474 
L 46.98724 16.29474 
z
" style="fill:#ffffff;"/>
   </g>
   <g id="matplotlib.axis_1"/>
   <g id="matplotlib.axis_2">
    <g id="ytick_1">
     <g id="text_1">
      <!-- −0.8 -->
      <defs>
       <path d="M 10.59375 35.296875 
L 73.1875 35.296875 
L 73.1875 27.390625 
L 10.59375 27.390625 
z
" id="DejaVuSerif-8722"/>
       <path d="M 31.78125 3.421875 
Q 39.265625 3.421875 42.96875 11.625 
Q 46.6875 19.828125 46.6875 36.375 
Q 46.6875 52.984375 42.96875 61.1875 
Q 39.265625 69.390625 31.78125 69.390625 
Q 24.3125 69.390625 20.59375 61.1875 
Q 16.890625 52.984375 16.890625 36.375 
Q 16.890625 19.828125 20.59375 11.625 
Q 24.3125 3.421875 31.78125 3.421875 
z
M 31.78125 -1.421875 
Q 19.921875 -1.421875 13.25 8.53125 
Q 6.59375 18.5 6.59375 36.375 
Q 6.59375 54.296875 13.25 64.25 
Q 19.921875 74.21875 31.78125 74.21875 
Q 43.703125 74.21875 50.34375 64.25 
Q 56.984375 54.296875 56.984375 36.375 
Q 56.984375 18.5 50.34375 8.53125 
Q 43.703125 -1.421875 31.78125 -1.421875 
z
" id="DejaVuSerif-48"/>
       <path d="M 9.421875 5.078125 
Q 9.421875 7.8125 11.28125 9.71875 
Q 13.140625 11.625 15.921875 11.625 
Q 18.609375 11.625 20.5 9.71875 
Q 22.40625 7.8125 22.40625 5.078125 
Q 22.40625 2.390625 20.5 0.484375 
Q 18.609375 -1.421875 15.921875 -1.421875 
Q 13.140625 -1.421875 11.28125 0.453125 
Q 9.421875 2.34375 9.421875 5.078125 
z
" id="DejaVuSerif-46"/>
       <path d="M 46.578125 19.921875 
Q 46.578125 27.734375 42.6875 32.046875 
Q 38.8125 36.375 31.78125 36.375 
Q 24.75 36.375 20.875 32.046875 
Q 17 27.734375 17 19.921875 
Q 17 12.0625 20.875 7.734375 
Q 24.75 3.421875 31.78125 3.421875 
Q 38.8125 3.421875 42.6875 7.734375 
Q 46.578125 12.0625 46.578125 19.921875 
z
M 44.578125 55.328125 
Q 44.578125 61.96875 41.203125 65.671875 
Q 37.84375 69.390625 31.78125 69.390625 
Q 25.78125 69.390625 22.390625 65.671875 
Q 19 61.96875 19 55.328125 
Q 19 48.640625 22.390625 44.921875 
Q 25.78125 41.21875 31.78125 41.21875 
Q 37.84375 41.21875 41.203125 44.921875 
Q 44.578125 48.640625 44.578125 55.328125 
z
M 39.3125 38.8125 
Q 47.609375 37.703125 52.25 32.6875 
Q 56.890625 27.6875 56.890625 19.921875 
Q 56.890625 9.671875 50.390625 4.125 
Q 43.890625 -1.421875 31.78125 -1.421875 
Q 19.734375 -1.421875 13.203125 4.125 
Q 6.6875 9.671875 6.6875 19.921875 
Q 6.6875 27.6875 11.328125 32.6875 
Q 15.96875 37.703125 24.3125 38.8125 
Q 16.9375 40.140625 13 44.40625 
Q 9.078125 48.6875 9.078125 55.328125 
Q 9.078125 64.109375 15.125 69.15625 
Q 21.1875 74.21875 31.78125 74.21875 
Q 42.390625 74.21875 48.4375 69.15625 
Q 54.5 64.109375 54.5 55.328125 
Q 54.5 48.6875 50.5625 44.40625 
Q 46.625 40.140625 39.3125 38.8125 
z
" id="DejaVuSerif-56"/>
      </defs>
      <g style="fill:#262626;" transform="translate(17.318365 208.416261)scale(0.088 -0.088)">
       <use xlink:href="#DejaVuSerif-8722"/>
       <use x="83.789062" xlink:href="#DejaVuSerif-48"/>
       <use x="147.412109" xlink:href="#DejaVuSerif-46"/>
       <use x="179.199219" xlink:href="#DejaVuSerif-56"/>
      </g>
     </g>
    </g>
    <g id="ytick_2">
     <g id="text_2">
      <!-- −0.6 -->
      <defs>
       <path d="M 32.71875 3.421875 
Q 39.59375 3.421875 43.296875 8.46875 
Q 47.015625 13.53125 47.015625 23 
Q 47.015625 32.46875 43.296875 37.515625 
Q 39.59375 42.578125 32.71875 42.578125 
Q 25.734375 42.578125 22.0625 37.6875 
Q 18.40625 32.8125 18.40625 23.578125 
Q 18.40625 13.875 22.109375 8.640625 
Q 25.828125 3.421875 32.71875 3.421875 
z
M 16.796875 40.140625 
Q 20.125 43.796875 24.3125 45.59375 
Q 28.515625 47.40625 33.796875 47.40625 
Q 44.671875 47.40625 51 40.859375 
Q 57.328125 34.328125 57.328125 23 
Q 57.328125 11.921875 50.515625 5.25 
Q 43.703125 -1.421875 32.328125 -1.421875 
Q 19.96875 -1.421875 13.328125 7.78125 
Q 6.6875 17 6.6875 34.078125 
Q 6.6875 53.21875 14.546875 63.71875 
Q 22.40625 74.21875 36.71875 74.21875 
Q 40.578125 74.21875 44.828125 73.484375 
Q 49.078125 72.75 53.515625 71.296875 
L 53.515625 59.28125 
L 48 59.28125 
Q 47.40625 64.203125 44.234375 66.796875 
Q 41.0625 69.390625 35.6875 69.390625 
Q 26.21875 69.390625 21.578125 62.203125 
Q 16.9375 55.03125 16.796875 40.140625 
z
" id="DejaVuSerif-54"/>
      </defs>
      <g style="fill:#262626;" transform="translate(17.318365 177.045426)scale(0.088 -0.088)">
       <use xlink:href="#DejaVuSerif-8722"/>
       <use x="83.789062" xlink:href="#DejaVuSerif-48"/>
       <use x="147.412109" xlink:href="#DejaVuSerif-46"/>
       <use x="179.199219" xlink:href="#DejaVuSerif-54"/>
      </g>
     </g>
    </g>
    <g id="ytick_3">
     <g id="text_3">
      <!-- −0.4 -->
      <defs>
       <path d="M 34.90625 24.703125 
L 34.90625 63.484375 
L 10.015625 24.703125 
z
M 56.390625 0 
L 23.1875 0 
L 23.1875 5.171875 
L 34.90625 5.171875 
L 34.90625 19.484375 
L 3.078125 19.484375 
L 3.078125 24.8125 
L 35.015625 74.21875 
L 44.671875 74.21875 
L 44.671875 24.703125 
L 58.59375 24.703125 
L 58.59375 19.484375 
L 44.671875 19.484375 
L 44.671875 5.171875 
L 56.390625 5.171875 
z
" id="DejaVuSerif-52"/>
      </defs>
      <g style="fill:#262626;" transform="translate(17.318365 145.674592)scale(0.088 -0.088)">
       <use xlink:href="#DejaVuSerif-8722"/>
       <use x="83.789062" xlink:href="#DejaVuSerif-48"/>
       <use x="147.412109" xlink:href="#DejaVuSerif-46"/>
       <use x="179.199219" xlink:href="#DejaVuSerif-52"/>
      </g>
     </g>
    </g>
    <g id="ytick_4">
     <g id="text_4">
      <!-- −0.2 -->
      <defs>
       <path d="M 12.796875 55.515625 
L 7.328125 55.515625 
L 7.328125 68.5 
Q 12.546875 71.296875 17.84375 72.75 
Q 23.140625 74.21875 28.21875 74.21875 
Q 39.59375 74.21875 46.1875 68.703125 
Q 52.78125 63.1875 52.78125 53.71875 
Q 52.78125 43.015625 37.84375 28.125 
Q 36.671875 27 36.078125 26.421875 
L 17.671875 8.015625 
L 48.09375 8.015625 
L 48.09375 17 
L 53.8125 17 
L 53.8125 0 
L 6.78125 0 
L 6.78125 5.328125 
L 28.90625 27.390625 
Q 36.234375 34.71875 39.359375 40.84375 
Q 42.484375 46.96875 42.484375 53.71875 
Q 42.484375 61.078125 38.640625 65.234375 
Q 34.8125 69.390625 28.078125 69.390625 
Q 21.09375 69.390625 17.28125 65.921875 
Q 13.484375 62.453125 12.796875 55.515625 
z
" id="DejaVuSerif-50"/>
      </defs>
      <g style="fill:#262626;" transform="translate(17.318365 114.303758)scale(0.088 -0.088)">
       <use xlink:href="#DejaVuSerif-8722"/>
       <use x="83.789062" xlink:href="#DejaVuSerif-48"/>
       <use x="147.412109" xlink:href="#DejaVuSerif-46"/>
       <use x="179.199219" xlink:href="#DejaVuSerif-50"/>
      </g>
     </g>
    </g>
    <g id="ytick_5">
     <g id="text_5">
      <!-- 0.0 -->
      <g style="fill:#262626;" transform="translate(24.69249 82.932923)scale(0.088 -0.088)">
       <use xlink:href="#DejaVuSerif-48"/>
       <use x="63.623047" xlink:href="#DejaVuSerif-46"/>
       <use x="95.410156" xlink:href="#DejaVuSerif-48"/>
      </g>
     </g>
    </g>
    <g id="ytick_6">
     <g id="text_6">
      <!-- 0.2 -->
      <g style="fill:#262626;" transform="translate(24.69249 51.562089)scale(0.088 -0.088)">
       <use xlink:href="#DejaVuSerif-48"/>
       <use x="63.623047" xlink:href="#DejaVuSerif-46"/>
       <use x="95.410156" xlink:href="#DejaVuSerif-50"/>
      </g>
     </g>
    </g>
    <g id="ytick_7">
     <g id="text_7">
      <!-- 0.4 -->
      <g style="fill:#262626;" transform="translate(24.69249 20.191254)scale(0.088 -0.088)">
       <use xlink:href="#DejaVuSerif-48"/>
       <use x="63.623047" xlink:href="#DejaVuSerif-46"/>
       <use x="95.410156" xlink:href="#DejaVuSerif-52"/>
      </g>
     </g>
    </g>
    <g id="text_8">
     <!-- Scaled Intensity -->
     <defs>
      <path d="M 9.28125 3.515625 
L 9.28125 20.125 
L 14.890625 20.0625 
Q 15.140625 11.765625 19.703125 7.78125 
Q 24.265625 3.8125 33.59375 3.8125 
Q 42.28125 3.8125 46.84375 7.25 
Q 51.421875 10.6875 51.421875 17.28125 
Q 51.421875 22.5625 48.65625 25.390625 
Q 45.90625 28.21875 37.015625 30.90625 
L 27.390625 33.796875 
Q 16.9375 36.96875 12.671875 41.703125 
Q 8.40625 46.4375 8.40625 54.6875 
Q 8.40625 63.96875 14.984375 69.09375 
Q 21.578125 74.21875 33.5 74.21875 
Q 38.578125 74.21875 44.625 73.109375 
Q 50.6875 72.015625 57.515625 69.921875 
L 57.515625 54.390625 
L 52 54.390625 
Q 51.171875 62.109375 46.84375 65.546875 
Q 42.53125 69 33.6875 69 
Q 25.984375 69 21.953125 65.84375 
Q 17.921875 62.703125 17.921875 56.6875 
Q 17.921875 51.46875 20.9375 48.484375 
Q 23.96875 45.515625 33.796875 42.578125 
L 42.828125 39.890625 
Q 52.734375 36.921875 56.953125 32.296875 
Q 61.1875 27.6875 61.1875 19.921875 
Q 61.1875 9.328125 54.390625 3.953125 
Q 47.609375 -1.421875 34.1875 -1.421875 
Q 28.171875 -1.421875 21.9375 -0.1875 
Q 15.71875 1.03125 9.28125 3.515625 
z
" id="DejaVuSerif-83"/>
      <path d="M 51.421875 15.578125 
Q 49.515625 7.28125 44.09375 2.921875 
Q 38.671875 -1.421875 30.078125 -1.421875 
Q 18.75 -1.421875 11.859375 6.078125 
Q 4.984375 13.578125 4.984375 25.984375 
Q 4.984375 38.421875 11.859375 45.875 
Q 18.75 53.328125 30.078125 53.328125 
Q 35.015625 53.328125 39.890625 52.171875 
Q 44.78125 51.03125 49.703125 48.6875 
L 49.703125 35.40625 
L 44.484375 35.40625 
Q 43.453125 42.234375 40.015625 45.359375 
Q 36.578125 48.484375 30.171875 48.484375 
Q 22.90625 48.484375 19.1875 42.84375 
Q 15.484375 37.203125 15.484375 25.984375 
Q 15.484375 14.75 19.171875 9.078125 
Q 22.859375 3.421875 30.171875 3.421875 
Q 35.984375 3.421875 39.453125 6.4375 
Q 42.921875 9.46875 44.1875 15.578125 
z
" id="DejaVuSerif-99"/>
      <path d="M 39.796875 16.3125 
L 39.796875 27.296875 
L 28.21875 27.296875 
Q 21.53125 27.296875 18.25 24.40625 
Q 14.984375 21.53125 14.984375 15.578125 
Q 14.984375 10.15625 18.296875 6.984375 
Q 21.625 3.8125 27.296875 3.8125 
Q 32.90625 3.8125 36.34375 7.28125 
Q 39.796875 10.75 39.796875 16.3125 
z
M 48.78125 32.421875 
L 48.78125 5.171875 
L 56.78125 5.171875 
L 56.78125 0 
L 39.796875 0 
L 39.796875 5.609375 
Q 36.8125 2 32.90625 0.28125 
Q 29 -1.421875 23.78125 -1.421875 
Q 15.140625 -1.421875 10.0625 3.171875 
Q 4.984375 7.765625 4.984375 15.578125 
Q 4.984375 23.640625 10.796875 28.078125 
Q 16.609375 32.515625 27.203125 32.515625 
L 39.796875 32.515625 
L 39.796875 36.078125 
Q 39.796875 42 36.203125 45.234375 
Q 32.625 48.484375 26.125 48.484375 
Q 20.75 48.484375 17.578125 46.046875 
Q 14.40625 43.609375 13.625 38.8125 
L 8.984375 38.8125 
L 8.984375 49.3125 
Q 13.671875 51.3125 18.09375 52.3125 
Q 22.515625 53.328125 26.703125 53.328125 
Q 37.5 53.328125 43.140625 47.96875 
Q 48.78125 42.625 48.78125 32.421875 
z
" id="DejaVuSerif-97"/>
      <path d="M 20.515625 5.171875 
L 29 5.171875 
L 29 0 
L 2.875 0 
L 2.875 5.171875 
L 11.53125 5.171875 
L 11.53125 70.796875 
L 2.875 70.796875 
L 2.875 75.984375 
L 20.515625 75.984375 
z
" id="DejaVuSerif-108"/>
      <path d="M 54.203125 25 
L 15.484375 25 
L 15.484375 24.609375 
Q 15.484375 14.109375 19.4375 8.765625 
Q 23.390625 3.421875 31.109375 3.421875 
Q 37.015625 3.421875 40.796875 6.515625 
Q 44.578125 9.625 46.09375 15.71875 
L 53.328125 15.71875 
Q 51.171875 7.171875 45.375 2.875 
Q 39.59375 -1.421875 30.171875 -1.421875 
Q 18.796875 -1.421875 11.890625 6.078125 
Q 4.984375 13.578125 4.984375 25.984375 
Q 4.984375 38.28125 11.765625 45.796875 
Q 18.5625 53.328125 29.59375 53.328125 
Q 41.359375 53.328125 47.65625 46.0625 
Q 53.953125 38.8125 54.203125 25 
z
M 43.609375 30.171875 
Q 43.3125 39.265625 39.765625 43.875 
Q 36.234375 48.484375 29.59375 48.484375 
Q 23.390625 48.484375 19.828125 43.84375 
Q 16.265625 39.203125 15.484375 30.171875 
z
" id="DejaVuSerif-101"/>
      <path d="M 52.484375 5.171875 
L 61.078125 5.171875 
L 61.078125 0 
L 43.5 0 
L 43.5 8.109375 
Q 40.875 3.21875 36.796875 0.890625 
Q 32.71875 -1.421875 26.703125 -1.421875 
Q 17.140625 -1.421875 11.0625 6.171875 
Q 4.984375 13.765625 4.984375 25.984375 
Q 4.984375 38.1875 11.03125 45.75 
Q 17.09375 53.328125 26.703125 53.328125 
Q 32.71875 53.328125 36.796875 51 
Q 40.875 48.6875 43.5 43.796875 
L 43.5 70.796875 
L 35.015625 70.796875 
L 35.015625 75.984375 
L 52.484375 75.984375 
z
M 43.5 23.390625 
L 43.5 28.515625 
Q 43.5 37.84375 39.90625 42.765625 
Q 36.328125 47.703125 29.5 47.703125 
Q 22.5625 47.703125 19.015625 42.234375 
Q 15.484375 36.765625 15.484375 25.984375 
Q 15.484375 15.234375 19.015625 9.71875 
Q 22.5625 4.203125 29.5 4.203125 
Q 36.328125 4.203125 39.90625 9.109375 
Q 43.5 14.015625 43.5 23.390625 
z
" id="DejaVuSerif-100"/>
      <path id="DejaVuSerif-32"/>
      <path d="M 24.703125 5.171875 
L 33.984375 5.171875 
L 33.984375 0 
L 5.515625 0 
L 5.515625 5.171875 
L 14.796875 5.171875 
L 14.796875 67.671875 
L 5.515625 67.671875 
L 5.515625 72.90625 
L 33.984375 72.90625 
L 33.984375 67.671875 
L 24.703125 67.671875 
z
" id="DejaVuSerif-73"/>
      <path d="M 4.109375 0 
L 4.109375 5.171875 
L 12.203125 5.171875 
L 12.203125 46.6875 
L 3.609375 46.6875 
L 3.609375 51.90625 
L 21.1875 51.90625 
L 21.1875 42.671875 
Q 23.6875 47.953125 27.65625 50.640625 
Q 31.640625 53.328125 36.921875 53.328125 
Q 45.515625 53.328125 49.5625 48.390625 
Q 53.609375 43.453125 53.609375 33.015625 
L 53.609375 5.171875 
L 61.625 5.171875 
L 61.625 0 
L 36.8125 0 
L 36.8125 5.171875 
L 44.578125 5.171875 
L 44.578125 30.171875 
Q 44.578125 39.703125 42.234375 43.234375 
Q 39.890625 46.78125 33.984375 46.78125 
Q 27.734375 46.78125 24.453125 42.203125 
Q 21.1875 37.640625 21.1875 28.90625 
L 21.1875 5.171875 
L 29 5.171875 
L 29 0 
z
" id="DejaVuSerif-110"/>
      <path d="M 10.796875 46.6875 
L 2.875 46.6875 
L 2.875 51.90625 
L 10.796875 51.90625 
L 10.796875 68.015625 
L 19.828125 68.015625 
L 19.828125 51.90625 
L 36.71875 51.90625 
L 36.71875 46.6875 
L 19.828125 46.6875 
L 19.828125 13.71875 
Q 19.828125 7.125 21.09375 5.265625 
Q 22.359375 3.421875 25.78125 3.421875 
Q 29.296875 3.421875 30.90625 5.484375 
Q 32.515625 7.5625 32.625 12.203125 
L 39.40625 12.203125 
Q 39.015625 5.125 35.546875 1.84375 
Q 32.078125 -1.421875 25 -1.421875 
Q 17.234375 -1.421875 14.015625 2.015625 
Q 10.796875 5.46875 10.796875 13.71875 
z
" id="DejaVuSerif-116"/>
      <path d="M 5.609375 2.875 
L 5.609375 14.984375 
L 10.796875 14.984375 
Q 10.984375 9.1875 14.421875 6.296875 
Q 17.875 3.421875 24.609375 3.421875 
Q 30.671875 3.421875 33.84375 5.6875 
Q 37.015625 7.953125 37.015625 12.3125 
Q 37.015625 15.71875 34.6875 17.8125 
Q 32.375 19.921875 24.90625 22.3125 
L 18.40625 24.515625 
Q 11.71875 26.65625 8.71875 29.875 
Q 5.71875 33.109375 5.71875 38.09375 
Q 5.71875 45.21875 10.9375 49.265625 
Q 16.15625 53.328125 25.390625 53.328125 
Q 29.5 53.328125 34.03125 52.25 
Q 38.578125 51.171875 43.40625 49.125 
L 43.40625 37.796875 
L 38.234375 37.796875 
Q 38.03125 42.828125 34.703125 45.65625 
Q 31.390625 48.484375 25.6875 48.484375 
Q 20.015625 48.484375 17.109375 46.484375 
Q 14.203125 44.484375 14.203125 40.484375 
Q 14.203125 37.203125 16.40625 35.21875 
Q 18.609375 33.25 25.203125 31.203125 
L 32.328125 29 
Q 39.703125 26.703125 42.9375 23.265625 
Q 46.1875 19.828125 46.1875 14.40625 
Q 46.1875 7.03125 40.546875 2.796875 
Q 34.90625 -1.421875 25 -1.421875 
Q 19.96875 -1.421875 15.1875 -0.34375 
Q 10.40625 0.734375 5.609375 2.875 
z
" id="DejaVuSerif-115"/>
      <path d="M 9.71875 68.015625 
Q 9.71875 70.265625 11.34375 71.921875 
Q 12.984375 73.578125 15.28125 73.578125 
Q 17.53125 73.578125 19.15625 71.921875 
Q 20.796875 70.265625 20.796875 68.015625 
Q 20.796875 65.71875 19.1875 64.109375 
Q 17.578125 62.5 15.28125 62.5 
Q 12.984375 62.5 11.34375 64.109375 
Q 9.71875 65.71875 9.71875 68.015625 
z
M 21.1875 5.171875 
L 29.6875 5.171875 
L 29.6875 0 
L 3.609375 0 
L 3.609375 5.171875 
L 12.203125 5.171875 
L 12.203125 46.6875 
L 3.609375 46.6875 
L 3.609375 51.90625 
L 21.1875 51.90625 
z
" id="DejaVuSerif-105"/>
      <path d="M 21.578125 -9.515625 
L 25 -0.875 
L 5.609375 46.6875 
L -0.296875 46.6875 
L -0.296875 51.90625 
L 23.578125 51.90625 
L 23.578125 46.6875 
L 15.28125 46.6875 
L 29.890625 10.984375 
L 44.484375 46.6875 
L 36.71875 46.6875 
L 36.71875 51.90625 
L 56.203125 51.90625 
L 56.203125 46.6875 
L 50.390625 46.6875 
L 26.609375 -11.71875 
Q 24.171875 -17.78125 21.1875 -20 
Q 18.21875 -22.21875 12.796875 -22.21875 
Q 10.5 -22.21875 8.078125 -21.828125 
Q 5.671875 -21.4375 3.21875 -20.703125 
L 3.21875 -10.796875 
L 7.8125 -10.796875 
Q 8.109375 -14.109375 9.5 -15.546875 
Q 10.890625 -17 13.8125 -17 
Q 16.5 -17 18.140625 -15.5 
Q 19.78125 -14.015625 21.578125 -9.515625 
z
" id="DejaVuSerif-121"/>
     </defs>
     <g style="fill:#262626;" transform="translate(11.185365 151.015966)rotate(-90)scale(0.096 -0.096)">
      <use xlink:href="#DejaVuSerif-83"/>
      <use x="68.505859" xlink:href="#DejaVuSerif-99"/>
      <use x="124.511719" xlink:href="#DejaVuSerif-97"/>
      <use x="184.130859" xlink:href="#DejaVuSerif-108"/>
      <use x="216.113281" xlink:href="#DejaVuSerif-101"/>
      <use x="275.292969" xlink:href="#DejaVuSerif-100"/>
      <use x="339.306641" xlink:href="#DejaVuSerif-32"/>
      <use x="371.09375" xlink:href="#DejaVuSerif-73"/>
      <use x="410.595703" xlink:href="#DejaVuSerif-110"/>
      <use x="475" xlink:href="#DejaVuSerif-116"/>
      <use x="515.185547" xlink:href="#DejaVuSerif-101"/>
      <use x="574.365234" xlink:href="#DejaVuSerif-110"/>
      <use x="638.769531" xlink:href="#DejaVuSerif-115"/>
      <use x="690.087891" xlink:href="#DejaVuSerif-105"/>
      <use x="722.070312" xlink:href="#DejaVuSerif-116"/>
      <use x="762.255859" xlink:href="#DejaVuSerif-121"/>
     </g>
    </g>
   </g>
   <g id="line2d_1">
    <path clip-path="url(#pd923116764)" d="M 74.169627 78.300594 
L 79.499507 86.708704 
L 84.829387 71.549241 
L 90.159267 88.568854 
L 95.489147 85.246593 
L 100.819027 79.275941 
L 106.148906 101.087728 
L 111.478786 109.217266 
L 116.808666 101.35327 
L 122.138546 104.041159 
L 127.468426 100.936621 
L 132.798306 104.434376 
L 138.128186 108.405974 
L 143.458065 113.050348 
L 148.787945 105.654545 
L 154.117825 106.825126 
L 159.447705 111.700052 
L 164.777585 114.483084 
L 170.107465 100.741792 
L 175.437345 115.248319 
L 180.767224 111.812112 
L 186.097104 112.267359 
L 191.426984 117.097205 
L 196.756864 112.51988 
L 202.086744 113.266047 
L 207.416624 111.5923 
L 212.746504 105.43553 
L 218.076383 104.472989 
L 223.406263 108.618677 
L 228.736143 93.650309 
L 234.066023 88.345529 
L 239.395903 86.356731 
L 244.725783 88.165182 
L 250.055663 85.638483 
L 255.385542 99.522584 
L 260.715422 92.274095 
L 266.045302 93.053667 
L 271.375182 89.324602 
L 276.705062 90.173536 
L 282.034942 85.438507 
L 287.364822 86.094221 
L 292.694701 86.211484 
L 298.024581 81.533943 
L 303.354461 85.495365 
L 308.684341 83.049488 
L 314.014221 83.014002 
L 319.344101 76.136839 
L 324.673981 82.206719 
L 330.00386 75.989271 
L 335.33374 81.42387 
L 340.66362 76.544788 
L 345.9935 83.230021 
L 351.32338 74.139155 
L 356.65326 73.423957 
L 361.98314 78.290833 
L 367.313019 76.500627 
L 372.642899 76.821236 
L 377.972779 79.388284 
L 383.302659 67.935211 
L 388.632539 78.094471 
L 393.962419 72.064868 
L 399.292299 78.728013 
L 404.622178 70.050271 
L 409.952058 74.130156 
L 415.281938 68.370718 
L 420.611818 70.171189 
L 425.941698 71.167285 
L 431.271578 70.783587 
L 436.601458 69.243305 
L 441.931337 67.820478 
L 447.261217 60.260998 
L 452.591097 31.739149 
L 457.920977 24.969329 
L 463.250857 35.329532 
L 468.580737 48.35365 
L 473.910617 58.155664 
L 479.240496 70.815258 
L 484.570376 78.091526 
L 489.900256 79.570482 
L 495.230136 92.995477 
L 500.560016 89.322779 
L 505.889896 77.198412 
L 511.219776 94.805541 
L 516.549655 95.121999 
L 521.879535 98.694127 
L 527.209415 93.951072 
L 532.539295 90.074953 
L 537.869175 96.244103 
L 543.199055 89.755513 
L 548.528935 98.291558 
L 553.858814 89.150795 
L 559.188694 92.617894 
L 564.518574 93.694903 
L 569.848454 86.74885 
L 575.178334 89.422895 
L 580.508214 89.500111 
L 585.838094 88.624536 
L 591.167973 95.797612 
L 596.497853 92.675486 
L 601.827733 89.361424 
L 607.157613 88.101203 
L 612.487493 81.342892 
L 617.817373 99.756771 
" style="fill:none;stroke:#c8102e;stroke-linecap:round;stroke-width:1.2;"/>
   </g>
   <g id="line2d_2">
    <path clip-path="url(#pd923116764)" d="M 74.169627 122.570821 
L 79.499507 126.378181 
L 84.829387 118.800767 
L 90.159267 125.52166 
L 95.489147 123.019449 
L 100.819027 118.444863 
L 106.148906 138.906603 
L 111.478786 142.224521 
L 116.808666 140.833715 
L 122.138546 140.697174 
L 127.468426 141.103777 
L 132.798306 146.788599 
L 138.128186 149.945725 
L 143.458065 152.800785 
L 148.787945 146.538474 
L 154.117825 146.05848 
L 159.447705 149.887713 
L 164.777585 153.654735 
L 170.107465 148.334215 
L 175.437345 152.691553 
L 180.767224 151.979104 
L 186.097104 155.364234 
L 191.426984 155.596511 
L 196.756864 151.028315 
L 202.086744 149.369582 
L 207.416624 147.92965 
L 212.746504 147.379579 
L 218.076383 142.65913 
L 223.406263 144.254568 
L 228.736143 131.746228 
L 234.066023 127.533219 
L 239.395903 123.507938 
L 244.725783 123.726957 
L 250.055663 128.841257 
L 255.385542 136.572262 
L 260.715422 136.509552 
L 266.045302 136.668134 
L 271.375182 135.570674 
L 276.705062 136.04985 
L 282.034942 132.178902 
L 287.364822 135.747636 
L 292.694701 136.562231 
L 298.024581 132.309581 
L 303.354461 136.065842 
L 308.684341 136.516027 
L 314.014221 133.930252 
L 319.344101 129.81311 
L 324.673981 134.644712 
L 330.00386 130.350256 
L 335.33374 133.00953 
L 340.66362 128.288146 
L 345.9935 135.11718 
L 351.32338 128.635919 
L 356.65326 129.893883 
L 361.98314 130.603845 
L 367.313019 128.823096 
L 372.642899 130.010267 
L 377.972779 133.107575 
L 383.302659 123.21231 
L 388.632539 132.790323 
L 393.962419 127.112929 
L 399.292299 132.303167 
L 404.622178 127.990378 
L 409.952058 131.534183 
L 415.281938 127.339779 
L 420.611818 127.183997 
L 425.941698 124.2911 
L 431.271578 122.49003 
L 436.601458 116.560814 
L 441.931337 108.667557 
L 447.261217 100.381089 
L 452.591097 74.965976 
L 457.920977 73.316696 
L 463.250857 80.837744 
L 468.580737 95.952621 
L 473.910617 105.694343 
L 479.240496 120.108302 
L 484.570376 122.995141 
L 489.900256 127.491535 
L 495.230136 139.860838 
L 500.560016 133.318985 
L 505.889896 134.364557 
L 511.219776 143.616684 
L 516.549655 144.849161 
L 521.879535 144.919869 
L 527.209415 144.294929 
L 532.539295 137.994959 
L 537.869175 141.260115 
L 543.199055 140.528028 
L 548.528935 141.367711 
L 553.858814 138.955547 
L 559.188694 139.780378 
L 564.518574 141.215767 
L 569.848454 135.779947 
L 575.178334 135.92048 
L 580.508214 135.980353 
L 585.838094 139.158149 
L 591.167973 138.912624 
L 596.497853 143.228414 
L 601.827733 136.143605 
L 607.157613 138.483251 
L 612.487493 131.971358 
L 617.817373 139.212548 
" style="fill:none;stroke:#00b388;stroke-linecap:round;stroke-width:1.2;"/>
   </g>
   <g id="line2d_3">
    <path clip-path="url(#pd923116764)" d="M 74.169627 166.841049 
L 79.499507 166.047654 
L 84.829387 166.052291 
L 90.159267 162.474469 
L 95.489147 160.792308 
L 100.819027 157.613782 
L 106.148906 176.725474 
L 111.478786 175.231774 
L 116.808666 180.31416 
L 122.138546 177.353191 
L 127.468426 181.270933 
L 132.798306 189.142822 
L 138.128186 191.48547 
L 143.458065 192.551227 
L 148.787945 187.422404 
L 154.117825 185.291834 
L 159.447705 188.075373 
L 164.777585 192.826384 
L 170.107465 195.926638 
L 175.437345 190.134786 
L 180.767224 192.146096 
L 186.097104 198.461104 
L 191.426984 194.095814 
L 196.756864 189.536752 
L 202.086744 185.473116 
L 207.416624 184.266999 
L 212.746504 189.323627 
L 218.076383 180.845271 
L 223.406263 179.890462 
L 228.736143 169.842145 
L 234.066023 166.720911 
L 239.395903 160.659146 
L 244.725783 159.288735 
L 250.055663 172.04403 
L 255.385542 173.621938 
L 260.715422 180.74501 
L 266.045302 180.282597 
L 271.375182 181.816751 
L 276.705062 181.926165 
L 282.034942 178.919291 
L 287.364822 185.401052 
L 292.694701 186.912982 
L 298.024581 183.085218 
L 303.354461 186.63632 
L 308.684341 189.982561 
L 314.014221 184.846502 
L 319.344101 183.489385 
L 324.673981 187.082708 
L 330.00386 184.711237 
L 335.33374 184.595194 
L 340.66362 180.031504 
L 345.9935 187.004343 
L 351.32338 183.132684 
L 356.65326 186.363808 
L 361.98314 182.916857 
L 367.313019 181.145569 
L 372.642899 183.199297 
L 377.972779 186.826867 
L 383.302659 178.489413 
L 388.632539 187.486175 
L 393.962419 182.16099 
L 399.292299 185.878321 
L 404.622178 185.93049 
L 409.952058 188.938214 
L 415.281938 186.308835 
L 420.611818 184.196805 
L 425.941698 177.414915 
L 431.271578 174.196468 
L 436.601458 163.878322 
L 441.931337 149.514636 
L 447.261217 140.501181 
L 452.591097 118.192805 
L 457.920977 121.664067 
L 463.250857 126.345955 
L 468.580737 143.551594 
L 473.910617 153.233019 
L 479.240496 169.401347 
L 484.570376 167.898756 
L 489.900256 175.412589 
L 495.230136 186.726203 
L 500.560016 177.315186 
L 505.889896 191.530702 
L 511.219776 192.427826 
L 516.549655 194.576328 
L 521.879535 191.145606 
L 527.209415 194.638781 
L 532.539295 185.91497 
L 537.869175 186.276131 
L 543.199055 191.300542 
L 548.528935 184.443868 
L 553.858814 188.760298 
L 559.188694 186.942863 
L 564.518574 188.736626 
L 569.848454 184.811049 
L 575.178334 182.418065 
L 580.508214 182.460595 
L 585.838094 189.691763 
L 591.167973 182.027632 
L 596.497853 193.781343 
L 601.827733 182.925785 
L 607.157613 188.865299 
L 612.487493 182.599824 
L 617.817373 178.66832 
" style="fill:none;stroke:#f6be00;stroke-linecap:round;stroke-width:1.2;"/>
   </g>
   <g id="line2d_4"/>
   <g id="line2d_5"/>
   <g id="line2d_6"/>
   <g id="patch_3">
    <path d="M 46.98724 207.135693 
L 46.98724 16.29474 
" style="fill:none;stroke:#262626;stroke-linecap:square;stroke-linejoin:miter;"/>
   </g>
   <g id="patch_4">
    <path d="M 644.99976 207.135693 
L 644.99976 16.29474 
" style="fill:none;stroke:#262626;stroke-linecap:square;stroke-linejoin:miter;"/>
   </g>
   <g id="patch_5">
    <path d="M 46.98724 207.135693 
L 644.99976 207.135693 
" style="fill:none;stroke:#262626;stroke-linecap:square;stroke-linejoin:miter;"/>
   </g>
   <g id="patch_6">
    <path d="M 46.98724 16.29474 
L 644.99976 16.29474 
" style="fill:none;stroke:#262626;stroke-linecap:square;stroke-linejoin:miter;"/>
   </g>
   <g id="text_9">
    <!-- Meadows Generated Samples -->
    <defs>
     <path d="M 5.515625 0 
L 5.515625 5.171875 
L 14.796875 5.171875 
L 14.796875 67.671875 
L 4.984375 67.671875 
L 4.984375 72.90625 
L 26.21875 72.90625 
L 51.8125 21 
L 77.390625 72.90625 
L 97.3125 72.90625 
L 97.3125 67.671875 
L 87.59375 67.671875 
L 87.59375 5.171875 
L 96.921875 5.171875 
L 96.921875 0 
L 68.40625 0 
L 68.40625 5.171875 
L 77.6875 5.171875 
L 77.6875 61.53125 
L 52.6875 10.6875 
L 45.796875 10.6875 
L 20.796875 61.53125 
L 20.796875 5.171875 
L 30.078125 5.171875 
L 30.078125 0 
z
" id="DejaVuSerif-77"/>
     <path d="M 30.078125 3.421875 
Q 37.3125 3.421875 40.984375 9.125 
Q 44.671875 14.84375 44.671875 25.984375 
Q 44.671875 37.109375 40.984375 42.796875 
Q 37.3125 48.484375 30.078125 48.484375 
Q 22.859375 48.484375 19.171875 42.796875 
Q 15.484375 37.109375 15.484375 25.984375 
Q 15.484375 14.84375 19.1875 9.125 
Q 22.90625 3.421875 30.078125 3.421875 
z
M 30.078125 -1.421875 
Q 18.75 -1.421875 11.859375 6.078125 
Q 4.984375 13.578125 4.984375 25.984375 
Q 4.984375 38.375 11.84375 45.84375 
Q 18.703125 53.328125 30.078125 53.328125 
Q 41.453125 53.328125 48.3125 45.84375 
Q 55.171875 38.375 55.171875 25.984375 
Q 55.171875 13.578125 48.3125 6.078125 
Q 41.453125 -1.421875 30.078125 -1.421875 
z
" id="DejaVuSerif-111"/>
     <path d="M 48 51.90625 
L 61.28125 11.375 
L 73 46.6875 
L 65.484375 46.6875 
L 65.484375 51.90625 
L 84.28125 51.90625 
L 84.28125 46.6875 
L 78.515625 46.6875 
L 63.09375 0 
L 55.609375 0 
L 42.828125 38.8125 
L 29.984375 0 
L 22.796875 0 
L 7.421875 46.6875 
L 1.609375 46.6875 
L 1.609375 51.90625 
L 25.09375 51.90625 
L 25.09375 46.6875 
L 16.703125 46.6875 
L 28.328125 11.375 
L 41.703125 51.90625 
z
" id="DejaVuSerif-119"/>
     <path d="M 64.015625 51.125 
Q 62.3125 60.25 56.890625 64.625 
Q 51.46875 69 41.796875 69 
Q 29.203125 69 23 60.890625 
Q 16.796875 52.78125 16.796875 36.375 
Q 16.796875 20.3125 23.1875 12.0625 
Q 29.59375 3.8125 42 3.8125 
Q 47.515625 3.8125 52.53125 5.171875 
Q 57.5625 6.546875 62.109375 9.28125 
L 62.109375 28.078125 
L 48.390625 28.078125 
L 48.390625 33.296875 
L 72.015625 33.296875 
L 72.015625 6.109375 
Q 65.53125 2.34375 58.03125 0.453125 
Q 50.53125 -1.421875 42 -1.421875 
Q 25.484375 -1.421875 15.546875 8.90625 
Q 5.609375 19.234375 5.609375 36.375 
Q 5.609375 53.65625 15.5625 63.9375 
Q 25.53125 74.21875 42.390625 74.21875 
Q 48.640625 74.21875 55.296875 72.78125 
Q 61.96875 71.34375 69.484375 68.40625 
L 69.484375 51.125 
z
" id="DejaVuSerif-71"/>
     <path d="M 47.796875 52 
L 47.796875 39.015625 
L 42.625 39.015625 
Q 42.390625 42.875 40.484375 44.78125 
Q 38.578125 46.6875 34.90625 46.6875 
Q 28.265625 46.6875 24.71875 42.09375 
Q 21.1875 37.5 21.1875 28.90625 
L 21.1875 5.171875 
L 31.59375 5.171875 
L 31.59375 0 
L 4.109375 0 
L 4.109375 5.171875 
L 12.203125 5.171875 
L 12.203125 46.78125 
L 3.609375 46.78125 
L 3.609375 51.90625 
L 21.1875 51.90625 
L 21.1875 42.671875 
Q 23.828125 48.09375 27.96875 50.703125 
Q 32.125 53.328125 38.09375 53.328125 
Q 40.28125 53.328125 42.703125 52.984375 
Q 45.125 52.640625 47.796875 52 
z
" id="DejaVuSerif-114"/>
     <path d="M 51.8125 41.796875 
Q 54.390625 47.515625 58.421875 50.421875 
Q 62.453125 53.328125 67.828125 53.328125 
Q 75.984375 53.328125 79.984375 48.265625 
Q 83.984375 43.21875 83.984375 33.015625 
L 83.984375 5.171875 
L 92.09375 5.171875 
L 92.09375 0 
L 67.1875 0 
L 67.1875 5.171875 
L 75 5.171875 
L 75 31.984375 
Q 75 39.9375 72.65625 43.3125 
Q 70.3125 46.6875 64.890625 46.6875 
Q 58.890625 46.6875 55.734375 42.140625 
Q 52.59375 37.59375 52.59375 28.90625 
L 52.59375 5.171875 
L 60.40625 5.171875 
L 60.40625 0 
L 35.796875 0 
L 35.796875 5.171875 
L 43.609375 5.171875 
L 43.609375 32.328125 
Q 43.609375 40.09375 41.265625 43.390625 
Q 38.921875 46.6875 33.5 46.6875 
Q 27.484375 46.6875 24.328125 42.140625 
Q 21.1875 37.59375 21.1875 28.90625 
L 21.1875 5.171875 
L 29 5.171875 
L 29 0 
L 4.109375 0 
L 4.109375 5.171875 
L 12.203125 5.171875 
L 12.203125 46.78125 
L 3.609375 46.78125 
L 3.609375 51.90625 
L 21.1875 51.90625 
L 21.1875 42.671875 
Q 23.6875 47.859375 27.53125 50.59375 
Q 31.390625 53.328125 36.28125 53.328125 
Q 42.328125 53.328125 46.375 50.3125 
Q 50.4375 47.3125 51.8125 41.796875 
z
" id="DejaVuSerif-109"/>
     <path d="M 20.515625 28.515625 
L 20.515625 23.390625 
Q 20.515625 14.015625 24.09375 9.109375 
Q 27.6875 4.203125 34.515625 4.203125 
Q 41.40625 4.203125 44.9375 9.71875 
Q 48.484375 15.234375 48.484375 25.984375 
Q 48.484375 36.765625 44.9375 42.234375 
Q 41.40625 47.703125 34.515625 47.703125 
Q 27.6875 47.703125 24.09375 42.765625 
Q 20.515625 37.84375 20.515625 28.515625 
z
M 11.53125 46.6875 
L 2.875 46.6875 
L 2.875 51.90625 
L 20.515625 51.90625 
L 20.515625 43.796875 
Q 23.140625 48.6875 27.21875 51 
Q 31.296875 53.328125 37.3125 53.328125 
Q 46.875 53.328125 52.921875 45.75 
Q 58.984375 38.1875 58.984375 25.984375 
Q 58.984375 13.765625 52.921875 6.171875 
Q 46.875 -1.421875 37.3125 -1.421875 
Q 31.296875 -1.421875 27.21875 0.890625 
Q 23.140625 3.21875 20.515625 8.109375 
L 20.515625 -15.578125 
L 29 -15.578125 
L 29 -20.796875 
L 2.875 -20.796875 
L 2.875 -15.578125 
L 11.53125 -15.578125 
z
" id="DejaVuSerif-112"/>
    </defs>
    <g style="fill:#262626;" transform="translate(273.56975 10.29474)scale(0.096 -0.096)">
     <use xlink:href="#DejaVuSerif-77"/>
     <use x="102.392578" xlink:href="#DejaVuSerif-101"/>
     <use x="161.572266" xlink:href="#DejaVuSerif-97"/>
     <use x="221.191406" xlink:href="#DejaVuSerif-100"/>
     <use x="285.205078" xlink:href="#DejaVuSerif-111"/>
     <use x="345.410156" xlink:href="#DejaVuSerif-119"/>
     <use x="431.005859" xlink:href="#DejaVuSerif-115"/>
     <use x="482.324219" xlink:href="#DejaVuSerif-32"/>
     <use x="514.111328" xlink:href="#DejaVuSerif-71"/>
     <use x="593.994141" xlink:href="#DejaVuSerif-101"/>
     <use x="653.173828" xlink:href="#DejaVuSerif-110"/>
     <use x="717.578125" xlink:href="#DejaVuSerif-101"/>
     <use x="776.757812" xlink:href="#DejaVuSerif-114"/>
     <use x="824.560547" xlink:href="#DejaVuSerif-97"/>
     <use x="884.179688" xlink:href="#DejaVuSerif-116"/>
     <use x="924.365234" xlink:href="#DejaVuSerif-101"/>
     <use x="983.544922" xlink:href="#DejaVuSerif-100"/>
     <use x="1047.558594" xlink:href="#DejaVuSerif-32"/>
     <use x="1079.345703" xlink:href="#DejaVuSerif-83"/>
     <use x="1147.851562" xlink:href="#DejaVuSerif-97"/>
     <use x="1207.470703" xlink:href="#DejaVuSerif-109"/>
     <use x="1302.294922" xlink:href="#DejaVuSerif-112"/>
     <use x="1366.308594" xlink:href="#DejaVuSerif-108"/>
     <use x="1398.291016" xlink:href="#DejaVuSerif-101"/>
     <use x="1457.470703" xlink:href="#DejaVuSerif-115"/>
    </g>
   </g>
  </g>
  <g id="axes_2">
   <g id="legend_1">
    <g id="line2d_7">
     <path d="M 156.355562 226.498779 
L 173.955562 226.498779 
" style="fill:none;stroke:#c8102e;stroke-linecap:round;stroke-width:1.2;"/>
    </g>
    <g id="line2d_8"/>
    <g id="text_10">
     <!-- Mean + Standard Deviation -->
     <defs>
      <path d="M 45.796875 62.703125 
L 45.796875 35.296875 
L 73.1875 35.296875 
L 73.1875 27.390625 
L 45.796875 27.390625 
L 45.796875 0 
L 37.984375 0 
L 37.984375 27.390625 
L 10.59375 27.390625 
L 10.59375 35.296875 
L 37.984375 35.296875 
L 37.984375 62.703125 
z
" id="DejaVuSerif-43"/>
      <path d="M 24.703125 5.171875 
L 33.796875 5.171875 
Q 48 5.171875 55.59375 13.28125 
Q 63.1875 21.390625 63.1875 36.53125 
Q 63.1875 51.65625 55.609375 59.65625 
Q 48.046875 67.671875 33.796875 67.671875 
L 24.703125 67.671875 
z
M 5.515625 0 
L 5.515625 5.171875 
L 14.796875 5.171875 
L 14.796875 67.671875 
L 5.515625 67.671875 
L 5.515625 72.90625 
L 34.515625 72.90625 
Q 53.375 72.90625 63.890625 63.28125 
Q 74.421875 53.65625 74.421875 36.53125 
Q 74.421875 19.34375 63.875 9.671875 
Q 53.328125 0 34.515625 0 
z
" id="DejaVuSerif-68"/>
      <path d="M 24.703125 0 
L 5.609375 46.6875 
L -0.296875 46.6875 
L -0.296875 51.90625 
L 23.578125 51.90625 
L 23.578125 46.6875 
L 15.28125 46.6875 
L 29.890625 10.984375 
L 44.484375 46.6875 
L 36.71875 46.6875 
L 36.71875 51.90625 
L 56.203125 51.90625 
L 56.203125 46.6875 
L 50.390625 46.6875 
L 31.296875 0 
z
" id="DejaVuSerif-118"/>
     </defs>
     <g style="fill:#262626;" transform="translate(180.995563 229.578779)scale(0.088 -0.088)">
      <use xlink:href="#DejaVuSerif-77"/>
      <use x="102.392578" xlink:href="#DejaVuSerif-101"/>
      <use x="161.572266" xlink:href="#DejaVuSerif-97"/>
      <use x="221.191406" xlink:href="#DejaVuSerif-110"/>
      <use x="285.595703" xlink:href="#DejaVuSerif-32"/>
      <use x="317.382812" xlink:href="#DejaVuSerif-43"/>
      <use x="401.171875" xlink:href="#DejaVuSerif-32"/>
      <use x="432.958984" xlink:href="#DejaVuSerif-83"/>
      <use x="501.464844" xlink:href="#DejaVuSerif-116"/>
      <use x="541.650391" xlink:href="#DejaVuSerif-97"/>
      <use x="601.269531" xlink:href="#DejaVuSerif-110"/>
      <use x="665.673828" xlink:href="#DejaVuSerif-100"/>
      <use x="729.6875" xlink:href="#DejaVuSerif-97"/>
      <use x="789.306641" xlink:href="#DejaVuSerif-114"/>
      <use x="837.109375" xlink:href="#DejaVuSerif-100"/>
      <use x="901.123047" xlink:href="#DejaVuSerif-32"/>
      <use x="932.910156" xlink:href="#DejaVuSerif-68"/>
      <use x="1013.085938" xlink:href="#DejaVuSerif-101"/>
      <use x="1072.265625" xlink:href="#DejaVuSerif-118"/>
      <use x="1128.759766" xlink:href="#DejaVuSerif-105"/>
      <use x="1160.742188" xlink:href="#DejaVuSerif-97"/>
      <use x="1220.361328" xlink:href="#DejaVuSerif-116"/>
      <use x="1260.546875" xlink:href="#DejaVuSerif-105"/>
      <use x="1292.529297" xlink:href="#DejaVuSerif-111"/>
      <use x="1352.734375" xlink:href="#DejaVuSerif-110"/>
     </g>
    </g>
    <g id="line2d_9">
     <path d="M 323.306687 226.498779 
L 340.906687 226.498779 
" style="fill:none;stroke:#00b388;stroke-linecap:round;stroke-width:1.2;"/>
    </g>
    <g id="line2d_10"/>
    <g id="text_11">
     <!-- Mean -->
     <g style="fill:#262626;" transform="translate(347.946687 229.578779)scale(0.088 -0.088)">
      <use xlink:href="#DejaVuSerif-77"/>
      <use x="102.392578" xlink:href="#DejaVuSerif-101"/>
      <use x="161.572266" xlink:href="#DejaVuSerif-97"/>
      <use x="221.191406" xlink:href="#DejaVuSerif-110"/>
     </g>
    </g>
    <g id="line2d_11">
     <path d="M 390.680313 226.498779 
L 408.280313 226.498779 
" style="fill:none;stroke:#f6be00;stroke-linecap:round;stroke-width:1.2;"/>
    </g>
    <g id="line2d_12"/>
    <g id="text_12">
     <!-- Mean - Standard Deviation -->
     <defs>
      <path d="M 4.390625 30.609375 
L 29.390625 30.609375 
L 29.390625 23 
L 4.390625 23 
z
" id="DejaVuSerif-45"/>
     </defs>
     <g style="fill:#262626;" transform="translate(415.320312 229.578779)scale(0.088 -0.088)">
      <use xlink:href="#DejaVuSerif-77"/>
      <use x="102.392578" xlink:href="#DejaVuSerif-101"/>
      <use x="161.572266" xlink:href="#DejaVuSerif-97"/>
      <use x="221.191406" xlink:href="#DejaVuSerif-110"/>
      <use x="285.595703" xlink:href="#DejaVuSerif-32"/>
      <use x="317.382812" xlink:href="#DejaVuSerif-45"/>
      <use x="351.171875" xlink:href="#DejaVuSerif-32"/>
      <use x="382.958984" xlink:href="#DejaVuSerif-83"/>
      <use x="451.464844" xlink:href="#DejaVuSerif-116"/>
      <use x="491.650391" xlink:href="#DejaVuSerif-97"/>
      <use x="551.269531" xlink:href="#DejaVuSerif-110"/>
      <use x="615.673828" xlink:href="#DejaVuSerif-100"/>
      <use x="679.6875" xlink:href="#DejaVuSerif-97"/>
      <use x="739.306641" xlink:href="#DejaVuSerif-114"/>
      <use x="787.109375" xlink:href="#DejaVuSerif-100"/>
      <use x="851.123047" xlink:href="#DejaVuSerif-32"/>
      <use x="882.910156" xlink:href="#DejaVuSerif-68"/>
      <use x="963.085938" xlink:href="#DejaVuSerif-101"/>
      <use x="1022.265625" xlink:href="#DejaVuSerif-118"/>
      <use x="1078.759766" xlink:href="#DejaVuSerif-105"/>
      <use x="1110.742188" xlink:href="#DejaVuSerif-97"/>
      <use x="1170.361328" xlink:href="#DejaVuSerif-116"/>
      <use x="1210.546875" xlink:href="#DejaVuSerif-105"/>
      <use x="1242.529297" xlink:href="#DejaVuSerif-111"/>
      <use x="1302.734375" xlink:href="#DejaVuSerif-110"/>
     </g>
    </g>
   </g>
  </g>
  <g id="axes_3">
   <g id="patch_7">
    <path d="M 46.98724 434.89201 
L 644.99976 434.89201 
L 644.99976 244.051057 
L 46.98724 244.051057 
z
" style="fill:#ffffff;"/>
   </g>
   <g id="matplotlib.axis_3">
    <g id="xtick_1">
     <g id="text_13">
      <!-- 0 -->
      <g style="fill:#262626;" transform="translate(71.370127 449.878635)scale(0.088 -0.088)">
       <use xlink:href="#DejaVuSerif-48"/>
      </g>
     </g>
    </g>
    <g id="xtick_2">
     <g id="text_14">
      <!-- 20 -->
      <g style="fill:#262626;" transform="translate(175.168224 449.878635)scale(0.088 -0.088)">
       <use xlink:href="#DejaVuSerif-50"/>
       <use x="63.623047" xlink:href="#DejaVuSerif-48"/>
      </g>
     </g>
    </g>
    <g id="xtick_3">
     <g id="text_15">
      <!-- 40 -->
      <g style="fill:#262626;" transform="translate(281.765822 449.878635)scale(0.088 -0.088)">
       <use xlink:href="#DejaVuSerif-52"/>
       <use x="63.623047" xlink:href="#DejaVuSerif-48"/>
      </g>
     </g>
    </g>
    <g id="xtick_4">
     <g id="text_16">
      <!-- 60 -->
      <g style="fill:#262626;" transform="translate(388.363419 449.878635)scale(0.088 -0.088)">
       <use xlink:href="#DejaVuSerif-54"/>
       <use x="63.623047" xlink:href="#DejaVuSerif-48"/>
      </g>
     </g>
    </g>
    <g id="xtick_5">
     <g id="text_17">
      <!-- 80 -->
      <g style="fill:#262626;" transform="translate(494.961016 449.878635)scale(0.088 -0.088)">
       <use xlink:href="#DejaVuSerif-56"/>
       <use x="63.623047" xlink:href="#DejaVuSerif-48"/>
      </g>
     </g>
    </g>
    <g id="xtick_6">
     <g id="text_18">
      <!-- 100 -->
      <defs>
       <path d="M 14.203125 0 
L 14.203125 5.171875 
L 26.90625 5.171875 
L 26.90625 65.828125 
L 12.203125 56.296875 
L 12.203125 62.703125 
L 29.984375 74.21875 
L 36.71875 74.21875 
L 36.71875 5.171875 
L 49.421875 5.171875 
L 49.421875 0 
z
" id="DejaVuSerif-49"/>
      </defs>
      <g style="fill:#262626;" transform="translate(598.759113 449.878635)scale(0.088 -0.088)">
       <use xlink:href="#DejaVuSerif-49"/>
       <use x="63.623047" xlink:href="#DejaVuSerif-48"/>
       <use x="127.246094" xlink:href="#DejaVuSerif-48"/>
      </g>
     </g>
    </g>
    <g id="text_19">
     <!-- Spectral Band -->
     <defs>
      <path d="M 24.703125 5.171875 
L 39.3125 5.171875 
Q 48.09375 5.171875 52.140625 8.984375 
Q 56.203125 12.796875 56.203125 21.09375 
Q 56.203125 29.34375 52.171875 33.125 
Q 48.140625 36.921875 39.3125 36.921875 
L 24.703125 36.921875 
z
M 24.703125 42.09375 
L 37.109375 42.09375 
Q 45.125 42.09375 48.796875 45.171875 
Q 52.484375 48.25 52.484375 54.890625 
Q 52.484375 61.578125 48.796875 64.625 
Q 45.125 67.671875 37.109375 67.671875 
L 24.703125 67.671875 
z
M 5.515625 0 
L 5.515625 5.171875 
L 14.796875 5.171875 
L 14.796875 67.671875 
L 5.515625 67.671875 
L 5.515625 72.90625 
L 41.5 72.90625 
Q 52.546875 72.90625 58.125 68.390625 
Q 63.71875 63.875 63.71875 54.890625 
Q 63.71875 48.390625 59.828125 44.53125 
Q 55.953125 40.671875 48.484375 39.796875 
Q 57.765625 38.625 62.578125 33.859375 
Q 67.390625 29.109375 67.390625 21.09375 
Q 67.390625 10.25 60.546875 5.125 
Q 53.71875 0 39.203125 0 
z
" id="DejaVuSerif-66"/>
     </defs>
     <g style="fill:#262626;" transform="translate(311.40425 463.00326)scale(0.096 -0.096)">
      <use xlink:href="#DejaVuSerif-83"/>
      <use x="68.505859" xlink:href="#DejaVuSerif-112"/>
      <use x="132.519531" xlink:href="#DejaVuSerif-101"/>
      <use x="191.699219" xlink:href="#DejaVuSerif-99"/>
      <use x="247.705078" xlink:href="#DejaVuSerif-116"/>
      <use x="287.890625" xlink:href="#DejaVuSerif-114"/>
      <use x="335.693359" xlink:href="#DejaVuSerif-97"/>
      <use x="395.3125" xlink:href="#DejaVuSerif-108"/>
      <use x="427.294922" xlink:href="#DejaVuSerif-32"/>
      <use x="459.082031" xlink:href="#DejaVuSerif-66"/>
      <use x="532.568359" xlink:href="#DejaVuSerif-97"/>
      <use x="592.1875" xlink:href="#DejaVuSerif-110"/>
      <use x="656.591797" xlink:href="#DejaVuSerif-100"/>
     </g>
    </g>
   </g>
   <g id="matplotlib.axis_4">
    <g id="ytick_8">
     <g id="text_20">
      <!-- 500 -->
      <defs>
       <path d="M 50.296875 72.90625 
L 50.296875 64.890625 
L 16.890625 64.890625 
L 16.890625 44 
Q 19.4375 45.75 22.828125 46.625 
Q 26.21875 47.515625 30.421875 47.515625 
Q 42.234375 47.515625 49.0625 40.96875 
Q 55.90625 34.421875 55.90625 23.09375 
Q 55.90625 11.53125 49 5.046875 
Q 42.09375 -1.421875 29.59375 -1.421875 
Q 24.5625 -1.421875 19.28125 -0.1875 
Q 14.015625 1.03125 8.5 3.515625 
L 8.5 17.671875 
L 14.015625 17.671875 
Q 14.453125 10.75 18.421875 7.078125 
Q 22.40625 3.421875 29.59375 3.421875 
Q 37.3125 3.421875 41.453125 8.5 
Q 45.609375 13.578125 45.609375 23.09375 
Q 45.609375 32.5625 41.484375 37.609375 
Q 37.359375 42.671875 29.59375 42.671875 
Q 25.203125 42.671875 21.84375 41.109375 
Q 18.5 39.546875 15.921875 36.28125 
L 11.71875 36.28125 
L 11.71875 72.90625 
z
" id="DejaVuSerif-53"/>
      </defs>
      <g style="fill:#262626;" transform="translate(21.89024 420.571349)scale(0.088 -0.088)">
       <use xlink:href="#DejaVuSerif-53"/>
       <use x="63.623047" xlink:href="#DejaVuSerif-48"/>
       <use x="127.246094" xlink:href="#DejaVuSerif-48"/>
      </g>
     </g>
    </g>
    <g id="ytick_9">
     <g id="text_21">
      <!-- 1000 -->
      <g style="fill:#262626;" transform="translate(16.29124 391.643156)scale(0.088 -0.088)">
       <use xlink:href="#DejaVuSerif-49"/>
       <use x="63.623047" xlink:href="#DejaVuSerif-48"/>
       <use x="127.246094" xlink:href="#DejaVuSerif-48"/>
       <use x="190.869141" xlink:href="#DejaVuSerif-48"/>
      </g>
     </g>
    </g>
    <g id="ytick_10">
     <g id="text_22">
      <!-- 1500 -->
      <g style="fill:#262626;" transform="translate(16.29124 362.714962)scale(0.088 -0.088)">
       <use xlink:href="#DejaVuSerif-49"/>
       <use x="63.623047" xlink:href="#DejaVuSerif-53"/>
       <use x="127.246094" xlink:href="#DejaVuSerif-48"/>
       <use x="190.869141" xlink:href="#DejaVuSerif-48"/>
      </g>
     </g>
    </g>
    <g id="ytick_11">
     <g id="text_23">
      <!-- 2000 -->
      <g style="fill:#262626;" transform="translate(16.29124 333.786769)scale(0.088 -0.088)">
       <use xlink:href="#DejaVuSerif-50"/>
       <use x="63.623047" xlink:href="#DejaVuSerif-48"/>
       <use x="127.246094" xlink:href="#DejaVuSerif-48"/>
       <use x="190.869141" xlink:href="#DejaVuSerif-48"/>
      </g>
     </g>
    </g>
    <g id="ytick_12">
     <g id="text_24">
      <!-- 2500 -->
      <g style="fill:#262626;" transform="translate(16.29124 304.858576)scale(0.088 -0.088)">
       <use xlink:href="#DejaVuSerif-50"/>
       <use x="63.623047" xlink:href="#DejaVuSerif-53"/>
       <use x="127.246094" xlink:href="#DejaVuSerif-48"/>
       <use x="190.869141" xlink:href="#DejaVuSerif-48"/>
      </g>
     </g>
    </g>
    <g id="ytick_13">
     <g id="text_25">
      <!-- 3000 -->
      <defs>
       <path d="M 9.71875 69.828125 
Q 15.4375 71.96875 20.671875 73.09375 
Q 25.921875 74.21875 30.515625 74.21875 
Q 41.21875 74.21875 47.21875 69.59375 
Q 53.21875 64.984375 53.21875 56.78125 
Q 53.21875 50.203125 49.0625 45.78125 
Q 44.921875 41.359375 37.3125 39.796875 
Q 46.296875 38.53125 51.25 33.28125 
Q 56.203125 28.03125 56.203125 19.671875 
Q 56.203125 9.46875 49.34375 4.015625 
Q 42.484375 -1.421875 29.59375 -1.421875 
Q 23.875 -1.421875 18.421875 -0.1875 
Q 12.984375 1.03125 7.625 3.515625 
L 7.625 17.671875 
L 13.09375 17.671875 
Q 13.578125 10.640625 17.828125 7.03125 
Q 22.078125 3.421875 29.78125 3.421875 
Q 37.25 3.421875 41.578125 7.734375 
Q 45.90625 12.0625 45.90625 19.578125 
Q 45.90625 28.171875 41.453125 32.59375 
Q 37.015625 37.015625 28.421875 37.015625 
L 23.78125 37.015625 
L 23.78125 42 
L 26.21875 42 
Q 34.765625 42 39.03125 45.53125 
Q 43.3125 49.078125 43.3125 56.203125 
Q 43.3125 62.59375 39.796875 65.984375 
Q 36.28125 69.390625 29.6875 69.390625 
Q 23.09375 69.390625 19.453125 66.265625 
Q 15.828125 63.140625 15.1875 56.984375 
L 9.71875 56.984375 
z
" id="DejaVuSerif-51"/>
      </defs>
      <g style="fill:#262626;" transform="translate(16.29124 275.930382)scale(0.088 -0.088)">
       <use xlink:href="#DejaVuSerif-51"/>
       <use x="63.623047" xlink:href="#DejaVuSerif-48"/>
       <use x="127.246094" xlink:href="#DejaVuSerif-48"/>
       <use x="190.869141" xlink:href="#DejaVuSerif-48"/>
      </g>
     </g>
    </g>
    <g id="text_26">
     <!-- Intensity -->
     <g style="fill:#262626;" transform="translate(10.15824 360.959784)rotate(-90)scale(0.096 -0.096)">
      <use xlink:href="#DejaVuSerif-73"/>
      <use x="39.501953" xlink:href="#DejaVuSerif-110"/>
      <use x="103.90625" xlink:href="#DejaVuSerif-116"/>
      <use x="144.091797" xlink:href="#DejaVuSerif-101"/>
      <use x="203.271484" xlink:href="#DejaVuSerif-110"/>
      <use x="267.675781" xlink:href="#DejaVuSerif-115"/>
      <use x="318.994141" xlink:href="#DejaVuSerif-105"/>
      <use x="350.976562" xlink:href="#DejaVuSerif-116"/>
      <use x="391.162109" xlink:href="#DejaVuSerif-121"/>
     </g>
    </g>
   </g>
   <g id="line2d_13">
    <path clip-path="url(#p0200676bd5)" d="M 74.169627 388.853956 
L 79.499507 396.311136 
L 84.829387 401.320859 
L 90.159267 401.782737 
L 95.489147 401.686139 
L 100.819027 402.644692 
L 106.148906 403.387193 
L 111.478786 404.141368 
L 116.808666 404.471833 
L 122.138546 404.310711 
L 127.468426 403.953481 
L 132.798306 404.269943 
L 138.128186 404.248763 
L 143.458065 403.848265 
L 148.787945 403.449882 
L 154.117825 403.237719 
L 159.447705 402.508751 
L 164.777585 401.586306 
L 170.107465 400.673614 
L 175.437345 399.596654 
L 180.767224 398.371901 
L 186.097104 396.814641 
L 191.426984 395.240056 
L 196.756864 393.639185 
L 202.086744 391.689489 
L 207.416624 389.518269 
L 212.746504 388.121043 
L 218.076383 387.16334 
L 223.406263 386.270844 
L 228.736143 385.055017 
L 234.066023 383.792131 
L 239.395903 382.955783 
L 244.725783 382.42327 
L 250.055663 381.740579 
L 255.385542 381.223421 
L 260.715422 380.876816 
L 266.045302 380.65103 
L 271.375182 380.367057 
L 276.705062 380.040269 
L 282.034942 379.61767 
L 287.364822 379.224041 
L 292.694701 378.905421 
L 298.024581 378.43658 
L 303.354461 377.818451 
L 308.684341 377.087307 
L 314.014221 376.484545 
L 319.344101 376.179012 
L 324.673981 375.97998 
L 330.00386 375.540141 
L 335.33374 375.344511 
L 340.66362 374.660153 
L 345.9935 373.87719 
L 351.32338 373.537961 
L 356.65326 373.364048 
L 361.98314 373.607403 
L 367.313019 373.848078 
L 372.642899 373.718727 
L 377.972779 373.445721 
L 383.302659 373.387796 
L 388.632539 373.585973 
L 393.962419 373.437674 
L 399.292299 372.905062 
L 404.622178 372.239468 
L 409.952058 371.312371 
L 415.281938 369.697945 
L 420.611818 366.728809 
L 425.941698 362.438852 
L 431.271578 357.542788 
L 436.601458 351.669765 
L 441.931337 345.704582 
L 447.261217 339.609419 
L 452.591097 332.752101 
L 457.920977 324.681122 
L 463.250857 315.145347 
L 468.580737 304.791013 
L 473.910617 293.976424 
L 479.240496 284.470844 
L 484.570376 276.137562 
L 489.900256 269.772861 
L 495.230136 264.66949 
L 500.560016 260.146285 
L 505.889896 257.102765 
L 511.219776 256.967131 
L 516.549655 260.308676 
L 521.879535 259.534528 
L 527.209415 256.716966 
L 532.539295 254.93303 
L 537.869175 254.576106 
L 543.199055 254.450593 
L 548.528935 253.891712 
L 553.858814 252.725646 
L 559.188694 252.926393 
L 564.518574 253.676763 
L 569.848454 253.32698 
L 575.178334 252.911181 
L 580.508214 253.547504 
L 585.838094 254.408666 
L 591.167973 255.367342 
L 596.497853 256.463447 
L 601.827733 257.007592 
L 607.157613 257.610439 
L 612.487493 256.730613 
L 617.817373 255.40218 
" style="fill:none;stroke:#c8102e;stroke-linecap:round;stroke-width:1.2;"/>
   </g>
   <g id="line2d_14">
    <path clip-path="url(#p0200676bd5)" d="M 74.169627 402.929288 
L 79.499507 409.307293 
L 84.829387 413.752745 
L 90.159267 414.000079 
L 95.489147 413.144144 
L 100.819027 413.099441 
L 106.148906 413.464521 
L 111.478786 414.187224 
L 116.808666 414.618425 
L 122.138546 414.624313 
L 127.468426 414.450812 
L 132.798306 414.868493 
L 138.128186 415.064685 
L 143.458065 414.915931 
L 148.787945 414.681217 
L 154.117825 414.583306 
L 159.447705 414.073348 
L 164.777585 413.347765 
L 170.107465 412.525134 
L 175.437345 411.475364 
L 180.767224 410.159801 
L 186.097104 408.396166 
L 191.426984 406.423768 
L 196.756864 404.365888 
L 202.086744 402.111884 
L 207.416624 399.805961 
L 212.746504 398.313612 
L 218.076383 397.344715 
L 223.406263 396.502389 
L 228.736143 395.427363 
L 234.066023 394.346765 
L 239.395903 393.75093 
L 244.725783 393.52436 
L 250.055663 393.310373 
L 255.385542 393.356906 
L 260.715422 393.63286 
L 266.045302 394.040355 
L 271.375182 394.359845 
L 276.705062 394.552118 
L 282.034942 394.579149 
L 287.364822 394.527318 
L 292.694701 394.495016 
L 298.024581 394.318695 
L 303.354461 394.043076 
L 308.684341 393.74865 
L 314.014221 393.576741 
L 319.344101 393.643643 
L 324.673981 393.77937 
L 330.00386 393.652823 
L 335.33374 393.635456 
L 340.66362 393.220047 
L 345.9935 392.785846 
L 351.32338 392.790196 
L 356.65326 392.995608 
L 361.98314 393.529991 
L 367.313019 394.044258 
L 372.642899 394.271777 
L 377.972779 394.418154 
L 383.302659 394.770228 
L 388.632539 395.240147 
L 393.962419 395.339581 
L 399.292299 395.04115 
L 404.622178 394.497147 
L 409.952058 393.517203 
L 415.281938 391.515283 
L 420.611818 387.865888 
L 425.941698 382.666923 
L 431.271578 376.313889 
L 436.601458 368.64124 
L 441.931337 360.826011 
L 447.261217 353.423335 
L 452.591097 346.319917 
L 457.920977 338.828947 
L 463.250857 330.934964 
L 468.580737 323.453897 
L 473.910617 316.100604 
L 479.240496 310.135102 
L 484.570376 305.13158 
L 489.900256 301.4541 
L 495.230136 298.506315 
L 500.560016 295.808704 
L 505.889896 294.438747 
L 511.219776 295.092729 
L 516.549655 296.107312 
L 521.879535 293.974143 
L 527.209415 292.237582 
L 532.539295 291.433429 
L 537.869175 291.30768 
L 543.199055 291.148304 
L 548.528935 290.56324 
L 553.858814 289.406364 
L 559.188694 289.308642 
L 564.518574 289.720899 
L 569.848454 289.286109 
L 575.178334 288.956344 
L 580.508214 289.658895 
L 585.838094 290.217498 
L 591.167973 290.217129 
L 596.497853 290.598223 
L 601.827733 290.985891 
L 607.157613 291.293623 
L 612.487493 290.1637 
L 617.817373 288.972337 
" style="fill:none;stroke:#00b388;stroke-linecap:round;stroke-width:1.2;"/>
   </g>
   <g id="line2d_15">
    <path clip-path="url(#p0200676bd5)" d="M 74.169627 417.00462 
L 79.499507 422.30345 
L 84.829387 426.184631 
L 90.159267 426.217421 
L 95.489147 424.602148 
L 100.819027 423.55419 
L 106.148906 423.541848 
L 111.478786 424.233081 
L 116.808666 424.765017 
L 122.138546 424.937915 
L 127.468426 424.948144 
L 132.798306 425.467043 
L 138.128186 425.880606 
L 143.458065 425.983598 
L 148.787945 425.912553 
L 154.117825 425.928893 
L 159.447705 425.637946 
L 164.777585 425.109225 
L 170.107465 424.376653 
L 175.437345 423.354074 
L 180.767224 421.947701 
L 186.097104 419.977691 
L 191.426984 417.607481 
L 196.756864 415.092591 
L 202.086744 412.534278 
L 207.416624 410.093654 
L 212.746504 408.50618 
L 218.076383 407.526089 
L 223.406263 406.733934 
L 228.736143 405.799709 
L 234.066023 404.901399 
L 239.395903 404.546078 
L 244.725783 404.62545 
L 250.055663 404.880166 
L 255.385542 405.49039 
L 260.715422 406.388903 
L 266.045302 407.42968 
L 271.375182 408.352632 
L 276.705062 409.063967 
L 282.034942 409.540628 
L 287.364822 409.830594 
L 292.694701 410.08461 
L 298.024581 410.200809 
L 303.354461 410.2677 
L 308.684341 410.409993 
L 314.014221 410.668936 
L 319.344101 411.108275 
L 324.673981 411.578759 
L 330.00386 411.765506 
L 335.33374 411.926402 
L 340.66362 411.779941 
L 345.9935 411.694503 
L 351.32338 412.04243 
L 356.65326 412.627168 
L 361.98314 413.452578 
L 367.313019 414.240438 
L 372.642899 414.824828 
L 377.972779 415.390587 
L 383.302659 416.15266 
L 388.632539 416.89432 
L 393.962419 417.241489 
L 399.292299 417.177239 
L 404.622178 416.754826 
L 409.952058 415.722034 
L 415.281938 413.332621 
L 420.611818 409.002967 
L 425.941698 402.894993 
L 431.271578 395.084989 
L 436.601458 385.612714 
L 441.931337 375.94744 
L 447.261217 367.23725 
L 452.591097 359.887733 
L 457.920977 352.976772 
L 463.250857 346.724581 
L 468.580737 342.116781 
L 473.910617 338.224784 
L 479.240496 335.79936 
L 484.570376 334.125599 
L 489.900256 333.135338 
L 495.230136 332.343141 
L 500.560016 331.471124 
L 505.889896 331.774728 
L 511.219776 333.218328 
L 516.549655 331.905947 
L 521.879535 328.413757 
L 527.209415 327.758199 
L 532.539295 327.933828 
L 537.869175 328.039253 
L 543.199055 327.846015 
L 548.528935 327.234768 
L 553.858814 326.087082 
L 559.188694 325.69089 
L 564.518574 325.765036 
L 569.848454 325.245239 
L 575.178334 325.001508 
L 580.508214 325.770286 
L 585.838094 326.02633 
L 591.167973 325.066916 
L 596.497853 324.732999 
L 601.827733 324.964189 
L 607.157613 324.976807 
L 612.487493 323.596786 
L 617.817373 322.542494 
" style="fill:none;stroke:#f6be00;stroke-linecap:round;stroke-width:1.2;"/>
   </g>
   <g id="patch_8">
    <path d="M 46.98724 434.89201 
L 46.98724 244.051057 
" style="fill:none;stroke:#262626;stroke-linecap:square;stroke-linejoin:miter;"/>
   </g>
   <g id="patch_9">
    <path d="M 644.99976 434.89201 
L 644.99976 244.051057 
" style="fill:none;stroke:#262626;stroke-linecap:square;stroke-linejoin:miter;"/>
   </g>
   <g id="patch_10">
    <path d="M 46.98724 434.89201 
L 644.99976 434.89201 
" style="fill:none;stroke:#262626;stroke-linecap:square;stroke-linejoin:miter;"/>
   </g>
   <g id="patch_11">
    <path d="M 46.98724 244.051057 
L 644.99976 244.051057 
" style="fill:none;stroke:#262626;stroke-linecap:square;stroke-linejoin:miter;"/>
   </g>
  </g>
 </g>
 <defs>
  <clipPath id="pd923116764">
   <rect height="190.840953" width="598.01252" x="46.98724" y="16.29474"/>
  </clipPath>
  <clipPath id="p0200676bd5">
   <rect height="190.840953" width="598.01252" x="46.98724" y="244.051057"/>
  </clipPath>
 </defs>
</svg>
