<?xml version="1.0" encoding="utf-8" standalone="no"?>
<!DOCTYPE svg PUBLIC "-//W3C//DTD SVG 1.1//EN"
  "http://www.w3.org/Graphics/SVG/1.1/DTD/svg11.dtd">
<!-- Created with matplotlib (https://matplotlib.org/) -->
<svg height="468pt" version="1.1" viewBox="0 0 648 468" width="648pt" xmlns="http://www.w3.org/2000/svg" xmlns:xlink="http://www.w3.org/1999/xlink">
 <defs>
  <style type="text/css">
*{stroke-linecap:butt;stroke-linejoin:round;}
  </style>
 </defs>
 <g id="figure_1">
  <g id="patch_1">
   <path d="M 0 468 
L 648 468 
L 648 0 
L 0 0 
z
" style="fill:#ffffff;"/>
  </g>
  <g id="axes_1">
   <g id="patch_2">
    <path d="M 46.98724 207.343087 
L 644.99976 207.343087 
L 644.99976 16.29474 
L 46.98724 16.29474 
z
" style="fill:#ffffff;"/>
   </g>
   <g id="matplotlib.axis_1"/>
   <g id="matplotlib.axis_2">
    <g id="ytick_1">
     <g id="text_1">
      <!-- −0.8 -->
      <defs>
       <path d="M 10.59375 35.296875 
L 73.1875 35.296875 
L 73.1875 27.390625 
L 10.59375 27.390625 
z
" id="DejaVuSerif-8722"/>
       <path d="M 31.78125 3.421875 
Q 39.265625 3.421875 42.96875 11.625 
Q 46.6875 19.828125 46.6875 36.375 
Q 46.6875 52.984375 42.96875 61.1875 
Q 39.265625 69.390625 31.78125 69.390625 
Q 24.3125 69.390625 20.59375 61.1875 
Q 16.890625 52.984375 16.890625 36.375 
Q 16.890625 19.828125 20.59375 11.625 
Q 24.3125 3.421875 31.78125 3.421875 
z
M 31.78125 -1.421875 
Q 19.921875 -1.421875 13.25 8.53125 
Q 6.59375 18.5 6.59375 36.375 
Q 6.59375 54.296875 13.25 64.25 
Q 19.921875 74.21875 31.78125 74.21875 
Q 43.703125 74.21875 50.34375 64.25 
Q 56.984375 54.296875 56.984375 36.375 
Q 56.984375 18.5 50.34375 8.53125 
Q 43.703125 -1.421875 31.78125 -1.421875 
z
" id="DejaVuSerif-48"/>
       <path d="M 9.421875 5.078125 
Q 9.421875 7.8125 11.28125 9.71875 
Q 13.140625 11.625 15.921875 11.625 
Q 18.609375 11.625 20.5 9.71875 
Q 22.40625 7.8125 22.40625 5.078125 
Q 22.40625 2.390625 20.5 0.484375 
Q 18.609375 -1.421875 15.921875 -1.421875 
Q 13.140625 -1.421875 11.28125 0.453125 
Q 9.421875 2.34375 9.421875 5.078125 
z
" id="DejaVuSerif-46"/>
       <path d="M 46.578125 19.921875 
Q 46.578125 27.734375 42.6875 32.046875 
Q 38.8125 36.375 31.78125 36.375 
Q 24.75 36.375 20.875 32.046875 
Q 17 27.734375 17 19.921875 
Q 17 12.0625 20.875 7.734375 
Q 24.75 3.421875 31.78125 3.421875 
Q 38.8125 3.421875 42.6875 7.734375 
Q 46.578125 12.0625 46.578125 19.921875 
z
M 44.578125 55.328125 
Q 44.578125 61.96875 41.203125 65.671875 
Q 37.84375 69.390625 31.78125 69.390625 
Q 25.78125 69.390625 22.390625 65.671875 
Q 19 61.96875 19 55.328125 
Q 19 48.640625 22.390625 44.921875 
Q 25.78125 41.21875 31.78125 41.21875 
Q 37.84375 41.21875 41.203125 44.921875 
Q 44.578125 48.640625 44.578125 55.328125 
z
M 39.3125 38.8125 
Q 47.609375 37.703125 52.25 32.6875 
Q 56.890625 27.6875 56.890625 19.921875 
Q 56.890625 9.671875 50.390625 4.125 
Q 43.890625 -1.421875 31.78125 -1.421875 
Q 19.734375 -1.421875 13.203125 4.125 
Q 6.6875 9.671875 6.6875 19.921875 
Q 6.6875 27.6875 11.328125 32.6875 
Q 15.96875 37.703125 24.3125 38.8125 
Q 16.9375 40.140625 13 44.40625 
Q 9.078125 48.6875 9.078125 55.328125 
Q 9.078125 64.109375 15.125 69.15625 
Q 21.1875 74.21875 31.78125 74.21875 
Q 42.390625 74.21875 48.4375 69.15625 
Q 54.5 64.109375 54.5 55.328125 
Q 54.5 48.6875 50.5625 44.40625 
Q 46.625 40.140625 39.3125 38.8125 
z
" id="DejaVuSerif-56"/>
      </defs>
      <g style="fill:#262626;" transform="translate(17.318365 208.207295)scale(0.088 -0.088)">
       <use xlink:href="#DejaVuSerif-8722"/>
       <use x="83.789062" xlink:href="#DejaVuSerif-48"/>
       <use x="147.412109" xlink:href="#DejaVuSerif-46"/>
       <use x="179.199219" xlink:href="#DejaVuSerif-56"/>
      </g>
     </g>
    </g>
    <g id="ytick_2">
     <g id="text_2">
      <!-- −0.6 -->
      <defs>
       <path d="M 32.71875 3.421875 
Q 39.59375 3.421875 43.296875 8.46875 
Q 47.015625 13.53125 47.015625 23 
Q 47.015625 32.46875 43.296875 37.515625 
Q 39.59375 42.578125 32.71875 42.578125 
Q 25.734375 42.578125 22.0625 37.6875 
Q 18.40625 32.8125 18.40625 23.578125 
Q 18.40625 13.875 22.109375 8.640625 
Q 25.828125 3.421875 32.71875 3.421875 
z
M 16.796875 40.140625 
Q 20.125 43.796875 24.3125 45.59375 
Q 28.515625 47.40625 33.796875 47.40625 
Q 44.671875 47.40625 51 40.859375 
Q 57.328125 34.328125 57.328125 23 
Q 57.328125 11.921875 50.515625 5.25 
Q 43.703125 -1.421875 32.328125 -1.421875 
Q 19.96875 -1.421875 13.328125 7.78125 
Q 6.6875 17 6.6875 34.078125 
Q 6.6875 53.21875 14.546875 63.71875 
Q 22.40625 74.21875 36.71875 74.21875 
Q 40.578125 74.21875 44.828125 73.484375 
Q 49.078125 72.75 53.515625 71.296875 
L 53.515625 59.28125 
L 48 59.28125 
Q 47.40625 64.203125 44.234375 66.796875 
Q 41.0625 69.390625 35.6875 69.390625 
Q 26.21875 69.390625 21.578125 62.203125 
Q 16.9375 55.03125 16.796875 40.140625 
z
" id="DejaVuSerif-54"/>
      </defs>
      <g style="fill:#262626;" transform="translate(17.318365 177.109484)scale(0.088 -0.088)">
       <use xlink:href="#DejaVuSerif-8722"/>
       <use x="83.789062" xlink:href="#DejaVuSerif-48"/>
       <use x="147.412109" xlink:href="#DejaVuSerif-46"/>
       <use x="179.199219" xlink:href="#DejaVuSerif-54"/>
      </g>
     </g>
    </g>
    <g id="ytick_3">
     <g id="text_3">
      <!-- −0.4 -->
      <defs>
       <path d="M 34.90625 24.703125 
L 34.90625 63.484375 
L 10.015625 24.703125 
z
M 56.390625 0 
L 23.1875 0 
L 23.1875 5.171875 
L 34.90625 5.171875 
L 34.90625 19.484375 
L 3.078125 19.484375 
L 3.078125 24.8125 
L 35.015625 74.21875 
L 44.671875 74.21875 
L 44.671875 24.703125 
L 58.59375 24.703125 
L 58.59375 19.484375 
L 44.671875 19.484375 
L 44.671875 5.171875 
L 56.390625 5.171875 
z
" id="DejaVuSerif-52"/>
      </defs>
      <g style="fill:#262626;" transform="translate(17.318365 146.011672)scale(0.088 -0.088)">
       <use xlink:href="#DejaVuSerif-8722"/>
       <use x="83.789062" xlink:href="#DejaVuSerif-48"/>
       <use x="147.412109" xlink:href="#DejaVuSerif-46"/>
       <use x="179.199219" xlink:href="#DejaVuSerif-52"/>
      </g>
     </g>
    </g>
    <g id="ytick_4">
     <g id="text_4">
      <!-- −0.2 -->
      <defs>
       <path d="M 12.796875 55.515625 
L 7.328125 55.515625 
L 7.328125 68.5 
Q 12.546875 71.296875 17.84375 72.75 
Q 23.140625 74.21875 28.21875 74.21875 
Q 39.59375 74.21875 46.1875 68.703125 
Q 52.78125 63.1875 52.78125 53.71875 
Q 52.78125 43.015625 37.84375 28.125 
Q 36.671875 27 36.078125 26.421875 
L 17.671875 8.015625 
L 48.09375 8.015625 
L 48.09375 17 
L 53.8125 17 
L 53.8125 0 
L 6.78125 0 
L 6.78125 5.328125 
L 28.90625 27.390625 
Q 36.234375 34.71875 39.359375 40.84375 
Q 42.484375 46.96875 42.484375 53.71875 
Q 42.484375 61.078125 38.640625 65.234375 
Q 34.8125 69.390625 28.078125 69.390625 
Q 21.09375 69.390625 17.28125 65.921875 
Q 13.484375 62.453125 12.796875 55.515625 
z
" id="DejaVuSerif-50"/>
      </defs>
      <g style="fill:#262626;" transform="translate(17.318365 114.913861)scale(0.088 -0.088)">
       <use xlink:href="#DejaVuSerif-8722"/>
       <use x="83.789062" xlink:href="#DejaVuSerif-48"/>
       <use x="147.412109" xlink:href="#DejaVuSerif-46"/>
       <use x="179.199219" xlink:href="#DejaVuSerif-50"/>
      </g>
     </g>
    </g>
    <g id="ytick_5">
     <g id="text_5">
      <!-- 0.0 -->
      <g style="fill:#262626;" transform="translate(24.69249 83.816049)scale(0.088 -0.088)">
       <use xlink:href="#DejaVuSerif-48"/>
       <use x="63.623047" xlink:href="#DejaVuSerif-46"/>
       <use x="95.410156" xlink:href="#DejaVuSerif-48"/>
      </g>
     </g>
    </g>
    <g id="ytick_6">
     <g id="text_6">
      <!-- 0.2 -->
      <g style="fill:#262626;" transform="translate(24.69249 52.718238)scale(0.088 -0.088)">
       <use xlink:href="#DejaVuSerif-48"/>
       <use x="63.623047" xlink:href="#DejaVuSerif-46"/>
       <use x="95.410156" xlink:href="#DejaVuSerif-50"/>
      </g>
     </g>
    </g>
    <g id="ytick_7">
     <g id="text_7">
      <!-- 0.4 -->
      <g style="fill:#262626;" transform="translate(24.69249 21.620426)scale(0.088 -0.088)">
       <use xlink:href="#DejaVuSerif-48"/>
       <use x="63.623047" xlink:href="#DejaVuSerif-46"/>
       <use x="95.410156" xlink:href="#DejaVuSerif-52"/>
      </g>
     </g>
    </g>
    <g id="text_8">
     <!-- Scaled Intensity -->
     <defs>
      <path d="M 9.28125 3.515625 
L 9.28125 20.125 
L 14.890625 20.0625 
Q 15.140625 11.765625 19.703125 7.78125 
Q 24.265625 3.8125 33.59375 3.8125 
Q 42.28125 3.8125 46.84375 7.25 
Q 51.421875 10.6875 51.421875 17.28125 
Q 51.421875 22.5625 48.65625 25.390625 
Q 45.90625 28.21875 37.015625 30.90625 
L 27.390625 33.796875 
Q 16.9375 36.96875 12.671875 41.703125 
Q 8.40625 46.4375 8.40625 54.6875 
Q 8.40625 63.96875 14.984375 69.09375 
Q 21.578125 74.21875 33.5 74.21875 
Q 38.578125 74.21875 44.625 73.109375 
Q 50.6875 72.015625 57.515625 69.921875 
L 57.515625 54.390625 
L 52 54.390625 
Q 51.171875 62.109375 46.84375 65.546875 
Q 42.53125 69 33.6875 69 
Q 25.984375 69 21.953125 65.84375 
Q 17.921875 62.703125 17.921875 56.6875 
Q 17.921875 51.46875 20.9375 48.484375 
Q 23.96875 45.515625 33.796875 42.578125 
L 42.828125 39.890625 
Q 52.734375 36.921875 56.953125 32.296875 
Q 61.1875 27.6875 61.1875 19.921875 
Q 61.1875 9.328125 54.390625 3.953125 
Q 47.609375 -1.421875 34.1875 -1.421875 
Q 28.171875 -1.421875 21.9375 -0.1875 
Q 15.71875 1.03125 9.28125 3.515625 
z
" id="DejaVuSerif-83"/>
      <path d="M 51.421875 15.578125 
Q 49.515625 7.28125 44.09375 2.921875 
Q 38.671875 -1.421875 30.078125 -1.421875 
Q 18.75 -1.421875 11.859375 6.078125 
Q 4.984375 13.578125 4.984375 25.984375 
Q 4.984375 38.421875 11.859375 45.875 
Q 18.75 53.328125 30.078125 53.328125 
Q 35.015625 53.328125 39.890625 52.171875 
Q 44.78125 51.03125 49.703125 48.6875 
L 49.703125 35.40625 
L 44.484375 35.40625 
Q 43.453125 42.234375 40.015625 45.359375 
Q 36.578125 48.484375 30.171875 48.484375 
Q 22.90625 48.484375 19.1875 42.84375 
Q 15.484375 37.203125 15.484375 25.984375 
Q 15.484375 14.75 19.171875 9.078125 
Q 22.859375 3.421875 30.171875 3.421875 
Q 35.984375 3.421875 39.453125 6.4375 
Q 42.921875 9.46875 44.1875 15.578125 
z
" id="DejaVuSerif-99"/>
      <path d="M 39.796875 16.3125 
L 39.796875 27.296875 
L 28.21875 27.296875 
Q 21.53125 27.296875 18.25 24.40625 
Q 14.984375 21.53125 14.984375 15.578125 
Q 14.984375 10.15625 18.296875 6.984375 
Q 21.625 3.8125 27.296875 3.8125 
Q 32.90625 3.8125 36.34375 7.28125 
Q 39.796875 10.75 39.796875 16.3125 
z
M 48.78125 32.421875 
L 48.78125 5.171875 
L 56.78125 5.171875 
L 56.78125 0 
L 39.796875 0 
L 39.796875 5.609375 
Q 36.8125 2 32.90625 0.28125 
Q 29 -1.421875 23.78125 -1.421875 
Q 15.140625 -1.421875 10.0625 3.171875 
Q 4.984375 7.765625 4.984375 15.578125 
Q 4.984375 23.640625 10.796875 28.078125 
Q 16.609375 32.515625 27.203125 32.515625 
L 39.796875 32.515625 
L 39.796875 36.078125 
Q 39.796875 42 36.203125 45.234375 
Q 32.625 48.484375 26.125 48.484375 
Q 20.75 48.484375 17.578125 46.046875 
Q 14.40625 43.609375 13.625 38.8125 
L 8.984375 38.8125 
L 8.984375 49.3125 
Q 13.671875 51.3125 18.09375 52.3125 
Q 22.515625 53.328125 26.703125 53.328125 
Q 37.5 53.328125 43.140625 47.96875 
Q 48.78125 42.625 48.78125 32.421875 
z
" id="DejaVuSerif-97"/>
      <path d="M 20.515625 5.171875 
L 29 5.171875 
L 29 0 
L 2.875 0 
L 2.875 5.171875 
L 11.53125 5.171875 
L 11.53125 70.796875 
L 2.875 70.796875 
L 2.875 75.984375 
L 20.515625 75.984375 
z
" id="DejaVuSerif-108"/>
      <path d="M 54.203125 25 
L 15.484375 25 
L 15.484375 24.609375 
Q 15.484375 14.109375 19.4375 8.765625 
Q 23.390625 3.421875 31.109375 3.421875 
Q 37.015625 3.421875 40.796875 6.515625 
Q 44.578125 9.625 46.09375 15.71875 
L 53.328125 15.71875 
Q 51.171875 7.171875 45.375 2.875 
Q 39.59375 -1.421875 30.171875 -1.421875 
Q 18.796875 -1.421875 11.890625 6.078125 
Q 4.984375 13.578125 4.984375 25.984375 
Q 4.984375 38.28125 11.765625 45.796875 
Q 18.5625 53.328125 29.59375 53.328125 
Q 41.359375 53.328125 47.65625 46.0625 
Q 53.953125 38.8125 54.203125 25 
z
M 43.609375 30.171875 
Q 43.3125 39.265625 39.765625 43.875 
Q 36.234375 48.484375 29.59375 48.484375 
Q 23.390625 48.484375 19.828125 43.84375 
Q 16.265625 39.203125 15.484375 30.171875 
z
" id="DejaVuSerif-101"/>
      <path d="M 52.484375 5.171875 
L 61.078125 5.171875 
L 61.078125 0 
L 43.5 0 
L 43.5 8.109375 
Q 40.875 3.21875 36.796875 0.890625 
Q 32.71875 -1.421875 26.703125 -1.421875 
Q 17.140625 -1.421875 11.0625 6.171875 
Q 4.984375 13.765625 4.984375 25.984375 
Q 4.984375 38.1875 11.03125 45.75 
Q 17.09375 53.328125 26.703125 53.328125 
Q 32.71875 53.328125 36.796875 51 
Q 40.875 48.6875 43.5 43.796875 
L 43.5 70.796875 
L 35.015625 70.796875 
L 35.015625 75.984375 
L 52.484375 75.984375 
z
M 43.5 23.390625 
L 43.5 28.515625 
Q 43.5 37.84375 39.90625 42.765625 
Q 36.328125 47.703125 29.5 47.703125 
Q 22.5625 47.703125 19.015625 42.234375 
Q 15.484375 36.765625 15.484375 25.984375 
Q 15.484375 15.234375 19.015625 9.71875 
Q 22.5625 4.203125 29.5 4.203125 
Q 36.328125 4.203125 39.90625 9.109375 
Q 43.5 14.015625 43.5 23.390625 
z
" id="DejaVuSerif-100"/>
      <path id="DejaVuSerif-32"/>
      <path d="M 24.703125 5.171875 
L 33.984375 5.171875 
L 33.984375 0 
L 5.515625 0 
L 5.515625 5.171875 
L 14.796875 5.171875 
L 14.796875 67.671875 
L 5.515625 67.671875 
L 5.515625 72.90625 
L 33.984375 72.90625 
L 33.984375 67.671875 
L 24.703125 67.671875 
z
" id="DejaVuSerif-73"/>
      <path d="M 4.109375 0 
L 4.109375 5.171875 
L 12.203125 5.171875 
L 12.203125 46.6875 
L 3.609375 46.6875 
L 3.609375 51.90625 
L 21.1875 51.90625 
L 21.1875 42.671875 
Q 23.6875 47.953125 27.65625 50.640625 
Q 31.640625 53.328125 36.921875 53.328125 
Q 45.515625 53.328125 49.5625 48.390625 
Q 53.609375 43.453125 53.609375 33.015625 
L 53.609375 5.171875 
L 61.625 5.171875 
L 61.625 0 
L 36.8125 0 
L 36.8125 5.171875 
L 44.578125 5.171875 
L 44.578125 30.171875 
Q 44.578125 39.703125 42.234375 43.234375 
Q 39.890625 46.78125 33.984375 46.78125 
Q 27.734375 46.78125 24.453125 42.203125 
Q 21.1875 37.640625 21.1875 28.90625 
L 21.1875 5.171875 
L 29 5.171875 
L 29 0 
z
" id="DejaVuSerif-110"/>
      <path d="M 10.796875 46.6875 
L 2.875 46.6875 
L 2.875 51.90625 
L 10.796875 51.90625 
L 10.796875 68.015625 
L 19.828125 68.015625 
L 19.828125 51.90625 
L 36.71875 51.90625 
L 36.71875 46.6875 
L 19.828125 46.6875 
L 19.828125 13.71875 
Q 19.828125 7.125 21.09375 5.265625 
Q 22.359375 3.421875 25.78125 3.421875 
Q 29.296875 3.421875 30.90625 5.484375 
Q 32.515625 7.5625 32.625 12.203125 
L 39.40625 12.203125 
Q 39.015625 5.125 35.546875 1.84375 
Q 32.078125 -1.421875 25 -1.421875 
Q 17.234375 -1.421875 14.015625 2.015625 
Q 10.796875 5.46875 10.796875 13.71875 
z
" id="DejaVuSerif-116"/>
      <path d="M 5.609375 2.875 
L 5.609375 14.984375 
L 10.796875 14.984375 
Q 10.984375 9.1875 14.421875 6.296875 
Q 17.875 3.421875 24.609375 3.421875 
Q 30.671875 3.421875 33.84375 5.6875 
Q 37.015625 7.953125 37.015625 12.3125 
Q 37.015625 15.71875 34.6875 17.8125 
Q 32.375 19.921875 24.90625 22.3125 
L 18.40625 24.515625 
Q 11.71875 26.65625 8.71875 29.875 
Q 5.71875 33.109375 5.71875 38.09375 
Q 5.71875 45.21875 10.9375 49.265625 
Q 16.15625 53.328125 25.390625 53.328125 
Q 29.5 53.328125 34.03125 52.25 
Q 38.578125 51.171875 43.40625 49.125 
L 43.40625 37.796875 
L 38.234375 37.796875 
Q 38.03125 42.828125 34.703125 45.65625 
Q 31.390625 48.484375 25.6875 48.484375 
Q 20.015625 48.484375 17.109375 46.484375 
Q 14.203125 44.484375 14.203125 40.484375 
Q 14.203125 37.203125 16.40625 35.21875 
Q 18.609375 33.25 25.203125 31.203125 
L 32.328125 29 
Q 39.703125 26.703125 42.9375 23.265625 
Q 46.1875 19.828125 46.1875 14.40625 
Q 46.1875 7.03125 40.546875 2.796875 
Q 34.90625 -1.421875 25 -1.421875 
Q 19.96875 -1.421875 15.1875 -0.34375 
Q 10.40625 0.734375 5.609375 2.875 
z
" id="DejaVuSerif-115"/>
      <path d="M 9.71875 68.015625 
Q 9.71875 70.265625 11.34375 71.921875 
Q 12.984375 73.578125 15.28125 73.578125 
Q 17.53125 73.578125 19.15625 71.921875 
Q 20.796875 70.265625 20.796875 68.015625 
Q 20.796875 65.71875 19.1875 64.109375 
Q 17.578125 62.5 15.28125 62.5 
Q 12.984375 62.5 11.34375 64.109375 
Q 9.71875 65.71875 9.71875 68.015625 
z
M 21.1875 5.171875 
L 29.6875 5.171875 
L 29.6875 0 
L 3.609375 0 
L 3.609375 5.171875 
L 12.203125 5.171875 
L 12.203125 46.6875 
L 3.609375 46.6875 
L 3.609375 51.90625 
L 21.1875 51.90625 
z
" id="DejaVuSerif-105"/>
      <path d="M 21.578125 -9.515625 
L 25 -0.875 
L 5.609375 46.6875 
L -0.296875 46.6875 
L -0.296875 51.90625 
L 23.578125 51.90625 
L 23.578125 46.6875 
L 15.28125 46.6875 
L 29.890625 10.984375 
L 44.484375 46.6875 
L 36.71875 46.6875 
L 36.71875 51.90625 
L 56.203125 51.90625 
L 56.203125 46.6875 
L 50.390625 46.6875 
L 26.609375 -11.71875 
Q 24.171875 -17.78125 21.1875 -20 
Q 18.21875 -22.21875 12.796875 -22.21875 
Q 10.5 -22.21875 8.078125 -21.828125 
Q 5.671875 -21.4375 3.21875 -20.703125 
L 3.21875 -10.796875 
L 7.8125 -10.796875 
Q 8.109375 -14.109375 9.5 -15.546875 
Q 10.890625 -17 13.8125 -17 
Q 16.5 -17 18.140625 -15.5 
Q 19.78125 -14.015625 21.578125 -9.515625 
z
" id="DejaVuSerif-121"/>
     </defs>
     <g style="fill:#262626;" transform="translate(11.185365 151.119664)rotate(-90)scale(0.096 -0.096)">
      <use xlink:href="#DejaVuSerif-83"/>
      <use x="68.505859" xlink:href="#DejaVuSerif-99"/>
      <use x="124.511719" xlink:href="#DejaVuSerif-97"/>
      <use x="184.130859" xlink:href="#DejaVuSerif-108"/>
      <use x="216.113281" xlink:href="#DejaVuSerif-101"/>
      <use x="275.292969" xlink:href="#DejaVuSerif-100"/>
      <use x="339.306641" xlink:href="#DejaVuSerif-32"/>
      <use x="371.09375" xlink:href="#DejaVuSerif-73"/>
      <use x="410.595703" xlink:href="#DejaVuSerif-110"/>
      <use x="475" xlink:href="#DejaVuSerif-116"/>
      <use x="515.185547" xlink:href="#DejaVuSerif-101"/>
      <use x="574.365234" xlink:href="#DejaVuSerif-110"/>
      <use x="638.769531" xlink:href="#DejaVuSerif-115"/>
      <use x="690.087891" xlink:href="#DejaVuSerif-105"/>
      <use x="722.070312" xlink:href="#DejaVuSerif-116"/>
      <use x="762.255859" xlink:href="#DejaVuSerif-121"/>
     </g>
    </g>
   </g>
   <g id="line2d_1">
    <path clip-path="url(#p8a2c5bf8b9)" d="M 74.169627 84.934688 
L 79.499507 84.608329 
L 84.829387 81.304574 
L 90.159267 93.211704 
L 95.489147 81.524835 
L 100.819027 81.040109 
L 106.148906 92.413993 
L 111.478786 106.619571 
L 116.808666 100.300559 
L 122.138546 103.216053 
L 127.468426 104.070428 
L 132.798306 112.225898 
L 138.128186 113.290663 
L 143.458065 103.755336 
L 148.787945 117.834862 
L 154.117825 114.091201 
L 159.447705 114.653228 
L 164.777585 115.005506 
L 170.107465 108.637006 
L 175.437345 117.395834 
L 180.767224 116.072178 
L 186.097104 120.947444 
L 191.426984 116.736288 
L 196.756864 116.554265 
L 202.086744 118.953515 
L 207.416624 119.908729 
L 212.746504 115.730611 
L 218.076383 111.074175 
L 223.406263 109.995875 
L 228.736143 102.645414 
L 234.066023 90.143562 
L 239.395903 93.626791 
L 244.725783 88.312342 
L 250.055663 95.005607 
L 255.385542 90.699428 
L 260.715422 90.78808 
L 266.045302 92.232158 
L 271.375182 87.883395 
L 276.705062 87.224297 
L 282.034942 87.179746 
L 287.364822 84.517272 
L 292.694701 88.343526 
L 298.024581 90.504465 
L 303.354461 86.482964 
L 308.684341 89.830218 
L 314.014221 88.919358 
L 319.344101 83.189821 
L 324.673981 87.448871 
L 330.00386 84.82332 
L 335.33374 81.339218 
L 340.66362 75.965989 
L 345.9935 79.650422 
L 351.32338 85.194846 
L 356.65326 78.29 
L 361.98314 73.759958 
L 367.313019 69.719199 
L 372.642899 72.542554 
L 377.972779 76.266435 
L 383.302659 76.34967 
L 388.632539 77.13945 
L 393.962419 76.2689 
L 399.292299 72.993056 
L 404.622178 74.771129 
L 409.952058 72.016903 
L 415.281938 74.402852 
L 420.611818 74.336902 
L 425.941698 73.87887 
L 431.271578 74.967006 
L 436.601458 74.690619 
L 441.931337 68.086075 
L 447.261217 62.877544 
L 452.591097 40.212386 
L 457.920977 24.978756 
L 463.250857 39.494335 
L 468.580737 53.2506 
L 473.910617 62.892966 
L 479.240496 64.858412 
L 484.570376 73.462617 
L 489.900256 76.42106 
L 495.230136 83.120966 
L 500.560016 80.971844 
L 505.889896 83.021457 
L 511.219776 85.282391 
L 516.549655 87.068638 
L 521.879535 91.744983 
L 527.209415 94.386507 
L 532.539295 99.42364 
L 537.869175 96.34706 
L 543.199055 90.899248 
L 548.528935 88.603787 
L 553.858814 82.566789 
L 559.188694 91.01283 
L 564.518574 89.025628 
L 569.848454 90.115691 
L 575.178334 94.087849 
L 580.508214 79.706529 
L 585.838094 83.044784 
L 591.167973 100.517203 
L 596.497853 100.521299 
L 601.827733 102.998997 
L 607.157613 94.53274 
L 612.487493 87.502963 
L 617.817373 80.533738 
" style="fill:none;stroke:#c8102e;stroke-linecap:round;stroke-width:1.2;"/>
   </g>
   <g id="line2d_2">
    <path clip-path="url(#p8a2c5bf8b9)" d="M 74.169627 119.911439 
L 79.499507 127.20118 
L 84.829387 123.079091 
L 90.159267 132.051381 
L 95.489147 118.009564 
L 100.819027 116.063309 
L 106.148906 125.883609 
L 111.478786 141.170302 
L 116.808666 135.751189 
L 122.138546 141.998507 
L 127.468426 142.701387 
L 132.798306 145.515682 
L 138.128186 151.189732 
L 143.458065 144.977423 
L 148.787945 153.156086 
L 154.117825 150.009872 
L 159.447705 149.388757 
L 164.777585 155.470209 
L 170.107465 153.648039 
L 175.437345 150.343255 
L 180.767224 151.760994 
L 186.097104 156.987118 
L 191.426984 153.301319 
L 196.756864 157.037804 
L 202.086744 155.816947 
L 207.416624 155.599857 
L 212.746504 151.522837 
L 218.076383 145.085222 
L 223.406263 143.675111 
L 228.736143 140.401843 
L 234.066023 126.640706 
L 239.395903 128.42959 
L 244.725783 125.170339 
L 250.055663 131.580198 
L 255.385542 132.246289 
L 260.715422 131.153686 
L 266.045302 135.748 
L 271.375182 133.735302 
L 276.705062 135.051376 
L 282.034942 133.381186 
L 287.364822 135.248564 
L 292.694701 136.724009 
L 298.024581 137.457362 
L 303.354461 137.593484 
L 308.684341 137.392922 
L 314.014221 136.75786 
L 319.344101 131.680453 
L 324.673981 137.230623 
L 330.00386 136.036143 
L 335.33374 132.62819 
L 340.66362 126.384505 
L 345.9935 130.655542 
L 351.32338 134.418436 
L 356.65326 129.926328 
L 361.98314 127.708142 
L 367.313019 125.991088 
L 372.642899 127.043079 
L 377.972779 133.393192 
L 383.302659 130.66038 
L 388.632539 133.647308 
L 393.962419 131.386786 
L 399.292299 130.21144 
L 404.622178 132.383652 
L 409.952058 127.343233 
L 415.281938 131.628349 
L 420.611818 129.165134 
L 425.941698 129.382772 
L 431.271578 124.373604 
L 436.601458 118.59435 
L 441.931337 111.736724 
L 447.261217 102.501627 
L 452.591097 76.030199 
L 457.920977 65.418967 
L 463.250857 80.432555 
L 468.580737 98.825856 
L 473.910617 109.237557 
L 479.240496 116.731353 
L 484.570376 121.573604 
L 489.900256 127.044363 
L 495.230136 134.369192 
L 500.560016 137.296453 
L 505.889896 137.21123 
L 511.219776 138.45603 
L 516.549655 139.537526 
L 521.879535 143.8807 
L 527.209415 140.430059 
L 532.539295 144.942325 
L 537.869175 139.289295 
L 543.199055 138.143129 
L 548.528935 141.758881 
L 553.858814 137.13775 
L 559.188694 139.128326 
L 564.518574 139.598064 
L 569.848454 136.26676 
L 575.178334 140.661445 
L 580.508214 135.951231 
L 585.838094 134.629962 
L 591.167973 143.666895 
L 596.497853 142.449815 
L 601.827733 141.696425 
L 607.157613 140.60411 
L 612.487493 139.21619 
L 617.817373 137.459118 
" style="fill:none;stroke:#00b388;stroke-linecap:round;stroke-width:1.2;"/>
   </g>
   <g id="line2d_3">
    <path clip-path="url(#p8a2c5bf8b9)" d="M 74.169627 154.888191 
L 79.499507 169.794031 
L 84.829387 164.853607 
L 90.159267 170.891059 
L 95.489147 154.494293 
L 100.819027 151.086511 
L 106.148906 159.353228 
L 111.478786 175.721028 
L 116.808666 171.20182 
L 122.138546 180.780961 
L 127.468426 181.332344 
L 132.798306 178.805468 
L 138.128186 189.0888 
L 143.458065 186.199505 
L 148.787945 188.477306 
L 154.117825 185.92854 
L 159.447705 184.12429 
L 164.777585 195.934911 
L 170.107465 198.659072 
L 175.437345 183.290672 
L 180.767224 187.449815 
L 186.097104 193.026792 
L 191.426984 189.866347 
L 196.756864 197.521339 
L 202.086744 192.680378 
L 207.416624 191.290985 
L 212.746504 187.31506 
L 218.076383 179.096266 
L 223.406263 177.354342 
L 228.736143 178.158274 
L 234.066023 163.137847 
L 239.395903 163.232388 
L 244.725783 162.028334 
L 250.055663 168.154786 
L 255.385542 173.793145 
L 260.715422 171.519291 
L 266.045302 179.263839 
L 271.375182 179.587213 
L 276.705062 182.878456 
L 282.034942 179.582625 
L 287.364822 185.979856 
L 292.694701 185.104487 
L 298.024581 184.410259 
L 303.354461 188.703998 
L 308.684341 184.955627 
L 314.014221 184.596367 
L 319.344101 180.171089 
L 324.673981 187.012371 
L 330.00386 187.248961 
L 335.33374 183.917162 
L 340.66362 176.803015 
L 345.9935 181.660658 
L 351.32338 183.642027 
L 356.65326 181.56266 
L 361.98314 181.656321 
L 367.313019 182.262977 
L 372.642899 181.543605 
L 377.972779 190.519945 
L 383.302659 184.971086 
L 388.632539 190.155161 
L 393.962419 186.504677 
L 399.292299 187.429824 
L 404.622178 189.99618 
L 409.952058 182.669558 
L 415.281938 188.853841 
L 420.611818 183.993362 
L 425.941698 184.886674 
L 431.271578 173.780207 
L 436.601458 162.498076 
L 441.931337 155.387372 
L 447.261217 142.125713 
L 452.591097 111.848013 
L 457.920977 105.85918 
L 463.250857 121.370777 
L 468.580737 144.401114 
L 473.910617 155.582151 
L 479.240496 168.604296 
L 484.570376 169.684587 
L 489.900256 177.66767 
L 495.230136 185.617418 
L 500.560016 193.621067 
L 505.889896 191.401004 
L 511.219776 191.62967 
L 516.549655 192.006418 
L 521.879535 196.016422 
L 527.209415 186.473611 
L 532.539295 190.46101 
L 537.869175 182.231531 
L 543.199055 185.387009 
L 548.528935 194.913972 
L 553.858814 191.708716 
L 559.188694 187.243827 
L 564.518574 190.1705 
L 569.848454 182.417824 
L 575.178334 187.235041 
L 580.508214 192.195928 
L 585.838094 186.21514 
L 591.167973 186.816587 
L 596.497853 184.378331 
L 601.827733 180.393851 
L 607.157613 186.675484 
L 612.487493 190.929418 
L 617.817373 194.384498 
" style="fill:none;stroke:#f6be00;stroke-linecap:round;stroke-width:1.2;"/>
   </g>
   <g id="line2d_4"/>
   <g id="line2d_5"/>
   <g id="line2d_6"/>
   <g id="patch_3">
    <path d="M 46.98724 207.343087 
L 46.98724 16.29474 
" style="fill:none;stroke:#262626;stroke-linecap:square;stroke-linejoin:miter;"/>
   </g>
   <g id="patch_4">
    <path d="M 644.99976 207.343087 
L 644.99976 16.29474 
" style="fill:none;stroke:#262626;stroke-linecap:square;stroke-linejoin:miter;"/>
   </g>
   <g id="patch_5">
    <path d="M 46.98724 207.343087 
L 644.99976 207.343087 
" style="fill:none;stroke:#262626;stroke-linecap:square;stroke-linejoin:miter;"/>
   </g>
   <g id="patch_6">
    <path d="M 46.98724 16.29474 
L 644.99976 16.29474 
" style="fill:none;stroke:#262626;stroke-linecap:square;stroke-linejoin:miter;"/>
   </g>
   <g id="text_9">
    <!-- Meadows Generated Samples -->
    <defs>
     <path d="M 5.515625 0 
L 5.515625 5.171875 
L 14.796875 5.171875 
L 14.796875 67.671875 
L 4.984375 67.671875 
L 4.984375 72.90625 
L 26.21875 72.90625 
L 51.8125 21 
L 77.390625 72.90625 
L 97.3125 72.90625 
L 97.3125 67.671875 
L 87.59375 67.671875 
L 87.59375 5.171875 
L 96.921875 5.171875 
L 96.921875 0 
L 68.40625 0 
L 68.40625 5.171875 
L 77.6875 5.171875 
L 77.6875 61.53125 
L 52.6875 10.6875 
L 45.796875 10.6875 
L 20.796875 61.53125 
L 20.796875 5.171875 
L 30.078125 5.171875 
L 30.078125 0 
z
" id="DejaVuSerif-77"/>
     <path d="M 30.078125 3.421875 
Q 37.3125 3.421875 40.984375 9.125 
Q 44.671875 14.84375 44.671875 25.984375 
Q 44.671875 37.109375 40.984375 42.796875 
Q 37.3125 48.484375 30.078125 48.484375 
Q 22.859375 48.484375 19.171875 42.796875 
Q 15.484375 37.109375 15.484375 25.984375 
Q 15.484375 14.84375 19.1875 9.125 
Q 22.90625 3.421875 30.078125 3.421875 
z
M 30.078125 -1.421875 
Q 18.75 -1.421875 11.859375 6.078125 
Q 4.984375 13.578125 4.984375 25.984375 
Q 4.984375 38.375 11.84375 45.84375 
Q 18.703125 53.328125 30.078125 53.328125 
Q 41.453125 53.328125 48.3125 45.84375 
Q 55.171875 38.375 55.171875 25.984375 
Q 55.171875 13.578125 48.3125 6.078125 
Q 41.453125 -1.421875 30.078125 -1.421875 
z
" id="DejaVuSerif-111"/>
     <path d="M 48 51.90625 
L 61.28125 11.375 
L 73 46.6875 
L 65.484375 46.6875 
L 65.484375 51.90625 
L 84.28125 51.90625 
L 84.28125 46.6875 
L 78.515625 46.6875 
L 63.09375 0 
L 55.609375 0 
L 42.828125 38.8125 
L 29.984375 0 
L 22.796875 0 
L 7.421875 46.6875 
L 1.609375 46.6875 
L 1.609375 51.90625 
L 25.09375 51.90625 
L 25.09375 46.6875 
L 16.703125 46.6875 
L 28.328125 11.375 
L 41.703125 51.90625 
z
" id="DejaVuSerif-119"/>
     <path d="M 64.015625 51.125 
Q 62.3125 60.25 56.890625 64.625 
Q 51.46875 69 41.796875 69 
Q 29.203125 69 23 60.890625 
Q 16.796875 52.78125 16.796875 36.375 
Q 16.796875 20.3125 23.1875 12.0625 
Q 29.59375 3.8125 42 3.8125 
Q 47.515625 3.8125 52.53125 5.171875 
Q 57.5625 6.546875 62.109375 9.28125 
L 62.109375 28.078125 
L 48.390625 28.078125 
L 48.390625 33.296875 
L 72.015625 33.296875 
L 72.015625 6.109375 
Q 65.53125 2.34375 58.03125 0.453125 
Q 50.53125 -1.421875 42 -1.421875 
Q 25.484375 -1.421875 15.546875 8.90625 
Q 5.609375 19.234375 5.609375 36.375 
Q 5.609375 53.65625 15.5625 63.9375 
Q 25.53125 74.21875 42.390625 74.21875 
Q 48.640625 74.21875 55.296875 72.78125 
Q 61.96875 71.34375 69.484375 68.40625 
L 69.484375 51.125 
z
" id="DejaVuSerif-71"/>
     <path d="M 47.796875 52 
L 47.796875 39.015625 
L 42.625 39.015625 
Q 42.390625 42.875 40.484375 44.78125 
Q 38.578125 46.6875 34.90625 46.6875 
Q 28.265625 46.6875 24.71875 42.09375 
Q 21.1875 37.5 21.1875 28.90625 
L 21.1875 5.171875 
L 31.59375 5.171875 
L 31.59375 0 
L 4.109375 0 
L 4.109375 5.171875 
L 12.203125 5.171875 
L 12.203125 46.78125 
L 3.609375 46.78125 
L 3.609375 51.90625 
L 21.1875 51.90625 
L 21.1875 42.671875 
Q 23.828125 48.09375 27.96875 50.703125 
Q 32.125 53.328125 38.09375 53.328125 
Q 40.28125 53.328125 42.703125 52.984375 
Q 45.125 52.640625 47.796875 52 
z
" id="DejaVuSerif-114"/>
     <path d="M 51.8125 41.796875 
Q 54.390625 47.515625 58.421875 50.421875 
Q 62.453125 53.328125 67.828125 53.328125 
Q 75.984375 53.328125 79.984375 48.265625 
Q 83.984375 43.21875 83.984375 33.015625 
L 83.984375 5.171875 
L 92.09375 5.171875 
L 92.09375 0 
L 67.1875 0 
L 67.1875 5.171875 
L 75 5.171875 
L 75 31.984375 
Q 75 39.9375 72.65625 43.3125 
Q 70.3125 46.6875 64.890625 46.6875 
Q 58.890625 46.6875 55.734375 42.140625 
Q 52.59375 37.59375 52.59375 28.90625 
L 52.59375 5.171875 
L 60.40625 5.171875 
L 60.40625 0 
L 35.796875 0 
L 35.796875 5.171875 
L 43.609375 5.171875 
L 43.609375 32.328125 
Q 43.609375 40.09375 41.265625 43.390625 
Q 38.921875 46.6875 33.5 46.6875 
Q 27.484375 46.6875 24.328125 42.140625 
Q 21.1875 37.59375 21.1875 28.90625 
L 21.1875 5.171875 
L 29 5.171875 
L 29 0 
L 4.109375 0 
L 4.109375 5.171875 
L 12.203125 5.171875 
L 12.203125 46.78125 
L 3.609375 46.78125 
L 3.609375 51.90625 
L 21.1875 51.90625 
L 21.1875 42.671875 
Q 23.6875 47.859375 27.53125 50.59375 
Q 31.390625 53.328125 36.28125 53.328125 
Q 42.328125 53.328125 46.375 50.3125 
Q 50.4375 47.3125 51.8125 41.796875 
z
" id="DejaVuSerif-109"/>
     <path d="M 20.515625 28.515625 
L 20.515625 23.390625 
Q 20.515625 14.015625 24.09375 9.109375 
Q 27.6875 4.203125 34.515625 4.203125 
Q 41.40625 4.203125 44.9375 9.71875 
Q 48.484375 15.234375 48.484375 25.984375 
Q 48.484375 36.765625 44.9375 42.234375 
Q 41.40625 47.703125 34.515625 47.703125 
Q 27.6875 47.703125 24.09375 42.765625 
Q 20.515625 37.84375 20.515625 28.515625 
z
M 11.53125 46.6875 
L 2.875 46.6875 
L 2.875 51.90625 
L 20.515625 51.90625 
L 20.515625 43.796875 
Q 23.140625 48.6875 27.21875 51 
Q 31.296875 53.328125 37.3125 53.328125 
Q 46.875 53.328125 52.921875 45.75 
Q 58.984375 38.1875 58.984375 25.984375 
Q 58.984375 13.765625 52.921875 6.171875 
Q 46.875 -1.421875 37.3125 -1.421875 
Q 31.296875 -1.421875 27.21875 0.890625 
Q 23.140625 3.21875 20.515625 8.109375 
L 20.515625 -15.578125 
L 29 -15.578125 
L 29 -20.796875 
L 2.875 -20.796875 
L 2.875 -15.578125 
L 11.53125 -15.578125 
z
" id="DejaVuSerif-112"/>
    </defs>
    <g style="fill:#262626;" transform="translate(273.56975 10.29474)scale(0.096 -0.096)">
     <use xlink:href="#DejaVuSerif-77"/>
     <use x="102.392578" xlink:href="#DejaVuSerif-101"/>
     <use x="161.572266" xlink:href="#DejaVuSerif-97"/>
     <use x="221.191406" xlink:href="#DejaVuSerif-100"/>
     <use x="285.205078" xlink:href="#DejaVuSerif-111"/>
     <use x="345.410156" xlink:href="#DejaVuSerif-119"/>
     <use x="431.005859" xlink:href="#DejaVuSerif-115"/>
     <use x="482.324219" xlink:href="#DejaVuSerif-32"/>
     <use x="514.111328" xlink:href="#DejaVuSerif-71"/>
     <use x="593.994141" xlink:href="#DejaVuSerif-101"/>
     <use x="653.173828" xlink:href="#DejaVuSerif-110"/>
     <use x="717.578125" xlink:href="#DejaVuSerif-101"/>
     <use x="776.757812" xlink:href="#DejaVuSerif-114"/>
     <use x="824.560547" xlink:href="#DejaVuSerif-97"/>
     <use x="884.179688" xlink:href="#DejaVuSerif-116"/>
     <use x="924.365234" xlink:href="#DejaVuSerif-101"/>
     <use x="983.544922" xlink:href="#DejaVuSerif-100"/>
     <use x="1047.558594" xlink:href="#DejaVuSerif-32"/>
     <use x="1079.345703" xlink:href="#DejaVuSerif-83"/>
     <use x="1147.851562" xlink:href="#DejaVuSerif-97"/>
     <use x="1207.470703" xlink:href="#DejaVuSerif-109"/>
     <use x="1302.294922" xlink:href="#DejaVuSerif-112"/>
     <use x="1366.308594" xlink:href="#DejaVuSerif-108"/>
     <use x="1398.291016" xlink:href="#DejaVuSerif-101"/>
     <use x="1457.470703" xlink:href="#DejaVuSerif-115"/>
    </g>
   </g>
  </g>
  <g id="axes_2">
   <g id="legend_1">
    <g id="line2d_7">
     <path d="M 156.355562 226.291201 
L 173.955562 226.291201 
" style="fill:none;stroke:#c8102e;stroke-linecap:round;stroke-width:1.2;"/>
    </g>
    <g id="line2d_8"/>
    <g id="text_10">
     <!-- Mean + Standard Deviation -->
     <defs>
      <path d="M 45.796875 62.703125 
L 45.796875 35.296875 
L 73.1875 35.296875 
L 73.1875 27.390625 
L 45.796875 27.390625 
L 45.796875 0 
L 37.984375 0 
L 37.984375 27.390625 
L 10.59375 27.390625 
L 10.59375 35.296875 
L 37.984375 35.296875 
L 37.984375 62.703125 
z
" id="DejaVuSerif-43"/>
      <path d="M 24.703125 5.171875 
L 33.796875 5.171875 
Q 48 5.171875 55.59375 13.28125 
Q 63.1875 21.390625 63.1875 36.53125 
Q 63.1875 51.65625 55.609375 59.65625 
Q 48.046875 67.671875 33.796875 67.671875 
L 24.703125 67.671875 
z
M 5.515625 0 
L 5.515625 5.171875 
L 14.796875 5.171875 
L 14.796875 67.671875 
L 5.515625 67.671875 
L 5.515625 72.90625 
L 34.515625 72.90625 
Q 53.375 72.90625 63.890625 63.28125 
Q 74.421875 53.65625 74.421875 36.53125 
Q 74.421875 19.34375 63.875 9.671875 
Q 53.328125 0 34.515625 0 
z
" id="DejaVuSerif-68"/>
      <path d="M 24.703125 0 
L 5.609375 46.6875 
L -0.296875 46.6875 
L -0.296875 51.90625 
L 23.578125 51.90625 
L 23.578125 46.6875 
L 15.28125 46.6875 
L 29.890625 10.984375 
L 44.484375 46.6875 
L 36.71875 46.6875 
L 36.71875 51.90625 
L 56.203125 51.90625 
L 56.203125 46.6875 
L 50.390625 46.6875 
L 31.296875 0 
z
" id="DejaVuSerif-118"/>
     </defs>
     <g style="fill:#262626;" transform="translate(180.995563 229.371201)scale(0.088 -0.088)">
      <use xlink:href="#DejaVuSerif-77"/>
      <use x="102.392578" xlink:href="#DejaVuSerif-101"/>
      <use x="161.572266" xlink:href="#DejaVuSerif-97"/>
      <use x="221.191406" xlink:href="#DejaVuSerif-110"/>
      <use x="285.595703" xlink:href="#DejaVuSerif-32"/>
      <use x="317.382812" xlink:href="#DejaVuSerif-43"/>
      <use x="401.171875" xlink:href="#DejaVuSerif-32"/>
      <use x="432.958984" xlink:href="#DejaVuSerif-83"/>
      <use x="501.464844" xlink:href="#DejaVuSerif-116"/>
      <use x="541.650391" xlink:href="#DejaVuSerif-97"/>
      <use x="601.269531" xlink:href="#DejaVuSerif-110"/>
      <use x="665.673828" xlink:href="#DejaVuSerif-100"/>
      <use x="729.6875" xlink:href="#DejaVuSerif-97"/>
      <use x="789.306641" xlink:href="#DejaVuSerif-114"/>
      <use x="837.109375" xlink:href="#DejaVuSerif-100"/>
      <use x="901.123047" xlink:href="#DejaVuSerif-32"/>
      <use x="932.910156" xlink:href="#DejaVuSerif-68"/>
      <use x="1013.085938" xlink:href="#DejaVuSerif-101"/>
      <use x="1072.265625" xlink:href="#DejaVuSerif-118"/>
      <use x="1128.759766" xlink:href="#DejaVuSerif-105"/>
      <use x="1160.742188" xlink:href="#DejaVuSerif-97"/>
      <use x="1220.361328" xlink:href="#DejaVuSerif-116"/>
      <use x="1260.546875" xlink:href="#DejaVuSerif-105"/>
      <use x="1292.529297" xlink:href="#DejaVuSerif-111"/>
      <use x="1352.734375" xlink:href="#DejaVuSerif-110"/>
     </g>
    </g>
    <g id="line2d_9">
     <path d="M 323.306687 226.291201 
L 340.906687 226.291201 
" style="fill:none;stroke:#00b388;stroke-linecap:round;stroke-width:1.2;"/>
    </g>
    <g id="line2d_10"/>
    <g id="text_11">
     <!-- Mean -->
     <g style="fill:#262626;" transform="translate(347.946687 229.371201)scale(0.088 -0.088)">
      <use xlink:href="#DejaVuSerif-77"/>
      <use x="102.392578" xlink:href="#DejaVuSerif-101"/>
      <use x="161.572266" xlink:href="#DejaVuSerif-97"/>
      <use x="221.191406" xlink:href="#DejaVuSerif-110"/>
     </g>
    </g>
    <g id="line2d_11">
     <path d="M 390.680313 226.291201 
L 408.280313 226.291201 
" style="fill:none;stroke:#f6be00;stroke-linecap:round;stroke-width:1.2;"/>
    </g>
    <g id="line2d_12"/>
    <g id="text_12">
     <!-- Mean - Standard Deviation -->
     <defs>
      <path d="M 4.390625 30.609375 
L 29.390625 30.609375 
L 29.390625 23 
L 4.390625 23 
z
" id="DejaVuSerif-45"/>
     </defs>
     <g style="fill:#262626;" transform="translate(415.320312 229.371201)scale(0.088 -0.088)">
      <use xlink:href="#DejaVuSerif-77"/>
      <use x="102.392578" xlink:href="#DejaVuSerif-101"/>
      <use x="161.572266" xlink:href="#DejaVuSerif-97"/>
      <use x="221.191406" xlink:href="#DejaVuSerif-110"/>
      <use x="285.595703" xlink:href="#DejaVuSerif-32"/>
      <use x="317.382812" xlink:href="#DejaVuSerif-45"/>
      <use x="351.171875" xlink:href="#DejaVuSerif-32"/>
      <use x="382.958984" xlink:href="#DejaVuSerif-83"/>
      <use x="451.464844" xlink:href="#DejaVuSerif-116"/>
      <use x="491.650391" xlink:href="#DejaVuSerif-97"/>
      <use x="551.269531" xlink:href="#DejaVuSerif-110"/>
      <use x="615.673828" xlink:href="#DejaVuSerif-100"/>
      <use x="679.6875" xlink:href="#DejaVuSerif-97"/>
      <use x="739.306641" xlink:href="#DejaVuSerif-114"/>
      <use x="787.109375" xlink:href="#DejaVuSerif-100"/>
      <use x="851.123047" xlink:href="#DejaVuSerif-32"/>
      <use x="882.910156" xlink:href="#DejaVuSerif-68"/>
      <use x="963.085938" xlink:href="#DejaVuSerif-101"/>
      <use x="1022.265625" xlink:href="#DejaVuSerif-118"/>
      <use x="1078.759766" xlink:href="#DejaVuSerif-105"/>
      <use x="1110.742188" xlink:href="#DejaVuSerif-97"/>
      <use x="1170.361328" xlink:href="#DejaVuSerif-116"/>
      <use x="1210.546875" xlink:href="#DejaVuSerif-105"/>
      <use x="1242.529297" xlink:href="#DejaVuSerif-111"/>
      <use x="1302.734375" xlink:href="#DejaVuSerif-110"/>
     </g>
    </g>
   </g>
  </g>
  <g id="axes_3">
   <g id="patch_7">
    <path d="M 46.98724 434.89201 
L 644.99976 434.89201 
L 644.99976 243.843663 
L 46.98724 243.843663 
z
" style="fill:#ffffff;"/>
   </g>
   <g id="matplotlib.axis_3">
    <g id="xtick_1">
     <g id="text_13">
      <!-- 0 -->
      <g style="fill:#262626;" transform="translate(71.370127 449.878635)scale(0.088 -0.088)">
       <use xlink:href="#DejaVuSerif-48"/>
      </g>
     </g>
    </g>
    <g id="xtick_2">
     <g id="text_14">
      <!-- 20 -->
      <g style="fill:#262626;" transform="translate(175.168224 449.878635)scale(0.088 -0.088)">
       <use xlink:href="#DejaVuSerif-50"/>
       <use x="63.623047" xlink:href="#DejaVuSerif-48"/>
      </g>
     </g>
    </g>
    <g id="xtick_3">
     <g id="text_15">
      <!-- 40 -->
      <g style="fill:#262626;" transform="translate(281.765822 449.878635)scale(0.088 -0.088)">
       <use xlink:href="#DejaVuSerif-52"/>
       <use x="63.623047" xlink:href="#DejaVuSerif-48"/>
      </g>
     </g>
    </g>
    <g id="xtick_4">
     <g id="text_16">
      <!-- 60 -->
      <g style="fill:#262626;" transform="translate(388.363419 449.878635)scale(0.088 -0.088)">
       <use xlink:href="#DejaVuSerif-54"/>
       <use x="63.623047" xlink:href="#DejaVuSerif-48"/>
      </g>
     </g>
    </g>
    <g id="xtick_5">
     <g id="text_17">
      <!-- 80 -->
      <g style="fill:#262626;" transform="translate(494.961016 449.878635)scale(0.088 -0.088)">
       <use xlink:href="#DejaVuSerif-56"/>
       <use x="63.623047" xlink:href="#DejaVuSerif-48"/>
      </g>
     </g>
    </g>
    <g id="xtick_6">
     <g id="text_18">
      <!-- 100 -->
      <defs>
       <path d="M 14.203125 0 
L 14.203125 5.171875 
L 26.90625 5.171875 
L 26.90625 65.828125 
L 12.203125 56.296875 
L 12.203125 62.703125 
L 29.984375 74.21875 
L 36.71875 74.21875 
L 36.71875 5.171875 
L 49.421875 5.171875 
L 49.421875 0 
z
" id="DejaVuSerif-49"/>
      </defs>
      <g style="fill:#262626;" transform="translate(598.759113 449.878635)scale(0.088 -0.088)">
       <use xlink:href="#DejaVuSerif-49"/>
       <use x="63.623047" xlink:href="#DejaVuSerif-48"/>
       <use x="127.246094" xlink:href="#DejaVuSerif-48"/>
      </g>
     </g>
    </g>
    <g id="text_19">
     <!-- Spectral Band -->
     <defs>
      <path d="M 24.703125 5.171875 
L 39.3125 5.171875 
Q 48.09375 5.171875 52.140625 8.984375 
Q 56.203125 12.796875 56.203125 21.09375 
Q 56.203125 29.34375 52.171875 33.125 
Q 48.140625 36.921875 39.3125 36.921875 
L 24.703125 36.921875 
z
M 24.703125 42.09375 
L 37.109375 42.09375 
Q 45.125 42.09375 48.796875 45.171875 
Q 52.484375 48.25 52.484375 54.890625 
Q 52.484375 61.578125 48.796875 64.625 
Q 45.125 67.671875 37.109375 67.671875 
L 24.703125 67.671875 
z
M 5.515625 0 
L 5.515625 5.171875 
L 14.796875 5.171875 
L 14.796875 67.671875 
L 5.515625 67.671875 
L 5.515625 72.90625 
L 41.5 72.90625 
Q 52.546875 72.90625 58.125 68.390625 
Q 63.71875 63.875 63.71875 54.890625 
Q 63.71875 48.390625 59.828125 44.53125 
Q 55.953125 40.671875 48.484375 39.796875 
Q 57.765625 38.625 62.578125 33.859375 
Q 67.390625 29.109375 67.390625 21.09375 
Q 67.390625 10.25 60.546875 5.125 
Q 53.71875 0 39.203125 0 
z
" id="DejaVuSerif-66"/>
     </defs>
     <g style="fill:#262626;" transform="translate(311.40425 463.00326)scale(0.096 -0.096)">
      <use xlink:href="#DejaVuSerif-83"/>
      <use x="68.505859" xlink:href="#DejaVuSerif-112"/>
      <use x="132.519531" xlink:href="#DejaVuSerif-101"/>
      <use x="191.699219" xlink:href="#DejaVuSerif-99"/>
      <use x="247.705078" xlink:href="#DejaVuSerif-116"/>
      <use x="287.890625" xlink:href="#DejaVuSerif-114"/>
      <use x="335.693359" xlink:href="#DejaVuSerif-97"/>
      <use x="395.3125" xlink:href="#DejaVuSerif-108"/>
      <use x="427.294922" xlink:href="#DejaVuSerif-32"/>
      <use x="459.082031" xlink:href="#DejaVuSerif-66"/>
      <use x="532.568359" xlink:href="#DejaVuSerif-97"/>
      <use x="592.1875" xlink:href="#DejaVuSerif-110"/>
      <use x="656.591797" xlink:href="#DejaVuSerif-100"/>
     </g>
    </g>
   </g>
   <g id="matplotlib.axis_4">
    <g id="ytick_8">
     <g id="text_20">
      <!-- 500 -->
      <defs>
       <path d="M 50.296875 72.90625 
L 50.296875 64.890625 
L 16.890625 64.890625 
L 16.890625 44 
Q 19.4375 45.75 22.828125 46.625 
Q 26.21875 47.515625 30.421875 47.515625 
Q 42.234375 47.515625 49.0625 40.96875 
Q 55.90625 34.421875 55.90625 23.09375 
Q 55.90625 11.53125 49 5.046875 
Q 42.09375 -1.421875 29.59375 -1.421875 
Q 24.5625 -1.421875 19.28125 -0.1875 
Q 14.015625 1.03125 8.5 3.515625 
L 8.5 17.671875 
L 14.015625 17.671875 
Q 14.453125 10.75 18.421875 7.078125 
Q 22.40625 3.421875 29.59375 3.421875 
Q 37.3125 3.421875 41.453125 8.5 
Q 45.609375 13.578125 45.609375 23.09375 
Q 45.609375 32.5625 41.484375 37.609375 
Q 37.359375 42.671875 29.59375 42.671875 
Q 25.203125 42.671875 21.84375 41.109375 
Q 18.5 39.546875 15.921875 36.28125 
L 11.71875 36.28125 
L 11.71875 72.90625 
z
" id="DejaVuSerif-53"/>
      </defs>
      <g style="fill:#262626;" transform="translate(21.89024 420.552153)scale(0.088 -0.088)">
       <use xlink:href="#DejaVuSerif-53"/>
       <use x="63.623047" xlink:href="#DejaVuSerif-48"/>
       <use x="127.246094" xlink:href="#DejaVuSerif-48"/>
      </g>
     </g>
    </g>
    <g id="ytick_9">
     <g id="text_21">
      <!-- 1000 -->
      <g style="fill:#262626;" transform="translate(16.29124 391.592522)scale(0.088 -0.088)">
       <use xlink:href="#DejaVuSerif-49"/>
       <use x="63.623047" xlink:href="#DejaVuSerif-48"/>
       <use x="127.246094" xlink:href="#DejaVuSerif-48"/>
       <use x="190.869141" xlink:href="#DejaVuSerif-48"/>
      </g>
     </g>
    </g>
    <g id="ytick_10">
     <g id="text_22">
      <!-- 1500 -->
      <g style="fill:#262626;" transform="translate(16.29124 362.632891)scale(0.088 -0.088)">
       <use xlink:href="#DejaVuSerif-49"/>
       <use x="63.623047" xlink:href="#DejaVuSerif-53"/>
       <use x="127.246094" xlink:href="#DejaVuSerif-48"/>
       <use x="190.869141" xlink:href="#DejaVuSerif-48"/>
      </g>
     </g>
    </g>
    <g id="ytick_11">
     <g id="text_23">
      <!-- 2000 -->
      <g style="fill:#262626;" transform="translate(16.29124 333.673261)scale(0.088 -0.088)">
       <use xlink:href="#DejaVuSerif-50"/>
       <use x="63.623047" xlink:href="#DejaVuSerif-48"/>
       <use x="127.246094" xlink:href="#DejaVuSerif-48"/>
       <use x="190.869141" xlink:href="#DejaVuSerif-48"/>
      </g>
     </g>
    </g>
    <g id="ytick_12">
     <g id="text_24">
      <!-- 2500 -->
      <g style="fill:#262626;" transform="translate(16.29124 304.71363)scale(0.088 -0.088)">
       <use xlink:href="#DejaVuSerif-50"/>
       <use x="63.623047" xlink:href="#DejaVuSerif-53"/>
       <use x="127.246094" xlink:href="#DejaVuSerif-48"/>
       <use x="190.869141" xlink:href="#DejaVuSerif-48"/>
      </g>
     </g>
    </g>
    <g id="ytick_13">
     <g id="text_25">
      <!-- 3000 -->
      <defs>
       <path d="M 9.71875 69.828125 
Q 15.4375 71.96875 20.671875 73.09375 
Q 25.921875 74.21875 30.515625 74.21875 
Q 41.21875 74.21875 47.21875 69.59375 
Q 53.21875 64.984375 53.21875 56.78125 
Q 53.21875 50.203125 49.0625 45.78125 
Q 44.921875 41.359375 37.3125 39.796875 
Q 46.296875 38.53125 51.25 33.28125 
Q 56.203125 28.03125 56.203125 19.671875 
Q 56.203125 9.46875 49.34375 4.015625 
Q 42.484375 -1.421875 29.59375 -1.421875 
Q 23.875 -1.421875 18.421875 -0.1875 
Q 12.984375 1.03125 7.625 3.515625 
L 7.625 17.671875 
L 13.09375 17.671875 
Q 13.578125 10.640625 17.828125 7.03125 
Q 22.078125 3.421875 29.78125 3.421875 
Q 37.25 3.421875 41.578125 7.734375 
Q 45.90625 12.0625 45.90625 19.578125 
Q 45.90625 28.171875 41.453125 32.59375 
Q 37.015625 37.015625 28.421875 37.015625 
L 23.78125 37.015625 
L 23.78125 42 
L 26.21875 42 
Q 34.765625 42 39.03125 45.53125 
Q 43.3125 49.078125 43.3125 56.203125 
Q 43.3125 62.59375 39.796875 65.984375 
Q 36.28125 69.390625 29.6875 69.390625 
Q 23.09375 69.390625 19.453125 66.265625 
Q 15.828125 63.140625 15.1875 56.984375 
L 9.71875 56.984375 
z
" id="DejaVuSerif-51"/>
      </defs>
      <g style="fill:#262626;" transform="translate(16.29124 275.753999)scale(0.088 -0.088)">
       <use xlink:href="#DejaVuSerif-51"/>
       <use x="63.623047" xlink:href="#DejaVuSerif-48"/>
       <use x="127.246094" xlink:href="#DejaVuSerif-48"/>
       <use x="190.869141" xlink:href="#DejaVuSerif-48"/>
      </g>
     </g>
    </g>
    <g id="text_26">
     <!-- Intensity -->
     <g style="fill:#262626;" transform="translate(10.15824 360.856086)rotate(-90)scale(0.096 -0.096)">
      <use xlink:href="#DejaVuSerif-73"/>
      <use x="39.501953" xlink:href="#DejaVuSerif-110"/>
      <use x="103.90625" xlink:href="#DejaVuSerif-116"/>
      <use x="144.091797" xlink:href="#DejaVuSerif-101"/>
      <use x="203.271484" xlink:href="#DejaVuSerif-110"/>
      <use x="267.675781" xlink:href="#DejaVuSerif-115"/>
      <use x="318.994141" xlink:href="#DejaVuSerif-105"/>
      <use x="350.976562" xlink:href="#DejaVuSerif-116"/>
      <use x="391.162109" xlink:href="#DejaVuSerif-121"/>
     </g>
    </g>
   </g>
   <g id="line2d_13">
    <path clip-path="url(#pd425fa90bf)" d="M 74.169627 388.803925 
L 79.499507 396.269209 
L 84.829387 401.284375 
L 90.159267 401.746756 
L 95.489147 401.650053 
L 100.819027 402.609648 
L 106.148906 403.352955 
L 111.478786 404.10795 
L 116.808666 404.438774 
L 122.138546 404.277477 
L 127.468426 403.919859 
L 132.798306 404.236665 
L 138.128186 404.215462 
L 143.458065 403.814528 
L 148.787945 403.415712 
L 154.117825 403.203319 
L 159.447705 402.473558 
L 164.777585 401.550112 
L 170.107465 400.636428 
L 175.437345 399.558297 
L 180.767224 398.332213 
L 186.097104 396.77326 
L 191.426984 395.196964 
L 196.756864 393.594354 
L 202.086744 391.64254 
L 207.416624 389.46896 
L 212.746504 388.070215 
L 218.076383 387.111472 
L 223.406263 386.218006 
L 228.736143 385.000857 
L 234.066023 383.736599 
L 239.395903 382.899341 
L 244.725783 382.36625 
L 250.055663 381.682817 
L 255.385542 381.165097 
L 260.715422 380.818116 
L 266.045302 380.592084 
L 271.375182 380.307803 
L 276.705062 379.98066 
L 282.034942 379.557601 
L 287.364822 379.163544 
L 292.694701 378.844578 
L 298.024581 378.375228 
L 303.354461 377.756427 
L 308.684341 377.024488 
L 314.014221 376.421071 
L 319.344101 376.115206 
L 324.673981 375.915958 
L 330.00386 375.475641 
L 335.33374 375.279798 
L 340.66362 374.594697 
L 345.9935 373.810883 
L 351.32338 373.471286 
L 356.65326 373.297183 
L 361.98314 373.540803 
L 367.313019 373.781739 
L 372.642899 373.652247 
L 377.972779 373.378945 
L 383.302659 373.320957 
L 388.632539 373.51935 
L 393.962419 373.370889 
L 399.292299 372.837698 
L 404.622178 372.171381 
L 409.952058 371.243276 
L 415.281938 369.627096 
L 420.611818 366.654734 
L 425.941698 362.360114 
L 431.271578 357.45873 
L 436.601458 351.579324 
L 441.931337 345.607659 
L 447.261217 339.505872 
L 452.591097 332.641102 
L 457.920977 324.561351 
L 463.250857 315.015214 
L 468.580737 304.649627 
L 473.910617 293.823286 
L 479.240496 284.307375 
L 484.570376 275.965037 
L 489.900256 269.59342 
L 495.230136 264.484502 
L 500.560016 259.956382 
L 505.889896 256.909554 
L 511.219776 256.773773 
L 516.549655 260.11895 
L 521.879535 259.34396 
L 527.209415 256.523336 
L 532.539295 254.737461 
L 537.869175 254.38015 
L 543.199055 254.2545 
L 548.528935 253.695012 
L 553.858814 252.527678 
L 559.188694 252.728644 
L 564.518574 253.479829 
L 569.848454 253.129666 
L 575.178334 252.713415 
L 580.508214 253.350429 
L 585.838094 254.212528 
L 591.167973 255.172246 
L 596.497853 256.269541 
L 601.827733 256.814278 
L 607.157613 257.41778 
L 612.487493 256.536998 
L 617.817373 255.207122 
" style="fill:none;stroke:#c8102e;stroke-linecap:round;stroke-width:1.2;"/>
   </g>
   <g id="line2d_14">
    <path clip-path="url(#pd425fa90bf)" d="M 74.169627 402.894553 
L 79.499507 409.279489 
L 84.829387 413.729772 
L 90.159267 413.977375 
L 95.489147 413.120509 
L 100.819027 413.075758 
L 106.148906 413.441235 
L 111.478786 414.164724 
L 116.808666 414.596393 
L 122.138546 414.602288 
L 127.468426 414.428598 
L 132.798306 414.846732 
L 138.128186 415.043137 
L 143.458065 414.894223 
L 148.787945 414.659253 
L 154.117825 414.561236 
L 159.447705 414.050724 
L 164.777585 413.324352 
L 170.107465 412.500827 
L 175.437345 411.449916 
L 180.767224 410.132923 
L 186.097104 408.367372 
L 191.426984 406.392831 
L 196.756864 404.332714 
L 202.086744 402.07626 
L 207.416624 399.767832 
L 212.746504 398.27386 
L 218.076383 397.303911 
L 223.406263 396.46067 
L 228.736143 395.384475 
L 234.066023 394.302703 
L 239.395903 393.706221 
L 244.725783 393.479404 
L 250.055663 393.265184 
L 255.385542 393.311768 
L 260.715422 393.588022 
L 266.045302 393.99596 
L 271.375182 394.315797 
L 276.705062 394.508279 
L 282.034942 394.53534 
L 287.364822 394.483452 
L 292.694701 394.451115 
L 298.024581 394.274602 
L 303.354461 393.998683 
L 308.684341 393.703938 
L 314.014221 393.531842 
L 319.344101 393.598817 
L 324.673981 393.734691 
L 330.00386 393.608007 
L 335.33374 393.590621 
L 340.66362 393.17476 
L 345.9935 392.740088 
L 351.32338 392.744442 
L 356.65326 392.950077 
L 361.98314 393.485041 
L 367.313019 393.999867 
L 372.642899 394.227634 
L 377.972779 394.374169 
L 383.302659 394.726626 
L 388.632539 395.197055 
L 393.962419 395.296598 
L 399.292299 394.997843 
L 404.622178 394.453248 
L 409.952058 393.472239 
L 415.281938 391.468144 
L 420.611818 387.814783 
L 425.941698 382.610168 
L 431.271578 376.25023 
L 436.601458 368.569242 
L 441.931337 360.745521 
L 447.261217 353.334799 
L 452.591097 346.223662 
L 457.920977 338.724551 
L 463.250857 330.82199 
L 468.580737 323.332792 
L 473.910617 315.971509 
L 479.240496 309.999523 
L 484.570376 304.990565 
L 489.900256 301.309087 
L 495.230136 298.358099 
L 500.560016 295.657557 
L 505.889896 294.28611 
L 511.219776 294.940804 
L 516.549655 295.956489 
L 521.879535 293.821001 
L 527.209415 292.082554 
L 532.539295 291.277526 
L 537.869175 291.151641 
L 543.199055 290.992092 
L 548.528935 290.406393 
L 553.858814 289.248259 
L 559.188694 289.150431 
L 564.518574 289.563136 
L 569.848454 289.127873 
L 575.178334 288.79775 
L 580.508214 289.501064 
L 585.838094 290.060275 
L 591.167973 290.059905 
L 596.497853 290.441413 
L 601.827733 290.829502 
L 607.157613 291.137568 
L 612.487493 290.006418 
L 617.817373 288.81376 
" style="fill:none;stroke:#00b388;stroke-linecap:round;stroke-width:1.2;"/>
   </g>
   <g id="line2d_15">
    <path clip-path="url(#pd425fa90bf)" d="M 74.169627 416.985181 
L 79.499507 422.289769 
L 84.829387 426.175168 
L 90.159267 426.207994 
L 95.489147 424.590965 
L 100.819027 423.541869 
L 106.148906 423.529514 
L 111.478786 424.221497 
L 116.808666 424.754012 
L 122.138546 424.927098 
L 127.468426 424.937337 
L 132.798306 425.4568 
L 138.128186 425.870813 
L 143.458065 425.973917 
L 148.787945 425.902795 
L 154.117825 425.919152 
L 159.447705 425.627889 
L 164.777585 425.098593 
L 170.107465 424.365226 
L 175.437345 423.341536 
L 180.767224 421.933634 
L 186.097104 419.961483 
L 191.426984 417.588698 
L 196.756864 415.071074 
L 202.086744 412.509981 
L 207.416624 410.066704 
L 212.746504 408.477505 
L 218.076383 407.49635 
L 223.406263 406.703334 
L 228.736143 405.768094 
L 234.066023 404.868807 
L 239.395903 404.5131 
L 244.725783 404.592558 
L 250.055663 404.847551 
L 255.385542 405.458438 
L 260.715422 406.357928 
L 266.045302 407.399835 
L 271.375182 408.323791 
L 276.705062 409.035899 
L 282.034942 409.513078 
L 287.364822 409.803359 
L 292.694701 410.057651 
L 298.024581 410.173976 
L 303.354461 410.24094 
L 308.684341 410.383388 
L 314.014221 410.642612 
L 319.344101 411.082428 
L 324.673981 411.553424 
L 330.00386 411.740373 
L 335.33374 411.901444 
L 340.66362 411.754824 
L 345.9935 411.669293 
L 351.32338 412.017599 
L 356.65326 412.602972 
L 361.98314 413.429279 
L 367.313019 414.217995 
L 372.642899 414.80302 
L 377.972779 415.369394 
L 383.302659 416.132296 
L 388.632539 416.874761 
L 393.962419 417.222307 
L 399.292299 417.157987 
L 404.622178 416.735116 
L 409.952058 415.701202 
L 415.281938 413.309191 
L 420.611818 408.974832 
L 425.941698 402.860221 
L 431.271578 395.041729 
L 436.601458 385.55916 
L 441.931337 375.883382 
L 447.261217 367.163727 
L 452.591097 359.806223 
L 457.920977 352.887751 
L 463.250857 346.628766 
L 468.580737 342.015958 
L 473.910617 338.119732 
L 479.240496 335.691672 
L 484.570376 334.016092 
L 489.900256 333.024754 
L 495.230136 332.231697 
L 500.560016 331.358732 
L 505.889896 331.662667 
L 511.219776 333.107835 
L 516.549655 331.794028 
L 521.879535 328.298043 
L 527.209415 327.641773 
L 532.539295 327.817592 
L 537.869175 327.923132 
L 543.199055 327.729683 
L 548.528935 327.117773 
L 553.858814 325.968839 
L 559.188694 325.572217 
L 564.518574 325.646443 
L 569.848454 325.126081 
L 575.178334 324.882085 
L 580.508214 325.651699 
L 585.838094 325.908021 
L 591.167973 324.947564 
L 596.497853 324.613285 
L 601.827733 324.844726 
L 607.157613 324.857357 
L 612.487493 323.475837 
L 617.817373 322.420399 
" style="fill:none;stroke:#f6be00;stroke-linecap:round;stroke-width:1.2;"/>
   </g>
   <g id="patch_8">
    <path d="M 46.98724 434.89201 
L 46.98724 243.843663 
" style="fill:none;stroke:#262626;stroke-linecap:square;stroke-linejoin:miter;"/>
   </g>
   <g id="patch_9">
    <path d="M 644.99976 434.89201 
L 644.99976 243.843663 
" style="fill:none;stroke:#262626;stroke-linecap:square;stroke-linejoin:miter;"/>
   </g>
   <g id="patch_10">
    <path d="M 46.98724 434.89201 
L 644.99976 434.89201 
" style="fill:none;stroke:#262626;stroke-linecap:square;stroke-linejoin:miter;"/>
   </g>
   <g id="patch_11">
    <path d="M 46.98724 243.843663 
L 644.99976 243.843663 
" style="fill:none;stroke:#262626;stroke-linecap:square;stroke-linejoin:miter;"/>
   </g>
  </g>
 </g>
 <defs>
  <clipPath id="p8a2c5bf8b9">
   <rect height="191.048347" width="598.01252" x="46.98724" y="16.29474"/>
  </clipPath>
  <clipPath id="pd425fa90bf">
   <rect height="191.048347" width="598.01252" x="46.98724" y="243.843663"/>
  </clipPath>
 </defs>
</svg>
