<?xml version="1.0" encoding="utf-8" standalone="no"?>
<!DOCTYPE svg PUBLIC "-//W3C//DTD SVG 1.1//EN"
  "http://www.w3.org/Graphics/SVG/1.1/DTD/svg11.dtd">
<!-- Created with matplotlib (https://matplotlib.org/) -->
<svg height="468pt" version="1.1" viewBox="0 0 648 468" width="648pt" xmlns="http://www.w3.org/2000/svg" xmlns:xlink="http://www.w3.org/1999/xlink">
 <defs>
  <style type="text/css">
*{stroke-linecap:butt;stroke-linejoin:round;}
  </style>
 </defs>
 <g id="figure_1">
  <g id="patch_1">
   <path d="M 0 468 
L 648 468 
L 648 0 
L 0 0 
z
" style="fill:#ffffff;"/>
  </g>
  <g id="axes_1">
   <g id="patch_2">
    <path d="M 46.98724 208.200782 
L 644.99976 208.200782 
L 644.99976 16.29474 
L 46.98724 16.29474 
z
" style="fill:#ffffff;"/>
   </g>
   <g id="matplotlib.axis_1"/>
   <g id="matplotlib.axis_2">
    <g id="ytick_1">
     <g id="text_1">
      <!-- −1.0 -->
      <defs>
       <path d="M 10.59375 35.296875 
L 73.1875 35.296875 
L 73.1875 27.390625 
L 10.59375 27.390625 
z
" id="DejaVuSerif-8722"/>
       <path d="M 14.203125 0 
L 14.203125 5.171875 
L 26.90625 5.171875 
L 26.90625 65.828125 
L 12.203125 56.296875 
L 12.203125 62.703125 
L 29.984375 74.21875 
L 36.71875 74.21875 
L 36.71875 5.171875 
L 49.421875 5.171875 
L 49.421875 0 
z
" id="DejaVuSerif-49"/>
       <path d="M 9.421875 5.078125 
Q 9.421875 7.8125 11.28125 9.71875 
Q 13.140625 11.625 15.921875 11.625 
Q 18.609375 11.625 20.5 9.71875 
Q 22.40625 7.8125 22.40625 5.078125 
Q 22.40625 2.390625 20.5 0.484375 
Q 18.609375 -1.421875 15.921875 -1.421875 
Q 13.140625 -1.421875 11.28125 0.453125 
Q 9.421875 2.34375 9.421875 5.078125 
z
" id="DejaVuSerif-46"/>
       <path d="M 31.78125 3.421875 
Q 39.265625 3.421875 42.96875 11.625 
Q 46.6875 19.828125 46.6875 36.375 
Q 46.6875 52.984375 42.96875 61.1875 
Q 39.265625 69.390625 31.78125 69.390625 
Q 24.3125 69.390625 20.59375 61.1875 
Q 16.890625 52.984375 16.890625 36.375 
Q 16.890625 19.828125 20.59375 11.625 
Q 24.3125 3.421875 31.78125 3.421875 
z
M 31.78125 -1.421875 
Q 19.921875 -1.421875 13.25 8.53125 
Q 6.59375 18.5 6.59375 36.375 
Q 6.59375 54.296875 13.25 64.25 
Q 19.921875 74.21875 31.78125 74.21875 
Q 43.703125 74.21875 50.34375 64.25 
Q 56.984375 54.296875 56.984375 36.375 
Q 56.984375 18.5 50.34375 8.53125 
Q 43.703125 -1.421875 31.78125 -1.421875 
z
" id="DejaVuSerif-48"/>
      </defs>
      <g style="fill:#262626;" transform="translate(17.318365 207.341331)scale(0.088 -0.088)">
       <use xlink:href="#DejaVuSerif-8722"/>
       <use x="83.789062" xlink:href="#DejaVuSerif-49"/>
       <use x="147.412109" xlink:href="#DejaVuSerif-46"/>
       <use x="179.199219" xlink:href="#DejaVuSerif-48"/>
      </g>
     </g>
    </g>
    <g id="ytick_2">
     <g id="text_2">
      <!-- −0.8 -->
      <defs>
       <path d="M 46.578125 19.921875 
Q 46.578125 27.734375 42.6875 32.046875 
Q 38.8125 36.375 31.78125 36.375 
Q 24.75 36.375 20.875 32.046875 
Q 17 27.734375 17 19.921875 
Q 17 12.0625 20.875 7.734375 
Q 24.75 3.421875 31.78125 3.421875 
Q 38.8125 3.421875 42.6875 7.734375 
Q 46.578125 12.0625 46.578125 19.921875 
z
M 44.578125 55.328125 
Q 44.578125 61.96875 41.203125 65.671875 
Q 37.84375 69.390625 31.78125 69.390625 
Q 25.78125 69.390625 22.390625 65.671875 
Q 19 61.96875 19 55.328125 
Q 19 48.640625 22.390625 44.921875 
Q 25.78125 41.21875 31.78125 41.21875 
Q 37.84375 41.21875 41.203125 44.921875 
Q 44.578125 48.640625 44.578125 55.328125 
z
M 39.3125 38.8125 
Q 47.609375 37.703125 52.25 32.6875 
Q 56.890625 27.6875 56.890625 19.921875 
Q 56.890625 9.671875 50.390625 4.125 
Q 43.890625 -1.421875 31.78125 -1.421875 
Q 19.734375 -1.421875 13.203125 4.125 
Q 6.6875 9.671875 6.6875 19.921875 
Q 6.6875 27.6875 11.328125 32.6875 
Q 15.96875 37.703125 24.3125 38.8125 
Q 16.9375 40.140625 13 44.40625 
Q 9.078125 48.6875 9.078125 55.328125 
Q 9.078125 64.109375 15.125 69.15625 
Q 21.1875 74.21875 31.78125 74.21875 
Q 42.390625 74.21875 48.4375 69.15625 
Q 54.5 64.109375 54.5 55.328125 
Q 54.5 48.6875 50.5625 44.40625 
Q 46.625 40.140625 39.3125 38.8125 
z
" id="DejaVuSerif-56"/>
      </defs>
      <g style="fill:#262626;" transform="translate(17.318365 178.147868)scale(0.088 -0.088)">
       <use xlink:href="#DejaVuSerif-8722"/>
       <use x="83.789062" xlink:href="#DejaVuSerif-48"/>
       <use x="147.412109" xlink:href="#DejaVuSerif-46"/>
       <use x="179.199219" xlink:href="#DejaVuSerif-56"/>
      </g>
     </g>
    </g>
    <g id="ytick_3">
     <g id="text_3">
      <!-- −0.6 -->
      <defs>
       <path d="M 32.71875 3.421875 
Q 39.59375 3.421875 43.296875 8.46875 
Q 47.015625 13.53125 47.015625 23 
Q 47.015625 32.46875 43.296875 37.515625 
Q 39.59375 42.578125 32.71875 42.578125 
Q 25.734375 42.578125 22.0625 37.6875 
Q 18.40625 32.8125 18.40625 23.578125 
Q 18.40625 13.875 22.109375 8.640625 
Q 25.828125 3.421875 32.71875 3.421875 
z
M 16.796875 40.140625 
Q 20.125 43.796875 24.3125 45.59375 
Q 28.515625 47.40625 33.796875 47.40625 
Q 44.671875 47.40625 51 40.859375 
Q 57.328125 34.328125 57.328125 23 
Q 57.328125 11.921875 50.515625 5.25 
Q 43.703125 -1.421875 32.328125 -1.421875 
Q 19.96875 -1.421875 13.328125 7.78125 
Q 6.6875 17 6.6875 34.078125 
Q 6.6875 53.21875 14.546875 63.71875 
Q 22.40625 74.21875 36.71875 74.21875 
Q 40.578125 74.21875 44.828125 73.484375 
Q 49.078125 72.75 53.515625 71.296875 
L 53.515625 59.28125 
L 48 59.28125 
Q 47.40625 64.203125 44.234375 66.796875 
Q 41.0625 69.390625 35.6875 69.390625 
Q 26.21875 69.390625 21.578125 62.203125 
Q 16.9375 55.03125 16.796875 40.140625 
z
" id="DejaVuSerif-54"/>
      </defs>
      <g style="fill:#262626;" transform="translate(17.318365 148.954405)scale(0.088 -0.088)">
       <use xlink:href="#DejaVuSerif-8722"/>
       <use x="83.789062" xlink:href="#DejaVuSerif-48"/>
       <use x="147.412109" xlink:href="#DejaVuSerif-46"/>
       <use x="179.199219" xlink:href="#DejaVuSerif-54"/>
      </g>
     </g>
    </g>
    <g id="ytick_4">
     <g id="text_4">
      <!-- −0.4 -->
      <defs>
       <path d="M 34.90625 24.703125 
L 34.90625 63.484375 
L 10.015625 24.703125 
z
M 56.390625 0 
L 23.1875 0 
L 23.1875 5.171875 
L 34.90625 5.171875 
L 34.90625 19.484375 
L 3.078125 19.484375 
L 3.078125 24.8125 
L 35.015625 74.21875 
L 44.671875 74.21875 
L 44.671875 24.703125 
L 58.59375 24.703125 
L 58.59375 19.484375 
L 44.671875 19.484375 
L 44.671875 5.171875 
L 56.390625 5.171875 
z
" id="DejaVuSerif-52"/>
      </defs>
      <g style="fill:#262626;" transform="translate(17.318365 119.760943)scale(0.088 -0.088)">
       <use xlink:href="#DejaVuSerif-8722"/>
       <use x="83.789062" xlink:href="#DejaVuSerif-48"/>
       <use x="147.412109" xlink:href="#DejaVuSerif-46"/>
       <use x="179.199219" xlink:href="#DejaVuSerif-52"/>
      </g>
     </g>
    </g>
    <g id="ytick_5">
     <g id="text_5">
      <!-- −0.2 -->
      <defs>
       <path d="M 12.796875 55.515625 
L 7.328125 55.515625 
L 7.328125 68.5 
Q 12.546875 71.296875 17.84375 72.75 
Q 23.140625 74.21875 28.21875 74.21875 
Q 39.59375 74.21875 46.1875 68.703125 
Q 52.78125 63.1875 52.78125 53.71875 
Q 52.78125 43.015625 37.84375 28.125 
Q 36.671875 27 36.078125 26.421875 
L 17.671875 8.015625 
L 48.09375 8.015625 
L 48.09375 17 
L 53.8125 17 
L 53.8125 0 
L 6.78125 0 
L 6.78125 5.328125 
L 28.90625 27.390625 
Q 36.234375 34.71875 39.359375 40.84375 
Q 42.484375 46.96875 42.484375 53.71875 
Q 42.484375 61.078125 38.640625 65.234375 
Q 34.8125 69.390625 28.078125 69.390625 
Q 21.09375 69.390625 17.28125 65.921875 
Q 13.484375 62.453125 12.796875 55.515625 
z
" id="DejaVuSerif-50"/>
      </defs>
      <g style="fill:#262626;" transform="translate(17.318365 90.56748)scale(0.088 -0.088)">
       <use xlink:href="#DejaVuSerif-8722"/>
       <use x="83.789062" xlink:href="#DejaVuSerif-48"/>
       <use x="147.412109" xlink:href="#DejaVuSerif-46"/>
       <use x="179.199219" xlink:href="#DejaVuSerif-50"/>
      </g>
     </g>
    </g>
    <g id="ytick_6">
     <g id="text_6">
      <!-- 0.0 -->
      <g style="fill:#262626;" transform="translate(24.69249 61.374017)scale(0.088 -0.088)">
       <use xlink:href="#DejaVuSerif-48"/>
       <use x="63.623047" xlink:href="#DejaVuSerif-46"/>
       <use x="95.410156" xlink:href="#DejaVuSerif-48"/>
      </g>
     </g>
    </g>
    <g id="ytick_7">
     <g id="text_7">
      <!-- 0.2 -->
      <g style="fill:#262626;" transform="translate(24.69249 32.180554)scale(0.088 -0.088)">
       <use xlink:href="#DejaVuSerif-48"/>
       <use x="63.623047" xlink:href="#DejaVuSerif-46"/>
       <use x="95.410156" xlink:href="#DejaVuSerif-50"/>
      </g>
     </g>
    </g>
    <g id="text_8">
     <!-- Scaled Intensity -->
     <defs>
      <path d="M 9.28125 3.515625 
L 9.28125 20.125 
L 14.890625 20.0625 
Q 15.140625 11.765625 19.703125 7.78125 
Q 24.265625 3.8125 33.59375 3.8125 
Q 42.28125 3.8125 46.84375 7.25 
Q 51.421875 10.6875 51.421875 17.28125 
Q 51.421875 22.5625 48.65625 25.390625 
Q 45.90625 28.21875 37.015625 30.90625 
L 27.390625 33.796875 
Q 16.9375 36.96875 12.671875 41.703125 
Q 8.40625 46.4375 8.40625 54.6875 
Q 8.40625 63.96875 14.984375 69.09375 
Q 21.578125 74.21875 33.5 74.21875 
Q 38.578125 74.21875 44.625 73.109375 
Q 50.6875 72.015625 57.515625 69.921875 
L 57.515625 54.390625 
L 52 54.390625 
Q 51.171875 62.109375 46.84375 65.546875 
Q 42.53125 69 33.6875 69 
Q 25.984375 69 21.953125 65.84375 
Q 17.921875 62.703125 17.921875 56.6875 
Q 17.921875 51.46875 20.9375 48.484375 
Q 23.96875 45.515625 33.796875 42.578125 
L 42.828125 39.890625 
Q 52.734375 36.921875 56.953125 32.296875 
Q 61.1875 27.6875 61.1875 19.921875 
Q 61.1875 9.328125 54.390625 3.953125 
Q 47.609375 -1.421875 34.1875 -1.421875 
Q 28.171875 -1.421875 21.9375 -0.1875 
Q 15.71875 1.03125 9.28125 3.515625 
z
" id="DejaVuSerif-83"/>
      <path d="M 51.421875 15.578125 
Q 49.515625 7.28125 44.09375 2.921875 
Q 38.671875 -1.421875 30.078125 -1.421875 
Q 18.75 -1.421875 11.859375 6.078125 
Q 4.984375 13.578125 4.984375 25.984375 
Q 4.984375 38.421875 11.859375 45.875 
Q 18.75 53.328125 30.078125 53.328125 
Q 35.015625 53.328125 39.890625 52.171875 
Q 44.78125 51.03125 49.703125 48.6875 
L 49.703125 35.40625 
L 44.484375 35.40625 
Q 43.453125 42.234375 40.015625 45.359375 
Q 36.578125 48.484375 30.171875 48.484375 
Q 22.90625 48.484375 19.1875 42.84375 
Q 15.484375 37.203125 15.484375 25.984375 
Q 15.484375 14.75 19.171875 9.078125 
Q 22.859375 3.421875 30.171875 3.421875 
Q 35.984375 3.421875 39.453125 6.4375 
Q 42.921875 9.46875 44.1875 15.578125 
z
" id="DejaVuSerif-99"/>
      <path d="M 39.796875 16.3125 
L 39.796875 27.296875 
L 28.21875 27.296875 
Q 21.53125 27.296875 18.25 24.40625 
Q 14.984375 21.53125 14.984375 15.578125 
Q 14.984375 10.15625 18.296875 6.984375 
Q 21.625 3.8125 27.296875 3.8125 
Q 32.90625 3.8125 36.34375 7.28125 
Q 39.796875 10.75 39.796875 16.3125 
z
M 48.78125 32.421875 
L 48.78125 5.171875 
L 56.78125 5.171875 
L 56.78125 0 
L 39.796875 0 
L 39.796875 5.609375 
Q 36.8125 2 32.90625 0.28125 
Q 29 -1.421875 23.78125 -1.421875 
Q 15.140625 -1.421875 10.0625 3.171875 
Q 4.984375 7.765625 4.984375 15.578125 
Q 4.984375 23.640625 10.796875 28.078125 
Q 16.609375 32.515625 27.203125 32.515625 
L 39.796875 32.515625 
L 39.796875 36.078125 
Q 39.796875 42 36.203125 45.234375 
Q 32.625 48.484375 26.125 48.484375 
Q 20.75 48.484375 17.578125 46.046875 
Q 14.40625 43.609375 13.625 38.8125 
L 8.984375 38.8125 
L 8.984375 49.3125 
Q 13.671875 51.3125 18.09375 52.3125 
Q 22.515625 53.328125 26.703125 53.328125 
Q 37.5 53.328125 43.140625 47.96875 
Q 48.78125 42.625 48.78125 32.421875 
z
" id="DejaVuSerif-97"/>
      <path d="M 20.515625 5.171875 
L 29 5.171875 
L 29 0 
L 2.875 0 
L 2.875 5.171875 
L 11.53125 5.171875 
L 11.53125 70.796875 
L 2.875 70.796875 
L 2.875 75.984375 
L 20.515625 75.984375 
z
" id="DejaVuSerif-108"/>
      <path d="M 54.203125 25 
L 15.484375 25 
L 15.484375 24.609375 
Q 15.484375 14.109375 19.4375 8.765625 
Q 23.390625 3.421875 31.109375 3.421875 
Q 37.015625 3.421875 40.796875 6.515625 
Q 44.578125 9.625 46.09375 15.71875 
L 53.328125 15.71875 
Q 51.171875 7.171875 45.375 2.875 
Q 39.59375 -1.421875 30.171875 -1.421875 
Q 18.796875 -1.421875 11.890625 6.078125 
Q 4.984375 13.578125 4.984375 25.984375 
Q 4.984375 38.28125 11.765625 45.796875 
Q 18.5625 53.328125 29.59375 53.328125 
Q 41.359375 53.328125 47.65625 46.0625 
Q 53.953125 38.8125 54.203125 25 
z
M 43.609375 30.171875 
Q 43.3125 39.265625 39.765625 43.875 
Q 36.234375 48.484375 29.59375 48.484375 
Q 23.390625 48.484375 19.828125 43.84375 
Q 16.265625 39.203125 15.484375 30.171875 
z
" id="DejaVuSerif-101"/>
      <path d="M 52.484375 5.171875 
L 61.078125 5.171875 
L 61.078125 0 
L 43.5 0 
L 43.5 8.109375 
Q 40.875 3.21875 36.796875 0.890625 
Q 32.71875 -1.421875 26.703125 -1.421875 
Q 17.140625 -1.421875 11.0625 6.171875 
Q 4.984375 13.765625 4.984375 25.984375 
Q 4.984375 38.1875 11.03125 45.75 
Q 17.09375 53.328125 26.703125 53.328125 
Q 32.71875 53.328125 36.796875 51 
Q 40.875 48.6875 43.5 43.796875 
L 43.5 70.796875 
L 35.015625 70.796875 
L 35.015625 75.984375 
L 52.484375 75.984375 
z
M 43.5 23.390625 
L 43.5 28.515625 
Q 43.5 37.84375 39.90625 42.765625 
Q 36.328125 47.703125 29.5 47.703125 
Q 22.5625 47.703125 19.015625 42.234375 
Q 15.484375 36.765625 15.484375 25.984375 
Q 15.484375 15.234375 19.015625 9.71875 
Q 22.5625 4.203125 29.5 4.203125 
Q 36.328125 4.203125 39.90625 9.109375 
Q 43.5 14.015625 43.5 23.390625 
z
" id="DejaVuSerif-100"/>
      <path id="DejaVuSerif-32"/>
      <path d="M 24.703125 5.171875 
L 33.984375 5.171875 
L 33.984375 0 
L 5.515625 0 
L 5.515625 5.171875 
L 14.796875 5.171875 
L 14.796875 67.671875 
L 5.515625 67.671875 
L 5.515625 72.90625 
L 33.984375 72.90625 
L 33.984375 67.671875 
L 24.703125 67.671875 
z
" id="DejaVuSerif-73"/>
      <path d="M 4.109375 0 
L 4.109375 5.171875 
L 12.203125 5.171875 
L 12.203125 46.6875 
L 3.609375 46.6875 
L 3.609375 51.90625 
L 21.1875 51.90625 
L 21.1875 42.671875 
Q 23.6875 47.953125 27.65625 50.640625 
Q 31.640625 53.328125 36.921875 53.328125 
Q 45.515625 53.328125 49.5625 48.390625 
Q 53.609375 43.453125 53.609375 33.015625 
L 53.609375 5.171875 
L 61.625 5.171875 
L 61.625 0 
L 36.8125 0 
L 36.8125 5.171875 
L 44.578125 5.171875 
L 44.578125 30.171875 
Q 44.578125 39.703125 42.234375 43.234375 
Q 39.890625 46.78125 33.984375 46.78125 
Q 27.734375 46.78125 24.453125 42.203125 
Q 21.1875 37.640625 21.1875 28.90625 
L 21.1875 5.171875 
L 29 5.171875 
L 29 0 
z
" id="DejaVuSerif-110"/>
      <path d="M 10.796875 46.6875 
L 2.875 46.6875 
L 2.875 51.90625 
L 10.796875 51.90625 
L 10.796875 68.015625 
L 19.828125 68.015625 
L 19.828125 51.90625 
L 36.71875 51.90625 
L 36.71875 46.6875 
L 19.828125 46.6875 
L 19.828125 13.71875 
Q 19.828125 7.125 21.09375 5.265625 
Q 22.359375 3.421875 25.78125 3.421875 
Q 29.296875 3.421875 30.90625 5.484375 
Q 32.515625 7.5625 32.625 12.203125 
L 39.40625 12.203125 
Q 39.015625 5.125 35.546875 1.84375 
Q 32.078125 -1.421875 25 -1.421875 
Q 17.234375 -1.421875 14.015625 2.015625 
Q 10.796875 5.46875 10.796875 13.71875 
z
" id="DejaVuSerif-116"/>
      <path d="M 5.609375 2.875 
L 5.609375 14.984375 
L 10.796875 14.984375 
Q 10.984375 9.1875 14.421875 6.296875 
Q 17.875 3.421875 24.609375 3.421875 
Q 30.671875 3.421875 33.84375 5.6875 
Q 37.015625 7.953125 37.015625 12.3125 
Q 37.015625 15.71875 34.6875 17.8125 
Q 32.375 19.921875 24.90625 22.3125 
L 18.40625 24.515625 
Q 11.71875 26.65625 8.71875 29.875 
Q 5.71875 33.109375 5.71875 38.09375 
Q 5.71875 45.21875 10.9375 49.265625 
Q 16.15625 53.328125 25.390625 53.328125 
Q 29.5 53.328125 34.03125 52.25 
Q 38.578125 51.171875 43.40625 49.125 
L 43.40625 37.796875 
L 38.234375 37.796875 
Q 38.03125 42.828125 34.703125 45.65625 
Q 31.390625 48.484375 25.6875 48.484375 
Q 20.015625 48.484375 17.109375 46.484375 
Q 14.203125 44.484375 14.203125 40.484375 
Q 14.203125 37.203125 16.40625 35.21875 
Q 18.609375 33.25 25.203125 31.203125 
L 32.328125 29 
Q 39.703125 26.703125 42.9375 23.265625 
Q 46.1875 19.828125 46.1875 14.40625 
Q 46.1875 7.03125 40.546875 2.796875 
Q 34.90625 -1.421875 25 -1.421875 
Q 19.96875 -1.421875 15.1875 -0.34375 
Q 10.40625 0.734375 5.609375 2.875 
z
" id="DejaVuSerif-115"/>
      <path d="M 9.71875 68.015625 
Q 9.71875 70.265625 11.34375 71.921875 
Q 12.984375 73.578125 15.28125 73.578125 
Q 17.53125 73.578125 19.15625 71.921875 
Q 20.796875 70.265625 20.796875 68.015625 
Q 20.796875 65.71875 19.1875 64.109375 
Q 17.578125 62.5 15.28125 62.5 
Q 12.984375 62.5 11.34375 64.109375 
Q 9.71875 65.71875 9.71875 68.015625 
z
M 21.1875 5.171875 
L 29.6875 5.171875 
L 29.6875 0 
L 3.609375 0 
L 3.609375 5.171875 
L 12.203125 5.171875 
L 12.203125 46.6875 
L 3.609375 46.6875 
L 3.609375 51.90625 
L 21.1875 51.90625 
z
" id="DejaVuSerif-105"/>
      <path d="M 21.578125 -9.515625 
L 25 -0.875 
L 5.609375 46.6875 
L -0.296875 46.6875 
L -0.296875 51.90625 
L 23.578125 51.90625 
L 23.578125 46.6875 
L 15.28125 46.6875 
L 29.890625 10.984375 
L 44.484375 46.6875 
L 36.71875 46.6875 
L 36.71875 51.90625 
L 56.203125 51.90625 
L 56.203125 46.6875 
L 50.390625 46.6875 
L 26.609375 -11.71875 
Q 24.171875 -17.78125 21.1875 -20 
Q 18.21875 -22.21875 12.796875 -22.21875 
Q 10.5 -22.21875 8.078125 -21.828125 
Q 5.671875 -21.4375 3.21875 -20.703125 
L 3.21875 -10.796875 
L 7.8125 -10.796875 
Q 8.109375 -14.109375 9.5 -15.546875 
Q 10.890625 -17 13.8125 -17 
Q 16.5 -17 18.140625 -15.5 
Q 19.78125 -14.015625 21.578125 -9.515625 
z
" id="DejaVuSerif-121"/>
     </defs>
     <g style="fill:#262626;" transform="translate(11.185365 151.548511)rotate(-90)scale(0.096 -0.096)">
      <use xlink:href="#DejaVuSerif-83"/>
      <use x="68.505859" xlink:href="#DejaVuSerif-99"/>
      <use x="124.511719" xlink:href="#DejaVuSerif-97"/>
      <use x="184.130859" xlink:href="#DejaVuSerif-108"/>
      <use x="216.113281" xlink:href="#DejaVuSerif-101"/>
      <use x="275.292969" xlink:href="#DejaVuSerif-100"/>
      <use x="339.306641" xlink:href="#DejaVuSerif-32"/>
      <use x="371.09375" xlink:href="#DejaVuSerif-73"/>
      <use x="410.595703" xlink:href="#DejaVuSerif-110"/>
      <use x="475" xlink:href="#DejaVuSerif-116"/>
      <use x="515.185547" xlink:href="#DejaVuSerif-101"/>
      <use x="574.365234" xlink:href="#DejaVuSerif-110"/>
      <use x="638.769531" xlink:href="#DejaVuSerif-115"/>
      <use x="690.087891" xlink:href="#DejaVuSerif-105"/>
      <use x="722.070312" xlink:href="#DejaVuSerif-116"/>
      <use x="762.255859" xlink:href="#DejaVuSerif-121"/>
     </g>
    </g>
   </g>
   <g id="line2d_1">
    <path clip-path="url(#pd60fb9699e)" d="M 74.169627 88.124128 
L 79.499507 77.290414 
L 84.829387 89.915758 
L 90.159267 92.517942 
L 95.489147 105.574758 
L 100.819027 116.772356 
L 106.148906 118.165693 
L 111.478786 115.650175 
L 116.808666 118.226925 
L 122.138546 115.98817 
L 127.468426 110.2133 
L 132.798306 108.894147 
L 138.128186 110.701723 
L 143.458065 108.507617 
L 148.787945 110.478829 
L 154.117825 107.835443 
L 159.447705 111.75147 
L 164.777585 106.208738 
L 170.107465 100.87055 
L 175.437345 99.29456 
L 180.767224 95.796348 
L 186.097104 98.128754 
L 191.426984 97.977456 
L 196.756864 105.09028 
L 202.086744 97.475112 
L 207.416624 95.406056 
L 212.746504 91.998298 
L 218.076383 89.726132 
L 223.406263 93.564953 
L 228.736143 89.899695 
L 234.066023 91.058984 
L 239.395903 87.215517 
L 244.725783 85.208865 
L 250.055663 86.854036 
L 255.385542 86.57794 
L 260.715422 85.675798 
L 266.045302 85.957558 
L 271.375182 83.668506 
L 276.705062 86.466789 
L 282.034942 80.877297 
L 287.364822 82.969896 
L 292.694701 81.923237 
L 298.024581 82.082997 
L 303.354461 81.595365 
L 308.684341 77.365665 
L 314.014221 78.782009 
L 319.344101 77.809012 
L 324.673981 76.244458 
L 330.00386 78.628496 
L 335.33374 76.525405 
L 340.66362 81.294782 
L 345.9935 79.573026 
L 351.32338 80.063094 
L 356.65326 83.00243 
L 361.98314 79.595829 
L 367.313019 74.817682 
L 372.642899 70.860315 
L 377.972779 73.393603 
L 383.302659 75.528878 
L 388.632539 71.958841 
L 393.962419 74.214762 
L 399.292299 71.498502 
L 404.622178 69.146089 
L 409.952058 68.54551 
L 415.281938 73.094225 
L 420.611818 72.130877 
L 425.941698 73.556552 
L 431.271578 72.959692 
L 436.601458 73.069216 
L 441.931337 71.544862 
L 447.261217 69.425078 
L 452.591097 65.065482 
L 457.920977 62.912342 
L 463.250857 57.187455 
L 468.580737 53.408554 
L 473.910617 47.406599 
L 479.240496 43.800288 
L 484.570376 39.689367 
L 489.900256 33.083903 
L 495.230136 30.919891 
L 500.560016 34.993353 
L 505.889896 38.243694 
L 511.219776 40.07157 
L 516.549655 41.574309 
L 521.879535 40.298569 
L 527.209415 42.958201 
L 532.539295 41.790566 
L 537.869175 40.660069 
L 543.199055 38.307979 
L 548.528935 41.971729 
L 553.858814 38.106757 
L 559.188694 37.599195 
L 564.518574 36.044259 
L 569.848454 33.806876 
L 575.178334 35.029938 
L 580.508214 33.904807 
L 585.838094 25.970776 
L 591.167973 25.017742 
L 596.497853 29.23705 
L 601.827733 29.133968 
L 607.157613 25.138807 
L 612.487493 26.076864 
L 617.817373 26.729782 
" style="fill:none;stroke:#c8102e;stroke-linecap:round;stroke-width:1.2;"/>
   </g>
   <g id="line2d_2">
    <path clip-path="url(#pd60fb9699e)" d="M 74.169627 114.941002 
L 79.499507 111.763711 
L 84.829387 125.644892 
L 90.159267 133.029245 
L 95.489147 143.820812 
L 100.819027 152.603438 
L 106.148906 153.765585 
L 111.478786 153.306269 
L 116.808666 155.027855 
L 122.138546 156.694421 
L 127.468426 150.377955 
L 132.798306 146.746846 
L 138.128186 153.189092 
L 143.458065 153.043536 
L 148.787945 152.620787 
L 154.117825 149.640419 
L 159.447705 155.614623 
L 164.777585 150.221332 
L 170.107465 143.319229 
L 175.437345 140.910117 
L 180.767224 134.58342 
L 186.097104 140.622667 
L 191.426984 141.310106 
L 196.756864 148.443576 
L 202.086744 140.621414 
L 207.416624 139.385132 
L 212.746504 136.083061 
L 218.076383 130.472105 
L 223.406263 137.45967 
L 228.736143 134.629523 
L 234.066023 136.672369 
L 239.395903 132.690593 
L 244.725783 131.793189 
L 250.055663 133.877431 
L 255.385542 132.048822 
L 260.715422 130.906943 
L 266.045302 135.234709 
L 271.375182 132.296703 
L 276.705062 135.56975 
L 282.034942 130.548563 
L 287.364822 135.139284 
L 292.694701 134.441761 
L 298.024581 135.261349 
L 303.354461 137.231295 
L 308.684341 132.188802 
L 314.014221 134.024806 
L 319.344101 131.640307 
L 324.673981 131.471207 
L 330.00386 135.309445 
L 335.33374 131.589645 
L 340.66362 133.986829 
L 345.9935 131.738185 
L 351.32338 131.675108 
L 356.65326 135.558988 
L 361.98314 132.565952 
L 367.313019 129.528676 
L 372.642899 127.246444 
L 377.972779 127.969381 
L 383.302659 132.865609 
L 388.632539 129.959503 
L 393.962419 132.321856 
L 399.292299 129.07002 
L 404.622178 126.154653 
L 409.952058 125.613436 
L 415.281938 131.155316 
L 420.611818 128.557093 
L 425.941698 129.376081 
L 431.271578 127.885658 
L 436.601458 127.816781 
L 441.931337 123.498912 
L 447.261217 117.300967 
L 452.591097 112.49105 
L 457.920977 110.128715 
L 463.250857 101.616042 
L 468.580737 98.662228 
L 473.910617 90.90948 
L 479.240496 88.511736 
L 484.570376 82.395437 
L 489.900256 77.483404 
L 495.230136 73.578814 
L 500.560016 79.846977 
L 505.889896 81.650432 
L 511.219776 80.352949 
L 516.549655 86.868435 
L 521.879535 84.075196 
L 527.209415 83.794839 
L 532.539295 81.863912 
L 537.869175 81.03713 
L 543.199055 80.69171 
L 548.528935 84.125528 
L 553.858814 80.33286 
L 559.188694 77.912966 
L 564.518574 77.395788 
L 569.848454 77.438848 
L 575.178334 76.009567 
L 580.508214 77.130908 
L 585.838094 69.770038 
L 591.167973 67.503197 
L 596.497853 71.203308 
L 601.827733 71.82549 
L 607.157613 67.379538 
L 612.487493 72.873303 
L 617.817373 72.191651 
" style="fill:none;stroke:#00b388;stroke-linecap:round;stroke-width:1.2;"/>
   </g>
   <g id="line2d_3">
    <path clip-path="url(#pd60fb9699e)" d="M 74.169627 141.757877 
L 79.499507 146.237007 
L 84.829387 161.374024 
L 90.159267 173.540548 
L 95.489147 182.066871 
L 100.819027 188.43452 
L 106.148906 189.365473 
L 111.478786 190.962367 
L 116.808666 191.82878 
L 122.138546 197.400672 
L 127.468426 190.54261 
L 132.798306 184.599546 
L 138.128186 195.676466 
L 143.458065 197.579455 
L 148.787945 194.76274 
L 154.117825 191.445391 
L 159.447705 199.47778 
L 164.777585 194.233926 
L 170.107465 185.767904 
L 175.437345 182.525674 
L 180.767224 173.370491 
L 186.097104 183.116583 
L 191.426984 184.64276 
L 196.756864 191.796867 
L 202.086744 183.767716 
L 207.416624 183.364212 
L 212.746504 180.167824 
L 218.076383 171.218081 
L 223.406263 181.354383 
L 228.736143 179.359346 
L 234.066023 182.285754 
L 239.395903 178.165669 
L 244.725783 178.377513 
L 250.055663 180.900827 
L 255.385542 177.519704 
L 260.715422 176.138083 
L 266.045302 184.511855 
L 271.375182 180.9249 
L 276.705062 184.672707 
L 282.034942 180.219826 
L 287.364822 187.308672 
L 292.694701 186.960284 
L 298.024581 188.439706 
L 303.354461 192.867225 
L 308.684341 187.011938 
L 314.014221 189.267603 
L 319.344101 185.471606 
L 324.673981 186.697952 
L 330.00386 191.990398 
L 335.33374 186.653885 
L 340.66362 186.678881 
L 345.9935 183.903345 
L 351.32338 183.287127 
L 356.65326 188.115549 
L 361.98314 185.536075 
L 367.313019 184.239674 
L 372.642899 183.632574 
L 377.972779 182.545163 
L 383.302659 190.202341 
L 388.632539 187.960161 
L 393.962419 190.428949 
L 399.292299 186.641539 
L 404.622178 183.163217 
L 409.952058 182.681358 
L 415.281938 189.216402 
L 420.611818 184.983308 
L 425.941698 185.195614 
L 431.271578 182.811619 
L 436.601458 182.564347 
L 441.931337 175.452967 
L 447.261217 165.176851 
L 452.591097 159.916614 
L 457.920977 157.345092 
L 463.250857 146.044634 
L 468.580737 143.915907 
L 473.910617 134.412362 
L 479.240496 133.223184 
L 484.570376 125.101504 
L 489.900256 121.882904 
L 495.230136 116.237739 
L 500.560016 124.700602 
L 505.889896 125.057167 
L 511.219776 120.634329 
L 516.549655 132.162561 
L 521.879535 127.851826 
L 527.209415 124.631478 
L 532.539295 121.937255 
L 537.869175 121.414191 
L 543.199055 123.075441 
L 548.528935 126.279329 
L 553.858814 122.558963 
L 559.188694 118.226738 
L 564.518574 118.747314 
L 569.848454 121.07082 
L 575.178334 116.989195 
L 580.508214 120.35701 
L 585.838094 113.5693 
L 591.167973 109.988653 
L 596.497853 113.169567 
L 601.827733 114.517013 
L 607.157613 109.620272 
L 612.487493 119.66974 
L 617.817373 117.653517 
" style="fill:none;stroke:#f6be00;stroke-linecap:round;stroke-width:1.2;"/>
   </g>
   <g id="line2d_4"/>
   <g id="line2d_5"/>
   <g id="line2d_6"/>
   <g id="patch_3">
    <path d="M 46.98724 208.200782 
L 46.98724 16.29474 
" style="fill:none;stroke:#262626;stroke-linecap:square;stroke-linejoin:miter;"/>
   </g>
   <g id="patch_4">
    <path d="M 644.99976 208.200782 
L 644.99976 16.29474 
" style="fill:none;stroke:#262626;stroke-linecap:square;stroke-linejoin:miter;"/>
   </g>
   <g id="patch_5">
    <path d="M 46.98724 208.200782 
L 644.99976 208.200782 
" style="fill:none;stroke:#262626;stroke-linecap:square;stroke-linejoin:miter;"/>
   </g>
   <g id="patch_6">
    <path d="M 46.98724 16.29474 
L 644.99976 16.29474 
" style="fill:none;stroke:#262626;stroke-linecap:square;stroke-linejoin:miter;"/>
   </g>
   <g id="text_9">
    <!-- Bare Soil Generated Samples -->
    <defs>
     <path d="M 24.703125 5.171875 
L 39.3125 5.171875 
Q 48.09375 5.171875 52.140625 8.984375 
Q 56.203125 12.796875 56.203125 21.09375 
Q 56.203125 29.34375 52.171875 33.125 
Q 48.140625 36.921875 39.3125 36.921875 
L 24.703125 36.921875 
z
M 24.703125 42.09375 
L 37.109375 42.09375 
Q 45.125 42.09375 48.796875 45.171875 
Q 52.484375 48.25 52.484375 54.890625 
Q 52.484375 61.578125 48.796875 64.625 
Q 45.125 67.671875 37.109375 67.671875 
L 24.703125 67.671875 
z
M 5.515625 0 
L 5.515625 5.171875 
L 14.796875 5.171875 
L 14.796875 67.671875 
L 5.515625 67.671875 
L 5.515625 72.90625 
L 41.5 72.90625 
Q 52.546875 72.90625 58.125 68.390625 
Q 63.71875 63.875 63.71875 54.890625 
Q 63.71875 48.390625 59.828125 44.53125 
Q 55.953125 40.671875 48.484375 39.796875 
Q 57.765625 38.625 62.578125 33.859375 
Q 67.390625 29.109375 67.390625 21.09375 
Q 67.390625 10.25 60.546875 5.125 
Q 53.71875 0 39.203125 0 
z
" id="DejaVuSerif-66"/>
     <path d="M 47.796875 52 
L 47.796875 39.015625 
L 42.625 39.015625 
Q 42.390625 42.875 40.484375 44.78125 
Q 38.578125 46.6875 34.90625 46.6875 
Q 28.265625 46.6875 24.71875 42.09375 
Q 21.1875 37.5 21.1875 28.90625 
L 21.1875 5.171875 
L 31.59375 5.171875 
L 31.59375 0 
L 4.109375 0 
L 4.109375 5.171875 
L 12.203125 5.171875 
L 12.203125 46.78125 
L 3.609375 46.78125 
L 3.609375 51.90625 
L 21.1875 51.90625 
L 21.1875 42.671875 
Q 23.828125 48.09375 27.96875 50.703125 
Q 32.125 53.328125 38.09375 53.328125 
Q 40.28125 53.328125 42.703125 52.984375 
Q 45.125 52.640625 47.796875 52 
z
" id="DejaVuSerif-114"/>
     <path d="M 30.078125 3.421875 
Q 37.3125 3.421875 40.984375 9.125 
Q 44.671875 14.84375 44.671875 25.984375 
Q 44.671875 37.109375 40.984375 42.796875 
Q 37.3125 48.484375 30.078125 48.484375 
Q 22.859375 48.484375 19.171875 42.796875 
Q 15.484375 37.109375 15.484375 25.984375 
Q 15.484375 14.84375 19.1875 9.125 
Q 22.90625 3.421875 30.078125 3.421875 
z
M 30.078125 -1.421875 
Q 18.75 -1.421875 11.859375 6.078125 
Q 4.984375 13.578125 4.984375 25.984375 
Q 4.984375 38.375 11.84375 45.84375 
Q 18.703125 53.328125 30.078125 53.328125 
Q 41.453125 53.328125 48.3125 45.84375 
Q 55.171875 38.375 55.171875 25.984375 
Q 55.171875 13.578125 48.3125 6.078125 
Q 41.453125 -1.421875 30.078125 -1.421875 
z
" id="DejaVuSerif-111"/>
     <path d="M 64.015625 51.125 
Q 62.3125 60.25 56.890625 64.625 
Q 51.46875 69 41.796875 69 
Q 29.203125 69 23 60.890625 
Q 16.796875 52.78125 16.796875 36.375 
Q 16.796875 20.3125 23.1875 12.0625 
Q 29.59375 3.8125 42 3.8125 
Q 47.515625 3.8125 52.53125 5.171875 
Q 57.5625 6.546875 62.109375 9.28125 
L 62.109375 28.078125 
L 48.390625 28.078125 
L 48.390625 33.296875 
L 72.015625 33.296875 
L 72.015625 6.109375 
Q 65.53125 2.34375 58.03125 0.453125 
Q 50.53125 -1.421875 42 -1.421875 
Q 25.484375 -1.421875 15.546875 8.90625 
Q 5.609375 19.234375 5.609375 36.375 
Q 5.609375 53.65625 15.5625 63.9375 
Q 25.53125 74.21875 42.390625 74.21875 
Q 48.640625 74.21875 55.296875 72.78125 
Q 61.96875 71.34375 69.484375 68.40625 
L 69.484375 51.125 
z
" id="DejaVuSerif-71"/>
     <path d="M 51.8125 41.796875 
Q 54.390625 47.515625 58.421875 50.421875 
Q 62.453125 53.328125 67.828125 53.328125 
Q 75.984375 53.328125 79.984375 48.265625 
Q 83.984375 43.21875 83.984375 33.015625 
L 83.984375 5.171875 
L 92.09375 5.171875 
L 92.09375 0 
L 67.1875 0 
L 67.1875 5.171875 
L 75 5.171875 
L 75 31.984375 
Q 75 39.9375 72.65625 43.3125 
Q 70.3125 46.6875 64.890625 46.6875 
Q 58.890625 46.6875 55.734375 42.140625 
Q 52.59375 37.59375 52.59375 28.90625 
L 52.59375 5.171875 
L 60.40625 5.171875 
L 60.40625 0 
L 35.796875 0 
L 35.796875 5.171875 
L 43.609375 5.171875 
L 43.609375 32.328125 
Q 43.609375 40.09375 41.265625 43.390625 
Q 38.921875 46.6875 33.5 46.6875 
Q 27.484375 46.6875 24.328125 42.140625 
Q 21.1875 37.59375 21.1875 28.90625 
L 21.1875 5.171875 
L 29 5.171875 
L 29 0 
L 4.109375 0 
L 4.109375 5.171875 
L 12.203125 5.171875 
L 12.203125 46.78125 
L 3.609375 46.78125 
L 3.609375 51.90625 
L 21.1875 51.90625 
L 21.1875 42.671875 
Q 23.6875 47.859375 27.53125 50.59375 
Q 31.390625 53.328125 36.28125 53.328125 
Q 42.328125 53.328125 46.375 50.3125 
Q 50.4375 47.3125 51.8125 41.796875 
z
" id="DejaVuSerif-109"/>
     <path d="M 20.515625 28.515625 
L 20.515625 23.390625 
Q 20.515625 14.015625 24.09375 9.109375 
Q 27.6875 4.203125 34.515625 4.203125 
Q 41.40625 4.203125 44.9375 9.71875 
Q 48.484375 15.234375 48.484375 25.984375 
Q 48.484375 36.765625 44.9375 42.234375 
Q 41.40625 47.703125 34.515625 47.703125 
Q 27.6875 47.703125 24.09375 42.765625 
Q 20.515625 37.84375 20.515625 28.515625 
z
M 11.53125 46.6875 
L 2.875 46.6875 
L 2.875 51.90625 
L 20.515625 51.90625 
L 20.515625 43.796875 
Q 23.140625 48.6875 27.21875 51 
Q 31.296875 53.328125 37.3125 53.328125 
Q 46.875 53.328125 52.921875 45.75 
Q 58.984375 38.1875 58.984375 25.984375 
Q 58.984375 13.765625 52.921875 6.171875 
Q 46.875 -1.421875 37.3125 -1.421875 
Q 31.296875 -1.421875 27.21875 0.890625 
Q 23.140625 3.21875 20.515625 8.109375 
L 20.515625 -15.578125 
L 29 -15.578125 
L 29 -20.796875 
L 2.875 -20.796875 
L 2.875 -15.578125 
L 11.53125 -15.578125 
z
" id="DejaVuSerif-112"/>
    </defs>
    <g style="fill:#262626;" transform="translate(274.42325 10.29474)scale(0.096 -0.096)">
     <use xlink:href="#DejaVuSerif-66"/>
     <use x="73.486328" xlink:href="#DejaVuSerif-97"/>
     <use x="133.105469" xlink:href="#DejaVuSerif-114"/>
     <use x="180.908203" xlink:href="#DejaVuSerif-101"/>
     <use x="240.087891" xlink:href="#DejaVuSerif-32"/>
     <use x="271.875" xlink:href="#DejaVuSerif-83"/>
     <use x="340.380859" xlink:href="#DejaVuSerif-111"/>
     <use x="400.585938" xlink:href="#DejaVuSerif-105"/>
     <use x="432.568359" xlink:href="#DejaVuSerif-108"/>
     <use x="464.550781" xlink:href="#DejaVuSerif-32"/>
     <use x="496.337891" xlink:href="#DejaVuSerif-71"/>
     <use x="576.220703" xlink:href="#DejaVuSerif-101"/>
     <use x="635.400391" xlink:href="#DejaVuSerif-110"/>
     <use x="699.804688" xlink:href="#DejaVuSerif-101"/>
     <use x="758.984375" xlink:href="#DejaVuSerif-114"/>
     <use x="806.787109" xlink:href="#DejaVuSerif-97"/>
     <use x="866.40625" xlink:href="#DejaVuSerif-116"/>
     <use x="906.591797" xlink:href="#DejaVuSerif-101"/>
     <use x="965.771484" xlink:href="#DejaVuSerif-100"/>
     <use x="1029.785156" xlink:href="#DejaVuSerif-32"/>
     <use x="1061.572266" xlink:href="#DejaVuSerif-83"/>
     <use x="1130.078125" xlink:href="#DejaVuSerif-97"/>
     <use x="1189.697266" xlink:href="#DejaVuSerif-109"/>
     <use x="1284.521484" xlink:href="#DejaVuSerif-112"/>
     <use x="1348.535156" xlink:href="#DejaVuSerif-108"/>
     <use x="1380.517578" xlink:href="#DejaVuSerif-101"/>
     <use x="1439.697266" xlink:href="#DejaVuSerif-115"/>
    </g>
   </g>
  </g>
  <g id="axes_2">
   <g id="legend_1">
    <g id="line2d_7">
     <path d="M 156.355562 225.43273 
L 173.955562 225.43273 
" style="fill:none;stroke:#c8102e;stroke-linecap:round;stroke-width:1.2;"/>
    </g>
    <g id="line2d_8"/>
    <g id="text_10">
     <!-- Mean + Standard Deviation -->
     <defs>
      <path d="M 5.515625 0 
L 5.515625 5.171875 
L 14.796875 5.171875 
L 14.796875 67.671875 
L 4.984375 67.671875 
L 4.984375 72.90625 
L 26.21875 72.90625 
L 51.8125 21 
L 77.390625 72.90625 
L 97.3125 72.90625 
L 97.3125 67.671875 
L 87.59375 67.671875 
L 87.59375 5.171875 
L 96.921875 5.171875 
L 96.921875 0 
L 68.40625 0 
L 68.40625 5.171875 
L 77.6875 5.171875 
L 77.6875 61.53125 
L 52.6875 10.6875 
L 45.796875 10.6875 
L 20.796875 61.53125 
L 20.796875 5.171875 
L 30.078125 5.171875 
L 30.078125 0 
z
" id="DejaVuSerif-77"/>
      <path d="M 45.796875 62.703125 
L 45.796875 35.296875 
L 73.1875 35.296875 
L 73.1875 27.390625 
L 45.796875 27.390625 
L 45.796875 0 
L 37.984375 0 
L 37.984375 27.390625 
L 10.59375 27.390625 
L 10.59375 35.296875 
L 37.984375 35.296875 
L 37.984375 62.703125 
z
" id="DejaVuSerif-43"/>
      <path d="M 24.703125 5.171875 
L 33.796875 5.171875 
Q 48 5.171875 55.59375 13.28125 
Q 63.1875 21.390625 63.1875 36.53125 
Q 63.1875 51.65625 55.609375 59.65625 
Q 48.046875 67.671875 33.796875 67.671875 
L 24.703125 67.671875 
z
M 5.515625 0 
L 5.515625 5.171875 
L 14.796875 5.171875 
L 14.796875 67.671875 
L 5.515625 67.671875 
L 5.515625 72.90625 
L 34.515625 72.90625 
Q 53.375 72.90625 63.890625 63.28125 
Q 74.421875 53.65625 74.421875 36.53125 
Q 74.421875 19.34375 63.875 9.671875 
Q 53.328125 0 34.515625 0 
z
" id="DejaVuSerif-68"/>
      <path d="M 24.703125 0 
L 5.609375 46.6875 
L -0.296875 46.6875 
L -0.296875 51.90625 
L 23.578125 51.90625 
L 23.578125 46.6875 
L 15.28125 46.6875 
L 29.890625 10.984375 
L 44.484375 46.6875 
L 36.71875 46.6875 
L 36.71875 51.90625 
L 56.203125 51.90625 
L 56.203125 46.6875 
L 50.390625 46.6875 
L 31.296875 0 
z
" id="DejaVuSerif-118"/>
     </defs>
     <g style="fill:#262626;" transform="translate(180.995563 228.51273)scale(0.088 -0.088)">
      <use xlink:href="#DejaVuSerif-77"/>
      <use x="102.392578" xlink:href="#DejaVuSerif-101"/>
      <use x="161.572266" xlink:href="#DejaVuSerif-97"/>
      <use x="221.191406" xlink:href="#DejaVuSerif-110"/>
      <use x="285.595703" xlink:href="#DejaVuSerif-32"/>
      <use x="317.382812" xlink:href="#DejaVuSerif-43"/>
      <use x="401.171875" xlink:href="#DejaVuSerif-32"/>
      <use x="432.958984" xlink:href="#DejaVuSerif-83"/>
      <use x="501.464844" xlink:href="#DejaVuSerif-116"/>
      <use x="541.650391" xlink:href="#DejaVuSerif-97"/>
      <use x="601.269531" xlink:href="#DejaVuSerif-110"/>
      <use x="665.673828" xlink:href="#DejaVuSerif-100"/>
      <use x="729.6875" xlink:href="#DejaVuSerif-97"/>
      <use x="789.306641" xlink:href="#DejaVuSerif-114"/>
      <use x="837.109375" xlink:href="#DejaVuSerif-100"/>
      <use x="901.123047" xlink:href="#DejaVuSerif-32"/>
      <use x="932.910156" xlink:href="#DejaVuSerif-68"/>
      <use x="1013.085938" xlink:href="#DejaVuSerif-101"/>
      <use x="1072.265625" xlink:href="#DejaVuSerif-118"/>
      <use x="1128.759766" xlink:href="#DejaVuSerif-105"/>
      <use x="1160.742188" xlink:href="#DejaVuSerif-97"/>
      <use x="1220.361328" xlink:href="#DejaVuSerif-116"/>
      <use x="1260.546875" xlink:href="#DejaVuSerif-105"/>
      <use x="1292.529297" xlink:href="#DejaVuSerif-111"/>
      <use x="1352.734375" xlink:href="#DejaVuSerif-110"/>
     </g>
    </g>
    <g id="line2d_9">
     <path d="M 323.306687 225.43273 
L 340.906687 225.43273 
" style="fill:none;stroke:#00b388;stroke-linecap:round;stroke-width:1.2;"/>
    </g>
    <g id="line2d_10"/>
    <g id="text_11">
     <!-- Mean -->
     <g style="fill:#262626;" transform="translate(347.946687 228.51273)scale(0.088 -0.088)">
      <use xlink:href="#DejaVuSerif-77"/>
      <use x="102.392578" xlink:href="#DejaVuSerif-101"/>
      <use x="161.572266" xlink:href="#DejaVuSerif-97"/>
      <use x="221.191406" xlink:href="#DejaVuSerif-110"/>
     </g>
    </g>
    <g id="line2d_11">
     <path d="M 390.680313 225.43273 
L 408.280313 225.43273 
" style="fill:none;stroke:#f6be00;stroke-linecap:round;stroke-width:1.2;"/>
    </g>
    <g id="line2d_12"/>
    <g id="text_12">
     <!-- Mean - Standard Deviation -->
     <defs>
      <path d="M 4.390625 30.609375 
L 29.390625 30.609375 
L 29.390625 23 
L 4.390625 23 
z
" id="DejaVuSerif-45"/>
     </defs>
     <g style="fill:#262626;" transform="translate(415.320312 228.51273)scale(0.088 -0.088)">
      <use xlink:href="#DejaVuSerif-77"/>
      <use x="102.392578" xlink:href="#DejaVuSerif-101"/>
      <use x="161.572266" xlink:href="#DejaVuSerif-97"/>
      <use x="221.191406" xlink:href="#DejaVuSerif-110"/>
      <use x="285.595703" xlink:href="#DejaVuSerif-32"/>
      <use x="317.382812" xlink:href="#DejaVuSerif-45"/>
      <use x="351.171875" xlink:href="#DejaVuSerif-32"/>
      <use x="382.958984" xlink:href="#DejaVuSerif-83"/>
      <use x="451.464844" xlink:href="#DejaVuSerif-116"/>
      <use x="491.650391" xlink:href="#DejaVuSerif-97"/>
      <use x="551.269531" xlink:href="#DejaVuSerif-110"/>
      <use x="615.673828" xlink:href="#DejaVuSerif-100"/>
      <use x="679.6875" xlink:href="#DejaVuSerif-97"/>
      <use x="739.306641" xlink:href="#DejaVuSerif-114"/>
      <use x="787.109375" xlink:href="#DejaVuSerif-100"/>
      <use x="851.123047" xlink:href="#DejaVuSerif-32"/>
      <use x="882.910156" xlink:href="#DejaVuSerif-68"/>
      <use x="963.085938" xlink:href="#DejaVuSerif-101"/>
      <use x="1022.265625" xlink:href="#DejaVuSerif-118"/>
      <use x="1078.759766" xlink:href="#DejaVuSerif-105"/>
      <use x="1110.742188" xlink:href="#DejaVuSerif-97"/>
      <use x="1170.361328" xlink:href="#DejaVuSerif-116"/>
      <use x="1210.546875" xlink:href="#DejaVuSerif-105"/>
      <use x="1242.529297" xlink:href="#DejaVuSerif-111"/>
      <use x="1302.734375" xlink:href="#DejaVuSerif-110"/>
     </g>
    </g>
   </g>
  </g>
  <g id="axes_3">
   <g id="patch_7">
    <path d="M 46.98724 434.89201 
L 644.99976 434.89201 
L 644.99976 242.985968 
L 46.98724 242.985968 
z
" style="fill:#ffffff;"/>
   </g>
   <g id="matplotlib.axis_3">
    <g id="xtick_1">
     <g id="text_13">
      <!-- 0 -->
      <g style="fill:#262626;" transform="translate(71.370127 449.878635)scale(0.088 -0.088)">
       <use xlink:href="#DejaVuSerif-48"/>
      </g>
     </g>
    </g>
    <g id="xtick_2">
     <g id="text_14">
      <!-- 20 -->
      <g style="fill:#262626;" transform="translate(175.168224 449.878635)scale(0.088 -0.088)">
       <use xlink:href="#DejaVuSerif-50"/>
       <use x="63.623047" xlink:href="#DejaVuSerif-48"/>
      </g>
     </g>
    </g>
    <g id="xtick_3">
     <g id="text_15">
      <!-- 40 -->
      <g style="fill:#262626;" transform="translate(281.765822 449.878635)scale(0.088 -0.088)">
       <use xlink:href="#DejaVuSerif-52"/>
       <use x="63.623047" xlink:href="#DejaVuSerif-48"/>
      </g>
     </g>
    </g>
    <g id="xtick_4">
     <g id="text_16">
      <!-- 60 -->
      <g style="fill:#262626;" transform="translate(388.363419 449.878635)scale(0.088 -0.088)">
       <use xlink:href="#DejaVuSerif-54"/>
       <use x="63.623047" xlink:href="#DejaVuSerif-48"/>
      </g>
     </g>
    </g>
    <g id="xtick_5">
     <g id="text_17">
      <!-- 80 -->
      <g style="fill:#262626;" transform="translate(494.961016 449.878635)scale(0.088 -0.088)">
       <use xlink:href="#DejaVuSerif-56"/>
       <use x="63.623047" xlink:href="#DejaVuSerif-48"/>
      </g>
     </g>
    </g>
    <g id="xtick_6">
     <g id="text_18">
      <!-- 100 -->
      <g style="fill:#262626;" transform="translate(598.759113 449.878635)scale(0.088 -0.088)">
       <use xlink:href="#DejaVuSerif-49"/>
       <use x="63.623047" xlink:href="#DejaVuSerif-48"/>
       <use x="127.246094" xlink:href="#DejaVuSerif-48"/>
      </g>
     </g>
    </g>
    <g id="text_19">
     <!-- Spectral Band -->
     <g style="fill:#262626;" transform="translate(311.40425 463.00326)scale(0.096 -0.096)">
      <use xlink:href="#DejaVuSerif-83"/>
      <use x="68.505859" xlink:href="#DejaVuSerif-112"/>
      <use x="132.519531" xlink:href="#DejaVuSerif-101"/>
      <use x="191.699219" xlink:href="#DejaVuSerif-99"/>
      <use x="247.705078" xlink:href="#DejaVuSerif-116"/>
      <use x="287.890625" xlink:href="#DejaVuSerif-114"/>
      <use x="335.693359" xlink:href="#DejaVuSerif-97"/>
      <use x="395.3125" xlink:href="#DejaVuSerif-108"/>
      <use x="427.294922" xlink:href="#DejaVuSerif-32"/>
      <use x="459.082031" xlink:href="#DejaVuSerif-66"/>
      <use x="532.568359" xlink:href="#DejaVuSerif-97"/>
      <use x="592.1875" xlink:href="#DejaVuSerif-110"/>
      <use x="656.591797" xlink:href="#DejaVuSerif-100"/>
     </g>
    </g>
   </g>
   <g id="matplotlib.axis_4">
    <g id="ytick_8">
     <g id="text_20">
      <!-- 500 -->
      <defs>
       <path d="M 50.296875 72.90625 
L 50.296875 64.890625 
L 16.890625 64.890625 
L 16.890625 44 
Q 19.4375 45.75 22.828125 46.625 
Q 26.21875 47.515625 30.421875 47.515625 
Q 42.234375 47.515625 49.0625 40.96875 
Q 55.90625 34.421875 55.90625 23.09375 
Q 55.90625 11.53125 49 5.046875 
Q 42.09375 -1.421875 29.59375 -1.421875 
Q 24.5625 -1.421875 19.28125 -0.1875 
Q 14.015625 1.03125 8.5 3.515625 
L 8.5 17.671875 
L 14.015625 17.671875 
Q 14.453125 10.75 18.421875 7.078125 
Q 22.40625 3.421875 29.59375 3.421875 
Q 37.3125 3.421875 41.453125 8.5 
Q 45.609375 13.578125 45.609375 23.09375 
Q 45.609375 32.5625 41.484375 37.609375 
Q 37.359375 42.671875 29.59375 42.671875 
Q 25.203125 42.671875 21.84375 41.109375 
Q 18.5 39.546875 15.921875 36.28125 
L 11.71875 36.28125 
L 11.71875 72.90625 
z
" id="DejaVuSerif-53"/>
      </defs>
      <g style="fill:#262626;" transform="translate(21.89024 418.950221)scale(0.088 -0.088)">
       <use xlink:href="#DejaVuSerif-53"/>
       <use x="63.623047" xlink:href="#DejaVuSerif-48"/>
       <use x="127.246094" xlink:href="#DejaVuSerif-48"/>
      </g>
     </g>
    </g>
    <g id="ytick_9">
     <g id="text_21">
      <!-- 1000 -->
      <g style="fill:#262626;" transform="translate(16.29124 382.549359)scale(0.088 -0.088)">
       <use xlink:href="#DejaVuSerif-49"/>
       <use x="63.623047" xlink:href="#DejaVuSerif-48"/>
       <use x="127.246094" xlink:href="#DejaVuSerif-48"/>
       <use x="190.869141" xlink:href="#DejaVuSerif-48"/>
      </g>
     </g>
    </g>
    <g id="ytick_10">
     <g id="text_22">
      <!-- 1500 -->
      <g style="fill:#262626;" transform="translate(16.29124 346.148498)scale(0.088 -0.088)">
       <use xlink:href="#DejaVuSerif-49"/>
       <use x="63.623047" xlink:href="#DejaVuSerif-53"/>
       <use x="127.246094" xlink:href="#DejaVuSerif-48"/>
       <use x="190.869141" xlink:href="#DejaVuSerif-48"/>
      </g>
     </g>
    </g>
    <g id="ytick_11">
     <g id="text_23">
      <!-- 2000 -->
      <g style="fill:#262626;" transform="translate(16.29124 309.747637)scale(0.088 -0.088)">
       <use xlink:href="#DejaVuSerif-50"/>
       <use x="63.623047" xlink:href="#DejaVuSerif-48"/>
       <use x="127.246094" xlink:href="#DejaVuSerif-48"/>
       <use x="190.869141" xlink:href="#DejaVuSerif-48"/>
      </g>
     </g>
    </g>
    <g id="ytick_12">
     <g id="text_24">
      <!-- 2500 -->
      <g style="fill:#262626;" transform="translate(16.29124 273.346775)scale(0.088 -0.088)">
       <use xlink:href="#DejaVuSerif-50"/>
       <use x="63.623047" xlink:href="#DejaVuSerif-53"/>
       <use x="127.246094" xlink:href="#DejaVuSerif-48"/>
       <use x="190.869141" xlink:href="#DejaVuSerif-48"/>
      </g>
     </g>
    </g>
    <g id="text_25">
     <!-- Intensity -->
     <g style="fill:#262626;" transform="translate(10.15824 360.427239)rotate(-90)scale(0.096 -0.096)">
      <use xlink:href="#DejaVuSerif-73"/>
      <use x="39.501953" xlink:href="#DejaVuSerif-110"/>
      <use x="103.90625" xlink:href="#DejaVuSerif-116"/>
      <use x="144.091797" xlink:href="#DejaVuSerif-101"/>
      <use x="203.271484" xlink:href="#DejaVuSerif-110"/>
      <use x="267.675781" xlink:href="#DejaVuSerif-115"/>
      <use x="318.994141" xlink:href="#DejaVuSerif-105"/>
      <use x="350.976562" xlink:href="#DejaVuSerif-116"/>
      <use x="391.162109" xlink:href="#DejaVuSerif-121"/>
     </g>
    </g>
   </g>
   <g id="line2d_13">
    <path clip-path="url(#p98bdf4f9c8)" d="M 74.169627 368.170498 
L 79.499507 373.430089 
L 84.829387 376.762435 
L 90.159267 374.841277 
L 95.489147 372.360992 
L 100.819027 371.250542 
L 106.148906 370.147181 
L 111.478786 369.364971 
L 116.808666 368.469697 
L 122.138546 367.338382 
L 127.468426 365.778738 
L 132.798306 364.983282 
L 138.128186 364.03571 
L 143.458065 362.949757 
L 148.787945 361.859257 
L 154.117825 360.750144 
L 159.447705 358.855454 
L 164.777585 357.038505 
L 170.107465 355.224552 
L 175.437345 353.269259 
L 180.767224 351.185164 
L 186.097104 348.920016 
L 191.426984 346.945025 
L 196.756864 344.757909 
L 202.086744 341.858288 
L 207.416624 338.440186 
L 212.746504 336.441405 
L 218.076383 335.072449 
L 223.406263 333.712214 
L 228.736143 331.716664 
L 234.066023 329.175296 
L 239.395903 327.456972 
L 244.725783 326.245569 
L 250.055663 324.648295 
L 255.385542 323.000122 
L 260.715422 321.633678 
L 266.045302 320.652821 
L 271.375182 319.765824 
L 276.705062 318.739814 
L 282.034942 317.80107 
L 287.364822 317.51483 
L 292.694701 317.491922 
L 298.024581 316.894976 
L 303.354461 316.046309 
L 308.684341 314.991015 
L 314.014221 314.08085 
L 319.344101 313.783164 
L 324.673981 313.835319 
L 330.00386 313.427118 
L 335.33374 313.742971 
L 340.66362 313.207037 
L 345.9935 312.109159 
L 351.32338 311.574244 
L 356.65326 310.982323 
L 361.98314 311.046509 
L 367.313019 311.326699 
L 372.642899 311.223186 
L 377.972779 310.807626 
L 383.302659 310.507062 
L 388.632539 310.503072 
L 393.962419 310.141114 
L 399.292299 309.337617 
L 404.622178 308.596643 
L 409.952058 307.995919 
L 415.281938 307.571004 
L 420.611818 306.781288 
L 425.941698 304.280733 
L 431.271578 300.986636 
L 436.601458 296.748737 
L 441.931337 292.531707 
L 447.261217 288.370654 
L 452.591097 284.339 
L 457.920977 281.045235 
L 463.250857 277.873997 
L 468.580737 274.125334 
L 473.910617 269.498397 
L 479.240496 265.277115 
L 484.570376 261.133631 
L 489.900256 258.282261 
L 495.230136 256.07366 
L 500.560016 253.526639 
L 505.889896 251.70897 
L 511.219776 252.635847 
L 516.549655 257.662585 
L 521.879535 257.945936 
L 527.209415 254.920644 
L 532.539295 253.117247 
L 537.869175 252.976955 
L 543.199055 252.975872 
L 548.528935 252.681385 
L 553.858814 251.836563 
L 559.188694 252.331319 
L 564.518574 253.440401 
L 569.848454 253.311776 
L 575.178334 252.945031 
L 580.508214 253.725402 
L 585.838094 254.847438 
L 591.167973 256.165859 
L 596.497853 257.511876 
L 601.827733 258.045559 
L 607.157613 258.681232 
L 612.487493 257.903942 
L 617.817373 256.608557 
" style="fill:none;stroke:#c8102e;stroke-linecap:round;stroke-width:1.2;"/>
   </g>
   <g id="line2d_14">
    <path clip-path="url(#p98bdf4f9c8)" d="M 74.169627 391.277916 
L 79.499507 397.218965 
L 84.829387 401.116919 
L 90.159267 399.815463 
L 95.489147 397.766838 
L 100.819027 397.393796 
L 106.148906 397.296298 
L 111.478786 397.324483 
L 116.808666 397.022825 
L 122.138546 396.442785 
L 127.468426 395.672366 
L 132.798306 395.541181 
L 138.128186 395.102359 
L 143.458065 394.433536 
L 148.787945 393.81289 
L 154.117825 393.259935 
L 159.447705 392.099089 
L 164.777585 390.854887 
L 170.107465 389.49363 
L 175.437345 387.927097 
L 180.767224 386.168361 
L 186.097104 384.154668 
L 191.426984 382.327068 
L 196.756864 380.296509 
L 202.086744 377.681206 
L 207.416624 374.800088 
L 212.746504 372.979364 
L 218.076383 371.734555 
L 223.406263 370.583769 
L 228.736143 369.007798 
L 234.066023 367.111812 
L 239.395903 365.874559 
L 244.725783 365.035971 
L 250.055663 364.059554 
L 255.385542 363.202378 
L 260.715422 362.602434 
L 266.045302 362.22819 
L 271.375182 361.865499 
L 276.705062 361.344653 
L 282.034942 360.739526 
L 287.364822 360.509409 
L 292.694701 360.459162 
L 298.024581 360.012768 
L 303.354461 359.35473 
L 308.684341 358.57687 
L 314.014221 357.946844 
L 319.344101 357.766193 
L 324.673981 357.800777 
L 330.00386 357.457904 
L 335.33374 357.54039 
L 340.66362 357.026392 
L 345.9935 356.191568 
L 351.32338 355.842079 
L 356.65326 355.516433 
L 361.98314 355.684431 
L 367.313019 356.027333 
L 372.642899 356.06946 
L 377.972779 355.988841 
L 383.302659 356.026074 
L 388.632539 356.181666 
L 393.962419 355.957195 
L 399.292299 355.342108 
L 404.622178 354.648473 
L 409.952058 353.746333 
L 415.281938 352.436308 
L 420.611818 350.311551 
L 425.941698 346.599358 
L 431.271578 341.725653 
L 436.601458 335.717795 
L 441.931337 329.633126 
L 447.261217 323.598328 
L 452.591097 317.721554 
L 457.920977 312.441294 
L 463.250857 307.582991 
L 468.580737 302.76848 
L 473.910617 297.642118 
L 479.240496 293.199418 
L 484.570376 289.046897 
L 489.900256 286.150173 
L 495.230136 283.856115 
L 500.560016 281.344593 
L 505.889896 279.393018 
L 511.219776 279.566575 
L 516.549655 283.325483 
L 521.879535 283.884112 
L 527.209415 281.469307 
L 532.539295 279.709211 
L 537.869175 279.312254 
L 543.199055 279.081124 
L 548.528935 278.596513 
L 553.858814 277.565201 
L 559.188694 277.69184 
L 564.518574 278.376008 
L 569.848454 278.007237 
L 575.178334 277.46265 
L 580.508214 277.803974 
L 585.838094 278.396927 
L 591.167973 279.286978 
L 596.497853 280.326382 
L 601.827733 280.74501 
L 607.157613 281.236049 
L 612.487493 280.480049 
L 617.817373 279.311545 
" style="fill:none;stroke:#00b388;stroke-linecap:round;stroke-width:1.2;"/>
   </g>
   <g id="line2d_15">
    <path clip-path="url(#p98bdf4f9c8)" d="M 74.169627 414.385334 
L 79.499507 421.007841 
L 84.829387 425.471403 
L 90.159267 424.789649 
L 95.489147 423.172684 
L 100.819027 423.537051 
L 106.148906 424.445415 
L 111.478786 425.283996 
L 116.808666 425.575952 
L 122.138546 425.547187 
L 127.468426 425.565995 
L 132.798306 426.099081 
L 138.128186 426.169008 
L 143.458065 425.917314 
L 148.787945 425.766523 
L 154.117825 425.769727 
L 159.447705 425.342723 
L 164.777585 424.671269 
L 170.107465 423.762707 
L 175.437345 422.584935 
L 180.767224 421.151558 
L 186.097104 419.389319 
L 191.426984 417.709111 
L 196.756864 415.835109 
L 202.086744 413.504124 
L 207.416624 411.15999 
L 212.746504 409.517323 
L 218.076383 408.39666 
L 223.406263 407.455324 
L 228.736143 406.298932 
L 234.066023 405.048328 
L 239.395903 404.292146 
L 244.725783 403.826373 
L 250.055663 403.470813 
L 255.385542 403.404635 
L 260.715422 403.57119 
L 266.045302 403.803559 
L 271.375182 403.965174 
L 276.705062 403.949493 
L 282.034942 403.677982 
L 287.364822 403.503989 
L 292.694701 403.426401 
L 298.024581 403.13056 
L 303.354461 402.663151 
L 308.684341 402.162725 
L 314.014221 401.812837 
L 319.344101 401.749222 
L 324.673981 401.766235 
L 330.00386 401.48869 
L 335.33374 401.33781 
L 340.66362 400.845747 
L 345.9935 400.273977 
L 351.32338 400.109915 
L 356.65326 400.050543 
L 361.98314 400.322354 
L 367.313019 400.727968 
L 372.642899 400.915734 
L 377.972779 401.170055 
L 383.302659 401.545086 
L 388.632539 401.86026 
L 393.962419 401.773276 
L 399.292299 401.3466 
L 404.622178 400.700302 
L 409.952058 399.496748 
L 415.281938 397.301612 
L 420.611818 393.841814 
L 425.941698 388.917984 
L 431.271578 382.46467 
L 436.601458 374.686854 
L 441.931337 366.734545 
L 447.261217 358.826001 
L 452.591097 351.104108 
L 457.920977 343.837352 
L 463.250857 337.291986 
L 468.580737 331.411625 
L 473.910617 325.785839 
L 479.240496 321.12172 
L 484.570376 316.960162 
L 489.900256 314.018085 
L 495.230136 311.63857 
L 500.560016 309.162547 
L 505.889896 307.077065 
L 511.219776 306.497303 
L 516.549655 308.988382 
L 521.879535 309.822289 
L 527.209415 308.01797 
L 532.539295 306.301174 
L 537.869175 305.647552 
L 543.199055 305.186376 
L 548.528935 304.511641 
L 553.858814 303.293839 
L 559.188694 303.052361 
L 564.518574 303.311616 
L 569.848454 302.702698 
L 575.178334 301.98027 
L 580.508214 301.882547 
L 585.838094 301.946415 
L 591.167973 302.408097 
L 596.497853 303.140889 
L 601.827733 303.444462 
L 607.157613 303.790867 
L 612.487493 303.056156 
L 617.817373 302.014533 
" style="fill:none;stroke:#f6be00;stroke-linecap:round;stroke-width:1.2;"/>
   </g>
   <g id="patch_8">
    <path d="M 46.98724 434.89201 
L 46.98724 242.985968 
" style="fill:none;stroke:#262626;stroke-linecap:square;stroke-linejoin:miter;"/>
   </g>
   <g id="patch_9">
    <path d="M 644.99976 434.89201 
L 644.99976 242.985968 
" style="fill:none;stroke:#262626;stroke-linecap:square;stroke-linejoin:miter;"/>
   </g>
   <g id="patch_10">
    <path d="M 46.98724 434.89201 
L 644.99976 434.89201 
" style="fill:none;stroke:#262626;stroke-linecap:square;stroke-linejoin:miter;"/>
   </g>
   <g id="patch_11">
    <path d="M 46.98724 242.985968 
L 644.99976 242.985968 
" style="fill:none;stroke:#262626;stroke-linecap:square;stroke-linejoin:miter;"/>
   </g>
  </g>
 </g>
 <defs>
  <clipPath id="pd60fb9699e">
   <rect height="191.906042" width="598.01252" x="46.98724" y="16.29474"/>
  </clipPath>
  <clipPath id="p98bdf4f9c8">
   <rect height="191.906042" width="598.01252" x="46.98724" y="242.985968"/>
  </clipPath>
 </defs>
</svg>
