<?xml version="1.0" encoding="utf-8" standalone="no"?>
<!DOCTYPE svg PUBLIC "-//W3C//DTD SVG 1.1//EN"
  "http://www.w3.org/Graphics/SVG/1.1/DTD/svg11.dtd">
<!-- Created with matplotlib (https://matplotlib.org/) -->
<svg height="468pt" version="1.1" viewBox="0 0 648 468" width="648pt" xmlns="http://www.w3.org/2000/svg" xmlns:xlink="http://www.w3.org/1999/xlink">
 <defs>
  <style type="text/css">
*{stroke-linecap:butt;stroke-linejoin:round;}
  </style>
 </defs>
 <g id="figure_1">
  <g id="patch_1">
   <path d="M 0 468 
L 648 468 
L 648 0 
L 0 0 
z
" style="fill:#ffffff;"/>
  </g>
  <g id="axes_1">
   <g id="patch_2">
    <path d="M 38.58599 208.631112 
L 644.99976 208.631112 
L 644.99976 16.29474 
L 38.58599 16.29474 
z
" style="fill:#ffffff;"/>
   </g>
   <g id="matplotlib.axis_1"/>
   <g id="matplotlib.axis_2">
    <g id="ytick_1">
     <g id="text_1">
      <!-- 0.6 -->
      <defs>
       <path d="M 31.78125 3.421875 
Q 39.265625 3.421875 42.96875 11.625 
Q 46.6875 19.828125 46.6875 36.375 
Q 46.6875 52.984375 42.96875 61.1875 
Q 39.265625 69.390625 31.78125 69.390625 
Q 24.3125 69.390625 20.59375 61.1875 
Q 16.890625 52.984375 16.890625 36.375 
Q 16.890625 19.828125 20.59375 11.625 
Q 24.3125 3.421875 31.78125 3.421875 
z
M 31.78125 -1.421875 
Q 19.921875 -1.421875 13.25 8.53125 
Q 6.59375 18.5 6.59375 36.375 
Q 6.59375 54.296875 13.25 64.25 
Q 19.921875 74.21875 31.78125 74.21875 
Q 43.703125 74.21875 50.34375 64.25 
Q 56.984375 54.296875 56.984375 36.375 
Q 56.984375 18.5 50.34375 8.53125 
Q 43.703125 -1.421875 31.78125 -1.421875 
z
" id="DejaVuSerif-48"/>
       <path d="M 9.421875 5.078125 
Q 9.421875 7.8125 11.28125 9.71875 
Q 13.140625 11.625 15.921875 11.625 
Q 18.609375 11.625 20.5 9.71875 
Q 22.40625 7.8125 22.40625 5.078125 
Q 22.40625 2.390625 20.5 0.484375 
Q 18.609375 -1.421875 15.921875 -1.421875 
Q 13.140625 -1.421875 11.28125 0.453125 
Q 9.421875 2.34375 9.421875 5.078125 
z
" id="DejaVuSerif-46"/>
       <path d="M 32.71875 3.421875 
Q 39.59375 3.421875 43.296875 8.46875 
Q 47.015625 13.53125 47.015625 23 
Q 47.015625 32.46875 43.296875 37.515625 
Q 39.59375 42.578125 32.71875 42.578125 
Q 25.734375 42.578125 22.0625 37.6875 
Q 18.40625 32.8125 18.40625 23.578125 
Q 18.40625 13.875 22.109375 8.640625 
Q 25.828125 3.421875 32.71875 3.421875 
z
M 16.796875 40.140625 
Q 20.125 43.796875 24.3125 45.59375 
Q 28.515625 47.40625 33.796875 47.40625 
Q 44.671875 47.40625 51 40.859375 
Q 57.328125 34.328125 57.328125 23 
Q 57.328125 11.921875 50.515625 5.25 
Q 43.703125 -1.421875 32.328125 -1.421875 
Q 19.96875 -1.421875 13.328125 7.78125 
Q 6.6875 17 6.6875 34.078125 
Q 6.6875 53.21875 14.546875 63.71875 
Q 22.40625 74.21875 36.71875 74.21875 
Q 40.578125 74.21875 44.828125 73.484375 
Q 49.078125 72.75 53.515625 71.296875 
L 53.515625 59.28125 
L 48 59.28125 
Q 47.40625 64.203125 44.234375 66.796875 
Q 41.0625 69.390625 35.6875 69.390625 
Q 26.21875 69.390625 21.578125 62.203125 
Q 16.9375 55.03125 16.796875 40.140625 
z
" id="DejaVuSerif-54"/>
      </defs>
      <g style="fill:#262626;" transform="translate(16.29124 176.474321)scale(0.088 -0.088)">
       <use xlink:href="#DejaVuSerif-48"/>
       <use x="63.623047" xlink:href="#DejaVuSerif-46"/>
       <use x="95.410156" xlink:href="#DejaVuSerif-54"/>
      </g>
     </g>
    </g>
    <g id="ytick_2">
     <g id="text_2">
      <!-- 0.7 -->
      <defs>
       <path d="M 56.390625 67.921875 
L 27.875 0 
L 20.609375 0 
L 47.796875 64.890625 
L 14.109375 64.890625 
L 14.109375 55.90625 
L 8.40625 55.90625 
L 8.40625 72.90625 
L 56.390625 72.90625 
z
" id="DejaVuSerif-55"/>
      </defs>
      <g style="fill:#262626;" transform="translate(16.29124 139.450895)scale(0.088 -0.088)">
       <use xlink:href="#DejaVuSerif-48"/>
       <use x="63.623047" xlink:href="#DejaVuSerif-46"/>
       <use x="95.410156" xlink:href="#DejaVuSerif-55"/>
      </g>
     </g>
    </g>
    <g id="ytick_3">
     <g id="text_3">
      <!-- 0.8 -->
      <defs>
       <path d="M 46.578125 19.921875 
Q 46.578125 27.734375 42.6875 32.046875 
Q 38.8125 36.375 31.78125 36.375 
Q 24.75 36.375 20.875 32.046875 
Q 17 27.734375 17 19.921875 
Q 17 12.0625 20.875 7.734375 
Q 24.75 3.421875 31.78125 3.421875 
Q 38.8125 3.421875 42.6875 7.734375 
Q 46.578125 12.0625 46.578125 19.921875 
z
M 44.578125 55.328125 
Q 44.578125 61.96875 41.203125 65.671875 
Q 37.84375 69.390625 31.78125 69.390625 
Q 25.78125 69.390625 22.390625 65.671875 
Q 19 61.96875 19 55.328125 
Q 19 48.640625 22.390625 44.921875 
Q 25.78125 41.21875 31.78125 41.21875 
Q 37.84375 41.21875 41.203125 44.921875 
Q 44.578125 48.640625 44.578125 55.328125 
z
M 39.3125 38.8125 
Q 47.609375 37.703125 52.25 32.6875 
Q 56.890625 27.6875 56.890625 19.921875 
Q 56.890625 9.671875 50.390625 4.125 
Q 43.890625 -1.421875 31.78125 -1.421875 
Q 19.734375 -1.421875 13.203125 4.125 
Q 6.6875 9.671875 6.6875 19.921875 
Q 6.6875 27.6875 11.328125 32.6875 
Q 15.96875 37.703125 24.3125 38.8125 
Q 16.9375 40.140625 13 44.40625 
Q 9.078125 48.6875 9.078125 55.328125 
Q 9.078125 64.109375 15.125 69.15625 
Q 21.1875 74.21875 31.78125 74.21875 
Q 42.390625 74.21875 48.4375 69.15625 
Q 54.5 64.109375 54.5 55.328125 
Q 54.5 48.6875 50.5625 44.40625 
Q 46.625 40.140625 39.3125 38.8125 
z
" id="DejaVuSerif-56"/>
      </defs>
      <g style="fill:#262626;" transform="translate(16.29124 102.427468)scale(0.088 -0.088)">
       <use xlink:href="#DejaVuSerif-48"/>
       <use x="63.623047" xlink:href="#DejaVuSerif-46"/>
       <use x="95.410156" xlink:href="#DejaVuSerif-56"/>
      </g>
     </g>
    </g>
    <g id="ytick_4">
     <g id="text_4">
      <!-- 0.9 -->
      <defs>
       <path d="M 46.78125 32.671875 
Q 43.5 29 39.25 27.1875 
Q 35.015625 25.390625 29.6875 25.390625 
Q 18.84375 25.390625 12.5625 31.9375 
Q 6.296875 38.484375 6.296875 49.8125 
Q 6.296875 60.890625 13.109375 67.546875 
Q 19.921875 74.21875 31.296875 74.21875 
Q 43.65625 74.21875 50.265625 65.015625 
Q 56.890625 55.8125 56.890625 38.71875 
Q 56.890625 19.578125 49.015625 9.078125 
Q 41.15625 -1.421875 26.90625 -1.421875 
Q 23.046875 -1.421875 18.796875 -0.6875 
Q 14.546875 0.046875 10.109375 1.515625 
L 10.109375 13.625 
L 15.578125 13.625 
Q 16.21875 8.6875 19.390625 6.046875 
Q 22.5625 3.421875 27.875 3.421875 
Q 37.359375 3.421875 41.984375 10.5625 
Q 46.625 17.71875 46.78125 32.671875 
z
M 30.90625 69.390625 
Q 23.96875 69.390625 20.28125 64.328125 
Q 16.609375 59.28125 16.609375 49.8125 
Q 16.609375 40.328125 20.28125 35.25 
Q 23.96875 30.171875 30.90625 30.171875 
Q 37.84375 30.171875 41.53125 35.078125 
Q 45.21875 39.984375 45.21875 49.21875 
Q 45.21875 58.9375 41.5 64.15625 
Q 37.796875 69.390625 30.90625 69.390625 
z
" id="DejaVuSerif-57"/>
      </defs>
      <g style="fill:#262626;" transform="translate(16.29124 65.404042)scale(0.088 -0.088)">
       <use xlink:href="#DejaVuSerif-48"/>
       <use x="63.623047" xlink:href="#DejaVuSerif-46"/>
       <use x="95.410156" xlink:href="#DejaVuSerif-57"/>
      </g>
     </g>
    </g>
    <g id="ytick_5">
     <g id="text_5">
      <!-- 1.0 -->
      <defs>
       <path d="M 14.203125 0 
L 14.203125 5.171875 
L 26.90625 5.171875 
L 26.90625 65.828125 
L 12.203125 56.296875 
L 12.203125 62.703125 
L 29.984375 74.21875 
L 36.71875 74.21875 
L 36.71875 5.171875 
L 49.421875 5.171875 
L 49.421875 0 
z
" id="DejaVuSerif-49"/>
      </defs>
      <g style="fill:#262626;" transform="translate(16.29124 28.380615)scale(0.088 -0.088)">
       <use xlink:href="#DejaVuSerif-49"/>
       <use x="63.623047" xlink:href="#DejaVuSerif-46"/>
       <use x="95.410156" xlink:href="#DejaVuSerif-48"/>
      </g>
     </g>
    </g>
    <g id="text_6">
     <!-- Accuracy -->
     <defs>
      <path d="M 20.015625 26.421875 
L 46.78125 26.421875 
L 33.40625 61.078125 
z
M -0.59375 0 
L -0.59375 5.171875 
L 5.8125 5.171875 
L 31.78125 72.90625 
L 39.984375 72.90625 
L 66.015625 5.171875 
L 73.1875 5.171875 
L 73.1875 0 
L 46.6875 0 
L 46.6875 5.171875 
L 54.78125 5.171875 
L 48.6875 21.1875 
L 18.015625 21.1875 
L 11.921875 5.171875 
L 19.921875 5.171875 
L 19.921875 0 
z
" id="DejaVuSerif-65"/>
      <path d="M 51.421875 15.578125 
Q 49.515625 7.28125 44.09375 2.921875 
Q 38.671875 -1.421875 30.078125 -1.421875 
Q 18.75 -1.421875 11.859375 6.078125 
Q 4.984375 13.578125 4.984375 25.984375 
Q 4.984375 38.421875 11.859375 45.875 
Q 18.75 53.328125 30.078125 53.328125 
Q 35.015625 53.328125 39.890625 52.171875 
Q 44.78125 51.03125 49.703125 48.6875 
L 49.703125 35.40625 
L 44.484375 35.40625 
Q 43.453125 42.234375 40.015625 45.359375 
Q 36.578125 48.484375 30.171875 48.484375 
Q 22.90625 48.484375 19.1875 42.84375 
Q 15.484375 37.203125 15.484375 25.984375 
Q 15.484375 14.75 19.171875 9.078125 
Q 22.859375 3.421875 30.171875 3.421875 
Q 35.984375 3.421875 39.453125 6.4375 
Q 42.921875 9.46875 44.1875 15.578125 
z
" id="DejaVuSerif-99"/>
      <path d="M 35.40625 51.90625 
L 52.203125 51.90625 
L 52.203125 5.171875 
L 60.6875 5.171875 
L 60.6875 0 
L 43.21875 0 
L 43.21875 9.1875 
Q 40.71875 4 36.765625 1.28125 
Q 32.8125 -1.421875 27.59375 -1.421875 
Q 18.953125 -1.421875 14.875 3.484375 
Q 10.796875 8.40625 10.796875 18.890625 
L 10.796875 46.6875 
L 2.6875 46.6875 
L 2.6875 51.90625 
L 19.828125 51.90625 
L 19.828125 21.6875 
Q 19.828125 12.203125 22.140625 8.6875 
Q 24.46875 5.171875 30.421875 5.171875 
Q 36.671875 5.171875 39.9375 9.765625 
Q 43.21875 14.359375 43.21875 23.09375 
L 43.21875 46.6875 
L 35.40625 46.6875 
z
" id="DejaVuSerif-117"/>
      <path d="M 47.796875 52 
L 47.796875 39.015625 
L 42.625 39.015625 
Q 42.390625 42.875 40.484375 44.78125 
Q 38.578125 46.6875 34.90625 46.6875 
Q 28.265625 46.6875 24.71875 42.09375 
Q 21.1875 37.5 21.1875 28.90625 
L 21.1875 5.171875 
L 31.59375 5.171875 
L 31.59375 0 
L 4.109375 0 
L 4.109375 5.171875 
L 12.203125 5.171875 
L 12.203125 46.78125 
L 3.609375 46.78125 
L 3.609375 51.90625 
L 21.1875 51.90625 
L 21.1875 42.671875 
Q 23.828125 48.09375 27.96875 50.703125 
Q 32.125 53.328125 38.09375 53.328125 
Q 40.28125 53.328125 42.703125 52.984375 
Q 45.125 52.640625 47.796875 52 
z
" id="DejaVuSerif-114"/>
      <path d="M 39.796875 16.3125 
L 39.796875 27.296875 
L 28.21875 27.296875 
Q 21.53125 27.296875 18.25 24.40625 
Q 14.984375 21.53125 14.984375 15.578125 
Q 14.984375 10.15625 18.296875 6.984375 
Q 21.625 3.8125 27.296875 3.8125 
Q 32.90625 3.8125 36.34375 7.28125 
Q 39.796875 10.75 39.796875 16.3125 
z
M 48.78125 32.421875 
L 48.78125 5.171875 
L 56.78125 5.171875 
L 56.78125 0 
L 39.796875 0 
L 39.796875 5.609375 
Q 36.8125 2 32.90625 0.28125 
Q 29 -1.421875 23.78125 -1.421875 
Q 15.140625 -1.421875 10.0625 3.171875 
Q 4.984375 7.765625 4.984375 15.578125 
Q 4.984375 23.640625 10.796875 28.078125 
Q 16.609375 32.515625 27.203125 32.515625 
L 39.796875 32.515625 
L 39.796875 36.078125 
Q 39.796875 42 36.203125 45.234375 
Q 32.625 48.484375 26.125 48.484375 
Q 20.75 48.484375 17.578125 46.046875 
Q 14.40625 43.609375 13.625 38.8125 
L 8.984375 38.8125 
L 8.984375 49.3125 
Q 13.671875 51.3125 18.09375 52.3125 
Q 22.515625 53.328125 26.703125 53.328125 
Q 37.5 53.328125 43.140625 47.96875 
Q 48.78125 42.625 48.78125 32.421875 
z
" id="DejaVuSerif-97"/>
      <path d="M 21.578125 -9.515625 
L 25 -0.875 
L 5.609375 46.6875 
L -0.296875 46.6875 
L -0.296875 51.90625 
L 23.578125 51.90625 
L 23.578125 46.6875 
L 15.28125 46.6875 
L 29.890625 10.984375 
L 44.484375 46.6875 
L 36.71875 46.6875 
L 36.71875 51.90625 
L 56.203125 51.90625 
L 56.203125 46.6875 
L 50.390625 46.6875 
L 26.609375 -11.71875 
Q 24.171875 -17.78125 21.1875 -20 
Q 18.21875 -22.21875 12.796875 -22.21875 
Q 10.5 -22.21875 8.078125 -21.828125 
Q 5.671875 -21.4375 3.21875 -20.703125 
L 3.21875 -10.796875 
L 7.8125 -10.796875 
Q 8.109375 -14.109375 9.5 -15.546875 
Q 10.890625 -17 13.8125 -17 
Q 16.5 -17 18.140625 -15.5 
Q 19.78125 -14.015625 21.578125 -9.515625 
z
" id="DejaVuSerif-121"/>
     </defs>
     <g style="fill:#262626;" transform="translate(10.15824 134.953176)rotate(-90)scale(0.096 -0.096)">
      <use xlink:href="#DejaVuSerif-65"/>
      <use x="72.216797" xlink:href="#DejaVuSerif-99"/>
      <use x="128.222656" xlink:href="#DejaVuSerif-99"/>
      <use x="184.228516" xlink:href="#DejaVuSerif-117"/>
      <use x="248.632812" xlink:href="#DejaVuSerif-114"/>
      <use x="296.435547" xlink:href="#DejaVuSerif-97"/>
      <use x="356.054688" xlink:href="#DejaVuSerif-99"/>
      <use x="412.060547" xlink:href="#DejaVuSerif-121"/>
     </g>
    </g>
   </g>
   <g id="line2d_1">
    <path clip-path="url(#p9ccd0ee17f)" d="M 66.150252 199.88855 
L 68.92053 88.559368 
L 71.690808 52.312648 
L 74.461085 40.089933 
L 77.231363 34.55057 
L 80.00164 33.165712 
L 82.771918 30.697089 
L 85.542196 30.396042 
L 88.312473 28.288666 
L 91.082751 28.228466 
L 93.853028 28.950984 
L 96.623306 29.011184 
L 99.393584 29.19183 
L 102.163861 34.490347 
L 104.934139 30.396042 
L 107.704417 29.372454 
L 110.474694 27.987619 
L 113.244972 27.204878 
L 116.015249 27.325302 
L 118.785527 26.783408 
L 121.555805 27.024254 
L 124.326082 30.817512 
L 127.09636 29.071407 
L 129.866637 27.987619 
L 132.636915 29.19183 
L 135.407193 27.806995 
L 138.17747 26.662984 
L 140.947748 26.723185 
L 143.718026 26.361937 
L 146.488303 26.422138 
L 149.258581 26.723185 
L 152.028858 26.783408 
L 154.799136 26.301714 
L 157.569414 26.964032 
L 160.339691 27.265101 
L 163.109969 26.542561 
L 165.880246 27.084455 
L 168.650524 26.542561 
L 171.420802 26.48236 
L 174.191079 27.806995 
L 176.961357 26.783408 
L 179.731635 27.265101 
L 182.501912 38.885722 
L 185.27219 30.576666 
L 188.042467 42.919826 
L 190.812745 39.186769 
L 193.583023 34.068876 
L 196.3533 30.636888 
L 199.123578 29.19183 
L 201.893855 29.011184 
L 204.664133 27.987619 
L 207.434411 27.204878 
L 210.204688 27.265101 
L 212.974966 26.903831 
L 215.745244 26.301714 
L 218.515521 26.422138 
L 221.285799 26.422138 
L 232.366909 25.75982 
L 235.137187 25.820043 
L 237.907464 26.12109 
L 240.677742 25.940466 
L 243.44802 26.000667 
L 246.218297 25.880244 
L 248.988575 26.06089 
L 251.758853 25.69962 
L 254.52913 25.69962 
L 257.299408 25.398572 
L 260.069685 25.579196 
L 262.839963 25.880244 
L 265.610241 25.458773 
L 271.150796 25.75982 
L 276.691351 25.458773 
L 279.461629 25.639397 
L 282.231906 25.33835 
L 285.002184 25.458773 
L 287.772462 26.542561 
L 290.542739 26.12109 
L 293.313017 26.181291 
L 296.083294 26.48236 
L 298.853572 25.880244 
L 301.62385 25.880244 
L 307.164405 26.542561 
L 309.934682 25.75982 
L 312.70496 25.458773 
L 315.475238 25.518996 
L 318.245515 25.880244 
L 321.015793 26.12109 
L 323.786071 30.636888 
L 326.556348 28.890783 
L 329.326626 26.843608 
L 334.867181 26.903831 
L 337.637459 26.06089 
L 340.407736 26.361937 
L 343.178014 26.241514 
L 345.948291 26.361937 
L 348.718569 26.723185 
L 351.488847 25.940466 
L 354.259124 26.06089 
L 357.029402 25.820043 
L 359.799679 25.940466 
L 362.569957 25.940466 
L 365.340235 25.69962 
L 368.110512 25.940466 
L 370.88079 25.880244 
L 373.651068 26.000667 
L 379.191623 25.69962 
L 381.9619 25.579196 
L 384.732178 25.69962 
L 387.502456 25.69962 
L 393.043011 25.278149 
L 398.583566 25.458773 
L 401.353844 25.458773 
L 404.124121 25.33835 
L 406.894399 25.33835 
L 409.664677 25.69962 
L 412.434954 25.518996 
L 415.205232 25.880244 
L 417.975509 25.639397 
L 420.745787 34.731194 
L 423.516065 28.890783 
L 426.286342 27.746772 
L 429.05662 27.445725 
L 431.826897 26.903831 
L 434.597175 26.662984 
L 437.367453 26.301714 
L 440.13773 26.783408 
L 442.908008 27.987619 
L 445.678286 27.325302 
L 448.448563 26.361937 
L 451.218841 26.12109 
L 456.759396 26.301714 
L 459.529674 25.75982 
L 462.299951 26.301714 
L 465.070229 26.181291 
L 467.840506 25.69962 
L 470.610784 25.940466 
L 473.381062 25.880244 
L 476.151339 25.69962 
L 478.921617 26.06089 
L 481.691895 25.75982 
L 484.462172 25.579196 
L 487.23245 32.503395 
L 490.002727 29.19183 
L 492.773005 27.686572 
L 495.543283 27.867196 
L 498.31356 26.964032 
L 501.083838 27.265101 
L 503.854115 26.662984 
L 506.624393 26.181291 
L 509.394671 26.06089 
L 512.164948 26.48236 
L 514.935226 25.75982 
L 517.705504 25.639397 
L 520.475781 25.940466 
L 523.246059 25.75982 
L 526.016336 25.217926 
L 528.786614 25.820043 
L 531.556892 25.157726 
L 534.327169 25.518996 
L 537.097447 25.458773 
L 539.867724 25.69962 
L 542.638002 25.518996 
L 545.40828 25.880244 
L 548.178557 25.458773 
L 550.948835 25.639397 
L 553.719113 25.33835 
L 556.48939 25.518996 
L 559.259668 25.940466 
L 562.029945 26.000667 
L 567.570501 25.458773 
L 570.340778 25.518996 
L 573.111056 25.940466 
L 575.881333 25.639397 
L 578.651611 25.69962 
L 581.421889 25.579196 
L 584.192166 25.940466 
L 586.962444 25.639397 
L 589.732722 25.579196 
L 592.502999 25.398572 
L 595.273277 25.880244 
L 606.354387 25.458773 
L 609.124665 25.639397 
L 611.894942 25.278149 
L 614.66522 25.398572 
L 617.435498 25.639397 
L 617.435498 25.639397 
" style="fill:none;stroke:#c8102e;stroke-linecap:round;stroke-width:1.2;"/>
   </g>
   <g id="line2d_2">
    <path clip-path="url(#p9ccd0ee17f)" d="M 66.150252 100.528967 
L 68.92053 38.582468 
L 71.690808 29.191146 
L 74.461085 27.746331 
L 77.231363 27.926933 
L 80.00164 27.023923 
L 82.771918 25.398506 
L 88.312473 25.75971 
L 93.853028 25.398506 
L 96.623306 25.398506 
L 99.393584 26.301516 
L 102.163861 27.385127 
L 104.934139 27.023923 
L 107.704417 25.75971 
L 110.474694 25.398506 
L 113.244972 25.579108 
L 116.015249 25.579108 
L 118.785527 25.217904 
L 121.555805 25.579108 
L 124.326082 25.75971 
L 127.09636 25.579108 
L 129.866637 26.482118 
L 132.636915 26.301516 
L 135.407193 25.217904 
L 138.17747 25.398506 
L 140.947748 25.037302 
L 143.718026 25.037302 
L 146.488303 25.217904 
L 149.258581 25.217904 
L 152.028858 25.037302 
L 154.799136 25.217904 
L 157.569414 25.217904 
L 160.339691 25.398506 
L 165.880246 25.398506 
L 168.650524 25.75971 
L 174.191079 25.75971 
L 176.961357 25.217904 
L 179.731635 26.482118 
L 182.501912 25.75971 
L 185.27219 26.66272 
L 188.042467 28.107535 
L 190.812745 27.204525 
L 196.3533 25.75971 
L 199.123578 25.75971 
L 201.893855 25.579108 
L 204.664133 25.579108 
L 207.434411 25.75971 
L 210.204688 25.037302 
L 212.974966 25.75971 
L 215.745244 25.037302 
L 218.515521 25.579108 
L 221.285799 25.217904 
L 224.056076 25.940312 
L 226.826354 25.579108 
L 229.596632 25.75971 
L 232.366909 25.579108 
L 235.137187 25.037302 
L 237.907464 25.579108 
L 240.677742 25.398506 
L 243.44802 25.579108 
L 246.218297 25.217904 
L 251.758853 25.579108 
L 254.52913 25.579108 
L 257.299408 25.398506 
L 260.069685 25.398506 
L 262.839963 25.579108 
L 265.610241 25.398506 
L 268.380518 25.75971 
L 271.150796 25.579108 
L 273.921073 25.579108 
L 276.691351 25.217904 
L 279.461629 25.037302 
L 282.231906 25.037302 
L 285.002184 25.940312 
L 287.772462 25.75971 
L 290.542739 25.037302 
L 293.313017 25.75971 
L 296.083294 25.037302 
L 298.853572 25.217904 
L 301.62385 25.217904 
L 304.394127 25.037302 
L 307.164405 25.579108 
L 309.934682 25.579108 
L 312.70496 25.217904 
L 315.475238 25.579108 
L 318.245515 25.579108 
L 321.015793 25.398506 
L 323.786071 25.940312 
L 326.556348 25.217904 
L 329.326626 25.398506 
L 332.096903 26.120914 
L 334.867181 25.579108 
L 337.637459 25.940312 
L 340.407736 25.940312 
L 343.178014 25.579108 
L 345.948291 25.398506 
L 351.488847 25.398506 
L 354.259124 25.940312 
L 359.799679 25.579108 
L 362.569957 25.75971 
L 365.340235 25.217904 
L 368.110512 25.217904 
L 370.88079 25.398506 
L 373.651068 25.398506 
L 376.421345 25.579108 
L 381.9619 25.217904 
L 390.272733 25.217904 
L 393.043011 25.398506 
L 395.813288 25.217904 
L 398.583566 25.217904 
L 401.353844 25.75971 
L 404.124121 25.579108 
L 409.664677 25.579108 
L 412.434954 25.75971 
L 417.975509 25.75971 
L 420.745787 26.482118 
L 423.516065 25.940312 
L 426.286342 25.75971 
L 429.05662 26.120914 
L 434.597175 25.398506 
L 437.367453 25.579108 
L 440.13773 26.301516 
L 442.908008 26.482118 
L 445.678286 25.579108 
L 448.448563 25.579108 
L 451.218841 25.217904 
L 453.989118 25.579108 
L 459.529674 25.217904 
L 462.299951 25.398506 
L 465.070229 25.398506 
L 470.610784 25.037302 
L 473.381062 25.398506 
L 478.921617 25.398506 
L 481.691895 25.579108 
L 484.462172 25.217904 
L 487.23245 25.398506 
L 490.002727 26.120914 
L 492.773005 25.037302 
L 495.543283 25.398506 
L 498.31356 25.037302 
L 501.083838 25.398506 
L 503.854115 25.398506 
L 506.624393 25.579108 
L 512.164948 25.579108 
L 514.935226 25.398506 
L 520.475781 25.398506 
L 523.246059 25.037302 
L 526.016336 25.398506 
L 531.556892 25.398506 
L 534.327169 25.037302 
L 537.097447 25.398506 
L 539.867724 25.037302 
L 559.259668 25.037302 
L 562.029945 25.217904 
L 564.800223 25.037302 
L 575.881333 25.037302 
L 578.651611 25.217904 
L 581.421889 25.217904 
L 584.192166 25.579108 
L 589.732722 25.217904 
L 592.502999 25.217904 
L 595.273277 25.037302 
L 598.043554 25.217904 
L 600.813832 25.579108 
L 603.58411 25.217904 
L 617.435498 25.217904 
L 617.435498 25.217904 
" style="fill:none;stroke:#00b388;stroke-linecap:round;stroke-width:1.2;"/>
   </g>
   <g id="line2d_3"/>
   <g id="line2d_4"/>
   <g id="patch_3">
    <path d="M 38.58599 208.631112 
L 38.58599 16.29474 
" style="fill:none;stroke:#262626;stroke-linecap:square;stroke-linejoin:miter;"/>
   </g>
   <g id="patch_4">
    <path d="M 644.99976 208.631112 
L 644.99976 16.29474 
" style="fill:none;stroke:#262626;stroke-linecap:square;stroke-linejoin:miter;"/>
   </g>
   <g id="patch_5">
    <path d="M 38.58599 208.631112 
L 644.99976 208.631112 
" style="fill:none;stroke:#262626;stroke-linecap:square;stroke-linejoin:miter;"/>
   </g>
   <g id="patch_6">
    <path d="M 38.58599 16.29474 
L 644.99976 16.29474 
" style="fill:none;stroke:#262626;stroke-linecap:square;stroke-linejoin:miter;"/>
   </g>
   <g id="text_7">
    <!-- Indian Pines 3D-CNN Training History -->
    <defs>
     <path d="M 24.703125 5.171875 
L 33.984375 5.171875 
L 33.984375 0 
L 5.515625 0 
L 5.515625 5.171875 
L 14.796875 5.171875 
L 14.796875 67.671875 
L 5.515625 67.671875 
L 5.515625 72.90625 
L 33.984375 72.90625 
L 33.984375 67.671875 
L 24.703125 67.671875 
z
" id="DejaVuSerif-73"/>
     <path d="M 4.109375 0 
L 4.109375 5.171875 
L 12.203125 5.171875 
L 12.203125 46.6875 
L 3.609375 46.6875 
L 3.609375 51.90625 
L 21.1875 51.90625 
L 21.1875 42.671875 
Q 23.6875 47.953125 27.65625 50.640625 
Q 31.640625 53.328125 36.921875 53.328125 
Q 45.515625 53.328125 49.5625 48.390625 
Q 53.609375 43.453125 53.609375 33.015625 
L 53.609375 5.171875 
L 61.625 5.171875 
L 61.625 0 
L 36.8125 0 
L 36.8125 5.171875 
L 44.578125 5.171875 
L 44.578125 30.171875 
Q 44.578125 39.703125 42.234375 43.234375 
Q 39.890625 46.78125 33.984375 46.78125 
Q 27.734375 46.78125 24.453125 42.203125 
Q 21.1875 37.640625 21.1875 28.90625 
L 21.1875 5.171875 
L 29 5.171875 
L 29 0 
z
" id="DejaVuSerif-110"/>
     <path d="M 52.484375 5.171875 
L 61.078125 5.171875 
L 61.078125 0 
L 43.5 0 
L 43.5 8.109375 
Q 40.875 3.21875 36.796875 0.890625 
Q 32.71875 -1.421875 26.703125 -1.421875 
Q 17.140625 -1.421875 11.0625 6.171875 
Q 4.984375 13.765625 4.984375 25.984375 
Q 4.984375 38.1875 11.03125 45.75 
Q 17.09375 53.328125 26.703125 53.328125 
Q 32.71875 53.328125 36.796875 51 
Q 40.875 48.6875 43.5 43.796875 
L 43.5 70.796875 
L 35.015625 70.796875 
L 35.015625 75.984375 
L 52.484375 75.984375 
z
M 43.5 23.390625 
L 43.5 28.515625 
Q 43.5 37.84375 39.90625 42.765625 
Q 36.328125 47.703125 29.5 47.703125 
Q 22.5625 47.703125 19.015625 42.234375 
Q 15.484375 36.765625 15.484375 25.984375 
Q 15.484375 15.234375 19.015625 9.71875 
Q 22.5625 4.203125 29.5 4.203125 
Q 36.328125 4.203125 39.90625 9.109375 
Q 43.5 14.015625 43.5 23.390625 
z
" id="DejaVuSerif-100"/>
     <path d="M 9.71875 68.015625 
Q 9.71875 70.265625 11.34375 71.921875 
Q 12.984375 73.578125 15.28125 73.578125 
Q 17.53125 73.578125 19.15625 71.921875 
Q 20.796875 70.265625 20.796875 68.015625 
Q 20.796875 65.71875 19.1875 64.109375 
Q 17.578125 62.5 15.28125 62.5 
Q 12.984375 62.5 11.34375 64.109375 
Q 9.71875 65.71875 9.71875 68.015625 
z
M 21.1875 5.171875 
L 29.6875 5.171875 
L 29.6875 0 
L 3.609375 0 
L 3.609375 5.171875 
L 12.203125 5.171875 
L 12.203125 46.6875 
L 3.609375 46.6875 
L 3.609375 51.90625 
L 21.1875 51.90625 
z
" id="DejaVuSerif-105"/>
     <path id="DejaVuSerif-32"/>
     <path d="M 24.703125 37.109375 
L 37.59375 37.109375 
Q 44.875 37.109375 48.671875 41.03125 
Q 52.484375 44.96875 52.484375 52.390625 
Q 52.484375 59.859375 48.671875 63.765625 
Q 44.875 67.671875 37.59375 67.671875 
L 24.703125 67.671875 
z
M 5.515625 0 
L 5.515625 5.171875 
L 14.796875 5.171875 
L 14.796875 67.671875 
L 5.515625 67.671875 
L 5.515625 72.90625 
L 39.984375 72.90625 
Q 50.921875 72.90625 57.3125 67.359375 
Q 63.71875 61.8125 63.71875 52.390625 
Q 63.71875 43.015625 57.3125 37.453125 
Q 50.921875 31.890625 39.984375 31.890625 
L 24.703125 31.890625 
L 24.703125 5.171875 
L 35.984375 5.171875 
L 35.984375 0 
z
" id="DejaVuSerif-80"/>
     <path d="M 54.203125 25 
L 15.484375 25 
L 15.484375 24.609375 
Q 15.484375 14.109375 19.4375 8.765625 
Q 23.390625 3.421875 31.109375 3.421875 
Q 37.015625 3.421875 40.796875 6.515625 
Q 44.578125 9.625 46.09375 15.71875 
L 53.328125 15.71875 
Q 51.171875 7.171875 45.375 2.875 
Q 39.59375 -1.421875 30.171875 -1.421875 
Q 18.796875 -1.421875 11.890625 6.078125 
Q 4.984375 13.578125 4.984375 25.984375 
Q 4.984375 38.28125 11.765625 45.796875 
Q 18.5625 53.328125 29.59375 53.328125 
Q 41.359375 53.328125 47.65625 46.0625 
Q 53.953125 38.8125 54.203125 25 
z
M 43.609375 30.171875 
Q 43.3125 39.265625 39.765625 43.875 
Q 36.234375 48.484375 29.59375 48.484375 
Q 23.390625 48.484375 19.828125 43.84375 
Q 16.265625 39.203125 15.484375 30.171875 
z
" id="DejaVuSerif-101"/>
     <path d="M 5.609375 2.875 
L 5.609375 14.984375 
L 10.796875 14.984375 
Q 10.984375 9.1875 14.421875 6.296875 
Q 17.875 3.421875 24.609375 3.421875 
Q 30.671875 3.421875 33.84375 5.6875 
Q 37.015625 7.953125 37.015625 12.3125 
Q 37.015625 15.71875 34.6875 17.8125 
Q 32.375 19.921875 24.90625 22.3125 
L 18.40625 24.515625 
Q 11.71875 26.65625 8.71875 29.875 
Q 5.71875 33.109375 5.71875 38.09375 
Q 5.71875 45.21875 10.9375 49.265625 
Q 16.15625 53.328125 25.390625 53.328125 
Q 29.5 53.328125 34.03125 52.25 
Q 38.578125 51.171875 43.40625 49.125 
L 43.40625 37.796875 
L 38.234375 37.796875 
Q 38.03125 42.828125 34.703125 45.65625 
Q 31.390625 48.484375 25.6875 48.484375 
Q 20.015625 48.484375 17.109375 46.484375 
Q 14.203125 44.484375 14.203125 40.484375 
Q 14.203125 37.203125 16.40625 35.21875 
Q 18.609375 33.25 25.203125 31.203125 
L 32.328125 29 
Q 39.703125 26.703125 42.9375 23.265625 
Q 46.1875 19.828125 46.1875 14.40625 
Q 46.1875 7.03125 40.546875 2.796875 
Q 34.90625 -1.421875 25 -1.421875 
Q 19.96875 -1.421875 15.1875 -0.34375 
Q 10.40625 0.734375 5.609375 2.875 
z
" id="DejaVuSerif-115"/>
     <path d="M 9.71875 69.828125 
Q 15.4375 71.96875 20.671875 73.09375 
Q 25.921875 74.21875 30.515625 74.21875 
Q 41.21875 74.21875 47.21875 69.59375 
Q 53.21875 64.984375 53.21875 56.78125 
Q 53.21875 50.203125 49.0625 45.78125 
Q 44.921875 41.359375 37.3125 39.796875 
Q 46.296875 38.53125 51.25 33.28125 
Q 56.203125 28.03125 56.203125 19.671875 
Q 56.203125 9.46875 49.34375 4.015625 
Q 42.484375 -1.421875 29.59375 -1.421875 
Q 23.875 -1.421875 18.421875 -0.1875 
Q 12.984375 1.03125 7.625 3.515625 
L 7.625 17.671875 
L 13.09375 17.671875 
Q 13.578125 10.640625 17.828125 7.03125 
Q 22.078125 3.421875 29.78125 3.421875 
Q 37.25 3.421875 41.578125 7.734375 
Q 45.90625 12.0625 45.90625 19.578125 
Q 45.90625 28.171875 41.453125 32.59375 
Q 37.015625 37.015625 28.421875 37.015625 
L 23.78125 37.015625 
L 23.78125 42 
L 26.21875 42 
Q 34.765625 42 39.03125 45.53125 
Q 43.3125 49.078125 43.3125 56.203125 
Q 43.3125 62.59375 39.796875 65.984375 
Q 36.28125 69.390625 29.6875 69.390625 
Q 23.09375 69.390625 19.453125 66.265625 
Q 15.828125 63.140625 15.1875 56.984375 
L 9.71875 56.984375 
z
" id="DejaVuSerif-51"/>
     <path d="M 24.703125 5.171875 
L 33.796875 5.171875 
Q 48 5.171875 55.59375 13.28125 
Q 63.1875 21.390625 63.1875 36.53125 
Q 63.1875 51.65625 55.609375 59.65625 
Q 48.046875 67.671875 33.796875 67.671875 
L 24.703125 67.671875 
z
M 5.515625 0 
L 5.515625 5.171875 
L 14.796875 5.171875 
L 14.796875 67.671875 
L 5.515625 67.671875 
L 5.515625 72.90625 
L 34.515625 72.90625 
Q 53.375 72.90625 63.890625 63.28125 
Q 74.421875 53.65625 74.421875 36.53125 
Q 74.421875 19.34375 63.875 9.671875 
Q 53.328125 0 34.515625 0 
z
" id="DejaVuSerif-68"/>
     <path d="M 4.390625 30.609375 
L 29.390625 30.609375 
L 29.390625 23 
L 4.390625 23 
z
" id="DejaVuSerif-45"/>
     <path d="M 70.515625 19.28125 
Q 67.28125 9.078125 59.6875 3.828125 
Q 52.09375 -1.421875 40.484375 -1.421875 
Q 33.34375 -1.421875 27.234375 1.015625 
Q 21.140625 3.46875 16.40625 8.203125 
Q 10.9375 13.671875 8.265625 20.625 
Q 5.609375 27.59375 5.609375 36.375 
Q 5.609375 53.375 15.421875 63.796875 
Q 25.25 74.21875 41.3125 74.21875 
Q 47.265625 74.21875 54 72.65625 
Q 60.75 71.09375 68.5 67.921875 
L 68.5 51.125 
L 62.984375 51.125 
Q 61.1875 60.296875 55.734375 64.640625 
Q 50.296875 69 40.484375 69 
Q 28.8125 69 22.796875 60.71875 
Q 16.796875 52.4375 16.796875 36.375 
Q 16.796875 20.359375 22.796875 12.078125 
Q 28.8125 3.8125 40.484375 3.8125 
Q 48.640625 3.8125 53.90625 7.6875 
Q 59.1875 11.578125 61.53125 19.28125 
z
" id="DejaVuSerif-67"/>
     <path d="M 4.890625 0 
L 4.890625 5.171875 
L 14.703125 5.171875 
L 14.703125 67.671875 
L 4.890625 67.671875 
L 4.890625 72.90625 
L 23.578125 72.90625 
L 67.28125 15.375 
L 67.28125 67.671875 
L 57.515625 67.671875 
L 57.515625 72.90625 
L 83.109375 72.90625 
L 83.109375 67.671875 
L 73.296875 67.671875 
L 73.296875 -1.421875 
L 67.390625 -1.421875 
L 20.703125 60.015625 
L 20.703125 5.171875 
L 30.515625 5.171875 
L 30.515625 0 
z
" id="DejaVuSerif-78"/>
     <path d="M 19.09375 0 
L 19.09375 5.171875 
L 28.421875 5.171875 
L 28.421875 67.09375 
L 6.984375 67.09375 
L 6.984375 55.71875 
L 0.984375 55.71875 
L 0.984375 72.90625 
L 65.71875 72.90625 
L 65.71875 55.71875 
L 59.71875 55.71875 
L 59.71875 67.09375 
L 38.28125 67.09375 
L 38.28125 5.171875 
L 47.609375 5.171875 
L 47.609375 0 
z
" id="DejaVuSerif-84"/>
     <path d="M 52.484375 46.6875 
L 52.484375 1.125 
Q 52.484375 -10.0625 46.328125 -16.140625 
Q 40.1875 -22.21875 28.8125 -22.21875 
Q 23.6875 -22.21875 19 -21.28125 
Q 14.3125 -20.359375 10.015625 -18.5 
L 10.015625 -7.625 
L 14.703125 -7.625 
Q 15.578125 -12.703125 18.84375 -15.046875 
Q 22.125 -17.390625 28.21875 -17.390625 
Q 36.140625 -17.390625 39.8125 -12.921875 
Q 43.5 -8.453125 43.5 1.125 
L 43.5 8.109375 
Q 40.875 3.21875 36.796875 0.890625 
Q 32.71875 -1.421875 26.703125 -1.421875 
Q 17.140625 -1.421875 11.0625 6.171875 
Q 4.984375 13.765625 4.984375 25.984375 
Q 4.984375 38.1875 11.03125 45.75 
Q 17.09375 53.328125 26.703125 53.328125 
Q 32.71875 53.328125 36.796875 51 
Q 40.875 48.6875 43.5 43.796875 
L 43.5 51.90625 
L 61.078125 51.90625 
L 61.078125 46.6875 
z
M 43.5 28.515625 
Q 43.5 37.84375 39.90625 42.765625 
Q 36.328125 47.703125 29.5 47.703125 
Q 22.5625 47.703125 19.015625 42.234375 
Q 15.484375 36.765625 15.484375 25.984375 
Q 15.484375 15.234375 19.015625 9.71875 
Q 22.5625 4.203125 29.5 4.203125 
Q 36.328125 4.203125 39.90625 9.109375 
Q 43.5 14.015625 43.5 23.390625 
z
" id="DejaVuSerif-103"/>
     <path d="M 5.515625 0 
L 5.515625 5.171875 
L 14.796875 5.171875 
L 14.796875 67.671875 
L 5.515625 67.671875 
L 5.515625 72.90625 
L 33.984375 72.90625 
L 33.984375 67.671875 
L 24.703125 67.671875 
L 24.703125 42.484375 
L 62.5 42.484375 
L 62.5 67.671875 
L 53.21875 67.671875 
L 53.21875 72.90625 
L 81.6875 72.90625 
L 81.6875 67.671875 
L 72.40625 67.671875 
L 72.40625 5.171875 
L 81.6875 5.171875 
L 81.6875 0 
L 53.21875 0 
L 53.21875 5.171875 
L 62.5 5.171875 
L 62.5 36.53125 
L 24.703125 36.53125 
L 24.703125 5.171875 
L 33.984375 5.171875 
L 33.984375 0 
z
" id="DejaVuSerif-72"/>
     <path d="M 10.796875 46.6875 
L 2.875 46.6875 
L 2.875 51.90625 
L 10.796875 51.90625 
L 10.796875 68.015625 
L 19.828125 68.015625 
L 19.828125 51.90625 
L 36.71875 51.90625 
L 36.71875 46.6875 
L 19.828125 46.6875 
L 19.828125 13.71875 
Q 19.828125 7.125 21.09375 5.265625 
Q 22.359375 3.421875 25.78125 3.421875 
Q 29.296875 3.421875 30.90625 5.484375 
Q 32.515625 7.5625 32.625 12.203125 
L 39.40625 12.203125 
Q 39.015625 5.125 35.546875 1.84375 
Q 32.078125 -1.421875 25 -1.421875 
Q 17.234375 -1.421875 14.015625 2.015625 
Q 10.796875 5.46875 10.796875 13.71875 
z
" id="DejaVuSerif-116"/>
     <path d="M 30.078125 3.421875 
Q 37.3125 3.421875 40.984375 9.125 
Q 44.671875 14.84375 44.671875 25.984375 
Q 44.671875 37.109375 40.984375 42.796875 
Q 37.3125 48.484375 30.078125 48.484375 
Q 22.859375 48.484375 19.171875 42.796875 
Q 15.484375 37.109375 15.484375 25.984375 
Q 15.484375 14.84375 19.1875 9.125 
Q 22.90625 3.421875 30.078125 3.421875 
z
M 30.078125 -1.421875 
Q 18.75 -1.421875 11.859375 6.078125 
Q 4.984375 13.578125 4.984375 25.984375 
Q 4.984375 38.375 11.84375 45.84375 
Q 18.703125 53.328125 30.078125 53.328125 
Q 41.453125 53.328125 48.3125 45.84375 
Q 55.171875 38.375 55.171875 25.984375 
Q 55.171875 13.578125 48.3125 6.078125 
Q 41.453125 -1.421875 30.078125 -1.421875 
z
" id="DejaVuSerif-111"/>
    </defs>
    <g style="fill:#262626;" transform="translate(247.690375 10.29474)scale(0.096 -0.096)">
     <use xlink:href="#DejaVuSerif-73"/>
     <use x="39.501953" xlink:href="#DejaVuSerif-110"/>
     <use x="103.90625" xlink:href="#DejaVuSerif-100"/>
     <use x="167.919922" xlink:href="#DejaVuSerif-105"/>
     <use x="199.902344" xlink:href="#DejaVuSerif-97"/>
     <use x="259.521484" xlink:href="#DejaVuSerif-110"/>
     <use x="323.925781" xlink:href="#DejaVuSerif-32"/>
     <use x="355.712891" xlink:href="#DejaVuSerif-80"/>
     <use x="422.998047" xlink:href="#DejaVuSerif-105"/>
     <use x="454.980469" xlink:href="#DejaVuSerif-110"/>
     <use x="519.384766" xlink:href="#DejaVuSerif-101"/>
     <use x="578.564453" xlink:href="#DejaVuSerif-115"/>
     <use x="629.882812" xlink:href="#DejaVuSerif-32"/>
     <use x="661.669922" xlink:href="#DejaVuSerif-51"/>
     <use x="725.292969" xlink:href="#DejaVuSerif-68"/>
     <use x="805.484375" xlink:href="#DejaVuSerif-45"/>
     <use x="839.273438" xlink:href="#DejaVuSerif-67"/>
     <use x="915.787109" xlink:href="#DejaVuSerif-78"/>
     <use x="1003.287109" xlink:href="#DejaVuSerif-78"/>
     <use x="1090.787109" xlink:href="#DejaVuSerif-32"/>
     <use x="1122.574219" xlink:href="#DejaVuSerif-84"/>
     <use x="1189.273438" xlink:href="#DejaVuSerif-114"/>
     <use x="1237.076172" xlink:href="#DejaVuSerif-97"/>
     <use x="1296.695312" xlink:href="#DejaVuSerif-105"/>
     <use x="1328.677734" xlink:href="#DejaVuSerif-110"/>
     <use x="1393.082031" xlink:href="#DejaVuSerif-105"/>
     <use x="1425.064453" xlink:href="#DejaVuSerif-110"/>
     <use x="1489.46875" xlink:href="#DejaVuSerif-103"/>
     <use x="1553.482422" xlink:href="#DejaVuSerif-32"/>
     <use x="1585.269531" xlink:href="#DejaVuSerif-72"/>
     <use x="1672.476562" xlink:href="#DejaVuSerif-105"/>
     <use x="1704.458984" xlink:href="#DejaVuSerif-115"/>
     <use x="1755.777344" xlink:href="#DejaVuSerif-116"/>
     <use x="1795.962891" xlink:href="#DejaVuSerif-111"/>
     <use x="1856.167969" xlink:href="#DejaVuSerif-114"/>
     <use x="1903.970703" xlink:href="#DejaVuSerif-121"/>
    </g>
   </g>
  </g>
  <g id="axes_2">
   <g id="legend_1">
    <g id="line2d_5">
     <path d="M 266.684188 224.878217 
L 284.284188 224.878217 
" style="fill:none;stroke:#c8102e;stroke-linecap:round;stroke-width:1.2;"/>
    </g>
    <g id="line2d_6"/>
    <g id="text_8">
     <!-- Training -->
     <g style="fill:#262626;" transform="translate(291.324187 227.958217)scale(0.088 -0.088)">
      <use xlink:href="#DejaVuSerif-84"/>
      <use x="66.699219" xlink:href="#DejaVuSerif-114"/>
      <use x="114.501953" xlink:href="#DejaVuSerif-97"/>
      <use x="174.121094" xlink:href="#DejaVuSerif-105"/>
      <use x="206.103516" xlink:href="#DejaVuSerif-110"/>
      <use x="270.507812" xlink:href="#DejaVuSerif-105"/>
      <use x="302.490234" xlink:href="#DejaVuSerif-110"/>
      <use x="366.894531" xlink:href="#DejaVuSerif-103"/>
     </g>
    </g>
    <g id="line2d_7">
     <path d="M 346.845312 224.878217 
L 364.445312 224.878217 
" style="fill:none;stroke:#00b388;stroke-linecap:round;stroke-width:1.2;"/>
    </g>
    <g id="line2d_8"/>
    <g id="text_9">
     <!-- Validation -->
     <defs>
      <path d="M 17.484375 67.671875 
L 39.015625 11.71875 
L 60.5 67.671875 
L 52.296875 67.671875 
L 52.296875 72.90625 
L 73.6875 72.90625 
L 73.6875 67.671875 
L 66.609375 67.671875 
L 40.578125 0 
L 32.171875 0 
L 6.296875 67.671875 
L -0.984375 67.671875 
L -0.984375 72.90625 
L 25.59375 72.90625 
L 25.59375 67.671875 
z
" id="DejaVuSerif-86"/>
      <path d="M 20.515625 5.171875 
L 29 5.171875 
L 29 0 
L 2.875 0 
L 2.875 5.171875 
L 11.53125 5.171875 
L 11.53125 70.796875 
L 2.875 70.796875 
L 2.875 75.984375 
L 20.515625 75.984375 
z
" id="DejaVuSerif-108"/>
     </defs>
     <g style="fill:#262626;" transform="translate(371.485312 227.958217)scale(0.088 -0.088)">
      <use xlink:href="#DejaVuSerif-86"/>
      <use x="72.076172" xlink:href="#DejaVuSerif-97"/>
      <use x="131.695312" xlink:href="#DejaVuSerif-108"/>
      <use x="163.677734" xlink:href="#DejaVuSerif-105"/>
      <use x="195.660156" xlink:href="#DejaVuSerif-100"/>
      <use x="259.673828" xlink:href="#DejaVuSerif-97"/>
      <use x="319.292969" xlink:href="#DejaVuSerif-116"/>
      <use x="359.478516" xlink:href="#DejaVuSerif-105"/>
      <use x="391.460938" xlink:href="#DejaVuSerif-111"/>
      <use x="451.666016" xlink:href="#DejaVuSerif-110"/>
     </g>
    </g>
   </g>
  </g>
  <g id="axes_3">
   <g id="patch_7">
    <path d="M 38.58599 434.89201 
L 644.99976 434.89201 
L 644.99976 242.555638 
L 38.58599 242.555638 
z
" style="fill:#ffffff;"/>
   </g>
   <g id="matplotlib.axis_3">
    <g id="xtick_1">
     <g id="text_10">
      <!-- 0 -->
      <g style="fill:#262626;" transform="translate(63.350752 449.878635)scale(0.088 -0.088)">
       <use xlink:href="#DejaVuSerif-48"/>
      </g>
     </g>
    </g>
    <g id="xtick_2">
     <g id="text_11">
      <!-- 25 -->
      <defs>
       <path d="M 12.796875 55.515625 
L 7.328125 55.515625 
L 7.328125 68.5 
Q 12.546875 71.296875 17.84375 72.75 
Q 23.140625 74.21875 28.21875 74.21875 
Q 39.59375 74.21875 46.1875 68.703125 
Q 52.78125 63.1875 52.78125 53.71875 
Q 52.78125 43.015625 37.84375 28.125 
Q 36.671875 27 36.078125 26.421875 
L 17.671875 8.015625 
L 48.09375 8.015625 
L 48.09375 17 
L 53.8125 17 
L 53.8125 0 
L 6.78125 0 
L 6.78125 5.328125 
L 28.90625 27.390625 
Q 36.234375 34.71875 39.359375 40.84375 
Q 42.484375 46.96875 42.484375 53.71875 
Q 42.484375 61.078125 38.640625 65.234375 
Q 34.8125 69.390625 28.078125 69.390625 
Q 21.09375 69.390625 17.28125 65.921875 
Q 13.484375 62.453125 12.796875 55.515625 
z
" id="DejaVuSerif-50"/>
       <path d="M 50.296875 72.90625 
L 50.296875 64.890625 
L 16.890625 64.890625 
L 16.890625 44 
Q 19.4375 45.75 22.828125 46.625 
Q 26.21875 47.515625 30.421875 47.515625 
Q 42.234375 47.515625 49.0625 40.96875 
Q 55.90625 34.421875 55.90625 23.09375 
Q 55.90625 11.53125 49 5.046875 
Q 42.09375 -1.421875 29.59375 -1.421875 
Q 24.5625 -1.421875 19.28125 -0.1875 
Q 14.015625 1.03125 8.5 3.515625 
L 8.5 17.671875 
L 14.015625 17.671875 
Q 14.453125 10.75 18.421875 7.078125 
Q 22.40625 3.421875 29.59375 3.421875 
Q 37.3125 3.421875 41.453125 8.5 
Q 45.609375 13.578125 45.609375 23.09375 
Q 45.609375 32.5625 41.484375 37.609375 
Q 37.359375 42.671875 29.59375 42.671875 
Q 25.203125 42.671875 21.84375 41.109375 
Q 18.5 39.546875 15.921875 36.28125 
L 11.71875 36.28125 
L 11.71875 72.90625 
z
" id="DejaVuSerif-53"/>
      </defs>
      <g style="fill:#262626;" transform="translate(129.808193 449.878635)scale(0.088 -0.088)">
       <use xlink:href="#DejaVuSerif-50"/>
       <use x="63.623047" xlink:href="#DejaVuSerif-53"/>
      </g>
     </g>
    </g>
    <g id="xtick_3">
     <g id="text_12">
      <!-- 50 -->
      <g style="fill:#262626;" transform="translate(199.065133 449.878635)scale(0.088 -0.088)">
       <use xlink:href="#DejaVuSerif-53"/>
       <use x="63.623047" xlink:href="#DejaVuSerif-48"/>
      </g>
     </g>
    </g>
    <g id="xtick_4">
     <g id="text_13">
      <!-- 75 -->
      <g style="fill:#262626;" transform="translate(268.322073 449.878635)scale(0.088 -0.088)">
       <use xlink:href="#DejaVuSerif-55"/>
       <use x="63.623047" xlink:href="#DejaVuSerif-53"/>
      </g>
     </g>
    </g>
    <g id="xtick_5">
     <g id="text_14">
      <!-- 100 -->
      <g style="fill:#262626;" transform="translate(334.779514 449.878635)scale(0.088 -0.088)">
       <use xlink:href="#DejaVuSerif-49"/>
       <use x="63.623047" xlink:href="#DejaVuSerif-48"/>
       <use x="127.246094" xlink:href="#DejaVuSerif-48"/>
      </g>
     </g>
    </g>
    <g id="xtick_6">
     <g id="text_15">
      <!-- 125 -->
      <g style="fill:#262626;" transform="translate(404.036454 449.878635)scale(0.088 -0.088)">
       <use xlink:href="#DejaVuSerif-49"/>
       <use x="63.623047" xlink:href="#DejaVuSerif-50"/>
       <use x="127.246094" xlink:href="#DejaVuSerif-53"/>
      </g>
     </g>
    </g>
    <g id="xtick_7">
     <g id="text_16">
      <!-- 150 -->
      <g style="fill:#262626;" transform="translate(473.293395 449.878635)scale(0.088 -0.088)">
       <use xlink:href="#DejaVuSerif-49"/>
       <use x="63.623047" xlink:href="#DejaVuSerif-53"/>
       <use x="127.246094" xlink:href="#DejaVuSerif-48"/>
      </g>
     </g>
    </g>
    <g id="xtick_8">
     <g id="text_17">
      <!-- 175 -->
      <g style="fill:#262626;" transform="translate(542.550335 449.878635)scale(0.088 -0.088)">
       <use xlink:href="#DejaVuSerif-49"/>
       <use x="63.623047" xlink:href="#DejaVuSerif-55"/>
       <use x="127.246094" xlink:href="#DejaVuSerif-53"/>
      </g>
     </g>
    </g>
    <g id="xtick_9">
     <g id="text_18">
      <!-- 200 -->
      <g style="fill:#262626;" transform="translate(611.807275 449.878635)scale(0.088 -0.088)">
       <use xlink:href="#DejaVuSerif-50"/>
       <use x="63.623047" xlink:href="#DejaVuSerif-48"/>
       <use x="127.246094" xlink:href="#DejaVuSerif-48"/>
      </g>
     </g>
    </g>
    <g id="text_19">
     <!-- Epoch -->
     <defs>
      <path d="M 5.515625 0 
L 5.515625 5.171875 
L 14.796875 5.171875 
L 14.796875 67.671875 
L 5.515625 67.671875 
L 5.515625 72.90625 
L 64.203125 72.90625 
L 64.203125 56.6875 
L 58.203125 56.6875 
L 58.203125 66.890625 
L 24.703125 66.890625 
L 24.703125 42.484375 
L 48.578125 42.484375 
L 48.578125 51.609375 
L 54.59375 51.609375 
L 54.59375 27.390625 
L 48.578125 27.390625 
L 48.578125 36.53125 
L 24.703125 36.53125 
L 24.703125 6 
L 58.984375 6 
L 58.984375 16.21875 
L 64.984375 16.21875 
L 64.984375 0 
z
" id="DejaVuSerif-69"/>
      <path d="M 20.515625 28.515625 
L 20.515625 23.390625 
Q 20.515625 14.015625 24.09375 9.109375 
Q 27.6875 4.203125 34.515625 4.203125 
Q 41.40625 4.203125 44.9375 9.71875 
Q 48.484375 15.234375 48.484375 25.984375 
Q 48.484375 36.765625 44.9375 42.234375 
Q 41.40625 47.703125 34.515625 47.703125 
Q 27.6875 47.703125 24.09375 42.765625 
Q 20.515625 37.84375 20.515625 28.515625 
z
M 11.53125 46.6875 
L 2.875 46.6875 
L 2.875 51.90625 
L 20.515625 51.90625 
L 20.515625 43.796875 
Q 23.140625 48.6875 27.21875 51 
Q 31.296875 53.328125 37.3125 53.328125 
Q 46.875 53.328125 52.921875 45.75 
Q 58.984375 38.1875 58.984375 25.984375 
Q 58.984375 13.765625 52.921875 6.171875 
Q 46.875 -1.421875 37.3125 -1.421875 
Q 31.296875 -1.421875 27.21875 0.890625 
Q 23.140625 3.21875 20.515625 8.109375 
L 20.515625 -15.578125 
L 29 -15.578125 
L 29 -20.796875 
L 2.875 -20.796875 
L 2.875 -15.578125 
L 11.53125 -15.578125 
z
" id="DejaVuSerif-112"/>
      <path d="M 4.109375 0 
L 4.109375 5.171875 
L 12.203125 5.171875 
L 12.203125 70.796875 
L 3.609375 70.796875 
L 3.609375 75.984375 
L 21.1875 75.984375 
L 21.1875 42.671875 
Q 23.6875 47.953125 27.65625 50.640625 
Q 31.640625 53.328125 36.921875 53.328125 
Q 45.515625 53.328125 49.5625 48.390625 
Q 53.609375 43.453125 53.609375 33.015625 
L 53.609375 5.171875 
L 61.625 5.171875 
L 61.625 0 
L 36.8125 0 
L 36.8125 5.171875 
L 44.578125 5.171875 
L 44.578125 30.171875 
Q 44.578125 39.703125 42.25 43.1875 
Q 39.9375 46.6875 33.984375 46.6875 
Q 27.734375 46.6875 24.453125 42.140625 
Q 21.1875 37.59375 21.1875 28.90625 
L 21.1875 5.171875 
L 29 5.171875 
L 29 0 
z
" id="DejaVuSerif-104"/>
     </defs>
     <g style="fill:#262626;" transform="translate(326.546875 463.00326)scale(0.096 -0.096)">
      <use xlink:href="#DejaVuSerif-69"/>
      <use x="72.998047" xlink:href="#DejaVuSerif-112"/>
      <use x="137.011719" xlink:href="#DejaVuSerif-111"/>
      <use x="197.216797" xlink:href="#DejaVuSerif-99"/>
      <use x="253.222656" xlink:href="#DejaVuSerif-104"/>
     </g>
    </g>
   </g>
   <g id="matplotlib.axis_4">
    <g id="ytick_6">
     <g id="text_20">
      <!-- 0.0 -->
      <g style="fill:#262626;" transform="translate(16.29124 429.493755)scale(0.088 -0.088)">
       <use xlink:href="#DejaVuSerif-48"/>
       <use x="63.623047" xlink:href="#DejaVuSerif-46"/>
       <use x="95.410156" xlink:href="#DejaVuSerif-48"/>
      </g>
     </g>
    </g>
    <g id="ytick_7">
     <g id="text_21">
      <!-- 0.2 -->
      <g style="fill:#262626;" transform="translate(16.29124 406.452478)scale(0.088 -0.088)">
       <use xlink:href="#DejaVuSerif-48"/>
       <use x="63.623047" xlink:href="#DejaVuSerif-46"/>
       <use x="95.410156" xlink:href="#DejaVuSerif-50"/>
      </g>
     </g>
    </g>
    <g id="ytick_8">
     <g id="text_22">
      <!-- 0.4 -->
      <defs>
       <path d="M 34.90625 24.703125 
L 34.90625 63.484375 
L 10.015625 24.703125 
z
M 56.390625 0 
L 23.1875 0 
L 23.1875 5.171875 
L 34.90625 5.171875 
L 34.90625 19.484375 
L 3.078125 19.484375 
L 3.078125 24.8125 
L 35.015625 74.21875 
L 44.671875 74.21875 
L 44.671875 24.703125 
L 58.59375 24.703125 
L 58.59375 19.484375 
L 44.671875 19.484375 
L 44.671875 5.171875 
L 56.390625 5.171875 
z
" id="DejaVuSerif-52"/>
      </defs>
      <g style="fill:#262626;" transform="translate(16.29124 383.4112)scale(0.088 -0.088)">
       <use xlink:href="#DejaVuSerif-48"/>
       <use x="63.623047" xlink:href="#DejaVuSerif-46"/>
       <use x="95.410156" xlink:href="#DejaVuSerif-52"/>
      </g>
     </g>
    </g>
    <g id="ytick_9">
     <g id="text_23">
      <!-- 0.6 -->
      <g style="fill:#262626;" transform="translate(16.29124 360.369923)scale(0.088 -0.088)">
       <use xlink:href="#DejaVuSerif-48"/>
       <use x="63.623047" xlink:href="#DejaVuSerif-46"/>
       <use x="95.410156" xlink:href="#DejaVuSerif-54"/>
      </g>
     </g>
    </g>
    <g id="ytick_10">
     <g id="text_24">
      <!-- 0.8 -->
      <g style="fill:#262626;" transform="translate(16.29124 337.328646)scale(0.088 -0.088)">
       <use xlink:href="#DejaVuSerif-48"/>
       <use x="63.623047" xlink:href="#DejaVuSerif-46"/>
       <use x="95.410156" xlink:href="#DejaVuSerif-56"/>
      </g>
     </g>
    </g>
    <g id="ytick_11">
     <g id="text_25">
      <!-- 1.0 -->
      <g style="fill:#262626;" transform="translate(16.29124 314.287369)scale(0.088 -0.088)">
       <use xlink:href="#DejaVuSerif-49"/>
       <use x="63.623047" xlink:href="#DejaVuSerif-46"/>
       <use x="95.410156" xlink:href="#DejaVuSerif-48"/>
      </g>
     </g>
    </g>
    <g id="ytick_12">
     <g id="text_26">
      <!-- 1.2 -->
      <g style="fill:#262626;" transform="translate(16.29124 291.246092)scale(0.088 -0.088)">
       <use xlink:href="#DejaVuSerif-49"/>
       <use x="63.623047" xlink:href="#DejaVuSerif-46"/>
       <use x="95.410156" xlink:href="#DejaVuSerif-50"/>
      </g>
     </g>
    </g>
    <g id="ytick_13">
     <g id="text_27">
      <!-- 1.4 -->
      <g style="fill:#262626;" transform="translate(16.29124 268.204815)scale(0.088 -0.088)">
       <use xlink:href="#DejaVuSerif-49"/>
       <use x="63.623047" xlink:href="#DejaVuSerif-46"/>
       <use x="95.410156" xlink:href="#DejaVuSerif-52"/>
      </g>
     </g>
    </g>
    <g id="text_28">
     <!-- Loss -->
     <defs>
      <path d="M 5.515625 0 
L 5.515625 5.171875 
L 14.796875 5.171875 
L 14.796875 67.671875 
L 5.515625 67.671875 
L 5.515625 72.90625 
L 33.984375 72.90625 
L 33.984375 67.671875 
L 24.703125 67.671875 
L 24.703125 6 
L 58.015625 6 
L 58.015625 18.21875 
L 64.015625 18.21875 
L 64.015625 0 
z
" id="DejaVuSerif-76"/>
     </defs>
     <g style="fill:#262626;" transform="translate(10.29474 349.727074)rotate(-90)scale(0.096 -0.096)">
      <use xlink:href="#DejaVuSerif-76"/>
      <use x="66.40625" xlink:href="#DejaVuSerif-111"/>
      <use x="126.611328" xlink:href="#DejaVuSerif-115"/>
      <use x="177.929688" xlink:href="#DejaVuSerif-115"/>
     </g>
    </g>
   </g>
   <g id="line2d_9">
    <path clip-path="url(#p3f80522ed1)" d="M 66.150252 251.2982 
L 68.92053 366.32648 
L 71.690808 399.098407 
L 74.461085 410.711227 
L 77.231363 415.358881 
L 80.00164 417.268506 
L 82.771918 420.372331 
L 85.542196 421.097 
L 88.312473 421.996087 
L 91.082751 422.489145 
L 93.853028 421.645392 
L 99.393584 421.785062 
L 102.163861 413.791002 
L 104.934139 420.247948 
L 107.704417 422.036015 
L 110.474694 423.557024 
L 113.244972 423.530612 
L 116.015249 423.641443 
L 118.785527 424.497786 
L 121.555805 423.964641 
L 124.326082 417.985394 
L 127.09636 421.467541 
L 129.866637 422.366187 
L 132.636915 420.708212 
L 135.407193 422.887008 
L 138.17747 424.024857 
L 140.947748 424.327054 
L 146.488303 424.476609 
L 149.258581 423.594607 
L 152.028858 423.807882 
L 154.799136 424.239286 
L 157.569414 424.459005 
L 160.339691 424.23942 
L 163.109969 424.205576 
L 165.880246 423.642814 
L 168.650524 424.793144 
L 171.420802 422.769474 
L 174.191079 421.978576 
L 176.961357 423.720714 
L 179.731635 423.661568 
L 182.501912 408.763382 
L 185.27219 416.245749 
L 188.042467 388.247655 
L 190.812745 389.570469 
L 193.583023 407.089159 
L 196.3533 416.118006 
L 199.123578 418.942386 
L 201.893855 420.509071 
L 204.664133 421.095583 
L 207.434411 422.963007 
L 210.204688 422.632502 
L 212.974966 423.998941 
L 215.745244 425.015926 
L 218.515521 424.356638 
L 221.285799 423.500008 
L 224.056076 424.655527 
L 226.826354 424.022722 
L 229.596632 425.059676 
L 235.137187 425.386706 
L 237.907464 425.258057 
L 240.677742 424.336734 
L 243.44802 424.938479 
L 246.218297 424.254614 
L 248.988575 424.727233 
L 251.758853 425.369822 
L 254.52913 425.450825 
L 257.299408 425.691629 
L 262.839963 425.311958 
L 265.610241 425.552004 
L 268.380518 424.915397 
L 271.150796 425.366478 
L 273.921073 425.154678 
L 276.691351 425.711001 
L 279.461629 425.733371 
L 282.231906 425.919685 
L 287.772462 424.044236 
L 290.542739 424.63973 
L 293.313017 424.633186 
L 296.083294 423.602056 
L 298.853572 424.43053 
L 301.62385 424.624686 
L 304.394127 423.654165 
L 307.164405 423.720943 
L 309.934682 425.176761 
L 312.70496 425.791693 
L 315.475238 425.422245 
L 318.245515 424.718085 
L 321.015793 424.609989 
L 323.786071 411.732451 
L 326.556348 416.343312 
L 329.326626 422.847023 
L 332.096903 423.42421 
L 334.867181 424.137325 
L 337.637459 424.119267 
L 340.407736 423.916389 
L 343.178014 424.049771 
L 345.948291 423.704395 
L 348.718569 423.594139 
L 351.488847 424.961113 
L 354.259124 424.54462 
L 357.029402 425.173893 
L 359.799679 424.632122 
L 362.569957 425.060942 
L 368.110512 425.002105 
L 370.88079 425.267416 
L 373.651068 424.582089 
L 376.421345 424.33697 
L 379.191623 425.118988 
L 381.9619 425.05831 
L 384.732178 425.118598 
L 387.502456 425.552358 
L 390.272733 425.474382 
L 393.043011 425.793195 
L 404.124121 425.312918 
L 406.894399 425.737822 
L 409.664677 425.184951 
L 412.434954 424.266715 
L 415.205232 424.713683 
L 417.975509 425.658166 
L 420.745787 404.38097 
L 423.516065 419.848634 
L 426.286342 418.458592 
L 429.05662 420.144641 
L 431.826897 422.743532 
L 434.597175 421.960735 
L 437.367453 423.196376 
L 440.13773 423.430133 
L 442.908008 418.70717 
L 445.678286 422.536222 
L 448.448563 423.703542 
L 451.218841 423.921157 
L 453.989118 423.895517 
L 456.759396 424.630274 
L 459.529674 424.748075 
L 462.299951 422.872759 
L 465.070229 424.43291 
L 467.840506 424.556535 
L 470.610784 424.438055 
L 473.381062 424.454609 
L 476.151339 425.400587 
L 478.921617 425.387257 
L 481.691895 423.693884 
L 484.462172 425.264502 
L 487.23245 396.827423 
L 490.002727 414.067655 
L 492.773005 420.894433 
L 495.543283 420.071716 
L 498.31356 422.116559 
L 501.083838 420.286449 
L 503.854115 421.368751 
L 506.624393 422.998646 
L 509.394671 424.11414 
L 512.164948 424.29818 
L 514.935226 424.849367 
L 517.705504 425.198905 
L 520.475781 423.706167 
L 523.246059 425.055478 
L 526.016336 425.774682 
L 528.786614 425.391435 
L 531.556892 426.057683 
L 537.097447 425.200156 
L 539.867724 425.009812 
L 542.638002 425.288275 
L 545.40828 424.929102 
L 548.178557 424.951639 
L 550.948835 424.614833 
L 553.719113 425.800542 
L 556.48939 425.445924 
L 559.259668 424.700098 
L 562.029945 424.772529 
L 567.570501 425.600479 
L 570.340778 425.167279 
L 573.111056 424.873924 
L 575.881333 423.294375 
L 578.651611 422.426334 
L 581.421889 423.787399 
L 584.192166 425.283893 
L 586.962444 424.860678 
L 589.732722 424.781809 
L 592.502999 425.742001 
L 595.273277 424.689795 
L 598.043554 424.468038 
L 600.813832 425.240418 
L 603.58411 425.11481 
L 606.354387 424.029448 
L 609.124665 424.816193 
L 611.894942 425.886994 
L 614.66522 425.196067 
L 617.435498 424.76099 
L 617.435498 424.76099 
" style="fill:none;stroke:#c8102e;stroke-linecap:round;stroke-width:1.2;"/>
   </g>
   <g id="line2d_10">
    <path clip-path="url(#p3f80522ed1)" d="M 66.150252 357.450457 
L 68.92053 409.238138 
L 71.690808 420.238434 
L 74.461085 422.576534 
L 80.00164 423.496658 
L 82.771918 425.544362 
L 85.542196 425.084213 
L 88.312473 425.167539 
L 93.853028 425.899163 
L 96.623306 425.740621 
L 99.393584 424.872686 
L 102.163861 424.56097 
L 104.934139 423.813569 
L 107.704417 425.575412 
L 110.474694 425.821851 
L 113.244972 425.610756 
L 116.015249 424.690671 
L 118.785527 425.921023 
L 121.555805 425.572668 
L 124.326082 425.613569 
L 127.09636 425.783651 
L 129.866637 424.423503 
L 132.636915 424.776058 
L 135.407193 425.950656 
L 138.17747 425.400486 
L 140.947748 426.079815 
L 143.718026 426.13109 
L 146.488303 425.860943 
L 149.258581 425.202775 
L 152.028858 425.997411 
L 154.799136 426.013128 
L 157.569414 425.75427 
L 160.339691 425.193187 
L 163.109969 425.613261 
L 165.880246 425.436812 
L 168.650524 424.743809 
L 171.420802 425.129274 
L 174.191079 423.894056 
L 176.961357 425.938599 
L 179.731635 425.127595 
L 182.501912 424.710192 
L 185.27219 424.057622 
L 188.042467 422.789499 
L 190.812745 418.587451 
L 196.3533 425.593069 
L 199.123578 425.505095 
L 201.893855 425.758345 
L 204.664133 425.884774 
L 207.434411 424.692118 
L 210.204688 426.038151 
L 212.974966 425.62584 
L 215.745244 426.072352 
L 218.515521 424.99638 
L 221.285799 425.870017 
L 224.056076 425.31424 
L 226.826354 425.82419 
L 229.596632 424.906954 
L 232.366909 425.011517 
L 235.137187 426.087252 
L 237.907464 425.898796 
L 240.677742 426.001552 
L 243.44802 425.716338 
L 248.988575 425.467437 
L 251.758853 425.639677 
L 254.52913 425.687528 
L 257.299408 426.006325 
L 260.069685 426.042108 
L 262.839963 425.690941 
L 265.610241 425.92033 
L 268.380518 425.517862 
L 271.150796 425.725082 
L 273.921073 425.703908 
L 276.691351 426.035405 
L 279.461629 426.140581 
L 282.231906 426.12957 
L 285.002184 425.469107 
L 287.772462 425.473134 
L 290.542739 426.106802 
L 293.313017 424.802636 
L 296.083294 426.112833 
L 298.853572 425.808549 
L 301.62385 426.058347 
L 304.394127 426.110035 
L 307.164405 425.705067 
L 309.934682 424.626109 
L 312.70496 426.053017 
L 315.475238 424.873754 
L 318.245515 424.347238 
L 321.015793 425.205769 
L 323.786071 423.700073 
L 326.556348 425.937996 
L 329.326626 425.937912 
L 332.096903 423.56125 
L 334.867181 424.973283 
L 337.637459 424.92073 
L 340.407736 424.369938 
L 343.178014 425.591135 
L 345.948291 425.442538 
L 348.718569 425.92583 
L 351.488847 425.804608 
L 354.259124 424.415013 
L 357.029402 425.257306 
L 359.799679 425.592974 
L 362.569957 424.985665 
L 365.340235 425.596828 
L 368.110512 425.614581 
L 370.88079 425.214 
L 373.651068 425.090665 
L 376.421345 424.0517 
L 379.191623 425.281826 
L 381.9619 425.625313 
L 384.732178 425.54316 
L 387.502456 425.720826 
L 393.043011 425.431827 
L 395.813288 425.644935 
L 398.583566 425.628292 
L 401.353844 424.666103 
L 404.124121 425.531588 
L 406.894399 425.579932 
L 409.664677 425.222165 
L 412.434954 424.262134 
L 415.205232 425.1818 
L 417.975509 425.235946 
L 420.745787 423.207052 
L 423.516065 425.004114 
L 426.286342 420.4435 
L 429.05662 422.389102 
L 431.826897 424.116453 
L 434.597175 425.414162 
L 437.367453 423.328811 
L 440.13773 423.074168 
L 442.908008 421.288871 
L 445.678286 422.548822 
L 448.448563 423.155428 
L 451.218841 425.947805 
L 453.989118 423.247051 
L 456.759396 423.329573 
L 459.529674 425.934167 
L 462.299951 425.620887 
L 465.070229 425.43124 
L 467.840506 425.457569 
L 470.610784 426.146799 
L 473.381062 425.367195 
L 476.151339 425.909948 
L 478.921617 425.619065 
L 481.691895 424.291886 
L 484.462172 426.056804 
L 487.23245 425.814375 
L 490.002727 424.110773 
L 492.773005 426.10895 
L 495.543283 424.935515 
L 498.31356 426.135548 
L 501.083838 425.804219 
L 503.854115 425.21312 
L 506.624393 425.082401 
L 509.394671 424.502329 
L 512.164948 424.751366 
L 514.935226 425.471806 
L 517.705504 425.413146 
L 520.475781 426.048235 
L 523.246059 426.132204 
L 526.016336 425.877425 
L 534.327169 426.13302 
L 537.097447 426.046019 
L 542.638002 426.14656 
L 564.800223 426.143798 
L 575.881333 426.133884 
L 578.651611 425.567891 
L 581.421889 425.941883 
L 584.192166 424.895281 
L 586.962444 425.803795 
L 589.732722 425.155366 
L 592.502999 425.208802 
L 595.273277 426.147921 
L 598.043554 425.178961 
L 600.813832 422.316778 
L 603.58411 422.571665 
L 606.354387 426.106102 
L 609.124665 426.089973 
L 611.894942 425.794139 
L 614.66522 426.092842 
L 617.435498 425.973459 
L 617.435498 425.973459 
" style="fill:none;stroke:#00b388;stroke-linecap:round;stroke-width:1.2;"/>
   </g>
   <g id="patch_8">
    <path d="M 38.58599 434.89201 
L 38.58599 242.555638 
" style="fill:none;stroke:#262626;stroke-linecap:square;stroke-linejoin:miter;"/>
   </g>
   <g id="patch_9">
    <path d="M 644.99976 434.89201 
L 644.99976 242.555638 
" style="fill:none;stroke:#262626;stroke-linecap:square;stroke-linejoin:miter;"/>
   </g>
   <g id="patch_10">
    <path d="M 38.58599 434.89201 
L 644.99976 434.89201 
" style="fill:none;stroke:#262626;stroke-linecap:square;stroke-linejoin:miter;"/>
   </g>
   <g id="patch_11">
    <path d="M 38.58599 242.555638 
L 644.99976 242.555638 
" style="fill:none;stroke:#262626;stroke-linecap:square;stroke-linejoin:miter;"/>
   </g>
  </g>
 </g>
 <defs>
  <clipPath id="p9ccd0ee17f">
   <rect height="192.336372" width="606.41377" x="38.58599" y="16.29474"/>
  </clipPath>
  <clipPath id="p3f80522ed1">
   <rect height="192.336372" width="606.41377" x="38.58599" y="242.555638"/>
  </clipPath>
 </defs>
</svg>
