<?xml version="1.0" encoding="utf-8" standalone="no"?>
<!DOCTYPE svg PUBLIC "-//W3C//DTD SVG 1.1//EN"
  "http://www.w3.org/Graphics/SVG/1.1/DTD/svg11.dtd">
<!-- Created with matplotlib (https://matplotlib.org/) -->
<svg height="468pt" version="1.1" viewBox="0 0 648 468" width="648pt" xmlns="http://www.w3.org/2000/svg" xmlns:xlink="http://www.w3.org/1999/xlink">
 <defs>
  <style type="text/css">
*{stroke-linecap:butt;stroke-linejoin:round;}
  </style>
 </defs>
 <g id="figure_1">
  <g id="patch_1">
   <path d="M 0 468 
L 648 468 
L 648 0 
L 0 0 
z
" style="fill:#ffffff;"/>
  </g>
  <g id="axes_1">
   <g id="patch_2">
    <path d="M 46.096615 208.693673 
L 644.99976 208.693673 
L 644.99976 16.29474 
L 46.096615 16.29474 
z
" style="fill:#ffffff;"/>
   </g>
   <g id="matplotlib.axis_1"/>
   <g id="matplotlib.axis_2">
    <g id="ytick_1">
     <g id="text_1">
      <!-- −0.8 -->
      <defs>
       <path d="M 10.59375 35.296875 
L 73.1875 35.296875 
L 73.1875 27.390625 
L 10.59375 27.390625 
z
" id="DejaVuSerif-8722"/>
       <path d="M 31.78125 3.421875 
Q 39.265625 3.421875 42.96875 11.625 
Q 46.6875 19.828125 46.6875 36.375 
Q 46.6875 52.984375 42.96875 61.1875 
Q 39.265625 69.390625 31.78125 69.390625 
Q 24.3125 69.390625 20.59375 61.1875 
Q 16.890625 52.984375 16.890625 36.375 
Q 16.890625 19.828125 20.59375 11.625 
Q 24.3125 3.421875 31.78125 3.421875 
z
M 31.78125 -1.421875 
Q 19.921875 -1.421875 13.25 8.53125 
Q 6.59375 18.5 6.59375 36.375 
Q 6.59375 54.296875 13.25 64.25 
Q 19.921875 74.21875 31.78125 74.21875 
Q 43.703125 74.21875 50.34375 64.25 
Q 56.984375 54.296875 56.984375 36.375 
Q 56.984375 18.5 50.34375 8.53125 
Q 43.703125 -1.421875 31.78125 -1.421875 
z
" id="DejaVuSerif-48"/>
       <path d="M 9.421875 5.078125 
Q 9.421875 7.8125 11.28125 9.71875 
Q 13.140625 11.625 15.921875 11.625 
Q 18.609375 11.625 20.5 9.71875 
Q 22.40625 7.8125 22.40625 5.078125 
Q 22.40625 2.390625 20.5 0.484375 
Q 18.609375 -1.421875 15.921875 -1.421875 
Q 13.140625 -1.421875 11.28125 0.453125 
Q 9.421875 2.34375 9.421875 5.078125 
z
" id="DejaVuSerif-46"/>
       <path d="M 46.578125 19.921875 
Q 46.578125 27.734375 42.6875 32.046875 
Q 38.8125 36.375 31.78125 36.375 
Q 24.75 36.375 20.875 32.046875 
Q 17 27.734375 17 19.921875 
Q 17 12.0625 20.875 7.734375 
Q 24.75 3.421875 31.78125 3.421875 
Q 38.8125 3.421875 42.6875 7.734375 
Q 46.578125 12.0625 46.578125 19.921875 
z
M 44.578125 55.328125 
Q 44.578125 61.96875 41.203125 65.671875 
Q 37.84375 69.390625 31.78125 69.390625 
Q 25.78125 69.390625 22.390625 65.671875 
Q 19 61.96875 19 55.328125 
Q 19 48.640625 22.390625 44.921875 
Q 25.78125 41.21875 31.78125 41.21875 
Q 37.84375 41.21875 41.203125 44.921875 
Q 44.578125 48.640625 44.578125 55.328125 
z
M 39.3125 38.8125 
Q 47.609375 37.703125 52.25 32.6875 
Q 56.890625 27.6875 56.890625 19.921875 
Q 56.890625 9.671875 50.390625 4.125 
Q 43.890625 -1.421875 31.78125 -1.421875 
Q 19.734375 -1.421875 13.203125 4.125 
Q 6.6875 9.671875 6.6875 19.921875 
Q 6.6875 27.6875 11.328125 32.6875 
Q 15.96875 37.703125 24.3125 38.8125 
Q 16.9375 40.140625 13 44.40625 
Q 9.078125 48.6875 9.078125 55.328125 
Q 9.078125 64.109375 15.125 69.15625 
Q 21.1875 74.21875 31.78125 74.21875 
Q 42.390625 74.21875 48.4375 69.15625 
Q 54.5 64.109375 54.5 55.328125 
Q 54.5 48.6875 50.5625 44.40625 
Q 46.625 40.140625 39.3125 38.8125 
z
" id="DejaVuSerif-56"/>
      </defs>
      <g style="fill:#262626;" transform="translate(16.42774 188.044824)scale(0.088 -0.088)">
       <use xlink:href="#DejaVuSerif-8722"/>
       <use x="83.789062" xlink:href="#DejaVuSerif-48"/>
       <use x="147.412109" xlink:href="#DejaVuSerif-46"/>
       <use x="179.199219" xlink:href="#DejaVuSerif-56"/>
      </g>
     </g>
    </g>
    <g id="ytick_2">
     <g id="text_2">
      <!-- −0.6 -->
      <defs>
       <path d="M 32.71875 3.421875 
Q 39.59375 3.421875 43.296875 8.46875 
Q 47.015625 13.53125 47.015625 23 
Q 47.015625 32.46875 43.296875 37.515625 
Q 39.59375 42.578125 32.71875 42.578125 
Q 25.734375 42.578125 22.0625 37.6875 
Q 18.40625 32.8125 18.40625 23.578125 
Q 18.40625 13.875 22.109375 8.640625 
Q 25.828125 3.421875 32.71875 3.421875 
z
M 16.796875 40.140625 
Q 20.125 43.796875 24.3125 45.59375 
Q 28.515625 47.40625 33.796875 47.40625 
Q 44.671875 47.40625 51 40.859375 
Q 57.328125 34.328125 57.328125 23 
Q 57.328125 11.921875 50.515625 5.25 
Q 43.703125 -1.421875 32.328125 -1.421875 
Q 19.96875 -1.421875 13.328125 7.78125 
Q 6.6875 17 6.6875 34.078125 
Q 6.6875 53.21875 14.546875 63.71875 
Q 22.40625 74.21875 36.71875 74.21875 
Q 40.578125 74.21875 44.828125 73.484375 
Q 49.078125 72.75 53.515625 71.296875 
L 53.515625 59.28125 
L 48 59.28125 
Q 47.40625 64.203125 44.234375 66.796875 
Q 41.0625 69.390625 35.6875 69.390625 
Q 26.21875 69.390625 21.578125 62.203125 
Q 16.9375 55.03125 16.796875 40.140625 
z
" id="DejaVuSerif-54"/>
      </defs>
      <g style="fill:#262626;" transform="translate(16.42774 155.809298)scale(0.088 -0.088)">
       <use xlink:href="#DejaVuSerif-8722"/>
       <use x="83.789062" xlink:href="#DejaVuSerif-48"/>
       <use x="147.412109" xlink:href="#DejaVuSerif-46"/>
       <use x="179.199219" xlink:href="#DejaVuSerif-54"/>
      </g>
     </g>
    </g>
    <g id="ytick_3">
     <g id="text_3">
      <!-- −0.4 -->
      <defs>
       <path d="M 34.90625 24.703125 
L 34.90625 63.484375 
L 10.015625 24.703125 
z
M 56.390625 0 
L 23.1875 0 
L 23.1875 5.171875 
L 34.90625 5.171875 
L 34.90625 19.484375 
L 3.078125 19.484375 
L 3.078125 24.8125 
L 35.015625 74.21875 
L 44.671875 74.21875 
L 44.671875 24.703125 
L 58.59375 24.703125 
L 58.59375 19.484375 
L 44.671875 19.484375 
L 44.671875 5.171875 
L 56.390625 5.171875 
z
" id="DejaVuSerif-52"/>
      </defs>
      <g style="fill:#262626;" transform="translate(16.42774 123.573772)scale(0.088 -0.088)">
       <use xlink:href="#DejaVuSerif-8722"/>
       <use x="83.789062" xlink:href="#DejaVuSerif-48"/>
       <use x="147.412109" xlink:href="#DejaVuSerif-46"/>
       <use x="179.199219" xlink:href="#DejaVuSerif-52"/>
      </g>
     </g>
    </g>
    <g id="ytick_4">
     <g id="text_4">
      <!-- −0.2 -->
      <defs>
       <path d="M 12.796875 55.515625 
L 7.328125 55.515625 
L 7.328125 68.5 
Q 12.546875 71.296875 17.84375 72.75 
Q 23.140625 74.21875 28.21875 74.21875 
Q 39.59375 74.21875 46.1875 68.703125 
Q 52.78125 63.1875 52.78125 53.71875 
Q 52.78125 43.015625 37.84375 28.125 
Q 36.671875 27 36.078125 26.421875 
L 17.671875 8.015625 
L 48.09375 8.015625 
L 48.09375 17 
L 53.8125 17 
L 53.8125 0 
L 6.78125 0 
L 6.78125 5.328125 
L 28.90625 27.390625 
Q 36.234375 34.71875 39.359375 40.84375 
Q 42.484375 46.96875 42.484375 53.71875 
Q 42.484375 61.078125 38.640625 65.234375 
Q 34.8125 69.390625 28.078125 69.390625 
Q 21.09375 69.390625 17.28125 65.921875 
Q 13.484375 62.453125 12.796875 55.515625 
z
" id="DejaVuSerif-50"/>
      </defs>
      <g style="fill:#262626;" transform="translate(16.42774 91.338246)scale(0.088 -0.088)">
       <use xlink:href="#DejaVuSerif-8722"/>
       <use x="83.789062" xlink:href="#DejaVuSerif-48"/>
       <use x="147.412109" xlink:href="#DejaVuSerif-46"/>
       <use x="179.199219" xlink:href="#DejaVuSerif-50"/>
      </g>
     </g>
    </g>
    <g id="ytick_5">
     <g id="text_5">
      <!-- 0.0 -->
      <g style="fill:#262626;" transform="translate(23.801865 59.10272)scale(0.088 -0.088)">
       <use xlink:href="#DejaVuSerif-48"/>
       <use x="63.623047" xlink:href="#DejaVuSerif-46"/>
       <use x="95.410156" xlink:href="#DejaVuSerif-48"/>
      </g>
     </g>
    </g>
    <g id="ytick_6">
     <g id="text_6">
      <!-- 0.2 -->
      <g style="fill:#262626;" transform="translate(23.801865 26.867194)scale(0.088 -0.088)">
       <use xlink:href="#DejaVuSerif-48"/>
       <use x="63.623047" xlink:href="#DejaVuSerif-46"/>
       <use x="95.410156" xlink:href="#DejaVuSerif-50"/>
      </g>
     </g>
    </g>
    <g id="text_7">
     <!-- Scaled Intensity -->
     <defs>
      <path d="M 9.28125 3.515625 
L 9.28125 20.125 
L 14.890625 20.0625 
Q 15.140625 11.765625 19.703125 7.78125 
Q 24.265625 3.8125 33.59375 3.8125 
Q 42.28125 3.8125 46.84375 7.25 
Q 51.421875 10.6875 51.421875 17.28125 
Q 51.421875 22.5625 48.65625 25.390625 
Q 45.90625 28.21875 37.015625 30.90625 
L 27.390625 33.796875 
Q 16.9375 36.96875 12.671875 41.703125 
Q 8.40625 46.4375 8.40625 54.6875 
Q 8.40625 63.96875 14.984375 69.09375 
Q 21.578125 74.21875 33.5 74.21875 
Q 38.578125 74.21875 44.625 73.109375 
Q 50.6875 72.015625 57.515625 69.921875 
L 57.515625 54.390625 
L 52 54.390625 
Q 51.171875 62.109375 46.84375 65.546875 
Q 42.53125 69 33.6875 69 
Q 25.984375 69 21.953125 65.84375 
Q 17.921875 62.703125 17.921875 56.6875 
Q 17.921875 51.46875 20.9375 48.484375 
Q 23.96875 45.515625 33.796875 42.578125 
L 42.828125 39.890625 
Q 52.734375 36.921875 56.953125 32.296875 
Q 61.1875 27.6875 61.1875 19.921875 
Q 61.1875 9.328125 54.390625 3.953125 
Q 47.609375 -1.421875 34.1875 -1.421875 
Q 28.171875 -1.421875 21.9375 -0.1875 
Q 15.71875 1.03125 9.28125 3.515625 
z
" id="DejaVuSerif-83"/>
      <path d="M 51.421875 15.578125 
Q 49.515625 7.28125 44.09375 2.921875 
Q 38.671875 -1.421875 30.078125 -1.421875 
Q 18.75 -1.421875 11.859375 6.078125 
Q 4.984375 13.578125 4.984375 25.984375 
Q 4.984375 38.421875 11.859375 45.875 
Q 18.75 53.328125 30.078125 53.328125 
Q 35.015625 53.328125 39.890625 52.171875 
Q 44.78125 51.03125 49.703125 48.6875 
L 49.703125 35.40625 
L 44.484375 35.40625 
Q 43.453125 42.234375 40.015625 45.359375 
Q 36.578125 48.484375 30.171875 48.484375 
Q 22.90625 48.484375 19.1875 42.84375 
Q 15.484375 37.203125 15.484375 25.984375 
Q 15.484375 14.75 19.171875 9.078125 
Q 22.859375 3.421875 30.171875 3.421875 
Q 35.984375 3.421875 39.453125 6.4375 
Q 42.921875 9.46875 44.1875 15.578125 
z
" id="DejaVuSerif-99"/>
      <path d="M 39.796875 16.3125 
L 39.796875 27.296875 
L 28.21875 27.296875 
Q 21.53125 27.296875 18.25 24.40625 
Q 14.984375 21.53125 14.984375 15.578125 
Q 14.984375 10.15625 18.296875 6.984375 
Q 21.625 3.8125 27.296875 3.8125 
Q 32.90625 3.8125 36.34375 7.28125 
Q 39.796875 10.75 39.796875 16.3125 
z
M 48.78125 32.421875 
L 48.78125 5.171875 
L 56.78125 5.171875 
L 56.78125 0 
L 39.796875 0 
L 39.796875 5.609375 
Q 36.8125 2 32.90625 0.28125 
Q 29 -1.421875 23.78125 -1.421875 
Q 15.140625 -1.421875 10.0625 3.171875 
Q 4.984375 7.765625 4.984375 15.578125 
Q 4.984375 23.640625 10.796875 28.078125 
Q 16.609375 32.515625 27.203125 32.515625 
L 39.796875 32.515625 
L 39.796875 36.078125 
Q 39.796875 42 36.203125 45.234375 
Q 32.625 48.484375 26.125 48.484375 
Q 20.75 48.484375 17.578125 46.046875 
Q 14.40625 43.609375 13.625 38.8125 
L 8.984375 38.8125 
L 8.984375 49.3125 
Q 13.671875 51.3125 18.09375 52.3125 
Q 22.515625 53.328125 26.703125 53.328125 
Q 37.5 53.328125 43.140625 47.96875 
Q 48.78125 42.625 48.78125 32.421875 
z
" id="DejaVuSerif-97"/>
      <path d="M 20.515625 5.171875 
L 29 5.171875 
L 29 0 
L 2.875 0 
L 2.875 5.171875 
L 11.53125 5.171875 
L 11.53125 70.796875 
L 2.875 70.796875 
L 2.875 75.984375 
L 20.515625 75.984375 
z
" id="DejaVuSerif-108"/>
      <path d="M 54.203125 25 
L 15.484375 25 
L 15.484375 24.609375 
Q 15.484375 14.109375 19.4375 8.765625 
Q 23.390625 3.421875 31.109375 3.421875 
Q 37.015625 3.421875 40.796875 6.515625 
Q 44.578125 9.625 46.09375 15.71875 
L 53.328125 15.71875 
Q 51.171875 7.171875 45.375 2.875 
Q 39.59375 -1.421875 30.171875 -1.421875 
Q 18.796875 -1.421875 11.890625 6.078125 
Q 4.984375 13.578125 4.984375 25.984375 
Q 4.984375 38.28125 11.765625 45.796875 
Q 18.5625 53.328125 29.59375 53.328125 
Q 41.359375 53.328125 47.65625 46.0625 
Q 53.953125 38.8125 54.203125 25 
z
M 43.609375 30.171875 
Q 43.3125 39.265625 39.765625 43.875 
Q 36.234375 48.484375 29.59375 48.484375 
Q 23.390625 48.484375 19.828125 43.84375 
Q 16.265625 39.203125 15.484375 30.171875 
z
" id="DejaVuSerif-101"/>
      <path d="M 52.484375 5.171875 
L 61.078125 5.171875 
L 61.078125 0 
L 43.5 0 
L 43.5 8.109375 
Q 40.875 3.21875 36.796875 0.890625 
Q 32.71875 -1.421875 26.703125 -1.421875 
Q 17.140625 -1.421875 11.0625 6.171875 
Q 4.984375 13.765625 4.984375 25.984375 
Q 4.984375 38.1875 11.03125 45.75 
Q 17.09375 53.328125 26.703125 53.328125 
Q 32.71875 53.328125 36.796875 51 
Q 40.875 48.6875 43.5 43.796875 
L 43.5 70.796875 
L 35.015625 70.796875 
L 35.015625 75.984375 
L 52.484375 75.984375 
z
M 43.5 23.390625 
L 43.5 28.515625 
Q 43.5 37.84375 39.90625 42.765625 
Q 36.328125 47.703125 29.5 47.703125 
Q 22.5625 47.703125 19.015625 42.234375 
Q 15.484375 36.765625 15.484375 25.984375 
Q 15.484375 15.234375 19.015625 9.71875 
Q 22.5625 4.203125 29.5 4.203125 
Q 36.328125 4.203125 39.90625 9.109375 
Q 43.5 14.015625 43.5 23.390625 
z
" id="DejaVuSerif-100"/>
      <path id="DejaVuSerif-32"/>
      <path d="M 24.703125 5.171875 
L 33.984375 5.171875 
L 33.984375 0 
L 5.515625 0 
L 5.515625 5.171875 
L 14.796875 5.171875 
L 14.796875 67.671875 
L 5.515625 67.671875 
L 5.515625 72.90625 
L 33.984375 72.90625 
L 33.984375 67.671875 
L 24.703125 67.671875 
z
" id="DejaVuSerif-73"/>
      <path d="M 4.109375 0 
L 4.109375 5.171875 
L 12.203125 5.171875 
L 12.203125 46.6875 
L 3.609375 46.6875 
L 3.609375 51.90625 
L 21.1875 51.90625 
L 21.1875 42.671875 
Q 23.6875 47.953125 27.65625 50.640625 
Q 31.640625 53.328125 36.921875 53.328125 
Q 45.515625 53.328125 49.5625 48.390625 
Q 53.609375 43.453125 53.609375 33.015625 
L 53.609375 5.171875 
L 61.625 5.171875 
L 61.625 0 
L 36.8125 0 
L 36.8125 5.171875 
L 44.578125 5.171875 
L 44.578125 30.171875 
Q 44.578125 39.703125 42.234375 43.234375 
Q 39.890625 46.78125 33.984375 46.78125 
Q 27.734375 46.78125 24.453125 42.203125 
Q 21.1875 37.640625 21.1875 28.90625 
L 21.1875 5.171875 
L 29 5.171875 
L 29 0 
z
" id="DejaVuSerif-110"/>
      <path d="M 10.796875 46.6875 
L 2.875 46.6875 
L 2.875 51.90625 
L 10.796875 51.90625 
L 10.796875 68.015625 
L 19.828125 68.015625 
L 19.828125 51.90625 
L 36.71875 51.90625 
L 36.71875 46.6875 
L 19.828125 46.6875 
L 19.828125 13.71875 
Q 19.828125 7.125 21.09375 5.265625 
Q 22.359375 3.421875 25.78125 3.421875 
Q 29.296875 3.421875 30.90625 5.484375 
Q 32.515625 7.5625 32.625 12.203125 
L 39.40625 12.203125 
Q 39.015625 5.125 35.546875 1.84375 
Q 32.078125 -1.421875 25 -1.421875 
Q 17.234375 -1.421875 14.015625 2.015625 
Q 10.796875 5.46875 10.796875 13.71875 
z
" id="DejaVuSerif-116"/>
      <path d="M 5.609375 2.875 
L 5.609375 14.984375 
L 10.796875 14.984375 
Q 10.984375 9.1875 14.421875 6.296875 
Q 17.875 3.421875 24.609375 3.421875 
Q 30.671875 3.421875 33.84375 5.6875 
Q 37.015625 7.953125 37.015625 12.3125 
Q 37.015625 15.71875 34.6875 17.8125 
Q 32.375 19.921875 24.90625 22.3125 
L 18.40625 24.515625 
Q 11.71875 26.65625 8.71875 29.875 
Q 5.71875 33.109375 5.71875 38.09375 
Q 5.71875 45.21875 10.9375 49.265625 
Q 16.15625 53.328125 25.390625 53.328125 
Q 29.5 53.328125 34.03125 52.25 
Q 38.578125 51.171875 43.40625 49.125 
L 43.40625 37.796875 
L 38.234375 37.796875 
Q 38.03125 42.828125 34.703125 45.65625 
Q 31.390625 48.484375 25.6875 48.484375 
Q 20.015625 48.484375 17.109375 46.484375 
Q 14.203125 44.484375 14.203125 40.484375 
Q 14.203125 37.203125 16.40625 35.21875 
Q 18.609375 33.25 25.203125 31.203125 
L 32.328125 29 
Q 39.703125 26.703125 42.9375 23.265625 
Q 46.1875 19.828125 46.1875 14.40625 
Q 46.1875 7.03125 40.546875 2.796875 
Q 34.90625 -1.421875 25 -1.421875 
Q 19.96875 -1.421875 15.1875 -0.34375 
Q 10.40625 0.734375 5.609375 2.875 
z
" id="DejaVuSerif-115"/>
      <path d="M 9.71875 68.015625 
Q 9.71875 70.265625 11.34375 71.921875 
Q 12.984375 73.578125 15.28125 73.578125 
Q 17.53125 73.578125 19.15625 71.921875 
Q 20.796875 70.265625 20.796875 68.015625 
Q 20.796875 65.71875 19.1875 64.109375 
Q 17.578125 62.5 15.28125 62.5 
Q 12.984375 62.5 11.34375 64.109375 
Q 9.71875 65.71875 9.71875 68.015625 
z
M 21.1875 5.171875 
L 29.6875 5.171875 
L 29.6875 0 
L 3.609375 0 
L 3.609375 5.171875 
L 12.203125 5.171875 
L 12.203125 46.6875 
L 3.609375 46.6875 
L 3.609375 51.90625 
L 21.1875 51.90625 
z
" id="DejaVuSerif-105"/>
      <path d="M 21.578125 -9.515625 
L 25 -0.875 
L 5.609375 46.6875 
L -0.296875 46.6875 
L -0.296875 51.90625 
L 23.578125 51.90625 
L 23.578125 46.6875 
L 15.28125 46.6875 
L 29.890625 10.984375 
L 44.484375 46.6875 
L 36.71875 46.6875 
L 36.71875 51.90625 
L 56.203125 51.90625 
L 56.203125 46.6875 
L 50.390625 46.6875 
L 26.609375 -11.71875 
Q 24.171875 -17.78125 21.1875 -20 
Q 18.21875 -22.21875 12.796875 -22.21875 
Q 10.5 -22.21875 8.078125 -21.828125 
Q 5.671875 -21.4375 3.21875 -20.703125 
L 3.21875 -10.796875 
L 7.8125 -10.796875 
Q 8.109375 -14.109375 9.5 -15.546875 
Q 10.890625 -17 13.8125 -17 
Q 16.5 -17 18.140625 -15.5 
Q 19.78125 -14.015625 21.578125 -9.515625 
z
" id="DejaVuSerif-121"/>
     </defs>
     <g style="fill:#262626;" transform="translate(10.29474 151.794957)rotate(-90)scale(0.096 -0.096)">
      <use xlink:href="#DejaVuSerif-83"/>
      <use x="68.505859" xlink:href="#DejaVuSerif-99"/>
      <use x="124.511719" xlink:href="#DejaVuSerif-97"/>
      <use x="184.130859" xlink:href="#DejaVuSerif-108"/>
      <use x="216.113281" xlink:href="#DejaVuSerif-101"/>
      <use x="275.292969" xlink:href="#DejaVuSerif-100"/>
      <use x="339.306641" xlink:href="#DejaVuSerif-32"/>
      <use x="371.09375" xlink:href="#DejaVuSerif-73"/>
      <use x="410.595703" xlink:href="#DejaVuSerif-110"/>
      <use x="475" xlink:href="#DejaVuSerif-116"/>
      <use x="515.185547" xlink:href="#DejaVuSerif-101"/>
      <use x="574.365234" xlink:href="#DejaVuSerif-110"/>
      <use x="638.769531" xlink:href="#DejaVuSerif-115"/>
      <use x="690.087891" xlink:href="#DejaVuSerif-105"/>
      <use x="722.070312" xlink:href="#DejaVuSerif-116"/>
      <use x="762.255859" xlink:href="#DejaVuSerif-121"/>
     </g>
    </g>
   </g>
   <g id="line2d_1">
    <path clip-path="url(#p9bb75cad64)" d="M 73.319485 33.955082 
L 78.657303 66.832866 
L 83.995121 91.396529 
L 89.332938 99.175147 
L 94.670756 112.061477 
L 100.008574 126.138577 
L 105.346391 132.487647 
L 110.684209 139.027299 
L 116.022027 143.922234 
L 121.359844 136.079877 
L 126.697662 138.318614 
L 132.03548 140.406144 
L 137.373298 142.504529 
L 142.711115 141.233656 
L 148.048933 141.859827 
L 153.386751 143.217729 
L 158.724568 141.311194 
L 164.062386 147.861856 
L 169.400204 143.738079 
L 174.738021 140.154509 
L 180.075839 138.62253 
L 185.413657 137.408194 
L 190.751474 136.992118 
L 196.089292 136.206126 
L 201.42711 134.47389 
L 206.764928 132.204242 
L 212.102745 130.848627 
L 217.440563 128.693834 
L 222.778381 128.591953 
L 228.116198 123.078287 
L 233.454016 125.005511 
L 238.791834 122.791982 
L 244.129651 119.250356 
L 249.467469 122.010481 
L 254.805287 113.919751 
L 260.143104 115.358073 
L 265.480922 113.339948 
L 270.81874 110.299858 
L 276.156558 108.476822 
L 281.494375 108.024863 
L 286.832193 101.885258 
L 292.170011 96.695395 
L 297.507828 93.374945 
L 302.845646 102.018069 
L 308.183464 91.069319 
L 313.521281 89.849613 
L 318.859099 84.458888 
L 324.196917 78.136049 
L 329.534734 80.543562 
L 334.872552 85.252944 
L 340.21037 81.483966 
L 345.548188 87.9709 
L 350.886005 80.967795 
L 356.223823 83.262637 
L 361.561641 84.155938 
L 366.899458 86.89506 
L 372.237276 88.318176 
L 377.575094 100.803109 
L 382.912911 98.39978 
L 388.250729 94.584326 
L 393.588547 99.607012 
L 398.926364 105.386828 
L 404.264182 110.185607 
L 409.602 104.556116 
L 414.939817 99.27186 
L 420.277635 99.709484 
L 425.615453 104.707252 
L 430.953271 104.051046 
L 436.291088 106.070741 
L 441.628906 98.645041 
L 446.966724 93.984546 
L 452.304541 94.59143 
L 457.642359 87.930068 
L 462.980177 90.81149 
L 468.317994 91.057819 
L 473.655812 85.88907 
L 478.99363 80.127382 
L 484.331447 75.317488 
L 489.669265 66.09745 
L 495.007083 60.591802 
L 500.344901 65.555057 
L 505.682718 64.827821 
L 511.020536 48.390482 
L 516.358354 38.477712 
L 521.696171 52.321724 
L 527.033989 60.342098 
L 532.371807 57.503623 
L 537.709624 57.55771 
L 543.047442 57.584226 
L 548.38526 61.262082 
L 553.723077 63.493125 
L 559.060895 59.13063 
L 564.398713 53.614121 
L 569.736531 55.221803 
L 575.074348 44.950039 
L 580.412166 41.655242 
L 585.749984 39.282848 
L 591.087801 43.990989 
L 596.425619 27.011167 
L 601.763437 25.040146 
L 607.101254 30.434056 
L 612.439072 35.169062 
L 617.77689 53.224939 
" style="fill:none;stroke:#c8102e;stroke-linecap:round;stroke-width:1.2;"/>
   </g>
   <g id="line2d_2">
    <path clip-path="url(#p9bb75cad64)" d="M 73.319485 81.783243 
L 78.657303 107.238353 
L 83.995121 126.327281 
L 89.332938 132.895586 
L 94.670756 143.0757 
L 100.008574 152.316188 
L 105.346391 160.04295 
L 110.684209 164.61564 
L 116.022027 167.476163 
L 121.359844 162.709778 
L 126.697662 164.537257 
L 132.03548 165.549838 
L 137.373298 168.430266 
L 142.711115 167.675276 
L 148.048933 169.40611 
L 153.386751 170.041868 
L 158.724568 170.282733 
L 164.062386 171.812109 
L 169.400204 169.014838 
L 174.738021 168.988967 
L 180.075839 169.285399 
L 185.413657 166.290494 
L 190.751474 167.320185 
L 196.089292 164.308247 
L 201.42711 165.370294 
L 206.764928 162.536719 
L 212.102745 162.659956 
L 217.440563 159.448425 
L 222.778381 161.762524 
L 228.116198 157.418441 
L 233.454016 157.551536 
L 238.791834 154.766908 
L 244.129651 152.419799 
L 249.467469 152.496655 
L 254.805287 151.225465 
L 260.143104 150.298242 
L 265.480922 148.479121 
L 270.81874 147.215232 
L 276.156558 145.134034 
L 281.494375 143.861999 
L 286.832193 139.913663 
L 292.170011 135.702334 
L 297.507828 135.97591 
L 302.845646 140.439326 
L 308.183464 131.91284 
L 313.521281 130.837286 
L 318.859099 127.821294 
L 324.196917 123.707811 
L 329.534734 123.820567 
L 334.872552 127.134057 
L 340.21037 124.026867 
L 345.548188 129.610499 
L 350.886005 123.937681 
L 356.223823 125.109463 
L 361.561641 127.287667 
L 366.899458 125.918501 
L 372.237276 128.006463 
L 377.575094 136.826244 
L 382.912911 134.104825 
L 388.250729 131.453484 
L 393.588547 135.613979 
L 398.926364 139.943138 
L 404.264182 141.019662 
L 409.602 136.282386 
L 414.939817 134.413366 
L 420.277635 136.800651 
L 425.615453 141.183499 
L 430.953271 137.873391 
L 436.291088 139.956395 
L 441.628906 132.028051 
L 446.966724 130.186075 
L 452.304541 129.976206 
L 457.642359 125.314374 
L 462.980177 125.030729 
L 468.317994 128.425916 
L 473.655812 122.972284 
L 478.99363 116.439943 
L 484.331447 114.562123 
L 489.669265 107.031799 
L 495.007083 101.404498 
L 500.344901 106.774756 
L 505.682718 106.650634 
L 511.020536 95.917058 
L 516.358354 88.472242 
L 521.696171 98.821083 
L 527.033989 103.076317 
L 532.371807 100.345387 
L 537.709624 99.355257 
L 543.047442 101.529235 
L 548.38526 106.808942 
L 553.723077 108.804769 
L 559.060895 104.626069 
L 564.398713 99.777055 
L 569.736531 102.450391 
L 575.074348 94.774017 
L 580.412166 92.846105 
L 585.749984 91.14818 
L 591.087801 96.684232 
L 596.425619 84.106361 
L 601.763437 77.610569 
L 607.101254 83.948658 
L 612.439072 85.168036 
L 617.77689 101.146961 
" style="fill:none;stroke:#00b388;stroke-linecap:round;stroke-width:1.2;"/>
   </g>
   <g id="line2d_3">
    <path clip-path="url(#p9bb75cad64)" d="M 73.319485 129.611407 
L 78.657303 147.643846 
L 83.995121 161.258035 
L 89.332938 166.616025 
L 94.670756 174.089923 
L 100.008574 178.4938 
L 105.346391 187.598254 
L 110.684209 190.203981 
L 116.022027 191.030091 
L 121.359844 189.339674 
L 126.697662 190.7559 
L 132.03548 190.693532 
L 137.373298 194.356003 
L 142.711115 194.116896 
L 148.048933 196.952392 
L 153.386751 196.866007 
L 158.724568 199.254272 
L 164.062386 195.762362 
L 169.400204 194.291598 
L 174.738021 197.823424 
L 180.075839 199.948267 
L 185.413657 195.172794 
L 190.751474 197.648252 
L 196.089292 192.410368 
L 201.42711 196.266697 
L 206.764928 192.869195 
L 212.102745 194.471286 
L 217.440563 190.203011 
L 222.778381 194.933101 
L 228.116198 191.758595 
L 233.454016 190.097565 
L 238.791834 186.741834 
L 244.129651 185.589242 
L 249.467469 182.982823 
L 254.805287 188.531174 
L 260.143104 185.238416 
L 265.480922 183.618293 
L 270.81874 184.130602 
L 276.156558 181.791246 
L 281.494375 179.699134 
L 286.832193 177.942064 
L 292.170011 174.709272 
L 297.507828 178.576871 
L 302.845646 178.860583 
L 308.183464 172.756355 
L 313.521281 171.824963 
L 318.859099 171.1837 
L 324.196917 169.279567 
L 329.534734 167.097573 
L 334.872552 169.015165 
L 340.21037 166.569768 
L 345.548188 171.250103 
L 350.886005 166.907567 
L 356.223823 166.956283 
L 361.561641 170.419392 
L 366.899458 164.94194 
L 372.237276 167.694749 
L 377.575094 172.849379 
L 382.912911 169.80987 
L 388.250729 168.322639 
L 393.588547 171.62095 
L 398.926364 174.499447 
L 404.264182 171.853717 
L 409.602 168.008656 
L 414.939817 169.554873 
L 420.277635 173.891818 
L 425.615453 177.659745 
L 430.953271 171.695731 
L 436.291088 173.842054 
L 441.628906 165.411066 
L 446.966724 166.387601 
L 452.304541 165.360985 
L 457.642359 162.698682 
L 462.980177 159.249965 
L 468.317994 165.794017 
L 473.655812 160.055497 
L 478.99363 152.752506 
L 484.331447 153.806762 
L 489.669265 147.966149 
L 495.007083 142.217195 
L 500.344901 147.99446 
L 505.682718 148.473443 
L 511.020536 143.443636 
L 516.358354 138.466773 
L 521.696171 145.320447 
L 527.033989 145.810535 
L 532.371807 143.18715 
L 537.709624 141.152804 
L 543.047442 145.474244 
L 548.38526 152.355798 
L 553.723077 154.116413 
L 559.060895 150.121513 
L 564.398713 145.939988 
L 569.736531 149.678979 
L 575.074348 144.597996 
L 580.412166 144.03697 
L 585.749984 143.013514 
L 591.087801 149.377475 
L 596.425619 141.20155 
L 601.763437 130.180993 
L 607.101254 137.463261 
L 612.439072 135.167011 
L 617.77689 149.068977 
" style="fill:none;stroke:#f6be00;stroke-linecap:round;stroke-width:1.2;"/>
   </g>
   <g id="line2d_4"/>
   <g id="line2d_5"/>
   <g id="line2d_6"/>
   <g id="patch_3">
    <path d="M 46.096615 208.693673 
L 46.096615 16.29474 
" style="fill:none;stroke:#262626;stroke-linecap:square;stroke-linejoin:miter;"/>
   </g>
   <g id="patch_4">
    <path d="M 644.99976 208.693673 
L 644.99976 16.29474 
" style="fill:none;stroke:#262626;stroke-linecap:square;stroke-linejoin:miter;"/>
   </g>
   <g id="patch_5">
    <path d="M 46.096615 208.693673 
L 644.99976 208.693673 
" style="fill:none;stroke:#262626;stroke-linecap:square;stroke-linejoin:miter;"/>
   </g>
   <g id="patch_6">
    <path d="M 46.096615 16.29474 
L 644.99976 16.29474 
" style="fill:none;stroke:#262626;stroke-linecap:square;stroke-linejoin:miter;"/>
   </g>
   <g id="text_8">
    <!-- Shadows Generated Samples -->
    <defs>
     <path d="M 4.109375 0 
L 4.109375 5.171875 
L 12.203125 5.171875 
L 12.203125 70.796875 
L 3.609375 70.796875 
L 3.609375 75.984375 
L 21.1875 75.984375 
L 21.1875 42.671875 
Q 23.6875 47.953125 27.65625 50.640625 
Q 31.640625 53.328125 36.921875 53.328125 
Q 45.515625 53.328125 49.5625 48.390625 
Q 53.609375 43.453125 53.609375 33.015625 
L 53.609375 5.171875 
L 61.625 5.171875 
L 61.625 0 
L 36.8125 0 
L 36.8125 5.171875 
L 44.578125 5.171875 
L 44.578125 30.171875 
Q 44.578125 39.703125 42.25 43.1875 
Q 39.9375 46.6875 33.984375 46.6875 
Q 27.734375 46.6875 24.453125 42.140625 
Q 21.1875 37.59375 21.1875 28.90625 
L 21.1875 5.171875 
L 29 5.171875 
L 29 0 
z
" id="DejaVuSerif-104"/>
     <path d="M 30.078125 3.421875 
Q 37.3125 3.421875 40.984375 9.125 
Q 44.671875 14.84375 44.671875 25.984375 
Q 44.671875 37.109375 40.984375 42.796875 
Q 37.3125 48.484375 30.078125 48.484375 
Q 22.859375 48.484375 19.171875 42.796875 
Q 15.484375 37.109375 15.484375 25.984375 
Q 15.484375 14.84375 19.1875 9.125 
Q 22.90625 3.421875 30.078125 3.421875 
z
M 30.078125 -1.421875 
Q 18.75 -1.421875 11.859375 6.078125 
Q 4.984375 13.578125 4.984375 25.984375 
Q 4.984375 38.375 11.84375 45.84375 
Q 18.703125 53.328125 30.078125 53.328125 
Q 41.453125 53.328125 48.3125 45.84375 
Q 55.171875 38.375 55.171875 25.984375 
Q 55.171875 13.578125 48.3125 6.078125 
Q 41.453125 -1.421875 30.078125 -1.421875 
z
" id="DejaVuSerif-111"/>
     <path d="M 48 51.90625 
L 61.28125 11.375 
L 73 46.6875 
L 65.484375 46.6875 
L 65.484375 51.90625 
L 84.28125 51.90625 
L 84.28125 46.6875 
L 78.515625 46.6875 
L 63.09375 0 
L 55.609375 0 
L 42.828125 38.8125 
L 29.984375 0 
L 22.796875 0 
L 7.421875 46.6875 
L 1.609375 46.6875 
L 1.609375 51.90625 
L 25.09375 51.90625 
L 25.09375 46.6875 
L 16.703125 46.6875 
L 28.328125 11.375 
L 41.703125 51.90625 
z
" id="DejaVuSerif-119"/>
     <path d="M 64.015625 51.125 
Q 62.3125 60.25 56.890625 64.625 
Q 51.46875 69 41.796875 69 
Q 29.203125 69 23 60.890625 
Q 16.796875 52.78125 16.796875 36.375 
Q 16.796875 20.3125 23.1875 12.0625 
Q 29.59375 3.8125 42 3.8125 
Q 47.515625 3.8125 52.53125 5.171875 
Q 57.5625 6.546875 62.109375 9.28125 
L 62.109375 28.078125 
L 48.390625 28.078125 
L 48.390625 33.296875 
L 72.015625 33.296875 
L 72.015625 6.109375 
Q 65.53125 2.34375 58.03125 0.453125 
Q 50.53125 -1.421875 42 -1.421875 
Q 25.484375 -1.421875 15.546875 8.90625 
Q 5.609375 19.234375 5.609375 36.375 
Q 5.609375 53.65625 15.5625 63.9375 
Q 25.53125 74.21875 42.390625 74.21875 
Q 48.640625 74.21875 55.296875 72.78125 
Q 61.96875 71.34375 69.484375 68.40625 
L 69.484375 51.125 
z
" id="DejaVuSerif-71"/>
     <path d="M 47.796875 52 
L 47.796875 39.015625 
L 42.625 39.015625 
Q 42.390625 42.875 40.484375 44.78125 
Q 38.578125 46.6875 34.90625 46.6875 
Q 28.265625 46.6875 24.71875 42.09375 
Q 21.1875 37.5 21.1875 28.90625 
L 21.1875 5.171875 
L 31.59375 5.171875 
L 31.59375 0 
L 4.109375 0 
L 4.109375 5.171875 
L 12.203125 5.171875 
L 12.203125 46.78125 
L 3.609375 46.78125 
L 3.609375 51.90625 
L 21.1875 51.90625 
L 21.1875 42.671875 
Q 23.828125 48.09375 27.96875 50.703125 
Q 32.125 53.328125 38.09375 53.328125 
Q 40.28125 53.328125 42.703125 52.984375 
Q 45.125 52.640625 47.796875 52 
z
" id="DejaVuSerif-114"/>
     <path d="M 51.8125 41.796875 
Q 54.390625 47.515625 58.421875 50.421875 
Q 62.453125 53.328125 67.828125 53.328125 
Q 75.984375 53.328125 79.984375 48.265625 
Q 83.984375 43.21875 83.984375 33.015625 
L 83.984375 5.171875 
L 92.09375 5.171875 
L 92.09375 0 
L 67.1875 0 
L 67.1875 5.171875 
L 75 5.171875 
L 75 31.984375 
Q 75 39.9375 72.65625 43.3125 
Q 70.3125 46.6875 64.890625 46.6875 
Q 58.890625 46.6875 55.734375 42.140625 
Q 52.59375 37.59375 52.59375 28.90625 
L 52.59375 5.171875 
L 60.40625 5.171875 
L 60.40625 0 
L 35.796875 0 
L 35.796875 5.171875 
L 43.609375 5.171875 
L 43.609375 32.328125 
Q 43.609375 40.09375 41.265625 43.390625 
Q 38.921875 46.6875 33.5 46.6875 
Q 27.484375 46.6875 24.328125 42.140625 
Q 21.1875 37.59375 21.1875 28.90625 
L 21.1875 5.171875 
L 29 5.171875 
L 29 0 
L 4.109375 0 
L 4.109375 5.171875 
L 12.203125 5.171875 
L 12.203125 46.78125 
L 3.609375 46.78125 
L 3.609375 51.90625 
L 21.1875 51.90625 
L 21.1875 42.671875 
Q 23.6875 47.859375 27.53125 50.59375 
Q 31.390625 53.328125 36.28125 53.328125 
Q 42.328125 53.328125 46.375 50.3125 
Q 50.4375 47.3125 51.8125 41.796875 
z
" id="DejaVuSerif-109"/>
     <path d="M 20.515625 28.515625 
L 20.515625 23.390625 
Q 20.515625 14.015625 24.09375 9.109375 
Q 27.6875 4.203125 34.515625 4.203125 
Q 41.40625 4.203125 44.9375 9.71875 
Q 48.484375 15.234375 48.484375 25.984375 
Q 48.484375 36.765625 44.9375 42.234375 
Q 41.40625 47.703125 34.515625 47.703125 
Q 27.6875 47.703125 24.09375 42.765625 
Q 20.515625 37.84375 20.515625 28.515625 
z
M 11.53125 46.6875 
L 2.875 46.6875 
L 2.875 51.90625 
L 20.515625 51.90625 
L 20.515625 43.796875 
Q 23.140625 48.6875 27.21875 51 
Q 31.296875 53.328125 37.3125 53.328125 
Q 46.875 53.328125 52.921875 45.75 
Q 58.984375 38.1875 58.984375 25.984375 
Q 58.984375 13.765625 52.921875 6.171875 
Q 46.875 -1.421875 37.3125 -1.421875 
Q 31.296875 -1.421875 27.21875 0.890625 
Q 23.140625 3.21875 20.515625 8.109375 
L 20.515625 -15.578125 
L 29 -15.578125 
L 29 -20.796875 
L 2.875 -20.796875 
L 2.875 -15.578125 
L 11.53125 -15.578125 
z
" id="DejaVuSerif-112"/>
    </defs>
    <g style="fill:#262626;" transform="translate(274.500687 10.29474)scale(0.096 -0.096)">
     <use xlink:href="#DejaVuSerif-83"/>
     <use x="68.505859" xlink:href="#DejaVuSerif-104"/>
     <use x="132.910156" xlink:href="#DejaVuSerif-97"/>
     <use x="192.529297" xlink:href="#DejaVuSerif-100"/>
     <use x="256.542969" xlink:href="#DejaVuSerif-111"/>
     <use x="316.748047" xlink:href="#DejaVuSerif-119"/>
     <use x="402.34375" xlink:href="#DejaVuSerif-115"/>
     <use x="453.662109" xlink:href="#DejaVuSerif-32"/>
     <use x="485.449219" xlink:href="#DejaVuSerif-71"/>
     <use x="565.332031" xlink:href="#DejaVuSerif-101"/>
     <use x="624.511719" xlink:href="#DejaVuSerif-110"/>
     <use x="688.916016" xlink:href="#DejaVuSerif-101"/>
     <use x="748.095703" xlink:href="#DejaVuSerif-114"/>
     <use x="795.898438" xlink:href="#DejaVuSerif-97"/>
     <use x="855.517578" xlink:href="#DejaVuSerif-116"/>
     <use x="895.703125" xlink:href="#DejaVuSerif-101"/>
     <use x="954.882812" xlink:href="#DejaVuSerif-100"/>
     <use x="1018.896484" xlink:href="#DejaVuSerif-32"/>
     <use x="1050.683594" xlink:href="#DejaVuSerif-83"/>
     <use x="1119.189453" xlink:href="#DejaVuSerif-97"/>
     <use x="1178.808594" xlink:href="#DejaVuSerif-109"/>
     <use x="1273.632812" xlink:href="#DejaVuSerif-112"/>
     <use x="1337.646484" xlink:href="#DejaVuSerif-108"/>
     <use x="1369.628906" xlink:href="#DejaVuSerif-101"/>
     <use x="1428.808594" xlink:href="#DejaVuSerif-115"/>
    </g>
   </g>
  </g>
  <g id="axes_2">
   <g id="legend_1">
    <g id="line2d_7">
     <path d="M 155.91025 224.941625 
L 173.51025 224.941625 
" style="fill:none;stroke:#c8102e;stroke-linecap:round;stroke-width:1.2;"/>
    </g>
    <g id="line2d_8"/>
    <g id="text_9">
     <!-- Mean + Standard Deviation -->
     <defs>
      <path d="M 5.515625 0 
L 5.515625 5.171875 
L 14.796875 5.171875 
L 14.796875 67.671875 
L 4.984375 67.671875 
L 4.984375 72.90625 
L 26.21875 72.90625 
L 51.8125 21 
L 77.390625 72.90625 
L 97.3125 72.90625 
L 97.3125 67.671875 
L 87.59375 67.671875 
L 87.59375 5.171875 
L 96.921875 5.171875 
L 96.921875 0 
L 68.40625 0 
L 68.40625 5.171875 
L 77.6875 5.171875 
L 77.6875 61.53125 
L 52.6875 10.6875 
L 45.796875 10.6875 
L 20.796875 61.53125 
L 20.796875 5.171875 
L 30.078125 5.171875 
L 30.078125 0 
z
" id="DejaVuSerif-77"/>
      <path d="M 45.796875 62.703125 
L 45.796875 35.296875 
L 73.1875 35.296875 
L 73.1875 27.390625 
L 45.796875 27.390625 
L 45.796875 0 
L 37.984375 0 
L 37.984375 27.390625 
L 10.59375 27.390625 
L 10.59375 35.296875 
L 37.984375 35.296875 
L 37.984375 62.703125 
z
" id="DejaVuSerif-43"/>
      <path d="M 24.703125 5.171875 
L 33.796875 5.171875 
Q 48 5.171875 55.59375 13.28125 
Q 63.1875 21.390625 63.1875 36.53125 
Q 63.1875 51.65625 55.609375 59.65625 
Q 48.046875 67.671875 33.796875 67.671875 
L 24.703125 67.671875 
z
M 5.515625 0 
L 5.515625 5.171875 
L 14.796875 5.171875 
L 14.796875 67.671875 
L 5.515625 67.671875 
L 5.515625 72.90625 
L 34.515625 72.90625 
Q 53.375 72.90625 63.890625 63.28125 
Q 74.421875 53.65625 74.421875 36.53125 
Q 74.421875 19.34375 63.875 9.671875 
Q 53.328125 0 34.515625 0 
z
" id="DejaVuSerif-68"/>
      <path d="M 24.703125 0 
L 5.609375 46.6875 
L -0.296875 46.6875 
L -0.296875 51.90625 
L 23.578125 51.90625 
L 23.578125 46.6875 
L 15.28125 46.6875 
L 29.890625 10.984375 
L 44.484375 46.6875 
L 36.71875 46.6875 
L 36.71875 51.90625 
L 56.203125 51.90625 
L 56.203125 46.6875 
L 50.390625 46.6875 
L 31.296875 0 
z
" id="DejaVuSerif-118"/>
     </defs>
     <g style="fill:#262626;" transform="translate(180.55025 228.021625)scale(0.088 -0.088)">
      <use xlink:href="#DejaVuSerif-77"/>
      <use x="102.392578" xlink:href="#DejaVuSerif-101"/>
      <use x="161.572266" xlink:href="#DejaVuSerif-97"/>
      <use x="221.191406" xlink:href="#DejaVuSerif-110"/>
      <use x="285.595703" xlink:href="#DejaVuSerif-32"/>
      <use x="317.382812" xlink:href="#DejaVuSerif-43"/>
      <use x="401.171875" xlink:href="#DejaVuSerif-32"/>
      <use x="432.958984" xlink:href="#DejaVuSerif-83"/>
      <use x="501.464844" xlink:href="#DejaVuSerif-116"/>
      <use x="541.650391" xlink:href="#DejaVuSerif-97"/>
      <use x="601.269531" xlink:href="#DejaVuSerif-110"/>
      <use x="665.673828" xlink:href="#DejaVuSerif-100"/>
      <use x="729.6875" xlink:href="#DejaVuSerif-97"/>
      <use x="789.306641" xlink:href="#DejaVuSerif-114"/>
      <use x="837.109375" xlink:href="#DejaVuSerif-100"/>
      <use x="901.123047" xlink:href="#DejaVuSerif-32"/>
      <use x="932.910156" xlink:href="#DejaVuSerif-68"/>
      <use x="1013.085938" xlink:href="#DejaVuSerif-101"/>
      <use x="1072.265625" xlink:href="#DejaVuSerif-118"/>
      <use x="1128.759766" xlink:href="#DejaVuSerif-105"/>
      <use x="1160.742188" xlink:href="#DejaVuSerif-97"/>
      <use x="1220.361328" xlink:href="#DejaVuSerif-116"/>
      <use x="1260.546875" xlink:href="#DejaVuSerif-105"/>
      <use x="1292.529297" xlink:href="#DejaVuSerif-111"/>
      <use x="1352.734375" xlink:href="#DejaVuSerif-110"/>
     </g>
    </g>
    <g id="line2d_9">
     <path d="M 322.861375 224.941625 
L 340.461375 224.941625 
" style="fill:none;stroke:#00b388;stroke-linecap:round;stroke-width:1.2;"/>
    </g>
    <g id="line2d_10"/>
    <g id="text_10">
     <!-- Mean -->
     <g style="fill:#262626;" transform="translate(347.501375 228.021625)scale(0.088 -0.088)">
      <use xlink:href="#DejaVuSerif-77"/>
      <use x="102.392578" xlink:href="#DejaVuSerif-101"/>
      <use x="161.572266" xlink:href="#DejaVuSerif-97"/>
      <use x="221.191406" xlink:href="#DejaVuSerif-110"/>
     </g>
    </g>
    <g id="line2d_11">
     <path d="M 390.235 224.941625 
L 407.835 224.941625 
" style="fill:none;stroke:#f6be00;stroke-linecap:round;stroke-width:1.2;"/>
    </g>
    <g id="line2d_12"/>
    <g id="text_11">
     <!-- Mean - Standard Deviation -->
     <defs>
      <path d="M 4.390625 30.609375 
L 29.390625 30.609375 
L 29.390625 23 
L 4.390625 23 
z
" id="DejaVuSerif-45"/>
     </defs>
     <g style="fill:#262626;" transform="translate(414.875 228.021625)scale(0.088 -0.088)">
      <use xlink:href="#DejaVuSerif-77"/>
      <use x="102.392578" xlink:href="#DejaVuSerif-101"/>
      <use x="161.572266" xlink:href="#DejaVuSerif-97"/>
      <use x="221.191406" xlink:href="#DejaVuSerif-110"/>
      <use x="285.595703" xlink:href="#DejaVuSerif-32"/>
      <use x="317.382812" xlink:href="#DejaVuSerif-45"/>
      <use x="351.171875" xlink:href="#DejaVuSerif-32"/>
      <use x="382.958984" xlink:href="#DejaVuSerif-83"/>
      <use x="451.464844" xlink:href="#DejaVuSerif-116"/>
      <use x="491.650391" xlink:href="#DejaVuSerif-97"/>
      <use x="551.269531" xlink:href="#DejaVuSerif-110"/>
      <use x="615.673828" xlink:href="#DejaVuSerif-100"/>
      <use x="679.6875" xlink:href="#DejaVuSerif-97"/>
      <use x="739.306641" xlink:href="#DejaVuSerif-114"/>
      <use x="787.109375" xlink:href="#DejaVuSerif-100"/>
      <use x="851.123047" xlink:href="#DejaVuSerif-32"/>
      <use x="882.910156" xlink:href="#DejaVuSerif-68"/>
      <use x="963.085938" xlink:href="#DejaVuSerif-101"/>
      <use x="1022.265625" xlink:href="#DejaVuSerif-118"/>
      <use x="1078.759766" xlink:href="#DejaVuSerif-105"/>
      <use x="1110.742188" xlink:href="#DejaVuSerif-97"/>
      <use x="1170.361328" xlink:href="#DejaVuSerif-116"/>
      <use x="1210.546875" xlink:href="#DejaVuSerif-105"/>
      <use x="1242.529297" xlink:href="#DejaVuSerif-111"/>
      <use x="1302.734375" xlink:href="#DejaVuSerif-110"/>
     </g>
    </g>
   </g>
  </g>
  <g id="axes_3">
   <g id="patch_7">
    <path d="M 46.096615 434.89201 
L 644.99976 434.89201 
L 644.99976 242.493077 
L 46.096615 242.493077 
z
" style="fill:#ffffff;"/>
   </g>
   <g id="matplotlib.axis_3">
    <g id="xtick_1">
     <g id="text_12">
      <!-- 0 -->
      <g style="fill:#262626;" transform="translate(70.519985 449.878635)scale(0.088 -0.088)">
       <use xlink:href="#DejaVuSerif-48"/>
      </g>
     </g>
    </g>
    <g id="xtick_2">
     <g id="text_13">
      <!-- 20 -->
      <g style="fill:#262626;" transform="translate(174.476839 449.878635)scale(0.088 -0.088)">
       <use xlink:href="#DejaVuSerif-50"/>
       <use x="63.623047" xlink:href="#DejaVuSerif-48"/>
      </g>
     </g>
    </g>
    <g id="xtick_3">
     <g id="text_14">
      <!-- 40 -->
      <g style="fill:#262626;" transform="translate(281.233193 449.878635)scale(0.088 -0.088)">
       <use xlink:href="#DejaVuSerif-52"/>
       <use x="63.623047" xlink:href="#DejaVuSerif-48"/>
      </g>
     </g>
    </g>
    <g id="xtick_4">
     <g id="text_15">
      <!-- 60 -->
      <g style="fill:#262626;" transform="translate(387.989547 449.878635)scale(0.088 -0.088)">
       <use xlink:href="#DejaVuSerif-54"/>
       <use x="63.623047" xlink:href="#DejaVuSerif-48"/>
      </g>
     </g>
    </g>
    <g id="xtick_5">
     <g id="text_16">
      <!-- 80 -->
      <g style="fill:#262626;" transform="translate(494.745901 449.878635)scale(0.088 -0.088)">
       <use xlink:href="#DejaVuSerif-56"/>
       <use x="63.623047" xlink:href="#DejaVuSerif-48"/>
      </g>
     </g>
    </g>
    <g id="xtick_6">
     <g id="text_17">
      <!-- 100 -->
      <defs>
       <path d="M 14.203125 0 
L 14.203125 5.171875 
L 26.90625 5.171875 
L 26.90625 65.828125 
L 12.203125 56.296875 
L 12.203125 62.703125 
L 29.984375 74.21875 
L 36.71875 74.21875 
L 36.71875 5.171875 
L 49.421875 5.171875 
L 49.421875 0 
z
" id="DejaVuSerif-49"/>
      </defs>
      <g style="fill:#262626;" transform="translate(598.702754 449.878635)scale(0.088 -0.088)">
       <use xlink:href="#DejaVuSerif-49"/>
       <use x="63.623047" xlink:href="#DejaVuSerif-48"/>
       <use x="127.246094" xlink:href="#DejaVuSerif-48"/>
      </g>
     </g>
    </g>
    <g id="text_18">
     <!-- Spectral Band -->
     <defs>
      <path d="M 24.703125 5.171875 
L 39.3125 5.171875 
Q 48.09375 5.171875 52.140625 8.984375 
Q 56.203125 12.796875 56.203125 21.09375 
Q 56.203125 29.34375 52.171875 33.125 
Q 48.140625 36.921875 39.3125 36.921875 
L 24.703125 36.921875 
z
M 24.703125 42.09375 
L 37.109375 42.09375 
Q 45.125 42.09375 48.796875 45.171875 
Q 52.484375 48.25 52.484375 54.890625 
Q 52.484375 61.578125 48.796875 64.625 
Q 45.125 67.671875 37.109375 67.671875 
L 24.703125 67.671875 
z
M 5.515625 0 
L 5.515625 5.171875 
L 14.796875 5.171875 
L 14.796875 67.671875 
L 5.515625 67.671875 
L 5.515625 72.90625 
L 41.5 72.90625 
Q 52.546875 72.90625 58.125 68.390625 
Q 63.71875 63.875 63.71875 54.890625 
Q 63.71875 48.390625 59.828125 44.53125 
Q 55.953125 40.671875 48.484375 39.796875 
Q 57.765625 38.625 62.578125 33.859375 
Q 67.390625 29.109375 67.390625 21.09375 
Q 67.390625 10.25 60.546875 5.125 
Q 53.71875 0 39.203125 0 
z
" id="DejaVuSerif-66"/>
     </defs>
     <g style="fill:#262626;" transform="translate(310.958937 463.00326)scale(0.096 -0.096)">
      <use xlink:href="#DejaVuSerif-83"/>
      <use x="68.505859" xlink:href="#DejaVuSerif-112"/>
      <use x="132.519531" xlink:href="#DejaVuSerif-101"/>
      <use x="191.699219" xlink:href="#DejaVuSerif-99"/>
      <use x="247.705078" xlink:href="#DejaVuSerif-116"/>
      <use x="287.890625" xlink:href="#DejaVuSerif-114"/>
      <use x="335.693359" xlink:href="#DejaVuSerif-97"/>
      <use x="395.3125" xlink:href="#DejaVuSerif-108"/>
      <use x="427.294922" xlink:href="#DejaVuSerif-32"/>
      <use x="459.082031" xlink:href="#DejaVuSerif-66"/>
      <use x="532.568359" xlink:href="#DejaVuSerif-97"/>
      <use x="592.1875" xlink:href="#DejaVuSerif-110"/>
      <use x="656.591797" xlink:href="#DejaVuSerif-100"/>
     </g>
    </g>
   </g>
   <g id="matplotlib.axis_4">
    <g id="ytick_7">
     <g id="text_19">
      <!-- 200 -->
      <g style="fill:#262626;" transform="translate(20.999615 400.231911)scale(0.088 -0.088)">
       <use xlink:href="#DejaVuSerif-50"/>
       <use x="63.623047" xlink:href="#DejaVuSerif-48"/>
       <use x="127.246094" xlink:href="#DejaVuSerif-48"/>
      </g>
     </g>
    </g>
    <g id="ytick_8">
     <g id="text_20">
      <!-- 400 -->
      <g style="fill:#262626;" transform="translate(20.999615 358.392796)scale(0.088 -0.088)">
       <use xlink:href="#DejaVuSerif-52"/>
       <use x="63.623047" xlink:href="#DejaVuSerif-48"/>
       <use x="127.246094" xlink:href="#DejaVuSerif-48"/>
      </g>
     </g>
    </g>
    <g id="ytick_9">
     <g id="text_21">
      <!-- 600 -->
      <g style="fill:#262626;" transform="translate(20.999615 316.55368)scale(0.088 -0.088)">
       <use xlink:href="#DejaVuSerif-54"/>
       <use x="63.623047" xlink:href="#DejaVuSerif-48"/>
       <use x="127.246094" xlink:href="#DejaVuSerif-48"/>
      </g>
     </g>
    </g>
    <g id="ytick_10">
     <g id="text_22">
      <!-- 800 -->
      <g style="fill:#262626;" transform="translate(20.999615 274.714564)scale(0.088 -0.088)">
       <use xlink:href="#DejaVuSerif-56"/>
       <use x="63.623047" xlink:href="#DejaVuSerif-48"/>
       <use x="127.246094" xlink:href="#DejaVuSerif-48"/>
      </g>
     </g>
    </g>
    <g id="text_23">
     <!-- Intensity -->
     <g style="fill:#262626;" transform="translate(14.866615 360.180793)rotate(-90)scale(0.096 -0.096)">
      <use xlink:href="#DejaVuSerif-73"/>
      <use x="39.501953" xlink:href="#DejaVuSerif-110"/>
      <use x="103.90625" xlink:href="#DejaVuSerif-116"/>
      <use x="144.091797" xlink:href="#DejaVuSerif-101"/>
      <use x="203.271484" xlink:href="#DejaVuSerif-110"/>
      <use x="267.675781" xlink:href="#DejaVuSerif-115"/>
      <use x="318.994141" xlink:href="#DejaVuSerif-105"/>
      <use x="350.976562" xlink:href="#DejaVuSerif-116"/>
      <use x="391.162109" xlink:href="#DejaVuSerif-121"/>
     </g>
    </g>
   </g>
   <g id="line2d_13">
    <path clip-path="url(#pd5ad8f6853)" d="M 73.319485 251.238483 
L 78.657303 279.301049 
L 83.995121 304.686894 
L 89.332938 317.330654 
L 94.670756 322.886792 
L 100.008574 329.026452 
L 105.346391 335.581222 
L 110.684209 341.973118 
L 116.022027 346.485956 
L 121.359844 349.218914 
L 126.697662 352.143864 
L 132.03548 356.814803 
L 137.373298 359.156595 
L 142.711115 360.629385 
L 148.048933 362.771038 
L 153.386751 365.740826 
L 158.724568 367.71619 
L 164.062386 368.9433 
L 169.400204 370.334452 
L 174.738021 371.264958 
L 180.075839 371.578062 
L 185.413657 371.816845 
L 190.751474 372.551509 
L 196.089292 373.602107 
L 201.42711 374.149596 
L 206.764928 374.264452 
L 212.102745 375.07996 
L 217.440563 376.350223 
L 222.778381 377.603257 
L 228.116198 378.312602 
L 233.454016 378.944384 
L 238.791834 379.963205 
L 244.129651 380.989799 
L 249.467469 381.705745 
L 254.805287 382.56644 
L 260.143104 383.518228 
L 265.480922 384.53513 
L 270.81874 385.701913 
L 276.156558 386.751943 
L 281.494375 387.579911 
L 286.832193 388.065302 
L 292.170011 388.889976 
L 297.507828 389.710565 
L 302.845646 390.012976 
L 308.183464 390.012067 
L 313.521281 390.120885 
L 318.859099 390.613431 
L 324.196917 391.269313 
L 329.534734 391.431152 
L 334.872552 391.786692 
L 340.21037 391.89283 
L 345.548188 392.049048 
L 350.886005 392.487845 
L 356.223823 392.884889 
L 361.561641 393.303099 
L 366.899458 393.97645 
L 372.237276 394.653289 
L 377.575094 395.314578 
L 382.912911 396.327035 
L 388.250729 397.109144 
L 393.588547 397.459168 
L 398.926364 397.559039 
L 404.264182 397.413888 
L 409.602 397.053678 
L 414.939817 395.230992 
L 420.277635 393.20894 
L 425.615453 393.264249 
L 430.953271 392.867809 
L 436.291088 391.202305 
L 441.628906 389.10142 
L 446.966724 386.739276 
L 452.304541 383.48464 
L 457.642359 378.464794 
L 462.980177 373.704976 
L 468.317994 369.916985 
L 473.655812 366.610589 
L 478.99363 364.388679 
L 484.331447 361.962962 
L 489.669265 359.485845 
L 495.007083 357.063183 
L 500.344901 354.377662 
L 505.682718 351.529063 
L 511.020536 345.853135 
L 516.358354 337.573412 
L 521.696171 339.831411 
L 527.033989 345.601104 
L 532.371807 347.941427 
L 537.709624 348.35756 
L 543.047442 348.118513 
L 548.38526 347.288555 
L 553.723077 345.466249 
L 559.060895 344.1888 
L 564.398713 343.780076 
L 569.736531 342.754486 
L 575.074348 341.611586 
L 580.412166 340.123256 
L 585.749984 336.535759 
L 591.087801 332.832601 
L 596.425619 332.143372 
L 601.763437 333.113924 
L 607.101254 334.781762 
L 612.439072 336.33378 
L 617.77689 337.059125 
" style="fill:none;stroke:#c8102e;stroke-linecap:round;stroke-width:1.2;"/>
   </g>
   <g id="line2d_14">
    <path clip-path="url(#pd5ad8f6853)" d="M 73.319485 303.569257 
L 78.657303 326.495502 
L 83.995121 346.82591 
L 89.332938 355.981033 
L 94.670756 359.791397 
L 100.008574 364.034511 
L 105.346391 367.703054 
L 110.684209 372.388196 
L 116.022027 376.673502 
L 121.359844 379.499741 
L 126.697662 382.402413 
L 132.03548 386.726598 
L 137.373298 389.131574 
L 142.711115 390.407291 
L 148.048933 392.086379 
L 153.386751 394.552987 
L 158.724568 396.29216 
L 164.062386 397.390271 
L 169.400204 398.240528 
L 174.738021 398.556641 
L 180.075839 398.626667 
L 185.413657 398.441329 
L 190.751474 398.518646 
L 196.089292 398.979229 
L 201.42711 399.178705 
L 206.764928 398.983647 
L 212.102745 399.447986 
L 217.440563 400.261353 
L 222.778381 400.966477 
L 228.116198 401.232003 
L 233.454016 401.463068 
L 238.791834 401.976227 
L 244.129651 402.536659 
L 249.467469 402.942016 
L 254.805287 403.500019 
L 260.143104 404.069508 
L 265.480922 404.778608 
L 270.81874 405.547573 
L 276.156558 406.097401 
L 281.494375 406.321177 
L 286.832193 406.352766 
L 292.170011 406.648114 
L 297.507828 407.035137 
L 302.845646 407.201256 
L 308.183464 407.186456 
L 313.521281 406.998246 
L 318.859099 407.031602 
L 324.196917 407.339542 
L 329.534734 407.313254 
L 334.872552 407.411556 
L 340.21037 407.318335 
L 345.548188 407.335565 
L 350.886005 407.599987 
L 356.223823 407.877662 
L 361.561641 408.150257 
L 366.899458 408.488681 
L 372.237276 408.950591 
L 377.575094 409.592978 
L 382.912911 410.462012 
L 388.250729 411.139965 
L 393.588547 411.455194 
L 398.926364 411.466902 
L 404.264182 411.182599 
L 409.602 410.646466 
L 414.939817 408.674019 
L 420.277635 406.672413 
L 425.615453 406.816884 
L 430.953271 406.230164 
L 436.291088 404.398212 
L 441.628906 402.38534 
L 446.966724 400.290954 
L 452.304541 397.390492 
L 457.642359 392.869039 
L 462.980177 388.708985 
L 468.317994 385.659634 
L 473.655812 383.07418 
L 478.99363 381.588825 
L 484.331447 379.864674 
L 489.669265 377.97131 
L 495.007083 376.080376 
L 500.344901 374.061761 
L 505.682718 371.907731 
L 511.020536 366.656856 
L 516.358354 357.801719 
L 521.696171 359.709884 
L 527.033989 365.829351 
L 532.371807 368.396691 
L 537.709624 368.822814 
L 543.047442 368.525478 
L 548.38526 367.63104 
L 553.723077 365.937373 
L 559.060895 364.888523 
L 564.398713 364.562912 
L 569.736531 363.628048 
L 575.074348 362.712182 
L 580.412166 361.260184 
L 585.749984 357.797522 
L 591.087801 354.347894 
L 596.425619 354.106667 
L 601.763437 355.566839 
L 607.101254 357.247252 
L 612.439072 358.303833 
L 617.77689 358.999016 
" style="fill:none;stroke:#00b388;stroke-linecap:round;stroke-width:1.2;"/>
   </g>
   <g id="line2d_15">
    <path clip-path="url(#pd5ad8f6853)" d="M 73.319485 355.900031 
L 78.657303 373.689954 
L 83.995121 388.964926 
L 89.332938 394.631412 
L 94.670756 396.696002 
L 100.008574 399.042569 
L 105.346391 399.824887 
L 110.684209 402.803274 
L 116.022027 406.861049 
L 121.359844 409.780568 
L 126.697662 412.660961 
L 132.03548 416.638393 
L 137.373298 419.106552 
L 142.711115 420.185198 
L 148.048933 421.401719 
L 153.386751 423.365147 
L 158.724568 424.868129 
L 164.062386 425.837241 
L 169.400204 426.146604 
L 174.738021 425.848324 
L 180.075839 425.675273 
L 185.413657 425.065814 
L 190.751474 424.485782 
L 196.089292 424.356352 
L 201.42711 424.207814 
L 206.764928 423.702843 
L 212.102745 423.816013 
L 217.440563 424.172483 
L 222.778381 424.329697 
L 228.116198 424.151404 
L 233.454016 423.981751 
L 238.791834 423.989248 
L 244.129651 424.083518 
L 249.467469 424.178288 
L 254.805287 424.433597 
L 260.143104 424.620788 
L 265.480922 425.022086 
L 270.81874 425.393233 
L 276.156558 425.44286 
L 281.494375 425.062442 
L 286.832193 424.640229 
L 292.170011 424.406252 
L 297.507828 424.359708 
L 302.845646 424.389537 
L 308.183464 424.360844 
L 313.521281 423.875607 
L 318.859099 423.449774 
L 324.196917 423.40977 
L 329.534734 423.195356 
L 334.872552 423.03642 
L 340.21037 422.74384 
L 345.548188 422.622083 
L 350.886005 422.712129 
L 356.223823 422.870436 
L 361.561641 422.997415 
L 366.899458 423.000913 
L 372.237276 423.247893 
L 377.575094 423.871378 
L 382.912911 424.596989 
L 388.250729 425.170786 
L 393.588547 425.45122 
L 398.926364 425.374765 
L 404.264182 424.95131 
L 409.602 424.239255 
L 414.939817 422.117047 
L 420.277635 420.135887 
L 425.615453 420.369519 
L 430.953271 419.59252 
L 436.291088 417.594119 
L 441.628906 415.669259 
L 446.966724 413.842632 
L 452.304541 411.296343 
L 457.642359 407.273285 
L 462.980177 403.712995 
L 468.317994 401.402283 
L 473.655812 399.537771 
L 478.99363 398.788971 
L 484.331447 397.766386 
L 489.669265 396.456775 
L 495.007083 395.09757 
L 500.344901 393.745859 
L 505.682718 392.286399 
L 511.020536 387.460576 
L 516.358354 378.030027 
L 521.696171 379.588356 
L 527.033989 386.057599 
L 532.371807 388.851956 
L 537.709624 389.288068 
L 543.047442 388.932443 
L 548.38526 387.973524 
L 553.723077 386.408497 
L 559.060895 385.588247 
L 564.398713 385.345748 
L 569.736531 384.501611 
L 575.074348 383.812779 
L 580.412166 382.397112 
L 585.749984 379.059285 
L 591.087801 375.863187 
L 596.425619 376.069962 
L 601.763437 378.019754 
L 607.101254 379.712741 
L 612.439072 380.273886 
L 617.77689 380.938907 
" style="fill:none;stroke:#f6be00;stroke-linecap:round;stroke-width:1.2;"/>
   </g>
   <g id="patch_8">
    <path d="M 46.096615 434.89201 
L 46.096615 242.493077 
" style="fill:none;stroke:#262626;stroke-linecap:square;stroke-linejoin:miter;"/>
   </g>
   <g id="patch_9">
    <path d="M 644.99976 434.89201 
L 644.99976 242.493077 
" style="fill:none;stroke:#262626;stroke-linecap:square;stroke-linejoin:miter;"/>
   </g>
   <g id="patch_10">
    <path d="M 46.096615 434.89201 
L 644.99976 434.89201 
" style="fill:none;stroke:#262626;stroke-linecap:square;stroke-linejoin:miter;"/>
   </g>
   <g id="patch_11">
    <path d="M 46.096615 242.493077 
L 644.99976 242.493077 
" style="fill:none;stroke:#262626;stroke-linecap:square;stroke-linejoin:miter;"/>
   </g>
  </g>
 </g>
 <defs>
  <clipPath id="p9bb75cad64">
   <rect height="192.398933" width="598.903145" x="46.096615" y="16.29474"/>
  </clipPath>
  <clipPath id="pd5ad8f6853">
   <rect height="192.398933" width="598.903145" x="46.096615" y="242.493077"/>
  </clipPath>
 </defs>
</svg>
