<?xml version="1.0" encoding="utf-8" standalone="no"?>
<!DOCTYPE svg PUBLIC "-//W3C//DTD SVG 1.1//EN"
  "http://www.w3.org/Graphics/SVG/1.1/DTD/svg11.dtd">
<!-- Created with matplotlib (https://matplotlib.org/) -->
<svg height="468pt" version="1.1" viewBox="0 0 648 468" width="648pt" xmlns="http://www.w3.org/2000/svg" xmlns:xlink="http://www.w3.org/1999/xlink">
 <defs>
  <style type="text/css">
*{stroke-linecap:butt;stroke-linejoin:round;}
  </style>
 </defs>
 <g id="figure_1">
  <g id="patch_1">
   <path d="M 0 468 
L 648 468 
L 648 0 
L 0 0 
z
" style="fill:#ffffff;"/>
  </g>
  <g id="axes_1">
   <g id="patch_2">
    <path d="M 46.096615 206.702908 
L 644.99976 206.702908 
L 644.99976 16.29474 
L 46.096615 16.29474 
z
" style="fill:#ffffff;"/>
   </g>
   <g id="matplotlib.axis_1"/>
   <g id="matplotlib.axis_2">
    <g id="ytick_1">
     <g id="text_1">
      <!-- −1.2 -->
      <defs>
       <path d="M 10.59375 35.296875 
L 73.1875 35.296875 
L 73.1875 27.390625 
L 10.59375 27.390625 
z
" id="DejaVuSerif-8722"/>
       <path d="M 14.203125 0 
L 14.203125 5.171875 
L 26.90625 5.171875 
L 26.90625 65.828125 
L 12.203125 56.296875 
L 12.203125 62.703125 
L 29.984375 74.21875 
L 36.71875 74.21875 
L 36.71875 5.171875 
L 49.421875 5.171875 
L 49.421875 0 
z
" id="DejaVuSerif-49"/>
       <path d="M 9.421875 5.078125 
Q 9.421875 7.8125 11.28125 9.71875 
Q 13.140625 11.625 15.921875 11.625 
Q 18.609375 11.625 20.5 9.71875 
Q 22.40625 7.8125 22.40625 5.078125 
Q 22.40625 2.390625 20.5 0.484375 
Q 18.609375 -1.421875 15.921875 -1.421875 
Q 13.140625 -1.421875 11.28125 0.453125 
Q 9.421875 2.34375 9.421875 5.078125 
z
" id="DejaVuSerif-46"/>
       <path d="M 12.796875 55.515625 
L 7.328125 55.515625 
L 7.328125 68.5 
Q 12.546875 71.296875 17.84375 72.75 
Q 23.140625 74.21875 28.21875 74.21875 
Q 39.59375 74.21875 46.1875 68.703125 
Q 52.78125 63.1875 52.78125 53.71875 
Q 52.78125 43.015625 37.84375 28.125 
Q 36.671875 27 36.078125 26.421875 
L 17.671875 8.015625 
L 48.09375 8.015625 
L 48.09375 17 
L 53.8125 17 
L 53.8125 0 
L 6.78125 0 
L 6.78125 5.328125 
L 28.90625 27.390625 
Q 36.234375 34.71875 39.359375 40.84375 
Q 42.484375 46.96875 42.484375 53.71875 
Q 42.484375 61.078125 38.640625 65.234375 
Q 34.8125 69.390625 28.078125 69.390625 
Q 21.09375 69.390625 17.28125 65.921875 
Q 13.484375 62.453125 12.796875 55.515625 
z
" id="DejaVuSerif-50"/>
      </defs>
      <g style="fill:#262626;" transform="translate(16.42774 208.885326)scale(0.088 -0.088)">
       <use xlink:href="#DejaVuSerif-8722"/>
       <use x="83.789062" xlink:href="#DejaVuSerif-49"/>
       <use x="147.412109" xlink:href="#DejaVuSerif-46"/>
       <use x="179.199219" xlink:href="#DejaVuSerif-50"/>
      </g>
     </g>
    </g>
    <g id="ytick_2">
     <g id="text_2">
      <!-- −1.0 -->
      <defs>
       <path d="M 31.78125 3.421875 
Q 39.265625 3.421875 42.96875 11.625 
Q 46.6875 19.828125 46.6875 36.375 
Q 46.6875 52.984375 42.96875 61.1875 
Q 39.265625 69.390625 31.78125 69.390625 
Q 24.3125 69.390625 20.59375 61.1875 
Q 16.890625 52.984375 16.890625 36.375 
Q 16.890625 19.828125 20.59375 11.625 
Q 24.3125 3.421875 31.78125 3.421875 
z
M 31.78125 -1.421875 
Q 19.921875 -1.421875 13.25 8.53125 
Q 6.59375 18.5 6.59375 36.375 
Q 6.59375 54.296875 13.25 64.25 
Q 19.921875 74.21875 31.78125 74.21875 
Q 43.703125 74.21875 50.34375 64.25 
Q 56.984375 54.296875 56.984375 36.375 
Q 56.984375 18.5 50.34375 8.53125 
Q 43.703125 -1.421875 31.78125 -1.421875 
z
" id="DejaVuSerif-48"/>
      </defs>
      <g style="fill:#262626;" transform="translate(16.42774 186.213084)scale(0.088 -0.088)">
       <use xlink:href="#DejaVuSerif-8722"/>
       <use x="83.789062" xlink:href="#DejaVuSerif-49"/>
       <use x="147.412109" xlink:href="#DejaVuSerif-46"/>
       <use x="179.199219" xlink:href="#DejaVuSerif-48"/>
      </g>
     </g>
    </g>
    <g id="ytick_3">
     <g id="text_3">
      <!-- −0.8 -->
      <defs>
       <path d="M 46.578125 19.921875 
Q 46.578125 27.734375 42.6875 32.046875 
Q 38.8125 36.375 31.78125 36.375 
Q 24.75 36.375 20.875 32.046875 
Q 17 27.734375 17 19.921875 
Q 17 12.0625 20.875 7.734375 
Q 24.75 3.421875 31.78125 3.421875 
Q 38.8125 3.421875 42.6875 7.734375 
Q 46.578125 12.0625 46.578125 19.921875 
z
M 44.578125 55.328125 
Q 44.578125 61.96875 41.203125 65.671875 
Q 37.84375 69.390625 31.78125 69.390625 
Q 25.78125 69.390625 22.390625 65.671875 
Q 19 61.96875 19 55.328125 
Q 19 48.640625 22.390625 44.921875 
Q 25.78125 41.21875 31.78125 41.21875 
Q 37.84375 41.21875 41.203125 44.921875 
Q 44.578125 48.640625 44.578125 55.328125 
z
M 39.3125 38.8125 
Q 47.609375 37.703125 52.25 32.6875 
Q 56.890625 27.6875 56.890625 19.921875 
Q 56.890625 9.671875 50.390625 4.125 
Q 43.890625 -1.421875 31.78125 -1.421875 
Q 19.734375 -1.421875 13.203125 4.125 
Q 6.6875 9.671875 6.6875 19.921875 
Q 6.6875 27.6875 11.328125 32.6875 
Q 15.96875 37.703125 24.3125 38.8125 
Q 16.9375 40.140625 13 44.40625 
Q 9.078125 48.6875 9.078125 55.328125 
Q 9.078125 64.109375 15.125 69.15625 
Q 21.1875 74.21875 31.78125 74.21875 
Q 42.390625 74.21875 48.4375 69.15625 
Q 54.5 64.109375 54.5 55.328125 
Q 54.5 48.6875 50.5625 44.40625 
Q 46.625 40.140625 39.3125 38.8125 
z
" id="DejaVuSerif-56"/>
      </defs>
      <g style="fill:#262626;" transform="translate(16.42774 163.540842)scale(0.088 -0.088)">
       <use xlink:href="#DejaVuSerif-8722"/>
       <use x="83.789062" xlink:href="#DejaVuSerif-48"/>
       <use x="147.412109" xlink:href="#DejaVuSerif-46"/>
       <use x="179.199219" xlink:href="#DejaVuSerif-56"/>
      </g>
     </g>
    </g>
    <g id="ytick_4">
     <g id="text_4">
      <!-- −0.6 -->
      <defs>
       <path d="M 32.71875 3.421875 
Q 39.59375 3.421875 43.296875 8.46875 
Q 47.015625 13.53125 47.015625 23 
Q 47.015625 32.46875 43.296875 37.515625 
Q 39.59375 42.578125 32.71875 42.578125 
Q 25.734375 42.578125 22.0625 37.6875 
Q 18.40625 32.8125 18.40625 23.578125 
Q 18.40625 13.875 22.109375 8.640625 
Q 25.828125 3.421875 32.71875 3.421875 
z
M 16.796875 40.140625 
Q 20.125 43.796875 24.3125 45.59375 
Q 28.515625 47.40625 33.796875 47.40625 
Q 44.671875 47.40625 51 40.859375 
Q 57.328125 34.328125 57.328125 23 
Q 57.328125 11.921875 50.515625 5.25 
Q 43.703125 -1.421875 32.328125 -1.421875 
Q 19.96875 -1.421875 13.328125 7.78125 
Q 6.6875 17 6.6875 34.078125 
Q 6.6875 53.21875 14.546875 63.71875 
Q 22.40625 74.21875 36.71875 74.21875 
Q 40.578125 74.21875 44.828125 73.484375 
Q 49.078125 72.75 53.515625 71.296875 
L 53.515625 59.28125 
L 48 59.28125 
Q 47.40625 64.203125 44.234375 66.796875 
Q 41.0625 69.390625 35.6875 69.390625 
Q 26.21875 69.390625 21.578125 62.203125 
Q 16.9375 55.03125 16.796875 40.140625 
z
" id="DejaVuSerif-54"/>
      </defs>
      <g style="fill:#262626;" transform="translate(16.42774 140.8686)scale(0.088 -0.088)">
       <use xlink:href="#DejaVuSerif-8722"/>
       <use x="83.789062" xlink:href="#DejaVuSerif-48"/>
       <use x="147.412109" xlink:href="#DejaVuSerif-46"/>
       <use x="179.199219" xlink:href="#DejaVuSerif-54"/>
      </g>
     </g>
    </g>
    <g id="ytick_5">
     <g id="text_5">
      <!-- −0.4 -->
      <defs>
       <path d="M 34.90625 24.703125 
L 34.90625 63.484375 
L 10.015625 24.703125 
z
M 56.390625 0 
L 23.1875 0 
L 23.1875 5.171875 
L 34.90625 5.171875 
L 34.90625 19.484375 
L 3.078125 19.484375 
L 3.078125 24.8125 
L 35.015625 74.21875 
L 44.671875 74.21875 
L 44.671875 24.703125 
L 58.59375 24.703125 
L 58.59375 19.484375 
L 44.671875 19.484375 
L 44.671875 5.171875 
L 56.390625 5.171875 
z
" id="DejaVuSerif-52"/>
      </defs>
      <g style="fill:#262626;" transform="translate(16.42774 118.196358)scale(0.088 -0.088)">
       <use xlink:href="#DejaVuSerif-8722"/>
       <use x="83.789062" xlink:href="#DejaVuSerif-48"/>
       <use x="147.412109" xlink:href="#DejaVuSerif-46"/>
       <use x="179.199219" xlink:href="#DejaVuSerif-52"/>
      </g>
     </g>
    </g>
    <g id="ytick_6">
     <g id="text_6">
      <!-- −0.2 -->
      <g style="fill:#262626;" transform="translate(16.42774 95.524117)scale(0.088 -0.088)">
       <use xlink:href="#DejaVuSerif-8722"/>
       <use x="83.789062" xlink:href="#DejaVuSerif-48"/>
       <use x="147.412109" xlink:href="#DejaVuSerif-46"/>
       <use x="179.199219" xlink:href="#DejaVuSerif-50"/>
      </g>
     </g>
    </g>
    <g id="ytick_7">
     <g id="text_7">
      <!-- 0.0 -->
      <g style="fill:#262626;" transform="translate(23.801865 72.851875)scale(0.088 -0.088)">
       <use xlink:href="#DejaVuSerif-48"/>
       <use x="63.623047" xlink:href="#DejaVuSerif-46"/>
       <use x="95.410156" xlink:href="#DejaVuSerif-48"/>
      </g>
     </g>
    </g>
    <g id="ytick_8">
     <g id="text_8">
      <!-- 0.2 -->
      <g style="fill:#262626;" transform="translate(23.801865 50.179633)scale(0.088 -0.088)">
       <use xlink:href="#DejaVuSerif-48"/>
       <use x="63.623047" xlink:href="#DejaVuSerif-46"/>
       <use x="95.410156" xlink:href="#DejaVuSerif-50"/>
      </g>
     </g>
    </g>
    <g id="ytick_9">
     <g id="text_9">
      <!-- 0.4 -->
      <g style="fill:#262626;" transform="translate(23.801865 27.507391)scale(0.088 -0.088)">
       <use xlink:href="#DejaVuSerif-48"/>
       <use x="63.623047" xlink:href="#DejaVuSerif-46"/>
       <use x="95.410156" xlink:href="#DejaVuSerif-52"/>
      </g>
     </g>
    </g>
    <g id="text_10">
     <!-- Scaled Intensity -->
     <defs>
      <path d="M 9.28125 3.515625 
L 9.28125 20.125 
L 14.890625 20.0625 
Q 15.140625 11.765625 19.703125 7.78125 
Q 24.265625 3.8125 33.59375 3.8125 
Q 42.28125 3.8125 46.84375 7.25 
Q 51.421875 10.6875 51.421875 17.28125 
Q 51.421875 22.5625 48.65625 25.390625 
Q 45.90625 28.21875 37.015625 30.90625 
L 27.390625 33.796875 
Q 16.9375 36.96875 12.671875 41.703125 
Q 8.40625 46.4375 8.40625 54.6875 
Q 8.40625 63.96875 14.984375 69.09375 
Q 21.578125 74.21875 33.5 74.21875 
Q 38.578125 74.21875 44.625 73.109375 
Q 50.6875 72.015625 57.515625 69.921875 
L 57.515625 54.390625 
L 52 54.390625 
Q 51.171875 62.109375 46.84375 65.546875 
Q 42.53125 69 33.6875 69 
Q 25.984375 69 21.953125 65.84375 
Q 17.921875 62.703125 17.921875 56.6875 
Q 17.921875 51.46875 20.9375 48.484375 
Q 23.96875 45.515625 33.796875 42.578125 
L 42.828125 39.890625 
Q 52.734375 36.921875 56.953125 32.296875 
Q 61.1875 27.6875 61.1875 19.921875 
Q 61.1875 9.328125 54.390625 3.953125 
Q 47.609375 -1.421875 34.1875 -1.421875 
Q 28.171875 -1.421875 21.9375 -0.1875 
Q 15.71875 1.03125 9.28125 3.515625 
z
" id="DejaVuSerif-83"/>
      <path d="M 51.421875 15.578125 
Q 49.515625 7.28125 44.09375 2.921875 
Q 38.671875 -1.421875 30.078125 -1.421875 
Q 18.75 -1.421875 11.859375 6.078125 
Q 4.984375 13.578125 4.984375 25.984375 
Q 4.984375 38.421875 11.859375 45.875 
Q 18.75 53.328125 30.078125 53.328125 
Q 35.015625 53.328125 39.890625 52.171875 
Q 44.78125 51.03125 49.703125 48.6875 
L 49.703125 35.40625 
L 44.484375 35.40625 
Q 43.453125 42.234375 40.015625 45.359375 
Q 36.578125 48.484375 30.171875 48.484375 
Q 22.90625 48.484375 19.1875 42.84375 
Q 15.484375 37.203125 15.484375 25.984375 
Q 15.484375 14.75 19.171875 9.078125 
Q 22.859375 3.421875 30.171875 3.421875 
Q 35.984375 3.421875 39.453125 6.4375 
Q 42.921875 9.46875 44.1875 15.578125 
z
" id="DejaVuSerif-99"/>
      <path d="M 39.796875 16.3125 
L 39.796875 27.296875 
L 28.21875 27.296875 
Q 21.53125 27.296875 18.25 24.40625 
Q 14.984375 21.53125 14.984375 15.578125 
Q 14.984375 10.15625 18.296875 6.984375 
Q 21.625 3.8125 27.296875 3.8125 
Q 32.90625 3.8125 36.34375 7.28125 
Q 39.796875 10.75 39.796875 16.3125 
z
M 48.78125 32.421875 
L 48.78125 5.171875 
L 56.78125 5.171875 
L 56.78125 0 
L 39.796875 0 
L 39.796875 5.609375 
Q 36.8125 2 32.90625 0.28125 
Q 29 -1.421875 23.78125 -1.421875 
Q 15.140625 -1.421875 10.0625 3.171875 
Q 4.984375 7.765625 4.984375 15.578125 
Q 4.984375 23.640625 10.796875 28.078125 
Q 16.609375 32.515625 27.203125 32.515625 
L 39.796875 32.515625 
L 39.796875 36.078125 
Q 39.796875 42 36.203125 45.234375 
Q 32.625 48.484375 26.125 48.484375 
Q 20.75 48.484375 17.578125 46.046875 
Q 14.40625 43.609375 13.625 38.8125 
L 8.984375 38.8125 
L 8.984375 49.3125 
Q 13.671875 51.3125 18.09375 52.3125 
Q 22.515625 53.328125 26.703125 53.328125 
Q 37.5 53.328125 43.140625 47.96875 
Q 48.78125 42.625 48.78125 32.421875 
z
" id="DejaVuSerif-97"/>
      <path d="M 20.515625 5.171875 
L 29 5.171875 
L 29 0 
L 2.875 0 
L 2.875 5.171875 
L 11.53125 5.171875 
L 11.53125 70.796875 
L 2.875 70.796875 
L 2.875 75.984375 
L 20.515625 75.984375 
z
" id="DejaVuSerif-108"/>
      <path d="M 54.203125 25 
L 15.484375 25 
L 15.484375 24.609375 
Q 15.484375 14.109375 19.4375 8.765625 
Q 23.390625 3.421875 31.109375 3.421875 
Q 37.015625 3.421875 40.796875 6.515625 
Q 44.578125 9.625 46.09375 15.71875 
L 53.328125 15.71875 
Q 51.171875 7.171875 45.375 2.875 
Q 39.59375 -1.421875 30.171875 -1.421875 
Q 18.796875 -1.421875 11.890625 6.078125 
Q 4.984375 13.578125 4.984375 25.984375 
Q 4.984375 38.28125 11.765625 45.796875 
Q 18.5625 53.328125 29.59375 53.328125 
Q 41.359375 53.328125 47.65625 46.0625 
Q 53.953125 38.8125 54.203125 25 
z
M 43.609375 30.171875 
Q 43.3125 39.265625 39.765625 43.875 
Q 36.234375 48.484375 29.59375 48.484375 
Q 23.390625 48.484375 19.828125 43.84375 
Q 16.265625 39.203125 15.484375 30.171875 
z
" id="DejaVuSerif-101"/>
      <path d="M 52.484375 5.171875 
L 61.078125 5.171875 
L 61.078125 0 
L 43.5 0 
L 43.5 8.109375 
Q 40.875 3.21875 36.796875 0.890625 
Q 32.71875 -1.421875 26.703125 -1.421875 
Q 17.140625 -1.421875 11.0625 6.171875 
Q 4.984375 13.765625 4.984375 25.984375 
Q 4.984375 38.1875 11.03125 45.75 
Q 17.09375 53.328125 26.703125 53.328125 
Q 32.71875 53.328125 36.796875 51 
Q 40.875 48.6875 43.5 43.796875 
L 43.5 70.796875 
L 35.015625 70.796875 
L 35.015625 75.984375 
L 52.484375 75.984375 
z
M 43.5 23.390625 
L 43.5 28.515625 
Q 43.5 37.84375 39.90625 42.765625 
Q 36.328125 47.703125 29.5 47.703125 
Q 22.5625 47.703125 19.015625 42.234375 
Q 15.484375 36.765625 15.484375 25.984375 
Q 15.484375 15.234375 19.015625 9.71875 
Q 22.5625 4.203125 29.5 4.203125 
Q 36.328125 4.203125 39.90625 9.109375 
Q 43.5 14.015625 43.5 23.390625 
z
" id="DejaVuSerif-100"/>
      <path id="DejaVuSerif-32"/>
      <path d="M 24.703125 5.171875 
L 33.984375 5.171875 
L 33.984375 0 
L 5.515625 0 
L 5.515625 5.171875 
L 14.796875 5.171875 
L 14.796875 67.671875 
L 5.515625 67.671875 
L 5.515625 72.90625 
L 33.984375 72.90625 
L 33.984375 67.671875 
L 24.703125 67.671875 
z
" id="DejaVuSerif-73"/>
      <path d="M 4.109375 0 
L 4.109375 5.171875 
L 12.203125 5.171875 
L 12.203125 46.6875 
L 3.609375 46.6875 
L 3.609375 51.90625 
L 21.1875 51.90625 
L 21.1875 42.671875 
Q 23.6875 47.953125 27.65625 50.640625 
Q 31.640625 53.328125 36.921875 53.328125 
Q 45.515625 53.328125 49.5625 48.390625 
Q 53.609375 43.453125 53.609375 33.015625 
L 53.609375 5.171875 
L 61.625 5.171875 
L 61.625 0 
L 36.8125 0 
L 36.8125 5.171875 
L 44.578125 5.171875 
L 44.578125 30.171875 
Q 44.578125 39.703125 42.234375 43.234375 
Q 39.890625 46.78125 33.984375 46.78125 
Q 27.734375 46.78125 24.453125 42.203125 
Q 21.1875 37.640625 21.1875 28.90625 
L 21.1875 5.171875 
L 29 5.171875 
L 29 0 
z
" id="DejaVuSerif-110"/>
      <path d="M 10.796875 46.6875 
L 2.875 46.6875 
L 2.875 51.90625 
L 10.796875 51.90625 
L 10.796875 68.015625 
L 19.828125 68.015625 
L 19.828125 51.90625 
L 36.71875 51.90625 
L 36.71875 46.6875 
L 19.828125 46.6875 
L 19.828125 13.71875 
Q 19.828125 7.125 21.09375 5.265625 
Q 22.359375 3.421875 25.78125 3.421875 
Q 29.296875 3.421875 30.90625 5.484375 
Q 32.515625 7.5625 32.625 12.203125 
L 39.40625 12.203125 
Q 39.015625 5.125 35.546875 1.84375 
Q 32.078125 -1.421875 25 -1.421875 
Q 17.234375 -1.421875 14.015625 2.015625 
Q 10.796875 5.46875 10.796875 13.71875 
z
" id="DejaVuSerif-116"/>
      <path d="M 5.609375 2.875 
L 5.609375 14.984375 
L 10.796875 14.984375 
Q 10.984375 9.1875 14.421875 6.296875 
Q 17.875 3.421875 24.609375 3.421875 
Q 30.671875 3.421875 33.84375 5.6875 
Q 37.015625 7.953125 37.015625 12.3125 
Q 37.015625 15.71875 34.6875 17.8125 
Q 32.375 19.921875 24.90625 22.3125 
L 18.40625 24.515625 
Q 11.71875 26.65625 8.71875 29.875 
Q 5.71875 33.109375 5.71875 38.09375 
Q 5.71875 45.21875 10.9375 49.265625 
Q 16.15625 53.328125 25.390625 53.328125 
Q 29.5 53.328125 34.03125 52.25 
Q 38.578125 51.171875 43.40625 49.125 
L 43.40625 37.796875 
L 38.234375 37.796875 
Q 38.03125 42.828125 34.703125 45.65625 
Q 31.390625 48.484375 25.6875 48.484375 
Q 20.015625 48.484375 17.109375 46.484375 
Q 14.203125 44.484375 14.203125 40.484375 
Q 14.203125 37.203125 16.40625 35.21875 
Q 18.609375 33.25 25.203125 31.203125 
L 32.328125 29 
Q 39.703125 26.703125 42.9375 23.265625 
Q 46.1875 19.828125 46.1875 14.40625 
Q 46.1875 7.03125 40.546875 2.796875 
Q 34.90625 -1.421875 25 -1.421875 
Q 19.96875 -1.421875 15.1875 -0.34375 
Q 10.40625 0.734375 5.609375 2.875 
z
" id="DejaVuSerif-115"/>
      <path d="M 9.71875 68.015625 
Q 9.71875 70.265625 11.34375 71.921875 
Q 12.984375 73.578125 15.28125 73.578125 
Q 17.53125 73.578125 19.15625 71.921875 
Q 20.796875 70.265625 20.796875 68.015625 
Q 20.796875 65.71875 19.1875 64.109375 
Q 17.578125 62.5 15.28125 62.5 
Q 12.984375 62.5 11.34375 64.109375 
Q 9.71875 65.71875 9.71875 68.015625 
z
M 21.1875 5.171875 
L 29.6875 5.171875 
L 29.6875 0 
L 3.609375 0 
L 3.609375 5.171875 
L 12.203125 5.171875 
L 12.203125 46.6875 
L 3.609375 46.6875 
L 3.609375 51.90625 
L 21.1875 51.90625 
z
" id="DejaVuSerif-105"/>
      <path d="M 21.578125 -9.515625 
L 25 -0.875 
L 5.609375 46.6875 
L -0.296875 46.6875 
L -0.296875 51.90625 
L 23.578125 51.90625 
L 23.578125 46.6875 
L 15.28125 46.6875 
L 29.890625 10.984375 
L 44.484375 46.6875 
L 36.71875 46.6875 
L 36.71875 51.90625 
L 56.203125 51.90625 
L 56.203125 46.6875 
L 50.390625 46.6875 
L 26.609375 -11.71875 
Q 24.171875 -17.78125 21.1875 -20 
Q 18.21875 -22.21875 12.796875 -22.21875 
Q 10.5 -22.21875 8.078125 -21.828125 
Q 5.671875 -21.4375 3.21875 -20.703125 
L 3.21875 -10.796875 
L 7.8125 -10.796875 
Q 8.109375 -14.109375 9.5 -15.546875 
Q 10.890625 -17 13.8125 -17 
Q 16.5 -17 18.140625 -15.5 
Q 19.78125 -14.015625 21.578125 -9.515625 
z
" id="DejaVuSerif-121"/>
     </defs>
     <g style="fill:#262626;" transform="translate(10.29474 150.799574)rotate(-90)scale(0.096 -0.096)">
      <use xlink:href="#DejaVuSerif-83"/>
      <use x="68.505859" xlink:href="#DejaVuSerif-99"/>
      <use x="124.511719" xlink:href="#DejaVuSerif-97"/>
      <use x="184.130859" xlink:href="#DejaVuSerif-108"/>
      <use x="216.113281" xlink:href="#DejaVuSerif-101"/>
      <use x="275.292969" xlink:href="#DejaVuSerif-100"/>
      <use x="339.306641" xlink:href="#DejaVuSerif-32"/>
      <use x="371.09375" xlink:href="#DejaVuSerif-73"/>
      <use x="410.595703" xlink:href="#DejaVuSerif-110"/>
      <use x="475" xlink:href="#DejaVuSerif-116"/>
      <use x="515.185547" xlink:href="#DejaVuSerif-101"/>
      <use x="574.365234" xlink:href="#DejaVuSerif-110"/>
      <use x="638.769531" xlink:href="#DejaVuSerif-115"/>
      <use x="690.087891" xlink:href="#DejaVuSerif-105"/>
      <use x="722.070312" xlink:href="#DejaVuSerif-116"/>
      <use x="762.255859" xlink:href="#DejaVuSerif-121"/>
     </g>
    </g>
   </g>
   <g id="line2d_1">
    <path clip-path="url(#p3e3b6daa92)" d="M 73.319485 78.350089 
L 78.657303 101.236231 
L 83.995121 102.421096 
L 89.332938 119.286928 
L 94.670756 117.599421 
L 100.008574 134.437381 
L 105.346391 134.711007 
L 110.684209 136.893248 
L 116.022027 137.39114 
L 121.359844 139.140868 
L 126.697662 140.103058 
L 132.03548 138.389094 
L 137.373298 139.622483 
L 142.711115 138.15434 
L 148.048933 138.700024 
L 153.386751 135.250744 
L 158.724568 135.050674 
L 164.062386 126.634099 
L 169.400204 125.920879 
L 174.738021 92.974348 
L 180.075839 96.627965 
L 185.413657 125.994874 
L 190.751474 124.092451 
L 196.089292 99.771504 
L 201.42711 111.723045 
L 206.764928 122.925637 
L 212.102745 121.535917 
L 217.440563 121.769684 
L 222.778381 112.821396 
L 228.116198 125.599564 
L 233.454016 126.033313 
L 238.791834 128.19771 
L 244.129651 128.502809 
L 249.467469 133.180984 
L 254.805287 133.116119 
L 260.143104 105.498827 
L 265.480922 103.203429 
L 270.81874 95.274516 
L 276.156558 100.058613 
L 281.494375 122.394808 
L 286.832193 121.519292 
L 292.170011 129.072499 
L 297.507828 128.400814 
L 302.845646 121.633341 
L 308.183464 122.512654 
L 313.521281 101.302776 
L 318.859099 103.251892 
L 324.196917 105.382855 
L 329.534734 107.02545 
L 334.872552 99.830099 
L 340.21037 95.450455 
L 345.548188 98.963928 
L 350.886005 94.305884 
L 356.223823 97.361249 
L 361.561641 100.232747 
L 366.899458 105.170707 
L 372.237276 101.155713 
L 377.575094 91.269616 
L 382.912911 92.580739 
L 388.250729 103.597884 
L 393.588547 104.03915 
L 398.926364 87.507048 
L 404.264182 87.380012 
L 409.602 84.333856 
L 414.939817 83.070022 
L 420.277635 91.646057 
L 425.615453 91.464769 
L 430.953271 91.853067 
L 436.291088 91.040604 
L 441.628906 118.875014 
L 446.966724 119.205262 
L 452.304541 106.553214 
L 457.642359 106.244993 
L 462.980177 124.57686 
L 468.317994 125.88972 
L 473.655812 109.355508 
L 478.99363 111.371881 
L 484.331447 104.033285 
L 489.669265 102.949783 
L 495.007083 100.866202 
L 500.344901 102.975537 
L 505.682718 29.22433 
L 511.020536 24.949657 
L 516.358354 67.57512 
L 521.696171 71.2984 
L 527.033989 100.587161 
L 532.371807 100.834141 
L 537.709624 100.52117 
L 543.047442 96.15461 
L 548.38526 89.479703 
L 553.723077 84.45402 
L 559.060895 71.007643 
L 564.398713 67.273691 
L 569.736531 97.18026 
L 575.074348 99.622978 
L 580.412166 74.965151 
L 585.749984 75.466059 
L 591.087801 82.160298 
L 596.425619 80.919227 
L 601.763437 70.832741 
L 607.101254 73.819832 
L 612.439072 53.254455 
L 617.77689 70.025032 
" style="fill:none;stroke:#c8102e;stroke-linecap:round;stroke-width:1.2;"/>
   </g>
   <g id="line2d_2">
    <path clip-path="url(#p3e3b6daa92)" d="M 73.319485 94.579165 
L 78.657303 132.006994 
L 83.995121 133.312304 
L 89.332938 151.358322 
L 94.670756 149.746995 
L 100.008574 164.303138 
L 105.346391 164.709806 
L 110.684209 166.369181 
L 116.022027 166.817985 
L 121.359844 168.187275 
L 126.697662 169.075525 
L 132.03548 167.770242 
L 137.373298 168.633471 
L 142.711115 167.484393 
L 148.048933 167.822892 
L 153.386751 165.073338 
L 158.724568 164.891944 
L 164.062386 158.067176 
L 169.400204 157.299962 
L 174.738021 121.13308 
L 180.075839 126.013212 
L 185.413657 157.428207 
L 190.751474 155.463645 
L 196.089292 129.060465 
L 201.42711 143.506296 
L 206.764928 154.871103 
L 212.102745 153.478441 
L 217.440563 153.486069 
L 222.778381 145.135826 
L 228.116198 157.13302 
L 233.454016 157.348051 
L 238.791834 159.126157 
L 244.129651 159.545346 
L 249.467469 163.504937 
L 254.805287 163.572512 
L 260.143104 137.780051 
L 265.480922 135.10483 
L 270.81874 124.88232 
L 276.156558 130.931756 
L 281.494375 154.49305 
L 286.832193 153.587949 
L 292.170011 159.948399 
L 297.507828 159.565076 
L 302.845646 153.867953 
L 308.183464 154.60941 
L 313.521281 131.975122 
L 318.859099 134.441111 
L 324.196917 137.135096 
L 329.534734 138.706355 
L 334.872552 130.273057 
L 340.21037 125.003684 
L 345.548188 129.346692 
L 350.886005 122.777185 
L 356.223823 127.607492 
L 361.561641 130.910107 
L 366.899458 136.616872 
L 372.237276 132.079225 
L 377.575094 118.613686 
L 382.912911 120.816836 
L 388.250729 134.758487 
L 393.588547 135.396489 
L 398.926364 113.013297 
L 404.264182 111.677619 
L 409.602 107.157287 
L 414.939817 104.911866 
L 420.277635 119.439968 
L 425.615453 118.920058 
L 430.953271 119.496996 
L 436.291088 118.50062 
L 441.628906 151.296963 
L 446.966724 151.602021 
L 452.304541 138.517609 
L 457.642359 137.980649 
L 462.980177 156.16054 
L 468.317994 157.154345 
L 473.655812 141.250108 
L 478.99363 143.367132 
L 484.331447 135.428362 
L 489.669265 134.549957 
L 495.007083 132.407493 
L 500.344901 134.750886 
L 505.682718 44.581135 
L 511.020536 41.638191 
L 516.358354 68.363702 
L 521.696171 75.824054 
L 527.033989 131.747288 
L 532.371807 131.788559 
L 537.709624 131.198618 
L 543.047442 125.42972 
L 548.38526 115.668734 
L 553.723077 107.381574 
L 559.060895 75.943037 
L 564.398713 68.445356 
L 569.736531 126.570659 
L 575.074348 129.858402 
L 580.412166 85.537374 
L 585.749984 85.260155 
L 591.087801 102.33218 
L 596.425619 99.413921 
L 601.763437 73.543294 
L 607.101254 83.556107 
L 612.439072 60.017122 
L 617.77689 71.191252 
" style="fill:none;stroke:#00b388;stroke-linecap:round;stroke-width:1.2;"/>
   </g>
   <g id="line2d_3">
    <path clip-path="url(#p3e3b6daa92)" d="M 73.319485 110.808241 
L 78.657303 162.777758 
L 83.995121 164.203515 
L 89.332938 183.429712 
L 94.670756 181.894568 
L 100.008574 194.168895 
L 105.346391 194.708605 
L 110.684209 195.845122 
L 116.022027 196.24483 
L 121.359844 197.233682 
L 126.697662 198.047991 
L 132.03548 197.151384 
L 137.373298 197.644459 
L 142.711115 196.814447 
L 148.048933 196.945759 
L 153.386751 194.895932 
L 158.724568 194.733214 
L 164.062386 189.500246 
L 169.400204 188.679045 
L 174.738021 149.291812 
L 180.075839 155.398455 
L 185.413657 188.861534 
L 190.751474 186.834843 
L 196.089292 158.34943 
L 201.42711 175.289547 
L 206.764928 186.816572 
L 212.102745 185.420971 
L 217.440563 185.202454 
L 222.778381 177.450261 
L 228.116198 188.666477 
L 233.454016 188.662788 
L 238.791834 190.054605 
L 244.129651 190.587883 
L 249.467469 193.82889 
L 254.805287 194.028906 
L 260.143104 170.061275 
L 265.480922 167.006231 
L 270.81874 154.490124 
L 276.156558 161.804899 
L 281.494375 186.591285 
L 286.832193 185.656609 
L 292.170011 190.824292 
L 297.507828 190.729345 
L 302.845646 186.102562 
L 308.183464 186.706165 
L 313.521281 162.647465 
L 318.859099 165.630333 
L 324.196917 168.887339 
L 329.534734 170.38726 
L 334.872552 160.716018 
L 340.21037 154.556916 
L 345.548188 159.729457 
L 350.886005 151.248489 
L 356.223823 157.853734 
L 361.561641 161.587463 
L 366.899458 168.063037 
L 372.237276 163.002741 
L 377.575094 145.957757 
L 382.912911 149.05293 
L 388.250729 165.919094 
L 393.588547 166.753829 
L 398.926364 138.519548 
L 404.264182 135.975228 
L 409.602 129.980715 
L 414.939817 126.753709 
L 420.277635 147.233877 
L 425.615453 146.375351 
L 430.953271 147.140923 
L 436.291088 145.960636 
L 441.628906 183.718919 
L 446.966724 183.998788 
L 452.304541 170.482004 
L 457.642359 169.716304 
L 462.980177 187.744221 
L 468.317994 188.418974 
L 473.655812 173.144712 
L 478.99363 175.362379 
L 484.331447 166.823438 
L 489.669265 166.150131 
L 495.007083 163.948781 
L 500.344901 166.526238 
L 505.682718 59.937942 
L 511.020536 58.326725 
L 516.358354 69.152284 
L 521.696171 80.349709 
L 527.033989 162.907415 
L 532.371807 162.74298 
L 537.709624 161.876062 
L 543.047442 154.70483 
L 548.38526 141.857765 
L 553.723077 130.309125 
L 559.060895 80.878431 
L 564.398713 69.61702 
L 569.736531 155.961058 
L 575.074348 160.093827 
L 580.412166 96.109596 
L 585.749984 95.054251 
L 591.087801 122.504059 
L 596.425619 117.908615 
L 601.763437 76.253847 
L 607.101254 93.292383 
L 612.439072 66.779787 
L 617.77689 72.357473 
" style="fill:none;stroke:#f6be00;stroke-linecap:round;stroke-width:1.2;"/>
   </g>
   <g id="line2d_4"/>
   <g id="line2d_5"/>
   <g id="line2d_6"/>
   <g id="patch_3">
    <path d="M 46.096615 206.702908 
L 46.096615 16.29474 
" style="fill:none;stroke:#262626;stroke-linecap:square;stroke-linejoin:miter;"/>
   </g>
   <g id="patch_4">
    <path d="M 644.99976 206.702908 
L 644.99976 16.29474 
" style="fill:none;stroke:#262626;stroke-linecap:square;stroke-linejoin:miter;"/>
   </g>
   <g id="patch_5">
    <path d="M 46.096615 206.702908 
L 644.99976 206.702908 
" style="fill:none;stroke:#262626;stroke-linecap:square;stroke-linejoin:miter;"/>
   </g>
   <g id="patch_6">
    <path d="M 46.096615 16.29474 
L 644.99976 16.29474 
" style="fill:none;stroke:#262626;stroke-linecap:square;stroke-linejoin:miter;"/>
   </g>
   <g id="text_11">
    <!-- Shadows Generated Samples -->
    <defs>
     <path d="M 4.109375 0 
L 4.109375 5.171875 
L 12.203125 5.171875 
L 12.203125 70.796875 
L 3.609375 70.796875 
L 3.609375 75.984375 
L 21.1875 75.984375 
L 21.1875 42.671875 
Q 23.6875 47.953125 27.65625 50.640625 
Q 31.640625 53.328125 36.921875 53.328125 
Q 45.515625 53.328125 49.5625 48.390625 
Q 53.609375 43.453125 53.609375 33.015625 
L 53.609375 5.171875 
L 61.625 5.171875 
L 61.625 0 
L 36.8125 0 
L 36.8125 5.171875 
L 44.578125 5.171875 
L 44.578125 30.171875 
Q 44.578125 39.703125 42.25 43.1875 
Q 39.9375 46.6875 33.984375 46.6875 
Q 27.734375 46.6875 24.453125 42.140625 
Q 21.1875 37.59375 21.1875 28.90625 
L 21.1875 5.171875 
L 29 5.171875 
L 29 0 
z
" id="DejaVuSerif-104"/>
     <path d="M 30.078125 3.421875 
Q 37.3125 3.421875 40.984375 9.125 
Q 44.671875 14.84375 44.671875 25.984375 
Q 44.671875 37.109375 40.984375 42.796875 
Q 37.3125 48.484375 30.078125 48.484375 
Q 22.859375 48.484375 19.171875 42.796875 
Q 15.484375 37.109375 15.484375 25.984375 
Q 15.484375 14.84375 19.1875 9.125 
Q 22.90625 3.421875 30.078125 3.421875 
z
M 30.078125 -1.421875 
Q 18.75 -1.421875 11.859375 6.078125 
Q 4.984375 13.578125 4.984375 25.984375 
Q 4.984375 38.375 11.84375 45.84375 
Q 18.703125 53.328125 30.078125 53.328125 
Q 41.453125 53.328125 48.3125 45.84375 
Q 55.171875 38.375 55.171875 25.984375 
Q 55.171875 13.578125 48.3125 6.078125 
Q 41.453125 -1.421875 30.078125 -1.421875 
z
" id="DejaVuSerif-111"/>
     <path d="M 48 51.90625 
L 61.28125 11.375 
L 73 46.6875 
L 65.484375 46.6875 
L 65.484375 51.90625 
L 84.28125 51.90625 
L 84.28125 46.6875 
L 78.515625 46.6875 
L 63.09375 0 
L 55.609375 0 
L 42.828125 38.8125 
L 29.984375 0 
L 22.796875 0 
L 7.421875 46.6875 
L 1.609375 46.6875 
L 1.609375 51.90625 
L 25.09375 51.90625 
L 25.09375 46.6875 
L 16.703125 46.6875 
L 28.328125 11.375 
L 41.703125 51.90625 
z
" id="DejaVuSerif-119"/>
     <path d="M 64.015625 51.125 
Q 62.3125 60.25 56.890625 64.625 
Q 51.46875 69 41.796875 69 
Q 29.203125 69 23 60.890625 
Q 16.796875 52.78125 16.796875 36.375 
Q 16.796875 20.3125 23.1875 12.0625 
Q 29.59375 3.8125 42 3.8125 
Q 47.515625 3.8125 52.53125 5.171875 
Q 57.5625 6.546875 62.109375 9.28125 
L 62.109375 28.078125 
L 48.390625 28.078125 
L 48.390625 33.296875 
L 72.015625 33.296875 
L 72.015625 6.109375 
Q 65.53125 2.34375 58.03125 0.453125 
Q 50.53125 -1.421875 42 -1.421875 
Q 25.484375 -1.421875 15.546875 8.90625 
Q 5.609375 19.234375 5.609375 36.375 
Q 5.609375 53.65625 15.5625 63.9375 
Q 25.53125 74.21875 42.390625 74.21875 
Q 48.640625 74.21875 55.296875 72.78125 
Q 61.96875 71.34375 69.484375 68.40625 
L 69.484375 51.125 
z
" id="DejaVuSerif-71"/>
     <path d="M 47.796875 52 
L 47.796875 39.015625 
L 42.625 39.015625 
Q 42.390625 42.875 40.484375 44.78125 
Q 38.578125 46.6875 34.90625 46.6875 
Q 28.265625 46.6875 24.71875 42.09375 
Q 21.1875 37.5 21.1875 28.90625 
L 21.1875 5.171875 
L 31.59375 5.171875 
L 31.59375 0 
L 4.109375 0 
L 4.109375 5.171875 
L 12.203125 5.171875 
L 12.203125 46.78125 
L 3.609375 46.78125 
L 3.609375 51.90625 
L 21.1875 51.90625 
L 21.1875 42.671875 
Q 23.828125 48.09375 27.96875 50.703125 
Q 32.125 53.328125 38.09375 53.328125 
Q 40.28125 53.328125 42.703125 52.984375 
Q 45.125 52.640625 47.796875 52 
z
" id="DejaVuSerif-114"/>
     <path d="M 51.8125 41.796875 
Q 54.390625 47.515625 58.421875 50.421875 
Q 62.453125 53.328125 67.828125 53.328125 
Q 75.984375 53.328125 79.984375 48.265625 
Q 83.984375 43.21875 83.984375 33.015625 
L 83.984375 5.171875 
L 92.09375 5.171875 
L 92.09375 0 
L 67.1875 0 
L 67.1875 5.171875 
L 75 5.171875 
L 75 31.984375 
Q 75 39.9375 72.65625 43.3125 
Q 70.3125 46.6875 64.890625 46.6875 
Q 58.890625 46.6875 55.734375 42.140625 
Q 52.59375 37.59375 52.59375 28.90625 
L 52.59375 5.171875 
L 60.40625 5.171875 
L 60.40625 0 
L 35.796875 0 
L 35.796875 5.171875 
L 43.609375 5.171875 
L 43.609375 32.328125 
Q 43.609375 40.09375 41.265625 43.390625 
Q 38.921875 46.6875 33.5 46.6875 
Q 27.484375 46.6875 24.328125 42.140625 
Q 21.1875 37.59375 21.1875 28.90625 
L 21.1875 5.171875 
L 29 5.171875 
L 29 0 
L 4.109375 0 
L 4.109375 5.171875 
L 12.203125 5.171875 
L 12.203125 46.78125 
L 3.609375 46.78125 
L 3.609375 51.90625 
L 21.1875 51.90625 
L 21.1875 42.671875 
Q 23.6875 47.859375 27.53125 50.59375 
Q 31.390625 53.328125 36.28125 53.328125 
Q 42.328125 53.328125 46.375 50.3125 
Q 50.4375 47.3125 51.8125 41.796875 
z
" id="DejaVuSerif-109"/>
     <path d="M 20.515625 28.515625 
L 20.515625 23.390625 
Q 20.515625 14.015625 24.09375 9.109375 
Q 27.6875 4.203125 34.515625 4.203125 
Q 41.40625 4.203125 44.9375 9.71875 
Q 48.484375 15.234375 48.484375 25.984375 
Q 48.484375 36.765625 44.9375 42.234375 
Q 41.40625 47.703125 34.515625 47.703125 
Q 27.6875 47.703125 24.09375 42.765625 
Q 20.515625 37.84375 20.515625 28.515625 
z
M 11.53125 46.6875 
L 2.875 46.6875 
L 2.875 51.90625 
L 20.515625 51.90625 
L 20.515625 43.796875 
Q 23.140625 48.6875 27.21875 51 
Q 31.296875 53.328125 37.3125 53.328125 
Q 46.875 53.328125 52.921875 45.75 
Q 58.984375 38.1875 58.984375 25.984375 
Q 58.984375 13.765625 52.921875 6.171875 
Q 46.875 -1.421875 37.3125 -1.421875 
Q 31.296875 -1.421875 27.21875 0.890625 
Q 23.140625 3.21875 20.515625 8.109375 
L 20.515625 -15.578125 
L 29 -15.578125 
L 29 -20.796875 
L 2.875 -20.796875 
L 2.875 -15.578125 
L 11.53125 -15.578125 
z
" id="DejaVuSerif-112"/>
    </defs>
    <g style="fill:#262626;" transform="translate(274.500687 10.29474)scale(0.096 -0.096)">
     <use xlink:href="#DejaVuSerif-83"/>
     <use x="68.505859" xlink:href="#DejaVuSerif-104"/>
     <use x="132.910156" xlink:href="#DejaVuSerif-97"/>
     <use x="192.529297" xlink:href="#DejaVuSerif-100"/>
     <use x="256.542969" xlink:href="#DejaVuSerif-111"/>
     <use x="316.748047" xlink:href="#DejaVuSerif-119"/>
     <use x="402.34375" xlink:href="#DejaVuSerif-115"/>
     <use x="453.662109" xlink:href="#DejaVuSerif-32"/>
     <use x="485.449219" xlink:href="#DejaVuSerif-71"/>
     <use x="565.332031" xlink:href="#DejaVuSerif-101"/>
     <use x="624.511719" xlink:href="#DejaVuSerif-110"/>
     <use x="688.916016" xlink:href="#DejaVuSerif-101"/>
     <use x="748.095703" xlink:href="#DejaVuSerif-114"/>
     <use x="795.898438" xlink:href="#DejaVuSerif-97"/>
     <use x="855.517578" xlink:href="#DejaVuSerif-116"/>
     <use x="895.703125" xlink:href="#DejaVuSerif-101"/>
     <use x="954.882812" xlink:href="#DejaVuSerif-100"/>
     <use x="1018.896484" xlink:href="#DejaVuSerif-32"/>
     <use x="1050.683594" xlink:href="#DejaVuSerif-83"/>
     <use x="1119.189453" xlink:href="#DejaVuSerif-97"/>
     <use x="1178.808594" xlink:href="#DejaVuSerif-109"/>
     <use x="1273.632812" xlink:href="#DejaVuSerif-112"/>
     <use x="1337.646484" xlink:href="#DejaVuSerif-108"/>
     <use x="1369.628906" xlink:href="#DejaVuSerif-101"/>
     <use x="1428.808594" xlink:href="#DejaVuSerif-115"/>
    </g>
   </g>
  </g>
  <g id="axes_2">
   <g id="legend_1">
    <g id="line2d_7">
     <path d="M 155.91025 226.942344 
L 173.51025 226.942344 
" style="fill:none;stroke:#c8102e;stroke-linecap:round;stroke-width:1.2;"/>
    </g>
    <g id="line2d_8"/>
    <g id="text_12">
     <!-- Mean + Standard Deviation -->
     <defs>
      <path d="M 5.515625 0 
L 5.515625 5.171875 
L 14.796875 5.171875 
L 14.796875 67.671875 
L 4.984375 67.671875 
L 4.984375 72.90625 
L 26.21875 72.90625 
L 51.8125 21 
L 77.390625 72.90625 
L 97.3125 72.90625 
L 97.3125 67.671875 
L 87.59375 67.671875 
L 87.59375 5.171875 
L 96.921875 5.171875 
L 96.921875 0 
L 68.40625 0 
L 68.40625 5.171875 
L 77.6875 5.171875 
L 77.6875 61.53125 
L 52.6875 10.6875 
L 45.796875 10.6875 
L 20.796875 61.53125 
L 20.796875 5.171875 
L 30.078125 5.171875 
L 30.078125 0 
z
" id="DejaVuSerif-77"/>
      <path d="M 45.796875 62.703125 
L 45.796875 35.296875 
L 73.1875 35.296875 
L 73.1875 27.390625 
L 45.796875 27.390625 
L 45.796875 0 
L 37.984375 0 
L 37.984375 27.390625 
L 10.59375 27.390625 
L 10.59375 35.296875 
L 37.984375 35.296875 
L 37.984375 62.703125 
z
" id="DejaVuSerif-43"/>
      <path d="M 24.703125 5.171875 
L 33.796875 5.171875 
Q 48 5.171875 55.59375 13.28125 
Q 63.1875 21.390625 63.1875 36.53125 
Q 63.1875 51.65625 55.609375 59.65625 
Q 48.046875 67.671875 33.796875 67.671875 
L 24.703125 67.671875 
z
M 5.515625 0 
L 5.515625 5.171875 
L 14.796875 5.171875 
L 14.796875 67.671875 
L 5.515625 67.671875 
L 5.515625 72.90625 
L 34.515625 72.90625 
Q 53.375 72.90625 63.890625 63.28125 
Q 74.421875 53.65625 74.421875 36.53125 
Q 74.421875 19.34375 63.875 9.671875 
Q 53.328125 0 34.515625 0 
z
" id="DejaVuSerif-68"/>
      <path d="M 24.703125 0 
L 5.609375 46.6875 
L -0.296875 46.6875 
L -0.296875 51.90625 
L 23.578125 51.90625 
L 23.578125 46.6875 
L 15.28125 46.6875 
L 29.890625 10.984375 
L 44.484375 46.6875 
L 36.71875 46.6875 
L 36.71875 51.90625 
L 56.203125 51.90625 
L 56.203125 46.6875 
L 50.390625 46.6875 
L 31.296875 0 
z
" id="DejaVuSerif-118"/>
     </defs>
     <g style="fill:#262626;" transform="translate(180.55025 230.022344)scale(0.088 -0.088)">
      <use xlink:href="#DejaVuSerif-77"/>
      <use x="102.392578" xlink:href="#DejaVuSerif-101"/>
      <use x="161.572266" xlink:href="#DejaVuSerif-97"/>
      <use x="221.191406" xlink:href="#DejaVuSerif-110"/>
      <use x="285.595703" xlink:href="#DejaVuSerif-32"/>
      <use x="317.382812" xlink:href="#DejaVuSerif-43"/>
      <use x="401.171875" xlink:href="#DejaVuSerif-32"/>
      <use x="432.958984" xlink:href="#DejaVuSerif-83"/>
      <use x="501.464844" xlink:href="#DejaVuSerif-116"/>
      <use x="541.650391" xlink:href="#DejaVuSerif-97"/>
      <use x="601.269531" xlink:href="#DejaVuSerif-110"/>
      <use x="665.673828" xlink:href="#DejaVuSerif-100"/>
      <use x="729.6875" xlink:href="#DejaVuSerif-97"/>
      <use x="789.306641" xlink:href="#DejaVuSerif-114"/>
      <use x="837.109375" xlink:href="#DejaVuSerif-100"/>
      <use x="901.123047" xlink:href="#DejaVuSerif-32"/>
      <use x="932.910156" xlink:href="#DejaVuSerif-68"/>
      <use x="1013.085938" xlink:href="#DejaVuSerif-101"/>
      <use x="1072.265625" xlink:href="#DejaVuSerif-118"/>
      <use x="1128.759766" xlink:href="#DejaVuSerif-105"/>
      <use x="1160.742188" xlink:href="#DejaVuSerif-97"/>
      <use x="1220.361328" xlink:href="#DejaVuSerif-116"/>
      <use x="1260.546875" xlink:href="#DejaVuSerif-105"/>
      <use x="1292.529297" xlink:href="#DejaVuSerif-111"/>
      <use x="1352.734375" xlink:href="#DejaVuSerif-110"/>
     </g>
    </g>
    <g id="line2d_9">
     <path d="M 322.861375 226.942344 
L 340.461375 226.942344 
" style="fill:none;stroke:#00b388;stroke-linecap:round;stroke-width:1.2;"/>
    </g>
    <g id="line2d_10"/>
    <g id="text_13">
     <!-- Mean -->
     <g style="fill:#262626;" transform="translate(347.501375 230.022344)scale(0.088 -0.088)">
      <use xlink:href="#DejaVuSerif-77"/>
      <use x="102.392578" xlink:href="#DejaVuSerif-101"/>
      <use x="161.572266" xlink:href="#DejaVuSerif-97"/>
      <use x="221.191406" xlink:href="#DejaVuSerif-110"/>
     </g>
    </g>
    <g id="line2d_11">
     <path d="M 390.235 226.942344 
L 407.835 226.942344 
" style="fill:none;stroke:#f6be00;stroke-linecap:round;stroke-width:1.2;"/>
    </g>
    <g id="line2d_12"/>
    <g id="text_14">
     <!-- Mean - Standard Deviation -->
     <defs>
      <path d="M 4.390625 30.609375 
L 29.390625 30.609375 
L 29.390625 23 
L 4.390625 23 
z
" id="DejaVuSerif-45"/>
     </defs>
     <g style="fill:#262626;" transform="translate(414.875 230.022344)scale(0.088 -0.088)">
      <use xlink:href="#DejaVuSerif-77"/>
      <use x="102.392578" xlink:href="#DejaVuSerif-101"/>
      <use x="161.572266" xlink:href="#DejaVuSerif-97"/>
      <use x="221.191406" xlink:href="#DejaVuSerif-110"/>
      <use x="285.595703" xlink:href="#DejaVuSerif-32"/>
      <use x="317.382812" xlink:href="#DejaVuSerif-45"/>
      <use x="351.171875" xlink:href="#DejaVuSerif-32"/>
      <use x="382.958984" xlink:href="#DejaVuSerif-83"/>
      <use x="451.464844" xlink:href="#DejaVuSerif-116"/>
      <use x="491.650391" xlink:href="#DejaVuSerif-97"/>
      <use x="551.269531" xlink:href="#DejaVuSerif-110"/>
      <use x="615.673828" xlink:href="#DejaVuSerif-100"/>
      <use x="679.6875" xlink:href="#DejaVuSerif-97"/>
      <use x="739.306641" xlink:href="#DejaVuSerif-114"/>
      <use x="787.109375" xlink:href="#DejaVuSerif-100"/>
      <use x="851.123047" xlink:href="#DejaVuSerif-32"/>
      <use x="882.910156" xlink:href="#DejaVuSerif-68"/>
      <use x="963.085938" xlink:href="#DejaVuSerif-101"/>
      <use x="1022.265625" xlink:href="#DejaVuSerif-118"/>
      <use x="1078.759766" xlink:href="#DejaVuSerif-105"/>
      <use x="1110.742188" xlink:href="#DejaVuSerif-97"/>
      <use x="1170.361328" xlink:href="#DejaVuSerif-116"/>
      <use x="1210.546875" xlink:href="#DejaVuSerif-105"/>
      <use x="1242.529297" xlink:href="#DejaVuSerif-111"/>
      <use x="1302.734375" xlink:href="#DejaVuSerif-110"/>
     </g>
    </g>
   </g>
  </g>
  <g id="axes_3">
   <g id="patch_7">
    <path d="M 46.096615 434.89201 
L 644.99976 434.89201 
L 644.99976 244.483842 
L 46.096615 244.483842 
z
" style="fill:#ffffff;"/>
   </g>
   <g id="matplotlib.axis_3">
    <g id="xtick_1">
     <g id="text_15">
      <!-- 0 -->
      <g style="fill:#262626;" transform="translate(70.519985 449.878635)scale(0.088 -0.088)">
       <use xlink:href="#DejaVuSerif-48"/>
      </g>
     </g>
    </g>
    <g id="xtick_2">
     <g id="text_16">
      <!-- 20 -->
      <g style="fill:#262626;" transform="translate(174.476839 449.878635)scale(0.088 -0.088)">
       <use xlink:href="#DejaVuSerif-50"/>
       <use x="63.623047" xlink:href="#DejaVuSerif-48"/>
      </g>
     </g>
    </g>
    <g id="xtick_3">
     <g id="text_17">
      <!-- 40 -->
      <g style="fill:#262626;" transform="translate(281.233193 449.878635)scale(0.088 -0.088)">
       <use xlink:href="#DejaVuSerif-52"/>
       <use x="63.623047" xlink:href="#DejaVuSerif-48"/>
      </g>
     </g>
    </g>
    <g id="xtick_4">
     <g id="text_18">
      <!-- 60 -->
      <g style="fill:#262626;" transform="translate(387.989547 449.878635)scale(0.088 -0.088)">
       <use xlink:href="#DejaVuSerif-54"/>
       <use x="63.623047" xlink:href="#DejaVuSerif-48"/>
      </g>
     </g>
    </g>
    <g id="xtick_5">
     <g id="text_19">
      <!-- 80 -->
      <g style="fill:#262626;" transform="translate(494.745901 449.878635)scale(0.088 -0.088)">
       <use xlink:href="#DejaVuSerif-56"/>
       <use x="63.623047" xlink:href="#DejaVuSerif-48"/>
      </g>
     </g>
    </g>
    <g id="xtick_6">
     <g id="text_20">
      <!-- 100 -->
      <g style="fill:#262626;" transform="translate(598.702754 449.878635)scale(0.088 -0.088)">
       <use xlink:href="#DejaVuSerif-49"/>
       <use x="63.623047" xlink:href="#DejaVuSerif-48"/>
       <use x="127.246094" xlink:href="#DejaVuSerif-48"/>
      </g>
     </g>
    </g>
    <g id="text_21">
     <!-- Spectral Band -->
     <defs>
      <path d="M 24.703125 5.171875 
L 39.3125 5.171875 
Q 48.09375 5.171875 52.140625 8.984375 
Q 56.203125 12.796875 56.203125 21.09375 
Q 56.203125 29.34375 52.171875 33.125 
Q 48.140625 36.921875 39.3125 36.921875 
L 24.703125 36.921875 
z
M 24.703125 42.09375 
L 37.109375 42.09375 
Q 45.125 42.09375 48.796875 45.171875 
Q 52.484375 48.25 52.484375 54.890625 
Q 52.484375 61.578125 48.796875 64.625 
Q 45.125 67.671875 37.109375 67.671875 
L 24.703125 67.671875 
z
M 5.515625 0 
L 5.515625 5.171875 
L 14.796875 5.171875 
L 14.796875 67.671875 
L 5.515625 67.671875 
L 5.515625 72.90625 
L 41.5 72.90625 
Q 52.546875 72.90625 58.125 68.390625 
Q 63.71875 63.875 63.71875 54.890625 
Q 63.71875 48.390625 59.828125 44.53125 
Q 55.953125 40.671875 48.484375 39.796875 
Q 57.765625 38.625 62.578125 33.859375 
Q 67.390625 29.109375 67.390625 21.09375 
Q 67.390625 10.25 60.546875 5.125 
Q 53.71875 0 39.203125 0 
z
" id="DejaVuSerif-66"/>
     </defs>
     <g style="fill:#262626;" transform="translate(310.958937 463.00326)scale(0.096 -0.096)">
      <use xlink:href="#DejaVuSerif-83"/>
      <use x="68.505859" xlink:href="#DejaVuSerif-112"/>
      <use x="132.519531" xlink:href="#DejaVuSerif-101"/>
      <use x="191.699219" xlink:href="#DejaVuSerif-99"/>
      <use x="247.705078" xlink:href="#DejaVuSerif-116"/>
      <use x="287.890625" xlink:href="#DejaVuSerif-114"/>
      <use x="335.693359" xlink:href="#DejaVuSerif-97"/>
      <use x="395.3125" xlink:href="#DejaVuSerif-108"/>
      <use x="427.294922" xlink:href="#DejaVuSerif-32"/>
      <use x="459.082031" xlink:href="#DejaVuSerif-66"/>
      <use x="532.568359" xlink:href="#DejaVuSerif-97"/>
      <use x="592.1875" xlink:href="#DejaVuSerif-110"/>
      <use x="656.591797" xlink:href="#DejaVuSerif-100"/>
     </g>
    </g>
   </g>
   <g id="matplotlib.axis_4">
    <g id="ytick_10">
     <g id="text_22">
      <!-- 200 -->
      <g style="fill:#262626;" transform="translate(20.999615 400.625135)scale(0.088 -0.088)">
       <use xlink:href="#DejaVuSerif-50"/>
       <use x="63.623047" xlink:href="#DejaVuSerif-48"/>
       <use x="127.246094" xlink:href="#DejaVuSerif-48"/>
      </g>
     </g>
    </g>
    <g id="ytick_11">
     <g id="text_23">
      <!-- 400 -->
      <g style="fill:#262626;" transform="translate(20.999615 359.218932)scale(0.088 -0.088)">
       <use xlink:href="#DejaVuSerif-52"/>
       <use x="63.623047" xlink:href="#DejaVuSerif-48"/>
       <use x="127.246094" xlink:href="#DejaVuSerif-48"/>
      </g>
     </g>
    </g>
    <g id="ytick_12">
     <g id="text_24">
      <!-- 600 -->
      <g style="fill:#262626;" transform="translate(20.999615 317.812728)scale(0.088 -0.088)">
       <use xlink:href="#DejaVuSerif-54"/>
       <use x="63.623047" xlink:href="#DejaVuSerif-48"/>
       <use x="127.246094" xlink:href="#DejaVuSerif-48"/>
      </g>
     </g>
    </g>
    <g id="ytick_13">
     <g id="text_25">
      <!-- 800 -->
      <g style="fill:#262626;" transform="translate(20.999615 276.406525)scale(0.088 -0.088)">
       <use xlink:href="#DejaVuSerif-56"/>
       <use x="63.623047" xlink:href="#DejaVuSerif-48"/>
       <use x="127.246094" xlink:href="#DejaVuSerif-48"/>
      </g>
     </g>
    </g>
    <g id="text_26">
     <!-- Intensity -->
     <g style="fill:#262626;" transform="translate(14.866615 361.176176)rotate(-90)scale(0.096 -0.096)">
      <use xlink:href="#DejaVuSerif-73"/>
      <use x="39.501953" xlink:href="#DejaVuSerif-110"/>
      <use x="103.90625" xlink:href="#DejaVuSerif-116"/>
      <use x="144.091797" xlink:href="#DejaVuSerif-101"/>
      <use x="203.271484" xlink:href="#DejaVuSerif-110"/>
      <use x="267.675781" xlink:href="#DejaVuSerif-115"/>
      <use x="318.994141" xlink:href="#DejaVuSerif-105"/>
      <use x="350.976562" xlink:href="#DejaVuSerif-116"/>
      <use x="391.162109" xlink:href="#DejaVuSerif-121"/>
     </g>
    </g>
   </g>
   <g id="line2d_13">
    <path clip-path="url(#p05f9c6e051)" d="M 73.319485 253.138759 
L 78.657303 280.91096 
L 83.995121 306.034136 
L 89.332938 318.54707 
L 94.670756 324.045717 
L 100.008574 330.12185 
L 105.346391 336.608798 
L 110.684209 342.934556 
L 116.022027 347.400699 
L 121.359844 350.105379 
L 126.697662 353.000065 
L 132.03548 357.622673 
L 137.373298 359.940235 
L 142.711115 361.397785 
L 148.048933 363.517279 
L 153.386751 366.456338 
L 158.724568 368.411263 
L 164.062386 369.625676 
L 169.400204 371.002434 
L 174.738021 371.923312 
L 180.075839 372.233176 
L 185.413657 372.469488 
L 190.751474 373.196551 
L 196.089292 374.236278 
L 201.42711 374.778102 
L 206.764928 374.89177 
L 212.102745 375.69884 
L 217.440563 376.955959 
L 222.778381 378.196027 
L 228.116198 378.898033 
L 233.454016 379.523278 
L 238.791834 380.531557 
L 244.129651 381.547529 
L 249.467469 382.256067 
L 254.805287 383.107856 
L 260.143104 384.049796 
L 265.480922 385.056176 
L 270.81874 386.210886 
L 276.156558 387.250052 
L 281.494375 388.069453 
L 286.832193 388.549822 
L 292.170011 389.365962 
L 297.507828 390.178061 
L 302.845646 390.477342 
L 308.183464 390.476443 
L 313.521281 390.584135 
L 318.859099 391.071584 
L 324.196917 391.720681 
L 329.534734 391.880845 
L 334.872552 392.232706 
L 340.21037 392.337745 
L 345.548188 392.492347 
L 350.886005 392.926604 
L 356.223823 393.31954 
L 361.561641 393.733423 
L 366.899458 394.399806 
L 372.237276 395.069642 
L 377.575094 395.724088 
L 382.912911 396.72607 
L 388.250729 397.500086 
L 393.588547 397.846489 
L 398.926364 397.945326 
L 404.264182 397.801677 
L 409.602 397.445193 
L 414.939817 395.641368 
L 420.277635 393.640237 
L 425.615453 393.694974 
L 430.953271 393.302636 
L 436.291088 391.654366 
L 441.628906 389.575218 
L 446.966724 387.237515 
L 452.304541 384.016556 
L 457.642359 379.048651 
L 462.980177 374.338083 
L 468.317994 370.589286 
L 473.655812 367.317101 
L 478.99363 365.118182 
L 484.331447 362.717564 
L 489.669265 360.266077 
L 495.007083 357.868483 
L 500.344901 355.21075 
L 505.682718 352.391625 
L 511.020536 346.774426 
L 516.358354 338.580374 
L 521.696171 340.815009 
L 527.033989 346.525003 
L 532.371807 348.841111 
L 537.709624 349.252938 
L 543.047442 349.016364 
L 548.38526 348.194994 
L 553.723077 346.391543 
L 559.060895 345.127312 
L 564.398713 344.722817 
L 569.736531 343.707839 
L 575.074348 342.576765 
L 580.412166 341.103835 
L 585.749984 337.553458 
L 591.087801 333.888616 
L 596.425619 333.20652 
L 601.763437 334.167029 
L 607.101254 335.81761 
L 612.439072 337.353569 
L 617.77689 338.071409 
" style="fill:none;stroke:#c8102e;stroke-linecap:round;stroke-width:1.2;"/>
   </g>
   <g id="line2d_14">
    <path clip-path="url(#p05f9c6e051)" d="M 73.319485 304.928062 
L 78.657303 327.617088 
L 83.995121 347.737136 
L 89.332938 356.79753 
L 94.670756 360.568468 
L 100.008574 364.767678 
L 105.346391 368.398263 
L 110.684209 373.034927 
L 116.022027 377.275893 
L 121.359844 380.072889 
L 126.697662 382.945526 
L 132.03548 387.224969 
L 137.373298 389.60506 
L 142.711115 390.867578 
L 148.048933 392.529291 
L 153.386751 394.970377 
L 158.724568 396.691555 
L 164.062386 397.778304 
L 169.400204 398.619763 
L 174.738021 398.932605 
L 180.075839 399.001907 
L 185.413657 398.818487 
L 190.751474 398.895003 
L 196.089292 399.350821 
L 201.42711 399.548233 
L 206.764928 399.355194 
L 212.102745 399.814728 
L 217.440563 400.619679 
L 222.778381 401.317507 
L 228.116198 401.580285 
L 233.454016 401.808959 
L 238.791834 402.316808 
L 244.129651 402.871442 
L 249.467469 403.272605 
L 254.805287 403.824834 
L 260.143104 404.38843 
L 265.480922 405.090193 
L 270.81874 405.851202 
L 276.156558 406.395341 
L 281.494375 406.616801 
L 286.832193 406.648063 
L 292.170011 406.940355 
L 297.507828 407.323374 
L 302.845646 407.487774 
L 308.183464 407.473127 
L 313.521281 407.286865 
L 318.859099 407.319876 
L 324.196917 407.624629 
L 329.534734 407.598613 
L 334.872552 407.695898 
L 340.21037 407.603642 
L 345.548188 407.620694 
L 350.886005 407.882379 
L 356.223823 408.157182 
L 361.561641 408.426956 
L 366.899458 408.761879 
L 372.237276 409.219008 
L 377.575094 409.854749 
L 382.912911 410.714791 
L 388.250729 411.385729 
L 393.588547 411.697696 
L 398.926364 411.709283 
L 404.264182 411.427922 
L 409.602 410.897337 
L 414.939817 408.945299 
L 420.277635 406.964403 
L 425.615453 407.107379 
L 430.953271 406.526731 
L 436.291088 404.713734 
L 441.628906 402.721688 
L 446.966724 400.648974 
L 452.304541 397.778522 
L 457.642359 393.303854 
L 462.980177 389.186844 
L 468.317994 386.169045 
L 473.655812 383.610343 
L 478.99363 382.140357 
L 484.331447 380.434045 
L 489.669265 378.560272 
L 495.007083 376.688904 
L 500.344901 374.691175 
L 505.682718 372.559434 
L 511.020536 367.362889 
L 516.358354 358.599378 
L 521.696171 360.487798 
L 527.033989 366.543947 
L 532.371807 369.084723 
L 537.709624 369.506437 
L 543.047442 369.212177 
L 548.38526 368.326994 
L 553.723077 366.650851 
L 559.060895 365.612854 
L 564.398713 365.290612 
L 569.736531 364.365421 
L 575.074348 363.459032 
L 580.412166 362.022058 
L 585.749984 358.595224 
L 591.087801 355.181289 
L 596.425619 354.942559 
L 601.763437 356.387622 
L 607.101254 358.050647 
L 612.439072 359.096296 
L 617.77689 359.784286 
" style="fill:none;stroke:#00b388;stroke-linecap:round;stroke-width:1.2;"/>
   </g>
   <g id="line2d_15">
    <path clip-path="url(#p05f9c6e051)" d="M 73.319485 356.717366 
L 78.657303 374.323216 
L 83.995121 389.440136 
L 89.332938 395.047991 
L 94.670756 397.091219 
L 100.008574 399.413506 
L 105.346391 400.187729 
L 110.684209 403.135299 
L 116.022027 407.151087 
L 121.359844 410.040398 
L 126.697662 412.890988 
L 132.03548 416.827264 
L 137.373298 419.269886 
L 142.711115 420.33737 
L 148.048933 421.541304 
L 153.386751 423.484416 
L 158.724568 424.971847 
L 164.062386 425.930931 
L 169.400204 426.237093 
L 174.738021 425.941899 
L 180.075839 425.770639 
L 185.413657 425.167486 
L 190.751474 424.593456 
L 196.089292 424.465365 
L 201.42711 424.318365 
L 206.764928 423.818618 
L 212.102745 423.930617 
L 217.440563 424.283398 
L 222.778381 424.438986 
L 228.116198 424.262537 
L 233.454016 424.09464 
L 238.791834 424.10206 
L 244.129651 424.195354 
L 249.467469 424.289143 
L 254.805287 424.541811 
L 260.143104 424.727065 
L 265.480922 425.124211 
L 270.81874 425.491517 
L 276.156558 425.540631 
L 281.494375 425.16415 
L 286.832193 424.746305 
L 292.170011 424.514749 
L 297.507828 424.468687 
L 302.845646 424.498206 
L 308.183464 424.469811 
L 313.521281 423.989594 
L 318.859099 423.568167 
L 324.196917 423.528577 
L 329.534734 423.316382 
L 334.872552 423.159091 
L 340.21037 422.869538 
L 345.548188 422.74904 
L 350.886005 422.838155 
L 356.223823 422.994824 
L 361.561641 423.12049 
L 366.899458 423.123951 
L 372.237276 423.368375 
L 377.575094 423.985409 
L 382.912911 424.703512 
L 388.250729 425.271372 
L 393.588547 425.548904 
L 398.926364 425.47324 
L 404.264182 425.054167 
L 409.602 424.34948 
L 414.939817 422.24923 
L 420.277635 420.288569 
L 425.615453 420.519784 
L 430.953271 419.750825 
L 436.291088 417.773101 
L 441.628906 415.868159 
L 446.966724 414.060432 
L 452.304541 411.540489 
L 457.642359 407.559057 
L 462.980177 404.035606 
L 468.317994 401.748804 
L 473.655812 399.903584 
L 478.99363 399.162532 
L 484.331447 398.150527 
L 489.669265 396.854467 
L 495.007083 395.509326 
L 500.344901 394.171601 
L 505.682718 392.727242 
L 511.020536 387.951353 
L 516.358354 378.618382 
L 521.696171 380.160587 
L 527.033989 386.562892 
L 532.371807 389.328335 
L 537.709624 389.759935 
L 543.047442 389.40799 
L 548.38526 388.458993 
L 553.723077 386.91016 
L 559.060895 386.098397 
L 564.398713 385.858406 
L 569.736531 385.023004 
L 575.074348 384.3413 
L 580.412166 382.94028 
L 585.749984 379.63699 
L 591.087801 376.473962 
L 596.425619 376.678598 
L 601.763437 378.608215 
L 607.101254 380.283685 
L 612.439072 380.839023 
L 617.77689 381.497164 
" style="fill:none;stroke:#f6be00;stroke-linecap:round;stroke-width:1.2;"/>
   </g>
   <g id="patch_8">
    <path d="M 46.096615 434.89201 
L 46.096615 244.483842 
" style="fill:none;stroke:#262626;stroke-linecap:square;stroke-linejoin:miter;"/>
   </g>
   <g id="patch_9">
    <path d="M 644.99976 434.89201 
L 644.99976 244.483842 
" style="fill:none;stroke:#262626;stroke-linecap:square;stroke-linejoin:miter;"/>
   </g>
   <g id="patch_10">
    <path d="M 46.096615 434.89201 
L 644.99976 434.89201 
" style="fill:none;stroke:#262626;stroke-linecap:square;stroke-linejoin:miter;"/>
   </g>
   <g id="patch_11">
    <path d="M 46.096615 244.483842 
L 644.99976 244.483842 
" style="fill:none;stroke:#262626;stroke-linecap:square;stroke-linejoin:miter;"/>
   </g>
  </g>
 </g>
 <defs>
  <clipPath id="p3e3b6daa92">
   <rect height="190.408168" width="598.903145" x="46.096615" y="16.29474"/>
  </clipPath>
  <clipPath id="p05f9c6e051">
   <rect height="190.408168" width="598.903145" x="46.096615" y="244.483842"/>
  </clipPath>
 </defs>
</svg>
