<?xml version="1.0" encoding="utf-8" standalone="no"?>
<!DOCTYPE svg PUBLIC "-//W3C//DTD SVG 1.1//EN"
  "http://www.w3.org/Graphics/SVG/1.1/DTD/svg11.dtd">
<!-- Created with matplotlib (https://matplotlib.org/) -->
<svg height="468pt" version="1.1" viewBox="0 0 648 468" width="648pt" xmlns="http://www.w3.org/2000/svg" xmlns:xlink="http://www.w3.org/1999/xlink">
 <defs>
  <style type="text/css">
*{stroke-linecap:butt;stroke-linejoin:round;}
  </style>
 </defs>
 <g id="figure_1">
  <g id="patch_1">
   <path d="M 0 468 
L 648 468 
L 648 0 
L 0 0 
z
" style="fill:#ffffff;"/>
  </g>
  <g id="axes_1">
   <g id="patch_2">
    <path d="M 46.096615 208.692295 
L 644.99976 208.692295 
L 644.99976 16.29474 
L 46.096615 16.29474 
z
" style="fill:#ffffff;"/>
   </g>
   <g id="matplotlib.axis_1"/>
   <g id="matplotlib.axis_2">
    <g id="ytick_1">
     <g id="text_1">
      <!-- −1.0 -->
      <defs>
       <path d="M 10.59375 35.296875 
L 73.1875 35.296875 
L 73.1875 27.390625 
L 10.59375 27.390625 
z
" id="DejaVuSerif-8722"/>
       <path d="M 14.203125 0 
L 14.203125 5.171875 
L 26.90625 5.171875 
L 26.90625 65.828125 
L 12.203125 56.296875 
L 12.203125 62.703125 
L 29.984375 74.21875 
L 36.71875 74.21875 
L 36.71875 5.171875 
L 49.421875 5.171875 
L 49.421875 0 
z
" id="DejaVuSerif-49"/>
       <path d="M 9.421875 5.078125 
Q 9.421875 7.8125 11.28125 9.71875 
Q 13.140625 11.625 15.921875 11.625 
Q 18.609375 11.625 20.5 9.71875 
Q 22.40625 7.8125 22.40625 5.078125 
Q 22.40625 2.390625 20.5 0.484375 
Q 18.609375 -1.421875 15.921875 -1.421875 
Q 13.140625 -1.421875 11.28125 0.453125 
Q 9.421875 2.34375 9.421875 5.078125 
z
" id="DejaVuSerif-46"/>
       <path d="M 31.78125 3.421875 
Q 39.265625 3.421875 42.96875 11.625 
Q 46.6875 19.828125 46.6875 36.375 
Q 46.6875 52.984375 42.96875 61.1875 
Q 39.265625 69.390625 31.78125 69.390625 
Q 24.3125 69.390625 20.59375 61.1875 
Q 16.890625 52.984375 16.890625 36.375 
Q 16.890625 19.828125 20.59375 11.625 
Q 24.3125 3.421875 31.78125 3.421875 
z
M 31.78125 -1.421875 
Q 19.921875 -1.421875 13.25 8.53125 
Q 6.59375 18.5 6.59375 36.375 
Q 6.59375 54.296875 13.25 64.25 
Q 19.921875 74.21875 31.78125 74.21875 
Q 43.703125 74.21875 50.34375 64.25 
Q 56.984375 54.296875 56.984375 36.375 
Q 56.984375 18.5 50.34375 8.53125 
Q 43.703125 -1.421875 31.78125 -1.421875 
z
" id="DejaVuSerif-48"/>
      </defs>
      <g style="fill:#262626;" transform="translate(16.42774 206.420838)scale(0.088 -0.088)">
       <use xlink:href="#DejaVuSerif-8722"/>
       <use x="83.789062" xlink:href="#DejaVuSerif-49"/>
       <use x="147.412109" xlink:href="#DejaVuSerif-46"/>
       <use x="179.199219" xlink:href="#DejaVuSerif-48"/>
      </g>
     </g>
    </g>
    <g id="ytick_2">
     <g id="text_2">
      <!-- −0.8 -->
      <defs>
       <path d="M 46.578125 19.921875 
Q 46.578125 27.734375 42.6875 32.046875 
Q 38.8125 36.375 31.78125 36.375 
Q 24.75 36.375 20.875 32.046875 
Q 17 27.734375 17 19.921875 
Q 17 12.0625 20.875 7.734375 
Q 24.75 3.421875 31.78125 3.421875 
Q 38.8125 3.421875 42.6875 7.734375 
Q 46.578125 12.0625 46.578125 19.921875 
z
M 44.578125 55.328125 
Q 44.578125 61.96875 41.203125 65.671875 
Q 37.84375 69.390625 31.78125 69.390625 
Q 25.78125 69.390625 22.390625 65.671875 
Q 19 61.96875 19 55.328125 
Q 19 48.640625 22.390625 44.921875 
Q 25.78125 41.21875 31.78125 41.21875 
Q 37.84375 41.21875 41.203125 44.921875 
Q 44.578125 48.640625 44.578125 55.328125 
z
M 39.3125 38.8125 
Q 47.609375 37.703125 52.25 32.6875 
Q 56.890625 27.6875 56.890625 19.921875 
Q 56.890625 9.671875 50.390625 4.125 
Q 43.890625 -1.421875 31.78125 -1.421875 
Q 19.734375 -1.421875 13.203125 4.125 
Q 6.6875 9.671875 6.6875 19.921875 
Q 6.6875 27.6875 11.328125 32.6875 
Q 15.96875 37.703125 24.3125 38.8125 
Q 16.9375 40.140625 13 44.40625 
Q 9.078125 48.6875 9.078125 55.328125 
Q 9.078125 64.109375 15.125 69.15625 
Q 21.1875 74.21875 31.78125 74.21875 
Q 42.390625 74.21875 48.4375 69.15625 
Q 54.5 64.109375 54.5 55.328125 
Q 54.5 48.6875 50.5625 44.40625 
Q 46.625 40.140625 39.3125 38.8125 
z
" id="DejaVuSerif-56"/>
      </defs>
      <g style="fill:#262626;" transform="translate(16.42774 176.918226)scale(0.088 -0.088)">
       <use xlink:href="#DejaVuSerif-8722"/>
       <use x="83.789062" xlink:href="#DejaVuSerif-48"/>
       <use x="147.412109" xlink:href="#DejaVuSerif-46"/>
       <use x="179.199219" xlink:href="#DejaVuSerif-56"/>
      </g>
     </g>
    </g>
    <g id="ytick_3">
     <g id="text_3">
      <!-- −0.6 -->
      <defs>
       <path d="M 32.71875 3.421875 
Q 39.59375 3.421875 43.296875 8.46875 
Q 47.015625 13.53125 47.015625 23 
Q 47.015625 32.46875 43.296875 37.515625 
Q 39.59375 42.578125 32.71875 42.578125 
Q 25.734375 42.578125 22.0625 37.6875 
Q 18.40625 32.8125 18.40625 23.578125 
Q 18.40625 13.875 22.109375 8.640625 
Q 25.828125 3.421875 32.71875 3.421875 
z
M 16.796875 40.140625 
Q 20.125 43.796875 24.3125 45.59375 
Q 28.515625 47.40625 33.796875 47.40625 
Q 44.671875 47.40625 51 40.859375 
Q 57.328125 34.328125 57.328125 23 
Q 57.328125 11.921875 50.515625 5.25 
Q 43.703125 -1.421875 32.328125 -1.421875 
Q 19.96875 -1.421875 13.328125 7.78125 
Q 6.6875 17 6.6875 34.078125 
Q 6.6875 53.21875 14.546875 63.71875 
Q 22.40625 74.21875 36.71875 74.21875 
Q 40.578125 74.21875 44.828125 73.484375 
Q 49.078125 72.75 53.515625 71.296875 
L 53.515625 59.28125 
L 48 59.28125 
Q 47.40625 64.203125 44.234375 66.796875 
Q 41.0625 69.390625 35.6875 69.390625 
Q 26.21875 69.390625 21.578125 62.203125 
Q 16.9375 55.03125 16.796875 40.140625 
z
" id="DejaVuSerif-54"/>
      </defs>
      <g style="fill:#262626;" transform="translate(16.42774 147.415614)scale(0.088 -0.088)">
       <use xlink:href="#DejaVuSerif-8722"/>
       <use x="83.789062" xlink:href="#DejaVuSerif-48"/>
       <use x="147.412109" xlink:href="#DejaVuSerif-46"/>
       <use x="179.199219" xlink:href="#DejaVuSerif-54"/>
      </g>
     </g>
    </g>
    <g id="ytick_4">
     <g id="text_4">
      <!-- −0.4 -->
      <defs>
       <path d="M 34.90625 24.703125 
L 34.90625 63.484375 
L 10.015625 24.703125 
z
M 56.390625 0 
L 23.1875 0 
L 23.1875 5.171875 
L 34.90625 5.171875 
L 34.90625 19.484375 
L 3.078125 19.484375 
L 3.078125 24.8125 
L 35.015625 74.21875 
L 44.671875 74.21875 
L 44.671875 24.703125 
L 58.59375 24.703125 
L 58.59375 19.484375 
L 44.671875 19.484375 
L 44.671875 5.171875 
L 56.390625 5.171875 
z
" id="DejaVuSerif-52"/>
      </defs>
      <g style="fill:#262626;" transform="translate(16.42774 117.913002)scale(0.088 -0.088)">
       <use xlink:href="#DejaVuSerif-8722"/>
       <use x="83.789062" xlink:href="#DejaVuSerif-48"/>
       <use x="147.412109" xlink:href="#DejaVuSerif-46"/>
       <use x="179.199219" xlink:href="#DejaVuSerif-52"/>
      </g>
     </g>
    </g>
    <g id="ytick_5">
     <g id="text_5">
      <!-- −0.2 -->
      <defs>
       <path d="M 12.796875 55.515625 
L 7.328125 55.515625 
L 7.328125 68.5 
Q 12.546875 71.296875 17.84375 72.75 
Q 23.140625 74.21875 28.21875 74.21875 
Q 39.59375 74.21875 46.1875 68.703125 
Q 52.78125 63.1875 52.78125 53.71875 
Q 52.78125 43.015625 37.84375 28.125 
Q 36.671875 27 36.078125 26.421875 
L 17.671875 8.015625 
L 48.09375 8.015625 
L 48.09375 17 
L 53.8125 17 
L 53.8125 0 
L 6.78125 0 
L 6.78125 5.328125 
L 28.90625 27.390625 
Q 36.234375 34.71875 39.359375 40.84375 
Q 42.484375 46.96875 42.484375 53.71875 
Q 42.484375 61.078125 38.640625 65.234375 
Q 34.8125 69.390625 28.078125 69.390625 
Q 21.09375 69.390625 17.28125 65.921875 
Q 13.484375 62.453125 12.796875 55.515625 
z
" id="DejaVuSerif-50"/>
      </defs>
      <g style="fill:#262626;" transform="translate(16.42774 88.41039)scale(0.088 -0.088)">
       <use xlink:href="#DejaVuSerif-8722"/>
       <use x="83.789062" xlink:href="#DejaVuSerif-48"/>
       <use x="147.412109" xlink:href="#DejaVuSerif-46"/>
       <use x="179.199219" xlink:href="#DejaVuSerif-50"/>
      </g>
     </g>
    </g>
    <g id="ytick_6">
     <g id="text_6">
      <!-- 0.0 -->
      <g style="fill:#262626;" transform="translate(23.801865 58.907778)scale(0.088 -0.088)">
       <use xlink:href="#DejaVuSerif-48"/>
       <use x="63.623047" xlink:href="#DejaVuSerif-46"/>
       <use x="95.410156" xlink:href="#DejaVuSerif-48"/>
      </g>
     </g>
    </g>
    <g id="ytick_7">
     <g id="text_7">
      <!-- 0.2 -->
      <g style="fill:#262626;" transform="translate(23.801865 29.405166)scale(0.088 -0.088)">
       <use xlink:href="#DejaVuSerif-48"/>
       <use x="63.623047" xlink:href="#DejaVuSerif-46"/>
       <use x="95.410156" xlink:href="#DejaVuSerif-50"/>
      </g>
     </g>
    </g>
    <g id="text_8">
     <!-- Scaled Intensity -->
     <defs>
      <path d="M 9.28125 3.515625 
L 9.28125 20.125 
L 14.890625 20.0625 
Q 15.140625 11.765625 19.703125 7.78125 
Q 24.265625 3.8125 33.59375 3.8125 
Q 42.28125 3.8125 46.84375 7.25 
Q 51.421875 10.6875 51.421875 17.28125 
Q 51.421875 22.5625 48.65625 25.390625 
Q 45.90625 28.21875 37.015625 30.90625 
L 27.390625 33.796875 
Q 16.9375 36.96875 12.671875 41.703125 
Q 8.40625 46.4375 8.40625 54.6875 
Q 8.40625 63.96875 14.984375 69.09375 
Q 21.578125 74.21875 33.5 74.21875 
Q 38.578125 74.21875 44.625 73.109375 
Q 50.6875 72.015625 57.515625 69.921875 
L 57.515625 54.390625 
L 52 54.390625 
Q 51.171875 62.109375 46.84375 65.546875 
Q 42.53125 69 33.6875 69 
Q 25.984375 69 21.953125 65.84375 
Q 17.921875 62.703125 17.921875 56.6875 
Q 17.921875 51.46875 20.9375 48.484375 
Q 23.96875 45.515625 33.796875 42.578125 
L 42.828125 39.890625 
Q 52.734375 36.921875 56.953125 32.296875 
Q 61.1875 27.6875 61.1875 19.921875 
Q 61.1875 9.328125 54.390625 3.953125 
Q 47.609375 -1.421875 34.1875 -1.421875 
Q 28.171875 -1.421875 21.9375 -0.1875 
Q 15.71875 1.03125 9.28125 3.515625 
z
" id="DejaVuSerif-83"/>
      <path d="M 51.421875 15.578125 
Q 49.515625 7.28125 44.09375 2.921875 
Q 38.671875 -1.421875 30.078125 -1.421875 
Q 18.75 -1.421875 11.859375 6.078125 
Q 4.984375 13.578125 4.984375 25.984375 
Q 4.984375 38.421875 11.859375 45.875 
Q 18.75 53.328125 30.078125 53.328125 
Q 35.015625 53.328125 39.890625 52.171875 
Q 44.78125 51.03125 49.703125 48.6875 
L 49.703125 35.40625 
L 44.484375 35.40625 
Q 43.453125 42.234375 40.015625 45.359375 
Q 36.578125 48.484375 30.171875 48.484375 
Q 22.90625 48.484375 19.1875 42.84375 
Q 15.484375 37.203125 15.484375 25.984375 
Q 15.484375 14.75 19.171875 9.078125 
Q 22.859375 3.421875 30.171875 3.421875 
Q 35.984375 3.421875 39.453125 6.4375 
Q 42.921875 9.46875 44.1875 15.578125 
z
" id="DejaVuSerif-99"/>
      <path d="M 39.796875 16.3125 
L 39.796875 27.296875 
L 28.21875 27.296875 
Q 21.53125 27.296875 18.25 24.40625 
Q 14.984375 21.53125 14.984375 15.578125 
Q 14.984375 10.15625 18.296875 6.984375 
Q 21.625 3.8125 27.296875 3.8125 
Q 32.90625 3.8125 36.34375 7.28125 
Q 39.796875 10.75 39.796875 16.3125 
z
M 48.78125 32.421875 
L 48.78125 5.171875 
L 56.78125 5.171875 
L 56.78125 0 
L 39.796875 0 
L 39.796875 5.609375 
Q 36.8125 2 32.90625 0.28125 
Q 29 -1.421875 23.78125 -1.421875 
Q 15.140625 -1.421875 10.0625 3.171875 
Q 4.984375 7.765625 4.984375 15.578125 
Q 4.984375 23.640625 10.796875 28.078125 
Q 16.609375 32.515625 27.203125 32.515625 
L 39.796875 32.515625 
L 39.796875 36.078125 
Q 39.796875 42 36.203125 45.234375 
Q 32.625 48.484375 26.125 48.484375 
Q 20.75 48.484375 17.578125 46.046875 
Q 14.40625 43.609375 13.625 38.8125 
L 8.984375 38.8125 
L 8.984375 49.3125 
Q 13.671875 51.3125 18.09375 52.3125 
Q 22.515625 53.328125 26.703125 53.328125 
Q 37.5 53.328125 43.140625 47.96875 
Q 48.78125 42.625 48.78125 32.421875 
z
" id="DejaVuSerif-97"/>
      <path d="M 20.515625 5.171875 
L 29 5.171875 
L 29 0 
L 2.875 0 
L 2.875 5.171875 
L 11.53125 5.171875 
L 11.53125 70.796875 
L 2.875 70.796875 
L 2.875 75.984375 
L 20.515625 75.984375 
z
" id="DejaVuSerif-108"/>
      <path d="M 54.203125 25 
L 15.484375 25 
L 15.484375 24.609375 
Q 15.484375 14.109375 19.4375 8.765625 
Q 23.390625 3.421875 31.109375 3.421875 
Q 37.015625 3.421875 40.796875 6.515625 
Q 44.578125 9.625 46.09375 15.71875 
L 53.328125 15.71875 
Q 51.171875 7.171875 45.375 2.875 
Q 39.59375 -1.421875 30.171875 -1.421875 
Q 18.796875 -1.421875 11.890625 6.078125 
Q 4.984375 13.578125 4.984375 25.984375 
Q 4.984375 38.28125 11.765625 45.796875 
Q 18.5625 53.328125 29.59375 53.328125 
Q 41.359375 53.328125 47.65625 46.0625 
Q 53.953125 38.8125 54.203125 25 
z
M 43.609375 30.171875 
Q 43.3125 39.265625 39.765625 43.875 
Q 36.234375 48.484375 29.59375 48.484375 
Q 23.390625 48.484375 19.828125 43.84375 
Q 16.265625 39.203125 15.484375 30.171875 
z
" id="DejaVuSerif-101"/>
      <path d="M 52.484375 5.171875 
L 61.078125 5.171875 
L 61.078125 0 
L 43.5 0 
L 43.5 8.109375 
Q 40.875 3.21875 36.796875 0.890625 
Q 32.71875 -1.421875 26.703125 -1.421875 
Q 17.140625 -1.421875 11.0625 6.171875 
Q 4.984375 13.765625 4.984375 25.984375 
Q 4.984375 38.1875 11.03125 45.75 
Q 17.09375 53.328125 26.703125 53.328125 
Q 32.71875 53.328125 36.796875 51 
Q 40.875 48.6875 43.5 43.796875 
L 43.5 70.796875 
L 35.015625 70.796875 
L 35.015625 75.984375 
L 52.484375 75.984375 
z
M 43.5 23.390625 
L 43.5 28.515625 
Q 43.5 37.84375 39.90625 42.765625 
Q 36.328125 47.703125 29.5 47.703125 
Q 22.5625 47.703125 19.015625 42.234375 
Q 15.484375 36.765625 15.484375 25.984375 
Q 15.484375 15.234375 19.015625 9.71875 
Q 22.5625 4.203125 29.5 4.203125 
Q 36.328125 4.203125 39.90625 9.109375 
Q 43.5 14.015625 43.5 23.390625 
z
" id="DejaVuSerif-100"/>
      <path id="DejaVuSerif-32"/>
      <path d="M 24.703125 5.171875 
L 33.984375 5.171875 
L 33.984375 0 
L 5.515625 0 
L 5.515625 5.171875 
L 14.796875 5.171875 
L 14.796875 67.671875 
L 5.515625 67.671875 
L 5.515625 72.90625 
L 33.984375 72.90625 
L 33.984375 67.671875 
L 24.703125 67.671875 
z
" id="DejaVuSerif-73"/>
      <path d="M 4.109375 0 
L 4.109375 5.171875 
L 12.203125 5.171875 
L 12.203125 46.6875 
L 3.609375 46.6875 
L 3.609375 51.90625 
L 21.1875 51.90625 
L 21.1875 42.671875 
Q 23.6875 47.953125 27.65625 50.640625 
Q 31.640625 53.328125 36.921875 53.328125 
Q 45.515625 53.328125 49.5625 48.390625 
Q 53.609375 43.453125 53.609375 33.015625 
L 53.609375 5.171875 
L 61.625 5.171875 
L 61.625 0 
L 36.8125 0 
L 36.8125 5.171875 
L 44.578125 5.171875 
L 44.578125 30.171875 
Q 44.578125 39.703125 42.234375 43.234375 
Q 39.890625 46.78125 33.984375 46.78125 
Q 27.734375 46.78125 24.453125 42.203125 
Q 21.1875 37.640625 21.1875 28.90625 
L 21.1875 5.171875 
L 29 5.171875 
L 29 0 
z
" id="DejaVuSerif-110"/>
      <path d="M 10.796875 46.6875 
L 2.875 46.6875 
L 2.875 51.90625 
L 10.796875 51.90625 
L 10.796875 68.015625 
L 19.828125 68.015625 
L 19.828125 51.90625 
L 36.71875 51.90625 
L 36.71875 46.6875 
L 19.828125 46.6875 
L 19.828125 13.71875 
Q 19.828125 7.125 21.09375 5.265625 
Q 22.359375 3.421875 25.78125 3.421875 
Q 29.296875 3.421875 30.90625 5.484375 
Q 32.515625 7.5625 32.625 12.203125 
L 39.40625 12.203125 
Q 39.015625 5.125 35.546875 1.84375 
Q 32.078125 -1.421875 25 -1.421875 
Q 17.234375 -1.421875 14.015625 2.015625 
Q 10.796875 5.46875 10.796875 13.71875 
z
" id="DejaVuSerif-116"/>
      <path d="M 5.609375 2.875 
L 5.609375 14.984375 
L 10.796875 14.984375 
Q 10.984375 9.1875 14.421875 6.296875 
Q 17.875 3.421875 24.609375 3.421875 
Q 30.671875 3.421875 33.84375 5.6875 
Q 37.015625 7.953125 37.015625 12.3125 
Q 37.015625 15.71875 34.6875 17.8125 
Q 32.375 19.921875 24.90625 22.3125 
L 18.40625 24.515625 
Q 11.71875 26.65625 8.71875 29.875 
Q 5.71875 33.109375 5.71875 38.09375 
Q 5.71875 45.21875 10.9375 49.265625 
Q 16.15625 53.328125 25.390625 53.328125 
Q 29.5 53.328125 34.03125 52.25 
Q 38.578125 51.171875 43.40625 49.125 
L 43.40625 37.796875 
L 38.234375 37.796875 
Q 38.03125 42.828125 34.703125 45.65625 
Q 31.390625 48.484375 25.6875 48.484375 
Q 20.015625 48.484375 17.109375 46.484375 
Q 14.203125 44.484375 14.203125 40.484375 
Q 14.203125 37.203125 16.40625 35.21875 
Q 18.609375 33.25 25.203125 31.203125 
L 32.328125 29 
Q 39.703125 26.703125 42.9375 23.265625 
Q 46.1875 19.828125 46.1875 14.40625 
Q 46.1875 7.03125 40.546875 2.796875 
Q 34.90625 -1.421875 25 -1.421875 
Q 19.96875 -1.421875 15.1875 -0.34375 
Q 10.40625 0.734375 5.609375 2.875 
z
" id="DejaVuSerif-115"/>
      <path d="M 9.71875 68.015625 
Q 9.71875 70.265625 11.34375 71.921875 
Q 12.984375 73.578125 15.28125 73.578125 
Q 17.53125 73.578125 19.15625 71.921875 
Q 20.796875 70.265625 20.796875 68.015625 
Q 20.796875 65.71875 19.1875 64.109375 
Q 17.578125 62.5 15.28125 62.5 
Q 12.984375 62.5 11.34375 64.109375 
Q 9.71875 65.71875 9.71875 68.015625 
z
M 21.1875 5.171875 
L 29.6875 5.171875 
L 29.6875 0 
L 3.609375 0 
L 3.609375 5.171875 
L 12.203125 5.171875 
L 12.203125 46.6875 
L 3.609375 46.6875 
L 3.609375 51.90625 
L 21.1875 51.90625 
z
" id="DejaVuSerif-105"/>
      <path d="M 21.578125 -9.515625 
L 25 -0.875 
L 5.609375 46.6875 
L -0.296875 46.6875 
L -0.296875 51.90625 
L 23.578125 51.90625 
L 23.578125 46.6875 
L 15.28125 46.6875 
L 29.890625 10.984375 
L 44.484375 46.6875 
L 36.71875 46.6875 
L 36.71875 51.90625 
L 56.203125 51.90625 
L 56.203125 46.6875 
L 50.390625 46.6875 
L 26.609375 -11.71875 
Q 24.171875 -17.78125 21.1875 -20 
Q 18.21875 -22.21875 12.796875 -22.21875 
Q 10.5 -22.21875 8.078125 -21.828125 
Q 5.671875 -21.4375 3.21875 -20.703125 
L 3.21875 -10.796875 
L 7.8125 -10.796875 
Q 8.109375 -14.109375 9.5 -15.546875 
Q 10.890625 -17 13.8125 -17 
Q 16.5 -17 18.140625 -15.5 
Q 19.78125 -14.015625 21.578125 -9.515625 
z
" id="DejaVuSerif-121"/>
     </defs>
     <g style="fill:#262626;" transform="translate(10.29474 151.794267)rotate(-90)scale(0.096 -0.096)">
      <use xlink:href="#DejaVuSerif-83"/>
      <use x="68.505859" xlink:href="#DejaVuSerif-99"/>
      <use x="124.511719" xlink:href="#DejaVuSerif-97"/>
      <use x="184.130859" xlink:href="#DejaVuSerif-108"/>
      <use x="216.113281" xlink:href="#DejaVuSerif-101"/>
      <use x="275.292969" xlink:href="#DejaVuSerif-100"/>
      <use x="339.306641" xlink:href="#DejaVuSerif-32"/>
      <use x="371.09375" xlink:href="#DejaVuSerif-73"/>
      <use x="410.595703" xlink:href="#DejaVuSerif-110"/>
      <use x="475" xlink:href="#DejaVuSerif-116"/>
      <use x="515.185547" xlink:href="#DejaVuSerif-101"/>
      <use x="574.365234" xlink:href="#DejaVuSerif-110"/>
      <use x="638.769531" xlink:href="#DejaVuSerif-115"/>
      <use x="690.087891" xlink:href="#DejaVuSerif-105"/>
      <use x="722.070312" xlink:href="#DejaVuSerif-116"/>
      <use x="762.255859" xlink:href="#DejaVuSerif-121"/>
     </g>
    </g>
   </g>
   <g id="line2d_1">
    <path clip-path="url(#p17bc3d1499)" d="M 73.319485 49.491458 
L 78.657303 72.450779 
L 83.995121 84.399194 
L 89.332938 81.8175 
L 94.670756 109.873447 
L 100.008574 135.581291 
L 105.346391 129.273543 
L 110.684209 135.261263 
L 116.022027 136.251426 
L 121.359844 138.190516 
L 126.697662 136.617369 
L 132.03548 148.170376 
L 137.373298 142.046108 
L 142.711115 148.365102 
L 148.048933 150.276496 
L 153.386751 142.873075 
L 158.724568 140.713487 
L 164.062386 140.095966 
L 169.400204 146.123376 
L 174.738021 142.45043 
L 180.075839 150.225447 
L 185.413657 137.538705 
L 190.751474 134.790647 
L 196.089292 137.84463 
L 201.42711 134.444575 
L 206.764928 132.818928 
L 212.102745 139.449228 
L 217.440563 134.676775 
L 222.778381 137.914732 
L 228.116198 135.383848 
L 233.454016 124.563438 
L 238.791834 137.345482 
L 244.129651 129.843708 
L 249.467469 130.751336 
L 254.805287 126.821782 
L 260.143104 111.362222 
L 265.480922 112.886479 
L 270.81874 93.42768 
L 276.156558 96.85198 
L 281.494375 114.710999 
L 286.832193 105.984483 
L 292.170011 99.981864 
L 297.507828 93.453521 
L 302.845646 96.697395 
L 308.183464 92.396838 
L 313.521281 85.978133 
L 318.859099 84.942953 
L 324.196917 78.385463 
L 329.534734 76.948542 
L 334.872552 96.132835 
L 340.21037 87.946309 
L 345.548188 97.639789 
L 350.886005 94.244926 
L 356.223823 82.993479 
L 361.561641 79.504218 
L 366.899458 90.138732 
L 372.237276 87.79057 
L 377.575094 85.475068 
L 382.912911 101.652071 
L 388.250729 90.811447 
L 393.588547 102.03013 
L 398.926364 93.85291 
L 404.264182 107.708725 
L 409.602 106.380509 
L 414.939817 97.323876 
L 420.277635 108.688104 
L 425.615453 114.14705 
L 430.953271 106.619804 
L 436.291088 105.483686 
L 441.628906 90.574066 
L 446.966724 93.630496 
L 452.304541 103.251693 
L 457.642359 94.391888 
L 462.980177 88.844395 
L 468.317994 101.560208 
L 473.655812 95.689502 
L 478.99363 75.490694 
L 484.331447 84.308919 
L 489.669265 62.025348 
L 495.007083 53.918117 
L 500.344901 59.27838 
L 505.682718 42.639738 
L 511.020536 27.678809 
L 516.358354 26.331855 
L 521.696171 44.246734 
L 527.033989 62.730768 
L 532.371807 66.497868 
L 537.709624 53.711212 
L 543.047442 70.808923 
L 548.38526 72.06457 
L 553.723077 77.308021 
L 559.060895 73.80768 
L 564.398713 74.148722 
L 569.736531 53.723381 
L 575.074348 51.553893 
L 580.412166 35.193974 
L 585.749984 33.8514 
L 591.087801 52.375228 
L 596.425619 25.040083 
L 601.763437 26.391547 
L 607.101254 32.052616 
L 612.439072 40.301294 
L 617.77689 56.153185 
" style="fill:none;stroke:#c8102e;stroke-linecap:round;stroke-width:1.2;"/>
   </g>
   <g id="line2d_2">
    <path clip-path="url(#p17bc3d1499)" d="M 73.319485 90.852275 
L 78.657303 113.29164 
L 83.995121 114.104301 
L 89.332938 120.603747 
L 94.670756 144.18142 
L 100.008574 148.728134 
L 105.346391 148.809896 
L 110.684209 156.274469 
L 116.022027 159.901703 
L 121.359844 157.414385 
L 126.697662 155.929118 
L 132.03548 169.531824 
L 137.373298 167.611752 
L 142.711115 170.860875 
L 148.048933 170.625888 
L 153.386751 162.323059 
L 158.724568 160.852625 
L 164.062386 170.021459 
L 169.400204 170.971414 
L 174.738021 169.088174 
L 180.075839 170.405795 
L 185.413657 156.432302 
L 190.751474 165.160853 
L 196.089292 165.640895 
L 201.42711 158.209347 
L 206.764928 163.120606 
L 212.102745 164.004099 
L 217.440563 165.858984 
L 222.778381 166.248674 
L 228.116198 166.952599 
L 233.454016 155.017973 
L 238.791834 164.213509 
L 244.129651 159.793089 
L 249.467469 162.311488 
L 254.805287 156.222628 
L 260.143104 140.175099 
L 265.480922 145.698489 
L 270.81874 128.271703 
L 276.156558 136.44829 
L 281.494375 149.320017 
L 286.832193 140.079859 
L 292.170011 135.098269 
L 297.507828 122.299013 
L 302.845646 129.899153 
L 308.183464 123.684394 
L 313.521281 124.580086 
L 318.859099 122.802123 
L 324.196917 116.195382 
L 329.534734 115.616935 
L 334.872552 135.584122 
L 340.21037 132.21325 
L 345.548188 133.657298 
L 350.886005 137.496061 
L 356.223823 118.986514 
L 361.561641 116.180888 
L 366.899458 124.688198 
L 372.237276 123.583531 
L 377.575094 122.589565 
L 382.912911 137.811544 
L 388.250729 131.916593 
L 393.588547 140.457653 
L 398.926364 128.396613 
L 404.264182 140.623672 
L 409.602 133.777922 
L 414.939817 127.20217 
L 420.277635 136.638972 
L 425.615453 145.892002 
L 430.953271 137.172648 
L 436.291088 132.317265 
L 441.628906 116.815607 
L 446.966724 122.604393 
L 452.304541 130.972818 
L 457.642359 121.614168 
L 462.980177 120.909773 
L 468.317994 135.575752 
L 473.655812 131.191654 
L 478.99363 111.6374 
L 484.331447 122.628089 
L 489.669265 102.997371 
L 495.007083 93.34478 
L 500.344901 99.265058 
L 505.682718 85.316514 
L 511.020536 74.037979 
L 516.358354 66.273147 
L 521.696171 81.797007 
L 527.033989 99.309957 
L 532.371807 108.209746 
L 537.709624 95.466358 
L 543.047442 113.496038 
L 548.38526 121.20087 
L 553.723077 119.769527 
L 559.060895 115.997582 
L 564.398713 116.881423 
L 569.736531 92.708782 
L 575.074348 95.557901 
L 580.412166 75.676459 
L 585.749984 77.190249 
L 591.087801 94.271559 
L 596.425619 74.355297 
L 601.763437 77.064286 
L 607.101254 86.858644 
L 612.439072 87.930074 
L 617.77689 91.176293 
" style="fill:none;stroke:#00b388;stroke-linecap:round;stroke-width:1.2;"/>
   </g>
   <g id="line2d_3">
    <path clip-path="url(#p17bc3d1499)" d="M 73.319485 132.213092 
L 78.657303 154.132501 
L 83.995121 143.809411 
L 89.332938 159.38999 
L 94.670756 178.489393 
L 100.008574 161.874978 
L 105.346391 168.346248 
L 110.684209 177.287674 
L 116.022027 183.551979 
L 121.359844 176.638254 
L 126.697662 175.240867 
L 132.03548 190.893273 
L 137.373298 193.177396 
L 142.711115 193.356648 
L 148.048933 190.97528 
L 153.386751 181.773044 
L 158.724568 180.991763 
L 164.062386 199.946951 
L 169.400204 195.819453 
L 174.738021 195.725918 
L 180.075839 190.586143 
L 185.413657 175.325899 
L 190.751474 195.53106 
L 196.089292 193.437161 
L 201.42711 181.974118 
L 206.764928 193.422284 
L 212.102745 188.55897 
L 217.440563 197.041192 
L 222.778381 194.582617 
L 228.116198 198.52135 
L 233.454016 185.472508 
L 238.791834 191.081537 
L 244.129651 189.742471 
L 249.467469 193.87164 
L 254.805287 185.623474 
L 260.143104 168.987975 
L 265.480922 178.510503 
L 270.81874 163.115726 
L 276.156558 176.044604 
L 281.494375 183.929035 
L 286.832193 174.175238 
L 292.170011 170.214673 
L 297.507828 151.144506 
L 302.845646 163.100911 
L 308.183464 154.971953 
L 313.521281 163.182039 
L 318.859099 160.661292 
L 324.196917 154.005301 
L 329.534734 154.285332 
L 334.872552 175.035405 
L 340.21037 176.480192 
L 345.548188 169.674807 
L 350.886005 180.747201 
L 356.223823 154.97955 
L 361.561641 152.857559 
L 366.899458 159.237669 
L 372.237276 159.376494 
L 377.575094 159.704057 
L 382.912911 173.971016 
L 388.250729 173.021738 
L 393.588547 178.885177 
L 398.926364 162.940316 
L 404.264182 173.53862 
L 409.602 161.175335 
L 414.939817 157.080465 
L 420.277635 164.589835 
L 425.615453 177.636954 
L 430.953271 167.725492 
L 436.291088 159.150844 
L 441.628906 143.057145 
L 446.966724 151.578291 
L 452.304541 158.693943 
L 457.642359 148.836449 
L 462.980177 152.975149 
L 468.317994 169.591296 
L 473.655812 166.693802 
L 478.99363 147.784105 
L 484.331447 160.947258 
L 489.669265 143.969398 
L 495.007083 132.77144 
L 500.344901 139.251732 
L 505.682718 127.99329 
L 511.020536 120.397146 
L 516.358354 106.214437 
L 521.696171 119.347282 
L 527.033989 135.889142 
L 532.371807 149.921623 
L 537.709624 137.221499 
L 543.047442 156.18315 
L 548.38526 170.33717 
L 553.723077 162.231028 
L 559.060895 158.18748 
L 564.398713 159.614128 
L 569.736531 131.694187 
L 575.074348 139.561912 
L 580.412166 116.158942 
L 585.749984 120.529095 
L 591.087801 136.167889 
L 596.425619 123.67051 
L 601.763437 127.737025 
L 607.101254 141.664674 
L 612.439072 135.558853 
L 617.77689 126.199399 
" style="fill:none;stroke:#f6be00;stroke-linecap:round;stroke-width:1.2;"/>
   </g>
   <g id="line2d_4"/>
   <g id="line2d_5"/>
   <g id="line2d_6"/>
   <g id="patch_3">
    <path d="M 46.096615 208.692295 
L 46.096615 16.29474 
" style="fill:none;stroke:#262626;stroke-linecap:square;stroke-linejoin:miter;"/>
   </g>
   <g id="patch_4">
    <path d="M 644.99976 208.692295 
L 644.99976 16.29474 
" style="fill:none;stroke:#262626;stroke-linecap:square;stroke-linejoin:miter;"/>
   </g>
   <g id="patch_5">
    <path d="M 46.096615 208.692295 
L 644.99976 208.692295 
" style="fill:none;stroke:#262626;stroke-linecap:square;stroke-linejoin:miter;"/>
   </g>
   <g id="patch_6">
    <path d="M 46.096615 16.29474 
L 644.99976 16.29474 
" style="fill:none;stroke:#262626;stroke-linecap:square;stroke-linejoin:miter;"/>
   </g>
   <g id="text_9">
    <!-- Shadows Generated Samples -->
    <defs>
     <path d="M 4.109375 0 
L 4.109375 5.171875 
L 12.203125 5.171875 
L 12.203125 70.796875 
L 3.609375 70.796875 
L 3.609375 75.984375 
L 21.1875 75.984375 
L 21.1875 42.671875 
Q 23.6875 47.953125 27.65625 50.640625 
Q 31.640625 53.328125 36.921875 53.328125 
Q 45.515625 53.328125 49.5625 48.390625 
Q 53.609375 43.453125 53.609375 33.015625 
L 53.609375 5.171875 
L 61.625 5.171875 
L 61.625 0 
L 36.8125 0 
L 36.8125 5.171875 
L 44.578125 5.171875 
L 44.578125 30.171875 
Q 44.578125 39.703125 42.25 43.1875 
Q 39.9375 46.6875 33.984375 46.6875 
Q 27.734375 46.6875 24.453125 42.140625 
Q 21.1875 37.59375 21.1875 28.90625 
L 21.1875 5.171875 
L 29 5.171875 
L 29 0 
z
" id="DejaVuSerif-104"/>
     <path d="M 30.078125 3.421875 
Q 37.3125 3.421875 40.984375 9.125 
Q 44.671875 14.84375 44.671875 25.984375 
Q 44.671875 37.109375 40.984375 42.796875 
Q 37.3125 48.484375 30.078125 48.484375 
Q 22.859375 48.484375 19.171875 42.796875 
Q 15.484375 37.109375 15.484375 25.984375 
Q 15.484375 14.84375 19.1875 9.125 
Q 22.90625 3.421875 30.078125 3.421875 
z
M 30.078125 -1.421875 
Q 18.75 -1.421875 11.859375 6.078125 
Q 4.984375 13.578125 4.984375 25.984375 
Q 4.984375 38.375 11.84375 45.84375 
Q 18.703125 53.328125 30.078125 53.328125 
Q 41.453125 53.328125 48.3125 45.84375 
Q 55.171875 38.375 55.171875 25.984375 
Q 55.171875 13.578125 48.3125 6.078125 
Q 41.453125 -1.421875 30.078125 -1.421875 
z
" id="DejaVuSerif-111"/>
     <path d="M 48 51.90625 
L 61.28125 11.375 
L 73 46.6875 
L 65.484375 46.6875 
L 65.484375 51.90625 
L 84.28125 51.90625 
L 84.28125 46.6875 
L 78.515625 46.6875 
L 63.09375 0 
L 55.609375 0 
L 42.828125 38.8125 
L 29.984375 0 
L 22.796875 0 
L 7.421875 46.6875 
L 1.609375 46.6875 
L 1.609375 51.90625 
L 25.09375 51.90625 
L 25.09375 46.6875 
L 16.703125 46.6875 
L 28.328125 11.375 
L 41.703125 51.90625 
z
" id="DejaVuSerif-119"/>
     <path d="M 64.015625 51.125 
Q 62.3125 60.25 56.890625 64.625 
Q 51.46875 69 41.796875 69 
Q 29.203125 69 23 60.890625 
Q 16.796875 52.78125 16.796875 36.375 
Q 16.796875 20.3125 23.1875 12.0625 
Q 29.59375 3.8125 42 3.8125 
Q 47.515625 3.8125 52.53125 5.171875 
Q 57.5625 6.546875 62.109375 9.28125 
L 62.109375 28.078125 
L 48.390625 28.078125 
L 48.390625 33.296875 
L 72.015625 33.296875 
L 72.015625 6.109375 
Q 65.53125 2.34375 58.03125 0.453125 
Q 50.53125 -1.421875 42 -1.421875 
Q 25.484375 -1.421875 15.546875 8.90625 
Q 5.609375 19.234375 5.609375 36.375 
Q 5.609375 53.65625 15.5625 63.9375 
Q 25.53125 74.21875 42.390625 74.21875 
Q 48.640625 74.21875 55.296875 72.78125 
Q 61.96875 71.34375 69.484375 68.40625 
L 69.484375 51.125 
z
" id="DejaVuSerif-71"/>
     <path d="M 47.796875 52 
L 47.796875 39.015625 
L 42.625 39.015625 
Q 42.390625 42.875 40.484375 44.78125 
Q 38.578125 46.6875 34.90625 46.6875 
Q 28.265625 46.6875 24.71875 42.09375 
Q 21.1875 37.5 21.1875 28.90625 
L 21.1875 5.171875 
L 31.59375 5.171875 
L 31.59375 0 
L 4.109375 0 
L 4.109375 5.171875 
L 12.203125 5.171875 
L 12.203125 46.78125 
L 3.609375 46.78125 
L 3.609375 51.90625 
L 21.1875 51.90625 
L 21.1875 42.671875 
Q 23.828125 48.09375 27.96875 50.703125 
Q 32.125 53.328125 38.09375 53.328125 
Q 40.28125 53.328125 42.703125 52.984375 
Q 45.125 52.640625 47.796875 52 
z
" id="DejaVuSerif-114"/>
     <path d="M 51.8125 41.796875 
Q 54.390625 47.515625 58.421875 50.421875 
Q 62.453125 53.328125 67.828125 53.328125 
Q 75.984375 53.328125 79.984375 48.265625 
Q 83.984375 43.21875 83.984375 33.015625 
L 83.984375 5.171875 
L 92.09375 5.171875 
L 92.09375 0 
L 67.1875 0 
L 67.1875 5.171875 
L 75 5.171875 
L 75 31.984375 
Q 75 39.9375 72.65625 43.3125 
Q 70.3125 46.6875 64.890625 46.6875 
Q 58.890625 46.6875 55.734375 42.140625 
Q 52.59375 37.59375 52.59375 28.90625 
L 52.59375 5.171875 
L 60.40625 5.171875 
L 60.40625 0 
L 35.796875 0 
L 35.796875 5.171875 
L 43.609375 5.171875 
L 43.609375 32.328125 
Q 43.609375 40.09375 41.265625 43.390625 
Q 38.921875 46.6875 33.5 46.6875 
Q 27.484375 46.6875 24.328125 42.140625 
Q 21.1875 37.59375 21.1875 28.90625 
L 21.1875 5.171875 
L 29 5.171875 
L 29 0 
L 4.109375 0 
L 4.109375 5.171875 
L 12.203125 5.171875 
L 12.203125 46.78125 
L 3.609375 46.78125 
L 3.609375 51.90625 
L 21.1875 51.90625 
L 21.1875 42.671875 
Q 23.6875 47.859375 27.53125 50.59375 
Q 31.390625 53.328125 36.28125 53.328125 
Q 42.328125 53.328125 46.375 50.3125 
Q 50.4375 47.3125 51.8125 41.796875 
z
" id="DejaVuSerif-109"/>
     <path d="M 20.515625 28.515625 
L 20.515625 23.390625 
Q 20.515625 14.015625 24.09375 9.109375 
Q 27.6875 4.203125 34.515625 4.203125 
Q 41.40625 4.203125 44.9375 9.71875 
Q 48.484375 15.234375 48.484375 25.984375 
Q 48.484375 36.765625 44.9375 42.234375 
Q 41.40625 47.703125 34.515625 47.703125 
Q 27.6875 47.703125 24.09375 42.765625 
Q 20.515625 37.84375 20.515625 28.515625 
z
M 11.53125 46.6875 
L 2.875 46.6875 
L 2.875 51.90625 
L 20.515625 51.90625 
L 20.515625 43.796875 
Q 23.140625 48.6875 27.21875 51 
Q 31.296875 53.328125 37.3125 53.328125 
Q 46.875 53.328125 52.921875 45.75 
Q 58.984375 38.1875 58.984375 25.984375 
Q 58.984375 13.765625 52.921875 6.171875 
Q 46.875 -1.421875 37.3125 -1.421875 
Q 31.296875 -1.421875 27.21875 0.890625 
Q 23.140625 3.21875 20.515625 8.109375 
L 20.515625 -15.578125 
L 29 -15.578125 
L 29 -20.796875 
L 2.875 -20.796875 
L 2.875 -15.578125 
L 11.53125 -15.578125 
z
" id="DejaVuSerif-112"/>
    </defs>
    <g style="fill:#262626;" transform="translate(274.500687 10.29474)scale(0.096 -0.096)">
     <use xlink:href="#DejaVuSerif-83"/>
     <use x="68.505859" xlink:href="#DejaVuSerif-104"/>
     <use x="132.910156" xlink:href="#DejaVuSerif-97"/>
     <use x="192.529297" xlink:href="#DejaVuSerif-100"/>
     <use x="256.542969" xlink:href="#DejaVuSerif-111"/>
     <use x="316.748047" xlink:href="#DejaVuSerif-119"/>
     <use x="402.34375" xlink:href="#DejaVuSerif-115"/>
     <use x="453.662109" xlink:href="#DejaVuSerif-32"/>
     <use x="485.449219" xlink:href="#DejaVuSerif-71"/>
     <use x="565.332031" xlink:href="#DejaVuSerif-101"/>
     <use x="624.511719" xlink:href="#DejaVuSerif-110"/>
     <use x="688.916016" xlink:href="#DejaVuSerif-101"/>
     <use x="748.095703" xlink:href="#DejaVuSerif-114"/>
     <use x="795.898438" xlink:href="#DejaVuSerif-97"/>
     <use x="855.517578" xlink:href="#DejaVuSerif-116"/>
     <use x="895.703125" xlink:href="#DejaVuSerif-101"/>
     <use x="954.882812" xlink:href="#DejaVuSerif-100"/>
     <use x="1018.896484" xlink:href="#DejaVuSerif-32"/>
     <use x="1050.683594" xlink:href="#DejaVuSerif-83"/>
     <use x="1119.189453" xlink:href="#DejaVuSerif-97"/>
     <use x="1178.808594" xlink:href="#DejaVuSerif-109"/>
     <use x="1273.632812" xlink:href="#DejaVuSerif-112"/>
     <use x="1337.646484" xlink:href="#DejaVuSerif-108"/>
     <use x="1369.628906" xlink:href="#DejaVuSerif-101"/>
     <use x="1428.808594" xlink:href="#DejaVuSerif-115"/>
    </g>
   </g>
  </g>
  <g id="axes_2">
   <g id="legend_1">
    <g id="line2d_7">
     <path d="M 155.91025 224.941625 
L 173.51025 224.941625 
" style="fill:none;stroke:#c8102e;stroke-linecap:round;stroke-width:1.2;"/>
    </g>
    <g id="line2d_8"/>
    <g id="text_10">
     <!-- Mean + Standard Deviation -->
     <defs>
      <path d="M 5.515625 0 
L 5.515625 5.171875 
L 14.796875 5.171875 
L 14.796875 67.671875 
L 4.984375 67.671875 
L 4.984375 72.90625 
L 26.21875 72.90625 
L 51.8125 21 
L 77.390625 72.90625 
L 97.3125 72.90625 
L 97.3125 67.671875 
L 87.59375 67.671875 
L 87.59375 5.171875 
L 96.921875 5.171875 
L 96.921875 0 
L 68.40625 0 
L 68.40625 5.171875 
L 77.6875 5.171875 
L 77.6875 61.53125 
L 52.6875 10.6875 
L 45.796875 10.6875 
L 20.796875 61.53125 
L 20.796875 5.171875 
L 30.078125 5.171875 
L 30.078125 0 
z
" id="DejaVuSerif-77"/>
      <path d="M 45.796875 62.703125 
L 45.796875 35.296875 
L 73.1875 35.296875 
L 73.1875 27.390625 
L 45.796875 27.390625 
L 45.796875 0 
L 37.984375 0 
L 37.984375 27.390625 
L 10.59375 27.390625 
L 10.59375 35.296875 
L 37.984375 35.296875 
L 37.984375 62.703125 
z
" id="DejaVuSerif-43"/>
      <path d="M 24.703125 5.171875 
L 33.796875 5.171875 
Q 48 5.171875 55.59375 13.28125 
Q 63.1875 21.390625 63.1875 36.53125 
Q 63.1875 51.65625 55.609375 59.65625 
Q 48.046875 67.671875 33.796875 67.671875 
L 24.703125 67.671875 
z
M 5.515625 0 
L 5.515625 5.171875 
L 14.796875 5.171875 
L 14.796875 67.671875 
L 5.515625 67.671875 
L 5.515625 72.90625 
L 34.515625 72.90625 
Q 53.375 72.90625 63.890625 63.28125 
Q 74.421875 53.65625 74.421875 36.53125 
Q 74.421875 19.34375 63.875 9.671875 
Q 53.328125 0 34.515625 0 
z
" id="DejaVuSerif-68"/>
      <path d="M 24.703125 0 
L 5.609375 46.6875 
L -0.296875 46.6875 
L -0.296875 51.90625 
L 23.578125 51.90625 
L 23.578125 46.6875 
L 15.28125 46.6875 
L 29.890625 10.984375 
L 44.484375 46.6875 
L 36.71875 46.6875 
L 36.71875 51.90625 
L 56.203125 51.90625 
L 56.203125 46.6875 
L 50.390625 46.6875 
L 31.296875 0 
z
" id="DejaVuSerif-118"/>
     </defs>
     <g style="fill:#262626;" transform="translate(180.55025 228.021625)scale(0.088 -0.088)">
      <use xlink:href="#DejaVuSerif-77"/>
      <use x="102.392578" xlink:href="#DejaVuSerif-101"/>
      <use x="161.572266" xlink:href="#DejaVuSerif-97"/>
      <use x="221.191406" xlink:href="#DejaVuSerif-110"/>
      <use x="285.595703" xlink:href="#DejaVuSerif-32"/>
      <use x="317.382812" xlink:href="#DejaVuSerif-43"/>
      <use x="401.171875" xlink:href="#DejaVuSerif-32"/>
      <use x="432.958984" xlink:href="#DejaVuSerif-83"/>
      <use x="501.464844" xlink:href="#DejaVuSerif-116"/>
      <use x="541.650391" xlink:href="#DejaVuSerif-97"/>
      <use x="601.269531" xlink:href="#DejaVuSerif-110"/>
      <use x="665.673828" xlink:href="#DejaVuSerif-100"/>
      <use x="729.6875" xlink:href="#DejaVuSerif-97"/>
      <use x="789.306641" xlink:href="#DejaVuSerif-114"/>
      <use x="837.109375" xlink:href="#DejaVuSerif-100"/>
      <use x="901.123047" xlink:href="#DejaVuSerif-32"/>
      <use x="932.910156" xlink:href="#DejaVuSerif-68"/>
      <use x="1013.085938" xlink:href="#DejaVuSerif-101"/>
      <use x="1072.265625" xlink:href="#DejaVuSerif-118"/>
      <use x="1128.759766" xlink:href="#DejaVuSerif-105"/>
      <use x="1160.742188" xlink:href="#DejaVuSerif-97"/>
      <use x="1220.361328" xlink:href="#DejaVuSerif-116"/>
      <use x="1260.546875" xlink:href="#DejaVuSerif-105"/>
      <use x="1292.529297" xlink:href="#DejaVuSerif-111"/>
      <use x="1352.734375" xlink:href="#DejaVuSerif-110"/>
     </g>
    </g>
    <g id="line2d_9">
     <path d="M 322.861375 224.941625 
L 340.461375 224.941625 
" style="fill:none;stroke:#00b388;stroke-linecap:round;stroke-width:1.2;"/>
    </g>
    <g id="line2d_10"/>
    <g id="text_11">
     <!-- Mean -->
     <g style="fill:#262626;" transform="translate(347.501375 228.021625)scale(0.088 -0.088)">
      <use xlink:href="#DejaVuSerif-77"/>
      <use x="102.392578" xlink:href="#DejaVuSerif-101"/>
      <use x="161.572266" xlink:href="#DejaVuSerif-97"/>
      <use x="221.191406" xlink:href="#DejaVuSerif-110"/>
     </g>
    </g>
    <g id="line2d_11">
     <path d="M 390.235 224.941625 
L 407.835 224.941625 
" style="fill:none;stroke:#f6be00;stroke-linecap:round;stroke-width:1.2;"/>
    </g>
    <g id="line2d_12"/>
    <g id="text_12">
     <!-- Mean - Standard Deviation -->
     <defs>
      <path d="M 4.390625 30.609375 
L 29.390625 30.609375 
L 29.390625 23 
L 4.390625 23 
z
" id="DejaVuSerif-45"/>
     </defs>
     <g style="fill:#262626;" transform="translate(414.875 228.021625)scale(0.088 -0.088)">
      <use xlink:href="#DejaVuSerif-77"/>
      <use x="102.392578" xlink:href="#DejaVuSerif-101"/>
      <use x="161.572266" xlink:href="#DejaVuSerif-97"/>
      <use x="221.191406" xlink:href="#DejaVuSerif-110"/>
      <use x="285.595703" xlink:href="#DejaVuSerif-32"/>
      <use x="317.382812" xlink:href="#DejaVuSerif-45"/>
      <use x="351.171875" xlink:href="#DejaVuSerif-32"/>
      <use x="382.958984" xlink:href="#DejaVuSerif-83"/>
      <use x="451.464844" xlink:href="#DejaVuSerif-116"/>
      <use x="491.650391" xlink:href="#DejaVuSerif-97"/>
      <use x="551.269531" xlink:href="#DejaVuSerif-110"/>
      <use x="615.673828" xlink:href="#DejaVuSerif-100"/>
      <use x="679.6875" xlink:href="#DejaVuSerif-97"/>
      <use x="739.306641" xlink:href="#DejaVuSerif-114"/>
      <use x="787.109375" xlink:href="#DejaVuSerif-100"/>
      <use x="851.123047" xlink:href="#DejaVuSerif-32"/>
      <use x="882.910156" xlink:href="#DejaVuSerif-68"/>
      <use x="963.085938" xlink:href="#DejaVuSerif-101"/>
      <use x="1022.265625" xlink:href="#DejaVuSerif-118"/>
      <use x="1078.759766" xlink:href="#DejaVuSerif-105"/>
      <use x="1110.742188" xlink:href="#DejaVuSerif-97"/>
      <use x="1170.361328" xlink:href="#DejaVuSerif-116"/>
      <use x="1210.546875" xlink:href="#DejaVuSerif-105"/>
      <use x="1242.529297" xlink:href="#DejaVuSerif-111"/>
      <use x="1302.734375" xlink:href="#DejaVuSerif-110"/>
     </g>
    </g>
   </g>
  </g>
  <g id="axes_3">
   <g id="patch_7">
    <path d="M 46.096615 434.89201 
L 644.99976 434.89201 
L 644.99976 242.494455 
L 46.096615 242.494455 
z
" style="fill:#ffffff;"/>
   </g>
   <g id="matplotlib.axis_3">
    <g id="xtick_1">
     <g id="text_13">
      <!-- 0 -->
      <g style="fill:#262626;" transform="translate(70.519985 449.878635)scale(0.088 -0.088)">
       <use xlink:href="#DejaVuSerif-48"/>
      </g>
     </g>
    </g>
    <g id="xtick_2">
     <g id="text_14">
      <!-- 20 -->
      <g style="fill:#262626;" transform="translate(174.476839 449.878635)scale(0.088 -0.088)">
       <use xlink:href="#DejaVuSerif-50"/>
       <use x="63.623047" xlink:href="#DejaVuSerif-48"/>
      </g>
     </g>
    </g>
    <g id="xtick_3">
     <g id="text_15">
      <!-- 40 -->
      <g style="fill:#262626;" transform="translate(281.233193 449.878635)scale(0.088 -0.088)">
       <use xlink:href="#DejaVuSerif-52"/>
       <use x="63.623047" xlink:href="#DejaVuSerif-48"/>
      </g>
     </g>
    </g>
    <g id="xtick_4">
     <g id="text_16">
      <!-- 60 -->
      <g style="fill:#262626;" transform="translate(387.989547 449.878635)scale(0.088 -0.088)">
       <use xlink:href="#DejaVuSerif-54"/>
       <use x="63.623047" xlink:href="#DejaVuSerif-48"/>
      </g>
     </g>
    </g>
    <g id="xtick_5">
     <g id="text_17">
      <!-- 80 -->
      <g style="fill:#262626;" transform="translate(494.745901 449.878635)scale(0.088 -0.088)">
       <use xlink:href="#DejaVuSerif-56"/>
       <use x="63.623047" xlink:href="#DejaVuSerif-48"/>
      </g>
     </g>
    </g>
    <g id="xtick_6">
     <g id="text_18">
      <!-- 100 -->
      <g style="fill:#262626;" transform="translate(598.702754 449.878635)scale(0.088 -0.088)">
       <use xlink:href="#DejaVuSerif-49"/>
       <use x="63.623047" xlink:href="#DejaVuSerif-48"/>
       <use x="127.246094" xlink:href="#DejaVuSerif-48"/>
      </g>
     </g>
    </g>
    <g id="text_19">
     <!-- Spectral Band -->
     <defs>
      <path d="M 24.703125 5.171875 
L 39.3125 5.171875 
Q 48.09375 5.171875 52.140625 8.984375 
Q 56.203125 12.796875 56.203125 21.09375 
Q 56.203125 29.34375 52.171875 33.125 
Q 48.140625 36.921875 39.3125 36.921875 
L 24.703125 36.921875 
z
M 24.703125 42.09375 
L 37.109375 42.09375 
Q 45.125 42.09375 48.796875 45.171875 
Q 52.484375 48.25 52.484375 54.890625 
Q 52.484375 61.578125 48.796875 64.625 
Q 45.125 67.671875 37.109375 67.671875 
L 24.703125 67.671875 
z
M 5.515625 0 
L 5.515625 5.171875 
L 14.796875 5.171875 
L 14.796875 67.671875 
L 5.515625 67.671875 
L 5.515625 72.90625 
L 41.5 72.90625 
Q 52.546875 72.90625 58.125 68.390625 
Q 63.71875 63.875 63.71875 54.890625 
Q 63.71875 48.390625 59.828125 44.53125 
Q 55.953125 40.671875 48.484375 39.796875 
Q 57.765625 38.625 62.578125 33.859375 
Q 67.390625 29.109375 67.390625 21.09375 
Q 67.390625 10.25 60.546875 5.125 
Q 53.71875 0 39.203125 0 
z
" id="DejaVuSerif-66"/>
     </defs>
     <g style="fill:#262626;" transform="translate(310.958937 463.00326)scale(0.096 -0.096)">
      <use xlink:href="#DejaVuSerif-83"/>
      <use x="68.505859" xlink:href="#DejaVuSerif-112"/>
      <use x="132.519531" xlink:href="#DejaVuSerif-101"/>
      <use x="191.699219" xlink:href="#DejaVuSerif-99"/>
      <use x="247.705078" xlink:href="#DejaVuSerif-116"/>
      <use x="287.890625" xlink:href="#DejaVuSerif-114"/>
      <use x="335.693359" xlink:href="#DejaVuSerif-97"/>
      <use x="395.3125" xlink:href="#DejaVuSerif-108"/>
      <use x="427.294922" xlink:href="#DejaVuSerif-32"/>
      <use x="459.082031" xlink:href="#DejaVuSerif-66"/>
      <use x="532.568359" xlink:href="#DejaVuSerif-97"/>
      <use x="592.1875" xlink:href="#DejaVuSerif-110"/>
      <use x="656.591797" xlink:href="#DejaVuSerif-100"/>
     </g>
    </g>
   </g>
   <g id="matplotlib.axis_4">
    <g id="ytick_8">
     <g id="text_20">
      <!-- 200 -->
      <g style="fill:#262626;" transform="translate(20.999615 400.232184)scale(0.088 -0.088)">
       <use xlink:href="#DejaVuSerif-50"/>
       <use x="63.623047" xlink:href="#DejaVuSerif-48"/>
       <use x="127.246094" xlink:href="#DejaVuSerif-48"/>
      </g>
     </g>
    </g>
    <g id="ytick_9">
     <g id="text_21">
      <!-- 400 -->
      <g style="fill:#262626;" transform="translate(20.999615 358.393368)scale(0.088 -0.088)">
       <use xlink:href="#DejaVuSerif-52"/>
       <use x="63.623047" xlink:href="#DejaVuSerif-48"/>
       <use x="127.246094" xlink:href="#DejaVuSerif-48"/>
      </g>
     </g>
    </g>
    <g id="ytick_10">
     <g id="text_22">
      <!-- 600 -->
      <g style="fill:#262626;" transform="translate(20.999615 316.554552)scale(0.088 -0.088)">
       <use xlink:href="#DejaVuSerif-54"/>
       <use x="63.623047" xlink:href="#DejaVuSerif-48"/>
       <use x="127.246094" xlink:href="#DejaVuSerif-48"/>
      </g>
     </g>
    </g>
    <g id="ytick_11">
     <g id="text_23">
      <!-- 800 -->
      <g style="fill:#262626;" transform="translate(20.999615 274.715736)scale(0.088 -0.088)">
       <use xlink:href="#DejaVuSerif-56"/>
       <use x="63.623047" xlink:href="#DejaVuSerif-48"/>
       <use x="127.246094" xlink:href="#DejaVuSerif-48"/>
      </g>
     </g>
    </g>
    <g id="text_24">
     <!-- Intensity -->
     <g style="fill:#262626;" transform="translate(14.866615 360.181483)rotate(-90)scale(0.096 -0.096)">
      <use xlink:href="#DejaVuSerif-73"/>
      <use x="39.501953" xlink:href="#DejaVuSerif-110"/>
      <use x="103.90625" xlink:href="#DejaVuSerif-116"/>
      <use x="144.091797" xlink:href="#DejaVuSerif-101"/>
      <use x="203.271484" xlink:href="#DejaVuSerif-110"/>
      <use x="267.675781" xlink:href="#DejaVuSerif-115"/>
      <use x="318.994141" xlink:href="#DejaVuSerif-105"/>
      <use x="350.976562" xlink:href="#DejaVuSerif-116"/>
      <use x="391.162109" xlink:href="#DejaVuSerif-121"/>
     </g>
    </g>
   </g>
   <g id="line2d_13">
    <path clip-path="url(#pa392e25379)" d="M 73.319485 251.239799 
L 78.657303 279.302164 
L 83.995121 304.687827 
L 89.332938 317.331496 
L 94.670756 322.887594 
L 100.008574 329.027211 
L 105.346391 335.581934 
L 110.684209 341.973783 
L 116.022027 346.486589 
L 121.359844 349.219528 
L 126.697662 352.144457 
L 132.03548 356.815362 
L 137.373298 359.157138 
L 142.711115 360.629917 
L 148.048933 362.771555 
L 153.386751 365.741322 
L 158.724568 367.716671 
L 164.062386 368.943773 
L 169.400204 370.334915 
L 174.738021 371.265414 
L 180.075839 371.578515 
L 185.413657 371.817297 
L 190.751474 372.551956 
L 196.089292 373.602546 
L 201.42711 374.150031 
L 206.764928 374.264886 
L 212.102745 375.080389 
L 217.440563 376.350643 
L 222.778381 377.603667 
L 228.116198 378.313007 
L 233.454016 378.944785 
L 238.791834 379.963598 
L 244.129651 380.990185 
L 249.467469 381.706126 
L 254.805287 382.566815 
L 260.143104 383.518596 
L 265.480922 384.535491 
L 270.81874 385.702265 
L 276.156558 386.752288 
L 281.494375 387.58025 
L 286.832193 388.065638 
L 292.170011 388.890305 
L 297.507828 389.710889 
L 302.845646 390.013297 
L 308.183464 390.012389 
L 313.521281 390.121206 
L 318.859099 390.613748 
L 324.196917 391.269626 
L 329.534734 391.431464 
L 334.872552 391.787001 
L 340.21037 391.893138 
L 345.548188 392.049355 
L 350.886005 392.488149 
L 356.223823 392.88519 
L 361.561641 393.303397 
L 366.899458 393.976743 
L 372.237276 394.653577 
L 377.575094 395.314861 
L 382.912911 396.327311 
L 388.250729 397.109414 
L 393.588547 397.459437 
L 398.926364 397.559307 
L 404.264182 397.414157 
L 409.602 397.053949 
L 414.939817 395.231277 
L 420.277635 393.209238 
L 425.615453 393.264547 
L 430.953271 392.86811 
L 436.291088 391.202618 
L 441.628906 389.101748 
L 446.966724 386.739621 
L 452.304541 383.485008 
L 457.642359 378.465199 
L 462.980177 373.705415 
L 468.317994 369.917451 
L 473.655812 366.611078 
L 478.99363 364.389184 
L 484.331447 361.963484 
L 489.669265 359.486385 
L 495.007083 357.06374 
L 500.344901 354.378239 
L 505.682718 351.52966 
L 511.020536 345.853773 
L 516.358354 337.574109 
L 521.696171 339.832092 
L 527.033989 345.601744 
L 532.371807 347.94205 
L 537.709624 348.35818 
L 543.047442 348.119134 
L 548.38526 347.289183 
L 553.723077 345.466889 
L 559.060895 344.189449 
L 564.398713 343.780729 
L 569.736531 342.755146 
L 575.074348 341.612254 
L 580.412166 340.123935 
L 585.749984 336.536464 
L 591.087801 332.833332 
L 596.425619 332.144109 
L 601.763437 333.114653 
L 607.101254 334.782479 
L 612.439072 336.334486 
L 617.77689 337.059826 
" style="fill:none;stroke:#c8102e;stroke-linecap:round;stroke-width:1.2;"/>
   </g>
   <g id="line2d_14">
    <path clip-path="url(#pa392e25379)" d="M 73.319485 303.570198 
L 78.657303 326.496278 
L 83.995121 346.826541 
L 89.332938 355.981598 
L 94.670756 359.791935 
L 100.008574 364.035018 
L 105.346391 367.703536 
L 110.684209 372.388644 
L 116.022027 376.673919 
L 121.359844 379.500138 
L 126.697662 382.402789 
L 132.03548 386.726943 
L 137.373298 389.131902 
L 142.711115 390.40761 
L 148.048933 392.086685 
L 153.386751 394.553276 
L 158.724568 396.292436 
L 164.062386 397.390539 
L 169.400204 398.240791 
L 174.738021 398.556901 
L 180.075839 398.626927 
L 185.413657 398.44159 
L 190.751474 398.518906 
L 196.089292 398.979487 
L 201.42711 399.178961 
L 206.764928 398.983905 
L 212.102745 399.44824 
L 217.440563 400.261601 
L 222.778381 400.96672 
L 228.116198 401.232244 
L 233.454016 401.463307 
L 238.791834 401.976462 
L 244.129651 402.53689 
L 249.467469 402.942245 
L 254.805287 403.500243 
L 260.143104 404.069729 
L 265.480922 404.778824 
L 270.81874 405.547783 
L 276.156558 406.097608 
L 281.494375 406.321381 
L 286.832193 406.35297 
L 292.170011 406.648316 
L 297.507828 407.035336 
L 302.845646 407.201454 
L 308.183464 407.186654 
L 313.521281 406.998446 
L 318.859099 407.031802 
L 324.196917 407.339739 
L 329.534734 407.313452 
L 334.872552 407.411753 
L 340.21037 407.318532 
L 345.548188 407.335763 
L 350.886005 407.600182 
L 356.223823 407.877856 
L 361.561641 408.150449 
L 366.899458 408.488871 
L 372.237276 408.950776 
L 377.575094 409.593159 
L 382.912911 410.462187 
L 388.250729 411.140135 
L 393.588547 411.455362 
L 398.926364 411.46707 
L 404.264182 411.182769 
L 409.602 410.64664 
L 414.939817 408.674207 
L 420.277635 406.672615 
L 425.615453 406.817085 
L 430.953271 406.23037 
L 436.291088 404.398431 
L 441.628906 402.385573 
L 446.966724 400.291202 
L 452.304541 397.39076 
L 457.642359 392.869341 
L 462.980177 388.709316 
L 468.317994 385.659987 
L 473.655812 383.074551 
L 478.99363 381.589207 
L 484.331447 379.865068 
L 489.669265 377.971718 
L 495.007083 376.080798 
L 500.344901 374.062196 
L 505.682718 371.908182 
L 511.020536 366.657344 
L 516.358354 357.802272 
L 521.696171 359.710422 
L 527.033989 365.829846 
L 532.371807 368.397168 
L 537.709624 368.823287 
L 543.047442 368.525953 
L 548.38526 367.631522 
L 553.723077 365.937867 
L 559.060895 364.889025 
L 564.398713 364.563416 
L 569.736531 363.628559 
L 575.074348 362.7127 
L 580.412166 361.260712 
L 585.749984 357.798075 
L 591.087801 354.348471 
L 596.425619 354.107246 
L 601.763437 355.567407 
L 607.101254 357.247808 
L 612.439072 358.304382 
L 617.77689 358.99956 
" style="fill:none;stroke:#00b388;stroke-linecap:round;stroke-width:1.2;"/>
   </g>
   <g id="line2d_15">
    <path clip-path="url(#pa392e25379)" d="M 73.319485 355.900597 
L 78.657303 373.690393 
L 83.995121 388.965255 
L 89.332938 394.6317 
L 94.670756 396.696276 
L 100.008574 399.042826 
L 105.346391 399.825138 
L 110.684209 402.803504 
L 116.022027 406.86125 
L 121.359844 409.780748 
L 126.697662 412.661121 
L 132.03548 416.638523 
L 137.373298 419.106665 
L 142.711115 420.185303 
L 148.048933 421.401816 
L 153.386751 423.365229 
L 158.724568 424.868201 
L 164.062386 425.837306 
L 169.400204 426.146667 
L 174.738021 425.848389 
L 180.075839 425.675339 
L 185.413657 425.065884 
L 190.751474 424.485856 
L 196.089292 424.356427 
L 201.42711 424.207891 
L 206.764928 423.702923 
L 212.102745 423.816092 
L 217.440563 424.172559 
L 222.778381 424.329772 
L 228.116198 424.151481 
L 233.454016 423.981829 
L 238.791834 423.989326 
L 244.129651 424.083595 
L 249.467469 424.178364 
L 254.805287 424.433672 
L 260.143104 424.620861 
L 265.480922 425.022156 
L 270.81874 425.393301 
L 276.156558 425.442927 
L 281.494375 425.062513 
L 286.832193 424.640303 
L 292.170011 424.406327 
L 297.507828 424.359784 
L 302.845646 424.389612 
L 308.183464 424.360919 
L 313.521281 423.875686 
L 318.859099 423.449856 
L 324.196917 423.409852 
L 329.534734 423.19544 
L 334.872552 423.036505 
L 340.21037 422.743927 
L 345.548188 422.62217 
L 350.886005 422.712216 
L 356.223823 422.870522 
L 361.561641 422.997501 
L 366.899458 423.000998 
L 372.237276 423.247976 
L 377.575094 423.871457 
L 382.912911 424.597063 
L 388.250729 425.170856 
L 393.588547 425.451287 
L 398.926364 425.374833 
L 404.264182 424.951381 
L 409.602 424.239332 
L 414.939817 422.117138 
L 420.277635 420.135993 
L 425.615453 420.369623 
L 430.953271 419.59263 
L 436.291088 417.594243 
L 441.628906 415.669397 
L 446.966724 413.842783 
L 452.304541 411.296512 
L 457.642359 407.273482 
L 462.980177 403.713218 
L 468.317994 401.402523 
L 473.655812 399.538025 
L 478.99363 398.78923 
L 484.331447 397.766652 
L 489.669265 396.457051 
L 495.007083 395.097855 
L 500.344901 393.746154 
L 505.682718 392.286704 
L 511.020536 387.460916 
L 516.358354 378.030435 
L 521.696171 379.588753 
L 527.033989 386.057948 
L 532.371807 388.852286 
L 537.709624 389.288395 
L 543.047442 388.932773 
L 548.38526 387.973861 
L 553.723077 386.408845 
L 559.060895 385.5886 
L 564.398713 385.346103 
L 569.736531 384.501972 
L 575.074348 383.813145 
L 580.412166 382.397488 
L 585.749984 379.059685 
L 591.087801 375.86361 
L 596.425619 376.070383 
L 601.763437 378.020161 
L 607.101254 379.713137 
L 612.439072 380.274277 
L 617.77689 380.939294 
" style="fill:none;stroke:#f6be00;stroke-linecap:round;stroke-width:1.2;"/>
   </g>
   <g id="patch_8">
    <path d="M 46.096615 434.89201 
L 46.096615 242.494455 
" style="fill:none;stroke:#262626;stroke-linecap:square;stroke-linejoin:miter;"/>
   </g>
   <g id="patch_9">
    <path d="M 644.99976 434.89201 
L 644.99976 242.494455 
" style="fill:none;stroke:#262626;stroke-linecap:square;stroke-linejoin:miter;"/>
   </g>
   <g id="patch_10">
    <path d="M 46.096615 434.89201 
L 644.99976 434.89201 
" style="fill:none;stroke:#262626;stroke-linecap:square;stroke-linejoin:miter;"/>
   </g>
   <g id="patch_11">
    <path d="M 46.096615 242.494455 
L 644.99976 242.494455 
" style="fill:none;stroke:#262626;stroke-linecap:square;stroke-linejoin:miter;"/>
   </g>
  </g>
 </g>
 <defs>
  <clipPath id="p17bc3d1499">
   <rect height="192.397555" width="598.903145" x="46.096615" y="16.29474"/>
  </clipPath>
  <clipPath id="pa392e25379">
   <rect height="192.397555" width="598.903145" x="46.096615" y="242.494455"/>
  </clipPath>
 </defs>
</svg>
