<?xml version="1.0" encoding="utf-8" standalone="no"?>
<!DOCTYPE svg PUBLIC "-//W3C//DTD SVG 1.1//EN"
  "http://www.w3.org/Graphics/SVG/1.1/DTD/svg11.dtd">
<!-- Created with matplotlib (https://matplotlib.org/) -->
<svg height="468pt" version="1.1" viewBox="0 0 648 468" width="648pt" xmlns="http://www.w3.org/2000/svg" xmlns:xlink="http://www.w3.org/1999/xlink">
 <defs>
  <style type="text/css">
*{stroke-linecap:butt;stroke-linejoin:round;}
  </style>
 </defs>
 <g id="figure_1">
  <g id="patch_1">
   <path d="M 0 468 
L 648 468 
L 648 0 
L 0 0 
z
" style="fill:#ffffff;"/>
  </g>
  <g id="axes_1">
   <g id="patch_2">
    <path d="M 46.98724 208.693065 
L 644.99976 208.693065 
L 644.99976 16.29474 
L 46.98724 16.29474 
z
" style="fill:#ffffff;"/>
   </g>
   <g id="matplotlib.axis_1"/>
   <g id="matplotlib.axis_2">
    <g id="ytick_1">
     <g id="text_1">
      <!-- −1.0 -->
      <defs>
       <path d="M 10.59375 35.296875 
L 73.1875 35.296875 
L 73.1875 27.390625 
L 10.59375 27.390625 
z
" id="DejaVuSerif-8722"/>
       <path d="M 14.203125 0 
L 14.203125 5.171875 
L 26.90625 5.171875 
L 26.90625 65.828125 
L 12.203125 56.296875 
L 12.203125 62.703125 
L 29.984375 74.21875 
L 36.71875 74.21875 
L 36.71875 5.171875 
L 49.421875 5.171875 
L 49.421875 0 
z
" id="DejaVuSerif-49"/>
       <path d="M 9.421875 5.078125 
Q 9.421875 7.8125 11.28125 9.71875 
Q 13.140625 11.625 15.921875 11.625 
Q 18.609375 11.625 20.5 9.71875 
Q 22.40625 7.8125 22.40625 5.078125 
Q 22.40625 2.390625 20.5 0.484375 
Q 18.609375 -1.421875 15.921875 -1.421875 
Q 13.140625 -1.421875 11.28125 0.453125 
Q 9.421875 2.34375 9.421875 5.078125 
z
" id="DejaVuSerif-46"/>
       <path d="M 31.78125 3.421875 
Q 39.265625 3.421875 42.96875 11.625 
Q 46.6875 19.828125 46.6875 36.375 
Q 46.6875 52.984375 42.96875 61.1875 
Q 39.265625 69.390625 31.78125 69.390625 
Q 24.3125 69.390625 20.59375 61.1875 
Q 16.890625 52.984375 16.890625 36.375 
Q 16.890625 19.828125 20.59375 11.625 
Q 24.3125 3.421875 31.78125 3.421875 
z
M 31.78125 -1.421875 
Q 19.921875 -1.421875 13.25 8.53125 
Q 6.59375 18.5 6.59375 36.375 
Q 6.59375 54.296875 13.25 64.25 
Q 19.921875 74.21875 31.78125 74.21875 
Q 43.703125 74.21875 50.34375 64.25 
Q 56.984375 54.296875 56.984375 36.375 
Q 56.984375 18.5 50.34375 8.53125 
Q 43.703125 -1.421875 31.78125 -1.421875 
z
" id="DejaVuSerif-48"/>
      </defs>
      <g style="fill:#262626;" transform="translate(17.318365 206.043084)scale(0.088 -0.088)">
       <use xlink:href="#DejaVuSerif-8722"/>
       <use x="83.789062" xlink:href="#DejaVuSerif-49"/>
       <use x="147.412109" xlink:href="#DejaVuSerif-46"/>
       <use x="179.199219" xlink:href="#DejaVuSerif-48"/>
      </g>
     </g>
    </g>
    <g id="ytick_2">
     <g id="text_2">
      <!-- −0.8 -->
      <defs>
       <path d="M 46.578125 19.921875 
Q 46.578125 27.734375 42.6875 32.046875 
Q 38.8125 36.375 31.78125 36.375 
Q 24.75 36.375 20.875 32.046875 
Q 17 27.734375 17 19.921875 
Q 17 12.0625 20.875 7.734375 
Q 24.75 3.421875 31.78125 3.421875 
Q 38.8125 3.421875 42.6875 7.734375 
Q 46.578125 12.0625 46.578125 19.921875 
z
M 44.578125 55.328125 
Q 44.578125 61.96875 41.203125 65.671875 
Q 37.84375 69.390625 31.78125 69.390625 
Q 25.78125 69.390625 22.390625 65.671875 
Q 19 61.96875 19 55.328125 
Q 19 48.640625 22.390625 44.921875 
Q 25.78125 41.21875 31.78125 41.21875 
Q 37.84375 41.21875 41.203125 44.921875 
Q 44.578125 48.640625 44.578125 55.328125 
z
M 39.3125 38.8125 
Q 47.609375 37.703125 52.25 32.6875 
Q 56.890625 27.6875 56.890625 19.921875 
Q 56.890625 9.671875 50.390625 4.125 
Q 43.890625 -1.421875 31.78125 -1.421875 
Q 19.734375 -1.421875 13.203125 4.125 
Q 6.6875 9.671875 6.6875 19.921875 
Q 6.6875 27.6875 11.328125 32.6875 
Q 15.96875 37.703125 24.3125 38.8125 
Q 16.9375 40.140625 13 44.40625 
Q 9.078125 48.6875 9.078125 55.328125 
Q 9.078125 64.109375 15.125 69.15625 
Q 21.1875 74.21875 31.78125 74.21875 
Q 42.390625 74.21875 48.4375 69.15625 
Q 54.5 64.109375 54.5 55.328125 
Q 54.5 48.6875 50.5625 44.40625 
Q 46.625 40.140625 39.3125 38.8125 
z
" id="DejaVuSerif-56"/>
      </defs>
      <g style="fill:#262626;" transform="translate(17.318365 176.360671)scale(0.088 -0.088)">
       <use xlink:href="#DejaVuSerif-8722"/>
       <use x="83.789062" xlink:href="#DejaVuSerif-48"/>
       <use x="147.412109" xlink:href="#DejaVuSerif-46"/>
       <use x="179.199219" xlink:href="#DejaVuSerif-56"/>
      </g>
     </g>
    </g>
    <g id="ytick_3">
     <g id="text_3">
      <!-- −0.6 -->
      <defs>
       <path d="M 32.71875 3.421875 
Q 39.59375 3.421875 43.296875 8.46875 
Q 47.015625 13.53125 47.015625 23 
Q 47.015625 32.46875 43.296875 37.515625 
Q 39.59375 42.578125 32.71875 42.578125 
Q 25.734375 42.578125 22.0625 37.6875 
Q 18.40625 32.8125 18.40625 23.578125 
Q 18.40625 13.875 22.109375 8.640625 
Q 25.828125 3.421875 32.71875 3.421875 
z
M 16.796875 40.140625 
Q 20.125 43.796875 24.3125 45.59375 
Q 28.515625 47.40625 33.796875 47.40625 
Q 44.671875 47.40625 51 40.859375 
Q 57.328125 34.328125 57.328125 23 
Q 57.328125 11.921875 50.515625 5.25 
Q 43.703125 -1.421875 32.328125 -1.421875 
Q 19.96875 -1.421875 13.328125 7.78125 
Q 6.6875 17 6.6875 34.078125 
Q 6.6875 53.21875 14.546875 63.71875 
Q 22.40625 74.21875 36.71875 74.21875 
Q 40.578125 74.21875 44.828125 73.484375 
Q 49.078125 72.75 53.515625 71.296875 
L 53.515625 59.28125 
L 48 59.28125 
Q 47.40625 64.203125 44.234375 66.796875 
Q 41.0625 69.390625 35.6875 69.390625 
Q 26.21875 69.390625 21.578125 62.203125 
Q 16.9375 55.03125 16.796875 40.140625 
z
" id="DejaVuSerif-54"/>
      </defs>
      <g style="fill:#262626;" transform="translate(17.318365 146.678258)scale(0.088 -0.088)">
       <use xlink:href="#DejaVuSerif-8722"/>
       <use x="83.789062" xlink:href="#DejaVuSerif-48"/>
       <use x="147.412109" xlink:href="#DejaVuSerif-46"/>
       <use x="179.199219" xlink:href="#DejaVuSerif-54"/>
      </g>
     </g>
    </g>
    <g id="ytick_4">
     <g id="text_4">
      <!-- −0.4 -->
      <defs>
       <path d="M 34.90625 24.703125 
L 34.90625 63.484375 
L 10.015625 24.703125 
z
M 56.390625 0 
L 23.1875 0 
L 23.1875 5.171875 
L 34.90625 5.171875 
L 34.90625 19.484375 
L 3.078125 19.484375 
L 3.078125 24.8125 
L 35.015625 74.21875 
L 44.671875 74.21875 
L 44.671875 24.703125 
L 58.59375 24.703125 
L 58.59375 19.484375 
L 44.671875 19.484375 
L 44.671875 5.171875 
L 56.390625 5.171875 
z
" id="DejaVuSerif-52"/>
      </defs>
      <g style="fill:#262626;" transform="translate(17.318365 116.995845)scale(0.088 -0.088)">
       <use xlink:href="#DejaVuSerif-8722"/>
       <use x="83.789062" xlink:href="#DejaVuSerif-48"/>
       <use x="147.412109" xlink:href="#DejaVuSerif-46"/>
       <use x="179.199219" xlink:href="#DejaVuSerif-52"/>
      </g>
     </g>
    </g>
    <g id="ytick_5">
     <g id="text_5">
      <!-- −0.2 -->
      <defs>
       <path d="M 12.796875 55.515625 
L 7.328125 55.515625 
L 7.328125 68.5 
Q 12.546875 71.296875 17.84375 72.75 
Q 23.140625 74.21875 28.21875 74.21875 
Q 39.59375 74.21875 46.1875 68.703125 
Q 52.78125 63.1875 52.78125 53.71875 
Q 52.78125 43.015625 37.84375 28.125 
Q 36.671875 27 36.078125 26.421875 
L 17.671875 8.015625 
L 48.09375 8.015625 
L 48.09375 17 
L 53.8125 17 
L 53.8125 0 
L 6.78125 0 
L 6.78125 5.328125 
L 28.90625 27.390625 
Q 36.234375 34.71875 39.359375 40.84375 
Q 42.484375 46.96875 42.484375 53.71875 
Q 42.484375 61.078125 38.640625 65.234375 
Q 34.8125 69.390625 28.078125 69.390625 
Q 21.09375 69.390625 17.28125 65.921875 
Q 13.484375 62.453125 12.796875 55.515625 
z
" id="DejaVuSerif-50"/>
      </defs>
      <g style="fill:#262626;" transform="translate(17.318365 87.313432)scale(0.088 -0.088)">
       <use xlink:href="#DejaVuSerif-8722"/>
       <use x="83.789062" xlink:href="#DejaVuSerif-48"/>
       <use x="147.412109" xlink:href="#DejaVuSerif-46"/>
       <use x="179.199219" xlink:href="#DejaVuSerif-50"/>
      </g>
     </g>
    </g>
    <g id="ytick_6">
     <g id="text_6">
      <!-- 0.0 -->
      <g style="fill:#262626;" transform="translate(24.69249 57.631019)scale(0.088 -0.088)">
       <use xlink:href="#DejaVuSerif-48"/>
       <use x="63.623047" xlink:href="#DejaVuSerif-46"/>
       <use x="95.410156" xlink:href="#DejaVuSerif-48"/>
      </g>
     </g>
    </g>
    <g id="ytick_7">
     <g id="text_7">
      <!-- 0.2 -->
      <g style="fill:#262626;" transform="translate(24.69249 27.948606)scale(0.088 -0.088)">
       <use xlink:href="#DejaVuSerif-48"/>
       <use x="63.623047" xlink:href="#DejaVuSerif-46"/>
       <use x="95.410156" xlink:href="#DejaVuSerif-50"/>
      </g>
     </g>
    </g>
    <g id="text_8">
     <!-- Scaled Intensity -->
     <defs>
      <path d="M 9.28125 3.515625 
L 9.28125 20.125 
L 14.890625 20.0625 
Q 15.140625 11.765625 19.703125 7.78125 
Q 24.265625 3.8125 33.59375 3.8125 
Q 42.28125 3.8125 46.84375 7.25 
Q 51.421875 10.6875 51.421875 17.28125 
Q 51.421875 22.5625 48.65625 25.390625 
Q 45.90625 28.21875 37.015625 30.90625 
L 27.390625 33.796875 
Q 16.9375 36.96875 12.671875 41.703125 
Q 8.40625 46.4375 8.40625 54.6875 
Q 8.40625 63.96875 14.984375 69.09375 
Q 21.578125 74.21875 33.5 74.21875 
Q 38.578125 74.21875 44.625 73.109375 
Q 50.6875 72.015625 57.515625 69.921875 
L 57.515625 54.390625 
L 52 54.390625 
Q 51.171875 62.109375 46.84375 65.546875 
Q 42.53125 69 33.6875 69 
Q 25.984375 69 21.953125 65.84375 
Q 17.921875 62.703125 17.921875 56.6875 
Q 17.921875 51.46875 20.9375 48.484375 
Q 23.96875 45.515625 33.796875 42.578125 
L 42.828125 39.890625 
Q 52.734375 36.921875 56.953125 32.296875 
Q 61.1875 27.6875 61.1875 19.921875 
Q 61.1875 9.328125 54.390625 3.953125 
Q 47.609375 -1.421875 34.1875 -1.421875 
Q 28.171875 -1.421875 21.9375 -0.1875 
Q 15.71875 1.03125 9.28125 3.515625 
z
" id="DejaVuSerif-83"/>
      <path d="M 51.421875 15.578125 
Q 49.515625 7.28125 44.09375 2.921875 
Q 38.671875 -1.421875 30.078125 -1.421875 
Q 18.75 -1.421875 11.859375 6.078125 
Q 4.984375 13.578125 4.984375 25.984375 
Q 4.984375 38.421875 11.859375 45.875 
Q 18.75 53.328125 30.078125 53.328125 
Q 35.015625 53.328125 39.890625 52.171875 
Q 44.78125 51.03125 49.703125 48.6875 
L 49.703125 35.40625 
L 44.484375 35.40625 
Q 43.453125 42.234375 40.015625 45.359375 
Q 36.578125 48.484375 30.171875 48.484375 
Q 22.90625 48.484375 19.1875 42.84375 
Q 15.484375 37.203125 15.484375 25.984375 
Q 15.484375 14.75 19.171875 9.078125 
Q 22.859375 3.421875 30.171875 3.421875 
Q 35.984375 3.421875 39.453125 6.4375 
Q 42.921875 9.46875 44.1875 15.578125 
z
" id="DejaVuSerif-99"/>
      <path d="M 39.796875 16.3125 
L 39.796875 27.296875 
L 28.21875 27.296875 
Q 21.53125 27.296875 18.25 24.40625 
Q 14.984375 21.53125 14.984375 15.578125 
Q 14.984375 10.15625 18.296875 6.984375 
Q 21.625 3.8125 27.296875 3.8125 
Q 32.90625 3.8125 36.34375 7.28125 
Q 39.796875 10.75 39.796875 16.3125 
z
M 48.78125 32.421875 
L 48.78125 5.171875 
L 56.78125 5.171875 
L 56.78125 0 
L 39.796875 0 
L 39.796875 5.609375 
Q 36.8125 2 32.90625 0.28125 
Q 29 -1.421875 23.78125 -1.421875 
Q 15.140625 -1.421875 10.0625 3.171875 
Q 4.984375 7.765625 4.984375 15.578125 
Q 4.984375 23.640625 10.796875 28.078125 
Q 16.609375 32.515625 27.203125 32.515625 
L 39.796875 32.515625 
L 39.796875 36.078125 
Q 39.796875 42 36.203125 45.234375 
Q 32.625 48.484375 26.125 48.484375 
Q 20.75 48.484375 17.578125 46.046875 
Q 14.40625 43.609375 13.625 38.8125 
L 8.984375 38.8125 
L 8.984375 49.3125 
Q 13.671875 51.3125 18.09375 52.3125 
Q 22.515625 53.328125 26.703125 53.328125 
Q 37.5 53.328125 43.140625 47.96875 
Q 48.78125 42.625 48.78125 32.421875 
z
" id="DejaVuSerif-97"/>
      <path d="M 20.515625 5.171875 
L 29 5.171875 
L 29 0 
L 2.875 0 
L 2.875 5.171875 
L 11.53125 5.171875 
L 11.53125 70.796875 
L 2.875 70.796875 
L 2.875 75.984375 
L 20.515625 75.984375 
z
" id="DejaVuSerif-108"/>
      <path d="M 54.203125 25 
L 15.484375 25 
L 15.484375 24.609375 
Q 15.484375 14.109375 19.4375 8.765625 
Q 23.390625 3.421875 31.109375 3.421875 
Q 37.015625 3.421875 40.796875 6.515625 
Q 44.578125 9.625 46.09375 15.71875 
L 53.328125 15.71875 
Q 51.171875 7.171875 45.375 2.875 
Q 39.59375 -1.421875 30.171875 -1.421875 
Q 18.796875 -1.421875 11.890625 6.078125 
Q 4.984375 13.578125 4.984375 25.984375 
Q 4.984375 38.28125 11.765625 45.796875 
Q 18.5625 53.328125 29.59375 53.328125 
Q 41.359375 53.328125 47.65625 46.0625 
Q 53.953125 38.8125 54.203125 25 
z
M 43.609375 30.171875 
Q 43.3125 39.265625 39.765625 43.875 
Q 36.234375 48.484375 29.59375 48.484375 
Q 23.390625 48.484375 19.828125 43.84375 
Q 16.265625 39.203125 15.484375 30.171875 
z
" id="DejaVuSerif-101"/>
      <path d="M 52.484375 5.171875 
L 61.078125 5.171875 
L 61.078125 0 
L 43.5 0 
L 43.5 8.109375 
Q 40.875 3.21875 36.796875 0.890625 
Q 32.71875 -1.421875 26.703125 -1.421875 
Q 17.140625 -1.421875 11.0625 6.171875 
Q 4.984375 13.765625 4.984375 25.984375 
Q 4.984375 38.1875 11.03125 45.75 
Q 17.09375 53.328125 26.703125 53.328125 
Q 32.71875 53.328125 36.796875 51 
Q 40.875 48.6875 43.5 43.796875 
L 43.5 70.796875 
L 35.015625 70.796875 
L 35.015625 75.984375 
L 52.484375 75.984375 
z
M 43.5 23.390625 
L 43.5 28.515625 
Q 43.5 37.84375 39.90625 42.765625 
Q 36.328125 47.703125 29.5 47.703125 
Q 22.5625 47.703125 19.015625 42.234375 
Q 15.484375 36.765625 15.484375 25.984375 
Q 15.484375 15.234375 19.015625 9.71875 
Q 22.5625 4.203125 29.5 4.203125 
Q 36.328125 4.203125 39.90625 9.109375 
Q 43.5 14.015625 43.5 23.390625 
z
" id="DejaVuSerif-100"/>
      <path id="DejaVuSerif-32"/>
      <path d="M 24.703125 5.171875 
L 33.984375 5.171875 
L 33.984375 0 
L 5.515625 0 
L 5.515625 5.171875 
L 14.796875 5.171875 
L 14.796875 67.671875 
L 5.515625 67.671875 
L 5.515625 72.90625 
L 33.984375 72.90625 
L 33.984375 67.671875 
L 24.703125 67.671875 
z
" id="DejaVuSerif-73"/>
      <path d="M 4.109375 0 
L 4.109375 5.171875 
L 12.203125 5.171875 
L 12.203125 46.6875 
L 3.609375 46.6875 
L 3.609375 51.90625 
L 21.1875 51.90625 
L 21.1875 42.671875 
Q 23.6875 47.953125 27.65625 50.640625 
Q 31.640625 53.328125 36.921875 53.328125 
Q 45.515625 53.328125 49.5625 48.390625 
Q 53.609375 43.453125 53.609375 33.015625 
L 53.609375 5.171875 
L 61.625 5.171875 
L 61.625 0 
L 36.8125 0 
L 36.8125 5.171875 
L 44.578125 5.171875 
L 44.578125 30.171875 
Q 44.578125 39.703125 42.234375 43.234375 
Q 39.890625 46.78125 33.984375 46.78125 
Q 27.734375 46.78125 24.453125 42.203125 
Q 21.1875 37.640625 21.1875 28.90625 
L 21.1875 5.171875 
L 29 5.171875 
L 29 0 
z
" id="DejaVuSerif-110"/>
      <path d="M 10.796875 46.6875 
L 2.875 46.6875 
L 2.875 51.90625 
L 10.796875 51.90625 
L 10.796875 68.015625 
L 19.828125 68.015625 
L 19.828125 51.90625 
L 36.71875 51.90625 
L 36.71875 46.6875 
L 19.828125 46.6875 
L 19.828125 13.71875 
Q 19.828125 7.125 21.09375 5.265625 
Q 22.359375 3.421875 25.78125 3.421875 
Q 29.296875 3.421875 30.90625 5.484375 
Q 32.515625 7.5625 32.625 12.203125 
L 39.40625 12.203125 
Q 39.015625 5.125 35.546875 1.84375 
Q 32.078125 -1.421875 25 -1.421875 
Q 17.234375 -1.421875 14.015625 2.015625 
Q 10.796875 5.46875 10.796875 13.71875 
z
" id="DejaVuSerif-116"/>
      <path d="M 5.609375 2.875 
L 5.609375 14.984375 
L 10.796875 14.984375 
Q 10.984375 9.1875 14.421875 6.296875 
Q 17.875 3.421875 24.609375 3.421875 
Q 30.671875 3.421875 33.84375 5.6875 
Q 37.015625 7.953125 37.015625 12.3125 
Q 37.015625 15.71875 34.6875 17.8125 
Q 32.375 19.921875 24.90625 22.3125 
L 18.40625 24.515625 
Q 11.71875 26.65625 8.71875 29.875 
Q 5.71875 33.109375 5.71875 38.09375 
Q 5.71875 45.21875 10.9375 49.265625 
Q 16.15625 53.328125 25.390625 53.328125 
Q 29.5 53.328125 34.03125 52.25 
Q 38.578125 51.171875 43.40625 49.125 
L 43.40625 37.796875 
L 38.234375 37.796875 
Q 38.03125 42.828125 34.703125 45.65625 
Q 31.390625 48.484375 25.6875 48.484375 
Q 20.015625 48.484375 17.109375 46.484375 
Q 14.203125 44.484375 14.203125 40.484375 
Q 14.203125 37.203125 16.40625 35.21875 
Q 18.609375 33.25 25.203125 31.203125 
L 32.328125 29 
Q 39.703125 26.703125 42.9375 23.265625 
Q 46.1875 19.828125 46.1875 14.40625 
Q 46.1875 7.03125 40.546875 2.796875 
Q 34.90625 -1.421875 25 -1.421875 
Q 19.96875 -1.421875 15.1875 -0.34375 
Q 10.40625 0.734375 5.609375 2.875 
z
" id="DejaVuSerif-115"/>
      <path d="M 9.71875 68.015625 
Q 9.71875 70.265625 11.34375 71.921875 
Q 12.984375 73.578125 15.28125 73.578125 
Q 17.53125 73.578125 19.15625 71.921875 
Q 20.796875 70.265625 20.796875 68.015625 
Q 20.796875 65.71875 19.1875 64.109375 
Q 17.578125 62.5 15.28125 62.5 
Q 12.984375 62.5 11.34375 64.109375 
Q 9.71875 65.71875 9.71875 68.015625 
z
M 21.1875 5.171875 
L 29.6875 5.171875 
L 29.6875 0 
L 3.609375 0 
L 3.609375 5.171875 
L 12.203125 5.171875 
L 12.203125 46.6875 
L 3.609375 46.6875 
L 3.609375 51.90625 
L 21.1875 51.90625 
z
" id="DejaVuSerif-105"/>
      <path d="M 21.578125 -9.515625 
L 25 -0.875 
L 5.609375 46.6875 
L -0.296875 46.6875 
L -0.296875 51.90625 
L 23.578125 51.90625 
L 23.578125 46.6875 
L 15.28125 46.6875 
L 29.890625 10.984375 
L 44.484375 46.6875 
L 36.71875 46.6875 
L 36.71875 51.90625 
L 56.203125 51.90625 
L 56.203125 46.6875 
L 50.390625 46.6875 
L 26.609375 -11.71875 
Q 24.171875 -17.78125 21.1875 -20 
Q 18.21875 -22.21875 12.796875 -22.21875 
Q 10.5 -22.21875 8.078125 -21.828125 
Q 5.671875 -21.4375 3.21875 -20.703125 
L 3.21875 -10.796875 
L 7.8125 -10.796875 
Q 8.109375 -14.109375 9.5 -15.546875 
Q 10.890625 -17 13.8125 -17 
Q 16.5 -17 18.140625 -15.5 
Q 19.78125 -14.015625 21.578125 -9.515625 
z
" id="DejaVuSerif-121"/>
     </defs>
     <g style="fill:#262626;" transform="translate(11.185365 151.794653)rotate(-90)scale(0.096 -0.096)">
      <use xlink:href="#DejaVuSerif-83"/>
      <use x="68.505859" xlink:href="#DejaVuSerif-99"/>
      <use x="124.511719" xlink:href="#DejaVuSerif-97"/>
      <use x="184.130859" xlink:href="#DejaVuSerif-108"/>
      <use x="216.113281" xlink:href="#DejaVuSerif-101"/>
      <use x="275.292969" xlink:href="#DejaVuSerif-100"/>
      <use x="339.306641" xlink:href="#DejaVuSerif-32"/>
      <use x="371.09375" xlink:href="#DejaVuSerif-73"/>
      <use x="410.595703" xlink:href="#DejaVuSerif-110"/>
      <use x="475" xlink:href="#DejaVuSerif-116"/>
      <use x="515.185547" xlink:href="#DejaVuSerif-101"/>
      <use x="574.365234" xlink:href="#DejaVuSerif-110"/>
      <use x="638.769531" xlink:href="#DejaVuSerif-115"/>
      <use x="690.087891" xlink:href="#DejaVuSerif-105"/>
      <use x="722.070312" xlink:href="#DejaVuSerif-116"/>
      <use x="762.255859" xlink:href="#DejaVuSerif-121"/>
     </g>
    </g>
   </g>
   <g id="line2d_1">
    <path clip-path="url(#pefa1bd6782)" d="M 74.169627 107.987732 
L 79.499507 127.145964 
L 84.829387 142.625744 
L 90.159267 146.84308 
L 95.489147 151.306522 
L 100.819027 158.26661 
L 106.148906 164.600195 
L 111.478786 167.162197 
L 116.808666 170.549393 
L 122.138546 171.699061 
L 127.468426 170.93516 
L 132.798306 172.013591 
L 138.128186 176.052661 
L 143.458065 176.010386 
L 148.787945 177.366503 
L 154.117825 178.0829 
L 159.447705 177.158479 
L 164.777585 177.979667 
L 170.107465 177.039685 
L 175.437345 177.257192 
L 180.767224 176.455864 
L 186.097104 175.748092 
L 191.426984 174.461239 
L 196.756864 172.018297 
L 202.086744 169.955292 
L 207.416624 170.318131 
L 212.746504 167.332855 
L 218.076383 165.554631 
L 223.406263 166.427267 
L 228.736143 165.426743 
L 234.066023 165.318999 
L 239.395903 165.638306 
L 244.725783 165.868223 
L 250.055663 166.995944 
L 255.385542 168.432303 
L 260.715422 168.336704 
L 266.045302 167.816548 
L 271.375182 169.653076 
L 276.705062 170.117644 
L 282.034942 172.525963 
L 287.364822 173.254859 
L 292.694701 173.726902 
L 298.024581 173.471198 
L 303.354461 174.673951 
L 308.684341 174.447846 
L 314.014221 175.603883 
L 319.344101 176.590961 
L 324.673981 177.897213 
L 330.00386 177.693966 
L 335.33374 177.430221 
L 340.66362 175.784183 
L 345.9935 177.874098 
L 351.32338 178.858504 
L 356.65326 177.897646 
L 361.98314 178.149466 
L 367.313019 178.919462 
L 372.642899 179.571823 
L 377.972779 181.272493 
L 383.302659 181.032517 
L 388.632539 181.046592 
L 393.962419 179.593469 
L 399.292299 179.216565 
L 404.622178 177.811176 
L 409.952058 177.864102 
L 415.281938 178.369308 
L 420.611818 175.259657 
L 425.941698 172.430018 
L 431.271578 166.785576 
L 436.601458 159.535487 
L 441.931337 152.675315 
L 447.261217 145.35935 
L 452.591097 138.531112 
L 457.920977 130.394578 
L 463.250857 120.581542 
L 468.580737 108.393558 
L 473.910617 100.626413 
L 479.240496 89.945296 
L 484.570376 81.982011 
L 489.900256 72.981753 
L 495.230136 66.00367 
L 500.560016 58.292832 
L 505.889896 55.415396 
L 511.219776 52.749708 
L 516.549655 49.162315 
L 521.879535 46.135047 
L 527.209415 46.986386 
L 532.539295 45.408107 
L 537.869175 41.366309 
L 543.199055 39.587452 
L 548.528935 38.605192 
L 553.858814 39.726098 
L 559.188694 39.050814 
L 564.518574 38.667018 
L 569.848454 37.445734 
L 575.178334 35.568621 
L 580.508214 30.102274 
L 585.838094 27.692644 
L 591.167973 27.990769 
L 596.497853 31.245971 
L 601.827733 31.566269 
L 607.157613 29.706511 
L 612.487493 25.040118 
L 617.817373 25.403384 
" style="fill:none;stroke:#c8102e;stroke-linecap:round;stroke-width:1.2;"/>
   </g>
   <g id="line2d_2">
    <path clip-path="url(#pefa1bd6782)" d="M 74.169627 132.546733 
L 79.499507 151.131166 
L 84.829387 159.767953 
L 90.159267 164.519758 
L 95.489147 167.061537 
L 100.819027 171.650018 
L 106.148906 177.804506 
L 111.478786 179.796981 
L 116.808666 182.076678 
L 122.138546 183.195093 
L 127.468426 182.769572 
L 132.798306 182.765113 
L 138.128186 186.468361 
L 143.458065 186.288742 
L 148.787945 187.254501 
L 154.117825 187.808847 
L 159.447705 187.364439 
L 164.777585 187.831042 
L 170.107465 187.491009 
L 175.437345 187.274174 
L 180.767224 186.772488 
L 186.097104 186.167321 
L 191.426984 184.80173 
L 196.756864 184.123309 
L 202.086744 182.101846 
L 207.416624 181.425167 
L 212.746504 179.75973 
L 218.076383 178.836707 
L 223.406263 178.793875 
L 228.736143 177.924308 
L 234.066023 177.743123 
L 239.395903 177.901308 
L 244.725783 178.536021 
L 250.055663 179.357739 
L 255.385542 179.961031 
L 260.715422 180.130857 
L 266.045302 180.373903 
L 271.375182 181.994481 
L 276.705062 182.516911 
L 282.034942 183.652045 
L 287.364822 184.026215 
L 292.694701 185.082752 
L 298.024581 185.048792 
L 303.354461 185.809702 
L 308.684341 185.528159 
L 314.014221 185.985942 
L 319.344101 186.984891 
L 324.673981 188.184592 
L 330.00386 187.891832 
L 335.33374 187.04009 
L 340.66362 186.407385 
L 345.9935 187.62852 
L 351.32338 188.188873 
L 356.65326 187.731851 
L 361.98314 187.782742 
L 367.313019 188.394571 
L 372.642899 188.942477 
L 377.972779 190.159384 
L 383.302659 190.490102 
L 388.632539 190.334005 
L 393.962419 189.534295 
L 399.292299 189.03046 
L 404.622178 187.778408 
L 409.952058 187.905366 
L 415.281938 188.174322 
L 420.611818 186.530177 
L 425.941698 183.637484 
L 431.271578 179.599484 
L 436.601458 174.01661 
L 441.931337 168.317216 
L 447.261217 160.735012 
L 452.591097 154.007194 
L 457.920977 147.350799 
L 463.250857 138.303229 
L 468.580737 128.297826 
L 473.910617 120.471656 
L 479.240496 109.673378 
L 484.570376 103.026253 
L 489.900256 95.122937 
L 495.230136 89.822164 
L 500.560016 83.865381 
L 505.889896 81.391382 
L 511.219776 80.347938 
L 516.549655 76.818278 
L 521.879535 74.407444 
L 527.209415 75.409083 
L 532.539295 73.343919 
L 537.869175 69.678114 
L 543.199055 68.961003 
L 548.528935 68.324947 
L 553.858814 68.082571 
L 559.188694 68.687911 
L 564.518574 68.987798 
L 569.848454 69.014866 
L 575.178334 67.733599 
L 580.508214 64.5212 
L 585.838094 62.926257 
L 591.167973 63.755024 
L 596.497853 66.865371 
L 601.827733 68.293375 
L 607.157613 67.043997 
L 612.487493 65.54195 
L 617.817373 65.381016 
" style="fill:none;stroke:#00b388;stroke-linecap:round;stroke-width:1.2;"/>
   </g>
   <g id="line2d_3">
    <path clip-path="url(#pefa1bd6782)" d="M 74.169627 157.105735 
L 79.499507 175.116369 
L 84.829387 176.910162 
L 90.159267 182.196436 
L 95.489147 182.816553 
L 100.819027 185.033426 
L 106.148906 191.008817 
L 111.478786 192.431765 
L 116.808666 193.603964 
L 122.138546 194.691126 
L 127.468426 194.603983 
L 132.798306 193.516636 
L 138.128186 196.884061 
L 143.458065 196.567099 
L 148.787945 197.142499 
L 154.117825 197.534794 
L 159.447705 197.5704 
L 164.777585 197.682417 
L 170.107465 197.942332 
L 175.437345 197.291156 
L 180.767224 197.089113 
L 186.097104 196.586551 
L 191.426984 195.142221 
L 196.756864 196.228321 
L 202.086744 194.248399 
L 207.416624 192.532204 
L 212.746504 192.186606 
L 218.076383 192.118783 
L 223.406263 191.160482 
L 228.736143 190.421873 
L 234.066023 190.167248 
L 239.395903 190.164311 
L 244.725783 191.203819 
L 250.055663 191.719535 
L 255.385542 191.489759 
L 260.715422 191.925011 
L 266.045302 192.931258 
L 271.375182 194.335886 
L 276.705062 194.916178 
L 282.034942 194.778127 
L 287.364822 194.79757 
L 292.694701 196.438601 
L 298.024581 196.626385 
L 303.354461 196.945453 
L 308.684341 196.608471 
L 314.014221 196.368001 
L 319.344101 197.378821 
L 324.673981 198.471971 
L 330.00386 198.089698 
L 335.33374 196.649959 
L 340.66362 197.030587 
L 345.9935 197.382943 
L 351.32338 197.519243 
L 356.65326 197.566056 
L 361.98314 197.416018 
L 367.313019 197.869679 
L 372.642899 198.313132 
L 377.972779 199.046274 
L 383.302659 199.947687 
L 388.632539 199.621418 
L 393.962419 199.475122 
L 399.292299 198.844354 
L 404.622178 197.74564 
L 409.952058 197.946631 
L 415.281938 197.979335 
L 420.611818 197.800698 
L 425.941698 194.84495 
L 431.271578 192.413392 
L 436.601458 188.497733 
L 441.931337 183.959118 
L 447.261217 176.110673 
L 452.591097 169.483276 
L 457.920977 164.307019 
L 463.250857 156.024915 
L 468.580737 148.202098 
L 473.910617 140.316899 
L 479.240496 129.401459 
L 484.570376 124.070494 
L 489.900256 117.264123 
L 495.230136 113.640658 
L 500.560016 109.437927 
L 505.889896 107.367368 
L 511.219776 107.946165 
L 516.549655 104.474241 
L 521.879535 102.679842 
L 527.209415 103.831779 
L 532.539295 101.279729 
L 537.869175 97.989919 
L 543.199055 98.334553 
L 548.528935 98.044703 
L 553.858814 96.439043 
L 559.188694 98.325008 
L 564.518574 99.308578 
L 569.848454 100.583996 
L 575.178334 99.898578 
L 580.508214 98.940126 
L 585.838094 98.15987 
L 591.167973 99.519277 
L 596.497853 102.484773 
L 601.827733 105.02048 
L 607.157613 104.381481 
L 612.487493 106.043782 
L 617.817373 105.358651 
" style="fill:none;stroke:#f6be00;stroke-linecap:round;stroke-width:1.2;"/>
   </g>
   <g id="line2d_4"/>
   <g id="line2d_5"/>
   <g id="line2d_6"/>
   <g id="patch_3">
    <path d="M 46.98724 208.693065 
L 46.98724 16.29474 
" style="fill:none;stroke:#262626;stroke-linecap:square;stroke-linejoin:miter;"/>
   </g>
   <g id="patch_4">
    <path d="M 644.99976 208.693065 
L 644.99976 16.29474 
" style="fill:none;stroke:#262626;stroke-linecap:square;stroke-linejoin:miter;"/>
   </g>
   <g id="patch_5">
    <path d="M 46.98724 208.693065 
L 644.99976 208.693065 
" style="fill:none;stroke:#262626;stroke-linecap:square;stroke-linejoin:miter;"/>
   </g>
   <g id="patch_6">
    <path d="M 46.98724 16.29474 
L 644.99976 16.29474 
" style="fill:none;stroke:#262626;stroke-linecap:square;stroke-linejoin:miter;"/>
   </g>
   <g id="text_9">
    <!-- Trees Generated Samples -->
    <defs>
     <path d="M 19.09375 0 
L 19.09375 5.171875 
L 28.421875 5.171875 
L 28.421875 67.09375 
L 6.984375 67.09375 
L 6.984375 55.71875 
L 0.984375 55.71875 
L 0.984375 72.90625 
L 65.71875 72.90625 
L 65.71875 55.71875 
L 59.71875 55.71875 
L 59.71875 67.09375 
L 38.28125 67.09375 
L 38.28125 5.171875 
L 47.609375 5.171875 
L 47.609375 0 
z
" id="DejaVuSerif-84"/>
     <path d="M 47.796875 52 
L 47.796875 39.015625 
L 42.625 39.015625 
Q 42.390625 42.875 40.484375 44.78125 
Q 38.578125 46.6875 34.90625 46.6875 
Q 28.265625 46.6875 24.71875 42.09375 
Q 21.1875 37.5 21.1875 28.90625 
L 21.1875 5.171875 
L 31.59375 5.171875 
L 31.59375 0 
L 4.109375 0 
L 4.109375 5.171875 
L 12.203125 5.171875 
L 12.203125 46.78125 
L 3.609375 46.78125 
L 3.609375 51.90625 
L 21.1875 51.90625 
L 21.1875 42.671875 
Q 23.828125 48.09375 27.96875 50.703125 
Q 32.125 53.328125 38.09375 53.328125 
Q 40.28125 53.328125 42.703125 52.984375 
Q 45.125 52.640625 47.796875 52 
z
" id="DejaVuSerif-114"/>
     <path d="M 64.015625 51.125 
Q 62.3125 60.25 56.890625 64.625 
Q 51.46875 69 41.796875 69 
Q 29.203125 69 23 60.890625 
Q 16.796875 52.78125 16.796875 36.375 
Q 16.796875 20.3125 23.1875 12.0625 
Q 29.59375 3.8125 42 3.8125 
Q 47.515625 3.8125 52.53125 5.171875 
Q 57.5625 6.546875 62.109375 9.28125 
L 62.109375 28.078125 
L 48.390625 28.078125 
L 48.390625 33.296875 
L 72.015625 33.296875 
L 72.015625 6.109375 
Q 65.53125 2.34375 58.03125 0.453125 
Q 50.53125 -1.421875 42 -1.421875 
Q 25.484375 -1.421875 15.546875 8.90625 
Q 5.609375 19.234375 5.609375 36.375 
Q 5.609375 53.65625 15.5625 63.9375 
Q 25.53125 74.21875 42.390625 74.21875 
Q 48.640625 74.21875 55.296875 72.78125 
Q 61.96875 71.34375 69.484375 68.40625 
L 69.484375 51.125 
z
" id="DejaVuSerif-71"/>
     <path d="M 51.8125 41.796875 
Q 54.390625 47.515625 58.421875 50.421875 
Q 62.453125 53.328125 67.828125 53.328125 
Q 75.984375 53.328125 79.984375 48.265625 
Q 83.984375 43.21875 83.984375 33.015625 
L 83.984375 5.171875 
L 92.09375 5.171875 
L 92.09375 0 
L 67.1875 0 
L 67.1875 5.171875 
L 75 5.171875 
L 75 31.984375 
Q 75 39.9375 72.65625 43.3125 
Q 70.3125 46.6875 64.890625 46.6875 
Q 58.890625 46.6875 55.734375 42.140625 
Q 52.59375 37.59375 52.59375 28.90625 
L 52.59375 5.171875 
L 60.40625 5.171875 
L 60.40625 0 
L 35.796875 0 
L 35.796875 5.171875 
L 43.609375 5.171875 
L 43.609375 32.328125 
Q 43.609375 40.09375 41.265625 43.390625 
Q 38.921875 46.6875 33.5 46.6875 
Q 27.484375 46.6875 24.328125 42.140625 
Q 21.1875 37.59375 21.1875 28.90625 
L 21.1875 5.171875 
L 29 5.171875 
L 29 0 
L 4.109375 0 
L 4.109375 5.171875 
L 12.203125 5.171875 
L 12.203125 46.78125 
L 3.609375 46.78125 
L 3.609375 51.90625 
L 21.1875 51.90625 
L 21.1875 42.671875 
Q 23.6875 47.859375 27.53125 50.59375 
Q 31.390625 53.328125 36.28125 53.328125 
Q 42.328125 53.328125 46.375 50.3125 
Q 50.4375 47.3125 51.8125 41.796875 
z
" id="DejaVuSerif-109"/>
     <path d="M 20.515625 28.515625 
L 20.515625 23.390625 
Q 20.515625 14.015625 24.09375 9.109375 
Q 27.6875 4.203125 34.515625 4.203125 
Q 41.40625 4.203125 44.9375 9.71875 
Q 48.484375 15.234375 48.484375 25.984375 
Q 48.484375 36.765625 44.9375 42.234375 
Q 41.40625 47.703125 34.515625 47.703125 
Q 27.6875 47.703125 24.09375 42.765625 
Q 20.515625 37.84375 20.515625 28.515625 
z
M 11.53125 46.6875 
L 2.875 46.6875 
L 2.875 51.90625 
L 20.515625 51.90625 
L 20.515625 43.796875 
Q 23.140625 48.6875 27.21875 51 
Q 31.296875 53.328125 37.3125 53.328125 
Q 46.875 53.328125 52.921875 45.75 
Q 58.984375 38.1875 58.984375 25.984375 
Q 58.984375 13.765625 52.921875 6.171875 
Q 46.875 -1.421875 37.3125 -1.421875 
Q 31.296875 -1.421875 27.21875 0.890625 
Q 23.140625 3.21875 20.515625 8.109375 
L 20.515625 -15.578125 
L 29 -15.578125 
L 29 -20.796875 
L 2.875 -20.796875 
L 2.875 -15.578125 
L 11.53125 -15.578125 
z
" id="DejaVuSerif-112"/>
    </defs>
    <g style="fill:#262626;" transform="translate(283.0805 10.29474)scale(0.096 -0.096)">
     <use xlink:href="#DejaVuSerif-84"/>
     <use x="66.699219" xlink:href="#DejaVuSerif-114"/>
     <use x="114.501953" xlink:href="#DejaVuSerif-101"/>
     <use x="173.681641" xlink:href="#DejaVuSerif-101"/>
     <use x="232.861328" xlink:href="#DejaVuSerif-115"/>
     <use x="284.179688" xlink:href="#DejaVuSerif-32"/>
     <use x="315.966797" xlink:href="#DejaVuSerif-71"/>
     <use x="395.849609" xlink:href="#DejaVuSerif-101"/>
     <use x="455.029297" xlink:href="#DejaVuSerif-110"/>
     <use x="519.433594" xlink:href="#DejaVuSerif-101"/>
     <use x="578.613281" xlink:href="#DejaVuSerif-114"/>
     <use x="626.416016" xlink:href="#DejaVuSerif-97"/>
     <use x="686.035156" xlink:href="#DejaVuSerif-116"/>
     <use x="726.220703" xlink:href="#DejaVuSerif-101"/>
     <use x="785.400391" xlink:href="#DejaVuSerif-100"/>
     <use x="849.414062" xlink:href="#DejaVuSerif-32"/>
     <use x="881.201172" xlink:href="#DejaVuSerif-83"/>
     <use x="949.707031" xlink:href="#DejaVuSerif-97"/>
     <use x="1009.326172" xlink:href="#DejaVuSerif-109"/>
     <use x="1104.150391" xlink:href="#DejaVuSerif-112"/>
     <use x="1168.164062" xlink:href="#DejaVuSerif-108"/>
     <use x="1200.146484" xlink:href="#DejaVuSerif-101"/>
     <use x="1259.326172" xlink:href="#DejaVuSerif-115"/>
    </g>
   </g>
  </g>
  <g id="axes_2">
   <g id="legend_1">
    <g id="line2d_7">
     <path d="M 156.355562 224.941625 
L 173.955562 224.941625 
" style="fill:none;stroke:#c8102e;stroke-linecap:round;stroke-width:1.2;"/>
    </g>
    <g id="line2d_8"/>
    <g id="text_10">
     <!-- Mean + Standard Deviation -->
     <defs>
      <path d="M 5.515625 0 
L 5.515625 5.171875 
L 14.796875 5.171875 
L 14.796875 67.671875 
L 4.984375 67.671875 
L 4.984375 72.90625 
L 26.21875 72.90625 
L 51.8125 21 
L 77.390625 72.90625 
L 97.3125 72.90625 
L 97.3125 67.671875 
L 87.59375 67.671875 
L 87.59375 5.171875 
L 96.921875 5.171875 
L 96.921875 0 
L 68.40625 0 
L 68.40625 5.171875 
L 77.6875 5.171875 
L 77.6875 61.53125 
L 52.6875 10.6875 
L 45.796875 10.6875 
L 20.796875 61.53125 
L 20.796875 5.171875 
L 30.078125 5.171875 
L 30.078125 0 
z
" id="DejaVuSerif-77"/>
      <path d="M 45.796875 62.703125 
L 45.796875 35.296875 
L 73.1875 35.296875 
L 73.1875 27.390625 
L 45.796875 27.390625 
L 45.796875 0 
L 37.984375 0 
L 37.984375 27.390625 
L 10.59375 27.390625 
L 10.59375 35.296875 
L 37.984375 35.296875 
L 37.984375 62.703125 
z
" id="DejaVuSerif-43"/>
      <path d="M 24.703125 5.171875 
L 33.796875 5.171875 
Q 48 5.171875 55.59375 13.28125 
Q 63.1875 21.390625 63.1875 36.53125 
Q 63.1875 51.65625 55.609375 59.65625 
Q 48.046875 67.671875 33.796875 67.671875 
L 24.703125 67.671875 
z
M 5.515625 0 
L 5.515625 5.171875 
L 14.796875 5.171875 
L 14.796875 67.671875 
L 5.515625 67.671875 
L 5.515625 72.90625 
L 34.515625 72.90625 
Q 53.375 72.90625 63.890625 63.28125 
Q 74.421875 53.65625 74.421875 36.53125 
Q 74.421875 19.34375 63.875 9.671875 
Q 53.328125 0 34.515625 0 
z
" id="DejaVuSerif-68"/>
      <path d="M 24.703125 0 
L 5.609375 46.6875 
L -0.296875 46.6875 
L -0.296875 51.90625 
L 23.578125 51.90625 
L 23.578125 46.6875 
L 15.28125 46.6875 
L 29.890625 10.984375 
L 44.484375 46.6875 
L 36.71875 46.6875 
L 36.71875 51.90625 
L 56.203125 51.90625 
L 56.203125 46.6875 
L 50.390625 46.6875 
L 31.296875 0 
z
" id="DejaVuSerif-118"/>
      <path d="M 30.078125 3.421875 
Q 37.3125 3.421875 40.984375 9.125 
Q 44.671875 14.84375 44.671875 25.984375 
Q 44.671875 37.109375 40.984375 42.796875 
Q 37.3125 48.484375 30.078125 48.484375 
Q 22.859375 48.484375 19.171875 42.796875 
Q 15.484375 37.109375 15.484375 25.984375 
Q 15.484375 14.84375 19.1875 9.125 
Q 22.90625 3.421875 30.078125 3.421875 
z
M 30.078125 -1.421875 
Q 18.75 -1.421875 11.859375 6.078125 
Q 4.984375 13.578125 4.984375 25.984375 
Q 4.984375 38.375 11.84375 45.84375 
Q 18.703125 53.328125 30.078125 53.328125 
Q 41.453125 53.328125 48.3125 45.84375 
Q 55.171875 38.375 55.171875 25.984375 
Q 55.171875 13.578125 48.3125 6.078125 
Q 41.453125 -1.421875 30.078125 -1.421875 
z
" id="DejaVuSerif-111"/>
     </defs>
     <g style="fill:#262626;" transform="translate(180.995563 228.021625)scale(0.088 -0.088)">
      <use xlink:href="#DejaVuSerif-77"/>
      <use x="102.392578" xlink:href="#DejaVuSerif-101"/>
      <use x="161.572266" xlink:href="#DejaVuSerif-97"/>
      <use x="221.191406" xlink:href="#DejaVuSerif-110"/>
      <use x="285.595703" xlink:href="#DejaVuSerif-32"/>
      <use x="317.382812" xlink:href="#DejaVuSerif-43"/>
      <use x="401.171875" xlink:href="#DejaVuSerif-32"/>
      <use x="432.958984" xlink:href="#DejaVuSerif-83"/>
      <use x="501.464844" xlink:href="#DejaVuSerif-116"/>
      <use x="541.650391" xlink:href="#DejaVuSerif-97"/>
      <use x="601.269531" xlink:href="#DejaVuSerif-110"/>
      <use x="665.673828" xlink:href="#DejaVuSerif-100"/>
      <use x="729.6875" xlink:href="#DejaVuSerif-97"/>
      <use x="789.306641" xlink:href="#DejaVuSerif-114"/>
      <use x="837.109375" xlink:href="#DejaVuSerif-100"/>
      <use x="901.123047" xlink:href="#DejaVuSerif-32"/>
      <use x="932.910156" xlink:href="#DejaVuSerif-68"/>
      <use x="1013.085938" xlink:href="#DejaVuSerif-101"/>
      <use x="1072.265625" xlink:href="#DejaVuSerif-118"/>
      <use x="1128.759766" xlink:href="#DejaVuSerif-105"/>
      <use x="1160.742188" xlink:href="#DejaVuSerif-97"/>
      <use x="1220.361328" xlink:href="#DejaVuSerif-116"/>
      <use x="1260.546875" xlink:href="#DejaVuSerif-105"/>
      <use x="1292.529297" xlink:href="#DejaVuSerif-111"/>
      <use x="1352.734375" xlink:href="#DejaVuSerif-110"/>
     </g>
    </g>
    <g id="line2d_9">
     <path d="M 323.306687 224.941625 
L 340.906687 224.941625 
" style="fill:none;stroke:#00b388;stroke-linecap:round;stroke-width:1.2;"/>
    </g>
    <g id="line2d_10"/>
    <g id="text_11">
     <!-- Mean -->
     <g style="fill:#262626;" transform="translate(347.946687 228.021625)scale(0.088 -0.088)">
      <use xlink:href="#DejaVuSerif-77"/>
      <use x="102.392578" xlink:href="#DejaVuSerif-101"/>
      <use x="161.572266" xlink:href="#DejaVuSerif-97"/>
      <use x="221.191406" xlink:href="#DejaVuSerif-110"/>
     </g>
    </g>
    <g id="line2d_11">
     <path d="M 390.680313 224.941625 
L 408.280313 224.941625 
" style="fill:none;stroke:#f6be00;stroke-linecap:round;stroke-width:1.2;"/>
    </g>
    <g id="line2d_12"/>
    <g id="text_12">
     <!-- Mean - Standard Deviation -->
     <defs>
      <path d="M 4.390625 30.609375 
L 29.390625 30.609375 
L 29.390625 23 
L 4.390625 23 
z
" id="DejaVuSerif-45"/>
     </defs>
     <g style="fill:#262626;" transform="translate(415.320312 228.021625)scale(0.088 -0.088)">
      <use xlink:href="#DejaVuSerif-77"/>
      <use x="102.392578" xlink:href="#DejaVuSerif-101"/>
      <use x="161.572266" xlink:href="#DejaVuSerif-97"/>
      <use x="221.191406" xlink:href="#DejaVuSerif-110"/>
      <use x="285.595703" xlink:href="#DejaVuSerif-32"/>
      <use x="317.382812" xlink:href="#DejaVuSerif-45"/>
      <use x="351.171875" xlink:href="#DejaVuSerif-32"/>
      <use x="382.958984" xlink:href="#DejaVuSerif-83"/>
      <use x="451.464844" xlink:href="#DejaVuSerif-116"/>
      <use x="491.650391" xlink:href="#DejaVuSerif-97"/>
      <use x="551.269531" xlink:href="#DejaVuSerif-110"/>
      <use x="615.673828" xlink:href="#DejaVuSerif-100"/>
      <use x="679.6875" xlink:href="#DejaVuSerif-97"/>
      <use x="739.306641" xlink:href="#DejaVuSerif-114"/>
      <use x="787.109375" xlink:href="#DejaVuSerif-100"/>
      <use x="851.123047" xlink:href="#DejaVuSerif-32"/>
      <use x="882.910156" xlink:href="#DejaVuSerif-68"/>
      <use x="963.085938" xlink:href="#DejaVuSerif-101"/>
      <use x="1022.265625" xlink:href="#DejaVuSerif-118"/>
      <use x="1078.759766" xlink:href="#DejaVuSerif-105"/>
      <use x="1110.742188" xlink:href="#DejaVuSerif-97"/>
      <use x="1170.361328" xlink:href="#DejaVuSerif-116"/>
      <use x="1210.546875" xlink:href="#DejaVuSerif-105"/>
      <use x="1242.529297" xlink:href="#DejaVuSerif-111"/>
      <use x="1302.734375" xlink:href="#DejaVuSerif-110"/>
     </g>
    </g>
   </g>
  </g>
  <g id="axes_3">
   <g id="patch_7">
    <path d="M 46.98724 434.89201 
L 644.99976 434.89201 
L 644.99976 242.493685 
L 46.98724 242.493685 
z
" style="fill:#ffffff;"/>
   </g>
   <g id="matplotlib.axis_3">
    <g id="xtick_1">
     <g id="text_13">
      <!-- 0 -->
      <g style="fill:#262626;" transform="translate(71.370127 449.878635)scale(0.088 -0.088)">
       <use xlink:href="#DejaVuSerif-48"/>
      </g>
     </g>
    </g>
    <g id="xtick_2">
     <g id="text_14">
      <!-- 20 -->
      <g style="fill:#262626;" transform="translate(175.168224 449.878635)scale(0.088 -0.088)">
       <use xlink:href="#DejaVuSerif-50"/>
       <use x="63.623047" xlink:href="#DejaVuSerif-48"/>
      </g>
     </g>
    </g>
    <g id="xtick_3">
     <g id="text_15">
      <!-- 40 -->
      <g style="fill:#262626;" transform="translate(281.765822 449.878635)scale(0.088 -0.088)">
       <use xlink:href="#DejaVuSerif-52"/>
       <use x="63.623047" xlink:href="#DejaVuSerif-48"/>
      </g>
     </g>
    </g>
    <g id="xtick_4">
     <g id="text_16">
      <!-- 60 -->
      <g style="fill:#262626;" transform="translate(388.363419 449.878635)scale(0.088 -0.088)">
       <use xlink:href="#DejaVuSerif-54"/>
       <use x="63.623047" xlink:href="#DejaVuSerif-48"/>
      </g>
     </g>
    </g>
    <g id="xtick_5">
     <g id="text_17">
      <!-- 80 -->
      <g style="fill:#262626;" transform="translate(494.961016 449.878635)scale(0.088 -0.088)">
       <use xlink:href="#DejaVuSerif-56"/>
       <use x="63.623047" xlink:href="#DejaVuSerif-48"/>
      </g>
     </g>
    </g>
    <g id="xtick_6">
     <g id="text_18">
      <!-- 100 -->
      <g style="fill:#262626;" transform="translate(598.759113 449.878635)scale(0.088 -0.088)">
       <use xlink:href="#DejaVuSerif-49"/>
       <use x="63.623047" xlink:href="#DejaVuSerif-48"/>
       <use x="127.246094" xlink:href="#DejaVuSerif-48"/>
      </g>
     </g>
    </g>
    <g id="text_19">
     <!-- Spectral Band -->
     <defs>
      <path d="M 24.703125 5.171875 
L 39.3125 5.171875 
Q 48.09375 5.171875 52.140625 8.984375 
Q 56.203125 12.796875 56.203125 21.09375 
Q 56.203125 29.34375 52.171875 33.125 
Q 48.140625 36.921875 39.3125 36.921875 
L 24.703125 36.921875 
z
M 24.703125 42.09375 
L 37.109375 42.09375 
Q 45.125 42.09375 48.796875 45.171875 
Q 52.484375 48.25 52.484375 54.890625 
Q 52.484375 61.578125 48.796875 64.625 
Q 45.125 67.671875 37.109375 67.671875 
L 24.703125 67.671875 
z
M 5.515625 0 
L 5.515625 5.171875 
L 14.796875 5.171875 
L 14.796875 67.671875 
L 5.515625 67.671875 
L 5.515625 72.90625 
L 41.5 72.90625 
Q 52.546875 72.90625 58.125 68.390625 
Q 63.71875 63.875 63.71875 54.890625 
Q 63.71875 48.390625 59.828125 44.53125 
Q 55.953125 40.671875 48.484375 39.796875 
Q 57.765625 38.625 62.578125 33.859375 
Q 67.390625 29.109375 67.390625 21.09375 
Q 67.390625 10.25 60.546875 5.125 
Q 53.71875 0 39.203125 0 
z
" id="DejaVuSerif-66"/>
     </defs>
     <g style="fill:#262626;" transform="translate(311.40425 463.00326)scale(0.096 -0.096)">
      <use xlink:href="#DejaVuSerif-83"/>
      <use x="68.505859" xlink:href="#DejaVuSerif-112"/>
      <use x="132.519531" xlink:href="#DejaVuSerif-101"/>
      <use x="191.699219" xlink:href="#DejaVuSerif-99"/>
      <use x="247.705078" xlink:href="#DejaVuSerif-116"/>
      <use x="287.890625" xlink:href="#DejaVuSerif-114"/>
      <use x="335.693359" xlink:href="#DejaVuSerif-97"/>
      <use x="395.3125" xlink:href="#DejaVuSerif-108"/>
      <use x="427.294922" xlink:href="#DejaVuSerif-32"/>
      <use x="459.082031" xlink:href="#DejaVuSerif-66"/>
      <use x="532.568359" xlink:href="#DejaVuSerif-97"/>
      <use x="592.1875" xlink:href="#DejaVuSerif-110"/>
      <use x="656.591797" xlink:href="#DejaVuSerif-100"/>
     </g>
    </g>
   </g>
   <g id="matplotlib.axis_4">
    <g id="ytick_8">
     <g id="text_20">
      <!-- 0 -->
      <g style="fill:#262626;" transform="translate(33.08824 430.317383)scale(0.088 -0.088)">
       <use xlink:href="#DejaVuSerif-48"/>
      </g>
     </g>
    </g>
    <g id="ytick_9">
     <g id="text_21">
      <!-- 1000 -->
      <g style="fill:#262626;" transform="translate(16.29124 391.592502)scale(0.088 -0.088)">
       <use xlink:href="#DejaVuSerif-49"/>
       <use x="63.623047" xlink:href="#DejaVuSerif-48"/>
       <use x="127.246094" xlink:href="#DejaVuSerif-48"/>
       <use x="190.869141" xlink:href="#DejaVuSerif-48"/>
      </g>
     </g>
    </g>
    <g id="ytick_10">
     <g id="text_22">
      <!-- 2000 -->
      <g style="fill:#262626;" transform="translate(16.29124 352.867621)scale(0.088 -0.088)">
       <use xlink:href="#DejaVuSerif-50"/>
       <use x="63.623047" xlink:href="#DejaVuSerif-48"/>
       <use x="127.246094" xlink:href="#DejaVuSerif-48"/>
       <use x="190.869141" xlink:href="#DejaVuSerif-48"/>
      </g>
     </g>
    </g>
    <g id="ytick_11">
     <g id="text_23">
      <!-- 3000 -->
      <defs>
       <path d="M 9.71875 69.828125 
Q 15.4375 71.96875 20.671875 73.09375 
Q 25.921875 74.21875 30.515625 74.21875 
Q 41.21875 74.21875 47.21875 69.59375 
Q 53.21875 64.984375 53.21875 56.78125 
Q 53.21875 50.203125 49.0625 45.78125 
Q 44.921875 41.359375 37.3125 39.796875 
Q 46.296875 38.53125 51.25 33.28125 
Q 56.203125 28.03125 56.203125 19.671875 
Q 56.203125 9.46875 49.34375 4.015625 
Q 42.484375 -1.421875 29.59375 -1.421875 
Q 23.875 -1.421875 18.421875 -0.1875 
Q 12.984375 1.03125 7.625 3.515625 
L 7.625 17.671875 
L 13.09375 17.671875 
Q 13.578125 10.640625 17.828125 7.03125 
Q 22.078125 3.421875 29.78125 3.421875 
Q 37.25 3.421875 41.578125 7.734375 
Q 45.90625 12.0625 45.90625 19.578125 
Q 45.90625 28.171875 41.453125 32.59375 
Q 37.015625 37.015625 28.421875 37.015625 
L 23.78125 37.015625 
L 23.78125 42 
L 26.21875 42 
Q 34.765625 42 39.03125 45.53125 
Q 43.3125 49.078125 43.3125 56.203125 
Q 43.3125 62.59375 39.796875 65.984375 
Q 36.28125 69.390625 29.6875 69.390625 
Q 23.09375 69.390625 19.453125 66.265625 
Q 15.828125 63.140625 15.1875 56.984375 
L 9.71875 56.984375 
z
" id="DejaVuSerif-51"/>
      </defs>
      <g style="fill:#262626;" transform="translate(16.29124 314.14274)scale(0.088 -0.088)">
       <use xlink:href="#DejaVuSerif-51"/>
       <use x="63.623047" xlink:href="#DejaVuSerif-48"/>
       <use x="127.246094" xlink:href="#DejaVuSerif-48"/>
       <use x="190.869141" xlink:href="#DejaVuSerif-48"/>
      </g>
     </g>
    </g>
    <g id="ytick_12">
     <g id="text_24">
      <!-- 4000 -->
      <g style="fill:#262626;" transform="translate(16.29124 275.417859)scale(0.088 -0.088)">
       <use xlink:href="#DejaVuSerif-52"/>
       <use x="63.623047" xlink:href="#DejaVuSerif-48"/>
       <use x="127.246094" xlink:href="#DejaVuSerif-48"/>
       <use x="190.869141" xlink:href="#DejaVuSerif-48"/>
      </g>
     </g>
    </g>
    <g id="text_25">
     <!-- Intensity -->
     <g style="fill:#262626;" transform="translate(10.15824 360.181097)rotate(-90)scale(0.096 -0.096)">
      <use xlink:href="#DejaVuSerif-73"/>
      <use x="39.501953" xlink:href="#DejaVuSerif-110"/>
      <use x="103.90625" xlink:href="#DejaVuSerif-116"/>
      <use x="144.091797" xlink:href="#DejaVuSerif-101"/>
      <use x="203.271484" xlink:href="#DejaVuSerif-110"/>
      <use x="267.675781" xlink:href="#DejaVuSerif-115"/>
      <use x="318.994141" xlink:href="#DejaVuSerif-105"/>
      <use x="350.976562" xlink:href="#DejaVuSerif-116"/>
      <use x="391.162109" xlink:href="#DejaVuSerif-121"/>
     </g>
    </g>
   </g>
   <g id="line2d_13">
    <path clip-path="url(#p90c59f7efa)" d="M 74.169627 390.964129 
L 79.499507 396.492284 
L 84.829387 400.208131 
L 90.159267 401.165042 
L 95.489147 401.710749 
L 100.819027 402.543538 
L 106.148906 403.215929 
L 111.478786 404.050141 
L 116.808666 404.622489 
L 122.138546 404.763377 
L 127.468426 404.748313 
L 132.798306 405.239497 
L 138.128186 405.512598 
L 143.458065 405.537327 
L 148.787945 405.592336 
L 154.117825 405.694082 
L 159.447705 405.490658 
L 164.777585 405.20095 
L 170.107465 404.863443 
L 175.437345 404.351972 
L 180.767224 403.61938 
L 186.097104 402.500872 
L 191.426984 401.202338 
L 196.756864 399.702445 
L 202.086744 397.915596 
L 207.416624 396.059829 
L 212.746504 394.83083 
L 218.076383 394.031683 
L 223.406263 393.423282 
L 228.736143 392.747622 
L 234.066023 392.078793 
L 239.395903 391.86368 
L 244.725783 392.130707 
L 250.055663 392.563114 
L 255.385542 393.217614 
L 260.715422 394.08584 
L 266.045302 395.054047 
L 271.375182 395.885123 
L 276.705062 396.50332 
L 282.034942 396.934255 
L 287.364822 397.324271 
L 292.694701 397.634487 
L 298.024581 397.82439 
L 303.354461 397.964926 
L 308.684341 398.119823 
L 314.014221 398.34757 
L 319.344101 398.733724 
L 324.673981 399.150683 
L 330.00386 399.312419 
L 335.33374 399.542135 
L 340.66362 399.571625 
L 345.9935 399.564199 
L 351.32338 399.769473 
L 356.65326 400.105446 
L 361.98314 400.585309 
L 367.313019 401.000408 
L 372.642899 401.281009 
L 377.972779 401.604118 
L 383.302659 401.962598 
L 388.632539 402.310526 
L 393.962419 402.414957 
L 399.292299 402.293137 
L 404.622178 402.064565 
L 409.952058 401.556654 
L 415.281938 400.432816 
L 420.611818 398.416229 
L 425.941698 395.086526 
L 431.271578 390.00836 
L 436.601458 383.051125 
L 441.931337 374.893978 
L 447.261217 366.197699 
L 452.591097 356.954464 
L 457.920977 346.318083 
L 463.250857 334.072567 
L 468.580737 321.282092 
L 473.910617 307.824745 
L 479.240496 295.36308 
L 484.570376 284.137517 
L 489.900256 274.82193 
L 495.230136 267.241454 
L 500.560016 260.923881 
L 505.889896 257.010576 
L 511.219776 256.973846 
L 516.549655 260.233646 
L 521.879535 257.587446 
L 527.209415 253.635477 
L 532.539295 251.663881 
L 537.869175 251.57237 
L 543.199055 251.775633 
L 548.528935 251.698057 
L 553.858814 251.239063 
L 559.188694 251.870569 
L 564.518574 252.940285 
L 569.848454 253.093511 
L 575.178334 253.291394 
L 580.508214 254.698597 
L 585.838094 256.777478 
L 591.167973 258.52121 
L 596.497853 259.60869 
L 601.827733 259.956045 
L 607.157613 260.291797 
L 612.487493 259.209452 
L 617.817373 257.591131 
" style="fill:none;stroke:#c8102e;stroke-linecap:round;stroke-width:1.2;"/>
   </g>
   <g id="line2d_14">
    <path clip-path="url(#p90c59f7efa)" d="M 74.169627 400.766312 
L 79.499507 405.301028 
L 84.829387 408.494517 
L 90.159267 409.244735 
L 95.489147 409.498381 
L 100.819027 410.106604 
L 106.148906 410.70253 
L 111.478786 411.481363 
L 116.808666 412.089194 
L 122.138546 412.376029 
L 127.468426 412.582835 
L 132.798306 413.158438 
L 138.128186 413.557037 
L 143.458065 413.762971 
L 148.787945 413.950693 
L 154.117825 414.16574 
L 159.447705 414.123476 
L 164.777585 413.944323 
L 170.107465 413.700561 
L 175.437345 413.289678 
L 180.767224 412.656405 
L 186.097104 411.649811 
L 191.426984 410.423557 
L 196.756864 409.030712 
L 202.086744 407.438783 
L 207.416624 405.858937 
L 212.746504 404.808133 
L 218.076383 404.1375 
L 223.406263 403.648775 
L 228.736143 403.10942 
L 234.066023 402.628961 
L 239.395903 402.542664 
L 244.725783 402.850846 
L 250.055663 403.348354 
L 255.385542 404.079665 
L 260.715422 405.005081 
L 266.045302 405.986853 
L 271.375182 406.837499 
L 276.705062 407.4904 
L 282.034942 407.958473 
L 287.364822 408.332729 
L 292.694701 408.651047 
L 298.024581 408.88418 
L 303.354461 409.087157 
L 308.684341 409.313313 
L 314.014221 409.607693 
L 319.344101 410.011473 
L 324.673981 410.405016 
L 330.00386 410.621251 
L 335.33374 410.819476 
L 340.66362 410.868627 
L 345.9935 410.955139 
L 351.32338 411.221019 
L 356.65326 411.596627 
L 361.98314 412.074533 
L 367.313019 412.514827 
L 372.642899 412.859155 
L 377.972779 413.235547 
L 383.302659 413.665881 
L 388.632539 414.055367 
L 393.962419 414.236997 
L 399.292299 414.219884 
L 404.622178 414.048163 
L 409.952058 413.570674 
L 415.281938 412.405123 
L 420.611818 410.352085 
L 425.941698 407.254967 
L 431.271578 402.573402 
L 436.601458 396.189585 
L 441.931337 388.780077 
L 447.261217 380.879379 
L 452.591097 372.448578 
L 457.920977 362.708235 
L 463.250857 351.553131 
L 468.580737 340.012686 
L 473.910617 328.032581 
L 479.240496 317.021684 
L 484.570376 307.182935 
L 489.900256 299.0201 
L 495.230136 292.392394 
L 500.560016 286.950891 
L 505.889896 283.730761 
L 511.219776 283.769397 
L 516.549655 285.763691 
L 521.879535 283.241126 
L 527.209415 280.080599 
L 532.539295 278.568181 
L 537.869175 278.514845 
L 543.199055 278.664336 
L 548.528935 278.556528 
L 553.858814 278.076524 
L 559.188694 278.539971 
L 564.518574 279.383046 
L 569.848454 279.453721 
L 575.178334 279.603237 
L 580.508214 280.837643 
L 585.838094 282.518915 
L 591.167973 283.756771 
L 596.497853 284.565191 
L 601.827733 284.888665 
L 607.157613 285.237821 
L 612.487493 284.301826 
L 617.817373 282.897316 
" style="fill:none;stroke:#00b388;stroke-linecap:round;stroke-width:1.2;"/>
   </g>
   <g id="line2d_15">
    <path clip-path="url(#p90c59f7efa)" d="M 74.169627 410.568495 
L 79.499507 414.109773 
L 84.829387 416.780903 
L 90.159267 417.324429 
L 95.489147 417.286013 
L 100.819027 417.669671 
L 106.148906 418.189131 
L 111.478786 418.912584 
L 116.808666 419.555899 
L 122.138546 419.98868 
L 127.468426 420.417358 
L 132.798306 421.07738 
L 138.128186 421.601475 
L 143.458065 421.988615 
L 148.787945 422.309051 
L 154.117825 422.637398 
L 159.447705 422.756295 
L 164.777585 422.687696 
L 170.107465 422.53768 
L 175.437345 422.227384 
L 180.767224 421.69343 
L 186.097104 420.79875 
L 191.426984 419.644775 
L 196.756864 418.35898 
L 202.086744 416.961971 
L 207.416624 415.658046 
L 212.746504 414.785436 
L 218.076383 414.243317 
L 223.406263 413.874268 
L 228.736143 413.471218 
L 234.066023 413.179129 
L 239.395903 413.221649 
L 244.725783 413.570984 
L 250.055663 414.133595 
L 255.385542 414.941717 
L 260.715422 415.924323 
L 266.045302 416.919659 
L 271.375182 417.789875 
L 276.705062 418.47748 
L 282.034942 418.98269 
L 287.364822 419.341188 
L 292.694701 419.667606 
L 298.024581 419.943969 
L 303.354461 420.209387 
L 308.684341 420.506802 
L 314.014221 420.867815 
L 319.344101 421.289222 
L 324.673981 421.659349 
L 330.00386 421.930083 
L 335.33374 422.096816 
L 340.66362 422.16563 
L 345.9935 422.34608 
L 351.32338 422.672565 
L 356.65326 423.087809 
L 361.98314 423.563758 
L 367.313019 424.029245 
L 372.642899 424.437301 
L 377.972779 424.866975 
L 383.302659 425.369163 
L 388.632539 425.800207 
L 393.962419 426.059037 
L 399.292299 426.146632 
L 404.622178 426.031761 
L 409.952058 425.584694 
L 415.281938 424.37743 
L 420.611818 422.287941 
L 425.941698 419.423407 
L 431.271578 415.138443 
L 436.601458 409.328045 
L 441.931337 402.666175 
L 447.261217 395.56106 
L 452.591097 387.942693 
L 457.920977 379.098386 
L 463.250857 369.033694 
L 468.580737 358.743281 
L 473.910617 348.240416 
L 479.240496 338.680288 
L 484.570376 330.228354 
L 489.900256 323.218269 
L 495.230136 317.543335 
L 500.560016 312.977901 
L 505.889896 310.450946 
L 511.219776 310.564948 
L 516.549655 311.293735 
L 521.879535 308.894806 
L 527.209415 306.525722 
L 532.539295 305.47248 
L 537.869175 305.457321 
L 543.199055 305.553038 
L 548.528935 305.414999 
L 553.858814 304.913984 
L 559.188694 305.209373 
L 564.518574 305.825807 
L 569.848454 305.813932 
L 575.178334 305.91508 
L 580.508214 306.976689 
L 585.838094 308.260351 
L 591.167973 308.992332 
L 596.497853 309.521692 
L 601.827733 309.821285 
L 607.157613 310.183845 
L 612.487493 309.394201 
L 617.817373 308.203501 
" style="fill:none;stroke:#f6be00;stroke-linecap:round;stroke-width:1.2;"/>
   </g>
   <g id="patch_8">
    <path d="M 46.98724 434.89201 
L 46.98724 242.493685 
" style="fill:none;stroke:#262626;stroke-linecap:square;stroke-linejoin:miter;"/>
   </g>
   <g id="patch_9">
    <path d="M 644.99976 434.89201 
L 644.99976 242.493685 
" style="fill:none;stroke:#262626;stroke-linecap:square;stroke-linejoin:miter;"/>
   </g>
   <g id="patch_10">
    <path d="M 46.98724 434.89201 
L 644.99976 434.89201 
" style="fill:none;stroke:#262626;stroke-linecap:square;stroke-linejoin:miter;"/>
   </g>
   <g id="patch_11">
    <path d="M 46.98724 242.493685 
L 644.99976 242.493685 
" style="fill:none;stroke:#262626;stroke-linecap:square;stroke-linejoin:miter;"/>
   </g>
  </g>
 </g>
 <defs>
  <clipPath id="pefa1bd6782">
   <rect height="192.398325" width="598.01252" x="46.98724" y="16.29474"/>
  </clipPath>
  <clipPath id="p90c59f7efa">
   <rect height="192.398325" width="598.01252" x="46.98724" y="242.493685"/>
  </clipPath>
 </defs>
</svg>
