<?xml version="1.0" encoding="utf-8" standalone="no"?>
<!DOCTYPE svg PUBLIC "-//W3C//DTD SVG 1.1//EN"
  "http://www.w3.org/Graphics/SVG/1.1/DTD/svg11.dtd">
<!-- Created with matplotlib (https://matplotlib.org/) -->
<svg height="468pt" version="1.1" viewBox="0 0 648 468" width="648pt" xmlns="http://www.w3.org/2000/svg" xmlns:xlink="http://www.w3.org/1999/xlink">
 <defs>
  <style type="text/css">
*{stroke-linecap:butt;stroke-linejoin:round;}
  </style>
 </defs>
 <g id="figure_1">
  <g id="patch_1">
   <path d="M 0 468 
L 648 468 
L 648 0 
L 0 0 
z
" style="fill:#ffffff;"/>
  </g>
  <g id="axes_1">
   <g id="patch_2">
    <path d="M 46.98724 207.454554 
L 644.99976 207.454554 
L 644.99976 16.29474 
L 46.98724 16.29474 
z
" style="fill:#ffffff;"/>
   </g>
   <g id="matplotlib.axis_1"/>
   <g id="matplotlib.axis_2">
    <g id="ytick_1">
     <g id="text_1">
      <!-- −0.4 -->
      <defs>
       <path d="M 10.59375 35.296875 
L 73.1875 35.296875 
L 73.1875 27.390625 
L 10.59375 27.390625 
z
" id="DejaVuSerif-8722"/>
       <path d="M 31.78125 3.421875 
Q 39.265625 3.421875 42.96875 11.625 
Q 46.6875 19.828125 46.6875 36.375 
Q 46.6875 52.984375 42.96875 61.1875 
Q 39.265625 69.390625 31.78125 69.390625 
Q 24.3125 69.390625 20.59375 61.1875 
Q 16.890625 52.984375 16.890625 36.375 
Q 16.890625 19.828125 20.59375 11.625 
Q 24.3125 3.421875 31.78125 3.421875 
z
M 31.78125 -1.421875 
Q 19.921875 -1.421875 13.25 8.53125 
Q 6.59375 18.5 6.59375 36.375 
Q 6.59375 54.296875 13.25 64.25 
Q 19.921875 74.21875 31.78125 74.21875 
Q 43.703125 74.21875 50.34375 64.25 
Q 56.984375 54.296875 56.984375 36.375 
Q 56.984375 18.5 50.34375 8.53125 
Q 43.703125 -1.421875 31.78125 -1.421875 
z
" id="DejaVuSerif-48"/>
       <path d="M 9.421875 5.078125 
Q 9.421875 7.8125 11.28125 9.71875 
Q 13.140625 11.625 15.921875 11.625 
Q 18.609375 11.625 20.5 9.71875 
Q 22.40625 7.8125 22.40625 5.078125 
Q 22.40625 2.390625 20.5 0.484375 
Q 18.609375 -1.421875 15.921875 -1.421875 
Q 13.140625 -1.421875 11.28125 0.453125 
Q 9.421875 2.34375 9.421875 5.078125 
z
" id="DejaVuSerif-46"/>
       <path d="M 34.90625 24.703125 
L 34.90625 63.484375 
L 10.015625 24.703125 
z
M 56.390625 0 
L 23.1875 0 
L 23.1875 5.171875 
L 34.90625 5.171875 
L 34.90625 19.484375 
L 3.078125 19.484375 
L 3.078125 24.8125 
L 35.015625 74.21875 
L 44.671875 74.21875 
L 44.671875 24.703125 
L 58.59375 24.703125 
L 58.59375 19.484375 
L 44.671875 19.484375 
L 44.671875 5.171875 
L 56.390625 5.171875 
z
" id="DejaVuSerif-52"/>
      </defs>
      <g style="fill:#262626;" transform="translate(17.318365 208.094916)scale(0.088 -0.088)">
       <use xlink:href="#DejaVuSerif-8722"/>
       <use x="83.789062" xlink:href="#DejaVuSerif-48"/>
       <use x="147.412109" xlink:href="#DejaVuSerif-46"/>
       <use x="179.199219" xlink:href="#DejaVuSerif-52"/>
      </g>
     </g>
    </g>
    <g id="ytick_2">
     <g id="text_2">
      <!-- −0.2 -->
      <defs>
       <path d="M 12.796875 55.515625 
L 7.328125 55.515625 
L 7.328125 68.5 
Q 12.546875 71.296875 17.84375 72.75 
Q 23.140625 74.21875 28.21875 74.21875 
Q 39.59375 74.21875 46.1875 68.703125 
Q 52.78125 63.1875 52.78125 53.71875 
Q 52.78125 43.015625 37.84375 28.125 
Q 36.671875 27 36.078125 26.421875 
L 17.671875 8.015625 
L 48.09375 8.015625 
L 48.09375 17 
L 53.8125 17 
L 53.8125 0 
L 6.78125 0 
L 6.78125 5.328125 
L 28.90625 27.390625 
Q 36.234375 34.71875 39.359375 40.84375 
Q 42.484375 46.96875 42.484375 53.71875 
Q 42.484375 61.078125 38.640625 65.234375 
Q 34.8125 69.390625 28.078125 69.390625 
Q 21.09375 69.390625 17.28125 65.921875 
Q 13.484375 62.453125 12.796875 55.515625 
z
" id="DejaVuSerif-50"/>
      </defs>
      <g style="fill:#262626;" transform="translate(17.318365 177.765495)scale(0.088 -0.088)">
       <use xlink:href="#DejaVuSerif-8722"/>
       <use x="83.789062" xlink:href="#DejaVuSerif-48"/>
       <use x="147.412109" xlink:href="#DejaVuSerif-46"/>
       <use x="179.199219" xlink:href="#DejaVuSerif-50"/>
      </g>
     </g>
    </g>
    <g id="ytick_3">
     <g id="text_3">
      <!-- 0.0 -->
      <g style="fill:#262626;" transform="translate(24.69249 147.436074)scale(0.088 -0.088)">
       <use xlink:href="#DejaVuSerif-48"/>
       <use x="63.623047" xlink:href="#DejaVuSerif-46"/>
       <use x="95.410156" xlink:href="#DejaVuSerif-48"/>
      </g>
     </g>
    </g>
    <g id="ytick_4">
     <g id="text_4">
      <!-- 0.2 -->
      <g style="fill:#262626;" transform="translate(24.69249 117.106653)scale(0.088 -0.088)">
       <use xlink:href="#DejaVuSerif-48"/>
       <use x="63.623047" xlink:href="#DejaVuSerif-46"/>
       <use x="95.410156" xlink:href="#DejaVuSerif-50"/>
      </g>
     </g>
    </g>
    <g id="ytick_5">
     <g id="text_5">
      <!-- 0.4 -->
      <g style="fill:#262626;" transform="translate(24.69249 86.777231)scale(0.088 -0.088)">
       <use xlink:href="#DejaVuSerif-48"/>
       <use x="63.623047" xlink:href="#DejaVuSerif-46"/>
       <use x="95.410156" xlink:href="#DejaVuSerif-52"/>
      </g>
     </g>
    </g>
    <g id="ytick_6">
     <g id="text_6">
      <!-- 0.6 -->
      <defs>
       <path d="M 32.71875 3.421875 
Q 39.59375 3.421875 43.296875 8.46875 
Q 47.015625 13.53125 47.015625 23 
Q 47.015625 32.46875 43.296875 37.515625 
Q 39.59375 42.578125 32.71875 42.578125 
Q 25.734375 42.578125 22.0625 37.6875 
Q 18.40625 32.8125 18.40625 23.578125 
Q 18.40625 13.875 22.109375 8.640625 
Q 25.828125 3.421875 32.71875 3.421875 
z
M 16.796875 40.140625 
Q 20.125 43.796875 24.3125 45.59375 
Q 28.515625 47.40625 33.796875 47.40625 
Q 44.671875 47.40625 51 40.859375 
Q 57.328125 34.328125 57.328125 23 
Q 57.328125 11.921875 50.515625 5.25 
Q 43.703125 -1.421875 32.328125 -1.421875 
Q 19.96875 -1.421875 13.328125 7.78125 
Q 6.6875 17 6.6875 34.078125 
Q 6.6875 53.21875 14.546875 63.71875 
Q 22.40625 74.21875 36.71875 74.21875 
Q 40.578125 74.21875 44.828125 73.484375 
Q 49.078125 72.75 53.515625 71.296875 
L 53.515625 59.28125 
L 48 59.28125 
Q 47.40625 64.203125 44.234375 66.796875 
Q 41.0625 69.390625 35.6875 69.390625 
Q 26.21875 69.390625 21.578125 62.203125 
Q 16.9375 55.03125 16.796875 40.140625 
z
" id="DejaVuSerif-54"/>
      </defs>
      <g style="fill:#262626;" transform="translate(24.69249 56.44781)scale(0.088 -0.088)">
       <use xlink:href="#DejaVuSerif-48"/>
       <use x="63.623047" xlink:href="#DejaVuSerif-46"/>
       <use x="95.410156" xlink:href="#DejaVuSerif-54"/>
      </g>
     </g>
    </g>
    <g id="ytick_7">
     <g id="text_7">
      <!-- 0.8 -->
      <defs>
       <path d="M 46.578125 19.921875 
Q 46.578125 27.734375 42.6875 32.046875 
Q 38.8125 36.375 31.78125 36.375 
Q 24.75 36.375 20.875 32.046875 
Q 17 27.734375 17 19.921875 
Q 17 12.0625 20.875 7.734375 
Q 24.75 3.421875 31.78125 3.421875 
Q 38.8125 3.421875 42.6875 7.734375 
Q 46.578125 12.0625 46.578125 19.921875 
z
M 44.578125 55.328125 
Q 44.578125 61.96875 41.203125 65.671875 
Q 37.84375 69.390625 31.78125 69.390625 
Q 25.78125 69.390625 22.390625 65.671875 
Q 19 61.96875 19 55.328125 
Q 19 48.640625 22.390625 44.921875 
Q 25.78125 41.21875 31.78125 41.21875 
Q 37.84375 41.21875 41.203125 44.921875 
Q 44.578125 48.640625 44.578125 55.328125 
z
M 39.3125 38.8125 
Q 47.609375 37.703125 52.25 32.6875 
Q 56.890625 27.6875 56.890625 19.921875 
Q 56.890625 9.671875 50.390625 4.125 
Q 43.890625 -1.421875 31.78125 -1.421875 
Q 19.734375 -1.421875 13.203125 4.125 
Q 6.6875 9.671875 6.6875 19.921875 
Q 6.6875 27.6875 11.328125 32.6875 
Q 15.96875 37.703125 24.3125 38.8125 
Q 16.9375 40.140625 13 44.40625 
Q 9.078125 48.6875 9.078125 55.328125 
Q 9.078125 64.109375 15.125 69.15625 
Q 21.1875 74.21875 31.78125 74.21875 
Q 42.390625 74.21875 48.4375 69.15625 
Q 54.5 64.109375 54.5 55.328125 
Q 54.5 48.6875 50.5625 44.40625 
Q 46.625 40.140625 39.3125 38.8125 
z
" id="DejaVuSerif-56"/>
      </defs>
      <g style="fill:#262626;" transform="translate(24.69249 26.118389)scale(0.088 -0.088)">
       <use xlink:href="#DejaVuSerif-48"/>
       <use x="63.623047" xlink:href="#DejaVuSerif-46"/>
       <use x="95.410156" xlink:href="#DejaVuSerif-56"/>
      </g>
     </g>
    </g>
    <g id="text_8">
     <!-- Scaled Intensity -->
     <defs>
      <path d="M 9.28125 3.515625 
L 9.28125 20.125 
L 14.890625 20.0625 
Q 15.140625 11.765625 19.703125 7.78125 
Q 24.265625 3.8125 33.59375 3.8125 
Q 42.28125 3.8125 46.84375 7.25 
Q 51.421875 10.6875 51.421875 17.28125 
Q 51.421875 22.5625 48.65625 25.390625 
Q 45.90625 28.21875 37.015625 30.90625 
L 27.390625 33.796875 
Q 16.9375 36.96875 12.671875 41.703125 
Q 8.40625 46.4375 8.40625 54.6875 
Q 8.40625 63.96875 14.984375 69.09375 
Q 21.578125 74.21875 33.5 74.21875 
Q 38.578125 74.21875 44.625 73.109375 
Q 50.6875 72.015625 57.515625 69.921875 
L 57.515625 54.390625 
L 52 54.390625 
Q 51.171875 62.109375 46.84375 65.546875 
Q 42.53125 69 33.6875 69 
Q 25.984375 69 21.953125 65.84375 
Q 17.921875 62.703125 17.921875 56.6875 
Q 17.921875 51.46875 20.9375 48.484375 
Q 23.96875 45.515625 33.796875 42.578125 
L 42.828125 39.890625 
Q 52.734375 36.921875 56.953125 32.296875 
Q 61.1875 27.6875 61.1875 19.921875 
Q 61.1875 9.328125 54.390625 3.953125 
Q 47.609375 -1.421875 34.1875 -1.421875 
Q 28.171875 -1.421875 21.9375 -0.1875 
Q 15.71875 1.03125 9.28125 3.515625 
z
" id="DejaVuSerif-83"/>
      <path d="M 51.421875 15.578125 
Q 49.515625 7.28125 44.09375 2.921875 
Q 38.671875 -1.421875 30.078125 -1.421875 
Q 18.75 -1.421875 11.859375 6.078125 
Q 4.984375 13.578125 4.984375 25.984375 
Q 4.984375 38.421875 11.859375 45.875 
Q 18.75 53.328125 30.078125 53.328125 
Q 35.015625 53.328125 39.890625 52.171875 
Q 44.78125 51.03125 49.703125 48.6875 
L 49.703125 35.40625 
L 44.484375 35.40625 
Q 43.453125 42.234375 40.015625 45.359375 
Q 36.578125 48.484375 30.171875 48.484375 
Q 22.90625 48.484375 19.1875 42.84375 
Q 15.484375 37.203125 15.484375 25.984375 
Q 15.484375 14.75 19.171875 9.078125 
Q 22.859375 3.421875 30.171875 3.421875 
Q 35.984375 3.421875 39.453125 6.4375 
Q 42.921875 9.46875 44.1875 15.578125 
z
" id="DejaVuSerif-99"/>
      <path d="M 39.796875 16.3125 
L 39.796875 27.296875 
L 28.21875 27.296875 
Q 21.53125 27.296875 18.25 24.40625 
Q 14.984375 21.53125 14.984375 15.578125 
Q 14.984375 10.15625 18.296875 6.984375 
Q 21.625 3.8125 27.296875 3.8125 
Q 32.90625 3.8125 36.34375 7.28125 
Q 39.796875 10.75 39.796875 16.3125 
z
M 48.78125 32.421875 
L 48.78125 5.171875 
L 56.78125 5.171875 
L 56.78125 0 
L 39.796875 0 
L 39.796875 5.609375 
Q 36.8125 2 32.90625 0.28125 
Q 29 -1.421875 23.78125 -1.421875 
Q 15.140625 -1.421875 10.0625 3.171875 
Q 4.984375 7.765625 4.984375 15.578125 
Q 4.984375 23.640625 10.796875 28.078125 
Q 16.609375 32.515625 27.203125 32.515625 
L 39.796875 32.515625 
L 39.796875 36.078125 
Q 39.796875 42 36.203125 45.234375 
Q 32.625 48.484375 26.125 48.484375 
Q 20.75 48.484375 17.578125 46.046875 
Q 14.40625 43.609375 13.625 38.8125 
L 8.984375 38.8125 
L 8.984375 49.3125 
Q 13.671875 51.3125 18.09375 52.3125 
Q 22.515625 53.328125 26.703125 53.328125 
Q 37.5 53.328125 43.140625 47.96875 
Q 48.78125 42.625 48.78125 32.421875 
z
" id="DejaVuSerif-97"/>
      <path d="M 20.515625 5.171875 
L 29 5.171875 
L 29 0 
L 2.875 0 
L 2.875 5.171875 
L 11.53125 5.171875 
L 11.53125 70.796875 
L 2.875 70.796875 
L 2.875 75.984375 
L 20.515625 75.984375 
z
" id="DejaVuSerif-108"/>
      <path d="M 54.203125 25 
L 15.484375 25 
L 15.484375 24.609375 
Q 15.484375 14.109375 19.4375 8.765625 
Q 23.390625 3.421875 31.109375 3.421875 
Q 37.015625 3.421875 40.796875 6.515625 
Q 44.578125 9.625 46.09375 15.71875 
L 53.328125 15.71875 
Q 51.171875 7.171875 45.375 2.875 
Q 39.59375 -1.421875 30.171875 -1.421875 
Q 18.796875 -1.421875 11.890625 6.078125 
Q 4.984375 13.578125 4.984375 25.984375 
Q 4.984375 38.28125 11.765625 45.796875 
Q 18.5625 53.328125 29.59375 53.328125 
Q 41.359375 53.328125 47.65625 46.0625 
Q 53.953125 38.8125 54.203125 25 
z
M 43.609375 30.171875 
Q 43.3125 39.265625 39.765625 43.875 
Q 36.234375 48.484375 29.59375 48.484375 
Q 23.390625 48.484375 19.828125 43.84375 
Q 16.265625 39.203125 15.484375 30.171875 
z
" id="DejaVuSerif-101"/>
      <path d="M 52.484375 5.171875 
L 61.078125 5.171875 
L 61.078125 0 
L 43.5 0 
L 43.5 8.109375 
Q 40.875 3.21875 36.796875 0.890625 
Q 32.71875 -1.421875 26.703125 -1.421875 
Q 17.140625 -1.421875 11.0625 6.171875 
Q 4.984375 13.765625 4.984375 25.984375 
Q 4.984375 38.1875 11.03125 45.75 
Q 17.09375 53.328125 26.703125 53.328125 
Q 32.71875 53.328125 36.796875 51 
Q 40.875 48.6875 43.5 43.796875 
L 43.5 70.796875 
L 35.015625 70.796875 
L 35.015625 75.984375 
L 52.484375 75.984375 
z
M 43.5 23.390625 
L 43.5 28.515625 
Q 43.5 37.84375 39.90625 42.765625 
Q 36.328125 47.703125 29.5 47.703125 
Q 22.5625 47.703125 19.015625 42.234375 
Q 15.484375 36.765625 15.484375 25.984375 
Q 15.484375 15.234375 19.015625 9.71875 
Q 22.5625 4.203125 29.5 4.203125 
Q 36.328125 4.203125 39.90625 9.109375 
Q 43.5 14.015625 43.5 23.390625 
z
" id="DejaVuSerif-100"/>
      <path id="DejaVuSerif-32"/>
      <path d="M 24.703125 5.171875 
L 33.984375 5.171875 
L 33.984375 0 
L 5.515625 0 
L 5.515625 5.171875 
L 14.796875 5.171875 
L 14.796875 67.671875 
L 5.515625 67.671875 
L 5.515625 72.90625 
L 33.984375 72.90625 
L 33.984375 67.671875 
L 24.703125 67.671875 
z
" id="DejaVuSerif-73"/>
      <path d="M 4.109375 0 
L 4.109375 5.171875 
L 12.203125 5.171875 
L 12.203125 46.6875 
L 3.609375 46.6875 
L 3.609375 51.90625 
L 21.1875 51.90625 
L 21.1875 42.671875 
Q 23.6875 47.953125 27.65625 50.640625 
Q 31.640625 53.328125 36.921875 53.328125 
Q 45.515625 53.328125 49.5625 48.390625 
Q 53.609375 43.453125 53.609375 33.015625 
L 53.609375 5.171875 
L 61.625 5.171875 
L 61.625 0 
L 36.8125 0 
L 36.8125 5.171875 
L 44.578125 5.171875 
L 44.578125 30.171875 
Q 44.578125 39.703125 42.234375 43.234375 
Q 39.890625 46.78125 33.984375 46.78125 
Q 27.734375 46.78125 24.453125 42.203125 
Q 21.1875 37.640625 21.1875 28.90625 
L 21.1875 5.171875 
L 29 5.171875 
L 29 0 
z
" id="DejaVuSerif-110"/>
      <path d="M 10.796875 46.6875 
L 2.875 46.6875 
L 2.875 51.90625 
L 10.796875 51.90625 
L 10.796875 68.015625 
L 19.828125 68.015625 
L 19.828125 51.90625 
L 36.71875 51.90625 
L 36.71875 46.6875 
L 19.828125 46.6875 
L 19.828125 13.71875 
Q 19.828125 7.125 21.09375 5.265625 
Q 22.359375 3.421875 25.78125 3.421875 
Q 29.296875 3.421875 30.90625 5.484375 
Q 32.515625 7.5625 32.625 12.203125 
L 39.40625 12.203125 
Q 39.015625 5.125 35.546875 1.84375 
Q 32.078125 -1.421875 25 -1.421875 
Q 17.234375 -1.421875 14.015625 2.015625 
Q 10.796875 5.46875 10.796875 13.71875 
z
" id="DejaVuSerif-116"/>
      <path d="M 5.609375 2.875 
L 5.609375 14.984375 
L 10.796875 14.984375 
Q 10.984375 9.1875 14.421875 6.296875 
Q 17.875 3.421875 24.609375 3.421875 
Q 30.671875 3.421875 33.84375 5.6875 
Q 37.015625 7.953125 37.015625 12.3125 
Q 37.015625 15.71875 34.6875 17.8125 
Q 32.375 19.921875 24.90625 22.3125 
L 18.40625 24.515625 
Q 11.71875 26.65625 8.71875 29.875 
Q 5.71875 33.109375 5.71875 38.09375 
Q 5.71875 45.21875 10.9375 49.265625 
Q 16.15625 53.328125 25.390625 53.328125 
Q 29.5 53.328125 34.03125 52.25 
Q 38.578125 51.171875 43.40625 49.125 
L 43.40625 37.796875 
L 38.234375 37.796875 
Q 38.03125 42.828125 34.703125 45.65625 
Q 31.390625 48.484375 25.6875 48.484375 
Q 20.015625 48.484375 17.109375 46.484375 
Q 14.203125 44.484375 14.203125 40.484375 
Q 14.203125 37.203125 16.40625 35.21875 
Q 18.609375 33.25 25.203125 31.203125 
L 32.328125 29 
Q 39.703125 26.703125 42.9375 23.265625 
Q 46.1875 19.828125 46.1875 14.40625 
Q 46.1875 7.03125 40.546875 2.796875 
Q 34.90625 -1.421875 25 -1.421875 
Q 19.96875 -1.421875 15.1875 -0.34375 
Q 10.40625 0.734375 5.609375 2.875 
z
" id="DejaVuSerif-115"/>
      <path d="M 9.71875 68.015625 
Q 9.71875 70.265625 11.34375 71.921875 
Q 12.984375 73.578125 15.28125 73.578125 
Q 17.53125 73.578125 19.15625 71.921875 
Q 20.796875 70.265625 20.796875 68.015625 
Q 20.796875 65.71875 19.1875 64.109375 
Q 17.578125 62.5 15.28125 62.5 
Q 12.984375 62.5 11.34375 64.109375 
Q 9.71875 65.71875 9.71875 68.015625 
z
M 21.1875 5.171875 
L 29.6875 5.171875 
L 29.6875 0 
L 3.609375 0 
L 3.609375 5.171875 
L 12.203125 5.171875 
L 12.203125 46.6875 
L 3.609375 46.6875 
L 3.609375 51.90625 
L 21.1875 51.90625 
z
" id="DejaVuSerif-105"/>
      <path d="M 21.578125 -9.515625 
L 25 -0.875 
L 5.609375 46.6875 
L -0.296875 46.6875 
L -0.296875 51.90625 
L 23.578125 51.90625 
L 23.578125 46.6875 
L 15.28125 46.6875 
L 29.890625 10.984375 
L 44.484375 46.6875 
L 36.71875 46.6875 
L 36.71875 51.90625 
L 56.203125 51.90625 
L 56.203125 46.6875 
L 50.390625 46.6875 
L 26.609375 -11.71875 
Q 24.171875 -17.78125 21.1875 -20 
Q 18.21875 -22.21875 12.796875 -22.21875 
Q 10.5 -22.21875 8.078125 -21.828125 
Q 5.671875 -21.4375 3.21875 -20.703125 
L 3.21875 -10.796875 
L 7.8125 -10.796875 
Q 8.109375 -14.109375 9.5 -15.546875 
Q 10.890625 -17 13.8125 -17 
Q 16.5 -17 18.140625 -15.5 
Q 19.78125 -14.015625 21.578125 -9.515625 
z
" id="DejaVuSerif-121"/>
     </defs>
     <g style="fill:#262626;" transform="translate(11.185365 151.175397)rotate(-90)scale(0.096 -0.096)">
      <use xlink:href="#DejaVuSerif-83"/>
      <use x="68.505859" xlink:href="#DejaVuSerif-99"/>
      <use x="124.511719" xlink:href="#DejaVuSerif-97"/>
      <use x="184.130859" xlink:href="#DejaVuSerif-108"/>
      <use x="216.113281" xlink:href="#DejaVuSerif-101"/>
      <use x="275.292969" xlink:href="#DejaVuSerif-100"/>
      <use x="339.306641" xlink:href="#DejaVuSerif-32"/>
      <use x="371.09375" xlink:href="#DejaVuSerif-73"/>
      <use x="410.595703" xlink:href="#DejaVuSerif-110"/>
      <use x="475" xlink:href="#DejaVuSerif-116"/>
      <use x="515.185547" xlink:href="#DejaVuSerif-101"/>
      <use x="574.365234" xlink:href="#DejaVuSerif-110"/>
      <use x="638.769531" xlink:href="#DejaVuSerif-115"/>
      <use x="690.087891" xlink:href="#DejaVuSerif-105"/>
      <use x="722.070312" xlink:href="#DejaVuSerif-116"/>
      <use x="762.255859" xlink:href="#DejaVuSerif-121"/>
     </g>
    </g>
   </g>
   <g id="line2d_1">
    <path clip-path="url(#pf7a16d5a36)" d="M 74.169627 87.122085 
L 79.499507 62.229344 
L 84.829387 49.054275 
L 90.159267 53.887694 
L 95.489147 49.88013 
L 100.819027 39.879522 
L 106.148906 35.953434 
L 111.478786 38.514327 
L 116.808666 43.756511 
L 122.138546 31.446562 
L 127.468426 35.051643 
L 132.798306 29.643144 
L 138.128186 32.485001 
L 143.458065 24.983822 
L 148.787945 35.86318 
L 154.117825 28.826789 
L 159.447705 27.899546 
L 164.777585 29.550224 
L 170.107465 29.871366 
L 175.437345 32.686894 
L 180.767224 30.806582 
L 186.097104 29.732782 
L 191.426984 30.633343 
L 196.756864 28.514605 
L 202.086744 26.009255 
L 207.416624 27.609669 
L 212.746504 30.433819 
L 218.076383 29.912819 
L 223.406263 30.701921 
L 228.736143 32.781838 
L 234.066023 32.691169 
L 239.395903 34.319169 
L 244.725783 35.93221 
L 250.055663 33.578461 
L 255.385542 31.533362 
L 260.715422 32.948569 
L 266.045302 31.394136 
L 271.375182 38.261166 
L 276.705062 36.844467 
L 282.034942 34.411465 
L 287.364822 32.944068 
L 292.694701 30.93893 
L 298.024581 31.351328 
L 303.354461 35.427308 
L 308.684341 35.448504 
L 314.014221 38.822462 
L 319.344101 40.478835 
L 324.673981 38.28182 
L 330.00386 38.748768 
L 335.33374 36.274124 
L 340.66362 37.279662 
L 345.9935 37.212838 
L 351.32338 39.930528 
L 356.65326 36.177697 
L 361.98314 36.347935 
L 367.313019 36.629541 
L 372.642899 37.345917 
L 377.972779 38.081166 
L 383.302659 38.438445 
L 388.632539 38.511344 
L 393.962419 37.896203 
L 399.292299 36.520406 
L 404.622178 34.660224 
L 409.952058 35.941376 
L 415.281938 40.368145 
L 420.611818 40.260076 
L 425.941698 43.742266 
L 431.271578 40.23418 
L 436.601458 40.656449 
L 441.931337 44.383555 
L 447.261217 39.371582 
L 452.591097 44.556704 
L 457.920977 43.32551 
L 463.250857 50.74919 
L 468.580737 45.04756 
L 473.910617 46.589067 
L 479.240496 46.464729 
L 484.570376 44.246499 
L 489.900256 44.435466 
L 495.230136 45.152293 
L 500.560016 43.690509 
L 505.889896 42.302464 
L 511.219776 43.556056 
L 516.549655 47.328664 
L 521.879535 51.173764 
L 527.209415 47.73836 
L 532.539295 51.216238 
L 537.869175 47.824238 
L 543.199055 44.44972 
L 548.528935 41.94983 
L 553.858814 42.065284 
L 559.188694 43.472763 
L 564.518574 42.491882 
L 569.848454 44.718156 
L 575.178334 44.907629 
L 580.508214 44.390913 
L 585.838094 41.674226 
L 591.167973 43.999069 
L 596.497853 44.850965 
L 601.827733 47.671382 
L 607.157613 51.589181 
L 612.487493 52.758387 
L 617.817373 52.75591 
" style="fill:none;stroke:#c8102e;stroke-linecap:round;stroke-width:1.2;"/>
   </g>
   <g id="line2d_2">
    <path clip-path="url(#pf7a16d5a36)" d="M 74.169627 129.569001 
L 79.499507 112.035202 
L 84.829387 109.933656 
L 90.159267 113.655151 
L 95.489147 106.05177 
L 100.819027 100.960277 
L 106.148906 95.963186 
L 111.478786 95.718364 
L 116.808666 100.727061 
L 122.138546 90.879594 
L 127.468426 89.461404 
L 132.798306 90.427149 
L 138.128186 95.621594 
L 143.458065 90.242037 
L 148.787945 92.584673 
L 154.117825 92.355253 
L 159.447705 91.336188 
L 164.777585 91.362107 
L 170.107465 93.000511 
L 175.437345 94.461812 
L 180.767224 94.729516 
L 186.097104 92.629578 
L 191.426984 93.218086 
L 196.756864 92.747007 
L 202.086744 90.814817 
L 207.416624 93.069464 
L 212.746504 95.091875 
L 218.076383 97.342252 
L 223.406263 97.487646 
L 228.736143 99.577461 
L 234.066023 98.703153 
L 239.395903 101.846037 
L 244.725783 102.77841 
L 250.055663 102.192944 
L 255.385542 98.490893 
L 260.715422 99.842743 
L 266.045302 102.502765 
L 271.375182 102.859859 
L 276.705062 107.393016 
L 282.034942 104.643156 
L 287.364822 104.61853 
L 292.694701 103.9976 
L 298.024581 104.358888 
L 303.354461 105.987196 
L 308.684341 104.093317 
L 314.014221 109.585325 
L 319.344101 108.154848 
L 324.673981 104.680487 
L 330.00386 104.097444 
L 335.33374 104.214077 
L 340.66362 104.963476 
L 345.9935 105.837273 
L 351.32338 108.667723 
L 356.65326 107.843328 
L 361.98314 106.709395 
L 367.313019 107.959134 
L 372.642899 106.047603 
L 377.972779 108.442095 
L 383.302659 110.813996 
L 388.632539 109.958585 
L 393.962419 109.800597 
L 399.292299 108.595514 
L 404.622178 107.369777 
L 409.952058 107.126745 
L 415.281938 110.146998 
L 420.611818 110.513779 
L 425.941698 115.6343 
L 431.271578 111.684695 
L 436.601458 113.455494 
L 441.931337 114.644634 
L 447.261217 112.376158 
L 452.591097 115.093292 
L 457.920977 112.782353 
L 463.250857 116.781356 
L 468.580737 118.169256 
L 473.910617 119.106563 
L 479.240496 118.689841 
L 484.570376 116.90019 
L 489.900256 118.03838 
L 495.230136 117.041162 
L 500.560016 117.400046 
L 505.889896 115.569367 
L 511.219776 112.286176 
L 516.549655 117.151082 
L 521.879535 121.482089 
L 527.209415 123.251916 
L 532.539295 120.800454 
L 537.869175 120.381819 
L 543.199055 118.065859 
L 548.528935 115.155407 
L 553.858814 116.08092 
L 559.188694 115.622062 
L 564.518574 112.759876 
L 569.848454 114.212443 
L 575.178334 114.352563 
L 580.508214 112.85207 
L 585.838094 113.616587 
L 591.167973 114.342438 
L 596.497853 114.111571 
L 601.827733 116.400424 
L 607.157613 118.805559 
L 612.487493 120.066204 
L 617.817373 117.336575 
" style="fill:none;stroke:#00b388;stroke-linecap:round;stroke-width:1.2;"/>
   </g>
   <g id="line2d_3">
    <path clip-path="url(#pf7a16d5a36)" d="M 74.169627 172.01592 
L 79.499507 161.841063 
L 84.829387 170.813038 
L 90.159267 173.422608 
L 95.489147 162.223414 
L 100.819027 162.041037 
L 106.148906 155.972935 
L 111.478786 152.922401 
L 116.808666 157.697615 
L 122.138546 150.312626 
L 127.468426 143.871164 
L 132.798306 151.211158 
L 138.128186 158.758191 
L 143.458065 155.500256 
L 148.787945 149.306166 
L 154.117825 155.883712 
L 159.447705 154.77283 
L 164.777585 153.173989 
L 170.107465 156.129655 
L 175.437345 156.23673 
L 180.767224 158.65245 
L 186.097104 155.526374 
L 191.426984 155.802828 
L 196.756864 156.979413 
L 202.086744 155.620378 
L 207.416624 158.529254 
L 212.746504 159.749931 
L 218.076383 164.771685 
L 223.406263 164.273367 
L 228.736143 166.373088 
L 234.066023 164.715137 
L 239.395903 169.372904 
L 244.725783 169.624605 
L 250.055663 170.807427 
L 255.385542 165.448425 
L 260.715422 166.736912 
L 266.045302 173.611398 
L 271.375182 167.458548 
L 276.705062 177.941569 
L 282.034942 174.874847 
L 287.364822 176.292997 
L 292.694701 177.056271 
L 298.024581 177.366444 
L 303.354461 176.547084 
L 308.684341 172.738126 
L 314.014221 180.348189 
L 319.344101 175.830862 
L 324.673981 171.079154 
L 330.00386 169.446119 
L 335.33374 172.15403 
L 340.66362 172.64729 
L 345.9935 174.461708 
L 351.32338 177.404918 
L 356.65326 179.50896 
L 361.98314 177.070857 
L 367.313019 179.288727 
L 372.642899 174.749288 
L 377.972779 178.803024 
L 383.302659 183.189552 
L 388.632539 181.405823 
L 393.962419 181.70499 
L 399.292299 180.67062 
L 404.622178 180.079335 
L 409.952058 178.312109 
L 415.281938 179.925855 
L 420.611818 180.767485 
L 425.941698 187.52633 
L 431.271578 183.13521 
L 436.601458 186.254534 
L 441.931337 184.905717 
L 447.261217 185.380728 
L 452.591097 185.629885 
L 457.920977 182.239196 
L 463.250857 182.813517 
L 468.580737 191.290957 
L 473.910617 191.624058 
L 479.240496 190.914958 
L 484.570376 189.553876 
L 489.900256 191.641295 
L 495.230136 188.930031 
L 500.560016 191.109579 
L 505.889896 188.836266 
L 511.219776 181.016293 
L 516.549655 186.973495 
L 521.879535 191.790418 
L 527.209415 198.765472 
L 532.539295 190.384675 
L 537.869175 192.939404 
L 543.199055 191.682002 
L 548.528935 188.360989 
L 553.858814 190.096552 
L 559.188694 187.771365 
L 564.518574 183.027865 
L 569.848454 183.706734 
L 575.178334 183.797493 
L 580.508214 181.313222 
L 585.838094 185.558943 
L 591.167973 184.685811 
L 596.497853 183.372182 
L 601.827733 185.129466 
L 607.157613 186.021937 
L 612.487493 187.374016 
L 617.817373 181.91724 
" style="fill:none;stroke:#f6be00;stroke-linecap:round;stroke-width:1.2;"/>
   </g>
   <g id="line2d_4"/>
   <g id="line2d_5"/>
   <g id="line2d_6"/>
   <g id="patch_3">
    <path d="M 46.98724 207.454554 
L 46.98724 16.29474 
" style="fill:none;stroke:#262626;stroke-linecap:square;stroke-linejoin:miter;"/>
   </g>
   <g id="patch_4">
    <path d="M 644.99976 207.454554 
L 644.99976 16.29474 
" style="fill:none;stroke:#262626;stroke-linecap:square;stroke-linejoin:miter;"/>
   </g>
   <g id="patch_5">
    <path d="M 46.98724 207.454554 
L 644.99976 207.454554 
" style="fill:none;stroke:#262626;stroke-linecap:square;stroke-linejoin:miter;"/>
   </g>
   <g id="patch_6">
    <path d="M 46.98724 16.29474 
L 644.99976 16.29474 
" style="fill:none;stroke:#262626;stroke-linecap:square;stroke-linejoin:miter;"/>
   </g>
   <g id="text_9">
    <!-- Painted metal sheets Generated Samples -->
    <defs>
     <path d="M 24.703125 37.109375 
L 37.59375 37.109375 
Q 44.875 37.109375 48.671875 41.03125 
Q 52.484375 44.96875 52.484375 52.390625 
Q 52.484375 59.859375 48.671875 63.765625 
Q 44.875 67.671875 37.59375 67.671875 
L 24.703125 67.671875 
z
M 5.515625 0 
L 5.515625 5.171875 
L 14.796875 5.171875 
L 14.796875 67.671875 
L 5.515625 67.671875 
L 5.515625 72.90625 
L 39.984375 72.90625 
Q 50.921875 72.90625 57.3125 67.359375 
Q 63.71875 61.8125 63.71875 52.390625 
Q 63.71875 43.015625 57.3125 37.453125 
Q 50.921875 31.890625 39.984375 31.890625 
L 24.703125 31.890625 
L 24.703125 5.171875 
L 35.984375 5.171875 
L 35.984375 0 
z
" id="DejaVuSerif-80"/>
     <path d="M 51.8125 41.796875 
Q 54.390625 47.515625 58.421875 50.421875 
Q 62.453125 53.328125 67.828125 53.328125 
Q 75.984375 53.328125 79.984375 48.265625 
Q 83.984375 43.21875 83.984375 33.015625 
L 83.984375 5.171875 
L 92.09375 5.171875 
L 92.09375 0 
L 67.1875 0 
L 67.1875 5.171875 
L 75 5.171875 
L 75 31.984375 
Q 75 39.9375 72.65625 43.3125 
Q 70.3125 46.6875 64.890625 46.6875 
Q 58.890625 46.6875 55.734375 42.140625 
Q 52.59375 37.59375 52.59375 28.90625 
L 52.59375 5.171875 
L 60.40625 5.171875 
L 60.40625 0 
L 35.796875 0 
L 35.796875 5.171875 
L 43.609375 5.171875 
L 43.609375 32.328125 
Q 43.609375 40.09375 41.265625 43.390625 
Q 38.921875 46.6875 33.5 46.6875 
Q 27.484375 46.6875 24.328125 42.140625 
Q 21.1875 37.59375 21.1875 28.90625 
L 21.1875 5.171875 
L 29 5.171875 
L 29 0 
L 4.109375 0 
L 4.109375 5.171875 
L 12.203125 5.171875 
L 12.203125 46.78125 
L 3.609375 46.78125 
L 3.609375 51.90625 
L 21.1875 51.90625 
L 21.1875 42.671875 
Q 23.6875 47.859375 27.53125 50.59375 
Q 31.390625 53.328125 36.28125 53.328125 
Q 42.328125 53.328125 46.375 50.3125 
Q 50.4375 47.3125 51.8125 41.796875 
z
" id="DejaVuSerif-109"/>
     <path d="M 4.109375 0 
L 4.109375 5.171875 
L 12.203125 5.171875 
L 12.203125 70.796875 
L 3.609375 70.796875 
L 3.609375 75.984375 
L 21.1875 75.984375 
L 21.1875 42.671875 
Q 23.6875 47.953125 27.65625 50.640625 
Q 31.640625 53.328125 36.921875 53.328125 
Q 45.515625 53.328125 49.5625 48.390625 
Q 53.609375 43.453125 53.609375 33.015625 
L 53.609375 5.171875 
L 61.625 5.171875 
L 61.625 0 
L 36.8125 0 
L 36.8125 5.171875 
L 44.578125 5.171875 
L 44.578125 30.171875 
Q 44.578125 39.703125 42.25 43.1875 
Q 39.9375 46.6875 33.984375 46.6875 
Q 27.734375 46.6875 24.453125 42.140625 
Q 21.1875 37.59375 21.1875 28.90625 
L 21.1875 5.171875 
L 29 5.171875 
L 29 0 
z
" id="DejaVuSerif-104"/>
     <path d="M 64.015625 51.125 
Q 62.3125 60.25 56.890625 64.625 
Q 51.46875 69 41.796875 69 
Q 29.203125 69 23 60.890625 
Q 16.796875 52.78125 16.796875 36.375 
Q 16.796875 20.3125 23.1875 12.0625 
Q 29.59375 3.8125 42 3.8125 
Q 47.515625 3.8125 52.53125 5.171875 
Q 57.5625 6.546875 62.109375 9.28125 
L 62.109375 28.078125 
L 48.390625 28.078125 
L 48.390625 33.296875 
L 72.015625 33.296875 
L 72.015625 6.109375 
Q 65.53125 2.34375 58.03125 0.453125 
Q 50.53125 -1.421875 42 -1.421875 
Q 25.484375 -1.421875 15.546875 8.90625 
Q 5.609375 19.234375 5.609375 36.375 
Q 5.609375 53.65625 15.5625 63.9375 
Q 25.53125 74.21875 42.390625 74.21875 
Q 48.640625 74.21875 55.296875 72.78125 
Q 61.96875 71.34375 69.484375 68.40625 
L 69.484375 51.125 
z
" id="DejaVuSerif-71"/>
     <path d="M 47.796875 52 
L 47.796875 39.015625 
L 42.625 39.015625 
Q 42.390625 42.875 40.484375 44.78125 
Q 38.578125 46.6875 34.90625 46.6875 
Q 28.265625 46.6875 24.71875 42.09375 
Q 21.1875 37.5 21.1875 28.90625 
L 21.1875 5.171875 
L 31.59375 5.171875 
L 31.59375 0 
L 4.109375 0 
L 4.109375 5.171875 
L 12.203125 5.171875 
L 12.203125 46.78125 
L 3.609375 46.78125 
L 3.609375 51.90625 
L 21.1875 51.90625 
L 21.1875 42.671875 
Q 23.828125 48.09375 27.96875 50.703125 
Q 32.125 53.328125 38.09375 53.328125 
Q 40.28125 53.328125 42.703125 52.984375 
Q 45.125 52.640625 47.796875 52 
z
" id="DejaVuSerif-114"/>
     <path d="M 20.515625 28.515625 
L 20.515625 23.390625 
Q 20.515625 14.015625 24.09375 9.109375 
Q 27.6875 4.203125 34.515625 4.203125 
Q 41.40625 4.203125 44.9375 9.71875 
Q 48.484375 15.234375 48.484375 25.984375 
Q 48.484375 36.765625 44.9375 42.234375 
Q 41.40625 47.703125 34.515625 47.703125 
Q 27.6875 47.703125 24.09375 42.765625 
Q 20.515625 37.84375 20.515625 28.515625 
z
M 11.53125 46.6875 
L 2.875 46.6875 
L 2.875 51.90625 
L 20.515625 51.90625 
L 20.515625 43.796875 
Q 23.140625 48.6875 27.21875 51 
Q 31.296875 53.328125 37.3125 53.328125 
Q 46.875 53.328125 52.921875 45.75 
Q 58.984375 38.1875 58.984375 25.984375 
Q 58.984375 13.765625 52.921875 6.171875 
Q 46.875 -1.421875 37.3125 -1.421875 
Q 31.296875 -1.421875 27.21875 0.890625 
Q 23.140625 3.21875 20.515625 8.109375 
L 20.515625 -15.578125 
L 29 -15.578125 
L 29 -20.796875 
L 2.875 -20.796875 
L 2.875 -15.578125 
L 11.53125 -15.578125 
z
" id="DejaVuSerif-112"/>
    </defs>
    <g style="fill:#262626;" transform="translate(245.765 10.29474)scale(0.096 -0.096)">
     <use xlink:href="#DejaVuSerif-80"/>
     <use x="67.222656" xlink:href="#DejaVuSerif-97"/>
     <use x="126.841797" xlink:href="#DejaVuSerif-105"/>
     <use x="158.824219" xlink:href="#DejaVuSerif-110"/>
     <use x="223.228516" xlink:href="#DejaVuSerif-116"/>
     <use x="263.414062" xlink:href="#DejaVuSerif-101"/>
     <use x="322.59375" xlink:href="#DejaVuSerif-100"/>
     <use x="386.607422" xlink:href="#DejaVuSerif-32"/>
     <use x="418.394531" xlink:href="#DejaVuSerif-109"/>
     <use x="513.21875" xlink:href="#DejaVuSerif-101"/>
     <use x="572.398438" xlink:href="#DejaVuSerif-116"/>
     <use x="612.583984" xlink:href="#DejaVuSerif-97"/>
     <use x="672.203125" xlink:href="#DejaVuSerif-108"/>
     <use x="704.185547" xlink:href="#DejaVuSerif-32"/>
     <use x="735.972656" xlink:href="#DejaVuSerif-115"/>
     <use x="787.291016" xlink:href="#DejaVuSerif-104"/>
     <use x="851.695312" xlink:href="#DejaVuSerif-101"/>
     <use x="910.875" xlink:href="#DejaVuSerif-101"/>
     <use x="970.054688" xlink:href="#DejaVuSerif-116"/>
     <use x="1010.240234" xlink:href="#DejaVuSerif-115"/>
     <use x="1061.558594" xlink:href="#DejaVuSerif-32"/>
     <use x="1093.345703" xlink:href="#DejaVuSerif-71"/>
     <use x="1173.228516" xlink:href="#DejaVuSerif-101"/>
     <use x="1232.408203" xlink:href="#DejaVuSerif-110"/>
     <use x="1296.8125" xlink:href="#DejaVuSerif-101"/>
     <use x="1355.992188" xlink:href="#DejaVuSerif-114"/>
     <use x="1403.794922" xlink:href="#DejaVuSerif-97"/>
     <use x="1463.414062" xlink:href="#DejaVuSerif-116"/>
     <use x="1503.599609" xlink:href="#DejaVuSerif-101"/>
     <use x="1562.779297" xlink:href="#DejaVuSerif-100"/>
     <use x="1626.792969" xlink:href="#DejaVuSerif-32"/>
     <use x="1658.580078" xlink:href="#DejaVuSerif-83"/>
     <use x="1727.085938" xlink:href="#DejaVuSerif-97"/>
     <use x="1786.705078" xlink:href="#DejaVuSerif-109"/>
     <use x="1881.529297" xlink:href="#DejaVuSerif-112"/>
     <use x="1945.542969" xlink:href="#DejaVuSerif-108"/>
     <use x="1977.525391" xlink:href="#DejaVuSerif-101"/>
     <use x="2036.705078" xlink:href="#DejaVuSerif-115"/>
    </g>
   </g>
  </g>
  <g id="axes_2">
   <g id="legend_1">
    <g id="line2d_7">
     <path d="M 156.355562 226.179635 
L 173.955562 226.179635 
" style="fill:none;stroke:#c8102e;stroke-linecap:round;stroke-width:1.2;"/>
    </g>
    <g id="line2d_8"/>
    <g id="text_10">
     <!-- Mean + Standard Deviation -->
     <defs>
      <path d="M 5.515625 0 
L 5.515625 5.171875 
L 14.796875 5.171875 
L 14.796875 67.671875 
L 4.984375 67.671875 
L 4.984375 72.90625 
L 26.21875 72.90625 
L 51.8125 21 
L 77.390625 72.90625 
L 97.3125 72.90625 
L 97.3125 67.671875 
L 87.59375 67.671875 
L 87.59375 5.171875 
L 96.921875 5.171875 
L 96.921875 0 
L 68.40625 0 
L 68.40625 5.171875 
L 77.6875 5.171875 
L 77.6875 61.53125 
L 52.6875 10.6875 
L 45.796875 10.6875 
L 20.796875 61.53125 
L 20.796875 5.171875 
L 30.078125 5.171875 
L 30.078125 0 
z
" id="DejaVuSerif-77"/>
      <path d="M 45.796875 62.703125 
L 45.796875 35.296875 
L 73.1875 35.296875 
L 73.1875 27.390625 
L 45.796875 27.390625 
L 45.796875 0 
L 37.984375 0 
L 37.984375 27.390625 
L 10.59375 27.390625 
L 10.59375 35.296875 
L 37.984375 35.296875 
L 37.984375 62.703125 
z
" id="DejaVuSerif-43"/>
      <path d="M 24.703125 5.171875 
L 33.796875 5.171875 
Q 48 5.171875 55.59375 13.28125 
Q 63.1875 21.390625 63.1875 36.53125 
Q 63.1875 51.65625 55.609375 59.65625 
Q 48.046875 67.671875 33.796875 67.671875 
L 24.703125 67.671875 
z
M 5.515625 0 
L 5.515625 5.171875 
L 14.796875 5.171875 
L 14.796875 67.671875 
L 5.515625 67.671875 
L 5.515625 72.90625 
L 34.515625 72.90625 
Q 53.375 72.90625 63.890625 63.28125 
Q 74.421875 53.65625 74.421875 36.53125 
Q 74.421875 19.34375 63.875 9.671875 
Q 53.328125 0 34.515625 0 
z
" id="DejaVuSerif-68"/>
      <path d="M 24.703125 0 
L 5.609375 46.6875 
L -0.296875 46.6875 
L -0.296875 51.90625 
L 23.578125 51.90625 
L 23.578125 46.6875 
L 15.28125 46.6875 
L 29.890625 10.984375 
L 44.484375 46.6875 
L 36.71875 46.6875 
L 36.71875 51.90625 
L 56.203125 51.90625 
L 56.203125 46.6875 
L 50.390625 46.6875 
L 31.296875 0 
z
" id="DejaVuSerif-118"/>
      <path d="M 30.078125 3.421875 
Q 37.3125 3.421875 40.984375 9.125 
Q 44.671875 14.84375 44.671875 25.984375 
Q 44.671875 37.109375 40.984375 42.796875 
Q 37.3125 48.484375 30.078125 48.484375 
Q 22.859375 48.484375 19.171875 42.796875 
Q 15.484375 37.109375 15.484375 25.984375 
Q 15.484375 14.84375 19.1875 9.125 
Q 22.90625 3.421875 30.078125 3.421875 
z
M 30.078125 -1.421875 
Q 18.75 -1.421875 11.859375 6.078125 
Q 4.984375 13.578125 4.984375 25.984375 
Q 4.984375 38.375 11.84375 45.84375 
Q 18.703125 53.328125 30.078125 53.328125 
Q 41.453125 53.328125 48.3125 45.84375 
Q 55.171875 38.375 55.171875 25.984375 
Q 55.171875 13.578125 48.3125 6.078125 
Q 41.453125 -1.421875 30.078125 -1.421875 
z
" id="DejaVuSerif-111"/>
     </defs>
     <g style="fill:#262626;" transform="translate(180.995563 229.259635)scale(0.088 -0.088)">
      <use xlink:href="#DejaVuSerif-77"/>
      <use x="102.392578" xlink:href="#DejaVuSerif-101"/>
      <use x="161.572266" xlink:href="#DejaVuSerif-97"/>
      <use x="221.191406" xlink:href="#DejaVuSerif-110"/>
      <use x="285.595703" xlink:href="#DejaVuSerif-32"/>
      <use x="317.382812" xlink:href="#DejaVuSerif-43"/>
      <use x="401.171875" xlink:href="#DejaVuSerif-32"/>
      <use x="432.958984" xlink:href="#DejaVuSerif-83"/>
      <use x="501.464844" xlink:href="#DejaVuSerif-116"/>
      <use x="541.650391" xlink:href="#DejaVuSerif-97"/>
      <use x="601.269531" xlink:href="#DejaVuSerif-110"/>
      <use x="665.673828" xlink:href="#DejaVuSerif-100"/>
      <use x="729.6875" xlink:href="#DejaVuSerif-97"/>
      <use x="789.306641" xlink:href="#DejaVuSerif-114"/>
      <use x="837.109375" xlink:href="#DejaVuSerif-100"/>
      <use x="901.123047" xlink:href="#DejaVuSerif-32"/>
      <use x="932.910156" xlink:href="#DejaVuSerif-68"/>
      <use x="1013.085938" xlink:href="#DejaVuSerif-101"/>
      <use x="1072.265625" xlink:href="#DejaVuSerif-118"/>
      <use x="1128.759766" xlink:href="#DejaVuSerif-105"/>
      <use x="1160.742188" xlink:href="#DejaVuSerif-97"/>
      <use x="1220.361328" xlink:href="#DejaVuSerif-116"/>
      <use x="1260.546875" xlink:href="#DejaVuSerif-105"/>
      <use x="1292.529297" xlink:href="#DejaVuSerif-111"/>
      <use x="1352.734375" xlink:href="#DejaVuSerif-110"/>
     </g>
    </g>
    <g id="line2d_9">
     <path d="M 323.306687 226.179635 
L 340.906687 226.179635 
" style="fill:none;stroke:#00b388;stroke-linecap:round;stroke-width:1.2;"/>
    </g>
    <g id="line2d_10"/>
    <g id="text_11">
     <!-- Mean -->
     <g style="fill:#262626;" transform="translate(347.946687 229.259635)scale(0.088 -0.088)">
      <use xlink:href="#DejaVuSerif-77"/>
      <use x="102.392578" xlink:href="#DejaVuSerif-101"/>
      <use x="161.572266" xlink:href="#DejaVuSerif-97"/>
      <use x="221.191406" xlink:href="#DejaVuSerif-110"/>
     </g>
    </g>
    <g id="line2d_11">
     <path d="M 390.680313 226.179635 
L 408.280313 226.179635 
" style="fill:none;stroke:#f6be00;stroke-linecap:round;stroke-width:1.2;"/>
    </g>
    <g id="line2d_12"/>
    <g id="text_12">
     <!-- Mean - Standard Deviation -->
     <defs>
      <path d="M 4.390625 30.609375 
L 29.390625 30.609375 
L 29.390625 23 
L 4.390625 23 
z
" id="DejaVuSerif-45"/>
     </defs>
     <g style="fill:#262626;" transform="translate(415.320312 229.259635)scale(0.088 -0.088)">
      <use xlink:href="#DejaVuSerif-77"/>
      <use x="102.392578" xlink:href="#DejaVuSerif-101"/>
      <use x="161.572266" xlink:href="#DejaVuSerif-97"/>
      <use x="221.191406" xlink:href="#DejaVuSerif-110"/>
      <use x="285.595703" xlink:href="#DejaVuSerif-32"/>
      <use x="317.382812" xlink:href="#DejaVuSerif-45"/>
      <use x="351.171875" xlink:href="#DejaVuSerif-32"/>
      <use x="382.958984" xlink:href="#DejaVuSerif-83"/>
      <use x="451.464844" xlink:href="#DejaVuSerif-116"/>
      <use x="491.650391" xlink:href="#DejaVuSerif-97"/>
      <use x="551.269531" xlink:href="#DejaVuSerif-110"/>
      <use x="615.673828" xlink:href="#DejaVuSerif-100"/>
      <use x="679.6875" xlink:href="#DejaVuSerif-97"/>
      <use x="739.306641" xlink:href="#DejaVuSerif-114"/>
      <use x="787.109375" xlink:href="#DejaVuSerif-100"/>
      <use x="851.123047" xlink:href="#DejaVuSerif-32"/>
      <use x="882.910156" xlink:href="#DejaVuSerif-68"/>
      <use x="963.085938" xlink:href="#DejaVuSerif-101"/>
      <use x="1022.265625" xlink:href="#DejaVuSerif-118"/>
      <use x="1078.759766" xlink:href="#DejaVuSerif-105"/>
      <use x="1110.742188" xlink:href="#DejaVuSerif-97"/>
      <use x="1170.361328" xlink:href="#DejaVuSerif-116"/>
      <use x="1210.546875" xlink:href="#DejaVuSerif-105"/>
      <use x="1242.529297" xlink:href="#DejaVuSerif-111"/>
      <use x="1302.734375" xlink:href="#DejaVuSerif-110"/>
     </g>
    </g>
   </g>
  </g>
  <g id="axes_3">
   <g id="patch_7">
    <path d="M 46.98724 434.89201 
L 644.99976 434.89201 
L 644.99976 243.732196 
L 46.98724 243.732196 
z
" style="fill:#ffffff;"/>
   </g>
   <g id="matplotlib.axis_3">
    <g id="xtick_1">
     <g id="text_13">
      <!-- 0 -->
      <g style="fill:#262626;" transform="translate(71.370127 449.878635)scale(0.088 -0.088)">
       <use xlink:href="#DejaVuSerif-48"/>
      </g>
     </g>
    </g>
    <g id="xtick_2">
     <g id="text_14">
      <!-- 20 -->
      <g style="fill:#262626;" transform="translate(175.168224 449.878635)scale(0.088 -0.088)">
       <use xlink:href="#DejaVuSerif-50"/>
       <use x="63.623047" xlink:href="#DejaVuSerif-48"/>
      </g>
     </g>
    </g>
    <g id="xtick_3">
     <g id="text_15">
      <!-- 40 -->
      <g style="fill:#262626;" transform="translate(281.765822 449.878635)scale(0.088 -0.088)">
       <use xlink:href="#DejaVuSerif-52"/>
       <use x="63.623047" xlink:href="#DejaVuSerif-48"/>
      </g>
     </g>
    </g>
    <g id="xtick_4">
     <g id="text_16">
      <!-- 60 -->
      <g style="fill:#262626;" transform="translate(388.363419 449.878635)scale(0.088 -0.088)">
       <use xlink:href="#DejaVuSerif-54"/>
       <use x="63.623047" xlink:href="#DejaVuSerif-48"/>
      </g>
     </g>
    </g>
    <g id="xtick_5">
     <g id="text_17">
      <!-- 80 -->
      <g style="fill:#262626;" transform="translate(494.961016 449.878635)scale(0.088 -0.088)">
       <use xlink:href="#DejaVuSerif-56"/>
       <use x="63.623047" xlink:href="#DejaVuSerif-48"/>
      </g>
     </g>
    </g>
    <g id="xtick_6">
     <g id="text_18">
      <!-- 100 -->
      <defs>
       <path d="M 14.203125 0 
L 14.203125 5.171875 
L 26.90625 5.171875 
L 26.90625 65.828125 
L 12.203125 56.296875 
L 12.203125 62.703125 
L 29.984375 74.21875 
L 36.71875 74.21875 
L 36.71875 5.171875 
L 49.421875 5.171875 
L 49.421875 0 
z
" id="DejaVuSerif-49"/>
      </defs>
      <g style="fill:#262626;" transform="translate(598.759113 449.878635)scale(0.088 -0.088)">
       <use xlink:href="#DejaVuSerif-49"/>
       <use x="63.623047" xlink:href="#DejaVuSerif-48"/>
       <use x="127.246094" xlink:href="#DejaVuSerif-48"/>
      </g>
     </g>
    </g>
    <g id="text_19">
     <!-- Spectral Band -->
     <defs>
      <path d="M 24.703125 5.171875 
L 39.3125 5.171875 
Q 48.09375 5.171875 52.140625 8.984375 
Q 56.203125 12.796875 56.203125 21.09375 
Q 56.203125 29.34375 52.171875 33.125 
Q 48.140625 36.921875 39.3125 36.921875 
L 24.703125 36.921875 
z
M 24.703125 42.09375 
L 37.109375 42.09375 
Q 45.125 42.09375 48.796875 45.171875 
Q 52.484375 48.25 52.484375 54.890625 
Q 52.484375 61.578125 48.796875 64.625 
Q 45.125 67.671875 37.109375 67.671875 
L 24.703125 67.671875 
z
M 5.515625 0 
L 5.515625 5.171875 
L 14.796875 5.171875 
L 14.796875 67.671875 
L 5.515625 67.671875 
L 5.515625 72.90625 
L 41.5 72.90625 
Q 52.546875 72.90625 58.125 68.390625 
Q 63.71875 63.875 63.71875 54.890625 
Q 63.71875 48.390625 59.828125 44.53125 
Q 55.953125 40.671875 48.484375 39.796875 
Q 57.765625 38.625 62.578125 33.859375 
Q 67.390625 29.109375 67.390625 21.09375 
Q 67.390625 10.25 60.546875 5.125 
Q 53.71875 0 39.203125 0 
z
" id="DejaVuSerif-66"/>
     </defs>
     <g style="fill:#262626;" transform="translate(311.40425 463.00326)scale(0.096 -0.096)">
      <use xlink:href="#DejaVuSerif-83"/>
      <use x="68.505859" xlink:href="#DejaVuSerif-112"/>
      <use x="132.519531" xlink:href="#DejaVuSerif-101"/>
      <use x="191.699219" xlink:href="#DejaVuSerif-99"/>
      <use x="247.705078" xlink:href="#DejaVuSerif-116"/>
      <use x="287.890625" xlink:href="#DejaVuSerif-114"/>
      <use x="335.693359" xlink:href="#DejaVuSerif-97"/>
      <use x="395.3125" xlink:href="#DejaVuSerif-108"/>
      <use x="427.294922" xlink:href="#DejaVuSerif-32"/>
      <use x="459.082031" xlink:href="#DejaVuSerif-66"/>
      <use x="532.568359" xlink:href="#DejaVuSerif-97"/>
      <use x="592.1875" xlink:href="#DejaVuSerif-110"/>
      <use x="656.591797" xlink:href="#DejaVuSerif-100"/>
     </g>
    </g>
   </g>
   <g id="matplotlib.axis_4">
    <g id="ytick_8">
     <g id="text_20">
      <!-- 2000 -->
      <g style="fill:#262626;" transform="translate(16.29124 413.978992)scale(0.088 -0.088)">
       <use xlink:href="#DejaVuSerif-50"/>
       <use x="63.623047" xlink:href="#DejaVuSerif-48"/>
       <use x="127.246094" xlink:href="#DejaVuSerif-48"/>
       <use x="190.869141" xlink:href="#DejaVuSerif-48"/>
      </g>
     </g>
    </g>
    <g id="ytick_9">
     <g id="text_21">
      <!-- 3000 -->
      <defs>
       <path d="M 9.71875 69.828125 
Q 15.4375 71.96875 20.671875 73.09375 
Q 25.921875 74.21875 30.515625 74.21875 
Q 41.21875 74.21875 47.21875 69.59375 
Q 53.21875 64.984375 53.21875 56.78125 
Q 53.21875 50.203125 49.0625 45.78125 
Q 44.921875 41.359375 37.3125 39.796875 
Q 46.296875 38.53125 51.25 33.28125 
Q 56.203125 28.03125 56.203125 19.671875 
Q 56.203125 9.46875 49.34375 4.015625 
Q 42.484375 -1.421875 29.59375 -1.421875 
Q 23.875 -1.421875 18.421875 -0.1875 
Q 12.984375 1.03125 7.625 3.515625 
L 7.625 17.671875 
L 13.09375 17.671875 
Q 13.578125 10.640625 17.828125 7.03125 
Q 22.078125 3.421875 29.78125 3.421875 
Q 37.25 3.421875 41.578125 7.734375 
Q 45.90625 12.0625 45.90625 19.578125 
Q 45.90625 28.171875 41.453125 32.59375 
Q 37.015625 37.015625 28.421875 37.015625 
L 23.78125 37.015625 
L 23.78125 42 
L 26.21875 42 
Q 34.765625 42 39.03125 45.53125 
Q 43.3125 49.078125 43.3125 56.203125 
Q 43.3125 62.59375 39.796875 65.984375 
Q 36.28125 69.390625 29.6875 69.390625 
Q 23.09375 69.390625 19.453125 66.265625 
Q 15.828125 63.140625 15.1875 56.984375 
L 9.71875 56.984375 
z
" id="DejaVuSerif-51"/>
      </defs>
      <g style="fill:#262626;" transform="translate(16.29124 373.753386)scale(0.088 -0.088)">
       <use xlink:href="#DejaVuSerif-51"/>
       <use x="63.623047" xlink:href="#DejaVuSerif-48"/>
       <use x="127.246094" xlink:href="#DejaVuSerif-48"/>
       <use x="190.869141" xlink:href="#DejaVuSerif-48"/>
      </g>
     </g>
    </g>
    <g id="ytick_10">
     <g id="text_22">
      <!-- 4000 -->
      <g style="fill:#262626;" transform="translate(16.29124 333.527779)scale(0.088 -0.088)">
       <use xlink:href="#DejaVuSerif-52"/>
       <use x="63.623047" xlink:href="#DejaVuSerif-48"/>
       <use x="127.246094" xlink:href="#DejaVuSerif-48"/>
       <use x="190.869141" xlink:href="#DejaVuSerif-48"/>
      </g>
     </g>
    </g>
    <g id="ytick_11">
     <g id="text_23">
      <!-- 5000 -->
      <defs>
       <path d="M 50.296875 72.90625 
L 50.296875 64.890625 
L 16.890625 64.890625 
L 16.890625 44 
Q 19.4375 45.75 22.828125 46.625 
Q 26.21875 47.515625 30.421875 47.515625 
Q 42.234375 47.515625 49.0625 40.96875 
Q 55.90625 34.421875 55.90625 23.09375 
Q 55.90625 11.53125 49 5.046875 
Q 42.09375 -1.421875 29.59375 -1.421875 
Q 24.5625 -1.421875 19.28125 -0.1875 
Q 14.015625 1.03125 8.5 3.515625 
L 8.5 17.671875 
L 14.015625 17.671875 
Q 14.453125 10.75 18.421875 7.078125 
Q 22.40625 3.421875 29.59375 3.421875 
Q 37.3125 3.421875 41.453125 8.5 
Q 45.609375 13.578125 45.609375 23.09375 
Q 45.609375 32.5625 41.484375 37.609375 
Q 37.359375 42.671875 29.59375 42.671875 
Q 25.203125 42.671875 21.84375 41.109375 
Q 18.5 39.546875 15.921875 36.28125 
L 11.71875 36.28125 
L 11.71875 72.90625 
z
" id="DejaVuSerif-53"/>
      </defs>
      <g style="fill:#262626;" transform="translate(16.29124 293.302172)scale(0.088 -0.088)">
       <use xlink:href="#DejaVuSerif-53"/>
       <use x="63.623047" xlink:href="#DejaVuSerif-48"/>
       <use x="127.246094" xlink:href="#DejaVuSerif-48"/>
       <use x="190.869141" xlink:href="#DejaVuSerif-48"/>
      </g>
     </g>
    </g>
    <g id="ytick_12">
     <g id="text_24">
      <!-- 6000 -->
      <g style="fill:#262626;" transform="translate(16.29124 253.076565)scale(0.088 -0.088)">
       <use xlink:href="#DejaVuSerif-54"/>
       <use x="63.623047" xlink:href="#DejaVuSerif-48"/>
       <use x="127.246094" xlink:href="#DejaVuSerif-48"/>
       <use x="190.869141" xlink:href="#DejaVuSerif-48"/>
      </g>
     </g>
    </g>
    <g id="text_25">
     <!-- Intensity -->
     <g style="fill:#262626;" transform="translate(10.15824 360.800353)rotate(-90)scale(0.096 -0.096)">
      <use xlink:href="#DejaVuSerif-73"/>
      <use x="39.501953" xlink:href="#DejaVuSerif-110"/>
      <use x="103.90625" xlink:href="#DejaVuSerif-116"/>
      <use x="144.091797" xlink:href="#DejaVuSerif-101"/>
      <use x="203.271484" xlink:href="#DejaVuSerif-110"/>
      <use x="267.675781" xlink:href="#DejaVuSerif-115"/>
      <use x="318.994141" xlink:href="#DejaVuSerif-105"/>
      <use x="350.976562" xlink:href="#DejaVuSerif-116"/>
      <use x="391.162109" xlink:href="#DejaVuSerif-121"/>
     </g>
    </g>
   </g>
   <g id="line2d_13">
    <path clip-path="url(#pb74226c7b2)" d="M 74.169627 350.156464 
L 79.499507 344.902249 
L 84.829387 338.283072 
L 90.159267 325.679161 
L 95.489147 313.274054 
L 100.819027 304.203929 
L 106.148906 296.51357 
L 111.478786 290.909783 
L 116.808666 285.167317 
L 122.138546 278.234013 
L 127.468426 271.474513 
L 132.798306 267.825835 
L 138.128186 263.189386 
L 143.458065 259.128929 
L 148.787945 256.613246 
L 154.117825 255.163015 
L 159.447705 253.368192 
L 164.777585 252.421278 
L 170.107465 252.890462 
L 175.437345 253.532772 
L 180.767224 254.388229 
L 186.097104 255.366971 
L 191.426984 257.042153 
L 196.756864 258.637667 
L 202.086744 258.98612 
L 207.416624 258.929766 
L 212.746504 261.292025 
L 218.076383 264.940063 
L 223.406263 268.872185 
L 228.736143 271.704213 
L 234.066023 274.373194 
L 239.395903 278.469463 
L 244.725783 283.018465 
L 250.055663 286.814369 
L 255.385542 291.084161 
L 260.715422 295.838175 
L 266.045302 300.936759 
L 271.375182 306.679759 
L 276.705062 312.945874 
L 282.034942 319.770781 
L 287.364822 327.513035 
L 292.694701 335.406332 
L 298.024581 342.379661 
L 303.354461 348.260835 
L 308.684341 353.154234 
L 314.014221 357.203471 
L 319.344101 360.968034 
L 324.673981 364.283313 
L 330.00386 366.682588 
L 335.33374 369.239308 
L 340.66362 370.974162 
L 345.9935 372.050503 
L 351.32338 373.309722 
L 356.65326 374.546462 
L 361.98314 376.191413 
L 367.313019 377.60225 
L 372.642899 378.117691 
L 377.972779 377.865186 
L 383.302659 377.25785 
L 388.632539 376.512104 
L 393.962419 375.134741 
L 399.292299 373.402462 
L 404.622178 371.846927 
L 409.952058 370.610051 
L 415.281938 369.967453 
L 420.611818 369.201566 
L 425.941698 367.56751 
L 431.271578 366.293708 
L 436.601458 365.236676 
L 441.931337 364.951578 
L 447.261217 365.486268 
L 452.591097 366.845666 
L 457.920977 369.22947 
L 463.250857 371.404882 
L 468.580737 372.593135 
L 473.910617 372.570237 
L 479.240496 371.902734 
L 484.570376 370.570996 
L 489.900256 369.167722 
L 495.230136 367.474088 
L 500.560016 365.365983 
L 505.889896 364.090119 
L 511.219776 364.717127 
L 516.549655 366.710022 
L 521.879535 365.395079 
L 527.209415 363.720662 
L 532.539295 363.264934 
L 537.869175 363.892016 
L 543.199055 364.346505 
L 548.528935 364.152303 
L 553.858814 363.281468 
L 559.188694 362.762141 
L 564.518574 362.211885 
L 569.848454 360.550708 
L 575.178334 358.710187 
L 580.508214 357.755216 
L 585.838094 357.059497 
L 591.167973 355.832006 
L 596.497853 354.360853 
L 601.827733 352.756553 
L 607.157613 351.679712 
L 612.487493 349.584152 
L 617.817373 347.092716 
" style="fill:none;stroke:#c8102e;stroke-linecap:round;stroke-width:1.2;"/>
   </g>
   <g id="line2d_14">
    <path clip-path="url(#pb74226c7b2)" d="M 74.169627 373.902104 
L 79.499507 370.321038 
L 84.829387 365.931752 
L 90.159267 356.269411 
L 95.489147 346.367781 
L 100.819027 339.33479 
L 106.148906 333.602207 
L 111.478786 329.342061 
L 116.808666 324.829885 
L 122.138546 319.262272 
L 127.468426 313.94349 
L 132.798306 311.326851 
L 138.128186 307.881625 
L 143.458065 304.715287 
L 148.787945 302.854471 
L 154.117825 301.999954 
L 159.447705 300.806135 
L 164.777585 300.145478 
L 170.107465 300.576176 
L 175.437345 301.125338 
L 180.767224 301.847904 
L 186.097104 302.684148 
L 191.426984 304.070481 
L 196.756864 305.385933 
L 202.086744 305.665598 
L 207.416624 305.625402 
L 212.746504 307.526982 
L 218.076383 310.499191 
L 223.406263 313.690023 
L 228.736143 316.004028 
L 234.066023 318.178752 
L 239.395903 321.506472 
L 244.725783 325.215512 
L 250.055663 328.324518 
L 255.385542 331.815443 
L 260.715422 335.691456 
L 266.045302 339.83275 
L 271.375182 344.489948 
L 276.705062 349.538008 
L 282.034942 355.054478 
L 287.364822 361.37274 
L 292.694701 367.775221 
L 298.024581 373.397535 
L 303.354461 378.126959 
L 308.684341 382.056837 
L 314.014221 385.316576 
L 319.344101 388.368249 
L 324.673981 391.02607 
L 330.00386 392.926334 
L 335.33374 394.95523 
L 340.66362 396.351971 
L 345.9935 397.231132 
L 351.32338 398.249214 
L 356.65326 399.252611 
L 361.98314 400.584033 
L 367.313019 401.721925 
L 372.642899 402.160309 
L 377.972779 401.990046 
L 383.302659 401.519092 
L 388.632539 400.925996 
L 393.962419 399.812509 
L 399.292299 398.414901 
L 404.622178 397.159384 
L 409.952058 396.13242 
L 415.281938 395.506605 
L 420.611818 394.804705 
L 425.941698 393.532619 
L 431.271578 392.523001 
L 436.601458 391.613185 
L 441.931337 391.298408 
L 447.261217 391.629395 
L 452.591097 392.595407 
L 457.920977 394.348616 
L 463.250857 396.024633 
L 468.580737 396.933313 
L 473.910617 396.858873 
L 479.240496 396.306631 
L 484.570376 395.193413 
L 489.900256 393.988799 
L 495.230136 392.53631 
L 500.560016 390.747452 
L 505.889896 389.584618 
L 511.219776 389.712891 
L 516.549655 390.812591 
L 521.879535 390.013372 
L 527.209415 389.103795 
L 532.539295 388.880745 
L 537.869175 389.381845 
L 543.199055 389.746418 
L 548.528935 389.526298 
L 553.858814 388.695677 
L 559.188694 388.184557 
L 564.518574 387.66961 
L 569.848454 386.269848 
L 575.178334 384.735563 
L 580.508214 383.843542 
L 585.838094 383.034663 
L 591.167973 381.843776 
L 596.497853 380.65878 
L 601.827733 379.438225 
L 607.157613 378.662154 
L 612.487493 377.144109 
L 617.817373 375.249019 
" style="fill:none;stroke:#00b388;stroke-linecap:round;stroke-width:1.2;"/>
   </g>
   <g id="line2d_15">
    <path clip-path="url(#pb74226c7b2)" d="M 74.169627 397.647745 
L 79.499507 395.739828 
L 84.829387 393.580432 
L 90.159267 386.859662 
L 95.489147 379.461509 
L 100.819027 374.465651 
L 106.148906 370.690844 
L 111.478786 367.77434 
L 116.808666 364.492452 
L 122.138546 360.290531 
L 127.468426 356.412466 
L 132.798306 354.827868 
L 138.128186 352.573864 
L 143.458065 350.301644 
L 148.787945 349.095696 
L 154.117825 348.836892 
L 159.447705 348.244078 
L 164.777585 347.869678 
L 170.107465 348.261891 
L 175.437345 348.717904 
L 180.767224 349.307578 
L 186.097104 350.001324 
L 191.426984 351.098808 
L 196.756864 352.134198 
L 202.086744 352.345076 
L 207.416624 352.321038 
L 212.746504 353.761939 
L 218.076383 356.058318 
L 223.406263 358.507861 
L 228.736143 360.303842 
L 234.066023 361.984311 
L 239.395903 364.54348 
L 244.725783 367.41256 
L 250.055663 369.834667 
L 255.385542 372.546724 
L 260.715422 375.544738 
L 266.045302 378.728741 
L 271.375182 382.300137 
L 276.705062 386.130141 
L 282.034942 390.338176 
L 287.364822 395.232445 
L 292.694701 400.14411 
L 298.024581 404.415409 
L 303.354461 407.993084 
L 308.684341 410.959439 
L 314.014221 413.429682 
L 319.344101 415.768465 
L 324.673981 417.768828 
L 330.00386 419.17008 
L 335.33374 420.671152 
L 340.66362 421.729779 
L 345.9935 422.411761 
L 351.32338 423.188705 
L 356.65326 423.95876 
L 361.98314 424.976654 
L 367.313019 425.841599 
L 372.642899 426.202928 
L 377.972779 426.114905 
L 383.302659 425.780334 
L 388.632539 425.339888 
L 393.962419 424.490277 
L 399.292299 423.427341 
L 404.622178 422.471841 
L 409.952058 421.654789 
L 415.281938 421.045757 
L 420.611818 420.407844 
L 425.941698 419.497728 
L 431.271578 418.752294 
L 436.601458 417.989694 
L 441.931337 417.645239 
L 447.261217 417.772521 
L 452.591097 418.345148 
L 457.920977 419.467761 
L 463.250857 420.644384 
L 468.580737 421.273491 
L 473.910617 421.147509 
L 479.240496 420.710527 
L 484.570376 419.815831 
L 489.900256 418.809876 
L 495.230136 417.598533 
L 500.560016 416.128921 
L 505.889896 415.079117 
L 511.219776 414.708655 
L 516.549655 414.915159 
L 521.879535 414.631665 
L 527.209415 414.486928 
L 532.539295 414.496555 
L 537.869175 414.871674 
L 543.199055 415.14633 
L 548.528935 414.900294 
L 553.858814 414.109886 
L 559.188694 413.606974 
L 564.518574 413.127335 
L 569.848454 411.988989 
L 575.178334 410.760939 
L 580.508214 409.931868 
L 585.838094 409.009829 
L 591.167973 407.855546 
L 596.497853 406.956707 
L 601.827733 406.119896 
L 607.157613 405.644596 
L 612.487493 404.704066 
L 617.817373 403.405322 
" style="fill:none;stroke:#f6be00;stroke-linecap:round;stroke-width:1.2;"/>
   </g>
   <g id="patch_8">
    <path d="M 46.98724 434.89201 
L 46.98724 243.732196 
" style="fill:none;stroke:#262626;stroke-linecap:square;stroke-linejoin:miter;"/>
   </g>
   <g id="patch_9">
    <path d="M 644.99976 434.89201 
L 644.99976 243.732196 
" style="fill:none;stroke:#262626;stroke-linecap:square;stroke-linejoin:miter;"/>
   </g>
   <g id="patch_10">
    <path d="M 46.98724 434.89201 
L 644.99976 434.89201 
" style="fill:none;stroke:#262626;stroke-linecap:square;stroke-linejoin:miter;"/>
   </g>
   <g id="patch_11">
    <path d="M 46.98724 243.732196 
L 644.99976 243.732196 
" style="fill:none;stroke:#262626;stroke-linecap:square;stroke-linejoin:miter;"/>
   </g>
  </g>
 </g>
 <defs>
  <clipPath id="pf7a16d5a36">
   <rect height="191.159814" width="598.01252" x="46.98724" y="16.29474"/>
  </clipPath>
  <clipPath id="pb74226c7b2">
   <rect height="191.159814" width="598.01252" x="46.98724" y="243.732196"/>
  </clipPath>
 </defs>
</svg>
