<?xml version="1.0" encoding="utf-8" standalone="no"?>
<!DOCTYPE svg PUBLIC "-//W3C//DTD SVG 1.1//EN"
  "http://www.w3.org/Graphics/SVG/1.1/DTD/svg11.dtd">
<!-- Created with matplotlib (https://matplotlib.org/) -->
<svg height="468pt" version="1.1" viewBox="0 0 648 468" width="648pt" xmlns="http://www.w3.org/2000/svg" xmlns:xlink="http://www.w3.org/1999/xlink">
 <defs>
  <style type="text/css">
*{stroke-linecap:butt;stroke-linejoin:round;}
  </style>
 </defs>
 <g id="figure_1">
  <g id="patch_1">
   <path d="M 0 468 
L 648 468 
L 648 0 
L 0 0 
z
" style="fill:#ffffff;"/>
  </g>
  <g id="axes_1">
   <g id="patch_2">
    <path d="M 46.98724 208.537144 
L 644.99976 208.537144 
L 644.99976 16.29474 
L 46.98724 16.29474 
z
" style="fill:#ffffff;"/>
   </g>
   <g id="matplotlib.axis_1"/>
   <g id="matplotlib.axis_2">
    <g id="ytick_1">
     <g id="text_1">
      <!-- −0.4 -->
      <defs>
       <path d="M 10.59375 35.296875 
L 73.1875 35.296875 
L 73.1875 27.390625 
L 10.59375 27.390625 
z
" id="DejaVuSerif-8722"/>
       <path d="M 31.78125 3.421875 
Q 39.265625 3.421875 42.96875 11.625 
Q 46.6875 19.828125 46.6875 36.375 
Q 46.6875 52.984375 42.96875 61.1875 
Q 39.265625 69.390625 31.78125 69.390625 
Q 24.3125 69.390625 20.59375 61.1875 
Q 16.890625 52.984375 16.890625 36.375 
Q 16.890625 19.828125 20.59375 11.625 
Q 24.3125 3.421875 31.78125 3.421875 
z
M 31.78125 -1.421875 
Q 19.921875 -1.421875 13.25 8.53125 
Q 6.59375 18.5 6.59375 36.375 
Q 6.59375 54.296875 13.25 64.25 
Q 19.921875 74.21875 31.78125 74.21875 
Q 43.703125 74.21875 50.34375 64.25 
Q 56.984375 54.296875 56.984375 36.375 
Q 56.984375 18.5 50.34375 8.53125 
Q 43.703125 -1.421875 31.78125 -1.421875 
z
" id="DejaVuSerif-48"/>
       <path d="M 9.421875 5.078125 
Q 9.421875 7.8125 11.28125 9.71875 
Q 13.140625 11.625 15.921875 11.625 
Q 18.609375 11.625 20.5 9.71875 
Q 22.40625 7.8125 22.40625 5.078125 
Q 22.40625 2.390625 20.5 0.484375 
Q 18.609375 -1.421875 15.921875 -1.421875 
Q 13.140625 -1.421875 11.28125 0.453125 
Q 9.421875 2.34375 9.421875 5.078125 
z
" id="DejaVuSerif-46"/>
       <path d="M 34.90625 24.703125 
L 34.90625 63.484375 
L 10.015625 24.703125 
z
M 56.390625 0 
L 23.1875 0 
L 23.1875 5.171875 
L 34.90625 5.171875 
L 34.90625 19.484375 
L 3.078125 19.484375 
L 3.078125 24.8125 
L 35.015625 74.21875 
L 44.671875 74.21875 
L 44.671875 24.703125 
L 58.59375 24.703125 
L 58.59375 19.484375 
L 44.671875 19.484375 
L 44.671875 5.171875 
L 56.390625 5.171875 
z
" id="DejaVuSerif-52"/>
      </defs>
      <g style="fill:#262626;" transform="translate(17.318365 207.00093)scale(0.088 -0.088)">
       <use xlink:href="#DejaVuSerif-8722"/>
       <use x="83.789062" xlink:href="#DejaVuSerif-48"/>
       <use x="147.412109" xlink:href="#DejaVuSerif-46"/>
       <use x="179.199219" xlink:href="#DejaVuSerif-52"/>
      </g>
     </g>
    </g>
    <g id="ytick_2">
     <g id="text_2">
      <!-- −0.2 -->
      <defs>
       <path d="M 12.796875 55.515625 
L 7.328125 55.515625 
L 7.328125 68.5 
Q 12.546875 71.296875 17.84375 72.75 
Q 23.140625 74.21875 28.21875 74.21875 
Q 39.59375 74.21875 46.1875 68.703125 
Q 52.78125 63.1875 52.78125 53.71875 
Q 52.78125 43.015625 37.84375 28.125 
Q 36.671875 27 36.078125 26.421875 
L 17.671875 8.015625 
L 48.09375 8.015625 
L 48.09375 17 
L 53.8125 17 
L 53.8125 0 
L 6.78125 0 
L 6.78125 5.328125 
L 28.90625 27.390625 
Q 36.234375 34.71875 39.359375 40.84375 
Q 42.484375 46.96875 42.484375 53.71875 
Q 42.484375 61.078125 38.640625 65.234375 
Q 34.8125 69.390625 28.078125 69.390625 
Q 21.09375 69.390625 17.28125 65.921875 
Q 13.484375 62.453125 12.796875 55.515625 
z
" id="DejaVuSerif-50"/>
      </defs>
      <g style="fill:#262626;" transform="translate(17.318365 175.155431)scale(0.088 -0.088)">
       <use xlink:href="#DejaVuSerif-8722"/>
       <use x="83.789062" xlink:href="#DejaVuSerif-48"/>
       <use x="147.412109" xlink:href="#DejaVuSerif-46"/>
       <use x="179.199219" xlink:href="#DejaVuSerif-50"/>
      </g>
     </g>
    </g>
    <g id="ytick_3">
     <g id="text_3">
      <!-- 0.0 -->
      <g style="fill:#262626;" transform="translate(24.69249 143.309933)scale(0.088 -0.088)">
       <use xlink:href="#DejaVuSerif-48"/>
       <use x="63.623047" xlink:href="#DejaVuSerif-46"/>
       <use x="95.410156" xlink:href="#DejaVuSerif-48"/>
      </g>
     </g>
    </g>
    <g id="ytick_4">
     <g id="text_4">
      <!-- 0.2 -->
      <g style="fill:#262626;" transform="translate(24.69249 111.464434)scale(0.088 -0.088)">
       <use xlink:href="#DejaVuSerif-48"/>
       <use x="63.623047" xlink:href="#DejaVuSerif-46"/>
       <use x="95.410156" xlink:href="#DejaVuSerif-50"/>
      </g>
     </g>
    </g>
    <g id="ytick_5">
     <g id="text_5">
      <!-- 0.4 -->
      <g style="fill:#262626;" transform="translate(24.69249 79.618935)scale(0.088 -0.088)">
       <use xlink:href="#DejaVuSerif-48"/>
       <use x="63.623047" xlink:href="#DejaVuSerif-46"/>
       <use x="95.410156" xlink:href="#DejaVuSerif-52"/>
      </g>
     </g>
    </g>
    <g id="ytick_6">
     <g id="text_6">
      <!-- 0.6 -->
      <defs>
       <path d="M 32.71875 3.421875 
Q 39.59375 3.421875 43.296875 8.46875 
Q 47.015625 13.53125 47.015625 23 
Q 47.015625 32.46875 43.296875 37.515625 
Q 39.59375 42.578125 32.71875 42.578125 
Q 25.734375 42.578125 22.0625 37.6875 
Q 18.40625 32.8125 18.40625 23.578125 
Q 18.40625 13.875 22.109375 8.640625 
Q 25.828125 3.421875 32.71875 3.421875 
z
M 16.796875 40.140625 
Q 20.125 43.796875 24.3125 45.59375 
Q 28.515625 47.40625 33.796875 47.40625 
Q 44.671875 47.40625 51 40.859375 
Q 57.328125 34.328125 57.328125 23 
Q 57.328125 11.921875 50.515625 5.25 
Q 43.703125 -1.421875 32.328125 -1.421875 
Q 19.96875 -1.421875 13.328125 7.78125 
Q 6.6875 17 6.6875 34.078125 
Q 6.6875 53.21875 14.546875 63.71875 
Q 22.40625 74.21875 36.71875 74.21875 
Q 40.578125 74.21875 44.828125 73.484375 
Q 49.078125 72.75 53.515625 71.296875 
L 53.515625 59.28125 
L 48 59.28125 
Q 47.40625 64.203125 44.234375 66.796875 
Q 41.0625 69.390625 35.6875 69.390625 
Q 26.21875 69.390625 21.578125 62.203125 
Q 16.9375 55.03125 16.796875 40.140625 
z
" id="DejaVuSerif-54"/>
      </defs>
      <g style="fill:#262626;" transform="translate(24.69249 47.773436)scale(0.088 -0.088)">
       <use xlink:href="#DejaVuSerif-48"/>
       <use x="63.623047" xlink:href="#DejaVuSerif-46"/>
       <use x="95.410156" xlink:href="#DejaVuSerif-54"/>
      </g>
     </g>
    </g>
    <g id="text_7">
     <!-- Scaled Intensity -->
     <defs>
      <path d="M 9.28125 3.515625 
L 9.28125 20.125 
L 14.890625 20.0625 
Q 15.140625 11.765625 19.703125 7.78125 
Q 24.265625 3.8125 33.59375 3.8125 
Q 42.28125 3.8125 46.84375 7.25 
Q 51.421875 10.6875 51.421875 17.28125 
Q 51.421875 22.5625 48.65625 25.390625 
Q 45.90625 28.21875 37.015625 30.90625 
L 27.390625 33.796875 
Q 16.9375 36.96875 12.671875 41.703125 
Q 8.40625 46.4375 8.40625 54.6875 
Q 8.40625 63.96875 14.984375 69.09375 
Q 21.578125 74.21875 33.5 74.21875 
Q 38.578125 74.21875 44.625 73.109375 
Q 50.6875 72.015625 57.515625 69.921875 
L 57.515625 54.390625 
L 52 54.390625 
Q 51.171875 62.109375 46.84375 65.546875 
Q 42.53125 69 33.6875 69 
Q 25.984375 69 21.953125 65.84375 
Q 17.921875 62.703125 17.921875 56.6875 
Q 17.921875 51.46875 20.9375 48.484375 
Q 23.96875 45.515625 33.796875 42.578125 
L 42.828125 39.890625 
Q 52.734375 36.921875 56.953125 32.296875 
Q 61.1875 27.6875 61.1875 19.921875 
Q 61.1875 9.328125 54.390625 3.953125 
Q 47.609375 -1.421875 34.1875 -1.421875 
Q 28.171875 -1.421875 21.9375 -0.1875 
Q 15.71875 1.03125 9.28125 3.515625 
z
" id="DejaVuSerif-83"/>
      <path d="M 51.421875 15.578125 
Q 49.515625 7.28125 44.09375 2.921875 
Q 38.671875 -1.421875 30.078125 -1.421875 
Q 18.75 -1.421875 11.859375 6.078125 
Q 4.984375 13.578125 4.984375 25.984375 
Q 4.984375 38.421875 11.859375 45.875 
Q 18.75 53.328125 30.078125 53.328125 
Q 35.015625 53.328125 39.890625 52.171875 
Q 44.78125 51.03125 49.703125 48.6875 
L 49.703125 35.40625 
L 44.484375 35.40625 
Q 43.453125 42.234375 40.015625 45.359375 
Q 36.578125 48.484375 30.171875 48.484375 
Q 22.90625 48.484375 19.1875 42.84375 
Q 15.484375 37.203125 15.484375 25.984375 
Q 15.484375 14.75 19.171875 9.078125 
Q 22.859375 3.421875 30.171875 3.421875 
Q 35.984375 3.421875 39.453125 6.4375 
Q 42.921875 9.46875 44.1875 15.578125 
z
" id="DejaVuSerif-99"/>
      <path d="M 39.796875 16.3125 
L 39.796875 27.296875 
L 28.21875 27.296875 
Q 21.53125 27.296875 18.25 24.40625 
Q 14.984375 21.53125 14.984375 15.578125 
Q 14.984375 10.15625 18.296875 6.984375 
Q 21.625 3.8125 27.296875 3.8125 
Q 32.90625 3.8125 36.34375 7.28125 
Q 39.796875 10.75 39.796875 16.3125 
z
M 48.78125 32.421875 
L 48.78125 5.171875 
L 56.78125 5.171875 
L 56.78125 0 
L 39.796875 0 
L 39.796875 5.609375 
Q 36.8125 2 32.90625 0.28125 
Q 29 -1.421875 23.78125 -1.421875 
Q 15.140625 -1.421875 10.0625 3.171875 
Q 4.984375 7.765625 4.984375 15.578125 
Q 4.984375 23.640625 10.796875 28.078125 
Q 16.609375 32.515625 27.203125 32.515625 
L 39.796875 32.515625 
L 39.796875 36.078125 
Q 39.796875 42 36.203125 45.234375 
Q 32.625 48.484375 26.125 48.484375 
Q 20.75 48.484375 17.578125 46.046875 
Q 14.40625 43.609375 13.625 38.8125 
L 8.984375 38.8125 
L 8.984375 49.3125 
Q 13.671875 51.3125 18.09375 52.3125 
Q 22.515625 53.328125 26.703125 53.328125 
Q 37.5 53.328125 43.140625 47.96875 
Q 48.78125 42.625 48.78125 32.421875 
z
" id="DejaVuSerif-97"/>
      <path d="M 20.515625 5.171875 
L 29 5.171875 
L 29 0 
L 2.875 0 
L 2.875 5.171875 
L 11.53125 5.171875 
L 11.53125 70.796875 
L 2.875 70.796875 
L 2.875 75.984375 
L 20.515625 75.984375 
z
" id="DejaVuSerif-108"/>
      <path d="M 54.203125 25 
L 15.484375 25 
L 15.484375 24.609375 
Q 15.484375 14.109375 19.4375 8.765625 
Q 23.390625 3.421875 31.109375 3.421875 
Q 37.015625 3.421875 40.796875 6.515625 
Q 44.578125 9.625 46.09375 15.71875 
L 53.328125 15.71875 
Q 51.171875 7.171875 45.375 2.875 
Q 39.59375 -1.421875 30.171875 -1.421875 
Q 18.796875 -1.421875 11.890625 6.078125 
Q 4.984375 13.578125 4.984375 25.984375 
Q 4.984375 38.28125 11.765625 45.796875 
Q 18.5625 53.328125 29.59375 53.328125 
Q 41.359375 53.328125 47.65625 46.0625 
Q 53.953125 38.8125 54.203125 25 
z
M 43.609375 30.171875 
Q 43.3125 39.265625 39.765625 43.875 
Q 36.234375 48.484375 29.59375 48.484375 
Q 23.390625 48.484375 19.828125 43.84375 
Q 16.265625 39.203125 15.484375 30.171875 
z
" id="DejaVuSerif-101"/>
      <path d="M 52.484375 5.171875 
L 61.078125 5.171875 
L 61.078125 0 
L 43.5 0 
L 43.5 8.109375 
Q 40.875 3.21875 36.796875 0.890625 
Q 32.71875 -1.421875 26.703125 -1.421875 
Q 17.140625 -1.421875 11.0625 6.171875 
Q 4.984375 13.765625 4.984375 25.984375 
Q 4.984375 38.1875 11.03125 45.75 
Q 17.09375 53.328125 26.703125 53.328125 
Q 32.71875 53.328125 36.796875 51 
Q 40.875 48.6875 43.5 43.796875 
L 43.5 70.796875 
L 35.015625 70.796875 
L 35.015625 75.984375 
L 52.484375 75.984375 
z
M 43.5 23.390625 
L 43.5 28.515625 
Q 43.5 37.84375 39.90625 42.765625 
Q 36.328125 47.703125 29.5 47.703125 
Q 22.5625 47.703125 19.015625 42.234375 
Q 15.484375 36.765625 15.484375 25.984375 
Q 15.484375 15.234375 19.015625 9.71875 
Q 22.5625 4.203125 29.5 4.203125 
Q 36.328125 4.203125 39.90625 9.109375 
Q 43.5 14.015625 43.5 23.390625 
z
" id="DejaVuSerif-100"/>
      <path id="DejaVuSerif-32"/>
      <path d="M 24.703125 5.171875 
L 33.984375 5.171875 
L 33.984375 0 
L 5.515625 0 
L 5.515625 5.171875 
L 14.796875 5.171875 
L 14.796875 67.671875 
L 5.515625 67.671875 
L 5.515625 72.90625 
L 33.984375 72.90625 
L 33.984375 67.671875 
L 24.703125 67.671875 
z
" id="DejaVuSerif-73"/>
      <path d="M 4.109375 0 
L 4.109375 5.171875 
L 12.203125 5.171875 
L 12.203125 46.6875 
L 3.609375 46.6875 
L 3.609375 51.90625 
L 21.1875 51.90625 
L 21.1875 42.671875 
Q 23.6875 47.953125 27.65625 50.640625 
Q 31.640625 53.328125 36.921875 53.328125 
Q 45.515625 53.328125 49.5625 48.390625 
Q 53.609375 43.453125 53.609375 33.015625 
L 53.609375 5.171875 
L 61.625 5.171875 
L 61.625 0 
L 36.8125 0 
L 36.8125 5.171875 
L 44.578125 5.171875 
L 44.578125 30.171875 
Q 44.578125 39.703125 42.234375 43.234375 
Q 39.890625 46.78125 33.984375 46.78125 
Q 27.734375 46.78125 24.453125 42.203125 
Q 21.1875 37.640625 21.1875 28.90625 
L 21.1875 5.171875 
L 29 5.171875 
L 29 0 
z
" id="DejaVuSerif-110"/>
      <path d="M 10.796875 46.6875 
L 2.875 46.6875 
L 2.875 51.90625 
L 10.796875 51.90625 
L 10.796875 68.015625 
L 19.828125 68.015625 
L 19.828125 51.90625 
L 36.71875 51.90625 
L 36.71875 46.6875 
L 19.828125 46.6875 
L 19.828125 13.71875 
Q 19.828125 7.125 21.09375 5.265625 
Q 22.359375 3.421875 25.78125 3.421875 
Q 29.296875 3.421875 30.90625 5.484375 
Q 32.515625 7.5625 32.625 12.203125 
L 39.40625 12.203125 
Q 39.015625 5.125 35.546875 1.84375 
Q 32.078125 -1.421875 25 -1.421875 
Q 17.234375 -1.421875 14.015625 2.015625 
Q 10.796875 5.46875 10.796875 13.71875 
z
" id="DejaVuSerif-116"/>
      <path d="M 5.609375 2.875 
L 5.609375 14.984375 
L 10.796875 14.984375 
Q 10.984375 9.1875 14.421875 6.296875 
Q 17.875 3.421875 24.609375 3.421875 
Q 30.671875 3.421875 33.84375 5.6875 
Q 37.015625 7.953125 37.015625 12.3125 
Q 37.015625 15.71875 34.6875 17.8125 
Q 32.375 19.921875 24.90625 22.3125 
L 18.40625 24.515625 
Q 11.71875 26.65625 8.71875 29.875 
Q 5.71875 33.109375 5.71875 38.09375 
Q 5.71875 45.21875 10.9375 49.265625 
Q 16.15625 53.328125 25.390625 53.328125 
Q 29.5 53.328125 34.03125 52.25 
Q 38.578125 51.171875 43.40625 49.125 
L 43.40625 37.796875 
L 38.234375 37.796875 
Q 38.03125 42.828125 34.703125 45.65625 
Q 31.390625 48.484375 25.6875 48.484375 
Q 20.015625 48.484375 17.109375 46.484375 
Q 14.203125 44.484375 14.203125 40.484375 
Q 14.203125 37.203125 16.40625 35.21875 
Q 18.609375 33.25 25.203125 31.203125 
L 32.328125 29 
Q 39.703125 26.703125 42.9375 23.265625 
Q 46.1875 19.828125 46.1875 14.40625 
Q 46.1875 7.03125 40.546875 2.796875 
Q 34.90625 -1.421875 25 -1.421875 
Q 19.96875 -1.421875 15.1875 -0.34375 
Q 10.40625 0.734375 5.609375 2.875 
z
" id="DejaVuSerif-115"/>
      <path d="M 9.71875 68.015625 
Q 9.71875 70.265625 11.34375 71.921875 
Q 12.984375 73.578125 15.28125 73.578125 
Q 17.53125 73.578125 19.15625 71.921875 
Q 20.796875 70.265625 20.796875 68.015625 
Q 20.796875 65.71875 19.1875 64.109375 
Q 17.578125 62.5 15.28125 62.5 
Q 12.984375 62.5 11.34375 64.109375 
Q 9.71875 65.71875 9.71875 68.015625 
z
M 21.1875 5.171875 
L 29.6875 5.171875 
L 29.6875 0 
L 3.609375 0 
L 3.609375 5.171875 
L 12.203125 5.171875 
L 12.203125 46.6875 
L 3.609375 46.6875 
L 3.609375 51.90625 
L 21.1875 51.90625 
z
" id="DejaVuSerif-105"/>
      <path d="M 21.578125 -9.515625 
L 25 -0.875 
L 5.609375 46.6875 
L -0.296875 46.6875 
L -0.296875 51.90625 
L 23.578125 51.90625 
L 23.578125 46.6875 
L 15.28125 46.6875 
L 29.890625 10.984375 
L 44.484375 46.6875 
L 36.71875 46.6875 
L 36.71875 51.90625 
L 56.203125 51.90625 
L 56.203125 46.6875 
L 50.390625 46.6875 
L 26.609375 -11.71875 
Q 24.171875 -17.78125 21.1875 -20 
Q 18.21875 -22.21875 12.796875 -22.21875 
Q 10.5 -22.21875 8.078125 -21.828125 
Q 5.671875 -21.4375 3.21875 -20.703125 
L 3.21875 -10.796875 
L 7.8125 -10.796875 
Q 8.109375 -14.109375 9.5 -15.546875 
Q 10.890625 -17 13.8125 -17 
Q 16.5 -17 18.140625 -15.5 
Q 19.78125 -14.015625 21.578125 -9.515625 
z
" id="DejaVuSerif-121"/>
     </defs>
     <g style="fill:#262626;" transform="translate(11.185365 151.716692)rotate(-90)scale(0.096 -0.096)">
      <use xlink:href="#DejaVuSerif-83"/>
      <use x="68.505859" xlink:href="#DejaVuSerif-99"/>
      <use x="124.511719" xlink:href="#DejaVuSerif-97"/>
      <use x="184.130859" xlink:href="#DejaVuSerif-108"/>
      <use x="216.113281" xlink:href="#DejaVuSerif-101"/>
      <use x="275.292969" xlink:href="#DejaVuSerif-100"/>
      <use x="339.306641" xlink:href="#DejaVuSerif-32"/>
      <use x="371.09375" xlink:href="#DejaVuSerif-73"/>
      <use x="410.595703" xlink:href="#DejaVuSerif-110"/>
      <use x="475" xlink:href="#DejaVuSerif-116"/>
      <use x="515.185547" xlink:href="#DejaVuSerif-101"/>
      <use x="574.365234" xlink:href="#DejaVuSerif-110"/>
      <use x="638.769531" xlink:href="#DejaVuSerif-115"/>
      <use x="690.087891" xlink:href="#DejaVuSerif-105"/>
      <use x="722.070312" xlink:href="#DejaVuSerif-116"/>
      <use x="762.255859" xlink:href="#DejaVuSerif-121"/>
     </g>
    </g>
   </g>
   <g id="line2d_1">
    <path clip-path="url(#p895a9a4d6c)" d="M 74.169627 72.321057 
L 79.499507 49.315115 
L 84.829387 49.142375 
L 90.159267 56.870603 
L 95.489147 43.605597 
L 100.819027 40.73952 
L 106.148906 39.255526 
L 111.478786 35.735559 
L 116.808666 31.976521 
L 122.138546 31.084243 
L 127.468426 30.203241 
L 132.798306 32.459929 
L 138.128186 35.065544 
L 143.458065 31.263238 
L 148.787945 27.221776 
L 154.117825 26.566253 
L 159.447705 33.103418 
L 164.777585 26.759522 
L 170.107465 26.854372 
L 175.437345 25.965132 
L 180.767224 26.515991 
L 186.097104 26.954964 
L 191.426984 25.655535 
L 196.756864 26.781977 
L 202.086744 25.033031 
L 207.416624 28.446446 
L 212.746504 28.536086 
L 218.076383 28.841667 
L 223.406263 26.26219 
L 228.736143 27.439739 
L 234.066023 26.582663 
L 239.395903 27.557965 
L 244.725783 33.263962 
L 250.055663 33.596469 
L 255.385542 32.563663 
L 260.715422 32.923 
L 266.045302 33.1673 
L 271.375182 33.542799 
L 276.705062 31.974566 
L 282.034942 32.387705 
L 287.364822 30.53757 
L 292.694701 31.570034 
L 298.024581 33.04113 
L 303.354461 32.071712 
L 308.684341 33.311226 
L 314.014221 33.823534 
L 319.344101 33.428721 
L 324.673981 31.882164 
L 330.00386 33.344073 
L 335.33374 35.264194 
L 340.66362 33.707131 
L 345.9935 33.850146 
L 351.32338 36.318809 
L 356.65326 33.650984 
L 361.98314 37.988669 
L 367.313019 37.737925 
L 372.642899 32.614182 
L 377.972779 36.014395 
L 383.302659 37.276725 
L 388.632539 37.169698 
L 393.962419 36.613315 
L 399.292299 34.455301 
L 404.622178 29.82888 
L 409.952058 36.74236 
L 415.281938 38.589393 
L 420.611818 38.41017 
L 425.941698 35.594394 
L 431.271578 35.767998 
L 436.601458 34.993263 
L 441.931337 39.986907 
L 447.261217 38.168774 
L 452.591097 36.743385 
L 457.920977 37.11468 
L 463.250857 39.905268 
L 468.580737 41.154671 
L 473.910617 43.939622 
L 479.240496 42.513796 
L 484.570376 45.471326 
L 489.900256 42.861668 
L 495.230136 42.930381 
L 500.560016 44.819846 
L 505.889896 44.357402 
L 511.219776 39.931064 
L 516.549655 49.661867 
L 521.879535 47.336029 
L 527.209415 50.086861 
L 532.539295 42.440177 
L 537.869175 41.801975 
L 543.199055 46.556312 
L 548.528935 44.763794 
L 553.858814 43.682405 
L 559.188694 40.433445 
L 564.518574 37.267822 
L 569.848454 38.959919 
L 575.178334 40.702838 
L 580.508214 50.400025 
L 585.838094 47.46218 
L 591.167973 50.483515 
L 596.497853 48.318004 
L 601.827733 41.968745 
L 607.157613 44.715733 
L 612.487493 42.858802 
L 617.817373 43.084548 
" style="fill:none;stroke:#c8102e;stroke-linecap:round;stroke-width:1.2;"/>
   </g>
   <g id="line2d_2">
    <path clip-path="url(#p895a9a4d6c)" d="M 74.169627 126.730598 
L 79.499507 104.972159 
L 84.829387 108.410352 
L 90.159267 114.775631 
L 95.489147 103.981278 
L 100.819027 101.04804 
L 106.148906 98.069416 
L 111.478786 96.556831 
L 116.808666 92.421819 
L 122.138546 90.840261 
L 127.468426 90.867774 
L 132.798306 90.164513 
L 138.128186 94.118846 
L 143.458065 91.990367 
L 148.787945 90.069312 
L 154.117825 88.526438 
L 159.447705 92.943338 
L 164.777585 91.896699 
L 170.107465 91.80415 
L 175.437345 91.776907 
L 180.767224 94.787361 
L 186.097104 93.05921 
L 191.426984 93.599292 
L 196.756864 93.800234 
L 202.086744 93.088745 
L 207.416624 95.129031 
L 212.746504 92.092786 
L 218.076383 95.542769 
L 223.406263 97.56237 
L 228.736143 96.983167 
L 234.066023 95.837892 
L 239.395903 96.418395 
L 244.725783 101.341545 
L 250.055663 101.215426 
L 255.385542 100.682195 
L 260.715422 100.151998 
L 266.045302 101.856904 
L 271.375182 103.802324 
L 276.705062 104.997177 
L 282.034942 103.883607 
L 287.364822 104.54127 
L 292.694701 103.988562 
L 298.024581 105.39734 
L 303.354461 103.418935 
L 308.684341 105.786248 
L 314.014221 105.158941 
L 319.344101 108.132291 
L 324.673981 104.668602 
L 330.00386 104.438974 
L 335.33374 104.697349 
L 340.66362 106.226597 
L 345.9935 107.676225 
L 351.32338 108.109917 
L 356.65326 104.360235 
L 361.98314 108.677871 
L 367.313019 107.955572 
L 372.642899 105.817432 
L 377.972779 107.431645 
L 383.302659 110.074539 
L 388.632539 110.045265 
L 393.962419 107.738774 
L 399.292299 106.965151 
L 404.622178 104.390671 
L 409.952058 109.432985 
L 415.281938 109.426265 
L 420.611818 111.425746 
L 425.941698 110.300294 
L 431.271578 111.323356 
L 436.601458 111.423362 
L 441.931337 113.183761 
L 447.261217 113.280525 
L 452.591097 113.687316 
L 457.920977 113.117005 
L 463.250857 115.354086 
L 468.580737 116.781369 
L 473.910617 118.428235 
L 479.240496 121.108893 
L 484.570376 119.636885 
L 489.900256 117.806208 
L 495.230136 117.434099 
L 500.560016 121.369672 
L 505.889896 119.984263 
L 511.219776 116.004173 
L 516.549655 121.918607 
L 521.879535 122.069298 
L 527.209415 123.390665 
L 532.539295 121.119514 
L 537.869175 118.143405 
L 543.199055 121.526405 
L 548.528935 120.050848 
L 553.858814 117.171605 
L 559.188694 116.974163 
L 564.518574 116.224232 
L 569.848454 116.356852 
L 575.178334 115.973274 
L 580.508214 119.567999 
L 585.838094 119.176717 
L 591.167973 119.195081 
L 596.497853 118.138861 
L 601.827733 114.56936 
L 607.157613 117.475303 
L 612.487493 117.7647 
L 617.817373 117.156624 
" style="fill:none;stroke:#00b388;stroke-linecap:round;stroke-width:1.2;"/>
   </g>
   <g id="line2d_3">
    <path clip-path="url(#p895a9a4d6c)" d="M 74.169627 181.14014 
L 79.499507 160.629201 
L 84.829387 167.678329 
L 90.159267 172.680658 
L 95.489147 164.356962 
L 100.819027 161.356559 
L 106.148906 156.88331 
L 111.478786 157.378098 
L 116.808666 152.867122 
L 122.138546 150.596273 
L 127.468426 151.532303 
L 132.798306 147.869097 
L 138.128186 153.172148 
L 143.458065 152.717492 
L 148.787945 152.916853 
L 154.117825 150.486623 
L 159.447705 152.783258 
L 164.777585 157.033871 
L 170.107465 156.753928 
L 175.437345 157.588678 
L 180.767224 163.058732 
L 186.097104 159.163455 
L 191.426984 161.543049 
L 196.756864 160.818491 
L 202.086744 161.144463 
L 207.416624 161.811616 
L 212.746504 155.649491 
L 218.076383 162.243866 
L 223.406263 168.86255 
L 228.736143 166.526591 
L 234.066023 165.09312 
L 239.395903 165.278825 
L 244.725783 169.41913 
L 250.055663 168.834382 
L 255.385542 168.800728 
L 260.715422 167.380995 
L 266.045302 170.546511 
L 271.375182 174.061849 
L 276.705062 178.019786 
L 282.034942 175.379509 
L 287.364822 178.54497 
L 292.694701 176.407088 
L 298.024581 177.753546 
L 303.354461 174.766161 
L 308.684341 178.261272 
L 314.014221 176.494346 
L 319.344101 182.835867 
L 324.673981 177.455035 
L 330.00386 175.533875 
L 335.33374 174.130509 
L 340.66362 178.746061 
L 345.9935 181.5023 
L 351.32338 179.90103 
L 356.65326 175.069486 
L 361.98314 179.367078 
L 367.313019 178.173224 
L 372.642899 179.020687 
L 377.972779 178.848898 
L 383.302659 182.872349 
L 388.632539 182.920827 
L 393.962419 178.86423 
L 399.292299 179.475002 
L 404.622178 178.952463 
L 409.952058 182.123609 
L 415.281938 180.263142 
L 420.611818 184.441318 
L 425.941698 185.00619 
L 431.271578 186.878719 
L 436.601458 187.853466 
L 441.931337 186.380614 
L 447.261217 188.392281 
L 452.591097 190.631251 
L 457.920977 189.119335 
L 463.250857 190.802909 
L 468.580737 192.408061 
L 473.910617 192.916848 
L 479.240496 199.703993 
L 484.570376 193.802449 
L 489.900256 192.750742 
L 495.230136 191.937816 
L 500.560016 197.919495 
L 505.889896 195.61112 
L 511.219776 192.077282 
L 516.549655 194.175343 
L 521.879535 196.802563 
L 527.209415 196.694474 
L 532.539295 199.798853 
L 537.869175 194.48483 
L 543.199055 196.496502 
L 548.528935 195.337906 
L 553.858814 190.66081 
L 559.188694 193.514886 
L 564.518574 195.180646 
L 569.848454 193.753786 
L 575.178334 191.243705 
L 580.508214 188.735968 
L 585.838094 190.891249 
L 591.167973 187.906652 
L 596.497853 187.959714 
L 601.827733 187.169979 
L 607.157613 190.234872 
L 612.487493 192.670603 
L 617.817373 191.2287 
" style="fill:none;stroke:#f6be00;stroke-linecap:round;stroke-width:1.2;"/>
   </g>
   <g id="line2d_4"/>
   <g id="line2d_5"/>
   <g id="line2d_6"/>
   <g id="patch_3">
    <path d="M 46.98724 208.537144 
L 46.98724 16.29474 
" style="fill:none;stroke:#262626;stroke-linecap:square;stroke-linejoin:miter;"/>
   </g>
   <g id="patch_4">
    <path d="M 644.99976 208.537144 
L 644.99976 16.29474 
" style="fill:none;stroke:#262626;stroke-linecap:square;stroke-linejoin:miter;"/>
   </g>
   <g id="patch_5">
    <path d="M 46.98724 208.537144 
L 644.99976 208.537144 
" style="fill:none;stroke:#262626;stroke-linecap:square;stroke-linejoin:miter;"/>
   </g>
   <g id="patch_6">
    <path d="M 46.98724 16.29474 
L 644.99976 16.29474 
" style="fill:none;stroke:#262626;stroke-linecap:square;stroke-linejoin:miter;"/>
   </g>
   <g id="text_8">
    <!-- Painted metal sheets Generated Samples -->
    <defs>
     <path d="M 24.703125 37.109375 
L 37.59375 37.109375 
Q 44.875 37.109375 48.671875 41.03125 
Q 52.484375 44.96875 52.484375 52.390625 
Q 52.484375 59.859375 48.671875 63.765625 
Q 44.875 67.671875 37.59375 67.671875 
L 24.703125 67.671875 
z
M 5.515625 0 
L 5.515625 5.171875 
L 14.796875 5.171875 
L 14.796875 67.671875 
L 5.515625 67.671875 
L 5.515625 72.90625 
L 39.984375 72.90625 
Q 50.921875 72.90625 57.3125 67.359375 
Q 63.71875 61.8125 63.71875 52.390625 
Q 63.71875 43.015625 57.3125 37.453125 
Q 50.921875 31.890625 39.984375 31.890625 
L 24.703125 31.890625 
L 24.703125 5.171875 
L 35.984375 5.171875 
L 35.984375 0 
z
" id="DejaVuSerif-80"/>
     <path d="M 51.8125 41.796875 
Q 54.390625 47.515625 58.421875 50.421875 
Q 62.453125 53.328125 67.828125 53.328125 
Q 75.984375 53.328125 79.984375 48.265625 
Q 83.984375 43.21875 83.984375 33.015625 
L 83.984375 5.171875 
L 92.09375 5.171875 
L 92.09375 0 
L 67.1875 0 
L 67.1875 5.171875 
L 75 5.171875 
L 75 31.984375 
Q 75 39.9375 72.65625 43.3125 
Q 70.3125 46.6875 64.890625 46.6875 
Q 58.890625 46.6875 55.734375 42.140625 
Q 52.59375 37.59375 52.59375 28.90625 
L 52.59375 5.171875 
L 60.40625 5.171875 
L 60.40625 0 
L 35.796875 0 
L 35.796875 5.171875 
L 43.609375 5.171875 
L 43.609375 32.328125 
Q 43.609375 40.09375 41.265625 43.390625 
Q 38.921875 46.6875 33.5 46.6875 
Q 27.484375 46.6875 24.328125 42.140625 
Q 21.1875 37.59375 21.1875 28.90625 
L 21.1875 5.171875 
L 29 5.171875 
L 29 0 
L 4.109375 0 
L 4.109375 5.171875 
L 12.203125 5.171875 
L 12.203125 46.78125 
L 3.609375 46.78125 
L 3.609375 51.90625 
L 21.1875 51.90625 
L 21.1875 42.671875 
Q 23.6875 47.859375 27.53125 50.59375 
Q 31.390625 53.328125 36.28125 53.328125 
Q 42.328125 53.328125 46.375 50.3125 
Q 50.4375 47.3125 51.8125 41.796875 
z
" id="DejaVuSerif-109"/>
     <path d="M 4.109375 0 
L 4.109375 5.171875 
L 12.203125 5.171875 
L 12.203125 70.796875 
L 3.609375 70.796875 
L 3.609375 75.984375 
L 21.1875 75.984375 
L 21.1875 42.671875 
Q 23.6875 47.953125 27.65625 50.640625 
Q 31.640625 53.328125 36.921875 53.328125 
Q 45.515625 53.328125 49.5625 48.390625 
Q 53.609375 43.453125 53.609375 33.015625 
L 53.609375 5.171875 
L 61.625 5.171875 
L 61.625 0 
L 36.8125 0 
L 36.8125 5.171875 
L 44.578125 5.171875 
L 44.578125 30.171875 
Q 44.578125 39.703125 42.25 43.1875 
Q 39.9375 46.6875 33.984375 46.6875 
Q 27.734375 46.6875 24.453125 42.140625 
Q 21.1875 37.59375 21.1875 28.90625 
L 21.1875 5.171875 
L 29 5.171875 
L 29 0 
z
" id="DejaVuSerif-104"/>
     <path d="M 64.015625 51.125 
Q 62.3125 60.25 56.890625 64.625 
Q 51.46875 69 41.796875 69 
Q 29.203125 69 23 60.890625 
Q 16.796875 52.78125 16.796875 36.375 
Q 16.796875 20.3125 23.1875 12.0625 
Q 29.59375 3.8125 42 3.8125 
Q 47.515625 3.8125 52.53125 5.171875 
Q 57.5625 6.546875 62.109375 9.28125 
L 62.109375 28.078125 
L 48.390625 28.078125 
L 48.390625 33.296875 
L 72.015625 33.296875 
L 72.015625 6.109375 
Q 65.53125 2.34375 58.03125 0.453125 
Q 50.53125 -1.421875 42 -1.421875 
Q 25.484375 -1.421875 15.546875 8.90625 
Q 5.609375 19.234375 5.609375 36.375 
Q 5.609375 53.65625 15.5625 63.9375 
Q 25.53125 74.21875 42.390625 74.21875 
Q 48.640625 74.21875 55.296875 72.78125 
Q 61.96875 71.34375 69.484375 68.40625 
L 69.484375 51.125 
z
" id="DejaVuSerif-71"/>
     <path d="M 47.796875 52 
L 47.796875 39.015625 
L 42.625 39.015625 
Q 42.390625 42.875 40.484375 44.78125 
Q 38.578125 46.6875 34.90625 46.6875 
Q 28.265625 46.6875 24.71875 42.09375 
Q 21.1875 37.5 21.1875 28.90625 
L 21.1875 5.171875 
L 31.59375 5.171875 
L 31.59375 0 
L 4.109375 0 
L 4.109375 5.171875 
L 12.203125 5.171875 
L 12.203125 46.78125 
L 3.609375 46.78125 
L 3.609375 51.90625 
L 21.1875 51.90625 
L 21.1875 42.671875 
Q 23.828125 48.09375 27.96875 50.703125 
Q 32.125 53.328125 38.09375 53.328125 
Q 40.28125 53.328125 42.703125 52.984375 
Q 45.125 52.640625 47.796875 52 
z
" id="DejaVuSerif-114"/>
     <path d="M 20.515625 28.515625 
L 20.515625 23.390625 
Q 20.515625 14.015625 24.09375 9.109375 
Q 27.6875 4.203125 34.515625 4.203125 
Q 41.40625 4.203125 44.9375 9.71875 
Q 48.484375 15.234375 48.484375 25.984375 
Q 48.484375 36.765625 44.9375 42.234375 
Q 41.40625 47.703125 34.515625 47.703125 
Q 27.6875 47.703125 24.09375 42.765625 
Q 20.515625 37.84375 20.515625 28.515625 
z
M 11.53125 46.6875 
L 2.875 46.6875 
L 2.875 51.90625 
L 20.515625 51.90625 
L 20.515625 43.796875 
Q 23.140625 48.6875 27.21875 51 
Q 31.296875 53.328125 37.3125 53.328125 
Q 46.875 53.328125 52.921875 45.75 
Q 58.984375 38.1875 58.984375 25.984375 
Q 58.984375 13.765625 52.921875 6.171875 
Q 46.875 -1.421875 37.3125 -1.421875 
Q 31.296875 -1.421875 27.21875 0.890625 
Q 23.140625 3.21875 20.515625 8.109375 
L 20.515625 -15.578125 
L 29 -15.578125 
L 29 -20.796875 
L 2.875 -20.796875 
L 2.875 -15.578125 
L 11.53125 -15.578125 
z
" id="DejaVuSerif-112"/>
    </defs>
    <g style="fill:#262626;" transform="translate(245.765 10.29474)scale(0.096 -0.096)">
     <use xlink:href="#DejaVuSerif-80"/>
     <use x="67.222656" xlink:href="#DejaVuSerif-97"/>
     <use x="126.841797" xlink:href="#DejaVuSerif-105"/>
     <use x="158.824219" xlink:href="#DejaVuSerif-110"/>
     <use x="223.228516" xlink:href="#DejaVuSerif-116"/>
     <use x="263.414062" xlink:href="#DejaVuSerif-101"/>
     <use x="322.59375" xlink:href="#DejaVuSerif-100"/>
     <use x="386.607422" xlink:href="#DejaVuSerif-32"/>
     <use x="418.394531" xlink:href="#DejaVuSerif-109"/>
     <use x="513.21875" xlink:href="#DejaVuSerif-101"/>
     <use x="572.398438" xlink:href="#DejaVuSerif-116"/>
     <use x="612.583984" xlink:href="#DejaVuSerif-97"/>
     <use x="672.203125" xlink:href="#DejaVuSerif-108"/>
     <use x="704.185547" xlink:href="#DejaVuSerif-32"/>
     <use x="735.972656" xlink:href="#DejaVuSerif-115"/>
     <use x="787.291016" xlink:href="#DejaVuSerif-104"/>
     <use x="851.695312" xlink:href="#DejaVuSerif-101"/>
     <use x="910.875" xlink:href="#DejaVuSerif-101"/>
     <use x="970.054688" xlink:href="#DejaVuSerif-116"/>
     <use x="1010.240234" xlink:href="#DejaVuSerif-115"/>
     <use x="1061.558594" xlink:href="#DejaVuSerif-32"/>
     <use x="1093.345703" xlink:href="#DejaVuSerif-71"/>
     <use x="1173.228516" xlink:href="#DejaVuSerif-101"/>
     <use x="1232.408203" xlink:href="#DejaVuSerif-110"/>
     <use x="1296.8125" xlink:href="#DejaVuSerif-101"/>
     <use x="1355.992188" xlink:href="#DejaVuSerif-114"/>
     <use x="1403.794922" xlink:href="#DejaVuSerif-97"/>
     <use x="1463.414062" xlink:href="#DejaVuSerif-116"/>
     <use x="1503.599609" xlink:href="#DejaVuSerif-101"/>
     <use x="1562.779297" xlink:href="#DejaVuSerif-100"/>
     <use x="1626.792969" xlink:href="#DejaVuSerif-32"/>
     <use x="1658.580078" xlink:href="#DejaVuSerif-83"/>
     <use x="1727.085938" xlink:href="#DejaVuSerif-97"/>
     <use x="1786.705078" xlink:href="#DejaVuSerif-109"/>
     <use x="1881.529297" xlink:href="#DejaVuSerif-112"/>
     <use x="1945.542969" xlink:href="#DejaVuSerif-108"/>
     <use x="1977.525391" xlink:href="#DejaVuSerif-101"/>
     <use x="2036.705078" xlink:href="#DejaVuSerif-115"/>
    </g>
   </g>
  </g>
  <g id="axes_2">
   <g id="legend_1">
    <g id="line2d_7">
     <path d="M 156.355562 225.096056 
L 173.955562 225.096056 
" style="fill:none;stroke:#c8102e;stroke-linecap:round;stroke-width:1.2;"/>
    </g>
    <g id="line2d_8"/>
    <g id="text_9">
     <!-- Mean + Standard Deviation -->
     <defs>
      <path d="M 5.515625 0 
L 5.515625 5.171875 
L 14.796875 5.171875 
L 14.796875 67.671875 
L 4.984375 67.671875 
L 4.984375 72.90625 
L 26.21875 72.90625 
L 51.8125 21 
L 77.390625 72.90625 
L 97.3125 72.90625 
L 97.3125 67.671875 
L 87.59375 67.671875 
L 87.59375 5.171875 
L 96.921875 5.171875 
L 96.921875 0 
L 68.40625 0 
L 68.40625 5.171875 
L 77.6875 5.171875 
L 77.6875 61.53125 
L 52.6875 10.6875 
L 45.796875 10.6875 
L 20.796875 61.53125 
L 20.796875 5.171875 
L 30.078125 5.171875 
L 30.078125 0 
z
" id="DejaVuSerif-77"/>
      <path d="M 45.796875 62.703125 
L 45.796875 35.296875 
L 73.1875 35.296875 
L 73.1875 27.390625 
L 45.796875 27.390625 
L 45.796875 0 
L 37.984375 0 
L 37.984375 27.390625 
L 10.59375 27.390625 
L 10.59375 35.296875 
L 37.984375 35.296875 
L 37.984375 62.703125 
z
" id="DejaVuSerif-43"/>
      <path d="M 24.703125 5.171875 
L 33.796875 5.171875 
Q 48 5.171875 55.59375 13.28125 
Q 63.1875 21.390625 63.1875 36.53125 
Q 63.1875 51.65625 55.609375 59.65625 
Q 48.046875 67.671875 33.796875 67.671875 
L 24.703125 67.671875 
z
M 5.515625 0 
L 5.515625 5.171875 
L 14.796875 5.171875 
L 14.796875 67.671875 
L 5.515625 67.671875 
L 5.515625 72.90625 
L 34.515625 72.90625 
Q 53.375 72.90625 63.890625 63.28125 
Q 74.421875 53.65625 74.421875 36.53125 
Q 74.421875 19.34375 63.875 9.671875 
Q 53.328125 0 34.515625 0 
z
" id="DejaVuSerif-68"/>
      <path d="M 24.703125 0 
L 5.609375 46.6875 
L -0.296875 46.6875 
L -0.296875 51.90625 
L 23.578125 51.90625 
L 23.578125 46.6875 
L 15.28125 46.6875 
L 29.890625 10.984375 
L 44.484375 46.6875 
L 36.71875 46.6875 
L 36.71875 51.90625 
L 56.203125 51.90625 
L 56.203125 46.6875 
L 50.390625 46.6875 
L 31.296875 0 
z
" id="DejaVuSerif-118"/>
      <path d="M 30.078125 3.421875 
Q 37.3125 3.421875 40.984375 9.125 
Q 44.671875 14.84375 44.671875 25.984375 
Q 44.671875 37.109375 40.984375 42.796875 
Q 37.3125 48.484375 30.078125 48.484375 
Q 22.859375 48.484375 19.171875 42.796875 
Q 15.484375 37.109375 15.484375 25.984375 
Q 15.484375 14.84375 19.1875 9.125 
Q 22.90625 3.421875 30.078125 3.421875 
z
M 30.078125 -1.421875 
Q 18.75 -1.421875 11.859375 6.078125 
Q 4.984375 13.578125 4.984375 25.984375 
Q 4.984375 38.375 11.84375 45.84375 
Q 18.703125 53.328125 30.078125 53.328125 
Q 41.453125 53.328125 48.3125 45.84375 
Q 55.171875 38.375 55.171875 25.984375 
Q 55.171875 13.578125 48.3125 6.078125 
Q 41.453125 -1.421875 30.078125 -1.421875 
z
" id="DejaVuSerif-111"/>
     </defs>
     <g style="fill:#262626;" transform="translate(180.995563 228.176056)scale(0.088 -0.088)">
      <use xlink:href="#DejaVuSerif-77"/>
      <use x="102.392578" xlink:href="#DejaVuSerif-101"/>
      <use x="161.572266" xlink:href="#DejaVuSerif-97"/>
      <use x="221.191406" xlink:href="#DejaVuSerif-110"/>
      <use x="285.595703" xlink:href="#DejaVuSerif-32"/>
      <use x="317.382812" xlink:href="#DejaVuSerif-43"/>
      <use x="401.171875" xlink:href="#DejaVuSerif-32"/>
      <use x="432.958984" xlink:href="#DejaVuSerif-83"/>
      <use x="501.464844" xlink:href="#DejaVuSerif-116"/>
      <use x="541.650391" xlink:href="#DejaVuSerif-97"/>
      <use x="601.269531" xlink:href="#DejaVuSerif-110"/>
      <use x="665.673828" xlink:href="#DejaVuSerif-100"/>
      <use x="729.6875" xlink:href="#DejaVuSerif-97"/>
      <use x="789.306641" xlink:href="#DejaVuSerif-114"/>
      <use x="837.109375" xlink:href="#DejaVuSerif-100"/>
      <use x="901.123047" xlink:href="#DejaVuSerif-32"/>
      <use x="932.910156" xlink:href="#DejaVuSerif-68"/>
      <use x="1013.085938" xlink:href="#DejaVuSerif-101"/>
      <use x="1072.265625" xlink:href="#DejaVuSerif-118"/>
      <use x="1128.759766" xlink:href="#DejaVuSerif-105"/>
      <use x="1160.742188" xlink:href="#DejaVuSerif-97"/>
      <use x="1220.361328" xlink:href="#DejaVuSerif-116"/>
      <use x="1260.546875" xlink:href="#DejaVuSerif-105"/>
      <use x="1292.529297" xlink:href="#DejaVuSerif-111"/>
      <use x="1352.734375" xlink:href="#DejaVuSerif-110"/>
     </g>
    </g>
    <g id="line2d_9">
     <path d="M 323.306687 225.096056 
L 340.906687 225.096056 
" style="fill:none;stroke:#00b388;stroke-linecap:round;stroke-width:1.2;"/>
    </g>
    <g id="line2d_10"/>
    <g id="text_10">
     <!-- Mean -->
     <g style="fill:#262626;" transform="translate(347.946687 228.176056)scale(0.088 -0.088)">
      <use xlink:href="#DejaVuSerif-77"/>
      <use x="102.392578" xlink:href="#DejaVuSerif-101"/>
      <use x="161.572266" xlink:href="#DejaVuSerif-97"/>
      <use x="221.191406" xlink:href="#DejaVuSerif-110"/>
     </g>
    </g>
    <g id="line2d_11">
     <path d="M 390.680313 225.096056 
L 408.280313 225.096056 
" style="fill:none;stroke:#f6be00;stroke-linecap:round;stroke-width:1.2;"/>
    </g>
    <g id="line2d_12"/>
    <g id="text_11">
     <!-- Mean - Standard Deviation -->
     <defs>
      <path d="M 4.390625 30.609375 
L 29.390625 30.609375 
L 29.390625 23 
L 4.390625 23 
z
" id="DejaVuSerif-45"/>
     </defs>
     <g style="fill:#262626;" transform="translate(415.320312 228.176056)scale(0.088 -0.088)">
      <use xlink:href="#DejaVuSerif-77"/>
      <use x="102.392578" xlink:href="#DejaVuSerif-101"/>
      <use x="161.572266" xlink:href="#DejaVuSerif-97"/>
      <use x="221.191406" xlink:href="#DejaVuSerif-110"/>
      <use x="285.595703" xlink:href="#DejaVuSerif-32"/>
      <use x="317.382812" xlink:href="#DejaVuSerif-45"/>
      <use x="351.171875" xlink:href="#DejaVuSerif-32"/>
      <use x="382.958984" xlink:href="#DejaVuSerif-83"/>
      <use x="451.464844" xlink:href="#DejaVuSerif-116"/>
      <use x="491.650391" xlink:href="#DejaVuSerif-97"/>
      <use x="551.269531" xlink:href="#DejaVuSerif-110"/>
      <use x="615.673828" xlink:href="#DejaVuSerif-100"/>
      <use x="679.6875" xlink:href="#DejaVuSerif-97"/>
      <use x="739.306641" xlink:href="#DejaVuSerif-114"/>
      <use x="787.109375" xlink:href="#DejaVuSerif-100"/>
      <use x="851.123047" xlink:href="#DejaVuSerif-32"/>
      <use x="882.910156" xlink:href="#DejaVuSerif-68"/>
      <use x="963.085938" xlink:href="#DejaVuSerif-101"/>
      <use x="1022.265625" xlink:href="#DejaVuSerif-118"/>
      <use x="1078.759766" xlink:href="#DejaVuSerif-105"/>
      <use x="1110.742188" xlink:href="#DejaVuSerif-97"/>
      <use x="1170.361328" xlink:href="#DejaVuSerif-116"/>
      <use x="1210.546875" xlink:href="#DejaVuSerif-105"/>
      <use x="1242.529297" xlink:href="#DejaVuSerif-111"/>
      <use x="1302.734375" xlink:href="#DejaVuSerif-110"/>
     </g>
    </g>
   </g>
  </g>
  <g id="axes_3">
   <g id="patch_7">
    <path d="M 46.98724 434.89201 
L 644.99976 434.89201 
L 644.99976 242.649606 
L 46.98724 242.649606 
z
" style="fill:#ffffff;"/>
   </g>
   <g id="matplotlib.axis_3">
    <g id="xtick_1">
     <g id="text_12">
      <!-- 0 -->
      <g style="fill:#262626;" transform="translate(71.370127 449.878635)scale(0.088 -0.088)">
       <use xlink:href="#DejaVuSerif-48"/>
      </g>
     </g>
    </g>
    <g id="xtick_2">
     <g id="text_13">
      <!-- 20 -->
      <g style="fill:#262626;" transform="translate(175.168224 449.878635)scale(0.088 -0.088)">
       <use xlink:href="#DejaVuSerif-50"/>
       <use x="63.623047" xlink:href="#DejaVuSerif-48"/>
      </g>
     </g>
    </g>
    <g id="xtick_3">
     <g id="text_14">
      <!-- 40 -->
      <g style="fill:#262626;" transform="translate(281.765822 449.878635)scale(0.088 -0.088)">
       <use xlink:href="#DejaVuSerif-52"/>
       <use x="63.623047" xlink:href="#DejaVuSerif-48"/>
      </g>
     </g>
    </g>
    <g id="xtick_4">
     <g id="text_15">
      <!-- 60 -->
      <g style="fill:#262626;" transform="translate(388.363419 449.878635)scale(0.088 -0.088)">
       <use xlink:href="#DejaVuSerif-54"/>
       <use x="63.623047" xlink:href="#DejaVuSerif-48"/>
      </g>
     </g>
    </g>
    <g id="xtick_5">
     <g id="text_16">
      <!-- 80 -->
      <defs>
       <path d="M 46.578125 19.921875 
Q 46.578125 27.734375 42.6875 32.046875 
Q 38.8125 36.375 31.78125 36.375 
Q 24.75 36.375 20.875 32.046875 
Q 17 27.734375 17 19.921875 
Q 17 12.0625 20.875 7.734375 
Q 24.75 3.421875 31.78125 3.421875 
Q 38.8125 3.421875 42.6875 7.734375 
Q 46.578125 12.0625 46.578125 19.921875 
z
M 44.578125 55.328125 
Q 44.578125 61.96875 41.203125 65.671875 
Q 37.84375 69.390625 31.78125 69.390625 
Q 25.78125 69.390625 22.390625 65.671875 
Q 19 61.96875 19 55.328125 
Q 19 48.640625 22.390625 44.921875 
Q 25.78125 41.21875 31.78125 41.21875 
Q 37.84375 41.21875 41.203125 44.921875 
Q 44.578125 48.640625 44.578125 55.328125 
z
M 39.3125 38.8125 
Q 47.609375 37.703125 52.25 32.6875 
Q 56.890625 27.6875 56.890625 19.921875 
Q 56.890625 9.671875 50.390625 4.125 
Q 43.890625 -1.421875 31.78125 -1.421875 
Q 19.734375 -1.421875 13.203125 4.125 
Q 6.6875 9.671875 6.6875 19.921875 
Q 6.6875 27.6875 11.328125 32.6875 
Q 15.96875 37.703125 24.3125 38.8125 
Q 16.9375 40.140625 13 44.40625 
Q 9.078125 48.6875 9.078125 55.328125 
Q 9.078125 64.109375 15.125 69.15625 
Q 21.1875 74.21875 31.78125 74.21875 
Q 42.390625 74.21875 48.4375 69.15625 
Q 54.5 64.109375 54.5 55.328125 
Q 54.5 48.6875 50.5625 44.40625 
Q 46.625 40.140625 39.3125 38.8125 
z
" id="DejaVuSerif-56"/>
      </defs>
      <g style="fill:#262626;" transform="translate(494.961016 449.878635)scale(0.088 -0.088)">
       <use xlink:href="#DejaVuSerif-56"/>
       <use x="63.623047" xlink:href="#DejaVuSerif-48"/>
      </g>
     </g>
    </g>
    <g id="xtick_6">
     <g id="text_17">
      <!-- 100 -->
      <defs>
       <path d="M 14.203125 0 
L 14.203125 5.171875 
L 26.90625 5.171875 
L 26.90625 65.828125 
L 12.203125 56.296875 
L 12.203125 62.703125 
L 29.984375 74.21875 
L 36.71875 74.21875 
L 36.71875 5.171875 
L 49.421875 5.171875 
L 49.421875 0 
z
" id="DejaVuSerif-49"/>
      </defs>
      <g style="fill:#262626;" transform="translate(598.759113 449.878635)scale(0.088 -0.088)">
       <use xlink:href="#DejaVuSerif-49"/>
       <use x="63.623047" xlink:href="#DejaVuSerif-48"/>
       <use x="127.246094" xlink:href="#DejaVuSerif-48"/>
      </g>
     </g>
    </g>
    <g id="text_18">
     <!-- Spectral Band -->
     <defs>
      <path d="M 24.703125 5.171875 
L 39.3125 5.171875 
Q 48.09375 5.171875 52.140625 8.984375 
Q 56.203125 12.796875 56.203125 21.09375 
Q 56.203125 29.34375 52.171875 33.125 
Q 48.140625 36.921875 39.3125 36.921875 
L 24.703125 36.921875 
z
M 24.703125 42.09375 
L 37.109375 42.09375 
Q 45.125 42.09375 48.796875 45.171875 
Q 52.484375 48.25 52.484375 54.890625 
Q 52.484375 61.578125 48.796875 64.625 
Q 45.125 67.671875 37.109375 67.671875 
L 24.703125 67.671875 
z
M 5.515625 0 
L 5.515625 5.171875 
L 14.796875 5.171875 
L 14.796875 67.671875 
L 5.515625 67.671875 
L 5.515625 72.90625 
L 41.5 72.90625 
Q 52.546875 72.90625 58.125 68.390625 
Q 63.71875 63.875 63.71875 54.890625 
Q 63.71875 48.390625 59.828125 44.53125 
Q 55.953125 40.671875 48.484375 39.796875 
Q 57.765625 38.625 62.578125 33.859375 
Q 67.390625 29.109375 67.390625 21.09375 
Q 67.390625 10.25 60.546875 5.125 
Q 53.71875 0 39.203125 0 
z
" id="DejaVuSerif-66"/>
     </defs>
     <g style="fill:#262626;" transform="translate(311.40425 463.00326)scale(0.096 -0.096)">
      <use xlink:href="#DejaVuSerif-83"/>
      <use x="68.505859" xlink:href="#DejaVuSerif-112"/>
      <use x="132.519531" xlink:href="#DejaVuSerif-101"/>
      <use x="191.699219" xlink:href="#DejaVuSerif-99"/>
      <use x="247.705078" xlink:href="#DejaVuSerif-116"/>
      <use x="287.890625" xlink:href="#DejaVuSerif-114"/>
      <use x="335.693359" xlink:href="#DejaVuSerif-97"/>
      <use x="395.3125" xlink:href="#DejaVuSerif-108"/>
      <use x="427.294922" xlink:href="#DejaVuSerif-32"/>
      <use x="459.082031" xlink:href="#DejaVuSerif-66"/>
      <use x="532.568359" xlink:href="#DejaVuSerif-97"/>
      <use x="592.1875" xlink:href="#DejaVuSerif-110"/>
      <use x="656.591797" xlink:href="#DejaVuSerif-100"/>
     </g>
    </g>
   </g>
   <g id="matplotlib.axis_4">
    <g id="ytick_7">
     <g id="text_19">
      <!-- 2000 -->
      <g style="fill:#262626;" transform="translate(16.29124 413.841622)scale(0.088 -0.088)">
       <use xlink:href="#DejaVuSerif-50"/>
       <use x="63.623047" xlink:href="#DejaVuSerif-48"/>
       <use x="127.246094" xlink:href="#DejaVuSerif-48"/>
       <use x="190.869141" xlink:href="#DejaVuSerif-48"/>
      </g>
     </g>
    </g>
    <g id="ytick_8">
     <g id="text_20">
      <!-- 3000 -->
      <defs>
       <path d="M 9.71875 69.828125 
Q 15.4375 71.96875 20.671875 73.09375 
Q 25.921875 74.21875 30.515625 74.21875 
Q 41.21875 74.21875 47.21875 69.59375 
Q 53.21875 64.984375 53.21875 56.78125 
Q 53.21875 50.203125 49.0625 45.78125 
Q 44.921875 41.359375 37.3125 39.796875 
Q 46.296875 38.53125 51.25 33.28125 
Q 56.203125 28.03125 56.203125 19.671875 
Q 56.203125 9.46875 49.34375 4.015625 
Q 42.484375 -1.421875 29.59375 -1.421875 
Q 23.875 -1.421875 18.421875 -0.1875 
Q 12.984375 1.03125 7.625 3.515625 
L 7.625 17.671875 
L 13.09375 17.671875 
Q 13.578125 10.640625 17.828125 7.03125 
Q 22.078125 3.421875 29.78125 3.421875 
Q 37.25 3.421875 41.578125 7.734375 
Q 45.90625 12.0625 45.90625 19.578125 
Q 45.90625 28.171875 41.453125 32.59375 
Q 37.015625 37.015625 28.421875 37.015625 
L 23.78125 37.015625 
L 23.78125 42 
L 26.21875 42 
Q 34.765625 42 39.03125 45.53125 
Q 43.3125 49.078125 43.3125 56.203125 
Q 43.3125 62.59375 39.796875 65.984375 
Q 36.28125 69.390625 29.6875 69.390625 
Q 23.09375 69.390625 19.453125 66.265625 
Q 15.828125 63.140625 15.1875 56.984375 
L 9.71875 56.984375 
z
" id="DejaVuSerif-51"/>
      </defs>
      <g style="fill:#262626;" transform="translate(16.29124 373.388207)scale(0.088 -0.088)">
       <use xlink:href="#DejaVuSerif-51"/>
       <use x="63.623047" xlink:href="#DejaVuSerif-48"/>
       <use x="127.246094" xlink:href="#DejaVuSerif-48"/>
       <use x="190.869141" xlink:href="#DejaVuSerif-48"/>
      </g>
     </g>
    </g>
    <g id="ytick_9">
     <g id="text_21">
      <!-- 4000 -->
      <g style="fill:#262626;" transform="translate(16.29124 332.934792)scale(0.088 -0.088)">
       <use xlink:href="#DejaVuSerif-52"/>
       <use x="63.623047" xlink:href="#DejaVuSerif-48"/>
       <use x="127.246094" xlink:href="#DejaVuSerif-48"/>
       <use x="190.869141" xlink:href="#DejaVuSerif-48"/>
      </g>
     </g>
    </g>
    <g id="ytick_10">
     <g id="text_22">
      <!-- 5000 -->
      <defs>
       <path d="M 50.296875 72.90625 
L 50.296875 64.890625 
L 16.890625 64.890625 
L 16.890625 44 
Q 19.4375 45.75 22.828125 46.625 
Q 26.21875 47.515625 30.421875 47.515625 
Q 42.234375 47.515625 49.0625 40.96875 
Q 55.90625 34.421875 55.90625 23.09375 
Q 55.90625 11.53125 49 5.046875 
Q 42.09375 -1.421875 29.59375 -1.421875 
Q 24.5625 -1.421875 19.28125 -0.1875 
Q 14.015625 1.03125 8.5 3.515625 
L 8.5 17.671875 
L 14.015625 17.671875 
Q 14.453125 10.75 18.421875 7.078125 
Q 22.40625 3.421875 29.59375 3.421875 
Q 37.3125 3.421875 41.453125 8.5 
Q 45.609375 13.578125 45.609375 23.09375 
Q 45.609375 32.5625 41.484375 37.609375 
Q 37.359375 42.671875 29.59375 42.671875 
Q 25.203125 42.671875 21.84375 41.109375 
Q 18.5 39.546875 15.921875 36.28125 
L 11.71875 36.28125 
L 11.71875 72.90625 
z
" id="DejaVuSerif-53"/>
      </defs>
      <g style="fill:#262626;" transform="translate(16.29124 292.481376)scale(0.088 -0.088)">
       <use xlink:href="#DejaVuSerif-53"/>
       <use x="63.623047" xlink:href="#DejaVuSerif-48"/>
       <use x="127.246094" xlink:href="#DejaVuSerif-48"/>
       <use x="190.869141" xlink:href="#DejaVuSerif-48"/>
      </g>
     </g>
    </g>
    <g id="ytick_11">
     <g id="text_23">
      <!-- 6000 -->
      <g style="fill:#262626;" transform="translate(16.29124 252.027961)scale(0.088 -0.088)">
       <use xlink:href="#DejaVuSerif-54"/>
       <use x="63.623047" xlink:href="#DejaVuSerif-48"/>
       <use x="127.246094" xlink:href="#DejaVuSerif-48"/>
       <use x="190.869141" xlink:href="#DejaVuSerif-48"/>
      </g>
     </g>
    </g>
    <g id="text_24">
     <!-- Intensity -->
     <g style="fill:#262626;" transform="translate(10.15824 360.259058)rotate(-90)scale(0.096 -0.096)">
      <use xlink:href="#DejaVuSerif-73"/>
      <use x="39.501953" xlink:href="#DejaVuSerif-110"/>
      <use x="103.90625" xlink:href="#DejaVuSerif-116"/>
      <use x="144.091797" xlink:href="#DejaVuSerif-101"/>
      <use x="203.271484" xlink:href="#DejaVuSerif-110"/>
      <use x="267.675781" xlink:href="#DejaVuSerif-115"/>
      <use x="318.994141" xlink:href="#DejaVuSerif-105"/>
      <use x="350.976562" xlink:href="#DejaVuSerif-116"/>
      <use x="391.162109" xlink:href="#DejaVuSerif-121"/>
     </g>
    </g>
   </g>
   <g id="line2d_13">
    <path clip-path="url(#p825e2aab8d)" d="M 74.169627 349.676584 
L 79.499507 344.392613 
L 84.829387 337.735949 
L 90.159267 325.060659 
L 95.489147 312.585298 
L 100.819027 303.463807 
L 106.148906 295.729896 
L 111.478786 290.094373 
L 116.808666 284.319386 
L 122.138546 277.346817 
L 127.468426 270.549036 
L 132.798306 266.879694 
L 138.128186 262.216988 
L 143.458065 258.133536 
L 148.787945 255.603606 
L 154.117825 254.145161 
L 159.447705 252.340174 
L 164.777585 251.387897 
L 170.107465 251.859738 
L 175.437345 252.505686 
L 180.767224 253.365988 
L 186.097104 254.350273 
L 191.426984 256.034941 
L 196.756864 257.639491 
L 202.086744 257.989918 
L 207.416624 257.933245 
L 212.746504 260.308881 
L 218.076383 263.977579 
L 223.406263 267.931971 
L 228.736143 270.780037 
L 234.066023 273.464132 
L 239.395903 277.5836 
L 244.725783 282.158364 
L 250.055663 285.975765 
L 255.385542 290.269739 
L 260.715422 295.050676 
L 266.045302 300.178134 
L 271.375182 305.953659 
L 276.705062 312.25526 
L 282.034942 319.118818 
L 287.364822 326.904919 
L 292.694701 334.842918 
L 298.024581 341.855738 
L 303.354461 347.77022 
L 308.684341 352.691331 
L 314.014221 356.763499 
L 319.344101 360.549382 
L 324.673981 363.883437 
L 330.00386 366.2963 
L 335.33374 368.867499 
L 340.66362 370.612178 
L 345.9935 371.694614 
L 351.32338 372.960965 
L 356.65326 374.204709 
L 361.98314 375.858976 
L 367.313019 377.277803 
L 372.642899 377.796162 
L 377.972779 377.542228 
L 383.302659 376.931452 
L 388.632539 376.181483 
L 393.962419 374.79632 
L 399.292299 373.05423 
L 404.622178 371.489885 
L 409.952058 370.246005 
L 415.281938 369.599768 
L 420.611818 368.829544 
L 425.941698 367.186233 
L 431.271578 365.905218 
L 436.601458 364.842199 
L 441.931337 364.555486 
L 447.261217 365.093205 
L 452.591097 366.460302 
L 457.920977 368.857606 
L 463.250857 371.045337 
L 468.580737 372.24032 
L 473.910617 372.217292 
L 479.240496 371.546009 
L 484.570376 370.206729 
L 489.900256 368.795507 
L 495.230136 367.092282 
L 500.560016 364.972239 
L 505.889896 363.689149 
L 511.219776 364.319708 
L 516.549655 366.323889 
L 521.879535 365.001499 
L 527.209415 363.317599 
L 532.539295 362.859291 
L 537.869175 363.489924 
L 543.199055 363.946987 
L 548.528935 363.751685 
L 553.858814 362.875918 
L 559.188694 362.35365 
L 564.518574 361.800277 
L 569.848454 360.129694 
L 575.178334 358.278749 
L 580.508214 357.318369 
L 585.838094 356.618711 
L 591.167973 355.384267 
L 596.497853 353.904783 
L 601.827733 352.291397 
L 607.157613 351.208459 
L 612.487493 349.10103 
L 617.817373 346.595485 
" style="fill:none;stroke:#c8102e;stroke-linecap:round;stroke-width:1.2;"/>
   </g>
   <g id="line2d_14">
    <path clip-path="url(#p825e2aab8d)" d="M 74.169627 373.556702 
L 79.499507 369.955356 
L 84.829387 365.541211 
L 90.159267 355.82415 
L 95.489147 345.866445 
L 100.819027 338.793624 
L 106.148906 333.028576 
L 111.478786 328.744303 
L 116.808666 324.206573 
L 122.138546 318.607429 
L 127.468426 313.258526 
L 132.798306 310.627068 
L 138.128186 307.162331 
L 143.458065 303.978061 
L 148.787945 302.106707 
L 154.117825 301.24735 
L 159.447705 300.046771 
L 164.777585 299.382372 
L 170.107465 299.81551 
L 175.437345 300.367782 
L 180.767224 301.094439 
L 186.097104 301.935419 
L 191.426984 303.329603 
L 196.756864 304.652505 
L 202.086744 304.933754 
L 207.416624 304.893331 
L 212.746504 306.805679 
L 218.076383 309.794721 
L 223.406263 313.003624 
L 228.736143 315.330733 
L 234.066023 317.517774 
L 239.395903 320.864339 
L 244.725783 324.594385 
L 250.055663 327.720997 
L 255.385542 331.231692 
L 260.715422 335.129657 
L 266.045302 339.294404 
L 271.375182 343.977977 
L 276.705062 349.054625 
L 282.034942 354.602337 
L 287.364822 360.956381 
L 292.694701 367.395121 
L 298.024581 373.049275 
L 303.354461 377.805484 
L 308.684341 381.757617 
L 314.014221 385.035817 
L 319.344101 388.104773 
L 324.673981 390.777646 
L 330.00386 392.688671 
L 335.33374 394.729057 
L 340.66362 396.133708 
L 345.9935 397.017848 
L 351.32338 398.041696 
L 356.65326 399.050775 
L 361.98314 400.389738 
L 367.313019 401.534074 
L 372.642899 401.974941 
L 377.972779 401.803713 
L 383.302659 401.330092 
L 388.632539 400.733637 
L 393.962419 399.613845 
L 399.292299 398.208322 
L 404.622178 396.945694 
L 409.952058 395.912914 
L 415.281938 395.283555 
L 420.611818 394.57768 
L 425.941698 393.29839 
L 431.271578 392.283054 
L 436.601458 391.368085 
L 441.931337 391.051526 
L 447.261217 391.384387 
L 452.591097 392.35587 
L 457.920977 394.119008 
L 463.250857 395.804517 
L 468.580737 396.718343 
L 473.910617 396.643481 
L 479.240496 396.088111 
L 484.570376 394.96859 
L 489.900256 393.757153 
L 495.230136 392.296438 
L 500.560016 390.497449 
L 505.889896 389.32803 
L 511.219776 389.45703 
L 516.549655 390.562957 
L 521.879535 389.759212 
L 527.209415 388.844484 
L 532.539295 388.62017 
L 537.869175 389.124109 
L 543.199055 389.490746 
L 548.528935 389.26938 
L 553.858814 388.434055 
L 559.188694 387.920041 
L 564.518574 387.402177 
L 569.848454 385.994488 
L 575.178334 384.451514 
L 580.508214 383.55444 
L 585.838094 382.740981 
L 591.167973 381.543349 
L 596.497853 380.351643 
L 601.827733 379.124175 
L 607.157613 378.34371 
L 612.487493 376.817067 
L 617.817373 374.911245 
" style="fill:none;stroke:#00b388;stroke-linecap:round;stroke-width:1.2;"/>
   </g>
   <g id="line2d_15">
    <path clip-path="url(#p825e2aab8d)" d="M 74.169627 397.43682 
L 79.499507 395.518099 
L 84.829387 393.346473 
L 90.159267 386.587642 
L 95.489147 379.147591 
L 100.819027 374.12344 
L 106.148906 370.327255 
L 111.478786 367.394234 
L 116.808666 364.09376 
L 122.138546 359.868042 
L 127.468426 355.968015 
L 132.798306 354.374443 
L 138.128186 352.107675 
L 143.458065 349.822586 
L 148.787945 348.609808 
L 154.117825 348.349539 
L 159.447705 347.753368 
L 164.777585 347.376847 
L 170.107465 347.771281 
L 175.437345 348.229877 
L 180.767224 348.82289 
L 186.097104 349.520566 
L 191.426984 350.624265 
L 196.756864 351.665519 
L 202.086744 351.87759 
L 207.416624 351.853416 
L 212.746504 353.302478 
L 218.076383 355.611862 
L 223.406263 358.075277 
L 228.736143 359.881429 
L 234.066023 361.571415 
L 239.395903 364.145078 
L 244.725783 367.030405 
L 250.055663 369.46623 
L 255.385542 372.193646 
L 260.715422 375.208638 
L 266.045302 378.410673 
L 271.375182 382.002295 
L 276.705062 385.853989 
L 282.034942 390.085856 
L 287.364822 395.007842 
L 292.694701 399.947323 
L 298.024581 404.242811 
L 303.354461 407.840748 
L 308.684341 410.823903 
L 314.014221 413.308135 
L 319.344101 415.660163 
L 324.673981 417.671855 
L 330.00386 419.081042 
L 335.33374 420.590615 
L 340.66362 421.655238 
L 345.9935 422.341082 
L 351.32338 423.122426 
L 356.65326 423.896842 
L 361.98314 424.9205 
L 367.313019 425.790344 
L 372.642899 426.153719 
L 377.972779 426.065198 
L 383.302659 425.728732 
L 388.632539 425.285792 
L 393.962419 424.43137 
L 399.292299 423.362413 
L 404.622178 422.401502 
L 409.952058 421.579823 
L 415.281938 420.967342 
L 420.611818 420.325817 
L 425.941698 419.410546 
L 431.271578 418.660891 
L 436.601458 417.893971 
L 441.931337 417.547566 
L 447.261217 417.675569 
L 452.591097 418.251439 
L 457.920977 419.38041 
L 463.250857 420.563696 
L 468.580737 421.196365 
L 473.910617 421.06967 
L 479.240496 420.630214 
L 484.570376 419.73045 
L 489.900256 418.718798 
L 495.230136 417.500595 
L 500.560016 416.02266 
L 505.889896 414.966911 
L 511.219776 414.594351 
L 516.549655 414.802025 
L 521.879535 414.516925 
L 527.209415 414.371368 
L 532.539295 414.38105 
L 537.869175 414.758294 
L 543.199055 415.034505 
L 548.528935 414.787075 
L 553.858814 413.992191 
L 559.188694 413.486431 
L 564.518574 413.004076 
L 569.848454 411.859283 
L 575.178334 410.624278 
L 580.508214 409.790512 
L 585.838094 408.863251 
L 591.167973 407.702431 
L 596.497853 406.798502 
L 601.827733 405.956952 
L 607.157613 405.47896 
L 612.487493 404.533103 
L 617.817373 403.227005 
" style="fill:none;stroke:#f6be00;stroke-linecap:round;stroke-width:1.2;"/>
   </g>
   <g id="patch_8">
    <path d="M 46.98724 434.89201 
L 46.98724 242.649606 
" style="fill:none;stroke:#262626;stroke-linecap:square;stroke-linejoin:miter;"/>
   </g>
   <g id="patch_9">
    <path d="M 644.99976 434.89201 
L 644.99976 242.649606 
" style="fill:none;stroke:#262626;stroke-linecap:square;stroke-linejoin:miter;"/>
   </g>
   <g id="patch_10">
    <path d="M 46.98724 434.89201 
L 644.99976 434.89201 
" style="fill:none;stroke:#262626;stroke-linecap:square;stroke-linejoin:miter;"/>
   </g>
   <g id="patch_11">
    <path d="M 46.98724 242.649606 
L 644.99976 242.649606 
" style="fill:none;stroke:#262626;stroke-linecap:square;stroke-linejoin:miter;"/>
   </g>
  </g>
 </g>
 <defs>
  <clipPath id="p895a9a4d6c">
   <rect height="192.242404" width="598.01252" x="46.98724" y="16.29474"/>
  </clipPath>
  <clipPath id="p825e2aab8d">
   <rect height="192.242404" width="598.01252" x="46.98724" y="242.649606"/>
  </clipPath>
 </defs>
</svg>
