<?xml version="1.0" encoding="utf-8" standalone="no"?>
<!DOCTYPE svg PUBLIC "-//W3C//DTD SVG 1.1//EN"
  "http://www.w3.org/Graphics/SVG/1.1/DTD/svg11.dtd">
<!-- Created with matplotlib (https://matplotlib.org/) -->
<svg height="468pt" version="1.1" viewBox="0 0 648 468" width="648pt" xmlns="http://www.w3.org/2000/svg" xmlns:xlink="http://www.w3.org/1999/xlink">
 <defs>
  <style type="text/css">
*{stroke-linecap:butt;stroke-linejoin:round;}
  </style>
 </defs>
 <g id="figure_1">
  <g id="patch_1">
   <path d="M 0 468 
L 648 468 
L 648 0 
L 0 0 
z
" style="fill:#ffffff;"/>
  </g>
  <g id="axes_1">
   <g id="patch_2">
    <path d="M 38.58599 208.631112 
L 644.99976 208.631112 
L 644.99976 16.29474 
L 38.58599 16.29474 
z
" style="fill:#ffffff;"/>
   </g>
   <g id="matplotlib.axis_1"/>
   <g id="matplotlib.axis_2">
    <g id="ytick_1">
     <g id="text_1">
      <!-- 0.6 -->
      <defs>
       <path d="M 31.78125 3.421875 
Q 39.265625 3.421875 42.96875 11.625 
Q 46.6875 19.828125 46.6875 36.375 
Q 46.6875 52.984375 42.96875 61.1875 
Q 39.265625 69.390625 31.78125 69.390625 
Q 24.3125 69.390625 20.59375 61.1875 
Q 16.890625 52.984375 16.890625 36.375 
Q 16.890625 19.828125 20.59375 11.625 
Q 24.3125 3.421875 31.78125 3.421875 
z
M 31.78125 -1.421875 
Q 19.921875 -1.421875 13.25 8.53125 
Q 6.59375 18.5 6.59375 36.375 
Q 6.59375 54.296875 13.25 64.25 
Q 19.921875 74.21875 31.78125 74.21875 
Q 43.703125 74.21875 50.34375 64.25 
Q 56.984375 54.296875 56.984375 36.375 
Q 56.984375 18.5 50.34375 8.53125 
Q 43.703125 -1.421875 31.78125 -1.421875 
z
" id="DejaVuSerif-48"/>
       <path d="M 9.421875 5.078125 
Q 9.421875 7.8125 11.28125 9.71875 
Q 13.140625 11.625 15.921875 11.625 
Q 18.609375 11.625 20.5 9.71875 
Q 22.40625 7.8125 22.40625 5.078125 
Q 22.40625 2.390625 20.5 0.484375 
Q 18.609375 -1.421875 15.921875 -1.421875 
Q 13.140625 -1.421875 11.28125 0.453125 
Q 9.421875 2.34375 9.421875 5.078125 
z
" id="DejaVuSerif-46"/>
       <path d="M 32.71875 3.421875 
Q 39.59375 3.421875 43.296875 8.46875 
Q 47.015625 13.53125 47.015625 23 
Q 47.015625 32.46875 43.296875 37.515625 
Q 39.59375 42.578125 32.71875 42.578125 
Q 25.734375 42.578125 22.0625 37.6875 
Q 18.40625 32.8125 18.40625 23.578125 
Q 18.40625 13.875 22.109375 8.640625 
Q 25.828125 3.421875 32.71875 3.421875 
z
M 16.796875 40.140625 
Q 20.125 43.796875 24.3125 45.59375 
Q 28.515625 47.40625 33.796875 47.40625 
Q 44.671875 47.40625 51 40.859375 
Q 57.328125 34.328125 57.328125 23 
Q 57.328125 11.921875 50.515625 5.25 
Q 43.703125 -1.421875 32.328125 -1.421875 
Q 19.96875 -1.421875 13.328125 7.78125 
Q 6.6875 17 6.6875 34.078125 
Q 6.6875 53.21875 14.546875 63.71875 
Q 22.40625 74.21875 36.71875 74.21875 
Q 40.578125 74.21875 44.828125 73.484375 
Q 49.078125 72.75 53.515625 71.296875 
L 53.515625 59.28125 
L 48 59.28125 
Q 47.40625 64.203125 44.234375 66.796875 
Q 41.0625 69.390625 35.6875 69.390625 
Q 26.21875 69.390625 21.578125 62.203125 
Q 16.9375 55.03125 16.796875 40.140625 
z
" id="DejaVuSerif-54"/>
      </defs>
      <g style="fill:#262626;" transform="translate(16.29124 196.857085)scale(0.088 -0.088)">
       <use xlink:href="#DejaVuSerif-48"/>
       <use x="63.623047" xlink:href="#DejaVuSerif-46"/>
       <use x="95.410156" xlink:href="#DejaVuSerif-54"/>
      </g>
     </g>
    </g>
    <g id="ytick_2">
     <g id="text_2">
      <!-- 0.7 -->
      <defs>
       <path d="M 56.390625 67.921875 
L 27.875 0 
L 20.609375 0 
L 47.796875 64.890625 
L 14.109375 64.890625 
L 14.109375 55.90625 
L 8.40625 55.90625 
L 8.40625 72.90625 
L 56.390625 72.90625 
z
" id="DejaVuSerif-55"/>
      </defs>
      <g style="fill:#262626;" transform="translate(16.29124 155.189798)scale(0.088 -0.088)">
       <use xlink:href="#DejaVuSerif-48"/>
       <use x="63.623047" xlink:href="#DejaVuSerif-46"/>
       <use x="95.410156" xlink:href="#DejaVuSerif-55"/>
      </g>
     </g>
    </g>
    <g id="ytick_3">
     <g id="text_3">
      <!-- 0.8 -->
      <defs>
       <path d="M 46.578125 19.921875 
Q 46.578125 27.734375 42.6875 32.046875 
Q 38.8125 36.375 31.78125 36.375 
Q 24.75 36.375 20.875 32.046875 
Q 17 27.734375 17 19.921875 
Q 17 12.0625 20.875 7.734375 
Q 24.75 3.421875 31.78125 3.421875 
Q 38.8125 3.421875 42.6875 7.734375 
Q 46.578125 12.0625 46.578125 19.921875 
z
M 44.578125 55.328125 
Q 44.578125 61.96875 41.203125 65.671875 
Q 37.84375 69.390625 31.78125 69.390625 
Q 25.78125 69.390625 22.390625 65.671875 
Q 19 61.96875 19 55.328125 
Q 19 48.640625 22.390625 44.921875 
Q 25.78125 41.21875 31.78125 41.21875 
Q 37.84375 41.21875 41.203125 44.921875 
Q 44.578125 48.640625 44.578125 55.328125 
z
M 39.3125 38.8125 
Q 47.609375 37.703125 52.25 32.6875 
Q 56.890625 27.6875 56.890625 19.921875 
Q 56.890625 9.671875 50.390625 4.125 
Q 43.890625 -1.421875 31.78125 -1.421875 
Q 19.734375 -1.421875 13.203125 4.125 
Q 6.6875 9.671875 6.6875 19.921875 
Q 6.6875 27.6875 11.328125 32.6875 
Q 15.96875 37.703125 24.3125 38.8125 
Q 16.9375 40.140625 13 44.40625 
Q 9.078125 48.6875 9.078125 55.328125 
Q 9.078125 64.109375 15.125 69.15625 
Q 21.1875 74.21875 31.78125 74.21875 
Q 42.390625 74.21875 48.4375 69.15625 
Q 54.5 64.109375 54.5 55.328125 
Q 54.5 48.6875 50.5625 44.40625 
Q 46.625 40.140625 39.3125 38.8125 
z
" id="DejaVuSerif-56"/>
      </defs>
      <g style="fill:#262626;" transform="translate(16.29124 113.52251)scale(0.088 -0.088)">
       <use xlink:href="#DejaVuSerif-48"/>
       <use x="63.623047" xlink:href="#DejaVuSerif-46"/>
       <use x="95.410156" xlink:href="#DejaVuSerif-56"/>
      </g>
     </g>
    </g>
    <g id="ytick_4">
     <g id="text_4">
      <!-- 0.9 -->
      <defs>
       <path d="M 46.78125 32.671875 
Q 43.5 29 39.25 27.1875 
Q 35.015625 25.390625 29.6875 25.390625 
Q 18.84375 25.390625 12.5625 31.9375 
Q 6.296875 38.484375 6.296875 49.8125 
Q 6.296875 60.890625 13.109375 67.546875 
Q 19.921875 74.21875 31.296875 74.21875 
Q 43.65625 74.21875 50.265625 65.015625 
Q 56.890625 55.8125 56.890625 38.71875 
Q 56.890625 19.578125 49.015625 9.078125 
Q 41.15625 -1.421875 26.90625 -1.421875 
Q 23.046875 -1.421875 18.796875 -0.6875 
Q 14.546875 0.046875 10.109375 1.515625 
L 10.109375 13.625 
L 15.578125 13.625 
Q 16.21875 8.6875 19.390625 6.046875 
Q 22.5625 3.421875 27.875 3.421875 
Q 37.359375 3.421875 41.984375 10.5625 
Q 46.625 17.71875 46.78125 32.671875 
z
M 30.90625 69.390625 
Q 23.96875 69.390625 20.28125 64.328125 
Q 16.609375 59.28125 16.609375 49.8125 
Q 16.609375 40.328125 20.28125 35.25 
Q 23.96875 30.171875 30.90625 30.171875 
Q 37.84375 30.171875 41.53125 35.078125 
Q 45.21875 39.984375 45.21875 49.21875 
Q 45.21875 58.9375 41.5 64.15625 
Q 37.796875 69.390625 30.90625 69.390625 
z
" id="DejaVuSerif-57"/>
      </defs>
      <g style="fill:#262626;" transform="translate(16.29124 71.855222)scale(0.088 -0.088)">
       <use xlink:href="#DejaVuSerif-48"/>
       <use x="63.623047" xlink:href="#DejaVuSerif-46"/>
       <use x="95.410156" xlink:href="#DejaVuSerif-57"/>
      </g>
     </g>
    </g>
    <g id="ytick_5">
     <g id="text_5">
      <!-- 1.0 -->
      <defs>
       <path d="M 14.203125 0 
L 14.203125 5.171875 
L 26.90625 5.171875 
L 26.90625 65.828125 
L 12.203125 56.296875 
L 12.203125 62.703125 
L 29.984375 74.21875 
L 36.71875 74.21875 
L 36.71875 5.171875 
L 49.421875 5.171875 
L 49.421875 0 
z
" id="DejaVuSerif-49"/>
      </defs>
      <g style="fill:#262626;" transform="translate(16.29124 30.187934)scale(0.088 -0.088)">
       <use xlink:href="#DejaVuSerif-49"/>
       <use x="63.623047" xlink:href="#DejaVuSerif-46"/>
       <use x="95.410156" xlink:href="#DejaVuSerif-48"/>
      </g>
     </g>
    </g>
    <g id="text_6">
     <!-- Accuracy -->
     <defs>
      <path d="M 20.015625 26.421875 
L 46.78125 26.421875 
L 33.40625 61.078125 
z
M -0.59375 0 
L -0.59375 5.171875 
L 5.8125 5.171875 
L 31.78125 72.90625 
L 39.984375 72.90625 
L 66.015625 5.171875 
L 73.1875 5.171875 
L 73.1875 0 
L 46.6875 0 
L 46.6875 5.171875 
L 54.78125 5.171875 
L 48.6875 21.1875 
L 18.015625 21.1875 
L 11.921875 5.171875 
L 19.921875 5.171875 
L 19.921875 0 
z
" id="DejaVuSerif-65"/>
      <path d="M 51.421875 15.578125 
Q 49.515625 7.28125 44.09375 2.921875 
Q 38.671875 -1.421875 30.078125 -1.421875 
Q 18.75 -1.421875 11.859375 6.078125 
Q 4.984375 13.578125 4.984375 25.984375 
Q 4.984375 38.421875 11.859375 45.875 
Q 18.75 53.328125 30.078125 53.328125 
Q 35.015625 53.328125 39.890625 52.171875 
Q 44.78125 51.03125 49.703125 48.6875 
L 49.703125 35.40625 
L 44.484375 35.40625 
Q 43.453125 42.234375 40.015625 45.359375 
Q 36.578125 48.484375 30.171875 48.484375 
Q 22.90625 48.484375 19.1875 42.84375 
Q 15.484375 37.203125 15.484375 25.984375 
Q 15.484375 14.75 19.171875 9.078125 
Q 22.859375 3.421875 30.171875 3.421875 
Q 35.984375 3.421875 39.453125 6.4375 
Q 42.921875 9.46875 44.1875 15.578125 
z
" id="DejaVuSerif-99"/>
      <path d="M 35.40625 51.90625 
L 52.203125 51.90625 
L 52.203125 5.171875 
L 60.6875 5.171875 
L 60.6875 0 
L 43.21875 0 
L 43.21875 9.1875 
Q 40.71875 4 36.765625 1.28125 
Q 32.8125 -1.421875 27.59375 -1.421875 
Q 18.953125 -1.421875 14.875 3.484375 
Q 10.796875 8.40625 10.796875 18.890625 
L 10.796875 46.6875 
L 2.6875 46.6875 
L 2.6875 51.90625 
L 19.828125 51.90625 
L 19.828125 21.6875 
Q 19.828125 12.203125 22.140625 8.6875 
Q 24.46875 5.171875 30.421875 5.171875 
Q 36.671875 5.171875 39.9375 9.765625 
Q 43.21875 14.359375 43.21875 23.09375 
L 43.21875 46.6875 
L 35.40625 46.6875 
z
" id="DejaVuSerif-117"/>
      <path d="M 47.796875 52 
L 47.796875 39.015625 
L 42.625 39.015625 
Q 42.390625 42.875 40.484375 44.78125 
Q 38.578125 46.6875 34.90625 46.6875 
Q 28.265625 46.6875 24.71875 42.09375 
Q 21.1875 37.5 21.1875 28.90625 
L 21.1875 5.171875 
L 31.59375 5.171875 
L 31.59375 0 
L 4.109375 0 
L 4.109375 5.171875 
L 12.203125 5.171875 
L 12.203125 46.78125 
L 3.609375 46.78125 
L 3.609375 51.90625 
L 21.1875 51.90625 
L 21.1875 42.671875 
Q 23.828125 48.09375 27.96875 50.703125 
Q 32.125 53.328125 38.09375 53.328125 
Q 40.28125 53.328125 42.703125 52.984375 
Q 45.125 52.640625 47.796875 52 
z
" id="DejaVuSerif-114"/>
      <path d="M 39.796875 16.3125 
L 39.796875 27.296875 
L 28.21875 27.296875 
Q 21.53125 27.296875 18.25 24.40625 
Q 14.984375 21.53125 14.984375 15.578125 
Q 14.984375 10.15625 18.296875 6.984375 
Q 21.625 3.8125 27.296875 3.8125 
Q 32.90625 3.8125 36.34375 7.28125 
Q 39.796875 10.75 39.796875 16.3125 
z
M 48.78125 32.421875 
L 48.78125 5.171875 
L 56.78125 5.171875 
L 56.78125 0 
L 39.796875 0 
L 39.796875 5.609375 
Q 36.8125 2 32.90625 0.28125 
Q 29 -1.421875 23.78125 -1.421875 
Q 15.140625 -1.421875 10.0625 3.171875 
Q 4.984375 7.765625 4.984375 15.578125 
Q 4.984375 23.640625 10.796875 28.078125 
Q 16.609375 32.515625 27.203125 32.515625 
L 39.796875 32.515625 
L 39.796875 36.078125 
Q 39.796875 42 36.203125 45.234375 
Q 32.625 48.484375 26.125 48.484375 
Q 20.75 48.484375 17.578125 46.046875 
Q 14.40625 43.609375 13.625 38.8125 
L 8.984375 38.8125 
L 8.984375 49.3125 
Q 13.671875 51.3125 18.09375 52.3125 
Q 22.515625 53.328125 26.703125 53.328125 
Q 37.5 53.328125 43.140625 47.96875 
Q 48.78125 42.625 48.78125 32.421875 
z
" id="DejaVuSerif-97"/>
      <path d="M 21.578125 -9.515625 
L 25 -0.875 
L 5.609375 46.6875 
L -0.296875 46.6875 
L -0.296875 51.90625 
L 23.578125 51.90625 
L 23.578125 46.6875 
L 15.28125 46.6875 
L 29.890625 10.984375 
L 44.484375 46.6875 
L 36.71875 46.6875 
L 36.71875 51.90625 
L 56.203125 51.90625 
L 56.203125 46.6875 
L 50.390625 46.6875 
L 26.609375 -11.71875 
Q 24.171875 -17.78125 21.1875 -20 
Q 18.21875 -22.21875 12.796875 -22.21875 
Q 10.5 -22.21875 8.078125 -21.828125 
Q 5.671875 -21.4375 3.21875 -20.703125 
L 3.21875 -10.796875 
L 7.8125 -10.796875 
Q 8.109375 -14.109375 9.5 -15.546875 
Q 10.890625 -17 13.8125 -17 
Q 16.5 -17 18.140625 -15.5 
Q 19.78125 -14.015625 21.578125 -9.515625 
z
" id="DejaVuSerif-121"/>
     </defs>
     <g style="fill:#262626;" transform="translate(10.15824 134.953176)rotate(-90)scale(0.096 -0.096)">
      <use xlink:href="#DejaVuSerif-65"/>
      <use x="72.216797" xlink:href="#DejaVuSerif-99"/>
      <use x="128.222656" xlink:href="#DejaVuSerif-99"/>
      <use x="184.228516" xlink:href="#DejaVuSerif-117"/>
      <use x="248.632812" xlink:href="#DejaVuSerif-114"/>
      <use x="296.435547" xlink:href="#DejaVuSerif-97"/>
      <use x="356.054688" xlink:href="#DejaVuSerif-99"/>
      <use x="412.060547" xlink:href="#DejaVuSerif-121"/>
     </g>
    </g>
   </g>
   <g id="line2d_1">
    <path clip-path="url(#p95682bec8b)" d="M 66.150252 199.88855 
L 68.92053 115.827313 
L 71.690808 89.139109 
L 74.461085 71.996558 
L 77.231363 61.757271 
L 80.00164 55.646735 
L 82.771918 51.749204 
L 85.542196 48.61137 
L 88.312473 46.893812 
L 91.082751 44.84594 
L 93.853028 43.161413 
L 96.623306 40.519025 
L 99.393584 40.353868 
L 102.163861 38.140863 
L 104.934139 38.074801 
L 107.704417 36.621494 
L 110.474694 37.975706 
L 113.244972 35.795733 
L 116.015249 34.738778 
L 118.785527 34.375458 
L 121.555805 33.25244 
L 124.326082 33.417572 
L 127.09636 31.931233 
L 129.866637 31.766076 
L 132.636915 31.204568 
L 138.17747 31.435787 
L 140.947748 31.733045 
L 143.718026 31.667007 
L 146.488303 33.186377 
L 149.258581 31.27063 
L 154.799136 28.496117 
L 157.569414 28.793399 
L 160.339691 28.198859 
L 163.109969 28.000671 
L 165.880246 28.529148 
L 168.650524 28.430054 
L 171.420802 28.099765 
L 174.191079 28.099765 
L 179.731635 27.670382 
L 182.501912 28.066734 
L 185.27219 27.505225 
L 188.042467 27.769451 
L 193.583023 27.439162 
L 199.123578 28.000671 
L 210.204688 27.274005 
L 212.974966 27.439162 
L 215.745244 27.439162 
L 218.515521 27.207942 
L 221.285799 27.174911 
L 224.056076 27.340068 
L 235.137187 27.108873 
L 237.907464 26.943716 
L 243.44802 27.141879 
L 246.218297 27.207942 
L 251.758853 26.976747 
L 254.52913 27.307036 
L 257.299408 27.108873 
L 260.069685 27.174911 
L 268.380518 27.04281 
L 271.150796 27.207942 
L 273.921073 26.910684 
L 276.691351 27.04281 
L 279.461629 26.943716 
L 282.231906 27.009778 
L 285.002184 27.207942 
L 287.772462 27.075841 
L 304.394127 27.108873 
L 307.164405 27.240973 
L 315.475238 26.943716 
L 318.245515 27.009778 
L 321.015793 26.943716 
L 323.786071 27.274005 
L 326.556348 26.976747 
L 332.096903 27.174911 
L 334.867181 27.009778 
L 340.407736 27.075841 
L 348.718569 26.943716 
L 359.799679 27.04281 
L 362.569957 26.943716 
L 365.340235 27.009778 
L 368.110512 26.910684 
L 370.88079 27.009778 
L 379.191623 26.976747 
L 381.9619 27.04281 
L 387.502456 26.877653 
L 393.043011 26.943716 
L 404.124121 26.976747 
L 406.894399 27.075841 
L 409.664677 26.910684 
L 417.975509 26.943716 
L 423.516065 26.943716 
L 426.286342 27.009778 
L 429.05662 26.910684 
L 431.826897 27.141879 
L 434.597175 27.009778 
L 440.13773 27.04281 
L 442.908008 26.910684 
L 445.678286 27.108873 
L 448.448563 27.009778 
L 453.989118 26.976747 
L 484.462172 26.976747 
L 487.23245 27.141879 
L 490.002727 26.943716 
L 492.773005 27.04281 
L 495.543283 26.910684 
L 498.31356 27.174911 
L 501.083838 26.943716 
L 509.394671 27.075841 
L 512.164948 26.910684 
L 517.705504 27.141879 
L 520.475781 26.943716 
L 526.016336 27.075841 
L 534.327169 26.976747 
L 537.097447 27.075841 
L 548.178557 26.976747 
L 550.948835 27.075841 
L 553.719113 26.877653 
L 562.029945 26.976747 
L 570.340778 27.009778 
L 581.421889 26.943716 
L 584.192166 27.108873 
L 586.962444 26.877653 
L 589.732722 27.04281 
L 595.273277 26.943716 
L 598.043554 27.04281 
L 606.354387 26.877653 
L 609.124665 27.04281 
L 611.894942 26.910684 
L 617.435498 27.04281 
L 617.435498 27.04281 
" style="fill:none;stroke:#c8102e;stroke-linecap:round;stroke-width:1.2;"/>
   </g>
   <g id="line2d_2">
    <path clip-path="url(#p95682bec8b)" d="M 66.150252 118.10638 
L 68.92053 81.641305 
L 71.690808 58.157022 
L 74.461085 51.914361 
L 77.231363 53.202536 
L 80.00164 48.148931 
L 82.771918 49.238942 
L 85.542196 44.978065 
L 88.312473 42.302646 
L 91.082751 41.609011 
L 93.853028 42.50081 
L 96.623306 40.717213 
L 99.393584 37.149971 
L 102.163861 39.726296 
L 104.934139 37.249065 
L 107.704417 40.519025 
L 110.474694 37.942675 
L 113.244972 38.041769 
L 116.015249 38.339052 
L 118.785527 37.942675 
L 121.555805 36.456337 
L 124.326082 36.951783 
L 127.09636 36.852689 
L 129.866637 36.258148 
L 132.636915 36.357242 
L 135.407193 37.447229 
L 138.17747 35.663608 
L 140.947748 35.069092 
L 143.718026 38.438146 
L 146.488303 35.762702 
L 149.258581 36.654525 
L 152.028858 34.969998 
L 154.799136 34.870904 
L 157.569414 34.078175 
L 160.339691 34.276364 
L 163.109969 35.762702 
L 165.880246 34.573621 
L 168.650524 35.762702 
L 171.420802 33.880012 
L 174.191079 34.474552 
L 176.961357 34.77181 
L 179.731635 33.384541 
L 182.501912 34.177269 
L 185.27219 34.672715 
L 188.042467 34.969998 
L 190.812745 33.681823 
L 193.583023 33.780917 
L 196.3533 34.177269 
L 199.123578 33.880012 
L 204.664133 34.375458 
L 207.434411 34.672715 
L 215.745244 34.474552 
L 218.515521 33.582729 
L 221.285799 33.681823 
L 224.056076 34.078175 
L 226.826354 33.582729 
L 229.596632 34.177269 
L 232.366909 33.582729 
L 235.137187 33.681823 
L 237.907464 33.384541 
L 240.677742 33.780917 
L 246.218297 33.483635 
L 248.988575 33.780917 
L 257.299408 34.078175 
L 262.839963 33.384541 
L 265.610241 33.384541 
L 268.380518 33.681823 
L 273.921073 33.285471 
L 276.691351 33.483635 
L 285.002184 33.483635 
L 287.772462 33.186377 
L 290.542739 33.384541 
L 293.313017 33.384541 
L 296.083294 33.186377 
L 304.394127 33.087283 
L 307.164405 33.681823 
L 309.934682 33.384541 
L 315.475238 33.483635 
L 318.245515 33.285471 
L 321.015793 33.582729 
L 329.326626 33.186377 
L 332.096903 33.582729 
L 334.867181 33.186377 
L 373.651068 33.087283 
L 379.191623 32.988189 
L 387.502456 33.087283 
L 395.813288 33.285471 
L 401.353844 33.186377 
L 617.435498 33.186377 
L 617.435498 33.186377 
" style="fill:none;stroke:#00b388;stroke-linecap:round;stroke-width:1.2;"/>
   </g>
   <g id="line2d_3"/>
   <g id="line2d_4"/>
   <g id="patch_3">
    <path d="M 38.58599 208.631112 
L 38.58599 16.29474 
" style="fill:none;stroke:#262626;stroke-linecap:square;stroke-linejoin:miter;"/>
   </g>
   <g id="patch_4">
    <path d="M 644.99976 208.631112 
L 644.99976 16.29474 
" style="fill:none;stroke:#262626;stroke-linecap:square;stroke-linejoin:miter;"/>
   </g>
   <g id="patch_5">
    <path d="M 38.58599 208.631112 
L 644.99976 208.631112 
" style="fill:none;stroke:#262626;stroke-linecap:square;stroke-linejoin:miter;"/>
   </g>
   <g id="patch_6">
    <path d="M 38.58599 16.29474 
L 644.99976 16.29474 
" style="fill:none;stroke:#262626;stroke-linecap:square;stroke-linejoin:miter;"/>
   </g>
   <g id="PathCollection_1">
    <defs>
     <path d="M 0 0 
L 0 7.071068 
M 0 0 
L 5.656854 -3.535534 
M 0 0 
L -5.656854 -3.535534 
" id="mcf260ee4f9" style="stroke:#888b8d;stroke-width:2;"/>
    </defs>
    <g clip-path="url(#p95682bec8b)">
     <use style="fill:#888b8d;stroke:#888b8d;stroke-width:2;" x="171.420802" xlink:href="#mcf260ee4f9" y="28.099765"/>
    </g>
   </g>
   <g id="PathCollection_2">
    <defs>
     <path d="M 0 0 
L 0 -7.071068 
M 0 0 
L -5.656854 3.535534 
M 0 0 
L 5.656854 3.535534 
" id="m985be691c6" style="stroke:#888b8d;stroke-width:2;"/>
    </defs>
    <g clip-path="url(#p95682bec8b)">
     <use style="fill:#888b8d;stroke:#888b8d;stroke-width:2;" x="171.420802" xlink:href="#m985be691c6" y="33.880012"/>
    </g>
   </g>
   <g id="text_7">
    <!-- Indian Pines 3D-CNN Training History -->
    <defs>
     <path d="M 24.703125 5.171875 
L 33.984375 5.171875 
L 33.984375 0 
L 5.515625 0 
L 5.515625 5.171875 
L 14.796875 5.171875 
L 14.796875 67.671875 
L 5.515625 67.671875 
L 5.515625 72.90625 
L 33.984375 72.90625 
L 33.984375 67.671875 
L 24.703125 67.671875 
z
" id="DejaVuSerif-73"/>
     <path d="M 4.109375 0 
L 4.109375 5.171875 
L 12.203125 5.171875 
L 12.203125 46.6875 
L 3.609375 46.6875 
L 3.609375 51.90625 
L 21.1875 51.90625 
L 21.1875 42.671875 
Q 23.6875 47.953125 27.65625 50.640625 
Q 31.640625 53.328125 36.921875 53.328125 
Q 45.515625 53.328125 49.5625 48.390625 
Q 53.609375 43.453125 53.609375 33.015625 
L 53.609375 5.171875 
L 61.625 5.171875 
L 61.625 0 
L 36.8125 0 
L 36.8125 5.171875 
L 44.578125 5.171875 
L 44.578125 30.171875 
Q 44.578125 39.703125 42.234375 43.234375 
Q 39.890625 46.78125 33.984375 46.78125 
Q 27.734375 46.78125 24.453125 42.203125 
Q 21.1875 37.640625 21.1875 28.90625 
L 21.1875 5.171875 
L 29 5.171875 
L 29 0 
z
" id="DejaVuSerif-110"/>
     <path d="M 52.484375 5.171875 
L 61.078125 5.171875 
L 61.078125 0 
L 43.5 0 
L 43.5 8.109375 
Q 40.875 3.21875 36.796875 0.890625 
Q 32.71875 -1.421875 26.703125 -1.421875 
Q 17.140625 -1.421875 11.0625 6.171875 
Q 4.984375 13.765625 4.984375 25.984375 
Q 4.984375 38.1875 11.03125 45.75 
Q 17.09375 53.328125 26.703125 53.328125 
Q 32.71875 53.328125 36.796875 51 
Q 40.875 48.6875 43.5 43.796875 
L 43.5 70.796875 
L 35.015625 70.796875 
L 35.015625 75.984375 
L 52.484375 75.984375 
z
M 43.5 23.390625 
L 43.5 28.515625 
Q 43.5 37.84375 39.90625 42.765625 
Q 36.328125 47.703125 29.5 47.703125 
Q 22.5625 47.703125 19.015625 42.234375 
Q 15.484375 36.765625 15.484375 25.984375 
Q 15.484375 15.234375 19.015625 9.71875 
Q 22.5625 4.203125 29.5 4.203125 
Q 36.328125 4.203125 39.90625 9.109375 
Q 43.5 14.015625 43.5 23.390625 
z
" id="DejaVuSerif-100"/>
     <path d="M 9.71875 68.015625 
Q 9.71875 70.265625 11.34375 71.921875 
Q 12.984375 73.578125 15.28125 73.578125 
Q 17.53125 73.578125 19.15625 71.921875 
Q 20.796875 70.265625 20.796875 68.015625 
Q 20.796875 65.71875 19.1875 64.109375 
Q 17.578125 62.5 15.28125 62.5 
Q 12.984375 62.5 11.34375 64.109375 
Q 9.71875 65.71875 9.71875 68.015625 
z
M 21.1875 5.171875 
L 29.6875 5.171875 
L 29.6875 0 
L 3.609375 0 
L 3.609375 5.171875 
L 12.203125 5.171875 
L 12.203125 46.6875 
L 3.609375 46.6875 
L 3.609375 51.90625 
L 21.1875 51.90625 
z
" id="DejaVuSerif-105"/>
     <path id="DejaVuSerif-32"/>
     <path d="M 24.703125 37.109375 
L 37.59375 37.109375 
Q 44.875 37.109375 48.671875 41.03125 
Q 52.484375 44.96875 52.484375 52.390625 
Q 52.484375 59.859375 48.671875 63.765625 
Q 44.875 67.671875 37.59375 67.671875 
L 24.703125 67.671875 
z
M 5.515625 0 
L 5.515625 5.171875 
L 14.796875 5.171875 
L 14.796875 67.671875 
L 5.515625 67.671875 
L 5.515625 72.90625 
L 39.984375 72.90625 
Q 50.921875 72.90625 57.3125 67.359375 
Q 63.71875 61.8125 63.71875 52.390625 
Q 63.71875 43.015625 57.3125 37.453125 
Q 50.921875 31.890625 39.984375 31.890625 
L 24.703125 31.890625 
L 24.703125 5.171875 
L 35.984375 5.171875 
L 35.984375 0 
z
" id="DejaVuSerif-80"/>
     <path d="M 54.203125 25 
L 15.484375 25 
L 15.484375 24.609375 
Q 15.484375 14.109375 19.4375 8.765625 
Q 23.390625 3.421875 31.109375 3.421875 
Q 37.015625 3.421875 40.796875 6.515625 
Q 44.578125 9.625 46.09375 15.71875 
L 53.328125 15.71875 
Q 51.171875 7.171875 45.375 2.875 
Q 39.59375 -1.421875 30.171875 -1.421875 
Q 18.796875 -1.421875 11.890625 6.078125 
Q 4.984375 13.578125 4.984375 25.984375 
Q 4.984375 38.28125 11.765625 45.796875 
Q 18.5625 53.328125 29.59375 53.328125 
Q 41.359375 53.328125 47.65625 46.0625 
Q 53.953125 38.8125 54.203125 25 
z
M 43.609375 30.171875 
Q 43.3125 39.265625 39.765625 43.875 
Q 36.234375 48.484375 29.59375 48.484375 
Q 23.390625 48.484375 19.828125 43.84375 
Q 16.265625 39.203125 15.484375 30.171875 
z
" id="DejaVuSerif-101"/>
     <path d="M 5.609375 2.875 
L 5.609375 14.984375 
L 10.796875 14.984375 
Q 10.984375 9.1875 14.421875 6.296875 
Q 17.875 3.421875 24.609375 3.421875 
Q 30.671875 3.421875 33.84375 5.6875 
Q 37.015625 7.953125 37.015625 12.3125 
Q 37.015625 15.71875 34.6875 17.8125 
Q 32.375 19.921875 24.90625 22.3125 
L 18.40625 24.515625 
Q 11.71875 26.65625 8.71875 29.875 
Q 5.71875 33.109375 5.71875 38.09375 
Q 5.71875 45.21875 10.9375 49.265625 
Q 16.15625 53.328125 25.390625 53.328125 
Q 29.5 53.328125 34.03125 52.25 
Q 38.578125 51.171875 43.40625 49.125 
L 43.40625 37.796875 
L 38.234375 37.796875 
Q 38.03125 42.828125 34.703125 45.65625 
Q 31.390625 48.484375 25.6875 48.484375 
Q 20.015625 48.484375 17.109375 46.484375 
Q 14.203125 44.484375 14.203125 40.484375 
Q 14.203125 37.203125 16.40625 35.21875 
Q 18.609375 33.25 25.203125 31.203125 
L 32.328125 29 
Q 39.703125 26.703125 42.9375 23.265625 
Q 46.1875 19.828125 46.1875 14.40625 
Q 46.1875 7.03125 40.546875 2.796875 
Q 34.90625 -1.421875 25 -1.421875 
Q 19.96875 -1.421875 15.1875 -0.34375 
Q 10.40625 0.734375 5.609375 2.875 
z
" id="DejaVuSerif-115"/>
     <path d="M 9.71875 69.828125 
Q 15.4375 71.96875 20.671875 73.09375 
Q 25.921875 74.21875 30.515625 74.21875 
Q 41.21875 74.21875 47.21875 69.59375 
Q 53.21875 64.984375 53.21875 56.78125 
Q 53.21875 50.203125 49.0625 45.78125 
Q 44.921875 41.359375 37.3125 39.796875 
Q 46.296875 38.53125 51.25 33.28125 
Q 56.203125 28.03125 56.203125 19.671875 
Q 56.203125 9.46875 49.34375 4.015625 
Q 42.484375 -1.421875 29.59375 -1.421875 
Q 23.875 -1.421875 18.421875 -0.1875 
Q 12.984375 1.03125 7.625 3.515625 
L 7.625 17.671875 
L 13.09375 17.671875 
Q 13.578125 10.640625 17.828125 7.03125 
Q 22.078125 3.421875 29.78125 3.421875 
Q 37.25 3.421875 41.578125 7.734375 
Q 45.90625 12.0625 45.90625 19.578125 
Q 45.90625 28.171875 41.453125 32.59375 
Q 37.015625 37.015625 28.421875 37.015625 
L 23.78125 37.015625 
L 23.78125 42 
L 26.21875 42 
Q 34.765625 42 39.03125 45.53125 
Q 43.3125 49.078125 43.3125 56.203125 
Q 43.3125 62.59375 39.796875 65.984375 
Q 36.28125 69.390625 29.6875 69.390625 
Q 23.09375 69.390625 19.453125 66.265625 
Q 15.828125 63.140625 15.1875 56.984375 
L 9.71875 56.984375 
z
" id="DejaVuSerif-51"/>
     <path d="M 24.703125 5.171875 
L 33.796875 5.171875 
Q 48 5.171875 55.59375 13.28125 
Q 63.1875 21.390625 63.1875 36.53125 
Q 63.1875 51.65625 55.609375 59.65625 
Q 48.046875 67.671875 33.796875 67.671875 
L 24.703125 67.671875 
z
M 5.515625 0 
L 5.515625 5.171875 
L 14.796875 5.171875 
L 14.796875 67.671875 
L 5.515625 67.671875 
L 5.515625 72.90625 
L 34.515625 72.90625 
Q 53.375 72.90625 63.890625 63.28125 
Q 74.421875 53.65625 74.421875 36.53125 
Q 74.421875 19.34375 63.875 9.671875 
Q 53.328125 0 34.515625 0 
z
" id="DejaVuSerif-68"/>
     <path d="M 4.390625 30.609375 
L 29.390625 30.609375 
L 29.390625 23 
L 4.390625 23 
z
" id="DejaVuSerif-45"/>
     <path d="M 70.515625 19.28125 
Q 67.28125 9.078125 59.6875 3.828125 
Q 52.09375 -1.421875 40.484375 -1.421875 
Q 33.34375 -1.421875 27.234375 1.015625 
Q 21.140625 3.46875 16.40625 8.203125 
Q 10.9375 13.671875 8.265625 20.625 
Q 5.609375 27.59375 5.609375 36.375 
Q 5.609375 53.375 15.421875 63.796875 
Q 25.25 74.21875 41.3125 74.21875 
Q 47.265625 74.21875 54 72.65625 
Q 60.75 71.09375 68.5 67.921875 
L 68.5 51.125 
L 62.984375 51.125 
Q 61.1875 60.296875 55.734375 64.640625 
Q 50.296875 69 40.484375 69 
Q 28.8125 69 22.796875 60.71875 
Q 16.796875 52.4375 16.796875 36.375 
Q 16.796875 20.359375 22.796875 12.078125 
Q 28.8125 3.8125 40.484375 3.8125 
Q 48.640625 3.8125 53.90625 7.6875 
Q 59.1875 11.578125 61.53125 19.28125 
z
" id="DejaVuSerif-67"/>
     <path d="M 4.890625 0 
L 4.890625 5.171875 
L 14.703125 5.171875 
L 14.703125 67.671875 
L 4.890625 67.671875 
L 4.890625 72.90625 
L 23.578125 72.90625 
L 67.28125 15.375 
L 67.28125 67.671875 
L 57.515625 67.671875 
L 57.515625 72.90625 
L 83.109375 72.90625 
L 83.109375 67.671875 
L 73.296875 67.671875 
L 73.296875 -1.421875 
L 67.390625 -1.421875 
L 20.703125 60.015625 
L 20.703125 5.171875 
L 30.515625 5.171875 
L 30.515625 0 
z
" id="DejaVuSerif-78"/>
     <path d="M 19.09375 0 
L 19.09375 5.171875 
L 28.421875 5.171875 
L 28.421875 67.09375 
L 6.984375 67.09375 
L 6.984375 55.71875 
L 0.984375 55.71875 
L 0.984375 72.90625 
L 65.71875 72.90625 
L 65.71875 55.71875 
L 59.71875 55.71875 
L 59.71875 67.09375 
L 38.28125 67.09375 
L 38.28125 5.171875 
L 47.609375 5.171875 
L 47.609375 0 
z
" id="DejaVuSerif-84"/>
     <path d="M 52.484375 46.6875 
L 52.484375 1.125 
Q 52.484375 -10.0625 46.328125 -16.140625 
Q 40.1875 -22.21875 28.8125 -22.21875 
Q 23.6875 -22.21875 19 -21.28125 
Q 14.3125 -20.359375 10.015625 -18.5 
L 10.015625 -7.625 
L 14.703125 -7.625 
Q 15.578125 -12.703125 18.84375 -15.046875 
Q 22.125 -17.390625 28.21875 -17.390625 
Q 36.140625 -17.390625 39.8125 -12.921875 
Q 43.5 -8.453125 43.5 1.125 
L 43.5 8.109375 
Q 40.875 3.21875 36.796875 0.890625 
Q 32.71875 -1.421875 26.703125 -1.421875 
Q 17.140625 -1.421875 11.0625 6.171875 
Q 4.984375 13.765625 4.984375 25.984375 
Q 4.984375 38.1875 11.03125 45.75 
Q 17.09375 53.328125 26.703125 53.328125 
Q 32.71875 53.328125 36.796875 51 
Q 40.875 48.6875 43.5 43.796875 
L 43.5 51.90625 
L 61.078125 51.90625 
L 61.078125 46.6875 
z
M 43.5 28.515625 
Q 43.5 37.84375 39.90625 42.765625 
Q 36.328125 47.703125 29.5 47.703125 
Q 22.5625 47.703125 19.015625 42.234375 
Q 15.484375 36.765625 15.484375 25.984375 
Q 15.484375 15.234375 19.015625 9.71875 
Q 22.5625 4.203125 29.5 4.203125 
Q 36.328125 4.203125 39.90625 9.109375 
Q 43.5 14.015625 43.5 23.390625 
z
" id="DejaVuSerif-103"/>
     <path d="M 5.515625 0 
L 5.515625 5.171875 
L 14.796875 5.171875 
L 14.796875 67.671875 
L 5.515625 67.671875 
L 5.515625 72.90625 
L 33.984375 72.90625 
L 33.984375 67.671875 
L 24.703125 67.671875 
L 24.703125 42.484375 
L 62.5 42.484375 
L 62.5 67.671875 
L 53.21875 67.671875 
L 53.21875 72.90625 
L 81.6875 72.90625 
L 81.6875 67.671875 
L 72.40625 67.671875 
L 72.40625 5.171875 
L 81.6875 5.171875 
L 81.6875 0 
L 53.21875 0 
L 53.21875 5.171875 
L 62.5 5.171875 
L 62.5 36.53125 
L 24.703125 36.53125 
L 24.703125 5.171875 
L 33.984375 5.171875 
L 33.984375 0 
z
" id="DejaVuSerif-72"/>
     <path d="M 10.796875 46.6875 
L 2.875 46.6875 
L 2.875 51.90625 
L 10.796875 51.90625 
L 10.796875 68.015625 
L 19.828125 68.015625 
L 19.828125 51.90625 
L 36.71875 51.90625 
L 36.71875 46.6875 
L 19.828125 46.6875 
L 19.828125 13.71875 
Q 19.828125 7.125 21.09375 5.265625 
Q 22.359375 3.421875 25.78125 3.421875 
Q 29.296875 3.421875 30.90625 5.484375 
Q 32.515625 7.5625 32.625 12.203125 
L 39.40625 12.203125 
Q 39.015625 5.125 35.546875 1.84375 
Q 32.078125 -1.421875 25 -1.421875 
Q 17.234375 -1.421875 14.015625 2.015625 
Q 10.796875 5.46875 10.796875 13.71875 
z
" id="DejaVuSerif-116"/>
     <path d="M 30.078125 3.421875 
Q 37.3125 3.421875 40.984375 9.125 
Q 44.671875 14.84375 44.671875 25.984375 
Q 44.671875 37.109375 40.984375 42.796875 
Q 37.3125 48.484375 30.078125 48.484375 
Q 22.859375 48.484375 19.171875 42.796875 
Q 15.484375 37.109375 15.484375 25.984375 
Q 15.484375 14.84375 19.1875 9.125 
Q 22.90625 3.421875 30.078125 3.421875 
z
M 30.078125 -1.421875 
Q 18.75 -1.421875 11.859375 6.078125 
Q 4.984375 13.578125 4.984375 25.984375 
Q 4.984375 38.375 11.84375 45.84375 
Q 18.703125 53.328125 30.078125 53.328125 
Q 41.453125 53.328125 48.3125 45.84375 
Q 55.171875 38.375 55.171875 25.984375 
Q 55.171875 13.578125 48.3125 6.078125 
Q 41.453125 -1.421875 30.078125 -1.421875 
z
" id="DejaVuSerif-111"/>
    </defs>
    <g style="fill:#262626;" transform="translate(247.690375 10.29474)scale(0.096 -0.096)">
     <use xlink:href="#DejaVuSerif-73"/>
     <use x="39.501953" xlink:href="#DejaVuSerif-110"/>
     <use x="103.90625" xlink:href="#DejaVuSerif-100"/>
     <use x="167.919922" xlink:href="#DejaVuSerif-105"/>
     <use x="199.902344" xlink:href="#DejaVuSerif-97"/>
     <use x="259.521484" xlink:href="#DejaVuSerif-110"/>
     <use x="323.925781" xlink:href="#DejaVuSerif-32"/>
     <use x="355.712891" xlink:href="#DejaVuSerif-80"/>
     <use x="422.998047" xlink:href="#DejaVuSerif-105"/>
     <use x="454.980469" xlink:href="#DejaVuSerif-110"/>
     <use x="519.384766" xlink:href="#DejaVuSerif-101"/>
     <use x="578.564453" xlink:href="#DejaVuSerif-115"/>
     <use x="629.882812" xlink:href="#DejaVuSerif-32"/>
     <use x="661.669922" xlink:href="#DejaVuSerif-51"/>
     <use x="725.292969" xlink:href="#DejaVuSerif-68"/>
     <use x="805.484375" xlink:href="#DejaVuSerif-45"/>
     <use x="839.273438" xlink:href="#DejaVuSerif-67"/>
     <use x="915.787109" xlink:href="#DejaVuSerif-78"/>
     <use x="1003.287109" xlink:href="#DejaVuSerif-78"/>
     <use x="1090.787109" xlink:href="#DejaVuSerif-32"/>
     <use x="1122.574219" xlink:href="#DejaVuSerif-84"/>
     <use x="1189.273438" xlink:href="#DejaVuSerif-114"/>
     <use x="1237.076172" xlink:href="#DejaVuSerif-97"/>
     <use x="1296.695312" xlink:href="#DejaVuSerif-105"/>
     <use x="1328.677734" xlink:href="#DejaVuSerif-110"/>
     <use x="1393.082031" xlink:href="#DejaVuSerif-105"/>
     <use x="1425.064453" xlink:href="#DejaVuSerif-110"/>
     <use x="1489.46875" xlink:href="#DejaVuSerif-103"/>
     <use x="1553.482422" xlink:href="#DejaVuSerif-32"/>
     <use x="1585.269531" xlink:href="#DejaVuSerif-72"/>
     <use x="1672.476562" xlink:href="#DejaVuSerif-105"/>
     <use x="1704.458984" xlink:href="#DejaVuSerif-115"/>
     <use x="1755.777344" xlink:href="#DejaVuSerif-116"/>
     <use x="1795.962891" xlink:href="#DejaVuSerif-111"/>
     <use x="1856.167969" xlink:href="#DejaVuSerif-114"/>
     <use x="1903.970703" xlink:href="#DejaVuSerif-121"/>
    </g>
   </g>
  </g>
  <g id="axes_2">
   <g id="legend_1">
    <g id="line2d_5">
     <path d="M 220.319875 224.879062 
L 237.919875 224.879062 
" style="fill:none;stroke:#c8102e;stroke-linecap:round;stroke-width:1.2;"/>
    </g>
    <g id="line2d_6"/>
    <g id="text_8">
     <!-- Training -->
     <g style="fill:#262626;" transform="translate(244.959875 227.959062)scale(0.088 -0.088)">
      <use xlink:href="#DejaVuSerif-84"/>
      <use x="66.699219" xlink:href="#DejaVuSerif-114"/>
      <use x="114.501953" xlink:href="#DejaVuSerif-97"/>
      <use x="174.121094" xlink:href="#DejaVuSerif-105"/>
      <use x="206.103516" xlink:href="#DejaVuSerif-110"/>
      <use x="270.507812" xlink:href="#DejaVuSerif-105"/>
      <use x="302.490234" xlink:href="#DejaVuSerif-110"/>
      <use x="366.894531" xlink:href="#DejaVuSerif-103"/>
     </g>
    </g>
    <g id="line2d_7">
     <path d="M 300.481 224.879062 
L 318.081 224.879062 
" style="fill:none;stroke:#00b388;stroke-linecap:round;stroke-width:1.2;"/>
    </g>
    <g id="line2d_8"/>
    <g id="text_9">
     <!-- Validation -->
     <defs>
      <path d="M 17.484375 67.671875 
L 39.015625 11.71875 
L 60.5 67.671875 
L 52.296875 67.671875 
L 52.296875 72.90625 
L 73.6875 72.90625 
L 73.6875 67.671875 
L 66.609375 67.671875 
L 40.578125 0 
L 32.171875 0 
L 6.296875 67.671875 
L -0.984375 67.671875 
L -0.984375 72.90625 
L 25.59375 72.90625 
L 25.59375 67.671875 
z
" id="DejaVuSerif-86"/>
      <path d="M 20.515625 5.171875 
L 29 5.171875 
L 29 0 
L 2.875 0 
L 2.875 5.171875 
L 11.53125 5.171875 
L 11.53125 70.796875 
L 2.875 70.796875 
L 2.875 75.984375 
L 20.515625 75.984375 
z
" id="DejaVuSerif-108"/>
     </defs>
     <g style="fill:#262626;" transform="translate(325.121 227.959062)scale(0.088 -0.088)">
      <use xlink:href="#DejaVuSerif-86"/>
      <use x="72.076172" xlink:href="#DejaVuSerif-97"/>
      <use x="131.695312" xlink:href="#DejaVuSerif-108"/>
      <use x="163.677734" xlink:href="#DejaVuSerif-105"/>
      <use x="195.660156" xlink:href="#DejaVuSerif-100"/>
      <use x="259.673828" xlink:href="#DejaVuSerif-97"/>
      <use x="319.292969" xlink:href="#DejaVuSerif-116"/>
      <use x="359.478516" xlink:href="#DejaVuSerif-105"/>
      <use x="391.460938" xlink:href="#DejaVuSerif-111"/>
      <use x="451.666016" xlink:href="#DejaVuSerif-110"/>
     </g>
    </g>
    <g id="PathCollection_3">
     <path d="M 390.77725 225.649062 
L 390.77725 218.577995 
M 390.77725 225.649062 
L 385.120396 229.184596 
M 390.77725 225.649062 
L 396.434104 229.184596 
" style="fill:#888b8d;stroke:#888b8d;stroke-width:2;"/>
     <path d="M 390.77725 224.879062 
L 390.77725 217.807995 
M 390.77725 224.879062 
L 385.120396 228.414596 
M 390.77725 224.879062 
L 396.434104 228.414596 
" style="fill:#888b8d;stroke:#888b8d;stroke-width:2;"/>
    </g>
    <g id="PathCollection_4">
     <path d="M 403.09725 225.649062 
L 403.09725 232.72013 
M 403.09725 225.649062 
L 408.754104 222.113529 
M 403.09725 225.649062 
L 397.440396 222.113529 
" style="fill:#888b8d;stroke:#888b8d;stroke-width:2;"/>
     <path d="M 403.09725 224.879062 
L 403.09725 231.95013 
M 403.09725 224.879062 
L 408.754104 221.343529 
M 403.09725 224.879062 
L 397.440396 221.343529 
" style="fill:#888b8d;stroke:#888b8d;stroke-width:2;"/>
    </g>
    <g id="text_10">
     <!-- Best Model -->
     <defs>
      <path d="M 24.703125 5.171875 
L 39.3125 5.171875 
Q 48.09375 5.171875 52.140625 8.984375 
Q 56.203125 12.796875 56.203125 21.09375 
Q 56.203125 29.34375 52.171875 33.125 
Q 48.140625 36.921875 39.3125 36.921875 
L 24.703125 36.921875 
z
M 24.703125 42.09375 
L 37.109375 42.09375 
Q 45.125 42.09375 48.796875 45.171875 
Q 52.484375 48.25 52.484375 54.890625 
Q 52.484375 61.578125 48.796875 64.625 
Q 45.125 67.671875 37.109375 67.671875 
L 24.703125 67.671875 
z
M 5.515625 0 
L 5.515625 5.171875 
L 14.796875 5.171875 
L 14.796875 67.671875 
L 5.515625 67.671875 
L 5.515625 72.90625 
L 41.5 72.90625 
Q 52.546875 72.90625 58.125 68.390625 
Q 63.71875 63.875 63.71875 54.890625 
Q 63.71875 48.390625 59.828125 44.53125 
Q 55.953125 40.671875 48.484375 39.796875 
Q 57.765625 38.625 62.578125 33.859375 
Q 67.390625 29.109375 67.390625 21.09375 
Q 67.390625 10.25 60.546875 5.125 
Q 53.71875 0 39.203125 0 
z
" id="DejaVuSerif-66"/>
      <path d="M 5.515625 0 
L 5.515625 5.171875 
L 14.796875 5.171875 
L 14.796875 67.671875 
L 4.984375 67.671875 
L 4.984375 72.90625 
L 26.21875 72.90625 
L 51.8125 21 
L 77.390625 72.90625 
L 97.3125 72.90625 
L 97.3125 67.671875 
L 87.59375 67.671875 
L 87.59375 5.171875 
L 96.921875 5.171875 
L 96.921875 0 
L 68.40625 0 
L 68.40625 5.171875 
L 77.6875 5.171875 
L 77.6875 61.53125 
L 52.6875 10.6875 
L 45.796875 10.6875 
L 20.796875 61.53125 
L 20.796875 5.171875 
L 30.078125 5.171875 
L 30.078125 0 
z
" id="DejaVuSerif-77"/>
     </defs>
     <g style="fill:#262626;" transform="translate(412.77725 227.959062)scale(0.088 -0.088)">
      <use xlink:href="#DejaVuSerif-66"/>
      <use x="73.486328" xlink:href="#DejaVuSerif-101"/>
      <use x="132.666016" xlink:href="#DejaVuSerif-115"/>
      <use x="183.984375" xlink:href="#DejaVuSerif-116"/>
      <use x="224.169922" xlink:href="#DejaVuSerif-32"/>
      <use x="255.957031" xlink:href="#DejaVuSerif-77"/>
      <use x="358.349609" xlink:href="#DejaVuSerif-111"/>
      <use x="418.554688" xlink:href="#DejaVuSerif-100"/>
      <use x="482.568359" xlink:href="#DejaVuSerif-101"/>
      <use x="541.748047" xlink:href="#DejaVuSerif-108"/>
     </g>
    </g>
   </g>
  </g>
  <g id="axes_3">
   <g id="patch_7">
    <path d="M 38.58599 434.89201 
L 644.99976 434.89201 
L 644.99976 242.555638 
L 38.58599 242.555638 
z
" style="fill:#ffffff;"/>
   </g>
   <g id="matplotlib.axis_3">
    <g id="xtick_1">
     <g id="text_11">
      <!-- 0 -->
      <g style="fill:#262626;" transform="translate(63.350752 449.878635)scale(0.088 -0.088)">
       <use xlink:href="#DejaVuSerif-48"/>
      </g>
     </g>
    </g>
    <g id="xtick_2">
     <g id="text_12">
      <!-- 25 -->
      <defs>
       <path d="M 12.796875 55.515625 
L 7.328125 55.515625 
L 7.328125 68.5 
Q 12.546875 71.296875 17.84375 72.75 
Q 23.140625 74.21875 28.21875 74.21875 
Q 39.59375 74.21875 46.1875 68.703125 
Q 52.78125 63.1875 52.78125 53.71875 
Q 52.78125 43.015625 37.84375 28.125 
Q 36.671875 27 36.078125 26.421875 
L 17.671875 8.015625 
L 48.09375 8.015625 
L 48.09375 17 
L 53.8125 17 
L 53.8125 0 
L 6.78125 0 
L 6.78125 5.328125 
L 28.90625 27.390625 
Q 36.234375 34.71875 39.359375 40.84375 
Q 42.484375 46.96875 42.484375 53.71875 
Q 42.484375 61.078125 38.640625 65.234375 
Q 34.8125 69.390625 28.078125 69.390625 
Q 21.09375 69.390625 17.28125 65.921875 
Q 13.484375 62.453125 12.796875 55.515625 
z
" id="DejaVuSerif-50"/>
       <path d="M 50.296875 72.90625 
L 50.296875 64.890625 
L 16.890625 64.890625 
L 16.890625 44 
Q 19.4375 45.75 22.828125 46.625 
Q 26.21875 47.515625 30.421875 47.515625 
Q 42.234375 47.515625 49.0625 40.96875 
Q 55.90625 34.421875 55.90625 23.09375 
Q 55.90625 11.53125 49 5.046875 
Q 42.09375 -1.421875 29.59375 -1.421875 
Q 24.5625 -1.421875 19.28125 -0.1875 
Q 14.015625 1.03125 8.5 3.515625 
L 8.5 17.671875 
L 14.015625 17.671875 
Q 14.453125 10.75 18.421875 7.078125 
Q 22.40625 3.421875 29.59375 3.421875 
Q 37.3125 3.421875 41.453125 8.5 
Q 45.609375 13.578125 45.609375 23.09375 
Q 45.609375 32.5625 41.484375 37.609375 
Q 37.359375 42.671875 29.59375 42.671875 
Q 25.203125 42.671875 21.84375 41.109375 
Q 18.5 39.546875 15.921875 36.28125 
L 11.71875 36.28125 
L 11.71875 72.90625 
z
" id="DejaVuSerif-53"/>
      </defs>
      <g style="fill:#262626;" transform="translate(129.808193 449.878635)scale(0.088 -0.088)">
       <use xlink:href="#DejaVuSerif-50"/>
       <use x="63.623047" xlink:href="#DejaVuSerif-53"/>
      </g>
     </g>
    </g>
    <g id="xtick_3">
     <g id="text_13">
      <!-- 50 -->
      <g style="fill:#262626;" transform="translate(199.065133 449.878635)scale(0.088 -0.088)">
       <use xlink:href="#DejaVuSerif-53"/>
       <use x="63.623047" xlink:href="#DejaVuSerif-48"/>
      </g>
     </g>
    </g>
    <g id="xtick_4">
     <g id="text_14">
      <!-- 75 -->
      <g style="fill:#262626;" transform="translate(268.322073 449.878635)scale(0.088 -0.088)">
       <use xlink:href="#DejaVuSerif-55"/>
       <use x="63.623047" xlink:href="#DejaVuSerif-53"/>
      </g>
     </g>
    </g>
    <g id="xtick_5">
     <g id="text_15">
      <!-- 100 -->
      <g style="fill:#262626;" transform="translate(334.779514 449.878635)scale(0.088 -0.088)">
       <use xlink:href="#DejaVuSerif-49"/>
       <use x="63.623047" xlink:href="#DejaVuSerif-48"/>
       <use x="127.246094" xlink:href="#DejaVuSerif-48"/>
      </g>
     </g>
    </g>
    <g id="xtick_6">
     <g id="text_16">
      <!-- 125 -->
      <g style="fill:#262626;" transform="translate(404.036454 449.878635)scale(0.088 -0.088)">
       <use xlink:href="#DejaVuSerif-49"/>
       <use x="63.623047" xlink:href="#DejaVuSerif-50"/>
       <use x="127.246094" xlink:href="#DejaVuSerif-53"/>
      </g>
     </g>
    </g>
    <g id="xtick_7">
     <g id="text_17">
      <!-- 150 -->
      <g style="fill:#262626;" transform="translate(473.293395 449.878635)scale(0.088 -0.088)">
       <use xlink:href="#DejaVuSerif-49"/>
       <use x="63.623047" xlink:href="#DejaVuSerif-53"/>
       <use x="127.246094" xlink:href="#DejaVuSerif-48"/>
      </g>
     </g>
    </g>
    <g id="xtick_8">
     <g id="text_18">
      <!-- 175 -->
      <g style="fill:#262626;" transform="translate(542.550335 449.878635)scale(0.088 -0.088)">
       <use xlink:href="#DejaVuSerif-49"/>
       <use x="63.623047" xlink:href="#DejaVuSerif-55"/>
       <use x="127.246094" xlink:href="#DejaVuSerif-53"/>
      </g>
     </g>
    </g>
    <g id="xtick_9">
     <g id="text_19">
      <!-- 200 -->
      <g style="fill:#262626;" transform="translate(611.807275 449.878635)scale(0.088 -0.088)">
       <use xlink:href="#DejaVuSerif-50"/>
       <use x="63.623047" xlink:href="#DejaVuSerif-48"/>
       <use x="127.246094" xlink:href="#DejaVuSerif-48"/>
      </g>
     </g>
    </g>
    <g id="text_20">
     <!-- Epoch -->
     <defs>
      <path d="M 5.515625 0 
L 5.515625 5.171875 
L 14.796875 5.171875 
L 14.796875 67.671875 
L 5.515625 67.671875 
L 5.515625 72.90625 
L 64.203125 72.90625 
L 64.203125 56.6875 
L 58.203125 56.6875 
L 58.203125 66.890625 
L 24.703125 66.890625 
L 24.703125 42.484375 
L 48.578125 42.484375 
L 48.578125 51.609375 
L 54.59375 51.609375 
L 54.59375 27.390625 
L 48.578125 27.390625 
L 48.578125 36.53125 
L 24.703125 36.53125 
L 24.703125 6 
L 58.984375 6 
L 58.984375 16.21875 
L 64.984375 16.21875 
L 64.984375 0 
z
" id="DejaVuSerif-69"/>
      <path d="M 20.515625 28.515625 
L 20.515625 23.390625 
Q 20.515625 14.015625 24.09375 9.109375 
Q 27.6875 4.203125 34.515625 4.203125 
Q 41.40625 4.203125 44.9375 9.71875 
Q 48.484375 15.234375 48.484375 25.984375 
Q 48.484375 36.765625 44.9375 42.234375 
Q 41.40625 47.703125 34.515625 47.703125 
Q 27.6875 47.703125 24.09375 42.765625 
Q 20.515625 37.84375 20.515625 28.515625 
z
M 11.53125 46.6875 
L 2.875 46.6875 
L 2.875 51.90625 
L 20.515625 51.90625 
L 20.515625 43.796875 
Q 23.140625 48.6875 27.21875 51 
Q 31.296875 53.328125 37.3125 53.328125 
Q 46.875 53.328125 52.921875 45.75 
Q 58.984375 38.1875 58.984375 25.984375 
Q 58.984375 13.765625 52.921875 6.171875 
Q 46.875 -1.421875 37.3125 -1.421875 
Q 31.296875 -1.421875 27.21875 0.890625 
Q 23.140625 3.21875 20.515625 8.109375 
L 20.515625 -15.578125 
L 29 -15.578125 
L 29 -20.796875 
L 2.875 -20.796875 
L 2.875 -15.578125 
L 11.53125 -15.578125 
z
" id="DejaVuSerif-112"/>
      <path d="M 4.109375 0 
L 4.109375 5.171875 
L 12.203125 5.171875 
L 12.203125 70.796875 
L 3.609375 70.796875 
L 3.609375 75.984375 
L 21.1875 75.984375 
L 21.1875 42.671875 
Q 23.6875 47.953125 27.65625 50.640625 
Q 31.640625 53.328125 36.921875 53.328125 
Q 45.515625 53.328125 49.5625 48.390625 
Q 53.609375 43.453125 53.609375 33.015625 
L 53.609375 5.171875 
L 61.625 5.171875 
L 61.625 0 
L 36.8125 0 
L 36.8125 5.171875 
L 44.578125 5.171875 
L 44.578125 30.171875 
Q 44.578125 39.703125 42.25 43.1875 
Q 39.9375 46.6875 33.984375 46.6875 
Q 27.734375 46.6875 24.453125 42.140625 
Q 21.1875 37.59375 21.1875 28.90625 
L 21.1875 5.171875 
L 29 5.171875 
L 29 0 
z
" id="DejaVuSerif-104"/>
     </defs>
     <g style="fill:#262626;" transform="translate(326.546875 463.00326)scale(0.096 -0.096)">
      <use xlink:href="#DejaVuSerif-69"/>
      <use x="72.998047" xlink:href="#DejaVuSerif-112"/>
      <use x="137.011719" xlink:href="#DejaVuSerif-111"/>
      <use x="197.216797" xlink:href="#DejaVuSerif-99"/>
      <use x="253.222656" xlink:href="#DejaVuSerif-104"/>
     </g>
    </g>
   </g>
   <g id="matplotlib.axis_4">
    <g id="ytick_6">
     <g id="text_21">
      <!-- 0.0 -->
      <g style="fill:#262626;" transform="translate(16.29124 427.420215)scale(0.088 -0.088)">
       <use xlink:href="#DejaVuSerif-48"/>
       <use x="63.623047" xlink:href="#DejaVuSerif-46"/>
       <use x="95.410156" xlink:href="#DejaVuSerif-48"/>
      </g>
     </g>
    </g>
    <g id="ytick_7">
     <g id="text_22">
      <!-- 0.2 -->
      <g style="fill:#262626;" transform="translate(16.29124 404.694087)scale(0.088 -0.088)">
       <use xlink:href="#DejaVuSerif-48"/>
       <use x="63.623047" xlink:href="#DejaVuSerif-46"/>
       <use x="95.410156" xlink:href="#DejaVuSerif-50"/>
      </g>
     </g>
    </g>
    <g id="ytick_8">
     <g id="text_23">
      <!-- 0.4 -->
      <defs>
       <path d="M 34.90625 24.703125 
L 34.90625 63.484375 
L 10.015625 24.703125 
z
M 56.390625 0 
L 23.1875 0 
L 23.1875 5.171875 
L 34.90625 5.171875 
L 34.90625 19.484375 
L 3.078125 19.484375 
L 3.078125 24.8125 
L 35.015625 74.21875 
L 44.671875 74.21875 
L 44.671875 24.703125 
L 58.59375 24.703125 
L 58.59375 19.484375 
L 44.671875 19.484375 
L 44.671875 5.171875 
L 56.390625 5.171875 
z
" id="DejaVuSerif-52"/>
      </defs>
      <g style="fill:#262626;" transform="translate(16.29124 381.967958)scale(0.088 -0.088)">
       <use xlink:href="#DejaVuSerif-48"/>
       <use x="63.623047" xlink:href="#DejaVuSerif-46"/>
       <use x="95.410156" xlink:href="#DejaVuSerif-52"/>
      </g>
     </g>
    </g>
    <g id="ytick_9">
     <g id="text_24">
      <!-- 0.6 -->
      <g style="fill:#262626;" transform="translate(16.29124 359.24183)scale(0.088 -0.088)">
       <use xlink:href="#DejaVuSerif-48"/>
       <use x="63.623047" xlink:href="#DejaVuSerif-46"/>
       <use x="95.410156" xlink:href="#DejaVuSerif-54"/>
      </g>
     </g>
    </g>
    <g id="ytick_10">
     <g id="text_25">
      <!-- 0.8 -->
      <g style="fill:#262626;" transform="translate(16.29124 336.515702)scale(0.088 -0.088)">
       <use xlink:href="#DejaVuSerif-48"/>
       <use x="63.623047" xlink:href="#DejaVuSerif-46"/>
       <use x="95.410156" xlink:href="#DejaVuSerif-56"/>
      </g>
     </g>
    </g>
    <g id="ytick_11">
     <g id="text_26">
      <!-- 1.0 -->
      <g style="fill:#262626;" transform="translate(16.29124 313.789574)scale(0.088 -0.088)">
       <use xlink:href="#DejaVuSerif-49"/>
       <use x="63.623047" xlink:href="#DejaVuSerif-46"/>
       <use x="95.410156" xlink:href="#DejaVuSerif-48"/>
      </g>
     </g>
    </g>
    <g id="ytick_12">
     <g id="text_27">
      <!-- 1.2 -->
      <g style="fill:#262626;" transform="translate(16.29124 291.063445)scale(0.088 -0.088)">
       <use xlink:href="#DejaVuSerif-49"/>
       <use x="63.623047" xlink:href="#DejaVuSerif-46"/>
       <use x="95.410156" xlink:href="#DejaVuSerif-50"/>
      </g>
     </g>
    </g>
    <g id="ytick_13">
     <g id="text_28">
      <!-- 1.4 -->
      <g style="fill:#262626;" transform="translate(16.29124 268.337317)scale(0.088 -0.088)">
       <use xlink:href="#DejaVuSerif-49"/>
       <use x="63.623047" xlink:href="#DejaVuSerif-46"/>
       <use x="95.410156" xlink:href="#DejaVuSerif-52"/>
      </g>
     </g>
    </g>
    <g id="text_29">
     <!-- Loss -->
     <defs>
      <path d="M 5.515625 0 
L 5.515625 5.171875 
L 14.796875 5.171875 
L 14.796875 67.671875 
L 5.515625 67.671875 
L 5.515625 72.90625 
L 33.984375 72.90625 
L 33.984375 67.671875 
L 24.703125 67.671875 
L 24.703125 6 
L 58.015625 6 
L 58.015625 18.21875 
L 64.015625 18.21875 
L 64.015625 0 
z
" id="DejaVuSerif-76"/>
     </defs>
     <g style="fill:#262626;" transform="translate(10.29474 349.727074)rotate(-90)scale(0.096 -0.096)">
      <use xlink:href="#DejaVuSerif-76"/>
      <use x="66.40625" xlink:href="#DejaVuSerif-111"/>
      <use x="126.611328" xlink:href="#DejaVuSerif-115"/>
      <use x="177.929688" xlink:href="#DejaVuSerif-115"/>
     </g>
    </g>
   </g>
   <g id="line2d_9">
    <path clip-path="url(#p6deedd20dc)" d="M 66.150252 251.2982 
L 68.92053 347.991883 
L 71.690808 374.20921 
L 74.461085 388.812578 
L 77.231363 397.172677 
L 80.00164 400.809201 
L 82.771918 404.802466 
L 85.542196 407.148082 
L 88.312473 407.411236 
L 91.082751 409.795607 
L 96.623306 413.194986 
L 99.393584 413.5966 
L 102.163861 414.993572 
L 104.934139 415.15196 
L 107.704417 415.769839 
L 110.474694 415.331815 
L 113.244972 416.651272 
L 116.015249 417.632579 
L 118.785527 417.685794 
L 121.555805 418.463263 
L 124.326082 418.774069 
L 127.09636 419.497256 
L 129.866637 419.945155 
L 132.636915 420.513627 
L 135.407193 420.363874 
L 138.17747 419.769674 
L 140.947748 419.983022 
L 143.718026 419.88703 
L 146.488303 419.106973 
L 152.028858 421.654296 
L 154.799136 422.574201 
L 157.569414 422.650459 
L 160.339691 423.011068 
L 163.109969 423.079827 
L 168.650524 422.656011 
L 171.420802 423.092284 
L 174.191079 422.982327 
L 176.961357 423.12398 
L 179.731635 423.385311 
L 182.501912 423.131934 
L 185.27219 423.531895 
L 188.042467 423.156586 
L 190.812745 423.529021 
L 196.3533 423.479798 
L 199.123578 423.058903 
L 201.893855 423.397822 
L 204.664133 423.554181 
L 207.434411 423.525597 
L 210.204688 423.747007 
L 212.974966 423.600477 
L 218.515521 423.675714 
L 221.285799 423.803168 
L 224.056076 423.630176 
L 240.677742 423.844832 
L 243.44802 423.733141 
L 251.758853 423.911194 
L 254.52913 423.735081 
L 262.839963 423.873985 
L 312.70496 423.825375 
L 315.475238 423.957293 
L 318.245515 423.899928 
L 321.015793 423.967669 
L 323.786071 423.840487 
L 329.326626 423.911852 
L 332.096903 423.815041 
L 343.178014 423.924203 
L 357.029402 423.943604 
L 359.799679 423.828963 
L 362.569957 423.959564 
L 370.88079 423.929275 
L 379.191623 423.948907 
L 381.9619 423.816847 
L 387.502456 423.965173 
L 393.043011 423.96575 
L 415.205232 423.923966 
L 420.745787 423.994395 
L 431.826897 423.893281 
L 437.367453 423.921948 
L 440.13773 423.886453 
L 442.908008 423.97631 
L 445.678286 423.908029 
L 453.989118 423.94481 
L 462.299951 423.909425 
L 495.543283 423.995871 
L 498.31356 423.831636 
L 501.083838 423.968658 
L 509.394671 423.922724 
L 514.935226 423.95212 
L 517.705504 423.804962 
L 520.475781 423.983025 
L 523.246059 423.890569 
L 539.867724 423.92229 
L 600.813832 423.988981 
L 606.354387 423.995703 
L 609.124665 423.909723 
L 611.894942 423.992569 
L 614.66522 423.82174 
L 617.435498 423.851988 
L 617.435498 423.851988 
" style="fill:none;stroke:#c8102e;stroke-linecap:round;stroke-width:1.2;"/>
   </g>
   <g id="line2d_10">
    <path clip-path="url(#p6deedd20dc)" d="M 66.150252 346.899215 
L 68.92053 382.037774 
L 71.690808 396.196083 
L 74.461085 404.478363 
L 77.231363 403.670377 
L 80.00164 409.492402 
L 82.771918 408.59068 
L 88.312473 412.541459 
L 91.082751 413.305475 
L 93.853028 412.306752 
L 96.623306 412.720846 
L 99.393584 415.715824 
L 102.163861 413.269955 
L 104.934139 416.056552 
L 107.704417 413.742047 
L 110.474694 414.437377 
L 113.244972 414.275996 
L 116.015249 414.715555 
L 118.785527 414.657244 
L 121.555805 416.539085 
L 124.326082 413.91433 
L 127.09636 415.708743 
L 129.866637 414.906082 
L 132.636915 415.721484 
L 135.407193 413.354298 
L 138.17747 415.953086 
L 140.947748 416.363304 
L 143.718026 413.358925 
L 146.488303 415.49272 
L 149.258581 413.984705 
L 152.028858 415.397724 
L 154.799136 416.43493 
L 157.569414 416.620881 
L 160.339691 415.798283 
L 163.109969 413.475546 
L 165.880246 414.898475 
L 168.650524 415.199063 
L 171.420802 416.765598 
L 174.191079 415.672783 
L 176.961357 415.959932 
L 179.731635 416.488767 
L 185.27219 415.095777 
L 188.042467 415.555272 
L 190.812745 415.873186 
L 193.583023 415.985652 
L 196.3533 415.779208 
L 199.123578 416.173593 
L 201.893855 415.745183 
L 204.664133 415.105005 
L 207.434411 415.403559 
L 210.204688 415.101036 
L 212.974966 415.14178 
L 215.745244 415.752844 
L 218.515521 415.277873 
L 221.285799 414.928524 
L 224.056076 414.195228 
L 226.826354 415.273331 
L 229.596632 414.946231 
L 235.137187 415.002031 
L 237.907464 415.323195 
L 243.44802 415.001637 
L 246.218297 415.42349 
L 251.758853 415.661479 
L 254.52913 414.269241 
L 257.299408 415.243898 
L 265.610241 416.086594 
L 268.380518 415.850632 
L 271.150796 415.943424 
L 276.691351 415.45415 
L 279.461629 415.216544 
L 282.231906 414.830992 
L 285.002184 414.898054 
L 287.772462 415.186004 
L 290.542739 415.671566 
L 298.853572 415.91501 
L 301.62385 415.784937 
L 304.394127 415.471416 
L 307.164405 415.351621 
L 312.70496 415.628284 
L 321.015793 415.505356 
L 323.786071 415.723254 
L 332.096903 415.415542 
L 334.867181 415.614939 
L 340.407736 415.496126 
L 398.583566 415.517328 
L 456.759396 415.458272 
L 487.23245 415.490217 
L 603.58411 415.373477 
L 617.435498 415.3829 
L 617.435498 415.3829 
" style="fill:none;stroke:#00b388;stroke-linecap:round;stroke-width:1.2;"/>
   </g>
   <g id="patch_8">
    <path d="M 38.58599 434.89201 
L 38.58599 242.555638 
" style="fill:none;stroke:#262626;stroke-linecap:square;stroke-linejoin:miter;"/>
   </g>
   <g id="patch_9">
    <path d="M 644.99976 434.89201 
L 644.99976 242.555638 
" style="fill:none;stroke:#262626;stroke-linecap:square;stroke-linejoin:miter;"/>
   </g>
   <g id="patch_10">
    <path d="M 38.58599 434.89201 
L 644.99976 434.89201 
" style="fill:none;stroke:#262626;stroke-linecap:square;stroke-linejoin:miter;"/>
   </g>
   <g id="patch_11">
    <path d="M 38.58599 242.555638 
L 644.99976 242.555638 
" style="fill:none;stroke:#262626;stroke-linecap:square;stroke-linejoin:miter;"/>
   </g>
   <g id="PathCollection_5">
    <g clip-path="url(#p6deedd20dc)">
     <use style="fill:#888b8d;stroke:#888b8d;stroke-width:2;" x="171.420802" xlink:href="#m985be691c6" y="423.092284"/>
    </g>
   </g>
   <g id="PathCollection_6">
    <g clip-path="url(#p6deedd20dc)">
     <use style="fill:#888b8d;stroke:#888b8d;stroke-width:2;" x="171.420802" xlink:href="#mcf260ee4f9" y="416.765598"/>
    </g>
   </g>
  </g>
 </g>
 <defs>
  <clipPath id="p95682bec8b">
   <rect height="192.336372" width="606.41377" x="38.58599" y="16.29474"/>
  </clipPath>
  <clipPath id="p6deedd20dc">
   <rect height="192.336372" width="606.41377" x="38.58599" y="242.555638"/>
  </clipPath>
 </defs>
</svg>
