<?xml version="1.0" encoding="utf-8" standalone="no"?>
<!DOCTYPE svg PUBLIC "-//W3C//DTD SVG 1.1//EN"
  "http://www.w3.org/Graphics/SVG/1.1/DTD/svg11.dtd">
<!-- Created with matplotlib (https://matplotlib.org/) -->
<svg height="468pt" version="1.1" viewBox="0 0 648 468" width="648pt" xmlns="http://www.w3.org/2000/svg" xmlns:xlink="http://www.w3.org/1999/xlink">
 <defs>
  <style type="text/css">
*{stroke-linecap:butt;stroke-linejoin:round;}
  </style>
 </defs>
 <g id="figure_1">
  <g id="patch_1">
   <path d="M 0 468 
L 648 468 
L 648 0 
L 0 0 
z
" style="fill:#ffffff;"/>
  </g>
  <g id="axes_1">
   <g id="patch_2">
    <path d="M 44.18499 208.562861 
L 644.99976 208.562861 
L 644.99976 16.15824 
L 44.18499 16.15824 
z
" style="fill:#ffffff;"/>
   </g>
   <g id="matplotlib.axis_1"/>
   <g id="matplotlib.axis_2">
    <g id="ytick_1">
     <g id="text_1">
      <!-- 0.86 -->
      <defs>
       <path d="M 31.78125 3.421875 
Q 39.265625 3.421875 42.96875 11.625 
Q 46.6875 19.828125 46.6875 36.375 
Q 46.6875 52.984375 42.96875 61.1875 
Q 39.265625 69.390625 31.78125 69.390625 
Q 24.3125 69.390625 20.59375 61.1875 
Q 16.890625 52.984375 16.890625 36.375 
Q 16.890625 19.828125 20.59375 11.625 
Q 24.3125 3.421875 31.78125 3.421875 
z
M 31.78125 -1.421875 
Q 19.921875 -1.421875 13.25 8.53125 
Q 6.59375 18.5 6.59375 36.375 
Q 6.59375 54.296875 13.25 64.25 
Q 19.921875 74.21875 31.78125 74.21875 
Q 43.703125 74.21875 50.34375 64.25 
Q 56.984375 54.296875 56.984375 36.375 
Q 56.984375 18.5 50.34375 8.53125 
Q 43.703125 -1.421875 31.78125 -1.421875 
z
" id="DejaVuSerif-48"/>
       <path d="M 9.421875 5.078125 
Q 9.421875 7.8125 11.28125 9.71875 
Q 13.140625 11.625 15.921875 11.625 
Q 18.609375 11.625 20.5 9.71875 
Q 22.40625 7.8125 22.40625 5.078125 
Q 22.40625 2.390625 20.5 0.484375 
Q 18.609375 -1.421875 15.921875 -1.421875 
Q 13.140625 -1.421875 11.28125 0.453125 
Q 9.421875 2.34375 9.421875 5.078125 
z
" id="DejaVuSerif-46"/>
       <path d="M 46.578125 19.921875 
Q 46.578125 27.734375 42.6875 32.046875 
Q 38.8125 36.375 31.78125 36.375 
Q 24.75 36.375 20.875 32.046875 
Q 17 27.734375 17 19.921875 
Q 17 12.0625 20.875 7.734375 
Q 24.75 3.421875 31.78125 3.421875 
Q 38.8125 3.421875 42.6875 7.734375 
Q 46.578125 12.0625 46.578125 19.921875 
z
M 44.578125 55.328125 
Q 44.578125 61.96875 41.203125 65.671875 
Q 37.84375 69.390625 31.78125 69.390625 
Q 25.78125 69.390625 22.390625 65.671875 
Q 19 61.96875 19 55.328125 
Q 19 48.640625 22.390625 44.921875 
Q 25.78125 41.21875 31.78125 41.21875 
Q 37.84375 41.21875 41.203125 44.921875 
Q 44.578125 48.640625 44.578125 55.328125 
z
M 39.3125 38.8125 
Q 47.609375 37.703125 52.25 32.6875 
Q 56.890625 27.6875 56.890625 19.921875 
Q 56.890625 9.671875 50.390625 4.125 
Q 43.890625 -1.421875 31.78125 -1.421875 
Q 19.734375 -1.421875 13.203125 4.125 
Q 6.6875 9.671875 6.6875 19.921875 
Q 6.6875 27.6875 11.328125 32.6875 
Q 15.96875 37.703125 24.3125 38.8125 
Q 16.9375 40.140625 13 44.40625 
Q 9.078125 48.6875 9.078125 55.328125 
Q 9.078125 64.109375 15.125 69.15625 
Q 21.1875 74.21875 31.78125 74.21875 
Q 42.390625 74.21875 48.4375 69.15625 
Q 54.5 64.109375 54.5 55.328125 
Q 54.5 48.6875 50.5625 44.40625 
Q 46.625 40.140625 39.3125 38.8125 
z
" id="DejaVuSerif-56"/>
       <path d="M 32.71875 3.421875 
Q 39.59375 3.421875 43.296875 8.46875 
Q 47.015625 13.53125 47.015625 23 
Q 47.015625 32.46875 43.296875 37.515625 
Q 39.59375 42.578125 32.71875 42.578125 
Q 25.734375 42.578125 22.0625 37.6875 
Q 18.40625 32.8125 18.40625 23.578125 
Q 18.40625 13.875 22.109375 8.640625 
Q 25.828125 3.421875 32.71875 3.421875 
z
M 16.796875 40.140625 
Q 20.125 43.796875 24.3125 45.59375 
Q 28.515625 47.40625 33.796875 47.40625 
Q 44.671875 47.40625 51 40.859375 
Q 57.328125 34.328125 57.328125 23 
Q 57.328125 11.921875 50.515625 5.25 
Q 43.703125 -1.421875 32.328125 -1.421875 
Q 19.96875 -1.421875 13.328125 7.78125 
Q 6.6875 17 6.6875 34.078125 
Q 6.6875 53.21875 14.546875 63.71875 
Q 22.40625 74.21875 36.71875 74.21875 
Q 40.578125 74.21875 44.828125 73.484375 
Q 49.078125 72.75 53.515625 71.296875 
L 53.515625 59.28125 
L 48 59.28125 
Q 47.40625 64.203125 44.234375 66.796875 
Q 41.0625 69.390625 35.6875 69.390625 
Q 26.21875 69.390625 21.578125 62.203125 
Q 16.9375 55.03125 16.796875 40.140625 
z
" id="DejaVuSerif-54"/>
      </defs>
      <g style="fill:#262626;" transform="translate(16.29124 202.45786)scale(0.088 -0.088)">
       <use xlink:href="#DejaVuSerif-48"/>
       <use x="63.623047" xlink:href="#DejaVuSerif-46"/>
       <use x="95.410156" xlink:href="#DejaVuSerif-56"/>
       <use x="159.033203" xlink:href="#DejaVuSerif-54"/>
      </g>
     </g>
    </g>
    <g id="ytick_2">
     <g id="text_2">
      <!-- 0.88 -->
      <g style="fill:#262626;" transform="translate(16.29124 177.439227)scale(0.088 -0.088)">
       <use xlink:href="#DejaVuSerif-48"/>
       <use x="63.623047" xlink:href="#DejaVuSerif-46"/>
       <use x="95.410156" xlink:href="#DejaVuSerif-56"/>
       <use x="159.033203" xlink:href="#DejaVuSerif-56"/>
      </g>
     </g>
    </g>
    <g id="ytick_3">
     <g id="text_3">
      <!-- 0.90 -->
      <defs>
       <path d="M 46.78125 32.671875 
Q 43.5 29 39.25 27.1875 
Q 35.015625 25.390625 29.6875 25.390625 
Q 18.84375 25.390625 12.5625 31.9375 
Q 6.296875 38.484375 6.296875 49.8125 
Q 6.296875 60.890625 13.109375 67.546875 
Q 19.921875 74.21875 31.296875 74.21875 
Q 43.65625 74.21875 50.265625 65.015625 
Q 56.890625 55.8125 56.890625 38.71875 
Q 56.890625 19.578125 49.015625 9.078125 
Q 41.15625 -1.421875 26.90625 -1.421875 
Q 23.046875 -1.421875 18.796875 -0.6875 
Q 14.546875 0.046875 10.109375 1.515625 
L 10.109375 13.625 
L 15.578125 13.625 
Q 16.21875 8.6875 19.390625 6.046875 
Q 22.5625 3.421875 27.875 3.421875 
Q 37.359375 3.421875 41.984375 10.5625 
Q 46.625 17.71875 46.78125 32.671875 
z
M 30.90625 69.390625 
Q 23.96875 69.390625 20.28125 64.328125 
Q 16.609375 59.28125 16.609375 49.8125 
Q 16.609375 40.328125 20.28125 35.25 
Q 23.96875 30.171875 30.90625 30.171875 
Q 37.84375 30.171875 41.53125 35.078125 
Q 45.21875 39.984375 45.21875 49.21875 
Q 45.21875 58.9375 41.5 64.15625 
Q 37.796875 69.390625 30.90625 69.390625 
z
" id="DejaVuSerif-57"/>
      </defs>
      <g style="fill:#262626;" transform="translate(16.29124 152.420594)scale(0.088 -0.088)">
       <use xlink:href="#DejaVuSerif-48"/>
       <use x="63.623047" xlink:href="#DejaVuSerif-46"/>
       <use x="95.410156" xlink:href="#DejaVuSerif-57"/>
       <use x="159.033203" xlink:href="#DejaVuSerif-48"/>
      </g>
     </g>
    </g>
    <g id="ytick_4">
     <g id="text_4">
      <!-- 0.92 -->
      <defs>
       <path d="M 12.796875 55.515625 
L 7.328125 55.515625 
L 7.328125 68.5 
Q 12.546875 71.296875 17.84375 72.75 
Q 23.140625 74.21875 28.21875 74.21875 
Q 39.59375 74.21875 46.1875 68.703125 
Q 52.78125 63.1875 52.78125 53.71875 
Q 52.78125 43.015625 37.84375 28.125 
Q 36.671875 27 36.078125 26.421875 
L 17.671875 8.015625 
L 48.09375 8.015625 
L 48.09375 17 
L 53.8125 17 
L 53.8125 0 
L 6.78125 0 
L 6.78125 5.328125 
L 28.90625 27.390625 
Q 36.234375 34.71875 39.359375 40.84375 
Q 42.484375 46.96875 42.484375 53.71875 
Q 42.484375 61.078125 38.640625 65.234375 
Q 34.8125 69.390625 28.078125 69.390625 
Q 21.09375 69.390625 17.28125 65.921875 
Q 13.484375 62.453125 12.796875 55.515625 
z
" id="DejaVuSerif-50"/>
      </defs>
      <g style="fill:#262626;" transform="translate(16.29124 127.401961)scale(0.088 -0.088)">
       <use xlink:href="#DejaVuSerif-48"/>
       <use x="63.623047" xlink:href="#DejaVuSerif-46"/>
       <use x="95.410156" xlink:href="#DejaVuSerif-57"/>
       <use x="159.033203" xlink:href="#DejaVuSerif-50"/>
      </g>
     </g>
    </g>
    <g id="ytick_5">
     <g id="text_5">
      <!-- 0.94 -->
      <defs>
       <path d="M 34.90625 24.703125 
L 34.90625 63.484375 
L 10.015625 24.703125 
z
M 56.390625 0 
L 23.1875 0 
L 23.1875 5.171875 
L 34.90625 5.171875 
L 34.90625 19.484375 
L 3.078125 19.484375 
L 3.078125 24.8125 
L 35.015625 74.21875 
L 44.671875 74.21875 
L 44.671875 24.703125 
L 58.59375 24.703125 
L 58.59375 19.484375 
L 44.671875 19.484375 
L 44.671875 5.171875 
L 56.390625 5.171875 
z
" id="DejaVuSerif-52"/>
      </defs>
      <g style="fill:#262626;" transform="translate(16.29124 102.383328)scale(0.088 -0.088)">
       <use xlink:href="#DejaVuSerif-48"/>
       <use x="63.623047" xlink:href="#DejaVuSerif-46"/>
       <use x="95.410156" xlink:href="#DejaVuSerif-57"/>
       <use x="159.033203" xlink:href="#DejaVuSerif-52"/>
      </g>
     </g>
    </g>
    <g id="ytick_6">
     <g id="text_6">
      <!-- 0.96 -->
      <g style="fill:#262626;" transform="translate(16.29124 77.364695)scale(0.088 -0.088)">
       <use xlink:href="#DejaVuSerif-48"/>
       <use x="63.623047" xlink:href="#DejaVuSerif-46"/>
       <use x="95.410156" xlink:href="#DejaVuSerif-57"/>
       <use x="159.033203" xlink:href="#DejaVuSerif-54"/>
      </g>
     </g>
    </g>
    <g id="ytick_7">
     <g id="text_7">
      <!-- 0.98 -->
      <g style="fill:#262626;" transform="translate(16.29124 52.346062)scale(0.088 -0.088)">
       <use xlink:href="#DejaVuSerif-48"/>
       <use x="63.623047" xlink:href="#DejaVuSerif-46"/>
       <use x="95.410156" xlink:href="#DejaVuSerif-57"/>
       <use x="159.033203" xlink:href="#DejaVuSerif-56"/>
      </g>
     </g>
    </g>
    <g id="ytick_8">
     <g id="text_8">
      <!-- 1.00 -->
      <defs>
       <path d="M 14.203125 0 
L 14.203125 5.171875 
L 26.90625 5.171875 
L 26.90625 65.828125 
L 12.203125 56.296875 
L 12.203125 62.703125 
L 29.984375 74.21875 
L 36.71875 74.21875 
L 36.71875 5.171875 
L 49.421875 5.171875 
L 49.421875 0 
z
" id="DejaVuSerif-49"/>
      </defs>
      <g style="fill:#262626;" transform="translate(16.29124 27.327428)scale(0.088 -0.088)">
       <use xlink:href="#DejaVuSerif-49"/>
       <use x="63.623047" xlink:href="#DejaVuSerif-46"/>
       <use x="95.410156" xlink:href="#DejaVuSerif-48"/>
       <use x="159.033203" xlink:href="#DejaVuSerif-48"/>
      </g>
     </g>
    </g>
    <g id="text_9">
     <!-- Accuracy -->
     <defs>
      <path d="M 20.015625 26.421875 
L 46.78125 26.421875 
L 33.40625 61.078125 
z
M -0.59375 0 
L -0.59375 5.171875 
L 5.8125 5.171875 
L 31.78125 72.90625 
L 39.984375 72.90625 
L 66.015625 5.171875 
L 73.1875 5.171875 
L 73.1875 0 
L 46.6875 0 
L 46.6875 5.171875 
L 54.78125 5.171875 
L 48.6875 21.1875 
L 18.015625 21.1875 
L 11.921875 5.171875 
L 19.921875 5.171875 
L 19.921875 0 
z
" id="DejaVuSerif-65"/>
      <path d="M 51.421875 15.578125 
Q 49.515625 7.28125 44.09375 2.921875 
Q 38.671875 -1.421875 30.078125 -1.421875 
Q 18.75 -1.421875 11.859375 6.078125 
Q 4.984375 13.578125 4.984375 25.984375 
Q 4.984375 38.421875 11.859375 45.875 
Q 18.75 53.328125 30.078125 53.328125 
Q 35.015625 53.328125 39.890625 52.171875 
Q 44.78125 51.03125 49.703125 48.6875 
L 49.703125 35.40625 
L 44.484375 35.40625 
Q 43.453125 42.234375 40.015625 45.359375 
Q 36.578125 48.484375 30.171875 48.484375 
Q 22.90625 48.484375 19.1875 42.84375 
Q 15.484375 37.203125 15.484375 25.984375 
Q 15.484375 14.75 19.171875 9.078125 
Q 22.859375 3.421875 30.171875 3.421875 
Q 35.984375 3.421875 39.453125 6.4375 
Q 42.921875 9.46875 44.1875 15.578125 
z
" id="DejaVuSerif-99"/>
      <path d="M 35.40625 51.90625 
L 52.203125 51.90625 
L 52.203125 5.171875 
L 60.6875 5.171875 
L 60.6875 0 
L 43.21875 0 
L 43.21875 9.1875 
Q 40.71875 4 36.765625 1.28125 
Q 32.8125 -1.421875 27.59375 -1.421875 
Q 18.953125 -1.421875 14.875 3.484375 
Q 10.796875 8.40625 10.796875 18.890625 
L 10.796875 46.6875 
L 2.6875 46.6875 
L 2.6875 51.90625 
L 19.828125 51.90625 
L 19.828125 21.6875 
Q 19.828125 12.203125 22.140625 8.6875 
Q 24.46875 5.171875 30.421875 5.171875 
Q 36.671875 5.171875 39.9375 9.765625 
Q 43.21875 14.359375 43.21875 23.09375 
L 43.21875 46.6875 
L 35.40625 46.6875 
z
" id="DejaVuSerif-117"/>
      <path d="M 47.796875 52 
L 47.796875 39.015625 
L 42.625 39.015625 
Q 42.390625 42.875 40.484375 44.78125 
Q 38.578125 46.6875 34.90625 46.6875 
Q 28.265625 46.6875 24.71875 42.09375 
Q 21.1875 37.5 21.1875 28.90625 
L 21.1875 5.171875 
L 31.59375 5.171875 
L 31.59375 0 
L 4.109375 0 
L 4.109375 5.171875 
L 12.203125 5.171875 
L 12.203125 46.78125 
L 3.609375 46.78125 
L 3.609375 51.90625 
L 21.1875 51.90625 
L 21.1875 42.671875 
Q 23.828125 48.09375 27.96875 50.703125 
Q 32.125 53.328125 38.09375 53.328125 
Q 40.28125 53.328125 42.703125 52.984375 
Q 45.125 52.640625 47.796875 52 
z
" id="DejaVuSerif-114"/>
      <path d="M 39.796875 16.3125 
L 39.796875 27.296875 
L 28.21875 27.296875 
Q 21.53125 27.296875 18.25 24.40625 
Q 14.984375 21.53125 14.984375 15.578125 
Q 14.984375 10.15625 18.296875 6.984375 
Q 21.625 3.8125 27.296875 3.8125 
Q 32.90625 3.8125 36.34375 7.28125 
Q 39.796875 10.75 39.796875 16.3125 
z
M 48.78125 32.421875 
L 48.78125 5.171875 
L 56.78125 5.171875 
L 56.78125 0 
L 39.796875 0 
L 39.796875 5.609375 
Q 36.8125 2 32.90625 0.28125 
Q 29 -1.421875 23.78125 -1.421875 
Q 15.140625 -1.421875 10.0625 3.171875 
Q 4.984375 7.765625 4.984375 15.578125 
Q 4.984375 23.640625 10.796875 28.078125 
Q 16.609375 32.515625 27.203125 32.515625 
L 39.796875 32.515625 
L 39.796875 36.078125 
Q 39.796875 42 36.203125 45.234375 
Q 32.625 48.484375 26.125 48.484375 
Q 20.75 48.484375 17.578125 46.046875 
Q 14.40625 43.609375 13.625 38.8125 
L 8.984375 38.8125 
L 8.984375 49.3125 
Q 13.671875 51.3125 18.09375 52.3125 
Q 22.515625 53.328125 26.703125 53.328125 
Q 37.5 53.328125 43.140625 47.96875 
Q 48.78125 42.625 48.78125 32.421875 
z
" id="DejaVuSerif-97"/>
      <path d="M 21.578125 -9.515625 
L 25 -0.875 
L 5.609375 46.6875 
L -0.296875 46.6875 
L -0.296875 51.90625 
L 23.578125 51.90625 
L 23.578125 46.6875 
L 15.28125 46.6875 
L 29.890625 10.984375 
L 44.484375 46.6875 
L 36.71875 46.6875 
L 36.71875 51.90625 
L 56.203125 51.90625 
L 56.203125 46.6875 
L 50.390625 46.6875 
L 26.609375 -11.71875 
Q 24.171875 -17.78125 21.1875 -20 
Q 18.21875 -22.21875 12.796875 -22.21875 
Q 10.5 -22.21875 8.078125 -21.828125 
Q 5.671875 -21.4375 3.21875 -20.703125 
L 3.21875 -10.796875 
L 7.8125 -10.796875 
Q 8.109375 -14.109375 9.5 -15.546875 
Q 10.890625 -17 13.8125 -17 
Q 16.5 -17 18.140625 -15.5 
Q 19.78125 -14.015625 21.578125 -9.515625 
z
" id="DejaVuSerif-121"/>
     </defs>
     <g style="fill:#262626;" transform="translate(10.15824 134.8508)rotate(-90)scale(0.096 -0.096)">
      <use xlink:href="#DejaVuSerif-65"/>
      <use x="72.216797" xlink:href="#DejaVuSerif-99"/>
      <use x="128.222656" xlink:href="#DejaVuSerif-99"/>
      <use x="184.228516" xlink:href="#DejaVuSerif-117"/>
      <use x="248.632812" xlink:href="#DejaVuSerif-114"/>
      <use x="296.435547" xlink:href="#DejaVuSerif-97"/>
      <use x="356.054688" xlink:href="#DejaVuSerif-99"/>
      <use x="412.060547" xlink:href="#DejaVuSerif-121"/>
     </g>
    </g>
   </g>
   <g id="line2d_1">
    <path clip-path="url(#p8650689a17)" d="M 71.494752 199.817196 
L 74.239452 126.594906 
L 76.984152 106.826682 
L 79.728851 95.683491 
L 82.473551 88.762335 
L 85.218251 84.299018 
L 87.962951 79.021492 
L 90.70765 76.835056 
L 93.45235 70.758381 
L 96.19705 70.532162 
L 98.94175 66.852933 
L 101.686449 65.64668 
L 104.431149 63.414984 
L 107.175849 61.741231 
L 109.920548 59.358848 
L 112.665248 58.001757 
L 115.409948 56.840688 
L 118.154648 54.970913 
L 120.899347 53.508243 
L 123.644047 53.447923 
L 126.388747 51.095662 
L 129.133447 51.321881 
L 131.878146 49.497365 
L 134.622846 49.301343 
L 137.367546 41.083416 
L 140.112245 38.580318 
L 142.856945 37.162907 
L 145.601645 38.112893 
L 148.346345 36.001838 
L 153.835744 34.750326 
L 156.580444 34.825707 
L 159.325144 34.132138 
L 162.069843 35.202689 
L 164.814543 31.267118 
L 167.559243 30.724312 
L 170.303942 30.377527 
L 173.048642 29.653685 
L 175.793342 30.075926 
L 178.538042 29.216458 
L 181.282741 29.834646 
L 184.027441 29.201322 
L 186.772141 29.12594 
L 189.51684 28.899796 
L 192.26154 28.115709 
L 195.00624 27.648284 
L 197.75094 27.497446 
L 200.495639 27.150661 
L 203.240339 27.467323 
L 205.985039 27.120464 
L 211.474438 26.773679 
L 214.219138 27.210981 
L 216.963838 26.472079 
L 219.708537 26.547535 
L 222.453237 26.260995 
L 225.197937 26.276057 
L 227.942637 26.095171 
L 230.687336 26.245934 
L 233.432036 25.763373 
L 236.176736 25.838829 
L 238.921436 26.034851 
L 241.666135 25.884013 
L 244.410835 26.080035 
L 247.155535 25.73325 
L 249.900234 26.095171 
L 255.389634 25.718189 
L 258.134334 25.929272 
L 263.623733 25.507031 
L 266.368433 25.61261 
L 269.113133 25.265825 
L 271.857832 25.838829 
L 274.602532 25.582487 
L 277.347232 25.522167 
L 280.091931 25.597549 
L 282.836631 25.265825 
L 288.326031 25.43165 
L 291.07073 25.356268 
L 293.81543 25.49197 
L 299.30483 25.356268 
L 302.049529 25.114988 
L 304.794229 25.476908 
L 307.538929 25.220567 
L 310.283628 25.326145 
L 313.028328 25.250764 
L 315.773028 25.416588 
L 318.517728 24.994422 
L 321.262427 25.416588 
L 324.007127 25.43165 
L 326.751827 25.190444 
L 329.496527 25.49197 
L 334.985926 25.069804 
L 340.475325 25.295948 
L 345.964725 25.069804 
L 356.943524 25.295948 
L 359.688223 25.175308 
L 365.177623 25.265825 
L 367.922323 25.009483 
L 370.667022 24.903905 
L 373.411722 25.567351 
L 376.156422 25.537229 
L 378.901122 25.220567 
L 384.390521 25.416588 
L 387.135221 25.220567 
L 389.87992 25.401527 
L 392.62462 25.175308 
L 395.36932 25.084865 
L 398.11402 25.476908 
L 400.858719 25.507031 
L 406.348119 25.205505 
L 409.092819 25.175308 
L 411.837518 25.446786 
L 414.582218 25.235628 
L 417.326918 25.145185 
L 420.071617 25.326145 
L 422.816317 24.979286 
L 425.561017 25.341207 
L 428.305717 25.130124 
L 431.050416 25.235628 
L 433.795116 24.994422 
L 436.539816 25.250764 
L 442.029215 25.114988 
L 444.773915 25.356268 
L 447.518615 25.295948 
L 450.263314 25.054742 
L 453.008014 25.295948 
L 461.242113 25.160246 
L 463.986813 25.37133 
L 466.731513 25.039606 
L 469.476213 25.401527 
L 472.220912 25.099926 
L 474.965612 25.084865 
L 480.455011 25.280887 
L 483.199711 25.235628 
L 485.944411 25.522167 
L 494.17851 25.130124 
L 496.92321 25.326145 
L 505.157309 25.250764 
L 507.902009 24.964225 
L 510.646708 25.265825 
L 513.391408 25.114988 
L 516.136108 25.401527 
L 518.880808 25.175308 
L 521.625507 25.280887 
L 524.370207 25.009483 
L 527.114907 25.265825 
L 529.859606 25.311009 
L 532.604306 24.994422 
L 538.093706 25.280887 
L 551.817204 25.250764 
L 554.561904 25.069804 
L 557.306604 25.265825 
L 560.051303 24.903905 
L 562.796003 25.175308 
L 565.540703 25.235628 
L 568.285403 25.054742 
L 571.030102 25.37133 
L 573.774802 25.235628 
L 576.519502 25.446786 
L 579.264202 25.295948 
L 582.008901 25.461847 
L 584.753601 25.295948 
L 587.498301 24.994422 
L 590.243 25.507031 
L 598.4771 25.114988 
L 601.221799 25.084865 
L 603.966499 25.235628 
L 612.200598 25.039606 
L 614.945298 25.507031 
L 617.689998 25.43165 
L 617.689998 25.43165 
" style="fill:none;stroke:#c8102e;stroke-linecap:round;stroke-width:1.2;"/>
   </g>
   <g id="line2d_2">
    <path clip-path="url(#p8650689a17)" d="M 71.494752 123.986303 
L 74.239452 96.181113 
L 76.984152 91.174916 
L 79.728851 94.733505 
L 82.473551 81.946757 
L 85.218251 77.966002 
L 87.962951 75.07086 
L 90.70765 72.477318 
L 93.45235 72.537638 
L 96.19705 70.728184 
L 98.94175 76.458074 
L 101.686449 78.99137 
L 104.431149 67.048955 
L 107.175849 65.118935 
L 109.920548 64.274453 
L 112.665248 65.480781 
L 115.409948 67.591836 
L 118.154648 64.153887 
L 120.899347 67.169595 
L 123.644047 64.214207 
L 126.388747 63.972927 
L 129.133447 62.284112 
L 131.878146 62.826919 
L 134.622846 63.24916 
L 137.367546 60.715938 
L 140.112245 60.655618 
L 142.856945 58.182717 
L 145.601645 57.398555 
L 148.346345 59.44929 
L 151.091044 58.544563 
L 153.835744 58.725524 
L 156.580444 60.112737 
L 159.325144 58.122397 
L 162.069843 58.242963 
L 164.814543 58.001757 
L 167.559243 56.916069 
L 170.303942 56.011342 
L 173.048642 57.21767 
L 175.793342 55.830381 
L 178.538042 57.639836 
L 181.282741 56.373262 
L 184.027441 56.252622 
L 186.772141 56.855749 
L 189.51684 57.338235 
L 192.26154 56.433583 
L 195.00624 55.890702 
L 197.75094 56.252622 
L 200.495639 55.770061 
L 205.985039 55.770061 
L 208.729739 55.589175 
L 211.474438 56.433583 
L 214.219138 56.131982 
L 216.963838 55.227255 
L 219.708537 55.528855 
L 222.453237 55.227255 
L 225.197937 55.287575 
L 230.687336 55.830381 
L 233.432036 55.770061 
L 236.176736 56.192302 
L 238.921436 55.589175 
L 241.666135 55.649421 
L 244.410835 55.408215 
L 255.389634 55.589175 
L 258.134334 55.106615 
L 260.879033 55.709741 
L 263.623733 55.649421 
L 266.368433 55.468535 
L 269.113133 55.649421 
L 271.857832 56.011342 
L 274.602532 55.408215 
L 277.347232 55.287575 
L 280.091931 55.649421 
L 282.836631 55.770061 
L 285.581331 55.528855 
L 288.326031 55.408215 
L 291.07073 55.589175 
L 293.81543 55.046294 
L 296.56013 55.528855 
L 299.30483 55.106615 
L 304.794229 55.408215 
L 310.283628 55.227255 
L 313.028328 55.287575 
L 315.773028 54.985974 
L 318.517728 54.865334 
L 321.262427 55.166935 
L 326.751827 55.408215 
L 332.241226 55.287575 
L 334.985926 55.589175 
L 337.730626 55.408215 
L 343.220025 55.408215 
L 345.964725 55.649421 
L 348.709425 55.468535 
L 351.454124 55.528855 
L 359.688223 55.408215 
L 362.432923 55.166935 
L 367.922323 55.166935 
L 370.667022 55.287575 
L 373.411722 55.227255 
L 376.156422 55.287575 
L 378.901122 55.166935 
L 384.390521 55.106615 
L 389.87992 55.046294 
L 414.582218 55.046294 
L 417.326918 55.227255 
L 425.561017 55.046294 
L 428.305717 55.106615 
L 431.050416 54.985974 
L 433.795116 55.227255 
L 436.539816 55.046294 
L 439.284516 55.046294 
L 442.029215 55.227255 
L 447.518615 55.287575 
L 453.008014 55.227255 
L 469.476213 55.227255 
L 472.220912 55.106615 
L 477.710312 55.347895 
L 485.944411 55.287575 
L 488.689111 55.227255 
L 491.43381 55.287575 
L 494.17851 55.106615 
L 496.92321 55.227255 
L 499.66791 55.227255 
L 502.412609 55.347895 
L 507.902009 55.408215 
L 510.646708 55.227255 
L 521.625507 55.408215 
L 524.370207 55.347895 
L 529.859606 55.408215 
L 532.604306 55.347895 
L 535.349006 55.468535 
L 538.093706 55.347895 
L 540.838405 55.347895 
L 543.583105 55.227255 
L 560.051303 55.227255 
L 562.796003 55.046294 
L 565.540703 55.166935 
L 568.285403 55.106615 
L 571.030102 55.227255 
L 573.774802 55.106615 
L 576.519502 55.287575 
L 584.753601 55.166935 
L 590.243 55.106615 
L 598.4771 54.985974 
L 606.711199 55.166935 
L 609.455899 55.106615 
L 614.945298 55.166935 
L 617.689998 55.408215 
L 617.689998 55.408215 
" style="fill:none;stroke:#00b388;stroke-linecap:round;stroke-width:1.2;"/>
   </g>
   <g id="line2d_3"/>
   <g id="line2d_4"/>
   <g id="patch_3">
    <path d="M 44.18499 208.562861 
L 44.18499 16.15824 
" style="fill:none;stroke:#262626;stroke-linecap:square;stroke-linejoin:miter;"/>
   </g>
   <g id="patch_4">
    <path d="M 644.99976 208.562861 
L 644.99976 16.15824 
" style="fill:none;stroke:#262626;stroke-linecap:square;stroke-linejoin:miter;"/>
   </g>
   <g id="patch_5">
    <path d="M 44.18499 208.562861 
L 644.99976 208.562861 
" style="fill:none;stroke:#262626;stroke-linecap:square;stroke-linejoin:miter;"/>
   </g>
   <g id="patch_6">
    <path d="M 44.18499 16.15824 
L 644.99976 16.15824 
" style="fill:none;stroke:#262626;stroke-linecap:square;stroke-linejoin:miter;"/>
   </g>
   <g id="PathCollection_1">
    <defs>
     <path d="M 0 0 
L 0 7.071068 
M 0 0 
L 5.656854 -3.535534 
M 0 0 
L -5.656854 -3.535534 
" id="maeb722954e" style="stroke:#888b8d;stroke-width:2;"/>
    </defs>
    <g clip-path="url(#p8650689a17)">
     <use style="fill:#888b8d;stroke:#888b8d;stroke-width:2;" x="107.175849" xlink:href="#maeb722954e" y="61.741231"/>
    </g>
   </g>
   <g id="PathCollection_2">
    <defs>
     <path d="M 0 0 
L 0 -7.071068 
M 0 0 
L -5.656854 3.535534 
M 0 0 
L 5.656854 3.535534 
" id="mff33342a5f" style="stroke:#888b8d;stroke-width:2;"/>
    </defs>
    <g clip-path="url(#p8650689a17)">
     <use style="fill:#888b8d;stroke:#888b8d;stroke-width:2;" x="107.175849" xlink:href="#mff33342a5f" y="65.118935"/>
    </g>
   </g>
   <g id="text_10">
    <!-- Pavia University 3D-CNN Training History -->
    <defs>
     <path d="M 24.703125 37.109375 
L 37.59375 37.109375 
Q 44.875 37.109375 48.671875 41.03125 
Q 52.484375 44.96875 52.484375 52.390625 
Q 52.484375 59.859375 48.671875 63.765625 
Q 44.875 67.671875 37.59375 67.671875 
L 24.703125 67.671875 
z
M 5.515625 0 
L 5.515625 5.171875 
L 14.796875 5.171875 
L 14.796875 67.671875 
L 5.515625 67.671875 
L 5.515625 72.90625 
L 39.984375 72.90625 
Q 50.921875 72.90625 57.3125 67.359375 
Q 63.71875 61.8125 63.71875 52.390625 
Q 63.71875 43.015625 57.3125 37.453125 
Q 50.921875 31.890625 39.984375 31.890625 
L 24.703125 31.890625 
L 24.703125 5.171875 
L 35.984375 5.171875 
L 35.984375 0 
z
" id="DejaVuSerif-80"/>
     <path d="M 24.703125 0 
L 5.609375 46.6875 
L -0.296875 46.6875 
L -0.296875 51.90625 
L 23.578125 51.90625 
L 23.578125 46.6875 
L 15.28125 46.6875 
L 29.890625 10.984375 
L 44.484375 46.6875 
L 36.71875 46.6875 
L 36.71875 51.90625 
L 56.203125 51.90625 
L 56.203125 46.6875 
L 50.390625 46.6875 
L 31.296875 0 
z
" id="DejaVuSerif-118"/>
     <path d="M 9.71875 68.015625 
Q 9.71875 70.265625 11.34375 71.921875 
Q 12.984375 73.578125 15.28125 73.578125 
Q 17.53125 73.578125 19.15625 71.921875 
Q 20.796875 70.265625 20.796875 68.015625 
Q 20.796875 65.71875 19.1875 64.109375 
Q 17.578125 62.5 15.28125 62.5 
Q 12.984375 62.5 11.34375 64.109375 
Q 9.71875 65.71875 9.71875 68.015625 
z
M 21.1875 5.171875 
L 29.6875 5.171875 
L 29.6875 0 
L 3.609375 0 
L 3.609375 5.171875 
L 12.203125 5.171875 
L 12.203125 46.6875 
L 3.609375 46.6875 
L 3.609375 51.90625 
L 21.1875 51.90625 
z
" id="DejaVuSerif-105"/>
     <path id="DejaVuSerif-32"/>
     <path d="M 14.015625 67.671875 
L 4.6875 67.671875 
L 4.6875 72.90625 
L 33.203125 72.90625 
L 33.203125 67.671875 
L 23.875 67.671875 
L 23.875 29.984375 
Q 23.875 16.015625 28.4375 10.5 
Q 33.015625 4.984375 44.1875 4.984375 
Q 55.375 4.984375 59.9375 10.5 
Q 64.5 16.015625 64.5 29.984375 
L 64.5 67.671875 
L 55.171875 67.671875 
L 55.171875 72.90625 
L 79.78125 72.90625 
L 79.78125 67.671875 
L 70.515625 67.671875 
L 70.515625 29 
Q 70.515625 12.359375 64.109375 5.46875 
Q 57.71875 -1.421875 42.390625 -1.421875 
Q 27.046875 -1.421875 20.53125 5.515625 
Q 14.015625 12.453125 14.015625 29 
z
" id="DejaVuSerif-85"/>
     <path d="M 4.109375 0 
L 4.109375 5.171875 
L 12.203125 5.171875 
L 12.203125 46.6875 
L 3.609375 46.6875 
L 3.609375 51.90625 
L 21.1875 51.90625 
L 21.1875 42.671875 
Q 23.6875 47.953125 27.65625 50.640625 
Q 31.640625 53.328125 36.921875 53.328125 
Q 45.515625 53.328125 49.5625 48.390625 
Q 53.609375 43.453125 53.609375 33.015625 
L 53.609375 5.171875 
L 61.625 5.171875 
L 61.625 0 
L 36.8125 0 
L 36.8125 5.171875 
L 44.578125 5.171875 
L 44.578125 30.171875 
Q 44.578125 39.703125 42.234375 43.234375 
Q 39.890625 46.78125 33.984375 46.78125 
Q 27.734375 46.78125 24.453125 42.203125 
Q 21.1875 37.640625 21.1875 28.90625 
L 21.1875 5.171875 
L 29 5.171875 
L 29 0 
z
" id="DejaVuSerif-110"/>
     <path d="M 54.203125 25 
L 15.484375 25 
L 15.484375 24.609375 
Q 15.484375 14.109375 19.4375 8.765625 
Q 23.390625 3.421875 31.109375 3.421875 
Q 37.015625 3.421875 40.796875 6.515625 
Q 44.578125 9.625 46.09375 15.71875 
L 53.328125 15.71875 
Q 51.171875 7.171875 45.375 2.875 
Q 39.59375 -1.421875 30.171875 -1.421875 
Q 18.796875 -1.421875 11.890625 6.078125 
Q 4.984375 13.578125 4.984375 25.984375 
Q 4.984375 38.28125 11.765625 45.796875 
Q 18.5625 53.328125 29.59375 53.328125 
Q 41.359375 53.328125 47.65625 46.0625 
Q 53.953125 38.8125 54.203125 25 
z
M 43.609375 30.171875 
Q 43.3125 39.265625 39.765625 43.875 
Q 36.234375 48.484375 29.59375 48.484375 
Q 23.390625 48.484375 19.828125 43.84375 
Q 16.265625 39.203125 15.484375 30.171875 
z
" id="DejaVuSerif-101"/>
     <path d="M 5.609375 2.875 
L 5.609375 14.984375 
L 10.796875 14.984375 
Q 10.984375 9.1875 14.421875 6.296875 
Q 17.875 3.421875 24.609375 3.421875 
Q 30.671875 3.421875 33.84375 5.6875 
Q 37.015625 7.953125 37.015625 12.3125 
Q 37.015625 15.71875 34.6875 17.8125 
Q 32.375 19.921875 24.90625 22.3125 
L 18.40625 24.515625 
Q 11.71875 26.65625 8.71875 29.875 
Q 5.71875 33.109375 5.71875 38.09375 
Q 5.71875 45.21875 10.9375 49.265625 
Q 16.15625 53.328125 25.390625 53.328125 
Q 29.5 53.328125 34.03125 52.25 
Q 38.578125 51.171875 43.40625 49.125 
L 43.40625 37.796875 
L 38.234375 37.796875 
Q 38.03125 42.828125 34.703125 45.65625 
Q 31.390625 48.484375 25.6875 48.484375 
Q 20.015625 48.484375 17.109375 46.484375 
Q 14.203125 44.484375 14.203125 40.484375 
Q 14.203125 37.203125 16.40625 35.21875 
Q 18.609375 33.25 25.203125 31.203125 
L 32.328125 29 
Q 39.703125 26.703125 42.9375 23.265625 
Q 46.1875 19.828125 46.1875 14.40625 
Q 46.1875 7.03125 40.546875 2.796875 
Q 34.90625 -1.421875 25 -1.421875 
Q 19.96875 -1.421875 15.1875 -0.34375 
Q 10.40625 0.734375 5.609375 2.875 
z
" id="DejaVuSerif-115"/>
     <path d="M 10.796875 46.6875 
L 2.875 46.6875 
L 2.875 51.90625 
L 10.796875 51.90625 
L 10.796875 68.015625 
L 19.828125 68.015625 
L 19.828125 51.90625 
L 36.71875 51.90625 
L 36.71875 46.6875 
L 19.828125 46.6875 
L 19.828125 13.71875 
Q 19.828125 7.125 21.09375 5.265625 
Q 22.359375 3.421875 25.78125 3.421875 
Q 29.296875 3.421875 30.90625 5.484375 
Q 32.515625 7.5625 32.625 12.203125 
L 39.40625 12.203125 
Q 39.015625 5.125 35.546875 1.84375 
Q 32.078125 -1.421875 25 -1.421875 
Q 17.234375 -1.421875 14.015625 2.015625 
Q 10.796875 5.46875 10.796875 13.71875 
z
" id="DejaVuSerif-116"/>
     <path d="M 9.71875 69.828125 
Q 15.4375 71.96875 20.671875 73.09375 
Q 25.921875 74.21875 30.515625 74.21875 
Q 41.21875 74.21875 47.21875 69.59375 
Q 53.21875 64.984375 53.21875 56.78125 
Q 53.21875 50.203125 49.0625 45.78125 
Q 44.921875 41.359375 37.3125 39.796875 
Q 46.296875 38.53125 51.25 33.28125 
Q 56.203125 28.03125 56.203125 19.671875 
Q 56.203125 9.46875 49.34375 4.015625 
Q 42.484375 -1.421875 29.59375 -1.421875 
Q 23.875 -1.421875 18.421875 -0.1875 
Q 12.984375 1.03125 7.625 3.515625 
L 7.625 17.671875 
L 13.09375 17.671875 
Q 13.578125 10.640625 17.828125 7.03125 
Q 22.078125 3.421875 29.78125 3.421875 
Q 37.25 3.421875 41.578125 7.734375 
Q 45.90625 12.0625 45.90625 19.578125 
Q 45.90625 28.171875 41.453125 32.59375 
Q 37.015625 37.015625 28.421875 37.015625 
L 23.78125 37.015625 
L 23.78125 42 
L 26.21875 42 
Q 34.765625 42 39.03125 45.53125 
Q 43.3125 49.078125 43.3125 56.203125 
Q 43.3125 62.59375 39.796875 65.984375 
Q 36.28125 69.390625 29.6875 69.390625 
Q 23.09375 69.390625 19.453125 66.265625 
Q 15.828125 63.140625 15.1875 56.984375 
L 9.71875 56.984375 
z
" id="DejaVuSerif-51"/>
     <path d="M 24.703125 5.171875 
L 33.796875 5.171875 
Q 48 5.171875 55.59375 13.28125 
Q 63.1875 21.390625 63.1875 36.53125 
Q 63.1875 51.65625 55.609375 59.65625 
Q 48.046875 67.671875 33.796875 67.671875 
L 24.703125 67.671875 
z
M 5.515625 0 
L 5.515625 5.171875 
L 14.796875 5.171875 
L 14.796875 67.671875 
L 5.515625 67.671875 
L 5.515625 72.90625 
L 34.515625 72.90625 
Q 53.375 72.90625 63.890625 63.28125 
Q 74.421875 53.65625 74.421875 36.53125 
Q 74.421875 19.34375 63.875 9.671875 
Q 53.328125 0 34.515625 0 
z
" id="DejaVuSerif-68"/>
     <path d="M 4.390625 30.609375 
L 29.390625 30.609375 
L 29.390625 23 
L 4.390625 23 
z
" id="DejaVuSerif-45"/>
     <path d="M 70.515625 19.28125 
Q 67.28125 9.078125 59.6875 3.828125 
Q 52.09375 -1.421875 40.484375 -1.421875 
Q 33.34375 -1.421875 27.234375 1.015625 
Q 21.140625 3.46875 16.40625 8.203125 
Q 10.9375 13.671875 8.265625 20.625 
Q 5.609375 27.59375 5.609375 36.375 
Q 5.609375 53.375 15.421875 63.796875 
Q 25.25 74.21875 41.3125 74.21875 
Q 47.265625 74.21875 54 72.65625 
Q 60.75 71.09375 68.5 67.921875 
L 68.5 51.125 
L 62.984375 51.125 
Q 61.1875 60.296875 55.734375 64.640625 
Q 50.296875 69 40.484375 69 
Q 28.8125 69 22.796875 60.71875 
Q 16.796875 52.4375 16.796875 36.375 
Q 16.796875 20.359375 22.796875 12.078125 
Q 28.8125 3.8125 40.484375 3.8125 
Q 48.640625 3.8125 53.90625 7.6875 
Q 59.1875 11.578125 61.53125 19.28125 
z
" id="DejaVuSerif-67"/>
     <path d="M 4.890625 0 
L 4.890625 5.171875 
L 14.703125 5.171875 
L 14.703125 67.671875 
L 4.890625 67.671875 
L 4.890625 72.90625 
L 23.578125 72.90625 
L 67.28125 15.375 
L 67.28125 67.671875 
L 57.515625 67.671875 
L 57.515625 72.90625 
L 83.109375 72.90625 
L 83.109375 67.671875 
L 73.296875 67.671875 
L 73.296875 -1.421875 
L 67.390625 -1.421875 
L 20.703125 60.015625 
L 20.703125 5.171875 
L 30.515625 5.171875 
L 30.515625 0 
z
" id="DejaVuSerif-78"/>
     <path d="M 19.09375 0 
L 19.09375 5.171875 
L 28.421875 5.171875 
L 28.421875 67.09375 
L 6.984375 67.09375 
L 6.984375 55.71875 
L 0.984375 55.71875 
L 0.984375 72.90625 
L 65.71875 72.90625 
L 65.71875 55.71875 
L 59.71875 55.71875 
L 59.71875 67.09375 
L 38.28125 67.09375 
L 38.28125 5.171875 
L 47.609375 5.171875 
L 47.609375 0 
z
" id="DejaVuSerif-84"/>
     <path d="M 52.484375 46.6875 
L 52.484375 1.125 
Q 52.484375 -10.0625 46.328125 -16.140625 
Q 40.1875 -22.21875 28.8125 -22.21875 
Q 23.6875 -22.21875 19 -21.28125 
Q 14.3125 -20.359375 10.015625 -18.5 
L 10.015625 -7.625 
L 14.703125 -7.625 
Q 15.578125 -12.703125 18.84375 -15.046875 
Q 22.125 -17.390625 28.21875 -17.390625 
Q 36.140625 -17.390625 39.8125 -12.921875 
Q 43.5 -8.453125 43.5 1.125 
L 43.5 8.109375 
Q 40.875 3.21875 36.796875 0.890625 
Q 32.71875 -1.421875 26.703125 -1.421875 
Q 17.140625 -1.421875 11.0625 6.171875 
Q 4.984375 13.765625 4.984375 25.984375 
Q 4.984375 38.1875 11.03125 45.75 
Q 17.09375 53.328125 26.703125 53.328125 
Q 32.71875 53.328125 36.796875 51 
Q 40.875 48.6875 43.5 43.796875 
L 43.5 51.90625 
L 61.078125 51.90625 
L 61.078125 46.6875 
z
M 43.5 28.515625 
Q 43.5 37.84375 39.90625 42.765625 
Q 36.328125 47.703125 29.5 47.703125 
Q 22.5625 47.703125 19.015625 42.234375 
Q 15.484375 36.765625 15.484375 25.984375 
Q 15.484375 15.234375 19.015625 9.71875 
Q 22.5625 4.203125 29.5 4.203125 
Q 36.328125 4.203125 39.90625 9.109375 
Q 43.5 14.015625 43.5 23.390625 
z
" id="DejaVuSerif-103"/>
     <path d="M 5.515625 0 
L 5.515625 5.171875 
L 14.796875 5.171875 
L 14.796875 67.671875 
L 5.515625 67.671875 
L 5.515625 72.90625 
L 33.984375 72.90625 
L 33.984375 67.671875 
L 24.703125 67.671875 
L 24.703125 42.484375 
L 62.5 42.484375 
L 62.5 67.671875 
L 53.21875 67.671875 
L 53.21875 72.90625 
L 81.6875 72.90625 
L 81.6875 67.671875 
L 72.40625 67.671875 
L 72.40625 5.171875 
L 81.6875 5.171875 
L 81.6875 0 
L 53.21875 0 
L 53.21875 5.171875 
L 62.5 5.171875 
L 62.5 36.53125 
L 24.703125 36.53125 
L 24.703125 5.171875 
L 33.984375 5.171875 
L 33.984375 0 
z
" id="DejaVuSerif-72"/>
     <path d="M 30.078125 3.421875 
Q 37.3125 3.421875 40.984375 9.125 
Q 44.671875 14.84375 44.671875 25.984375 
Q 44.671875 37.109375 40.984375 42.796875 
Q 37.3125 48.484375 30.078125 48.484375 
Q 22.859375 48.484375 19.171875 42.796875 
Q 15.484375 37.109375 15.484375 25.984375 
Q 15.484375 14.84375 19.1875 9.125 
Q 22.90625 3.421875 30.078125 3.421875 
z
M 30.078125 -1.421875 
Q 18.75 -1.421875 11.859375 6.078125 
Q 4.984375 13.578125 4.984375 25.984375 
Q 4.984375 38.375 11.84375 45.84375 
Q 18.703125 53.328125 30.078125 53.328125 
Q 41.453125 53.328125 48.3125 45.84375 
Q 55.171875 38.375 55.171875 25.984375 
Q 55.171875 13.578125 48.3125 6.078125 
Q 41.453125 -1.421875 30.078125 -1.421875 
z
" id="DejaVuSerif-111"/>
    </defs>
    <g style="fill:#262626;" transform="translate(240.842625 10.15824)scale(0.096 -0.096)">
     <use xlink:href="#DejaVuSerif-80"/>
     <use x="67.222656" xlink:href="#DejaVuSerif-97"/>
     <use x="126.841797" xlink:href="#DejaVuSerif-118"/>
     <use x="183.335938" xlink:href="#DejaVuSerif-105"/>
     <use x="215.318359" xlink:href="#DejaVuSerif-97"/>
     <use x="274.9375" xlink:href="#DejaVuSerif-32"/>
     <use x="306.724609" xlink:href="#DejaVuSerif-85"/>
     <use x="391.001953" xlink:href="#DejaVuSerif-110"/>
     <use x="455.40625" xlink:href="#DejaVuSerif-105"/>
     <use x="487.388672" xlink:href="#DejaVuSerif-118"/>
     <use x="543.882812" xlink:href="#DejaVuSerif-101"/>
     <use x="603.0625" xlink:href="#DejaVuSerif-114"/>
     <use x="650.865234" xlink:href="#DejaVuSerif-115"/>
     <use x="702.183594" xlink:href="#DejaVuSerif-105"/>
     <use x="734.166016" xlink:href="#DejaVuSerif-116"/>
     <use x="774.351562" xlink:href="#DejaVuSerif-121"/>
     <use x="830.845703" xlink:href="#DejaVuSerif-32"/>
     <use x="862.632812" xlink:href="#DejaVuSerif-51"/>
     <use x="926.255859" xlink:href="#DejaVuSerif-68"/>
     <use x="1006.447266" xlink:href="#DejaVuSerif-45"/>
     <use x="1040.236328" xlink:href="#DejaVuSerif-67"/>
     <use x="1116.75" xlink:href="#DejaVuSerif-78"/>
     <use x="1204.25" xlink:href="#DejaVuSerif-78"/>
     <use x="1291.75" xlink:href="#DejaVuSerif-32"/>
     <use x="1323.537109" xlink:href="#DejaVuSerif-84"/>
     <use x="1390.236328" xlink:href="#DejaVuSerif-114"/>
     <use x="1438.039062" xlink:href="#DejaVuSerif-97"/>
     <use x="1497.658203" xlink:href="#DejaVuSerif-105"/>
     <use x="1529.640625" xlink:href="#DejaVuSerif-110"/>
     <use x="1594.044922" xlink:href="#DejaVuSerif-105"/>
     <use x="1626.027344" xlink:href="#DejaVuSerif-110"/>
     <use x="1690.431641" xlink:href="#DejaVuSerif-103"/>
     <use x="1754.445312" xlink:href="#DejaVuSerif-32"/>
     <use x="1786.232422" xlink:href="#DejaVuSerif-72"/>
     <use x="1873.439453" xlink:href="#DejaVuSerif-105"/>
     <use x="1905.421875" xlink:href="#DejaVuSerif-115"/>
     <use x="1956.740234" xlink:href="#DejaVuSerif-116"/>
     <use x="1996.925781" xlink:href="#DejaVuSerif-111"/>
     <use x="2057.130859" xlink:href="#DejaVuSerif-114"/>
     <use x="2104.933594" xlink:href="#DejaVuSerif-121"/>
    </g>
   </g>
  </g>
  <g id="axes_2">
   <g id="legend_1">
    <g id="line2d_5">
     <path d="M 223.119375 224.810813 
L 240.719375 224.810813 
" style="fill:none;stroke:#c8102e;stroke-linecap:round;stroke-width:1.2;"/>
    </g>
    <g id="line2d_6"/>
    <g id="text_11">
     <!-- Training -->
     <g style="fill:#262626;" transform="translate(247.759375 227.890813)scale(0.088 -0.088)">
      <use xlink:href="#DejaVuSerif-84"/>
      <use x="66.699219" xlink:href="#DejaVuSerif-114"/>
      <use x="114.501953" xlink:href="#DejaVuSerif-97"/>
      <use x="174.121094" xlink:href="#DejaVuSerif-105"/>
      <use x="206.103516" xlink:href="#DejaVuSerif-110"/>
      <use x="270.507812" xlink:href="#DejaVuSerif-105"/>
      <use x="302.490234" xlink:href="#DejaVuSerif-110"/>
      <use x="366.894531" xlink:href="#DejaVuSerif-103"/>
     </g>
    </g>
    <g id="line2d_7">
     <path d="M 303.2805 224.810813 
L 320.8805 224.810813 
" style="fill:none;stroke:#00b388;stroke-linecap:round;stroke-width:1.2;"/>
    </g>
    <g id="line2d_8"/>
    <g id="text_12">
     <!-- Validation -->
     <defs>
      <path d="M 17.484375 67.671875 
L 39.015625 11.71875 
L 60.5 67.671875 
L 52.296875 67.671875 
L 52.296875 72.90625 
L 73.6875 72.90625 
L 73.6875 67.671875 
L 66.609375 67.671875 
L 40.578125 0 
L 32.171875 0 
L 6.296875 67.671875 
L -0.984375 67.671875 
L -0.984375 72.90625 
L 25.59375 72.90625 
L 25.59375 67.671875 
z
" id="DejaVuSerif-86"/>
      <path d="M 20.515625 5.171875 
L 29 5.171875 
L 29 0 
L 2.875 0 
L 2.875 5.171875 
L 11.53125 5.171875 
L 11.53125 70.796875 
L 2.875 70.796875 
L 2.875 75.984375 
L 20.515625 75.984375 
z
" id="DejaVuSerif-108"/>
      <path d="M 52.484375 5.171875 
L 61.078125 5.171875 
L 61.078125 0 
L 43.5 0 
L 43.5 8.109375 
Q 40.875 3.21875 36.796875 0.890625 
Q 32.71875 -1.421875 26.703125 -1.421875 
Q 17.140625 -1.421875 11.0625 6.171875 
Q 4.984375 13.765625 4.984375 25.984375 
Q 4.984375 38.1875 11.03125 45.75 
Q 17.09375 53.328125 26.703125 53.328125 
Q 32.71875 53.328125 36.796875 51 
Q 40.875 48.6875 43.5 43.796875 
L 43.5 70.796875 
L 35.015625 70.796875 
L 35.015625 75.984375 
L 52.484375 75.984375 
z
M 43.5 23.390625 
L 43.5 28.515625 
Q 43.5 37.84375 39.90625 42.765625 
Q 36.328125 47.703125 29.5 47.703125 
Q 22.5625 47.703125 19.015625 42.234375 
Q 15.484375 36.765625 15.484375 25.984375 
Q 15.484375 15.234375 19.015625 9.71875 
Q 22.5625 4.203125 29.5 4.203125 
Q 36.328125 4.203125 39.90625 9.109375 
Q 43.5 14.015625 43.5 23.390625 
z
" id="DejaVuSerif-100"/>
     </defs>
     <g style="fill:#262626;" transform="translate(327.9205 227.890813)scale(0.088 -0.088)">
      <use xlink:href="#DejaVuSerif-86"/>
      <use x="72.076172" xlink:href="#DejaVuSerif-97"/>
      <use x="131.695312" xlink:href="#DejaVuSerif-108"/>
      <use x="163.677734" xlink:href="#DejaVuSerif-105"/>
      <use x="195.660156" xlink:href="#DejaVuSerif-100"/>
      <use x="259.673828" xlink:href="#DejaVuSerif-97"/>
      <use x="319.292969" xlink:href="#DejaVuSerif-116"/>
      <use x="359.478516" xlink:href="#DejaVuSerif-105"/>
      <use x="391.460938" xlink:href="#DejaVuSerif-111"/>
      <use x="451.666016" xlink:href="#DejaVuSerif-110"/>
     </g>
    </g>
    <g id="PathCollection_3">
     <path d="M 393.57675 225.580813 
L 393.57675 218.509745 
M 393.57675 225.580813 
L 387.919896 229.116346 
M 393.57675 225.580813 
L 399.233604 229.116346 
" style="fill:#888b8d;stroke:#888b8d;stroke-width:2;"/>
     <path d="M 393.57675 224.810813 
L 393.57675 217.739745 
M 393.57675 224.810813 
L 387.919896 228.346346 
M 393.57675 224.810813 
L 399.233604 228.346346 
" style="fill:#888b8d;stroke:#888b8d;stroke-width:2;"/>
    </g>
    <g id="PathCollection_4">
     <path d="M 405.89675 225.580813 
L 405.89675 232.65188 
M 405.89675 225.580813 
L 411.553604 222.045279 
M 405.89675 225.580813 
L 400.239896 222.045279 
" style="fill:#888b8d;stroke:#888b8d;stroke-width:2;"/>
     <path d="M 405.89675 224.810813 
L 405.89675 231.88188 
M 405.89675 224.810813 
L 411.553604 221.275279 
M 405.89675 224.810813 
L 400.239896 221.275279 
" style="fill:#888b8d;stroke:#888b8d;stroke-width:2;"/>
    </g>
    <g id="text_13">
     <!-- Best Model -->
     <defs>
      <path d="M 24.703125 5.171875 
L 39.3125 5.171875 
Q 48.09375 5.171875 52.140625 8.984375 
Q 56.203125 12.796875 56.203125 21.09375 
Q 56.203125 29.34375 52.171875 33.125 
Q 48.140625 36.921875 39.3125 36.921875 
L 24.703125 36.921875 
z
M 24.703125 42.09375 
L 37.109375 42.09375 
Q 45.125 42.09375 48.796875 45.171875 
Q 52.484375 48.25 52.484375 54.890625 
Q 52.484375 61.578125 48.796875 64.625 
Q 45.125 67.671875 37.109375 67.671875 
L 24.703125 67.671875 
z
M 5.515625 0 
L 5.515625 5.171875 
L 14.796875 5.171875 
L 14.796875 67.671875 
L 5.515625 67.671875 
L 5.515625 72.90625 
L 41.5 72.90625 
Q 52.546875 72.90625 58.125 68.390625 
Q 63.71875 63.875 63.71875 54.890625 
Q 63.71875 48.390625 59.828125 44.53125 
Q 55.953125 40.671875 48.484375 39.796875 
Q 57.765625 38.625 62.578125 33.859375 
Q 67.390625 29.109375 67.390625 21.09375 
Q 67.390625 10.25 60.546875 5.125 
Q 53.71875 0 39.203125 0 
z
" id="DejaVuSerif-66"/>
      <path d="M 5.515625 0 
L 5.515625 5.171875 
L 14.796875 5.171875 
L 14.796875 67.671875 
L 4.984375 67.671875 
L 4.984375 72.90625 
L 26.21875 72.90625 
L 51.8125 21 
L 77.390625 72.90625 
L 97.3125 72.90625 
L 97.3125 67.671875 
L 87.59375 67.671875 
L 87.59375 5.171875 
L 96.921875 5.171875 
L 96.921875 0 
L 68.40625 0 
L 68.40625 5.171875 
L 77.6875 5.171875 
L 77.6875 61.53125 
L 52.6875 10.6875 
L 45.796875 10.6875 
L 20.796875 61.53125 
L 20.796875 5.171875 
L 30.078125 5.171875 
L 30.078125 0 
z
" id="DejaVuSerif-77"/>
     </defs>
     <g style="fill:#262626;" transform="translate(415.57675 227.890813)scale(0.088 -0.088)">
      <use xlink:href="#DejaVuSerif-66"/>
      <use x="73.486328" xlink:href="#DejaVuSerif-101"/>
      <use x="132.666016" xlink:href="#DejaVuSerif-115"/>
      <use x="183.984375" xlink:href="#DejaVuSerif-116"/>
      <use x="224.169922" xlink:href="#DejaVuSerif-32"/>
      <use x="255.957031" xlink:href="#DejaVuSerif-77"/>
      <use x="358.349609" xlink:href="#DejaVuSerif-111"/>
      <use x="418.554688" xlink:href="#DejaVuSerif-100"/>
      <use x="482.568359" xlink:href="#DejaVuSerif-101"/>
      <use x="541.748047" xlink:href="#DejaVuSerif-108"/>
     </g>
    </g>
   </g>
  </g>
  <g id="axes_3">
   <g id="patch_7">
    <path d="M 44.18499 434.89201 
L 644.99976 434.89201 
L 644.99976 242.487389 
L 44.18499 242.487389 
z
" style="fill:#ffffff;"/>
   </g>
   <g id="matplotlib.axis_3">
    <g id="xtick_1">
     <g id="text_14">
      <!-- 0 -->
      <g style="fill:#262626;" transform="translate(68.695252 449.878635)scale(0.088 -0.088)">
       <use xlink:href="#DejaVuSerif-48"/>
      </g>
     </g>
    </g>
    <g id="xtick_2">
     <g id="text_15">
      <!-- 25 -->
      <defs>
       <path d="M 50.296875 72.90625 
L 50.296875 64.890625 
L 16.890625 64.890625 
L 16.890625 44 
Q 19.4375 45.75 22.828125 46.625 
Q 26.21875 47.515625 30.421875 47.515625 
Q 42.234375 47.515625 49.0625 40.96875 
Q 55.90625 34.421875 55.90625 23.09375 
Q 55.90625 11.53125 49 5.046875 
Q 42.09375 -1.421875 29.59375 -1.421875 
Q 24.5625 -1.421875 19.28125 -0.1875 
Q 14.015625 1.03125 8.5 3.515625 
L 8.5 17.671875 
L 14.015625 17.671875 
Q 14.453125 10.75 18.421875 7.078125 
Q 22.40625 3.421875 29.59375 3.421875 
Q 37.3125 3.421875 41.453125 8.5 
Q 45.609375 13.578125 45.609375 23.09375 
Q 45.609375 32.5625 41.484375 37.609375 
Q 37.359375 42.671875 29.59375 42.671875 
Q 25.203125 42.671875 21.84375 41.109375 
Q 18.5 39.546875 15.921875 36.28125 
L 11.71875 36.28125 
L 11.71875 72.90625 
z
" id="DejaVuSerif-53"/>
      </defs>
      <g style="fill:#262626;" transform="translate(134.513245 449.878635)scale(0.088 -0.088)">
       <use xlink:href="#DejaVuSerif-50"/>
       <use x="63.623047" xlink:href="#DejaVuSerif-53"/>
      </g>
     </g>
    </g>
    <g id="xtick_3">
     <g id="text_16">
      <!-- 50 -->
      <g style="fill:#262626;" transform="translate(203.130739 449.878635)scale(0.088 -0.088)">
       <use xlink:href="#DejaVuSerif-53"/>
       <use x="63.623047" xlink:href="#DejaVuSerif-48"/>
      </g>
     </g>
    </g>
    <g id="xtick_4">
     <g id="text_17">
      <!-- 75 -->
      <defs>
       <path d="M 56.390625 67.921875 
L 27.875 0 
L 20.609375 0 
L 47.796875 64.890625 
L 14.109375 64.890625 
L 14.109375 55.90625 
L 8.40625 55.90625 
L 8.40625 72.90625 
L 56.390625 72.90625 
z
" id="DejaVuSerif-55"/>
      </defs>
      <g style="fill:#262626;" transform="translate(271.748232 449.878635)scale(0.088 -0.088)">
       <use xlink:href="#DejaVuSerif-55"/>
       <use x="63.623047" xlink:href="#DejaVuSerif-53"/>
      </g>
     </g>
    </g>
    <g id="xtick_5">
     <g id="text_18">
      <!-- 100 -->
      <g style="fill:#262626;" transform="translate(337.566225 449.878635)scale(0.088 -0.088)">
       <use xlink:href="#DejaVuSerif-49"/>
       <use x="63.623047" xlink:href="#DejaVuSerif-48"/>
       <use x="127.246094" xlink:href="#DejaVuSerif-48"/>
      </g>
     </g>
    </g>
    <g id="xtick_6">
     <g id="text_19">
      <!-- 125 -->
      <g style="fill:#262626;" transform="translate(406.183718 449.878635)scale(0.088 -0.088)">
       <use xlink:href="#DejaVuSerif-49"/>
       <use x="63.623047" xlink:href="#DejaVuSerif-50"/>
       <use x="127.246094" xlink:href="#DejaVuSerif-53"/>
      </g>
     </g>
    </g>
    <g id="xtick_7">
     <g id="text_20">
      <!-- 150 -->
      <g style="fill:#262626;" transform="translate(474.801211 449.878635)scale(0.088 -0.088)">
       <use xlink:href="#DejaVuSerif-49"/>
       <use x="63.623047" xlink:href="#DejaVuSerif-53"/>
       <use x="127.246094" xlink:href="#DejaVuSerif-48"/>
      </g>
     </g>
    </g>
    <g id="xtick_8">
     <g id="text_21">
      <!-- 175 -->
      <g style="fill:#262626;" transform="translate(543.418704 449.878635)scale(0.088 -0.088)">
       <use xlink:href="#DejaVuSerif-49"/>
       <use x="63.623047" xlink:href="#DejaVuSerif-55"/>
       <use x="127.246094" xlink:href="#DejaVuSerif-53"/>
      </g>
     </g>
    </g>
    <g id="xtick_9">
     <g id="text_22">
      <!-- 200 -->
      <g style="fill:#262626;" transform="translate(612.036197 449.878635)scale(0.088 -0.088)">
       <use xlink:href="#DejaVuSerif-50"/>
       <use x="63.623047" xlink:href="#DejaVuSerif-48"/>
       <use x="127.246094" xlink:href="#DejaVuSerif-48"/>
      </g>
     </g>
    </g>
    <g id="text_23">
     <!-- Epoch -->
     <defs>
      <path d="M 5.515625 0 
L 5.515625 5.171875 
L 14.796875 5.171875 
L 14.796875 67.671875 
L 5.515625 67.671875 
L 5.515625 72.90625 
L 64.203125 72.90625 
L 64.203125 56.6875 
L 58.203125 56.6875 
L 58.203125 66.890625 
L 24.703125 66.890625 
L 24.703125 42.484375 
L 48.578125 42.484375 
L 48.578125 51.609375 
L 54.59375 51.609375 
L 54.59375 27.390625 
L 48.578125 27.390625 
L 48.578125 36.53125 
L 24.703125 36.53125 
L 24.703125 6 
L 58.984375 6 
L 58.984375 16.21875 
L 64.984375 16.21875 
L 64.984375 0 
z
" id="DejaVuSerif-69"/>
      <path d="M 20.515625 28.515625 
L 20.515625 23.390625 
Q 20.515625 14.015625 24.09375 9.109375 
Q 27.6875 4.203125 34.515625 4.203125 
Q 41.40625 4.203125 44.9375 9.71875 
Q 48.484375 15.234375 48.484375 25.984375 
Q 48.484375 36.765625 44.9375 42.234375 
Q 41.40625 47.703125 34.515625 47.703125 
Q 27.6875 47.703125 24.09375 42.765625 
Q 20.515625 37.84375 20.515625 28.515625 
z
M 11.53125 46.6875 
L 2.875 46.6875 
L 2.875 51.90625 
L 20.515625 51.90625 
L 20.515625 43.796875 
Q 23.140625 48.6875 27.21875 51 
Q 31.296875 53.328125 37.3125 53.328125 
Q 46.875 53.328125 52.921875 45.75 
Q 58.984375 38.1875 58.984375 25.984375 
Q 58.984375 13.765625 52.921875 6.171875 
Q 46.875 -1.421875 37.3125 -1.421875 
Q 31.296875 -1.421875 27.21875 0.890625 
Q 23.140625 3.21875 20.515625 8.109375 
L 20.515625 -15.578125 
L 29 -15.578125 
L 29 -20.796875 
L 2.875 -20.796875 
L 2.875 -15.578125 
L 11.53125 -15.578125 
z
" id="DejaVuSerif-112"/>
      <path d="M 4.109375 0 
L 4.109375 5.171875 
L 12.203125 5.171875 
L 12.203125 70.796875 
L 3.609375 70.796875 
L 3.609375 75.984375 
L 21.1875 75.984375 
L 21.1875 42.671875 
Q 23.6875 47.953125 27.65625 50.640625 
Q 31.640625 53.328125 36.921875 53.328125 
Q 45.515625 53.328125 49.5625 48.390625 
Q 53.609375 43.453125 53.609375 33.015625 
L 53.609375 5.171875 
L 61.625 5.171875 
L 61.625 0 
L 36.8125 0 
L 36.8125 5.171875 
L 44.578125 5.171875 
L 44.578125 30.171875 
Q 44.578125 39.703125 42.25 43.1875 
Q 39.9375 46.6875 33.984375 46.6875 
Q 27.734375 46.6875 24.453125 42.140625 
Q 21.1875 37.59375 21.1875 28.90625 
L 21.1875 5.171875 
L 29 5.171875 
L 29 0 
z
" id="DejaVuSerif-104"/>
     </defs>
     <g style="fill:#262626;" transform="translate(329.346375 463.00326)scale(0.096 -0.096)">
      <use xlink:href="#DejaVuSerif-69"/>
      <use x="72.998047" xlink:href="#DejaVuSerif-112"/>
      <use x="137.011719" xlink:href="#DejaVuSerif-111"/>
      <use x="197.216797" xlink:href="#DejaVuSerif-99"/>
      <use x="253.222656" xlink:href="#DejaVuSerif-104"/>
     </g>
    </g>
   </g>
   <g id="matplotlib.axis_4">
    <g id="ytick_9">
     <g id="text_24">
      <!-- 0.0 -->
      <g style="fill:#262626;" transform="translate(21.89024 430.433393)scale(0.088 -0.088)">
       <use xlink:href="#DejaVuSerif-48"/>
       <use x="63.623047" xlink:href="#DejaVuSerif-46"/>
       <use x="95.410156" xlink:href="#DejaVuSerif-48"/>
      </g>
     </g>
    </g>
    <g id="ytick_10">
     <g id="text_25">
      <!-- 0.1 -->
      <g style="fill:#262626;" transform="translate(21.89024 388.627773)scale(0.088 -0.088)">
       <use xlink:href="#DejaVuSerif-48"/>
       <use x="63.623047" xlink:href="#DejaVuSerif-46"/>
       <use x="95.410156" xlink:href="#DejaVuSerif-49"/>
      </g>
     </g>
    </g>
    <g id="ytick_11">
     <g id="text_26">
      <!-- 0.2 -->
      <g style="fill:#262626;" transform="translate(21.89024 346.822152)scale(0.088 -0.088)">
       <use xlink:href="#DejaVuSerif-48"/>
       <use x="63.623047" xlink:href="#DejaVuSerif-46"/>
       <use x="95.410156" xlink:href="#DejaVuSerif-50"/>
      </g>
     </g>
    </g>
    <g id="ytick_12">
     <g id="text_27">
      <!-- 0.3 -->
      <g style="fill:#262626;" transform="translate(21.89024 305.016532)scale(0.088 -0.088)">
       <use xlink:href="#DejaVuSerif-48"/>
       <use x="63.623047" xlink:href="#DejaVuSerif-46"/>
       <use x="95.410156" xlink:href="#DejaVuSerif-51"/>
      </g>
     </g>
    </g>
    <g id="ytick_13">
     <g id="text_28">
      <!-- 0.4 -->
      <g style="fill:#262626;" transform="translate(21.89024 263.210911)scale(0.088 -0.088)">
       <use xlink:href="#DejaVuSerif-48"/>
       <use x="63.623047" xlink:href="#DejaVuSerif-46"/>
       <use x="95.410156" xlink:href="#DejaVuSerif-52"/>
      </g>
     </g>
    </g>
    <g id="text_29">
     <!-- Loss -->
     <defs>
      <path d="M 5.515625 0 
L 5.515625 5.171875 
L 14.796875 5.171875 
L 14.796875 67.671875 
L 5.515625 67.671875 
L 5.515625 72.90625 
L 33.984375 72.90625 
L 33.984375 67.671875 
L 24.703125 67.671875 
L 24.703125 6 
L 58.015625 6 
L 58.015625 18.21875 
L 64.015625 18.21875 
L 64.015625 0 
z
" id="DejaVuSerif-76"/>
     </defs>
     <g style="fill:#262626;" transform="translate(15.89374 349.69295)rotate(-90)scale(0.096 -0.096)">
      <use xlink:href="#DejaVuSerif-76"/>
      <use x="66.40625" xlink:href="#DejaVuSerif-111"/>
      <use x="126.611328" xlink:href="#DejaVuSerif-115"/>
      <use x="177.929688" xlink:href="#DejaVuSerif-115"/>
     </g>
    </g>
   </g>
   <g id="line2d_9">
    <path clip-path="url(#p5c79f125bd)" d="M 71.494752 251.233054 
L 74.239452 337.973822 
L 76.984152 355.8837 
L 79.728851 365.723835 
L 82.473551 371.438756 
L 85.218251 374.894354 
L 87.962951 380.117874 
L 90.70765 381.245293 
L 93.45235 386.357974 
L 96.19705 386.599755 
L 98.94175 389.036769 
L 101.686449 390.411052 
L 104.431149 392.866876 
L 107.175849 393.927396 
L 109.920548 394.806276 
L 112.665248 396.926285 
L 115.409948 397.944454 
L 118.154648 399.257547 
L 120.899347 399.913276 
L 126.388747 400.92843 
L 129.133447 401.723364 
L 131.878146 402.801507 
L 134.622846 403.487642 
L 137.367546 411.748336 
L 140.112245 413.31735 
L 142.856945 414.731779 
L 145.601645 413.958858 
L 148.346345 415.841864 
L 151.091044 416.461219 
L 153.835744 416.700987 
L 156.580444 416.767348 
L 159.325144 417.696643 
L 162.069843 416.324658 
L 164.814543 420.17256 
L 167.559243 421.078542 
L 170.303942 420.911464 
L 173.048642 421.894686 
L 175.793342 421.323418 
L 178.538042 421.902866 
L 181.282741 421.489166 
L 184.027441 422.229194 
L 186.772141 421.869033 
L 189.51684 422.142978 
L 192.26154 423.316859 
L 195.00624 423.094998 
L 197.75094 423.768061 
L 203.240339 423.93725 
L 205.985039 423.987584 
L 211.474438 424.374946 
L 214.219138 423.925696 
L 216.963838 424.549827 
L 230.687336 425.016234 
L 233.432036 425.325742 
L 236.176736 425.321553 
L 238.921436 425.060457 
L 241.666135 425.245294 
L 244.410835 424.809923 
L 247.155535 425.283179 
L 249.900234 425.158592 
L 255.389634 425.454764 
L 258.134334 425.273039 
L 263.623733 425.59806 
L 266.368433 425.477516 
L 269.113133 425.781291 
L 271.857832 425.194554 
L 274.602532 425.484626 
L 280.091931 425.319685 
L 282.836631 425.689539 
L 293.81543 425.546171 
L 299.30483 425.68596 
L 302.049529 426.021434 
L 304.794229 425.74271 
L 310.283628 425.749744 
L 313.028328 425.921725 
L 315.773028 425.658125 
L 318.517728 425.829136 
L 324.007127 425.709679 
L 326.751827 425.976118 
L 329.496527 425.681101 
L 334.985926 425.915044 
L 337.730626 425.682129 
L 340.475325 425.651638 
L 345.964725 425.99614 
L 351.454124 425.783734 
L 367.922323 425.828029 
L 370.667022 426.146345 
L 373.411722 425.446438 
L 381.645821 425.747407 
L 389.87992 425.794555 
L 392.62462 426.021226 
L 395.36932 426.007196 
L 398.11402 425.683097 
L 403.603419 425.732956 
L 406.348119 425.848121 
L 409.092819 425.704996 
L 411.837518 425.711152 
L 414.582218 425.577213 
L 417.326918 426.040196 
L 420.071617 425.800072 
L 422.816317 425.923953 
L 425.561017 425.782374 
L 428.305717 425.956488 
L 431.050416 425.880145 
L 433.795116 425.979386 
L 436.539816 425.836758 
L 442.029215 425.864321 
L 444.773915 425.707112 
L 447.518615 425.708295 
L 450.263314 425.955986 
L 453.008014 425.706486 
L 455.752714 425.576999 
L 458.497414 425.658725 
L 461.242113 425.98037 
L 463.986813 425.649748 
L 466.731513 426.097613 
L 469.476213 425.703828 
L 472.220912 425.90535 
L 474.965612 425.711745 
L 480.455011 425.890014 
L 483.199711 425.859366 
L 485.944411 425.54135 
L 488.689111 425.765202 
L 496.92321 425.844674 
L 502.412609 425.70532 
L 505.157309 425.792213 
L 507.902009 426.06273 
L 510.646708 425.735669 
L 513.391408 425.915285 
L 516.136108 425.589973 
L 518.880808 425.934751 
L 521.625507 425.724704 
L 524.370207 425.986295 
L 529.859606 425.873965 
L 532.604306 425.96851 
L 535.349006 425.787047 
L 538.093706 425.931061 
L 543.583105 425.776001 
L 560.051303 426.013224 
L 562.796003 425.857095 
L 568.285403 425.969359 
L 571.030102 425.764913 
L 573.774802 426.013228 
L 576.519502 425.705791 
L 582.008901 425.698263 
L 587.498301 426.081756 
L 590.243 425.647393 
L 592.9877 425.764991 
L 595.7324 425.724102 
L 601.221799 426.053431 
L 603.966499 425.952469 
L 606.711199 425.686014 
L 612.200598 426.010276 
L 614.945298 425.806358 
L 617.689998 425.718502 
L 617.689998 425.718502 
" style="fill:none;stroke:#c8102e;stroke-linecap:round;stroke-width:1.2;"/>
   </g>
   <g id="line2d_10">
    <path clip-path="url(#p5c79f125bd)" d="M 71.494752 343.041489 
L 74.239452 365.496414 
L 76.984152 372.75668 
L 79.728851 370.645906 
L 82.473551 380.692719 
L 85.218251 382.817992 
L 87.962951 384.133789 
L 90.70765 386.58776 
L 93.45235 388.103409 
L 96.19705 387.84047 
L 98.94175 381.945199 
L 101.686449 381.728162 
L 104.431149 390.917917 
L 107.175849 392.429134 
L 109.920548 391.420272 
L 112.665248 391.699952 
L 115.409948 388.664399 
L 118.154648 388.650046 
L 120.899347 386.224794 
L 123.644047 388.494003 
L 126.388747 389.974468 
L 129.133447 389.779845 
L 131.878146 384.33898 
L 134.622846 389.556202 
L 137.367546 387.120599 
L 140.112245 385.29101 
L 142.856945 386.211705 
L 145.601645 388.677684 
L 148.346345 383.39769 
L 151.091044 382.582557 
L 153.835744 381.582737 
L 156.580444 380.272223 
L 159.325144 372.069688 
L 162.069843 377.2941 
L 164.814543 375.110705 
L 167.559243 370.129909 
L 170.303942 372.71179 
L 173.048642 368.344079 
L 175.793342 369.084408 
L 178.538042 367.337668 
L 181.282741 364.999192 
L 184.027441 362.164099 
L 186.772141 367.247533 
L 189.51684 360.350399 
L 192.26154 364.705034 
L 195.00624 361.689983 
L 197.75094 362.929838 
L 200.495639 361.658337 
L 203.240339 358.56711 
L 205.985039 356.990879 
L 208.729739 359.63305 
L 211.474438 358.305701 
L 214.219138 362.119452 
L 216.963838 357.26628 
L 219.708537 354.764248 
L 222.453237 354.14375 
L 225.197937 350.550256 
L 227.942637 347.784741 
L 230.687336 348.891764 
L 233.432036 349.066515 
L 236.176736 353.993843 
L 238.921436 347.665402 
L 241.666135 348.138684 
L 244.410835 349.06497 
L 247.155535 346.617571 
L 249.900234 347.686601 
L 252.644934 344.941312 
L 255.389634 345.052559 
L 258.134334 345.684009 
L 260.879033 348.437514 
L 263.623733 344.046286 
L 266.368433 341.430895 
L 269.113133 340.897798 
L 271.857832 345.293854 
L 274.602532 341.920218 
L 277.347232 342.464354 
L 280.091931 342.247561 
L 282.836631 340.673472 
L 285.581331 341.526506 
L 288.326031 340.67916 
L 291.07073 341.44617 
L 293.81543 341.97548 
L 296.56013 341.028169 
L 299.30483 341.108972 
L 302.049529 339.671398 
L 304.794229 339.16713 
L 307.538929 337.614714 
L 310.283628 336.863714 
L 313.028328 337.767182 
L 315.773028 337.945184 
L 318.517728 336.709515 
L 321.262427 337.662894 
L 324.007127 338.386085 
L 326.751827 336.381013 
L 329.496527 336.973111 
L 332.241226 337.135596 
L 334.985926 337.084376 
L 337.730626 337.254162 
L 340.475325 337.554712 
L 343.220025 338.141819 
L 345.964725 338.247983 
L 348.709425 337.759034 
L 351.454124 338.33395 
L 356.943524 337.756779 
L 359.688223 337.909819 
L 362.432923 337.950486 
L 367.922323 337.487034 
L 370.667022 337.432563 
L 373.411722 337.631291 
L 376.156422 338.064037 
L 378.901122 337.979472 
L 381.645821 337.559415 
L 398.11402 337.352993 
L 400.858719 337.616695 
L 409.092819 337.862301 
L 417.326918 337.827583 
L 425.561017 337.693742 
L 428.305717 337.690067 
L 433.795116 337.259688 
L 436.539816 337.207254 
L 439.284516 337.348141 
L 447.518615 337.129808 
L 450.263314 336.968943 
L 458.497414 337.229892 
L 461.242113 337.111126 
L 463.986813 337.208705 
L 466.731513 337.158122 
L 469.476213 337.270944 
L 480.455011 337.138299 
L 485.944411 337.170138 
L 491.43381 337.196016 
L 494.17851 337.007623 
L 499.66791 336.925848 
L 502.412609 337.060349 
L 505.157309 336.962814 
L 516.136108 337.069781 
L 518.880808 336.956366 
L 521.625507 337.070989 
L 524.370207 337.029108 
L 529.859606 337.078845 
L 543.583105 336.792255 
L 546.327805 336.952466 
L 557.306604 336.8605 
L 565.540703 336.956192 
L 571.030102 336.96667 
L 573.774802 336.677134 
L 576.519502 336.735504 
L 582.008901 336.651898 
L 590.243 336.524093 
L 592.9877 336.739554 
L 603.966499 336.525059 
L 606.711199 336.677614 
L 609.455899 336.469442 
L 612.200598 336.516219 
L 614.945298 336.715421 
L 617.689998 336.780762 
L 617.689998 336.780762 
" style="fill:none;stroke:#00b388;stroke-linecap:round;stroke-width:1.2;"/>
   </g>
   <g id="patch_8">
    <path d="M 44.18499 434.89201 
L 44.18499 242.487389 
" style="fill:none;stroke:#262626;stroke-linecap:square;stroke-linejoin:miter;"/>
   </g>
   <g id="patch_9">
    <path d="M 644.99976 434.89201 
L 644.99976 242.487389 
" style="fill:none;stroke:#262626;stroke-linecap:square;stroke-linejoin:miter;"/>
   </g>
   <g id="patch_10">
    <path d="M 44.18499 434.89201 
L 644.99976 434.89201 
" style="fill:none;stroke:#262626;stroke-linecap:square;stroke-linejoin:miter;"/>
   </g>
   <g id="patch_11">
    <path d="M 44.18499 242.487389 
L 644.99976 242.487389 
" style="fill:none;stroke:#262626;stroke-linecap:square;stroke-linejoin:miter;"/>
   </g>
   <g id="PathCollection_5">
    <g clip-path="url(#p5c79f125bd)">
     <use style="fill:#888b8d;stroke:#888b8d;stroke-width:2;" x="107.175849" xlink:href="#mff33342a5f" y="393.927396"/>
    </g>
   </g>
   <g id="PathCollection_6">
    <g clip-path="url(#p5c79f125bd)">
     <use style="fill:#888b8d;stroke:#888b8d;stroke-width:2;" x="107.175849" xlink:href="#maeb722954e" y="392.429134"/>
    </g>
   </g>
  </g>
 </g>
 <defs>
  <clipPath id="p8650689a17">
   <rect height="192.404621" width="600.81477" x="44.18499" y="16.15824"/>
  </clipPath>
  <clipPath id="p5c79f125bd">
   <rect height="192.404621" width="600.81477" x="44.18499" y="242.487389"/>
  </clipPath>
 </defs>
</svg>
