<?xml version="1.0" encoding="utf-8" standalone="no"?>
<!DOCTYPE svg PUBLIC "-//W3C//DTD SVG 1.1//EN"
  "http://www.w3.org/Graphics/SVG/1.1/DTD/svg11.dtd">
<!-- Created with matplotlib (https://matplotlib.org/) -->
<svg height="468pt" version="1.1" viewBox="0 0 648 468" width="648pt" xmlns="http://www.w3.org/2000/svg" xmlns:xlink="http://www.w3.org/1999/xlink">
 <defs>
  <style type="text/css">
*{stroke-linecap:butt;stroke-linejoin:round;}
  </style>
 </defs>
 <g id="figure_1">
  <g id="patch_1">
   <path d="M 0 468 
L 648 468 
L 648 0 
L 0 0 
z
" style="fill:#ffffff;"/>
  </g>
  <g id="axes_1">
   <g id="patch_2">
    <path d="M 44.18499 207.14851 
L 644.99976 207.14851 
L 644.99976 16.29474 
L 44.18499 16.29474 
z
" style="fill:#ffffff;"/>
   </g>
   <g id="matplotlib.axis_1"/>
   <g id="matplotlib.axis_2">
    <g id="ytick_1">
     <g id="text_1">
      <!-- 0.75 -->
      <defs>
       <path d="M 31.78125 3.421875 
Q 39.265625 3.421875 42.96875 11.625 
Q 46.6875 19.828125 46.6875 36.375 
Q 46.6875 52.984375 42.96875 61.1875 
Q 39.265625 69.390625 31.78125 69.390625 
Q 24.3125 69.390625 20.59375 61.1875 
Q 16.890625 52.984375 16.890625 36.375 
Q 16.890625 19.828125 20.59375 11.625 
Q 24.3125 3.421875 31.78125 3.421875 
z
M 31.78125 -1.421875 
Q 19.921875 -1.421875 13.25 8.53125 
Q 6.59375 18.5 6.59375 36.375 
Q 6.59375 54.296875 13.25 64.25 
Q 19.921875 74.21875 31.78125 74.21875 
Q 43.703125 74.21875 50.34375 64.25 
Q 56.984375 54.296875 56.984375 36.375 
Q 56.984375 18.5 50.34375 8.53125 
Q 43.703125 -1.421875 31.78125 -1.421875 
z
" id="DejaVuSerif-48"/>
       <path d="M 9.421875 5.078125 
Q 9.421875 7.8125 11.28125 9.71875 
Q 13.140625 11.625 15.921875 11.625 
Q 18.609375 11.625 20.5 9.71875 
Q 22.40625 7.8125 22.40625 5.078125 
Q 22.40625 2.390625 20.5 0.484375 
Q 18.609375 -1.421875 15.921875 -1.421875 
Q 13.140625 -1.421875 11.28125 0.453125 
Q 9.421875 2.34375 9.421875 5.078125 
z
" id="DejaVuSerif-46"/>
       <path d="M 56.390625 67.921875 
L 27.875 0 
L 20.609375 0 
L 47.796875 64.890625 
L 14.109375 64.890625 
L 14.109375 55.90625 
L 8.40625 55.90625 
L 8.40625 72.90625 
L 56.390625 72.90625 
z
" id="DejaVuSerif-55"/>
       <path d="M 50.296875 72.90625 
L 50.296875 64.890625 
L 16.890625 64.890625 
L 16.890625 44 
Q 19.4375 45.75 22.828125 46.625 
Q 26.21875 47.515625 30.421875 47.515625 
Q 42.234375 47.515625 49.0625 40.96875 
Q 55.90625 34.421875 55.90625 23.09375 
Q 55.90625 11.53125 49 5.046875 
Q 42.09375 -1.421875 29.59375 -1.421875 
Q 24.5625 -1.421875 19.28125 -0.1875 
Q 14.015625 1.03125 8.5 3.515625 
L 8.5 17.671875 
L 14.015625 17.671875 
Q 14.453125 10.75 18.421875 7.078125 
Q 22.40625 3.421875 29.59375 3.421875 
Q 37.3125 3.421875 41.453125 8.5 
Q 45.609375 13.578125 45.609375 23.09375 
Q 45.609375 32.5625 41.484375 37.609375 
Q 37.359375 42.671875 29.59375 42.671875 
Q 25.203125 42.671875 21.84375 41.109375 
Q 18.5 39.546875 15.921875 36.28125 
L 11.71875 36.28125 
L 11.71875 72.90625 
z
" id="DejaVuSerif-53"/>
      </defs>
      <g style="fill:#262626;" transform="translate(16.29124 186.940582)scale(0.088 -0.088)">
       <use xlink:href="#DejaVuSerif-48"/>
       <use x="63.623047" xlink:href="#DejaVuSerif-46"/>
       <use x="95.410156" xlink:href="#DejaVuSerif-55"/>
       <use x="159.033203" xlink:href="#DejaVuSerif-53"/>
      </g>
     </g>
    </g>
    <g id="ytick_2">
     <g id="text_2">
      <!-- 0.80 -->
      <defs>
       <path d="M 46.578125 19.921875 
Q 46.578125 27.734375 42.6875 32.046875 
Q 38.8125 36.375 31.78125 36.375 
Q 24.75 36.375 20.875 32.046875 
Q 17 27.734375 17 19.921875 
Q 17 12.0625 20.875 7.734375 
Q 24.75 3.421875 31.78125 3.421875 
Q 38.8125 3.421875 42.6875 7.734375 
Q 46.578125 12.0625 46.578125 19.921875 
z
M 44.578125 55.328125 
Q 44.578125 61.96875 41.203125 65.671875 
Q 37.84375 69.390625 31.78125 69.390625 
Q 25.78125 69.390625 22.390625 65.671875 
Q 19 61.96875 19 55.328125 
Q 19 48.640625 22.390625 44.921875 
Q 25.78125 41.21875 31.78125 41.21875 
Q 37.84375 41.21875 41.203125 44.921875 
Q 44.578125 48.640625 44.578125 55.328125 
z
M 39.3125 38.8125 
Q 47.609375 37.703125 52.25 32.6875 
Q 56.890625 27.6875 56.890625 19.921875 
Q 56.890625 9.671875 50.390625 4.125 
Q 43.890625 -1.421875 31.78125 -1.421875 
Q 19.734375 -1.421875 13.203125 4.125 
Q 6.6875 9.671875 6.6875 19.921875 
Q 6.6875 27.6875 11.328125 32.6875 
Q 15.96875 37.703125 24.3125 38.8125 
Q 16.9375 40.140625 13 44.40625 
Q 9.078125 48.6875 9.078125 55.328125 
Q 9.078125 64.109375 15.125 69.15625 
Q 21.1875 74.21875 31.78125 74.21875 
Q 42.390625 74.21875 48.4375 69.15625 
Q 54.5 64.109375 54.5 55.328125 
Q 54.5 48.6875 50.5625 44.40625 
Q 46.625 40.140625 39.3125 38.8125 
z
" id="DejaVuSerif-56"/>
      </defs>
      <g style="fill:#262626;" transform="translate(16.29124 152.177271)scale(0.088 -0.088)">
       <use xlink:href="#DejaVuSerif-48"/>
       <use x="63.623047" xlink:href="#DejaVuSerif-46"/>
       <use x="95.410156" xlink:href="#DejaVuSerif-56"/>
       <use x="159.033203" xlink:href="#DejaVuSerif-48"/>
      </g>
     </g>
    </g>
    <g id="ytick_3">
     <g id="text_3">
      <!-- 0.85 -->
      <g style="fill:#262626;" transform="translate(16.29124 117.41396)scale(0.088 -0.088)">
       <use xlink:href="#DejaVuSerif-48"/>
       <use x="63.623047" xlink:href="#DejaVuSerif-46"/>
       <use x="95.410156" xlink:href="#DejaVuSerif-56"/>
       <use x="159.033203" xlink:href="#DejaVuSerif-53"/>
      </g>
     </g>
    </g>
    <g id="ytick_4">
     <g id="text_4">
      <!-- 0.90 -->
      <defs>
       <path d="M 46.78125 32.671875 
Q 43.5 29 39.25 27.1875 
Q 35.015625 25.390625 29.6875 25.390625 
Q 18.84375 25.390625 12.5625 31.9375 
Q 6.296875 38.484375 6.296875 49.8125 
Q 6.296875 60.890625 13.109375 67.546875 
Q 19.921875 74.21875 31.296875 74.21875 
Q 43.65625 74.21875 50.265625 65.015625 
Q 56.890625 55.8125 56.890625 38.71875 
Q 56.890625 19.578125 49.015625 9.078125 
Q 41.15625 -1.421875 26.90625 -1.421875 
Q 23.046875 -1.421875 18.796875 -0.6875 
Q 14.546875 0.046875 10.109375 1.515625 
L 10.109375 13.625 
L 15.578125 13.625 
Q 16.21875 8.6875 19.390625 6.046875 
Q 22.5625 3.421875 27.875 3.421875 
Q 37.359375 3.421875 41.984375 10.5625 
Q 46.625 17.71875 46.78125 32.671875 
z
M 30.90625 69.390625 
Q 23.96875 69.390625 20.28125 64.328125 
Q 16.609375 59.28125 16.609375 49.8125 
Q 16.609375 40.328125 20.28125 35.25 
Q 23.96875 30.171875 30.90625 30.171875 
Q 37.84375 30.171875 41.53125 35.078125 
Q 45.21875 39.984375 45.21875 49.21875 
Q 45.21875 58.9375 41.5 64.15625 
Q 37.796875 69.390625 30.90625 69.390625 
z
" id="DejaVuSerif-57"/>
      </defs>
      <g style="fill:#262626;" transform="translate(16.29124 82.650648)scale(0.088 -0.088)">
       <use xlink:href="#DejaVuSerif-48"/>
       <use x="63.623047" xlink:href="#DejaVuSerif-46"/>
       <use x="95.410156" xlink:href="#DejaVuSerif-57"/>
       <use x="159.033203" xlink:href="#DejaVuSerif-48"/>
      </g>
     </g>
    </g>
    <g id="ytick_5">
     <g id="text_5">
      <!-- 0.95 -->
      <g style="fill:#262626;" transform="translate(16.29124 47.887337)scale(0.088 -0.088)">
       <use xlink:href="#DejaVuSerif-48"/>
       <use x="63.623047" xlink:href="#DejaVuSerif-46"/>
       <use x="95.410156" xlink:href="#DejaVuSerif-57"/>
       <use x="159.033203" xlink:href="#DejaVuSerif-53"/>
      </g>
     </g>
    </g>
    <g id="text_6">
     <!-- Accuracy -->
     <defs>
      <path d="M 20.015625 26.421875 
L 46.78125 26.421875 
L 33.40625 61.078125 
z
M -0.59375 0 
L -0.59375 5.171875 
L 5.8125 5.171875 
L 31.78125 72.90625 
L 39.984375 72.90625 
L 66.015625 5.171875 
L 73.1875 5.171875 
L 73.1875 0 
L 46.6875 0 
L 46.6875 5.171875 
L 54.78125 5.171875 
L 48.6875 21.1875 
L 18.015625 21.1875 
L 11.921875 5.171875 
L 19.921875 5.171875 
L 19.921875 0 
z
" id="DejaVuSerif-65"/>
      <path d="M 51.421875 15.578125 
Q 49.515625 7.28125 44.09375 2.921875 
Q 38.671875 -1.421875 30.078125 -1.421875 
Q 18.75 -1.421875 11.859375 6.078125 
Q 4.984375 13.578125 4.984375 25.984375 
Q 4.984375 38.421875 11.859375 45.875 
Q 18.75 53.328125 30.078125 53.328125 
Q 35.015625 53.328125 39.890625 52.171875 
Q 44.78125 51.03125 49.703125 48.6875 
L 49.703125 35.40625 
L 44.484375 35.40625 
Q 43.453125 42.234375 40.015625 45.359375 
Q 36.578125 48.484375 30.171875 48.484375 
Q 22.90625 48.484375 19.1875 42.84375 
Q 15.484375 37.203125 15.484375 25.984375 
Q 15.484375 14.75 19.171875 9.078125 
Q 22.859375 3.421875 30.171875 3.421875 
Q 35.984375 3.421875 39.453125 6.4375 
Q 42.921875 9.46875 44.1875 15.578125 
z
" id="DejaVuSerif-99"/>
      <path d="M 35.40625 51.90625 
L 52.203125 51.90625 
L 52.203125 5.171875 
L 60.6875 5.171875 
L 60.6875 0 
L 43.21875 0 
L 43.21875 9.1875 
Q 40.71875 4 36.765625 1.28125 
Q 32.8125 -1.421875 27.59375 -1.421875 
Q 18.953125 -1.421875 14.875 3.484375 
Q 10.796875 8.40625 10.796875 18.890625 
L 10.796875 46.6875 
L 2.6875 46.6875 
L 2.6875 51.90625 
L 19.828125 51.90625 
L 19.828125 21.6875 
Q 19.828125 12.203125 22.140625 8.6875 
Q 24.46875 5.171875 30.421875 5.171875 
Q 36.671875 5.171875 39.9375 9.765625 
Q 43.21875 14.359375 43.21875 23.09375 
L 43.21875 46.6875 
L 35.40625 46.6875 
z
" id="DejaVuSerif-117"/>
      <path d="M 47.796875 52 
L 47.796875 39.015625 
L 42.625 39.015625 
Q 42.390625 42.875 40.484375 44.78125 
Q 38.578125 46.6875 34.90625 46.6875 
Q 28.265625 46.6875 24.71875 42.09375 
Q 21.1875 37.5 21.1875 28.90625 
L 21.1875 5.171875 
L 31.59375 5.171875 
L 31.59375 0 
L 4.109375 0 
L 4.109375 5.171875 
L 12.203125 5.171875 
L 12.203125 46.78125 
L 3.609375 46.78125 
L 3.609375 51.90625 
L 21.1875 51.90625 
L 21.1875 42.671875 
Q 23.828125 48.09375 27.96875 50.703125 
Q 32.125 53.328125 38.09375 53.328125 
Q 40.28125 53.328125 42.703125 52.984375 
Q 45.125 52.640625 47.796875 52 
z
" id="DejaVuSerif-114"/>
      <path d="M 39.796875 16.3125 
L 39.796875 27.296875 
L 28.21875 27.296875 
Q 21.53125 27.296875 18.25 24.40625 
Q 14.984375 21.53125 14.984375 15.578125 
Q 14.984375 10.15625 18.296875 6.984375 
Q 21.625 3.8125 27.296875 3.8125 
Q 32.90625 3.8125 36.34375 7.28125 
Q 39.796875 10.75 39.796875 16.3125 
z
M 48.78125 32.421875 
L 48.78125 5.171875 
L 56.78125 5.171875 
L 56.78125 0 
L 39.796875 0 
L 39.796875 5.609375 
Q 36.8125 2 32.90625 0.28125 
Q 29 -1.421875 23.78125 -1.421875 
Q 15.140625 -1.421875 10.0625 3.171875 
Q 4.984375 7.765625 4.984375 15.578125 
Q 4.984375 23.640625 10.796875 28.078125 
Q 16.609375 32.515625 27.203125 32.515625 
L 39.796875 32.515625 
L 39.796875 36.078125 
Q 39.796875 42 36.203125 45.234375 
Q 32.625 48.484375 26.125 48.484375 
Q 20.75 48.484375 17.578125 46.046875 
Q 14.40625 43.609375 13.625 38.8125 
L 8.984375 38.8125 
L 8.984375 49.3125 
Q 13.671875 51.3125 18.09375 52.3125 
Q 22.515625 53.328125 26.703125 53.328125 
Q 37.5 53.328125 43.140625 47.96875 
Q 48.78125 42.625 48.78125 32.421875 
z
" id="DejaVuSerif-97"/>
      <path d="M 21.578125 -9.515625 
L 25 -0.875 
L 5.609375 46.6875 
L -0.296875 46.6875 
L -0.296875 51.90625 
L 23.578125 51.90625 
L 23.578125 46.6875 
L 15.28125 46.6875 
L 29.890625 10.984375 
L 44.484375 46.6875 
L 36.71875 46.6875 
L 36.71875 51.90625 
L 56.203125 51.90625 
L 56.203125 46.6875 
L 50.390625 46.6875 
L 26.609375 -11.71875 
Q 24.171875 -17.78125 21.1875 -20 
Q 18.21875 -22.21875 12.796875 -22.21875 
Q 10.5 -22.21875 8.078125 -21.828125 
Q 5.671875 -21.4375 3.21875 -20.703125 
L 3.21875 -10.796875 
L 7.8125 -10.796875 
Q 8.109375 -14.109375 9.5 -15.546875 
Q 10.890625 -17 13.8125 -17 
Q 16.5 -17 18.140625 -15.5 
Q 19.78125 -14.015625 21.578125 -9.515625 
z
" id="DejaVuSerif-121"/>
     </defs>
     <g style="fill:#262626;" transform="translate(10.15824 134.211875)rotate(-90)scale(0.096 -0.096)">
      <use xlink:href="#DejaVuSerif-65"/>
      <use x="72.216797" xlink:href="#DejaVuSerif-99"/>
      <use x="128.222656" xlink:href="#DejaVuSerif-99"/>
      <use x="184.228516" xlink:href="#DejaVuSerif-117"/>
      <use x="248.632812" xlink:href="#DejaVuSerif-114"/>
      <use x="296.435547" xlink:href="#DejaVuSerif-97"/>
      <use x="356.054688" xlink:href="#DejaVuSerif-99"/>
      <use x="412.060547" xlink:href="#DejaVuSerif-121"/>
     </g>
    </g>
   </g>
   <g id="line2d_1">
    <path clip-path="url(#pf2d40731a2)" d="M 71.494752 198.473338 
L 74.239452 85.951396 
L 76.984152 74.35883 
L 79.728851 69.381381 
L 82.473551 63.183699 
L 85.218251 61.000044 
L 87.962951 59.458642 
L 90.70765 57.114444 
L 93.45235 55.894169 
L 96.19705 54.192225 
L 98.94175 53.325153 
L 101.686449 51.944335 
L 104.431149 51.141538 
L 107.175849 50.691944 
L 109.920548 48.476171 
L 112.665248 49.27901 
L 115.409948 48.219278 
L 118.154648 48.187161 
L 120.899347 47.673374 
L 123.644047 44.108901 
L 126.388747 45.586069 
L 129.133447 44.462145 
L 131.878146 44.333678 
L 134.622846 43.595115 
L 137.367546 43.14552 
L 142.856945 41.893129 
L 145.601645 41.957363 
L 148.346345 41.475693 
L 151.091044 42.728084 
L 153.835744 38.649783 
L 159.325144 36.369818 
L 162.069843 35.56698 
L 164.814543 35.37432 
L 167.559243 35.823915 
L 170.303942 35.117427 
L 173.048642 34.89265 
L 175.793342 34.186163 
L 178.538042 34.764183 
L 181.282741 32.227283 
L 184.027441 32.741111 
L 186.772141 31.97039 
L 189.51684 30.428988 
L 192.26154 31.874081 
L 195.00624 31.00705 
L 197.75094 31.39237 
L 200.495639 30.750115 
L 205.985039 30.493222 
L 208.729739 29.240831 
L 211.474438 30.204212 
L 214.219138 28.66281 
L 216.963838 29.722542 
L 219.708537 29.305064 
L 222.453237 28.694927 
L 225.197937 29.529841 
L 227.942637 28.759161 
L 230.687336 28.983937 
L 233.432036 28.052673 
L 236.176736 27.827897 
L 238.921436 28.630693 
L 241.666135 28.245374 
L 244.410835 27.571003 
L 247.155535 27.217759 
L 252.644934 27.731546 
L 255.389634 26.992983 
L 258.134334 27.410419 
L 260.879033 27.346227 
L 263.623733 27.410419 
L 266.368433 27.121409 
L 269.113133 27.378344 
L 274.602532 26.382846 
L 277.347232 27.60312 
L 282.836631 27.346227 
L 285.581331 26.960866 
L 288.326031 26.928749 
L 291.07073 27.089333 
L 293.81543 27.089333 
L 296.56013 26.671856 
L 299.30483 26.703973 
L 302.049529 27.217759 
L 304.794229 26.414962 
L 307.538929 26.158069 
L 310.283628 27.153526 
L 313.028328 25.901134 
L 315.773028 26.158069 
L 318.517728 26.832399 
L 321.262427 25.804825 
L 324.007127 25.997485 
L 326.751827 25.997485 
L 329.496527 26.992983 
L 334.985926 25.419464 
L 337.730626 27.057216 
L 340.475325 26.350729 
L 343.220025 27.057216 
L 345.964725 25.933251 
L 348.709425 26.768206 
L 351.454124 26.061718 
L 354.198824 26.479196 
L 356.943524 26.414962 
L 359.688223 26.960866 
L 362.432923 25.804825 
L 365.177623 26.543388 
L 367.922323 27.089333 
L 370.667022 25.901134 
L 373.411722 25.804825 
L 376.156422 26.414962 
L 378.901122 25.901134 
L 381.645821 26.093835 
L 384.390521 25.869059 
L 387.135221 26.286495 
L 392.62462 26.254378 
L 398.11402 26.992983 
L 400.858719 26.896632 
L 403.603419 26.350729 
L 409.092819 26.029602 
L 411.837518 26.479196 
L 414.582218 26.190186 
L 417.326918 26.992983 
L 420.071617 26.479196 
L 422.816317 26.222261 
L 425.561017 26.960866 
L 428.305717 25.644241 
L 433.795116 26.029602 
L 436.539816 25.965368 
L 439.284516 26.479196 
L 442.029215 26.061718 
L 444.773915 26.671856 
L 447.518615 26.382846 
L 450.263314 25.772708 
L 453.008014 26.382846 
L 455.752714 26.575505 
L 458.497414 26.318612 
L 461.242113 25.804825 
L 463.986813 26.607622 
L 466.731513 26.543388 
L 474.965612 25.580049 
L 477.710312 26.575505 
L 480.455011 27.057216 
L 483.199711 26.414962 
L 485.944411 26.447079 
L 488.689111 25.612124 
L 491.43381 26.125952 
L 494.17851 25.323114 
L 499.66791 26.768206 
L 502.412609 26.543388 
L 505.157309 26.158069 
L 507.902009 26.671856 
L 510.646708 25.708475 
L 516.136108 26.158069 
L 518.880808 26.703973 
L 521.625507 26.960866 
L 524.370207 26.286495 
L 527.114907 25.965368 
L 529.859606 26.639739 
L 532.604306 25.901134 
L 535.349006 25.644241 
L 540.838405 26.190186 
L 546.327805 25.676358 
L 549.072505 26.447079 
L 551.817204 26.222261 
L 554.561904 26.447079 
L 557.306604 25.836942 
L 560.051303 26.639739 
L 562.796003 26.125952 
L 565.540703 26.414962 
L 568.285403 26.382846 
L 571.030102 26.575505 
L 573.774802 26.190186 
L 576.519502 26.190186 
L 579.264202 26.511271 
L 582.008901 24.969911 
L 584.753601 25.869059 
L 587.498301 25.515815 
L 590.243 26.671856 
L 592.9877 25.387348 
L 595.7324 26.768206 
L 598.4771 26.960866 
L 601.221799 26.479196 
L 606.711199 25.997485 
L 609.455899 25.933251 
L 612.200598 26.318612 
L 614.945298 26.125952 
L 617.689998 26.511271 
L 617.689998 26.511271 
" style="fill:none;stroke:#c8102e;stroke-linecap:round;stroke-width:1.2;"/>
   </g>
   <g id="line2d_2">
    <path clip-path="url(#pf2d40731a2)" d="M 71.494752 76.494414 
L 74.239452 71.099778 
L 76.984152 69.429991 
L 79.728851 59.231586 
L 82.473551 60.721518 
L 85.218251 56.662694 
L 87.962951 53.554363 
L 90.70765 52.192858 
L 93.45235 53.554363 
L 96.19705 52.192858 
L 98.94175 53.06627 
L 101.686449 53.451589 
L 104.431149 49.778126 
L 107.175849 49.392766 
L 109.920548 49.444153 
L 112.665248 48.313847 
L 115.409948 48.211114 
L 118.154648 50.908432 
L 120.899347 47.774366 
L 126.388747 48.185421 
L 131.878146 49.521233 
L 134.622846 47.517515 
L 137.367546 48.236766 
L 140.112245 45.873422 
L 142.856945 45.102742 
L 145.601645 45.796341 
L 148.346345 45.513755 
L 151.091044 45.667916 
L 153.835744 43.176104 
L 156.580444 43.946742 
L 159.325144 43.561423 
L 162.069843 44.203636 
L 164.814543 43.201797 
L 167.559243 43.792623 
L 170.303942 43.61281 
L 175.793342 43.53573 
L 178.538042 44.53761 
L 181.282741 42.688011 
L 184.027441 42.405424 
L 186.772141 42.688011 
L 189.51684 41.943024 
L 192.26154 42.328385 
L 195.00624 41.891679 
L 197.75094 42.585237 
L 200.495639 42.174224 
L 203.240339 42.482504 
L 205.985039 42.302691 
L 208.729739 41.917331 
L 211.474438 41.994411 
L 214.219138 42.328385 
L 216.963838 42.302691 
L 219.708537 42.482504 
L 222.453237 41.788905 
L 227.942637 42.199917 
L 230.687336 41.788905 
L 233.432036 41.840292 
L 241.666135 41.634785 
L 244.410835 41.814598 
L 247.155535 41.634785 
L 249.900234 41.583398 
L 255.389634 42.020104 
L 258.134334 42.020104 
L 266.368433 41.660479 
L 269.113133 41.660479 
L 271.857832 41.840292 
L 274.602532 41.711824 
L 285.581331 41.943024 
L 288.326031 41.686131 
L 291.07073 41.686131 
L 293.81543 41.865985 
L 296.56013 41.788905 
L 299.30483 41.557705 
L 302.049529 41.917331 
L 304.794229 41.788905 
L 307.538929 41.943024 
L 315.773028 42.045798 
L 318.517728 41.788905 
L 329.496527 41.865985 
L 332.241226 41.917331 
L 337.730626 41.737518 
L 351.454124 41.840292 
L 356.943524 41.891679 
L 359.688223 41.763211 
L 367.922323 41.814598 
L 376.156422 41.737518 
L 381.645821 41.634785 
L 387.135221 41.891679 
L 395.36932 41.711824 
L 400.858719 41.814598 
L 406.348119 41.840292 
L 420.071617 41.891679 
L 422.816317 41.763211 
L 428.305717 41.865985 
L 442.029215 41.840292 
L 595.7324 41.865985 
L 598.4771 41.994411 
L 614.945298 41.917331 
L 617.689998 41.943024 
L 617.689998 41.943024 
" style="fill:none;stroke:#00b388;stroke-linecap:round;stroke-width:1.2;"/>
   </g>
   <g id="line2d_3"/>
   <g id="line2d_4"/>
   <g id="patch_3">
    <path d="M 44.18499 207.14851 
L 44.18499 16.29474 
" style="fill:none;stroke:#262626;stroke-linecap:square;stroke-linejoin:miter;"/>
   </g>
   <g id="patch_4">
    <path d="M 644.99976 207.14851 
L 644.99976 16.29474 
" style="fill:none;stroke:#262626;stroke-linecap:square;stroke-linejoin:miter;"/>
   </g>
   <g id="patch_5">
    <path d="M 44.18499 207.14851 
L 644.99976 207.14851 
" style="fill:none;stroke:#262626;stroke-linecap:square;stroke-linejoin:miter;"/>
   </g>
   <g id="patch_6">
    <path d="M 44.18499 16.29474 
L 644.99976 16.29474 
" style="fill:none;stroke:#262626;stroke-linecap:square;stroke-linejoin:miter;"/>
   </g>
   <g id="PathCollection_1">
    <defs>
     <path d="M 0 0 
L 0 7.071068 
M 0 0 
L 5.656854 -3.535534 
M 0 0 
L -5.656854 -3.535534 
" id="mfbf1222cfe" style="stroke:#888b8d;stroke-width:2;"/>
    </defs>
    <g clip-path="url(#pf2d40731a2)">
     <use style="fill:#888b8d;stroke:#888b8d;stroke-width:2;" x="123.644047" xlink:href="#mfbf1222cfe" y="44.108901"/>
    </g>
   </g>
   <g id="PathCollection_2">
    <defs>
     <path d="M 0 0 
L 0 -7.071068 
M 0 0 
L -5.656854 3.535534 
M 0 0 
L 5.656854 3.535534 
" id="m5b410fd50f" style="stroke:#888b8d;stroke-width:2;"/>
    </defs>
    <g clip-path="url(#pf2d40731a2)">
     <use style="fill:#888b8d;stroke:#888b8d;stroke-width:2;" x="123.644047" xlink:href="#m5b410fd50f" y="47.979914"/>
    </g>
   </g>
   <g id="text_7">
    <!-- Salinas 1D-CNN Training History -->
    <defs>
     <path d="M 9.28125 3.515625 
L 9.28125 20.125 
L 14.890625 20.0625 
Q 15.140625 11.765625 19.703125 7.78125 
Q 24.265625 3.8125 33.59375 3.8125 
Q 42.28125 3.8125 46.84375 7.25 
Q 51.421875 10.6875 51.421875 17.28125 
Q 51.421875 22.5625 48.65625 25.390625 
Q 45.90625 28.21875 37.015625 30.90625 
L 27.390625 33.796875 
Q 16.9375 36.96875 12.671875 41.703125 
Q 8.40625 46.4375 8.40625 54.6875 
Q 8.40625 63.96875 14.984375 69.09375 
Q 21.578125 74.21875 33.5 74.21875 
Q 38.578125 74.21875 44.625 73.109375 
Q 50.6875 72.015625 57.515625 69.921875 
L 57.515625 54.390625 
L 52 54.390625 
Q 51.171875 62.109375 46.84375 65.546875 
Q 42.53125 69 33.6875 69 
Q 25.984375 69 21.953125 65.84375 
Q 17.921875 62.703125 17.921875 56.6875 
Q 17.921875 51.46875 20.9375 48.484375 
Q 23.96875 45.515625 33.796875 42.578125 
L 42.828125 39.890625 
Q 52.734375 36.921875 56.953125 32.296875 
Q 61.1875 27.6875 61.1875 19.921875 
Q 61.1875 9.328125 54.390625 3.953125 
Q 47.609375 -1.421875 34.1875 -1.421875 
Q 28.171875 -1.421875 21.9375 -0.1875 
Q 15.71875 1.03125 9.28125 3.515625 
z
" id="DejaVuSerif-83"/>
     <path d="M 20.515625 5.171875 
L 29 5.171875 
L 29 0 
L 2.875 0 
L 2.875 5.171875 
L 11.53125 5.171875 
L 11.53125 70.796875 
L 2.875 70.796875 
L 2.875 75.984375 
L 20.515625 75.984375 
z
" id="DejaVuSerif-108"/>
     <path d="M 9.71875 68.015625 
Q 9.71875 70.265625 11.34375 71.921875 
Q 12.984375 73.578125 15.28125 73.578125 
Q 17.53125 73.578125 19.15625 71.921875 
Q 20.796875 70.265625 20.796875 68.015625 
Q 20.796875 65.71875 19.1875 64.109375 
Q 17.578125 62.5 15.28125 62.5 
Q 12.984375 62.5 11.34375 64.109375 
Q 9.71875 65.71875 9.71875 68.015625 
z
M 21.1875 5.171875 
L 29.6875 5.171875 
L 29.6875 0 
L 3.609375 0 
L 3.609375 5.171875 
L 12.203125 5.171875 
L 12.203125 46.6875 
L 3.609375 46.6875 
L 3.609375 51.90625 
L 21.1875 51.90625 
z
" id="DejaVuSerif-105"/>
     <path d="M 4.109375 0 
L 4.109375 5.171875 
L 12.203125 5.171875 
L 12.203125 46.6875 
L 3.609375 46.6875 
L 3.609375 51.90625 
L 21.1875 51.90625 
L 21.1875 42.671875 
Q 23.6875 47.953125 27.65625 50.640625 
Q 31.640625 53.328125 36.921875 53.328125 
Q 45.515625 53.328125 49.5625 48.390625 
Q 53.609375 43.453125 53.609375 33.015625 
L 53.609375 5.171875 
L 61.625 5.171875 
L 61.625 0 
L 36.8125 0 
L 36.8125 5.171875 
L 44.578125 5.171875 
L 44.578125 30.171875 
Q 44.578125 39.703125 42.234375 43.234375 
Q 39.890625 46.78125 33.984375 46.78125 
Q 27.734375 46.78125 24.453125 42.203125 
Q 21.1875 37.640625 21.1875 28.90625 
L 21.1875 5.171875 
L 29 5.171875 
L 29 0 
z
" id="DejaVuSerif-110"/>
     <path d="M 5.609375 2.875 
L 5.609375 14.984375 
L 10.796875 14.984375 
Q 10.984375 9.1875 14.421875 6.296875 
Q 17.875 3.421875 24.609375 3.421875 
Q 30.671875 3.421875 33.84375 5.6875 
Q 37.015625 7.953125 37.015625 12.3125 
Q 37.015625 15.71875 34.6875 17.8125 
Q 32.375 19.921875 24.90625 22.3125 
L 18.40625 24.515625 
Q 11.71875 26.65625 8.71875 29.875 
Q 5.71875 33.109375 5.71875 38.09375 
Q 5.71875 45.21875 10.9375 49.265625 
Q 16.15625 53.328125 25.390625 53.328125 
Q 29.5 53.328125 34.03125 52.25 
Q 38.578125 51.171875 43.40625 49.125 
L 43.40625 37.796875 
L 38.234375 37.796875 
Q 38.03125 42.828125 34.703125 45.65625 
Q 31.390625 48.484375 25.6875 48.484375 
Q 20.015625 48.484375 17.109375 46.484375 
Q 14.203125 44.484375 14.203125 40.484375 
Q 14.203125 37.203125 16.40625 35.21875 
Q 18.609375 33.25 25.203125 31.203125 
L 32.328125 29 
Q 39.703125 26.703125 42.9375 23.265625 
Q 46.1875 19.828125 46.1875 14.40625 
Q 46.1875 7.03125 40.546875 2.796875 
Q 34.90625 -1.421875 25 -1.421875 
Q 19.96875 -1.421875 15.1875 -0.34375 
Q 10.40625 0.734375 5.609375 2.875 
z
" id="DejaVuSerif-115"/>
     <path id="DejaVuSerif-32"/>
     <path d="M 14.203125 0 
L 14.203125 5.171875 
L 26.90625 5.171875 
L 26.90625 65.828125 
L 12.203125 56.296875 
L 12.203125 62.703125 
L 29.984375 74.21875 
L 36.71875 74.21875 
L 36.71875 5.171875 
L 49.421875 5.171875 
L 49.421875 0 
z
" id="DejaVuSerif-49"/>
     <path d="M 24.703125 5.171875 
L 33.796875 5.171875 
Q 48 5.171875 55.59375 13.28125 
Q 63.1875 21.390625 63.1875 36.53125 
Q 63.1875 51.65625 55.609375 59.65625 
Q 48.046875 67.671875 33.796875 67.671875 
L 24.703125 67.671875 
z
M 5.515625 0 
L 5.515625 5.171875 
L 14.796875 5.171875 
L 14.796875 67.671875 
L 5.515625 67.671875 
L 5.515625 72.90625 
L 34.515625 72.90625 
Q 53.375 72.90625 63.890625 63.28125 
Q 74.421875 53.65625 74.421875 36.53125 
Q 74.421875 19.34375 63.875 9.671875 
Q 53.328125 0 34.515625 0 
z
" id="DejaVuSerif-68"/>
     <path d="M 4.390625 30.609375 
L 29.390625 30.609375 
L 29.390625 23 
L 4.390625 23 
z
" id="DejaVuSerif-45"/>
     <path d="M 70.515625 19.28125 
Q 67.28125 9.078125 59.6875 3.828125 
Q 52.09375 -1.421875 40.484375 -1.421875 
Q 33.34375 -1.421875 27.234375 1.015625 
Q 21.140625 3.46875 16.40625 8.203125 
Q 10.9375 13.671875 8.265625 20.625 
Q 5.609375 27.59375 5.609375 36.375 
Q 5.609375 53.375 15.421875 63.796875 
Q 25.25 74.21875 41.3125 74.21875 
Q 47.265625 74.21875 54 72.65625 
Q 60.75 71.09375 68.5 67.921875 
L 68.5 51.125 
L 62.984375 51.125 
Q 61.1875 60.296875 55.734375 64.640625 
Q 50.296875 69 40.484375 69 
Q 28.8125 69 22.796875 60.71875 
Q 16.796875 52.4375 16.796875 36.375 
Q 16.796875 20.359375 22.796875 12.078125 
Q 28.8125 3.8125 40.484375 3.8125 
Q 48.640625 3.8125 53.90625 7.6875 
Q 59.1875 11.578125 61.53125 19.28125 
z
" id="DejaVuSerif-67"/>
     <path d="M 4.890625 0 
L 4.890625 5.171875 
L 14.703125 5.171875 
L 14.703125 67.671875 
L 4.890625 67.671875 
L 4.890625 72.90625 
L 23.578125 72.90625 
L 67.28125 15.375 
L 67.28125 67.671875 
L 57.515625 67.671875 
L 57.515625 72.90625 
L 83.109375 72.90625 
L 83.109375 67.671875 
L 73.296875 67.671875 
L 73.296875 -1.421875 
L 67.390625 -1.421875 
L 20.703125 60.015625 
L 20.703125 5.171875 
L 30.515625 5.171875 
L 30.515625 0 
z
" id="DejaVuSerif-78"/>
     <path d="M 19.09375 0 
L 19.09375 5.171875 
L 28.421875 5.171875 
L 28.421875 67.09375 
L 6.984375 67.09375 
L 6.984375 55.71875 
L 0.984375 55.71875 
L 0.984375 72.90625 
L 65.71875 72.90625 
L 65.71875 55.71875 
L 59.71875 55.71875 
L 59.71875 67.09375 
L 38.28125 67.09375 
L 38.28125 5.171875 
L 47.609375 5.171875 
L 47.609375 0 
z
" id="DejaVuSerif-84"/>
     <path d="M 52.484375 46.6875 
L 52.484375 1.125 
Q 52.484375 -10.0625 46.328125 -16.140625 
Q 40.1875 -22.21875 28.8125 -22.21875 
Q 23.6875 -22.21875 19 -21.28125 
Q 14.3125 -20.359375 10.015625 -18.5 
L 10.015625 -7.625 
L 14.703125 -7.625 
Q 15.578125 -12.703125 18.84375 -15.046875 
Q 22.125 -17.390625 28.21875 -17.390625 
Q 36.140625 -17.390625 39.8125 -12.921875 
Q 43.5 -8.453125 43.5 1.125 
L 43.5 8.109375 
Q 40.875 3.21875 36.796875 0.890625 
Q 32.71875 -1.421875 26.703125 -1.421875 
Q 17.140625 -1.421875 11.0625 6.171875 
Q 4.984375 13.765625 4.984375 25.984375 
Q 4.984375 38.1875 11.03125 45.75 
Q 17.09375 53.328125 26.703125 53.328125 
Q 32.71875 53.328125 36.796875 51 
Q 40.875 48.6875 43.5 43.796875 
L 43.5 51.90625 
L 61.078125 51.90625 
L 61.078125 46.6875 
z
M 43.5 28.515625 
Q 43.5 37.84375 39.90625 42.765625 
Q 36.328125 47.703125 29.5 47.703125 
Q 22.5625 47.703125 19.015625 42.234375 
Q 15.484375 36.765625 15.484375 25.984375 
Q 15.484375 15.234375 19.015625 9.71875 
Q 22.5625 4.203125 29.5 4.203125 
Q 36.328125 4.203125 39.90625 9.109375 
Q 43.5 14.015625 43.5 23.390625 
z
" id="DejaVuSerif-103"/>
     <path d="M 5.515625 0 
L 5.515625 5.171875 
L 14.796875 5.171875 
L 14.796875 67.671875 
L 5.515625 67.671875 
L 5.515625 72.90625 
L 33.984375 72.90625 
L 33.984375 67.671875 
L 24.703125 67.671875 
L 24.703125 42.484375 
L 62.5 42.484375 
L 62.5 67.671875 
L 53.21875 67.671875 
L 53.21875 72.90625 
L 81.6875 72.90625 
L 81.6875 67.671875 
L 72.40625 67.671875 
L 72.40625 5.171875 
L 81.6875 5.171875 
L 81.6875 0 
L 53.21875 0 
L 53.21875 5.171875 
L 62.5 5.171875 
L 62.5 36.53125 
L 24.703125 36.53125 
L 24.703125 5.171875 
L 33.984375 5.171875 
L 33.984375 0 
z
" id="DejaVuSerif-72"/>
     <path d="M 10.796875 46.6875 
L 2.875 46.6875 
L 2.875 51.90625 
L 10.796875 51.90625 
L 10.796875 68.015625 
L 19.828125 68.015625 
L 19.828125 51.90625 
L 36.71875 51.90625 
L 36.71875 46.6875 
L 19.828125 46.6875 
L 19.828125 13.71875 
Q 19.828125 7.125 21.09375 5.265625 
Q 22.359375 3.421875 25.78125 3.421875 
Q 29.296875 3.421875 30.90625 5.484375 
Q 32.515625 7.5625 32.625 12.203125 
L 39.40625 12.203125 
Q 39.015625 5.125 35.546875 1.84375 
Q 32.078125 -1.421875 25 -1.421875 
Q 17.234375 -1.421875 14.015625 2.015625 
Q 10.796875 5.46875 10.796875 13.71875 
z
" id="DejaVuSerif-116"/>
     <path d="M 30.078125 3.421875 
Q 37.3125 3.421875 40.984375 9.125 
Q 44.671875 14.84375 44.671875 25.984375 
Q 44.671875 37.109375 40.984375 42.796875 
Q 37.3125 48.484375 30.078125 48.484375 
Q 22.859375 48.484375 19.171875 42.796875 
Q 15.484375 37.109375 15.484375 25.984375 
Q 15.484375 14.84375 19.1875 9.125 
Q 22.90625 3.421875 30.078125 3.421875 
z
M 30.078125 -1.421875 
Q 18.75 -1.421875 11.859375 6.078125 
Q 4.984375 13.578125 4.984375 25.984375 
Q 4.984375 38.375 11.84375 45.84375 
Q 18.703125 53.328125 30.078125 53.328125 
Q 41.453125 53.328125 48.3125 45.84375 
Q 55.171875 38.375 55.171875 25.984375 
Q 55.171875 13.578125 48.3125 6.078125 
Q 41.453125 -1.421875 30.078125 -1.421875 
z
" id="DejaVuSerif-111"/>
    </defs>
    <g style="fill:#262626;" transform="translate(263.087625 10.29474)scale(0.096 -0.096)">
     <use xlink:href="#DejaVuSerif-83"/>
     <use x="68.505859" xlink:href="#DejaVuSerif-97"/>
     <use x="128.125" xlink:href="#DejaVuSerif-108"/>
     <use x="160.107422" xlink:href="#DejaVuSerif-105"/>
     <use x="192.089844" xlink:href="#DejaVuSerif-110"/>
     <use x="256.494141" xlink:href="#DejaVuSerif-97"/>
     <use x="316.113281" xlink:href="#DejaVuSerif-115"/>
     <use x="367.431641" xlink:href="#DejaVuSerif-32"/>
     <use x="399.21875" xlink:href="#DejaVuSerif-49"/>
     <use x="462.841797" xlink:href="#DejaVuSerif-68"/>
     <use x="543.033203" xlink:href="#DejaVuSerif-45"/>
     <use x="576.822266" xlink:href="#DejaVuSerif-67"/>
     <use x="653.335938" xlink:href="#DejaVuSerif-78"/>
     <use x="740.835938" xlink:href="#DejaVuSerif-78"/>
     <use x="828.335938" xlink:href="#DejaVuSerif-32"/>
     <use x="860.123047" xlink:href="#DejaVuSerif-84"/>
     <use x="926.822266" xlink:href="#DejaVuSerif-114"/>
     <use x="974.625" xlink:href="#DejaVuSerif-97"/>
     <use x="1034.244141" xlink:href="#DejaVuSerif-105"/>
     <use x="1066.226562" xlink:href="#DejaVuSerif-110"/>
     <use x="1130.630859" xlink:href="#DejaVuSerif-105"/>
     <use x="1162.613281" xlink:href="#DejaVuSerif-110"/>
     <use x="1227.017578" xlink:href="#DejaVuSerif-103"/>
     <use x="1291.03125" xlink:href="#DejaVuSerif-32"/>
     <use x="1322.818359" xlink:href="#DejaVuSerif-72"/>
     <use x="1410.025391" xlink:href="#DejaVuSerif-105"/>
     <use x="1442.007812" xlink:href="#DejaVuSerif-115"/>
     <use x="1493.326172" xlink:href="#DejaVuSerif-116"/>
     <use x="1533.511719" xlink:href="#DejaVuSerif-111"/>
     <use x="1593.716797" xlink:href="#DejaVuSerif-114"/>
     <use x="1641.519531" xlink:href="#DejaVuSerif-121"/>
    </g>
   </g>
  </g>
  <g id="axes_2">
   <g id="legend_1">
    <g id="line2d_5">
     <path d="M 223.119375 223.396583 
L 240.719375 223.396583 
" style="fill:none;stroke:#c8102e;stroke-linecap:round;stroke-width:1.2;"/>
    </g>
    <g id="line2d_6"/>
    <g id="text_8">
     <!-- Training -->
     <g style="fill:#262626;" transform="translate(247.759375 226.476583)scale(0.088 -0.088)">
      <use xlink:href="#DejaVuSerif-84"/>
      <use x="66.699219" xlink:href="#DejaVuSerif-114"/>
      <use x="114.501953" xlink:href="#DejaVuSerif-97"/>
      <use x="174.121094" xlink:href="#DejaVuSerif-105"/>
      <use x="206.103516" xlink:href="#DejaVuSerif-110"/>
      <use x="270.507812" xlink:href="#DejaVuSerif-105"/>
      <use x="302.490234" xlink:href="#DejaVuSerif-110"/>
      <use x="366.894531" xlink:href="#DejaVuSerif-103"/>
     </g>
    </g>
    <g id="line2d_7">
     <path d="M 303.2805 223.396583 
L 320.8805 223.396583 
" style="fill:none;stroke:#00b388;stroke-linecap:round;stroke-width:1.2;"/>
    </g>
    <g id="line2d_8"/>
    <g id="text_9">
     <!-- Validation -->
     <defs>
      <path d="M 17.484375 67.671875 
L 39.015625 11.71875 
L 60.5 67.671875 
L 52.296875 67.671875 
L 52.296875 72.90625 
L 73.6875 72.90625 
L 73.6875 67.671875 
L 66.609375 67.671875 
L 40.578125 0 
L 32.171875 0 
L 6.296875 67.671875 
L -0.984375 67.671875 
L -0.984375 72.90625 
L 25.59375 72.90625 
L 25.59375 67.671875 
z
" id="DejaVuSerif-86"/>
      <path d="M 52.484375 5.171875 
L 61.078125 5.171875 
L 61.078125 0 
L 43.5 0 
L 43.5 8.109375 
Q 40.875 3.21875 36.796875 0.890625 
Q 32.71875 -1.421875 26.703125 -1.421875 
Q 17.140625 -1.421875 11.0625 6.171875 
Q 4.984375 13.765625 4.984375 25.984375 
Q 4.984375 38.1875 11.03125 45.75 
Q 17.09375 53.328125 26.703125 53.328125 
Q 32.71875 53.328125 36.796875 51 
Q 40.875 48.6875 43.5 43.796875 
L 43.5 70.796875 
L 35.015625 70.796875 
L 35.015625 75.984375 
L 52.484375 75.984375 
z
M 43.5 23.390625 
L 43.5 28.515625 
Q 43.5 37.84375 39.90625 42.765625 
Q 36.328125 47.703125 29.5 47.703125 
Q 22.5625 47.703125 19.015625 42.234375 
Q 15.484375 36.765625 15.484375 25.984375 
Q 15.484375 15.234375 19.015625 9.71875 
Q 22.5625 4.203125 29.5 4.203125 
Q 36.328125 4.203125 39.90625 9.109375 
Q 43.5 14.015625 43.5 23.390625 
z
" id="DejaVuSerif-100"/>
     </defs>
     <g style="fill:#262626;" transform="translate(327.9205 226.476583)scale(0.088 -0.088)">
      <use xlink:href="#DejaVuSerif-86"/>
      <use x="72.076172" xlink:href="#DejaVuSerif-97"/>
      <use x="131.695312" xlink:href="#DejaVuSerif-108"/>
      <use x="163.677734" xlink:href="#DejaVuSerif-105"/>
      <use x="195.660156" xlink:href="#DejaVuSerif-100"/>
      <use x="259.673828" xlink:href="#DejaVuSerif-97"/>
      <use x="319.292969" xlink:href="#DejaVuSerif-116"/>
      <use x="359.478516" xlink:href="#DejaVuSerif-105"/>
      <use x="391.460938" xlink:href="#DejaVuSerif-111"/>
      <use x="451.666016" xlink:href="#DejaVuSerif-110"/>
     </g>
    </g>
    <g id="PathCollection_3">
     <path d="M 393.57675 224.166583 
L 393.57675 217.095515 
M 393.57675 224.166583 
L 387.919896 227.702116 
M 393.57675 224.166583 
L 399.233604 227.702116 
" style="fill:#888b8d;stroke:#888b8d;stroke-width:2;"/>
     <path d="M 393.57675 223.396583 
L 393.57675 216.325515 
M 393.57675 223.396583 
L 387.919896 226.932116 
M 393.57675 223.396583 
L 399.233604 226.932116 
" style="fill:#888b8d;stroke:#888b8d;stroke-width:2;"/>
    </g>
    <g id="PathCollection_4">
     <path d="M 405.89675 224.166583 
L 405.89675 231.23765 
M 405.89675 224.166583 
L 411.553604 220.631049 
M 405.89675 224.166583 
L 400.239896 220.631049 
" style="fill:#888b8d;stroke:#888b8d;stroke-width:2;"/>
     <path d="M 405.89675 223.396583 
L 405.89675 230.46765 
M 405.89675 223.396583 
L 411.553604 219.861049 
M 405.89675 223.396583 
L 400.239896 219.861049 
" style="fill:#888b8d;stroke:#888b8d;stroke-width:2;"/>
    </g>
    <g id="text_10">
     <!-- Best Model -->
     <defs>
      <path d="M 24.703125 5.171875 
L 39.3125 5.171875 
Q 48.09375 5.171875 52.140625 8.984375 
Q 56.203125 12.796875 56.203125 21.09375 
Q 56.203125 29.34375 52.171875 33.125 
Q 48.140625 36.921875 39.3125 36.921875 
L 24.703125 36.921875 
z
M 24.703125 42.09375 
L 37.109375 42.09375 
Q 45.125 42.09375 48.796875 45.171875 
Q 52.484375 48.25 52.484375 54.890625 
Q 52.484375 61.578125 48.796875 64.625 
Q 45.125 67.671875 37.109375 67.671875 
L 24.703125 67.671875 
z
M 5.515625 0 
L 5.515625 5.171875 
L 14.796875 5.171875 
L 14.796875 67.671875 
L 5.515625 67.671875 
L 5.515625 72.90625 
L 41.5 72.90625 
Q 52.546875 72.90625 58.125 68.390625 
Q 63.71875 63.875 63.71875 54.890625 
Q 63.71875 48.390625 59.828125 44.53125 
Q 55.953125 40.671875 48.484375 39.796875 
Q 57.765625 38.625 62.578125 33.859375 
Q 67.390625 29.109375 67.390625 21.09375 
Q 67.390625 10.25 60.546875 5.125 
Q 53.71875 0 39.203125 0 
z
" id="DejaVuSerif-66"/>
      <path d="M 54.203125 25 
L 15.484375 25 
L 15.484375 24.609375 
Q 15.484375 14.109375 19.4375 8.765625 
Q 23.390625 3.421875 31.109375 3.421875 
Q 37.015625 3.421875 40.796875 6.515625 
Q 44.578125 9.625 46.09375 15.71875 
L 53.328125 15.71875 
Q 51.171875 7.171875 45.375 2.875 
Q 39.59375 -1.421875 30.171875 -1.421875 
Q 18.796875 -1.421875 11.890625 6.078125 
Q 4.984375 13.578125 4.984375 25.984375 
Q 4.984375 38.28125 11.765625 45.796875 
Q 18.5625 53.328125 29.59375 53.328125 
Q 41.359375 53.328125 47.65625 46.0625 
Q 53.953125 38.8125 54.203125 25 
z
M 43.609375 30.171875 
Q 43.3125 39.265625 39.765625 43.875 
Q 36.234375 48.484375 29.59375 48.484375 
Q 23.390625 48.484375 19.828125 43.84375 
Q 16.265625 39.203125 15.484375 30.171875 
z
" id="DejaVuSerif-101"/>
      <path d="M 5.515625 0 
L 5.515625 5.171875 
L 14.796875 5.171875 
L 14.796875 67.671875 
L 4.984375 67.671875 
L 4.984375 72.90625 
L 26.21875 72.90625 
L 51.8125 21 
L 77.390625 72.90625 
L 97.3125 72.90625 
L 97.3125 67.671875 
L 87.59375 67.671875 
L 87.59375 5.171875 
L 96.921875 5.171875 
L 96.921875 0 
L 68.40625 0 
L 68.40625 5.171875 
L 77.6875 5.171875 
L 77.6875 61.53125 
L 52.6875 10.6875 
L 45.796875 10.6875 
L 20.796875 61.53125 
L 20.796875 5.171875 
L 30.078125 5.171875 
L 30.078125 0 
z
" id="DejaVuSerif-77"/>
     </defs>
     <g style="fill:#262626;" transform="translate(415.57675 226.476583)scale(0.088 -0.088)">
      <use xlink:href="#DejaVuSerif-66"/>
      <use x="73.486328" xlink:href="#DejaVuSerif-101"/>
      <use x="132.666016" xlink:href="#DejaVuSerif-115"/>
      <use x="183.984375" xlink:href="#DejaVuSerif-116"/>
      <use x="224.169922" xlink:href="#DejaVuSerif-32"/>
      <use x="255.957031" xlink:href="#DejaVuSerif-77"/>
      <use x="358.349609" xlink:href="#DejaVuSerif-111"/>
      <use x="418.554688" xlink:href="#DejaVuSerif-100"/>
      <use x="482.568359" xlink:href="#DejaVuSerif-101"/>
      <use x="541.748047" xlink:href="#DejaVuSerif-108"/>
     </g>
    </g>
   </g>
  </g>
  <g id="axes_3">
   <g id="patch_7">
    <path d="M 44.18499 434.89201 
L 644.99976 434.89201 
L 644.99976 244.03824 
L 44.18499 244.03824 
z
" style="fill:#ffffff;"/>
   </g>
   <g id="matplotlib.axis_3">
    <g id="xtick_1">
     <g id="text_11">
      <!-- 0 -->
      <g style="fill:#262626;" transform="translate(68.695252 449.878635)scale(0.088 -0.088)">
       <use xlink:href="#DejaVuSerif-48"/>
      </g>
     </g>
    </g>
    <g id="xtick_2">
     <g id="text_12">
      <!-- 25 -->
      <defs>
       <path d="M 12.796875 55.515625 
L 7.328125 55.515625 
L 7.328125 68.5 
Q 12.546875 71.296875 17.84375 72.75 
Q 23.140625 74.21875 28.21875 74.21875 
Q 39.59375 74.21875 46.1875 68.703125 
Q 52.78125 63.1875 52.78125 53.71875 
Q 52.78125 43.015625 37.84375 28.125 
Q 36.671875 27 36.078125 26.421875 
L 17.671875 8.015625 
L 48.09375 8.015625 
L 48.09375 17 
L 53.8125 17 
L 53.8125 0 
L 6.78125 0 
L 6.78125 5.328125 
L 28.90625 27.390625 
Q 36.234375 34.71875 39.359375 40.84375 
Q 42.484375 46.96875 42.484375 53.71875 
Q 42.484375 61.078125 38.640625 65.234375 
Q 34.8125 69.390625 28.078125 69.390625 
Q 21.09375 69.390625 17.28125 65.921875 
Q 13.484375 62.453125 12.796875 55.515625 
z
" id="DejaVuSerif-50"/>
      </defs>
      <g style="fill:#262626;" transform="translate(134.513245 449.878635)scale(0.088 -0.088)">
       <use xlink:href="#DejaVuSerif-50"/>
       <use x="63.623047" xlink:href="#DejaVuSerif-53"/>
      </g>
     </g>
    </g>
    <g id="xtick_3">
     <g id="text_13">
      <!-- 50 -->
      <g style="fill:#262626;" transform="translate(203.130739 449.878635)scale(0.088 -0.088)">
       <use xlink:href="#DejaVuSerif-53"/>
       <use x="63.623047" xlink:href="#DejaVuSerif-48"/>
      </g>
     </g>
    </g>
    <g id="xtick_4">
     <g id="text_14">
      <!-- 75 -->
      <g style="fill:#262626;" transform="translate(271.748232 449.878635)scale(0.088 -0.088)">
       <use xlink:href="#DejaVuSerif-55"/>
       <use x="63.623047" xlink:href="#DejaVuSerif-53"/>
      </g>
     </g>
    </g>
    <g id="xtick_5">
     <g id="text_15">
      <!-- 100 -->
      <g style="fill:#262626;" transform="translate(337.566225 449.878635)scale(0.088 -0.088)">
       <use xlink:href="#DejaVuSerif-49"/>
       <use x="63.623047" xlink:href="#DejaVuSerif-48"/>
       <use x="127.246094" xlink:href="#DejaVuSerif-48"/>
      </g>
     </g>
    </g>
    <g id="xtick_6">
     <g id="text_16">
      <!-- 125 -->
      <g style="fill:#262626;" transform="translate(406.183718 449.878635)scale(0.088 -0.088)">
       <use xlink:href="#DejaVuSerif-49"/>
       <use x="63.623047" xlink:href="#DejaVuSerif-50"/>
       <use x="127.246094" xlink:href="#DejaVuSerif-53"/>
      </g>
     </g>
    </g>
    <g id="xtick_7">
     <g id="text_17">
      <!-- 150 -->
      <g style="fill:#262626;" transform="translate(474.801211 449.878635)scale(0.088 -0.088)">
       <use xlink:href="#DejaVuSerif-49"/>
       <use x="63.623047" xlink:href="#DejaVuSerif-53"/>
       <use x="127.246094" xlink:href="#DejaVuSerif-48"/>
      </g>
     </g>
    </g>
    <g id="xtick_8">
     <g id="text_18">
      <!-- 175 -->
      <g style="fill:#262626;" transform="translate(543.418704 449.878635)scale(0.088 -0.088)">
       <use xlink:href="#DejaVuSerif-49"/>
       <use x="63.623047" xlink:href="#DejaVuSerif-55"/>
       <use x="127.246094" xlink:href="#DejaVuSerif-53"/>
      </g>
     </g>
    </g>
    <g id="xtick_9">
     <g id="text_19">
      <!-- 200 -->
      <g style="fill:#262626;" transform="translate(612.036197 449.878635)scale(0.088 -0.088)">
       <use xlink:href="#DejaVuSerif-50"/>
       <use x="63.623047" xlink:href="#DejaVuSerif-48"/>
       <use x="127.246094" xlink:href="#DejaVuSerif-48"/>
      </g>
     </g>
    </g>
    <g id="text_20">
     <!-- Epoch -->
     <defs>
      <path d="M 5.515625 0 
L 5.515625 5.171875 
L 14.796875 5.171875 
L 14.796875 67.671875 
L 5.515625 67.671875 
L 5.515625 72.90625 
L 64.203125 72.90625 
L 64.203125 56.6875 
L 58.203125 56.6875 
L 58.203125 66.890625 
L 24.703125 66.890625 
L 24.703125 42.484375 
L 48.578125 42.484375 
L 48.578125 51.609375 
L 54.59375 51.609375 
L 54.59375 27.390625 
L 48.578125 27.390625 
L 48.578125 36.53125 
L 24.703125 36.53125 
L 24.703125 6 
L 58.984375 6 
L 58.984375 16.21875 
L 64.984375 16.21875 
L 64.984375 0 
z
" id="DejaVuSerif-69"/>
      <path d="M 20.515625 28.515625 
L 20.515625 23.390625 
Q 20.515625 14.015625 24.09375 9.109375 
Q 27.6875 4.203125 34.515625 4.203125 
Q 41.40625 4.203125 44.9375 9.71875 
Q 48.484375 15.234375 48.484375 25.984375 
Q 48.484375 36.765625 44.9375 42.234375 
Q 41.40625 47.703125 34.515625 47.703125 
Q 27.6875 47.703125 24.09375 42.765625 
Q 20.515625 37.84375 20.515625 28.515625 
z
M 11.53125 46.6875 
L 2.875 46.6875 
L 2.875 51.90625 
L 20.515625 51.90625 
L 20.515625 43.796875 
Q 23.140625 48.6875 27.21875 51 
Q 31.296875 53.328125 37.3125 53.328125 
Q 46.875 53.328125 52.921875 45.75 
Q 58.984375 38.1875 58.984375 25.984375 
Q 58.984375 13.765625 52.921875 6.171875 
Q 46.875 -1.421875 37.3125 -1.421875 
Q 31.296875 -1.421875 27.21875 0.890625 
Q 23.140625 3.21875 20.515625 8.109375 
L 20.515625 -15.578125 
L 29 -15.578125 
L 29 -20.796875 
L 2.875 -20.796875 
L 2.875 -15.578125 
L 11.53125 -15.578125 
z
" id="DejaVuSerif-112"/>
      <path d="M 4.109375 0 
L 4.109375 5.171875 
L 12.203125 5.171875 
L 12.203125 70.796875 
L 3.609375 70.796875 
L 3.609375 75.984375 
L 21.1875 75.984375 
L 21.1875 42.671875 
Q 23.6875 47.953125 27.65625 50.640625 
Q 31.640625 53.328125 36.921875 53.328125 
Q 45.515625 53.328125 49.5625 48.390625 
Q 53.609375 43.453125 53.609375 33.015625 
L 53.609375 5.171875 
L 61.625 5.171875 
L 61.625 0 
L 36.8125 0 
L 36.8125 5.171875 
L 44.578125 5.171875 
L 44.578125 30.171875 
Q 44.578125 39.703125 42.25 43.1875 
Q 39.9375 46.6875 33.984375 46.6875 
Q 27.734375 46.6875 24.453125 42.140625 
Q 21.1875 37.59375 21.1875 28.90625 
L 21.1875 5.171875 
L 29 5.171875 
L 29 0 
z
" id="DejaVuSerif-104"/>
     </defs>
     <g style="fill:#262626;" transform="translate(329.346375 463.00326)scale(0.096 -0.096)">
      <use xlink:href="#DejaVuSerif-69"/>
      <use x="72.998047" xlink:href="#DejaVuSerif-112"/>
      <use x="137.011719" xlink:href="#DejaVuSerif-111"/>
      <use x="197.216797" xlink:href="#DejaVuSerif-99"/>
      <use x="253.222656" xlink:href="#DejaVuSerif-104"/>
     </g>
    </g>
   </g>
   <g id="matplotlib.axis_4">
    <g id="ytick_6">
     <g id="text_21">
      <!-- 0.1 -->
      <g style="fill:#262626;" transform="translate(21.89024 419.454926)scale(0.088 -0.088)">
       <use xlink:href="#DejaVuSerif-48"/>
       <use x="63.623047" xlink:href="#DejaVuSerif-46"/>
       <use x="95.410156" xlink:href="#DejaVuSerif-49"/>
      </g>
     </g>
    </g>
    <g id="ytick_7">
     <g id="text_22">
      <!-- 0.2 -->
      <g style="fill:#262626;" transform="translate(21.89024 394.927121)scale(0.088 -0.088)">
       <use xlink:href="#DejaVuSerif-48"/>
       <use x="63.623047" xlink:href="#DejaVuSerif-46"/>
       <use x="95.410156" xlink:href="#DejaVuSerif-50"/>
      </g>
     </g>
    </g>
    <g id="ytick_8">
     <g id="text_23">
      <!-- 0.3 -->
      <defs>
       <path d="M 9.71875 69.828125 
Q 15.4375 71.96875 20.671875 73.09375 
Q 25.921875 74.21875 30.515625 74.21875 
Q 41.21875 74.21875 47.21875 69.59375 
Q 53.21875 64.984375 53.21875 56.78125 
Q 53.21875 50.203125 49.0625 45.78125 
Q 44.921875 41.359375 37.3125 39.796875 
Q 46.296875 38.53125 51.25 33.28125 
Q 56.203125 28.03125 56.203125 19.671875 
Q 56.203125 9.46875 49.34375 4.015625 
Q 42.484375 -1.421875 29.59375 -1.421875 
Q 23.875 -1.421875 18.421875 -0.1875 
Q 12.984375 1.03125 7.625 3.515625 
L 7.625 17.671875 
L 13.09375 17.671875 
Q 13.578125 10.640625 17.828125 7.03125 
Q 22.078125 3.421875 29.78125 3.421875 
Q 37.25 3.421875 41.578125 7.734375 
Q 45.90625 12.0625 45.90625 19.578125 
Q 45.90625 28.171875 41.453125 32.59375 
Q 37.015625 37.015625 28.421875 37.015625 
L 23.78125 37.015625 
L 23.78125 42 
L 26.21875 42 
Q 34.765625 42 39.03125 45.53125 
Q 43.3125 49.078125 43.3125 56.203125 
Q 43.3125 62.59375 39.796875 65.984375 
Q 36.28125 69.390625 29.6875 69.390625 
Q 23.09375 69.390625 19.453125 66.265625 
Q 15.828125 63.140625 15.1875 56.984375 
L 9.71875 56.984375 
z
" id="DejaVuSerif-51"/>
      </defs>
      <g style="fill:#262626;" transform="translate(21.89024 370.399316)scale(0.088 -0.088)">
       <use xlink:href="#DejaVuSerif-48"/>
       <use x="63.623047" xlink:href="#DejaVuSerif-46"/>
       <use x="95.410156" xlink:href="#DejaVuSerif-51"/>
      </g>
     </g>
    </g>
    <g id="ytick_9">
     <g id="text_24">
      <!-- 0.4 -->
      <defs>
       <path d="M 34.90625 24.703125 
L 34.90625 63.484375 
L 10.015625 24.703125 
z
M 56.390625 0 
L 23.1875 0 
L 23.1875 5.171875 
L 34.90625 5.171875 
L 34.90625 19.484375 
L 3.078125 19.484375 
L 3.078125 24.8125 
L 35.015625 74.21875 
L 44.671875 74.21875 
L 44.671875 24.703125 
L 58.59375 24.703125 
L 58.59375 19.484375 
L 44.671875 19.484375 
L 44.671875 5.171875 
L 56.390625 5.171875 
z
" id="DejaVuSerif-52"/>
      </defs>
      <g style="fill:#262626;" transform="translate(21.89024 345.87151)scale(0.088 -0.088)">
       <use xlink:href="#DejaVuSerif-48"/>
       <use x="63.623047" xlink:href="#DejaVuSerif-46"/>
       <use x="95.410156" xlink:href="#DejaVuSerif-52"/>
      </g>
     </g>
    </g>
    <g id="ytick_10">
     <g id="text_25">
      <!-- 0.5 -->
      <g style="fill:#262626;" transform="translate(21.89024 321.343705)scale(0.088 -0.088)">
       <use xlink:href="#DejaVuSerif-48"/>
       <use x="63.623047" xlink:href="#DejaVuSerif-46"/>
       <use x="95.410156" xlink:href="#DejaVuSerif-53"/>
      </g>
     </g>
    </g>
    <g id="ytick_11">
     <g id="text_26">
      <!-- 0.6 -->
      <defs>
       <path d="M 32.71875 3.421875 
Q 39.59375 3.421875 43.296875 8.46875 
Q 47.015625 13.53125 47.015625 23 
Q 47.015625 32.46875 43.296875 37.515625 
Q 39.59375 42.578125 32.71875 42.578125 
Q 25.734375 42.578125 22.0625 37.6875 
Q 18.40625 32.8125 18.40625 23.578125 
Q 18.40625 13.875 22.109375 8.640625 
Q 25.828125 3.421875 32.71875 3.421875 
z
M 16.796875 40.140625 
Q 20.125 43.796875 24.3125 45.59375 
Q 28.515625 47.40625 33.796875 47.40625 
Q 44.671875 47.40625 51 40.859375 
Q 57.328125 34.328125 57.328125 23 
Q 57.328125 11.921875 50.515625 5.25 
Q 43.703125 -1.421875 32.328125 -1.421875 
Q 19.96875 -1.421875 13.328125 7.78125 
Q 6.6875 17 6.6875 34.078125 
Q 6.6875 53.21875 14.546875 63.71875 
Q 22.40625 74.21875 36.71875 74.21875 
Q 40.578125 74.21875 44.828125 73.484375 
Q 49.078125 72.75 53.515625 71.296875 
L 53.515625 59.28125 
L 48 59.28125 
Q 47.40625 64.203125 44.234375 66.796875 
Q 41.0625 69.390625 35.6875 69.390625 
Q 26.21875 69.390625 21.578125 62.203125 
Q 16.9375 55.03125 16.796875 40.140625 
z
" id="DejaVuSerif-54"/>
      </defs>
      <g style="fill:#262626;" transform="translate(21.89024 296.8159)scale(0.088 -0.088)">
       <use xlink:href="#DejaVuSerif-48"/>
       <use x="63.623047" xlink:href="#DejaVuSerif-46"/>
       <use x="95.410156" xlink:href="#DejaVuSerif-54"/>
      </g>
     </g>
    </g>
    <g id="ytick_12">
     <g id="text_27">
      <!-- 0.7 -->
      <g style="fill:#262626;" transform="translate(21.89024 272.288095)scale(0.088 -0.088)">
       <use xlink:href="#DejaVuSerif-48"/>
       <use x="63.623047" xlink:href="#DejaVuSerif-46"/>
       <use x="95.410156" xlink:href="#DejaVuSerif-55"/>
      </g>
     </g>
    </g>
    <g id="ytick_13">
     <g id="text_28">
      <!-- 0.8 -->
      <g style="fill:#262626;" transform="translate(21.89024 247.76029)scale(0.088 -0.088)">
       <use xlink:href="#DejaVuSerif-48"/>
       <use x="63.623047" xlink:href="#DejaVuSerif-46"/>
       <use x="95.410156" xlink:href="#DejaVuSerif-56"/>
      </g>
     </g>
    </g>
    <g id="text_29">
     <!-- Loss -->
     <defs>
      <path d="M 5.515625 0 
L 5.515625 5.171875 
L 14.796875 5.171875 
L 14.796875 67.671875 
L 5.515625 67.671875 
L 5.515625 72.90625 
L 33.984375 72.90625 
L 33.984375 67.671875 
L 24.703125 67.671875 
L 24.703125 6 
L 58.015625 6 
L 58.015625 18.21875 
L 64.015625 18.21875 
L 64.015625 0 
z
" id="DejaVuSerif-76"/>
     </defs>
     <g style="fill:#262626;" transform="translate(15.89374 350.468375)rotate(-90)scale(0.096 -0.096)">
      <use xlink:href="#DejaVuSerif-76"/>
      <use x="66.40625" xlink:href="#DejaVuSerif-111"/>
      <use x="126.611328" xlink:href="#DejaVuSerif-115"/>
      <use x="177.929688" xlink:href="#DejaVuSerif-115"/>
     </g>
    </g>
   </g>
   <g id="line2d_9">
    <path clip-path="url(#p63836ba8d0)" d="M 71.494752 252.713412 
L 74.239452 375.408007 
L 76.984152 385.422908 
L 79.728851 390.386164 
L 82.473551 393.285249 
L 85.218251 396.651368 
L 87.962951 398.820586 
L 90.70765 400.032542 
L 93.45235 402.33731 
L 96.19705 402.303093 
L 98.94175 403.564683 
L 101.686449 404.614721 
L 104.431149 405.193629 
L 109.920548 407.195228 
L 112.665248 407.299398 
L 115.409948 408.259697 
L 118.154648 406.918996 
L 120.899347 408.691307 
L 123.644047 410.221059 
L 126.388747 410.332746 
L 129.133447 409.951431 
L 134.622846 411.335485 
L 137.367546 412.086403 
L 140.112245 412.567239 
L 142.856945 412.141976 
L 145.601645 413.216983 
L 148.346345 413.124684 
L 151.091044 412.723367 
L 153.835744 415.611188 
L 156.580444 416.525201 
L 159.325144 417.119249 
L 162.069843 418.027073 
L 164.814543 417.190069 
L 170.303942 418.576759 
L 173.048642 418.457662 
L 175.793342 419.137566 
L 178.538042 418.83608 
L 181.282741 420.111465 
L 184.027441 421.008728 
L 186.772141 420.707303 
L 189.51684 421.415027 
L 192.26154 421.031886 
L 195.00624 421.602687 
L 200.495639 421.955044 
L 203.240339 421.541588 
L 205.985039 422.24352 
L 208.729739 422.424278 
L 214.219138 423.079722 
L 216.963838 422.960176 
L 219.708537 423.140924 
L 222.453237 422.948523 
L 225.197937 423.087315 
L 227.942637 423.603372 
L 230.687336 423.026581 
L 233.432036 423.855241 
L 236.176736 424.254443 
L 238.921436 423.877728 
L 241.666135 423.815815 
L 244.410835 424.379054 
L 247.155535 424.381585 
L 249.900234 424.257815 
L 252.644934 424.367452 
L 255.389634 424.685673 
L 258.134334 424.524588 
L 263.623733 424.665381 
L 269.113133 424.842309 
L 271.857832 424.775252 
L 274.602532 425.171792 
L 277.347232 424.788872 
L 280.091931 424.81783 
L 282.836631 424.642231 
L 288.326031 425.43247 
L 291.07073 424.906809 
L 296.56013 425.00505 
L 299.30483 425.38941 
L 302.049529 424.798117 
L 304.794229 425.342293 
L 310.283628 425.042301 
L 313.028328 425.097715 
L 315.773028 425.387252 
L 318.517728 424.90767 
L 321.262427 425.493166 
L 324.007127 425.652775 
L 326.751827 425.479271 
L 329.496527 424.733297 
L 334.985926 425.77063 
L 337.730626 425.012877 
L 340.475325 425.323712 
L 343.220025 425.072388 
L 345.964725 425.540544 
L 348.709425 425.395523 
L 354.198824 425.65146 
L 362.432923 425.374629 
L 365.177623 425.454529 
L 367.922323 425.1839 
L 370.667022 425.408559 
L 373.411722 425.394548 
L 376.156422 425.165869 
L 378.901122 425.633227 
L 381.645821 425.81971 
L 384.390521 425.475852 
L 387.135221 425.583177 
L 389.87992 425.31392 
L 392.62462 425.335904 
L 395.36932 424.977576 
L 398.11402 425.305814 
L 400.858719 425.333357 
L 406.348119 425.746878 
L 409.092819 425.408262 
L 411.837518 425.410629 
L 414.582218 425.764791 
L 420.071617 425.273029 
L 422.816317 425.049527 
L 425.561017 425.531501 
L 428.305717 425.615286 
L 439.284516 425.45597 
L 442.029215 425.10737 
L 444.773915 425.22703 
L 447.518615 425.524402 
L 450.263314 425.483349 
L 453.008014 425.266266 
L 455.752714 425.478547 
L 461.242113 425.576846 
L 463.986813 424.908202 
L 466.731513 425.405838 
L 469.476213 425.240923 
L 472.220912 425.810113 
L 480.455011 425.185326 
L 483.199711 425.334312 
L 485.944411 425.607869 
L 496.92321 425.542587 
L 502.412609 425.240729 
L 507.902009 425.403789 
L 510.646708 425.999434 
L 513.391408 425.632298 
L 516.136108 425.855842 
L 518.880808 424.959225 
L 521.625507 425.375875 
L 524.370207 425.243633 
L 527.114907 425.758504 
L 529.859606 425.406833 
L 532.604306 425.634743 
L 535.349006 426.024886 
L 538.093706 425.350316 
L 540.838405 425.353586 
L 543.583105 425.901265 
L 546.327805 426.139088 
L 549.072505 425.702802 
L 554.561904 425.248293 
L 560.051303 425.683677 
L 562.796003 425.504619 
L 565.540703 425.939436 
L 568.285403 425.284334 
L 571.030102 425.355396 
L 573.774802 425.807394 
L 576.519502 425.49418 
L 579.264202 425.704351 
L 582.008901 425.781912 
L 584.753601 425.496539 
L 587.498301 425.371739 
L 590.243 425.891771 
L 592.9877 426.216839 
L 595.7324 425.531062 
L 598.4771 425.177513 
L 601.221799 425.53622 
L 603.966499 425.496897 
L 606.711199 425.845963 
L 609.455899 425.437788 
L 612.200598 425.203765 
L 614.945298 425.597032 
L 617.689998 425.449025 
L 617.689998 425.449025 
" style="fill:none;stroke:#c8102e;stroke-linecap:round;stroke-width:1.2;"/>
   </g>
   <g id="line2d_10">
    <path clip-path="url(#p63836ba8d0)" d="M 71.494752 378.338674 
L 74.239452 386.080023 
L 76.984152 388.278236 
L 79.728851 393.333933 
L 82.473551 392.373604 
L 85.218251 394.548557 
L 87.962951 395.360119 
L 90.70765 395.172164 
L 93.45235 393.388132 
L 96.19705 395.045697 
L 98.94175 393.940264 
L 101.686449 393.282622 
L 104.431149 397.652267 
L 107.175849 396.808231 
L 109.920548 397.377091 
L 112.665248 397.547447 
L 115.409948 398.869848 
L 118.154648 396.110315 
L 120.899347 396.614794 
L 123.644047 399.018537 
L 126.388747 396.681653 
L 129.133447 398.011389 
L 131.878146 394.486697 
L 134.622846 397.474933 
L 137.367546 394.705415 
L 140.112245 394.996107 
L 142.856945 395.894382 
L 148.346345 395.644334 
L 151.091044 397.931291 
L 153.835744 398.145872 
L 156.580444 397.279665 
L 159.325144 397.913587 
L 162.069843 396.843197 
L 164.814543 397.192024 
L 167.559243 396.180734 
L 170.303942 395.981917 
L 173.048642 396.680685 
L 175.793342 395.011106 
L 178.538042 394.881938 
L 181.282741 395.495169 
L 184.027441 394.934773 
L 186.772141 395.057988 
L 189.51684 395.387213 
L 192.26154 394.816036 
L 197.75094 394.469336 
L 200.495639 394.861616 
L 203.240339 393.937409 
L 205.985039 394.257548 
L 208.729739 394.047572 
L 211.474438 393.951506 
L 214.219138 393.735039 
L 216.963838 393.190612 
L 219.708537 392.527407 
L 222.453237 393.372065 
L 225.197937 393.238759 
L 227.942637 393.659178 
L 230.687336 393.631411 
L 236.176736 392.952498 
L 238.921436 392.985034 
L 244.410835 392.652976 
L 247.155535 393.018326 
L 249.900234 392.918682 
L 252.644934 392.479294 
L 258.134334 392.888851 
L 269.113133 392.537787 
L 271.857832 392.400355 
L 274.602532 392.526176 
L 280.091931 392.448593 
L 282.836631 392.627136 
L 285.581331 392.317414 
L 288.326031 392.204422 
L 299.30483 392.24623 
L 304.794229 392.08322 
L 313.028328 392.138991 
L 318.517728 392.077892 
L 326.751827 392.004314 
L 332.241226 392.130961 
L 334.985926 392.179542 
L 340.475325 392.015502 
L 348.709425 392.022501 
L 395.36932 391.96797 
L 422.816317 391.97225 
L 477.710312 391.929768 
L 590.243 391.850091 
L 617.689998 391.841078 
L 617.689998 391.841078 
" style="fill:none;stroke:#00b388;stroke-linecap:round;stroke-width:1.2;"/>
   </g>
   <g id="patch_8">
    <path d="M 44.18499 434.89201 
L 44.18499 244.03824 
" style="fill:none;stroke:#262626;stroke-linecap:square;stroke-linejoin:miter;"/>
   </g>
   <g id="patch_9">
    <path d="M 644.99976 434.89201 
L 644.99976 244.03824 
" style="fill:none;stroke:#262626;stroke-linecap:square;stroke-linejoin:miter;"/>
   </g>
   <g id="patch_10">
    <path d="M 44.18499 434.89201 
L 644.99976 434.89201 
" style="fill:none;stroke:#262626;stroke-linecap:square;stroke-linejoin:miter;"/>
   </g>
   <g id="patch_11">
    <path d="M 44.18499 244.03824 
L 644.99976 244.03824 
" style="fill:none;stroke:#262626;stroke-linecap:square;stroke-linejoin:miter;"/>
   </g>
   <g id="PathCollection_5">
    <g clip-path="url(#p63836ba8d0)">
     <use style="fill:#888b8d;stroke:#888b8d;stroke-width:2;" x="123.644047" xlink:href="#m5b410fd50f" y="410.221059"/>
    </g>
   </g>
   <g id="PathCollection_6">
    <g clip-path="url(#p63836ba8d0)">
     <use style="fill:#888b8d;stroke:#888b8d;stroke-width:2;" x="123.644047" xlink:href="#mfbf1222cfe" y="399.018537"/>
    </g>
   </g>
  </g>
 </g>
 <defs>
  <clipPath id="pf2d40731a2">
   <rect height="190.85377" width="600.81477" x="44.18499" y="16.29474"/>
  </clipPath>
  <clipPath id="p63836ba8d0">
   <rect height="190.85377" width="600.81477" x="44.18499" y="244.03824"/>
  </clipPath>
 </defs>
</svg>
