<?xml version="1.0" encoding="utf-8" standalone="no"?>
<!DOCTYPE svg PUBLIC "-//W3C//DTD SVG 1.1//EN"
  "http://www.w3.org/Graphics/SVG/1.1/DTD/svg11.dtd">
<!-- Created with matplotlib (https://matplotlib.org/) -->
<svg height="468pt" version="1.1" viewBox="0 0 648 468" width="648pt" xmlns="http://www.w3.org/2000/svg" xmlns:xlink="http://www.w3.org/1999/xlink">
 <defs>
  <style type="text/css">
*{stroke-linecap:butt;stroke-linejoin:round;}
  </style>
 </defs>
 <g id="figure_1">
  <g id="patch_1">
   <path d="M 0 468 
L 648 468 
L 648 0 
L 0 0 
z
" style="fill:#ffffff;"/>
  </g>
  <g id="axes_1">
   <g id="patch_2">
    <path d="M 44.18499 208.560881 
L 644.99976 208.560881 
L 644.99976 16.15824 
L 44.18499 16.15824 
z
" style="fill:#ffffff;"/>
   </g>
   <g id="matplotlib.axis_1"/>
   <g id="matplotlib.axis_2">
    <g id="ytick_1">
     <g id="text_1">
      <!-- 0.80 -->
      <defs>
       <path d="M 31.78125 3.421875 
Q 39.265625 3.421875 42.96875 11.625 
Q 46.6875 19.828125 46.6875 36.375 
Q 46.6875 52.984375 42.96875 61.1875 
Q 39.265625 69.390625 31.78125 69.390625 
Q 24.3125 69.390625 20.59375 61.1875 
Q 16.890625 52.984375 16.890625 36.375 
Q 16.890625 19.828125 20.59375 11.625 
Q 24.3125 3.421875 31.78125 3.421875 
z
M 31.78125 -1.421875 
Q 19.921875 -1.421875 13.25 8.53125 
Q 6.59375 18.5 6.59375 36.375 
Q 6.59375 54.296875 13.25 64.25 
Q 19.921875 74.21875 31.78125 74.21875 
Q 43.703125 74.21875 50.34375 64.25 
Q 56.984375 54.296875 56.984375 36.375 
Q 56.984375 18.5 50.34375 8.53125 
Q 43.703125 -1.421875 31.78125 -1.421875 
z
" id="DejaVuSerif-48"/>
       <path d="M 9.421875 5.078125 
Q 9.421875 7.8125 11.28125 9.71875 
Q 13.140625 11.625 15.921875 11.625 
Q 18.609375 11.625 20.5 9.71875 
Q 22.40625 7.8125 22.40625 5.078125 
Q 22.40625 2.390625 20.5 0.484375 
Q 18.609375 -1.421875 15.921875 -1.421875 
Q 13.140625 -1.421875 11.28125 0.453125 
Q 9.421875 2.34375 9.421875 5.078125 
z
" id="DejaVuSerif-46"/>
       <path d="M 46.578125 19.921875 
Q 46.578125 27.734375 42.6875 32.046875 
Q 38.8125 36.375 31.78125 36.375 
Q 24.75 36.375 20.875 32.046875 
Q 17 27.734375 17 19.921875 
Q 17 12.0625 20.875 7.734375 
Q 24.75 3.421875 31.78125 3.421875 
Q 38.8125 3.421875 42.6875 7.734375 
Q 46.578125 12.0625 46.578125 19.921875 
z
M 44.578125 55.328125 
Q 44.578125 61.96875 41.203125 65.671875 
Q 37.84375 69.390625 31.78125 69.390625 
Q 25.78125 69.390625 22.390625 65.671875 
Q 19 61.96875 19 55.328125 
Q 19 48.640625 22.390625 44.921875 
Q 25.78125 41.21875 31.78125 41.21875 
Q 37.84375 41.21875 41.203125 44.921875 
Q 44.578125 48.640625 44.578125 55.328125 
z
M 39.3125 38.8125 
Q 47.609375 37.703125 52.25 32.6875 
Q 56.890625 27.6875 56.890625 19.921875 
Q 56.890625 9.671875 50.390625 4.125 
Q 43.890625 -1.421875 31.78125 -1.421875 
Q 19.734375 -1.421875 13.203125 4.125 
Q 6.6875 9.671875 6.6875 19.921875 
Q 6.6875 27.6875 11.328125 32.6875 
Q 15.96875 37.703125 24.3125 38.8125 
Q 16.9375 40.140625 13 44.40625 
Q 9.078125 48.6875 9.078125 55.328125 
Q 9.078125 64.109375 15.125 69.15625 
Q 21.1875 74.21875 31.78125 74.21875 
Q 42.390625 74.21875 48.4375 69.15625 
Q 54.5 64.109375 54.5 55.328125 
Q 54.5 48.6875 50.5625 44.40625 
Q 46.625 40.140625 39.3125 38.8125 
z
" id="DejaVuSerif-56"/>
      </defs>
      <g style="fill:#262626;" transform="translate(16.29124 206.584902)scale(0.088 -0.088)">
       <use xlink:href="#DejaVuSerif-48"/>
       <use x="63.623047" xlink:href="#DejaVuSerif-46"/>
       <use x="95.410156" xlink:href="#DejaVuSerif-56"/>
       <use x="159.033203" xlink:href="#DejaVuSerif-48"/>
      </g>
     </g>
    </g>
    <g id="ytick_2">
     <g id="text_2">
      <!-- 0.82 -->
      <defs>
       <path d="M 12.796875 55.515625 
L 7.328125 55.515625 
L 7.328125 68.5 
Q 12.546875 71.296875 17.84375 72.75 
Q 23.140625 74.21875 28.21875 74.21875 
Q 39.59375 74.21875 46.1875 68.703125 
Q 52.78125 63.1875 52.78125 53.71875 
Q 52.78125 43.015625 37.84375 28.125 
Q 36.671875 27 36.078125 26.421875 
L 17.671875 8.015625 
L 48.09375 8.015625 
L 48.09375 17 
L 53.8125 17 
L 53.8125 0 
L 6.78125 0 
L 6.78125 5.328125 
L 28.90625 27.390625 
Q 36.234375 34.71875 39.359375 40.84375 
Q 42.484375 46.96875 42.484375 53.71875 
Q 42.484375 61.078125 38.640625 65.234375 
Q 34.8125 69.390625 28.078125 69.390625 
Q 21.09375 69.390625 17.28125 65.921875 
Q 13.484375 62.453125 12.796875 55.515625 
z
" id="DejaVuSerif-50"/>
      </defs>
      <g style="fill:#262626;" transform="translate(16.29124 170.60509)scale(0.088 -0.088)">
       <use xlink:href="#DejaVuSerif-48"/>
       <use x="63.623047" xlink:href="#DejaVuSerif-46"/>
       <use x="95.410156" xlink:href="#DejaVuSerif-56"/>
       <use x="159.033203" xlink:href="#DejaVuSerif-50"/>
      </g>
     </g>
    </g>
    <g id="ytick_3">
     <g id="text_3">
      <!-- 0.84 -->
      <defs>
       <path d="M 34.90625 24.703125 
L 34.90625 63.484375 
L 10.015625 24.703125 
z
M 56.390625 0 
L 23.1875 0 
L 23.1875 5.171875 
L 34.90625 5.171875 
L 34.90625 19.484375 
L 3.078125 19.484375 
L 3.078125 24.8125 
L 35.015625 74.21875 
L 44.671875 74.21875 
L 44.671875 24.703125 
L 58.59375 24.703125 
L 58.59375 19.484375 
L 44.671875 19.484375 
L 44.671875 5.171875 
L 56.390625 5.171875 
z
" id="DejaVuSerif-52"/>
      </defs>
      <g style="fill:#262626;" transform="translate(16.29124 134.625278)scale(0.088 -0.088)">
       <use xlink:href="#DejaVuSerif-48"/>
       <use x="63.623047" xlink:href="#DejaVuSerif-46"/>
       <use x="95.410156" xlink:href="#DejaVuSerif-56"/>
       <use x="159.033203" xlink:href="#DejaVuSerif-52"/>
      </g>
     </g>
    </g>
    <g id="ytick_4">
     <g id="text_4">
      <!-- 0.86 -->
      <defs>
       <path d="M 32.71875 3.421875 
Q 39.59375 3.421875 43.296875 8.46875 
Q 47.015625 13.53125 47.015625 23 
Q 47.015625 32.46875 43.296875 37.515625 
Q 39.59375 42.578125 32.71875 42.578125 
Q 25.734375 42.578125 22.0625 37.6875 
Q 18.40625 32.8125 18.40625 23.578125 
Q 18.40625 13.875 22.109375 8.640625 
Q 25.828125 3.421875 32.71875 3.421875 
z
M 16.796875 40.140625 
Q 20.125 43.796875 24.3125 45.59375 
Q 28.515625 47.40625 33.796875 47.40625 
Q 44.671875 47.40625 51 40.859375 
Q 57.328125 34.328125 57.328125 23 
Q 57.328125 11.921875 50.515625 5.25 
Q 43.703125 -1.421875 32.328125 -1.421875 
Q 19.96875 -1.421875 13.328125 7.78125 
Q 6.6875 17 6.6875 34.078125 
Q 6.6875 53.21875 14.546875 63.71875 
Q 22.40625 74.21875 36.71875 74.21875 
Q 40.578125 74.21875 44.828125 73.484375 
Q 49.078125 72.75 53.515625 71.296875 
L 53.515625 59.28125 
L 48 59.28125 
Q 47.40625 64.203125 44.234375 66.796875 
Q 41.0625 69.390625 35.6875 69.390625 
Q 26.21875 69.390625 21.578125 62.203125 
Q 16.9375 55.03125 16.796875 40.140625 
z
" id="DejaVuSerif-54"/>
      </defs>
      <g style="fill:#262626;" transform="translate(16.29124 98.645466)scale(0.088 -0.088)">
       <use xlink:href="#DejaVuSerif-48"/>
       <use x="63.623047" xlink:href="#DejaVuSerif-46"/>
       <use x="95.410156" xlink:href="#DejaVuSerif-56"/>
       <use x="159.033203" xlink:href="#DejaVuSerif-54"/>
      </g>
     </g>
    </g>
    <g id="ytick_5">
     <g id="text_5">
      <!-- 0.88 -->
      <g style="fill:#262626;" transform="translate(16.29124 62.665654)scale(0.088 -0.088)">
       <use xlink:href="#DejaVuSerif-48"/>
       <use x="63.623047" xlink:href="#DejaVuSerif-46"/>
       <use x="95.410156" xlink:href="#DejaVuSerif-56"/>
       <use x="159.033203" xlink:href="#DejaVuSerif-56"/>
      </g>
     </g>
    </g>
    <g id="ytick_6">
     <g id="text_6">
      <!-- 0.90 -->
      <defs>
       <path d="M 46.78125 32.671875 
Q 43.5 29 39.25 27.1875 
Q 35.015625 25.390625 29.6875 25.390625 
Q 18.84375 25.390625 12.5625 31.9375 
Q 6.296875 38.484375 6.296875 49.8125 
Q 6.296875 60.890625 13.109375 67.546875 
Q 19.921875 74.21875 31.296875 74.21875 
Q 43.65625 74.21875 50.265625 65.015625 
Q 56.890625 55.8125 56.890625 38.71875 
Q 56.890625 19.578125 49.015625 9.078125 
Q 41.15625 -1.421875 26.90625 -1.421875 
Q 23.046875 -1.421875 18.796875 -0.6875 
Q 14.546875 0.046875 10.109375 1.515625 
L 10.109375 13.625 
L 15.578125 13.625 
Q 16.21875 8.6875 19.390625 6.046875 
Q 22.5625 3.421875 27.875 3.421875 
Q 37.359375 3.421875 41.984375 10.5625 
Q 46.625 17.71875 46.78125 32.671875 
z
M 30.90625 69.390625 
Q 23.96875 69.390625 20.28125 64.328125 
Q 16.609375 59.28125 16.609375 49.8125 
Q 16.609375 40.328125 20.28125 35.25 
Q 23.96875 30.171875 30.90625 30.171875 
Q 37.84375 30.171875 41.53125 35.078125 
Q 45.21875 39.984375 45.21875 49.21875 
Q 45.21875 58.9375 41.5 64.15625 
Q 37.796875 69.390625 30.90625 69.390625 
z
" id="DejaVuSerif-57"/>
      </defs>
      <g style="fill:#262626;" transform="translate(16.29124 26.685842)scale(0.088 -0.088)">
       <use xlink:href="#DejaVuSerif-48"/>
       <use x="63.623047" xlink:href="#DejaVuSerif-46"/>
       <use x="95.410156" xlink:href="#DejaVuSerif-57"/>
       <use x="159.033203" xlink:href="#DejaVuSerif-48"/>
      </g>
     </g>
    </g>
    <g id="text_7">
     <!-- Accuracy -->
     <defs>
      <path d="M 20.015625 26.421875 
L 46.78125 26.421875 
L 33.40625 61.078125 
z
M -0.59375 0 
L -0.59375 5.171875 
L 5.8125 5.171875 
L 31.78125 72.90625 
L 39.984375 72.90625 
L 66.015625 5.171875 
L 73.1875 5.171875 
L 73.1875 0 
L 46.6875 0 
L 46.6875 5.171875 
L 54.78125 5.171875 
L 48.6875 21.1875 
L 18.015625 21.1875 
L 11.921875 5.171875 
L 19.921875 5.171875 
L 19.921875 0 
z
" id="DejaVuSerif-65"/>
      <path d="M 51.421875 15.578125 
Q 49.515625 7.28125 44.09375 2.921875 
Q 38.671875 -1.421875 30.078125 -1.421875 
Q 18.75 -1.421875 11.859375 6.078125 
Q 4.984375 13.578125 4.984375 25.984375 
Q 4.984375 38.421875 11.859375 45.875 
Q 18.75 53.328125 30.078125 53.328125 
Q 35.015625 53.328125 39.890625 52.171875 
Q 44.78125 51.03125 49.703125 48.6875 
L 49.703125 35.40625 
L 44.484375 35.40625 
Q 43.453125 42.234375 40.015625 45.359375 
Q 36.578125 48.484375 30.171875 48.484375 
Q 22.90625 48.484375 19.1875 42.84375 
Q 15.484375 37.203125 15.484375 25.984375 
Q 15.484375 14.75 19.171875 9.078125 
Q 22.859375 3.421875 30.171875 3.421875 
Q 35.984375 3.421875 39.453125 6.4375 
Q 42.921875 9.46875 44.1875 15.578125 
z
" id="DejaVuSerif-99"/>
      <path d="M 35.40625 51.90625 
L 52.203125 51.90625 
L 52.203125 5.171875 
L 60.6875 5.171875 
L 60.6875 0 
L 43.21875 0 
L 43.21875 9.1875 
Q 40.71875 4 36.765625 1.28125 
Q 32.8125 -1.421875 27.59375 -1.421875 
Q 18.953125 -1.421875 14.875 3.484375 
Q 10.796875 8.40625 10.796875 18.890625 
L 10.796875 46.6875 
L 2.6875 46.6875 
L 2.6875 51.90625 
L 19.828125 51.90625 
L 19.828125 21.6875 
Q 19.828125 12.203125 22.140625 8.6875 
Q 24.46875 5.171875 30.421875 5.171875 
Q 36.671875 5.171875 39.9375 9.765625 
Q 43.21875 14.359375 43.21875 23.09375 
L 43.21875 46.6875 
L 35.40625 46.6875 
z
" id="DejaVuSerif-117"/>
      <path d="M 47.796875 52 
L 47.796875 39.015625 
L 42.625 39.015625 
Q 42.390625 42.875 40.484375 44.78125 
Q 38.578125 46.6875 34.90625 46.6875 
Q 28.265625 46.6875 24.71875 42.09375 
Q 21.1875 37.5 21.1875 28.90625 
L 21.1875 5.171875 
L 31.59375 5.171875 
L 31.59375 0 
L 4.109375 0 
L 4.109375 5.171875 
L 12.203125 5.171875 
L 12.203125 46.78125 
L 3.609375 46.78125 
L 3.609375 51.90625 
L 21.1875 51.90625 
L 21.1875 42.671875 
Q 23.828125 48.09375 27.96875 50.703125 
Q 32.125 53.328125 38.09375 53.328125 
Q 40.28125 53.328125 42.703125 52.984375 
Q 45.125 52.640625 47.796875 52 
z
" id="DejaVuSerif-114"/>
      <path d="M 39.796875 16.3125 
L 39.796875 27.296875 
L 28.21875 27.296875 
Q 21.53125 27.296875 18.25 24.40625 
Q 14.984375 21.53125 14.984375 15.578125 
Q 14.984375 10.15625 18.296875 6.984375 
Q 21.625 3.8125 27.296875 3.8125 
Q 32.90625 3.8125 36.34375 7.28125 
Q 39.796875 10.75 39.796875 16.3125 
z
M 48.78125 32.421875 
L 48.78125 5.171875 
L 56.78125 5.171875 
L 56.78125 0 
L 39.796875 0 
L 39.796875 5.609375 
Q 36.8125 2 32.90625 0.28125 
Q 29 -1.421875 23.78125 -1.421875 
Q 15.140625 -1.421875 10.0625 3.171875 
Q 4.984375 7.765625 4.984375 15.578125 
Q 4.984375 23.640625 10.796875 28.078125 
Q 16.609375 32.515625 27.203125 32.515625 
L 39.796875 32.515625 
L 39.796875 36.078125 
Q 39.796875 42 36.203125 45.234375 
Q 32.625 48.484375 26.125 48.484375 
Q 20.75 48.484375 17.578125 46.046875 
Q 14.40625 43.609375 13.625 38.8125 
L 8.984375 38.8125 
L 8.984375 49.3125 
Q 13.671875 51.3125 18.09375 52.3125 
Q 22.515625 53.328125 26.703125 53.328125 
Q 37.5 53.328125 43.140625 47.96875 
Q 48.78125 42.625 48.78125 32.421875 
z
" id="DejaVuSerif-97"/>
      <path d="M 21.578125 -9.515625 
L 25 -0.875 
L 5.609375 46.6875 
L -0.296875 46.6875 
L -0.296875 51.90625 
L 23.578125 51.90625 
L 23.578125 46.6875 
L 15.28125 46.6875 
L 29.890625 10.984375 
L 44.484375 46.6875 
L 36.71875 46.6875 
L 36.71875 51.90625 
L 56.203125 51.90625 
L 56.203125 46.6875 
L 50.390625 46.6875 
L 26.609375 -11.71875 
Q 24.171875 -17.78125 21.1875 -20 
Q 18.21875 -22.21875 12.796875 -22.21875 
Q 10.5 -22.21875 8.078125 -21.828125 
Q 5.671875 -21.4375 3.21875 -20.703125 
L 3.21875 -10.796875 
L 7.8125 -10.796875 
Q 8.109375 -14.109375 9.5 -15.546875 
Q 10.890625 -17 13.8125 -17 
Q 16.5 -17 18.140625 -15.5 
Q 19.78125 -14.015625 21.578125 -9.515625 
z
" id="DejaVuSerif-121"/>
     </defs>
     <g style="fill:#262626;" transform="translate(10.15824 134.84981)rotate(-90)scale(0.096 -0.096)">
      <use xlink:href="#DejaVuSerif-65"/>
      <use x="72.216797" xlink:href="#DejaVuSerif-99"/>
      <use x="128.222656" xlink:href="#DejaVuSerif-99"/>
      <use x="184.228516" xlink:href="#DejaVuSerif-117"/>
      <use x="248.632812" xlink:href="#DejaVuSerif-114"/>
      <use x="296.435547" xlink:href="#DejaVuSerif-97"/>
      <use x="356.054688" xlink:href="#DejaVuSerif-99"/>
      <use x="412.060547" xlink:href="#DejaVuSerif-121"/>
     </g>
    </g>
   </g>
   <g id="line2d_1">
    <path clip-path="url(#p427efd002b)" d="M 71.494752 199.815306 
L 74.239452 163.644662 
L 76.984152 150.915603 
L 79.728851 140.224844 
L 82.473551 136.993844 
L 85.218251 132.721873 
L 87.962951 126.303086 
L 90.70765 125.869348 
L 93.45235 119.905959 
L 96.19705 117.08693 
L 98.94175 115.091949 
L 101.686449 114.137725 
L 104.431149 110.516415 
L 107.175849 110.234512 
L 109.920548 111.015133 
L 112.665248 106.027521 
L 115.409948 109.323716 
L 118.154648 103.316899 
L 120.899347 103.425414 
L 123.644047 102.818181 
L 126.388747 100.085899 
L 129.133447 99.283511 
L 131.878146 100.909948 
L 134.622846 96.876452 
L 137.367546 96.095831 
L 140.112245 96.659637 
L 142.856945 95.575345 
L 148.346345 92.843064 
L 151.091044 92.409325 
L 153.835744 91.84552 
L 156.580444 92.561161 
L 159.325144 89.850539 
L 162.069843 91.455209 
L 164.814543 88.65784 
L 167.559243 86.901335 
L 170.303942 84.624451 
L 173.048642 85.665315 
L 175.793342 86.879675 
L 178.538042 83.041441 
L 181.282741 83.648567 
L 184.027441 82.716111 
L 186.772141 74.692654 
L 189.51684 67.731828 
L 192.26154 69.336498 
L 195.00624 66.257226 
L 197.75094 65.32477 
L 200.495639 63.156294 
L 203.240339 62.679236 
L 205.985039 62.939371 
L 208.729739 60.640828 
L 211.474438 62.744216 
L 214.219138 59.881867 
L 216.963838 56.629099 
L 219.708537 53.89671 
L 222.453237 48.518895 
L 225.197937 51.099341 
L 227.942637 48.583875 
L 230.687336 46.697302 
L 233.432036 48.020069 
L 236.176736 46.82737 
L 238.921436 45.417855 
L 241.666135 45.699758 
L 244.410835 44.658894 
L 247.155535 41.9917 
L 249.900234 39.671389 
L 252.644934 39.541214 
L 255.389634 38.153359 
L 258.134334 37.069175 
L 260.879033 38.587097 
L 263.623733 37.307651 
L 266.368433 37.199243 
L 269.113133 34.423534 
L 271.857832 35.941563 
L 274.602532 34.163398 
L 277.347232 34.618796 
L 282.836631 33.426097 
L 285.581331 32.320146 
L 288.326031 33.469417 
L 291.07073 31.214194 
L 293.81543 31.886407 
L 296.56013 29.175786 
L 299.30483 31.235854 
L 302.049529 28.395165 
L 304.794229 30.997379 
L 307.538929 30.780456 
L 310.283628 28.330077 
L 313.028328 30.303398 
L 318.517728 29.305961 
L 321.262427 29.262534 
L 324.007127 28.330077 
L 326.751827 29.175786 
L 329.496527 28.178242 
L 332.241226 28.677068 
L 334.985926 26.616999 
L 337.730626 29.587864 
L 340.475325 29.869767 
L 343.220025 29.089038 
L 345.964725 29.262534 
L 348.709425 28.26499 
L 351.454124 26.942223 
L 354.198824 28.26499 
L 356.943524 27.874679 
L 359.688223 27.853019 
L 362.432923 26.725407 
L 365.177623 27.701184 
L 367.922323 26.378417 
L 370.667022 27.245786 
L 373.411722 27.397621 
L 376.156422 26.421844 
L 378.901122 26.248349 
L 381.645821 26.486824 
L 384.390521 27.766271 
L 387.135221 27.701184 
L 389.87992 28.742155 
L 392.62462 25.07731 
L 395.36932 28.373505 
L 398.11402 27.224126 
L 400.858719 27.267553 
L 403.603419 26.313329 
L 406.348119 26.98565 
L 409.092819 28.048174 
L 411.837518 26.291669 
L 414.582218 28.178242 
L 417.326918 26.400077 
L 420.071617 27.462708 
L 422.816317 25.944786 
L 425.561017 28.24333 
L 428.305717 26.074854 
L 431.050416 27.159145 
L 433.795116 26.703747 
L 436.539816 27.636203 
L 439.284516 28.200009 
L 442.029215 26.118174 
L 444.773915 25.511048 
L 447.518615 27.939766 
L 450.263314 27.419281 
L 453.008014 25.315893 
L 455.752714 26.963883 
L 458.497414 28.286757 
L 461.242113 28.026514 
L 463.986813 27.072398 
L 466.731513 28.308417 
L 469.476213 26.096514 
L 472.220912 27.02897 
L 474.965612 26.768727 
L 477.710312 27.419281 
L 480.455011 27.180805 
L 483.199711 25.46762 
L 485.944411 26.530252 
L 488.689111 25.337553 
L 491.43381 27.462708 
L 494.17851 27.202465 
L 496.92321 26.248349 
L 499.66791 26.66032 
L 502.412609 26.248349 
L 507.902009 27.484368 
L 510.646708 28.004854 
L 513.391408 26.291669 
L 516.136108 25.901358 
L 518.880808 26.074854 
L 521.625507 25.229145 
L 524.370207 27.918106 
L 527.114907 26.790495 
L 529.859606 26.183261 
L 532.604306 26.898902 
L 535.349006 27.896339 
L 538.093706 27.00731 
L 540.838405 25.03399 
L 543.583105 27.484368 
L 546.327805 26.291669 
L 549.072505 28.93731 
L 551.817204 26.616999 
L 554.561904 27.896339 
L 557.306604 28.416825 
L 562.796003 26.074854 
L 565.540703 26.812155 
L 568.285403 25.359213 
L 571.030102 26.877242 
L 573.774802 27.00731 
L 576.519502 26.573572 
L 579.264202 24.903815 
L 582.008901 24.903815 
L 584.753601 25.294232 
L 587.498301 26.074854 
L 590.243 27.831359 
L 592.9877 27.310873 
L 595.7324 26.530252 
L 601.221799 26.053194 
L 603.966499 29.652844 
L 606.711199 27.527689 
L 609.455899 27.853019 
L 612.200598 26.63866 
L 614.945298 26.595232 
L 617.689998 27.00731 
L 617.689998 27.00731 
" style="fill:none;stroke:#c8102e;stroke-linecap:round;stroke-width:1.2;"/>
   </g>
   <g id="line2d_2">
    <path clip-path="url(#p427efd002b)" d="M 71.494752 154.90996 
L 74.239452 136.555817 
L 76.984152 124.585612 
L 79.728851 119.953676 
L 82.473551 118.305685 
L 85.218251 111.036793 
L 87.962951 114.78399 
L 90.70765 107.480463 
L 93.45235 109.007071 
L 96.19705 105.971226 
L 98.94175 105.433369 
L 101.686449 100.593303 
L 104.431149 98.580952 
L 107.175849 105.225239 
L 109.920548 99.465691 
L 112.665248 95.510365 
L 115.409948 95.250122 
L 118.154648 103.698632 
L 120.899347 95.909361 
L 123.644047 101.981158 
L 126.388747 95.805242 
L 129.133447 99.56981 
L 131.878146 93.862268 
L 134.622846 92.300918 
L 137.367546 91.780539 
L 140.112245 92.439778 
L 142.856945 90.149813 
L 145.601645 93.77552 
L 148.346345 90.010952 
L 151.091044 95.00725 
L 153.835744 94.66026 
L 156.580444 92.318289 
L 159.325144 91.867287 
L 162.069843 89.299708 
L 164.814543 91.711163 
L 167.559243 89.872199 
L 170.303942 88.727216 
L 173.048642 89.265073 
L 175.793342 85.257634 
L 178.538042 90.583444 
L 181.282741 88.605834 
L 184.027441 88.345591 
L 186.772141 84.338152 
L 189.51684 83.141164 
L 192.26154 84.823896 
L 195.00624 83.418777 
L 197.75094 83.488154 
L 200.495639 83.921892 
L 203.240339 89.837564 
L 205.985039 86.576112 
L 208.729739 85.101509 
L 211.474438 86.905731 
L 214.219138 83.852408 
L 216.963838 84.025903 
L 219.708537 83.713655 
L 222.453237 83.522789 
L 225.197937 86.125003 
L 227.942637 83.00241 
L 233.432036 86.00362 
L 236.176736 83.314659 
L 238.921436 86.020991 
L 241.666135 84.459641 
L 244.410835 85.968878 
L 247.155535 84.77189 
L 249.900234 83.193276 
L 252.644934 85.552511 
L 255.389634 86.107739 
L 258.134334 84.199399 
L 260.879033 85.049504 
L 263.623733 85.344381 
L 269.113133 83.731026 
L 271.857832 85.708743 
L 274.602532 84.286146 
L 277.347232 85.760748 
L 285.581331 84.945385 
L 288.326031 85.049504 
L 293.81543 84.737255 
L 296.56013 84.841267 
L 299.30483 85.275005 
L 302.049529 84.025903 
L 304.794229 84.546389 
L 307.538929 84.615766 
L 313.028328 85.240263 
L 315.773028 84.876009 
L 318.517728 85.170886 
L 321.262427 85.014762 
L 324.007127 85.32701 
L 326.751827 85.830125 
L 329.496527 85.708743 
L 332.241226 85.778119 
L 334.985926 85.413758 
L 337.730626 85.535247 
L 340.475325 85.830125 
L 343.220025 85.222999 
L 345.964725 85.500506 
L 354.198824 85.847496 
L 356.943524 85.639259 
L 359.688223 85.795383 
L 362.432923 85.760748 
L 365.177623 85.344381 
L 367.922323 85.743377 
L 370.667022 85.535247 
L 376.156422 85.621995 
L 378.901122 85.691372 
L 381.645821 85.413758 
L 389.87992 85.934244 
L 392.62462 85.726006 
L 395.36932 85.726006 
L 398.11402 85.552511 
L 403.603419 85.604624 
L 406.348119 85.431129 
L 409.092819 85.379123 
L 411.837518 85.569882 
L 414.582218 85.413758 
L 420.071617 85.4485 
L 422.816317 85.604624 
L 428.305717 85.604624 
L 431.050416 85.812754 
L 433.795116 85.847496 
L 439.284516 85.621995 
L 442.029215 85.691372 
L 444.773915 85.604624 
L 447.518615 85.760748 
L 463.986813 85.552511 
L 466.731513 85.691372 
L 469.476213 85.621995 
L 474.965612 85.621995 
L 477.710312 85.569882 
L 480.455011 85.674001 
L 488.689111 85.587253 
L 494.17851 85.691372 
L 496.92321 85.726006 
L 499.66791 85.604624 
L 507.902009 85.812754 
L 513.391408 85.743377 
L 516.136108 85.604624 
L 524.370207 85.65663 
L 527.114907 85.726006 
L 529.859606 85.587253 
L 532.604306 85.621995 
L 538.093706 85.483135 
L 540.838405 85.674001 
L 543.583105 85.500506 
L 546.327805 85.483135 
L 549.072505 85.604624 
L 554.561904 85.604624 
L 560.051303 85.639259 
L 562.796003 85.674001 
L 565.540703 85.552511 
L 571.030102 85.552511 
L 582.008901 85.587253 
L 590.243 85.552511 
L 592.9877 85.483135 
L 598.4771 85.621995 
L 612.200598 85.431129 
L 617.689998 85.587253 
L 617.689998 85.587253 
" style="fill:none;stroke:#00b388;stroke-linecap:round;stroke-width:1.2;"/>
   </g>
   <g id="line2d_3"/>
   <g id="line2d_4"/>
   <g id="patch_3">
    <path d="M 44.18499 208.560881 
L 44.18499 16.15824 
" style="fill:none;stroke:#262626;stroke-linecap:square;stroke-linejoin:miter;"/>
   </g>
   <g id="patch_4">
    <path d="M 644.99976 208.560881 
L 644.99976 16.15824 
" style="fill:none;stroke:#262626;stroke-linecap:square;stroke-linejoin:miter;"/>
   </g>
   <g id="patch_5">
    <path d="M 44.18499 208.560881 
L 644.99976 208.560881 
" style="fill:none;stroke:#262626;stroke-linecap:square;stroke-linejoin:miter;"/>
   </g>
   <g id="patch_6">
    <path d="M 44.18499 16.15824 
L 644.99976 16.15824 
" style="fill:none;stroke:#262626;stroke-linecap:square;stroke-linejoin:miter;"/>
   </g>
   <g id="PathCollection_1">
    <defs>
     <path d="M 0 0 
L 0 7.071068 
M 0 0 
L 5.656854 -3.535534 
M 0 0 
L -5.656854 -3.535534 
" id="m393181cfab" style="stroke:#888b8d;stroke-width:2;"/>
    </defs>
    <g clip-path="url(#p427efd002b)">
     <use style="fill:#888b8d;stroke:#888b8d;stroke-width:2;" x="189.51684" xlink:href="#m393181cfab" y="67.731828"/>
    </g>
   </g>
   <g id="PathCollection_2">
    <defs>
     <path d="M 0 0 
L 0 -7.071068 
M 0 0 
L -5.656854 3.535534 
M 0 0 
L 5.656854 3.535534 
" id="m1ecc4b292c" style="stroke:#888b8d;stroke-width:2;"/>
    </defs>
    <g clip-path="url(#p427efd002b)">
     <use style="fill:#888b8d;stroke:#888b8d;stroke-width:2;" x="189.51684" xlink:href="#m1ecc4b292c" y="83.141164"/>
    </g>
   </g>
   <g id="text_8">
    <!-- Pavia University 1D-CNN Training History -->
    <defs>
     <path d="M 24.703125 37.109375 
L 37.59375 37.109375 
Q 44.875 37.109375 48.671875 41.03125 
Q 52.484375 44.96875 52.484375 52.390625 
Q 52.484375 59.859375 48.671875 63.765625 
Q 44.875 67.671875 37.59375 67.671875 
L 24.703125 67.671875 
z
M 5.515625 0 
L 5.515625 5.171875 
L 14.796875 5.171875 
L 14.796875 67.671875 
L 5.515625 67.671875 
L 5.515625 72.90625 
L 39.984375 72.90625 
Q 50.921875 72.90625 57.3125 67.359375 
Q 63.71875 61.8125 63.71875 52.390625 
Q 63.71875 43.015625 57.3125 37.453125 
Q 50.921875 31.890625 39.984375 31.890625 
L 24.703125 31.890625 
L 24.703125 5.171875 
L 35.984375 5.171875 
L 35.984375 0 
z
" id="DejaVuSerif-80"/>
     <path d="M 24.703125 0 
L 5.609375 46.6875 
L -0.296875 46.6875 
L -0.296875 51.90625 
L 23.578125 51.90625 
L 23.578125 46.6875 
L 15.28125 46.6875 
L 29.890625 10.984375 
L 44.484375 46.6875 
L 36.71875 46.6875 
L 36.71875 51.90625 
L 56.203125 51.90625 
L 56.203125 46.6875 
L 50.390625 46.6875 
L 31.296875 0 
z
" id="DejaVuSerif-118"/>
     <path d="M 9.71875 68.015625 
Q 9.71875 70.265625 11.34375 71.921875 
Q 12.984375 73.578125 15.28125 73.578125 
Q 17.53125 73.578125 19.15625 71.921875 
Q 20.796875 70.265625 20.796875 68.015625 
Q 20.796875 65.71875 19.1875 64.109375 
Q 17.578125 62.5 15.28125 62.5 
Q 12.984375 62.5 11.34375 64.109375 
Q 9.71875 65.71875 9.71875 68.015625 
z
M 21.1875 5.171875 
L 29.6875 5.171875 
L 29.6875 0 
L 3.609375 0 
L 3.609375 5.171875 
L 12.203125 5.171875 
L 12.203125 46.6875 
L 3.609375 46.6875 
L 3.609375 51.90625 
L 21.1875 51.90625 
z
" id="DejaVuSerif-105"/>
     <path id="DejaVuSerif-32"/>
     <path d="M 14.015625 67.671875 
L 4.6875 67.671875 
L 4.6875 72.90625 
L 33.203125 72.90625 
L 33.203125 67.671875 
L 23.875 67.671875 
L 23.875 29.984375 
Q 23.875 16.015625 28.4375 10.5 
Q 33.015625 4.984375 44.1875 4.984375 
Q 55.375 4.984375 59.9375 10.5 
Q 64.5 16.015625 64.5 29.984375 
L 64.5 67.671875 
L 55.171875 67.671875 
L 55.171875 72.90625 
L 79.78125 72.90625 
L 79.78125 67.671875 
L 70.515625 67.671875 
L 70.515625 29 
Q 70.515625 12.359375 64.109375 5.46875 
Q 57.71875 -1.421875 42.390625 -1.421875 
Q 27.046875 -1.421875 20.53125 5.515625 
Q 14.015625 12.453125 14.015625 29 
z
" id="DejaVuSerif-85"/>
     <path d="M 4.109375 0 
L 4.109375 5.171875 
L 12.203125 5.171875 
L 12.203125 46.6875 
L 3.609375 46.6875 
L 3.609375 51.90625 
L 21.1875 51.90625 
L 21.1875 42.671875 
Q 23.6875 47.953125 27.65625 50.640625 
Q 31.640625 53.328125 36.921875 53.328125 
Q 45.515625 53.328125 49.5625 48.390625 
Q 53.609375 43.453125 53.609375 33.015625 
L 53.609375 5.171875 
L 61.625 5.171875 
L 61.625 0 
L 36.8125 0 
L 36.8125 5.171875 
L 44.578125 5.171875 
L 44.578125 30.171875 
Q 44.578125 39.703125 42.234375 43.234375 
Q 39.890625 46.78125 33.984375 46.78125 
Q 27.734375 46.78125 24.453125 42.203125 
Q 21.1875 37.640625 21.1875 28.90625 
L 21.1875 5.171875 
L 29 5.171875 
L 29 0 
z
" id="DejaVuSerif-110"/>
     <path d="M 54.203125 25 
L 15.484375 25 
L 15.484375 24.609375 
Q 15.484375 14.109375 19.4375 8.765625 
Q 23.390625 3.421875 31.109375 3.421875 
Q 37.015625 3.421875 40.796875 6.515625 
Q 44.578125 9.625 46.09375 15.71875 
L 53.328125 15.71875 
Q 51.171875 7.171875 45.375 2.875 
Q 39.59375 -1.421875 30.171875 -1.421875 
Q 18.796875 -1.421875 11.890625 6.078125 
Q 4.984375 13.578125 4.984375 25.984375 
Q 4.984375 38.28125 11.765625 45.796875 
Q 18.5625 53.328125 29.59375 53.328125 
Q 41.359375 53.328125 47.65625 46.0625 
Q 53.953125 38.8125 54.203125 25 
z
M 43.609375 30.171875 
Q 43.3125 39.265625 39.765625 43.875 
Q 36.234375 48.484375 29.59375 48.484375 
Q 23.390625 48.484375 19.828125 43.84375 
Q 16.265625 39.203125 15.484375 30.171875 
z
" id="DejaVuSerif-101"/>
     <path d="M 5.609375 2.875 
L 5.609375 14.984375 
L 10.796875 14.984375 
Q 10.984375 9.1875 14.421875 6.296875 
Q 17.875 3.421875 24.609375 3.421875 
Q 30.671875 3.421875 33.84375 5.6875 
Q 37.015625 7.953125 37.015625 12.3125 
Q 37.015625 15.71875 34.6875 17.8125 
Q 32.375 19.921875 24.90625 22.3125 
L 18.40625 24.515625 
Q 11.71875 26.65625 8.71875 29.875 
Q 5.71875 33.109375 5.71875 38.09375 
Q 5.71875 45.21875 10.9375 49.265625 
Q 16.15625 53.328125 25.390625 53.328125 
Q 29.5 53.328125 34.03125 52.25 
Q 38.578125 51.171875 43.40625 49.125 
L 43.40625 37.796875 
L 38.234375 37.796875 
Q 38.03125 42.828125 34.703125 45.65625 
Q 31.390625 48.484375 25.6875 48.484375 
Q 20.015625 48.484375 17.109375 46.484375 
Q 14.203125 44.484375 14.203125 40.484375 
Q 14.203125 37.203125 16.40625 35.21875 
Q 18.609375 33.25 25.203125 31.203125 
L 32.328125 29 
Q 39.703125 26.703125 42.9375 23.265625 
Q 46.1875 19.828125 46.1875 14.40625 
Q 46.1875 7.03125 40.546875 2.796875 
Q 34.90625 -1.421875 25 -1.421875 
Q 19.96875 -1.421875 15.1875 -0.34375 
Q 10.40625 0.734375 5.609375 2.875 
z
" id="DejaVuSerif-115"/>
     <path d="M 10.796875 46.6875 
L 2.875 46.6875 
L 2.875 51.90625 
L 10.796875 51.90625 
L 10.796875 68.015625 
L 19.828125 68.015625 
L 19.828125 51.90625 
L 36.71875 51.90625 
L 36.71875 46.6875 
L 19.828125 46.6875 
L 19.828125 13.71875 
Q 19.828125 7.125 21.09375 5.265625 
Q 22.359375 3.421875 25.78125 3.421875 
Q 29.296875 3.421875 30.90625 5.484375 
Q 32.515625 7.5625 32.625 12.203125 
L 39.40625 12.203125 
Q 39.015625 5.125 35.546875 1.84375 
Q 32.078125 -1.421875 25 -1.421875 
Q 17.234375 -1.421875 14.015625 2.015625 
Q 10.796875 5.46875 10.796875 13.71875 
z
" id="DejaVuSerif-116"/>
     <path d="M 14.203125 0 
L 14.203125 5.171875 
L 26.90625 5.171875 
L 26.90625 65.828125 
L 12.203125 56.296875 
L 12.203125 62.703125 
L 29.984375 74.21875 
L 36.71875 74.21875 
L 36.71875 5.171875 
L 49.421875 5.171875 
L 49.421875 0 
z
" id="DejaVuSerif-49"/>
     <path d="M 24.703125 5.171875 
L 33.796875 5.171875 
Q 48 5.171875 55.59375 13.28125 
Q 63.1875 21.390625 63.1875 36.53125 
Q 63.1875 51.65625 55.609375 59.65625 
Q 48.046875 67.671875 33.796875 67.671875 
L 24.703125 67.671875 
z
M 5.515625 0 
L 5.515625 5.171875 
L 14.796875 5.171875 
L 14.796875 67.671875 
L 5.515625 67.671875 
L 5.515625 72.90625 
L 34.515625 72.90625 
Q 53.375 72.90625 63.890625 63.28125 
Q 74.421875 53.65625 74.421875 36.53125 
Q 74.421875 19.34375 63.875 9.671875 
Q 53.328125 0 34.515625 0 
z
" id="DejaVuSerif-68"/>
     <path d="M 4.390625 30.609375 
L 29.390625 30.609375 
L 29.390625 23 
L 4.390625 23 
z
" id="DejaVuSerif-45"/>
     <path d="M 70.515625 19.28125 
Q 67.28125 9.078125 59.6875 3.828125 
Q 52.09375 -1.421875 40.484375 -1.421875 
Q 33.34375 -1.421875 27.234375 1.015625 
Q 21.140625 3.46875 16.40625 8.203125 
Q 10.9375 13.671875 8.265625 20.625 
Q 5.609375 27.59375 5.609375 36.375 
Q 5.609375 53.375 15.421875 63.796875 
Q 25.25 74.21875 41.3125 74.21875 
Q 47.265625 74.21875 54 72.65625 
Q 60.75 71.09375 68.5 67.921875 
L 68.5 51.125 
L 62.984375 51.125 
Q 61.1875 60.296875 55.734375 64.640625 
Q 50.296875 69 40.484375 69 
Q 28.8125 69 22.796875 60.71875 
Q 16.796875 52.4375 16.796875 36.375 
Q 16.796875 20.359375 22.796875 12.078125 
Q 28.8125 3.8125 40.484375 3.8125 
Q 48.640625 3.8125 53.90625 7.6875 
Q 59.1875 11.578125 61.53125 19.28125 
z
" id="DejaVuSerif-67"/>
     <path d="M 4.890625 0 
L 4.890625 5.171875 
L 14.703125 5.171875 
L 14.703125 67.671875 
L 4.890625 67.671875 
L 4.890625 72.90625 
L 23.578125 72.90625 
L 67.28125 15.375 
L 67.28125 67.671875 
L 57.515625 67.671875 
L 57.515625 72.90625 
L 83.109375 72.90625 
L 83.109375 67.671875 
L 73.296875 67.671875 
L 73.296875 -1.421875 
L 67.390625 -1.421875 
L 20.703125 60.015625 
L 20.703125 5.171875 
L 30.515625 5.171875 
L 30.515625 0 
z
" id="DejaVuSerif-78"/>
     <path d="M 19.09375 0 
L 19.09375 5.171875 
L 28.421875 5.171875 
L 28.421875 67.09375 
L 6.984375 67.09375 
L 6.984375 55.71875 
L 0.984375 55.71875 
L 0.984375 72.90625 
L 65.71875 72.90625 
L 65.71875 55.71875 
L 59.71875 55.71875 
L 59.71875 67.09375 
L 38.28125 67.09375 
L 38.28125 5.171875 
L 47.609375 5.171875 
L 47.609375 0 
z
" id="DejaVuSerif-84"/>
     <path d="M 52.484375 46.6875 
L 52.484375 1.125 
Q 52.484375 -10.0625 46.328125 -16.140625 
Q 40.1875 -22.21875 28.8125 -22.21875 
Q 23.6875 -22.21875 19 -21.28125 
Q 14.3125 -20.359375 10.015625 -18.5 
L 10.015625 -7.625 
L 14.703125 -7.625 
Q 15.578125 -12.703125 18.84375 -15.046875 
Q 22.125 -17.390625 28.21875 -17.390625 
Q 36.140625 -17.390625 39.8125 -12.921875 
Q 43.5 -8.453125 43.5 1.125 
L 43.5 8.109375 
Q 40.875 3.21875 36.796875 0.890625 
Q 32.71875 -1.421875 26.703125 -1.421875 
Q 17.140625 -1.421875 11.0625 6.171875 
Q 4.984375 13.765625 4.984375 25.984375 
Q 4.984375 38.1875 11.03125 45.75 
Q 17.09375 53.328125 26.703125 53.328125 
Q 32.71875 53.328125 36.796875 51 
Q 40.875 48.6875 43.5 43.796875 
L 43.5 51.90625 
L 61.078125 51.90625 
L 61.078125 46.6875 
z
M 43.5 28.515625 
Q 43.5 37.84375 39.90625 42.765625 
Q 36.328125 47.703125 29.5 47.703125 
Q 22.5625 47.703125 19.015625 42.234375 
Q 15.484375 36.765625 15.484375 25.984375 
Q 15.484375 15.234375 19.015625 9.71875 
Q 22.5625 4.203125 29.5 4.203125 
Q 36.328125 4.203125 39.90625 9.109375 
Q 43.5 14.015625 43.5 23.390625 
z
" id="DejaVuSerif-103"/>
     <path d="M 5.515625 0 
L 5.515625 5.171875 
L 14.796875 5.171875 
L 14.796875 67.671875 
L 5.515625 67.671875 
L 5.515625 72.90625 
L 33.984375 72.90625 
L 33.984375 67.671875 
L 24.703125 67.671875 
L 24.703125 42.484375 
L 62.5 42.484375 
L 62.5 67.671875 
L 53.21875 67.671875 
L 53.21875 72.90625 
L 81.6875 72.90625 
L 81.6875 67.671875 
L 72.40625 67.671875 
L 72.40625 5.171875 
L 81.6875 5.171875 
L 81.6875 0 
L 53.21875 0 
L 53.21875 5.171875 
L 62.5 5.171875 
L 62.5 36.53125 
L 24.703125 36.53125 
L 24.703125 5.171875 
L 33.984375 5.171875 
L 33.984375 0 
z
" id="DejaVuSerif-72"/>
     <path d="M 30.078125 3.421875 
Q 37.3125 3.421875 40.984375 9.125 
Q 44.671875 14.84375 44.671875 25.984375 
Q 44.671875 37.109375 40.984375 42.796875 
Q 37.3125 48.484375 30.078125 48.484375 
Q 22.859375 48.484375 19.171875 42.796875 
Q 15.484375 37.109375 15.484375 25.984375 
Q 15.484375 14.84375 19.1875 9.125 
Q 22.90625 3.421875 30.078125 3.421875 
z
M 30.078125 -1.421875 
Q 18.75 -1.421875 11.859375 6.078125 
Q 4.984375 13.578125 4.984375 25.984375 
Q 4.984375 38.375 11.84375 45.84375 
Q 18.703125 53.328125 30.078125 53.328125 
Q 41.453125 53.328125 48.3125 45.84375 
Q 55.171875 38.375 55.171875 25.984375 
Q 55.171875 13.578125 48.3125 6.078125 
Q 41.453125 -1.421875 30.078125 -1.421875 
z
" id="DejaVuSerif-111"/>
    </defs>
    <g style="fill:#262626;" transform="translate(240.842625 10.15824)scale(0.096 -0.096)">
     <use xlink:href="#DejaVuSerif-80"/>
     <use x="67.222656" xlink:href="#DejaVuSerif-97"/>
     <use x="126.841797" xlink:href="#DejaVuSerif-118"/>
     <use x="183.335938" xlink:href="#DejaVuSerif-105"/>
     <use x="215.318359" xlink:href="#DejaVuSerif-97"/>
     <use x="274.9375" xlink:href="#DejaVuSerif-32"/>
     <use x="306.724609" xlink:href="#DejaVuSerif-85"/>
     <use x="391.001953" xlink:href="#DejaVuSerif-110"/>
     <use x="455.40625" xlink:href="#DejaVuSerif-105"/>
     <use x="487.388672" xlink:href="#DejaVuSerif-118"/>
     <use x="543.882812" xlink:href="#DejaVuSerif-101"/>
     <use x="603.0625" xlink:href="#DejaVuSerif-114"/>
     <use x="650.865234" xlink:href="#DejaVuSerif-115"/>
     <use x="702.183594" xlink:href="#DejaVuSerif-105"/>
     <use x="734.166016" xlink:href="#DejaVuSerif-116"/>
     <use x="774.351562" xlink:href="#DejaVuSerif-121"/>
     <use x="830.845703" xlink:href="#DejaVuSerif-32"/>
     <use x="862.632812" xlink:href="#DejaVuSerif-49"/>
     <use x="926.255859" xlink:href="#DejaVuSerif-68"/>
     <use x="1006.447266" xlink:href="#DejaVuSerif-45"/>
     <use x="1040.236328" xlink:href="#DejaVuSerif-67"/>
     <use x="1116.75" xlink:href="#DejaVuSerif-78"/>
     <use x="1204.25" xlink:href="#DejaVuSerif-78"/>
     <use x="1291.75" xlink:href="#DejaVuSerif-32"/>
     <use x="1323.537109" xlink:href="#DejaVuSerif-84"/>
     <use x="1390.236328" xlink:href="#DejaVuSerif-114"/>
     <use x="1438.039062" xlink:href="#DejaVuSerif-97"/>
     <use x="1497.658203" xlink:href="#DejaVuSerif-105"/>
     <use x="1529.640625" xlink:href="#DejaVuSerif-110"/>
     <use x="1594.044922" xlink:href="#DejaVuSerif-105"/>
     <use x="1626.027344" xlink:href="#DejaVuSerif-110"/>
     <use x="1690.431641" xlink:href="#DejaVuSerif-103"/>
     <use x="1754.445312" xlink:href="#DejaVuSerif-32"/>
     <use x="1786.232422" xlink:href="#DejaVuSerif-72"/>
     <use x="1873.439453" xlink:href="#DejaVuSerif-105"/>
     <use x="1905.421875" xlink:href="#DejaVuSerif-115"/>
     <use x="1956.740234" xlink:href="#DejaVuSerif-116"/>
     <use x="1996.925781" xlink:href="#DejaVuSerif-111"/>
     <use x="2057.130859" xlink:href="#DejaVuSerif-114"/>
     <use x="2104.933594" xlink:href="#DejaVuSerif-121"/>
    </g>
   </g>
  </g>
  <g id="axes_2">
   <g id="legend_1">
    <g id="line2d_5">
     <path d="M 223.119375 224.810813 
L 240.719375 224.810813 
" style="fill:none;stroke:#c8102e;stroke-linecap:round;stroke-width:1.2;"/>
    </g>
    <g id="line2d_6"/>
    <g id="text_9">
     <!-- Training -->
     <g style="fill:#262626;" transform="translate(247.759375 227.890813)scale(0.088 -0.088)">
      <use xlink:href="#DejaVuSerif-84"/>
      <use x="66.699219" xlink:href="#DejaVuSerif-114"/>
      <use x="114.501953" xlink:href="#DejaVuSerif-97"/>
      <use x="174.121094" xlink:href="#DejaVuSerif-105"/>
      <use x="206.103516" xlink:href="#DejaVuSerif-110"/>
      <use x="270.507812" xlink:href="#DejaVuSerif-105"/>
      <use x="302.490234" xlink:href="#DejaVuSerif-110"/>
      <use x="366.894531" xlink:href="#DejaVuSerif-103"/>
     </g>
    </g>
    <g id="line2d_7">
     <path d="M 303.2805 224.810813 
L 320.8805 224.810813 
" style="fill:none;stroke:#00b388;stroke-linecap:round;stroke-width:1.2;"/>
    </g>
    <g id="line2d_8"/>
    <g id="text_10">
     <!-- Validation -->
     <defs>
      <path d="M 17.484375 67.671875 
L 39.015625 11.71875 
L 60.5 67.671875 
L 52.296875 67.671875 
L 52.296875 72.90625 
L 73.6875 72.90625 
L 73.6875 67.671875 
L 66.609375 67.671875 
L 40.578125 0 
L 32.171875 0 
L 6.296875 67.671875 
L -0.984375 67.671875 
L -0.984375 72.90625 
L 25.59375 72.90625 
L 25.59375 67.671875 
z
" id="DejaVuSerif-86"/>
      <path d="M 20.515625 5.171875 
L 29 5.171875 
L 29 0 
L 2.875 0 
L 2.875 5.171875 
L 11.53125 5.171875 
L 11.53125 70.796875 
L 2.875 70.796875 
L 2.875 75.984375 
L 20.515625 75.984375 
z
" id="DejaVuSerif-108"/>
      <path d="M 52.484375 5.171875 
L 61.078125 5.171875 
L 61.078125 0 
L 43.5 0 
L 43.5 8.109375 
Q 40.875 3.21875 36.796875 0.890625 
Q 32.71875 -1.421875 26.703125 -1.421875 
Q 17.140625 -1.421875 11.0625 6.171875 
Q 4.984375 13.765625 4.984375 25.984375 
Q 4.984375 38.1875 11.03125 45.75 
Q 17.09375 53.328125 26.703125 53.328125 
Q 32.71875 53.328125 36.796875 51 
Q 40.875 48.6875 43.5 43.796875 
L 43.5 70.796875 
L 35.015625 70.796875 
L 35.015625 75.984375 
L 52.484375 75.984375 
z
M 43.5 23.390625 
L 43.5 28.515625 
Q 43.5 37.84375 39.90625 42.765625 
Q 36.328125 47.703125 29.5 47.703125 
Q 22.5625 47.703125 19.015625 42.234375 
Q 15.484375 36.765625 15.484375 25.984375 
Q 15.484375 15.234375 19.015625 9.71875 
Q 22.5625 4.203125 29.5 4.203125 
Q 36.328125 4.203125 39.90625 9.109375 
Q 43.5 14.015625 43.5 23.390625 
z
" id="DejaVuSerif-100"/>
     </defs>
     <g style="fill:#262626;" transform="translate(327.9205 227.890813)scale(0.088 -0.088)">
      <use xlink:href="#DejaVuSerif-86"/>
      <use x="72.076172" xlink:href="#DejaVuSerif-97"/>
      <use x="131.695312" xlink:href="#DejaVuSerif-108"/>
      <use x="163.677734" xlink:href="#DejaVuSerif-105"/>
      <use x="195.660156" xlink:href="#DejaVuSerif-100"/>
      <use x="259.673828" xlink:href="#DejaVuSerif-97"/>
      <use x="319.292969" xlink:href="#DejaVuSerif-116"/>
      <use x="359.478516" xlink:href="#DejaVuSerif-105"/>
      <use x="391.460938" xlink:href="#DejaVuSerif-111"/>
      <use x="451.666016" xlink:href="#DejaVuSerif-110"/>
     </g>
    </g>
    <g id="PathCollection_3">
     <path d="M 393.57675 225.580813 
L 393.57675 218.509745 
M 393.57675 225.580813 
L 387.919896 229.116346 
M 393.57675 225.580813 
L 399.233604 229.116346 
" style="fill:#888b8d;stroke:#888b8d;stroke-width:2;"/>
     <path d="M 393.57675 224.810813 
L 393.57675 217.739745 
M 393.57675 224.810813 
L 387.919896 228.346346 
M 393.57675 224.810813 
L 399.233604 228.346346 
" style="fill:#888b8d;stroke:#888b8d;stroke-width:2;"/>
    </g>
    <g id="PathCollection_4">
     <path d="M 405.89675 225.580813 
L 405.89675 232.65188 
M 405.89675 225.580813 
L 411.553604 222.045279 
M 405.89675 225.580813 
L 400.239896 222.045279 
" style="fill:#888b8d;stroke:#888b8d;stroke-width:2;"/>
     <path d="M 405.89675 224.810813 
L 405.89675 231.88188 
M 405.89675 224.810813 
L 411.553604 221.275279 
M 405.89675 224.810813 
L 400.239896 221.275279 
" style="fill:#888b8d;stroke:#888b8d;stroke-width:2;"/>
    </g>
    <g id="text_11">
     <!-- Best Model -->
     <defs>
      <path d="M 24.703125 5.171875 
L 39.3125 5.171875 
Q 48.09375 5.171875 52.140625 8.984375 
Q 56.203125 12.796875 56.203125 21.09375 
Q 56.203125 29.34375 52.171875 33.125 
Q 48.140625 36.921875 39.3125 36.921875 
L 24.703125 36.921875 
z
M 24.703125 42.09375 
L 37.109375 42.09375 
Q 45.125 42.09375 48.796875 45.171875 
Q 52.484375 48.25 52.484375 54.890625 
Q 52.484375 61.578125 48.796875 64.625 
Q 45.125 67.671875 37.109375 67.671875 
L 24.703125 67.671875 
z
M 5.515625 0 
L 5.515625 5.171875 
L 14.796875 5.171875 
L 14.796875 67.671875 
L 5.515625 67.671875 
L 5.515625 72.90625 
L 41.5 72.90625 
Q 52.546875 72.90625 58.125 68.390625 
Q 63.71875 63.875 63.71875 54.890625 
Q 63.71875 48.390625 59.828125 44.53125 
Q 55.953125 40.671875 48.484375 39.796875 
Q 57.765625 38.625 62.578125 33.859375 
Q 67.390625 29.109375 67.390625 21.09375 
Q 67.390625 10.25 60.546875 5.125 
Q 53.71875 0 39.203125 0 
z
" id="DejaVuSerif-66"/>
      <path d="M 5.515625 0 
L 5.515625 5.171875 
L 14.796875 5.171875 
L 14.796875 67.671875 
L 4.984375 67.671875 
L 4.984375 72.90625 
L 26.21875 72.90625 
L 51.8125 21 
L 77.390625 72.90625 
L 97.3125 72.90625 
L 97.3125 67.671875 
L 87.59375 67.671875 
L 87.59375 5.171875 
L 96.921875 5.171875 
L 96.921875 0 
L 68.40625 0 
L 68.40625 5.171875 
L 77.6875 5.171875 
L 77.6875 61.53125 
L 52.6875 10.6875 
L 45.796875 10.6875 
L 20.796875 61.53125 
L 20.796875 5.171875 
L 30.078125 5.171875 
L 30.078125 0 
z
" id="DejaVuSerif-77"/>
     </defs>
     <g style="fill:#262626;" transform="translate(415.57675 227.890813)scale(0.088 -0.088)">
      <use xlink:href="#DejaVuSerif-66"/>
      <use x="73.486328" xlink:href="#DejaVuSerif-101"/>
      <use x="132.666016" xlink:href="#DejaVuSerif-115"/>
      <use x="183.984375" xlink:href="#DejaVuSerif-116"/>
      <use x="224.169922" xlink:href="#DejaVuSerif-32"/>
      <use x="255.957031" xlink:href="#DejaVuSerif-77"/>
      <use x="358.349609" xlink:href="#DejaVuSerif-111"/>
      <use x="418.554688" xlink:href="#DejaVuSerif-100"/>
      <use x="482.568359" xlink:href="#DejaVuSerif-101"/>
      <use x="541.748047" xlink:href="#DejaVuSerif-108"/>
     </g>
    </g>
   </g>
  </g>
  <g id="axes_3">
   <g id="patch_7">
    <path d="M 44.18499 434.89201 
L 644.99976 434.89201 
L 644.99976 242.489369 
L 44.18499 242.489369 
z
" style="fill:#ffffff;"/>
   </g>
   <g id="matplotlib.axis_3">
    <g id="xtick_1">
     <g id="text_12">
      <!-- 0 -->
      <g style="fill:#262626;" transform="translate(68.695252 449.878635)scale(0.088 -0.088)">
       <use xlink:href="#DejaVuSerif-48"/>
      </g>
     </g>
    </g>
    <g id="xtick_2">
     <g id="text_13">
      <!-- 25 -->
      <defs>
       <path d="M 50.296875 72.90625 
L 50.296875 64.890625 
L 16.890625 64.890625 
L 16.890625 44 
Q 19.4375 45.75 22.828125 46.625 
Q 26.21875 47.515625 30.421875 47.515625 
Q 42.234375 47.515625 49.0625 40.96875 
Q 55.90625 34.421875 55.90625 23.09375 
Q 55.90625 11.53125 49 5.046875 
Q 42.09375 -1.421875 29.59375 -1.421875 
Q 24.5625 -1.421875 19.28125 -0.1875 
Q 14.015625 1.03125 8.5 3.515625 
L 8.5 17.671875 
L 14.015625 17.671875 
Q 14.453125 10.75 18.421875 7.078125 
Q 22.40625 3.421875 29.59375 3.421875 
Q 37.3125 3.421875 41.453125 8.5 
Q 45.609375 13.578125 45.609375 23.09375 
Q 45.609375 32.5625 41.484375 37.609375 
Q 37.359375 42.671875 29.59375 42.671875 
Q 25.203125 42.671875 21.84375 41.109375 
Q 18.5 39.546875 15.921875 36.28125 
L 11.71875 36.28125 
L 11.71875 72.90625 
z
" id="DejaVuSerif-53"/>
      </defs>
      <g style="fill:#262626;" transform="translate(134.513245 449.878635)scale(0.088 -0.088)">
       <use xlink:href="#DejaVuSerif-50"/>
       <use x="63.623047" xlink:href="#DejaVuSerif-53"/>
      </g>
     </g>
    </g>
    <g id="xtick_3">
     <g id="text_14">
      <!-- 50 -->
      <g style="fill:#262626;" transform="translate(203.130739 449.878635)scale(0.088 -0.088)">
       <use xlink:href="#DejaVuSerif-53"/>
       <use x="63.623047" xlink:href="#DejaVuSerif-48"/>
      </g>
     </g>
    </g>
    <g id="xtick_4">
     <g id="text_15">
      <!-- 75 -->
      <defs>
       <path d="M 56.390625 67.921875 
L 27.875 0 
L 20.609375 0 
L 47.796875 64.890625 
L 14.109375 64.890625 
L 14.109375 55.90625 
L 8.40625 55.90625 
L 8.40625 72.90625 
L 56.390625 72.90625 
z
" id="DejaVuSerif-55"/>
      </defs>
      <g style="fill:#262626;" transform="translate(271.748232 449.878635)scale(0.088 -0.088)">
       <use xlink:href="#DejaVuSerif-55"/>
       <use x="63.623047" xlink:href="#DejaVuSerif-53"/>
      </g>
     </g>
    </g>
    <g id="xtick_5">
     <g id="text_16">
      <!-- 100 -->
      <g style="fill:#262626;" transform="translate(337.566225 449.878635)scale(0.088 -0.088)">
       <use xlink:href="#DejaVuSerif-49"/>
       <use x="63.623047" xlink:href="#DejaVuSerif-48"/>
       <use x="127.246094" xlink:href="#DejaVuSerif-48"/>
      </g>
     </g>
    </g>
    <g id="xtick_6">
     <g id="text_17">
      <!-- 125 -->
      <g style="fill:#262626;" transform="translate(406.183718 449.878635)scale(0.088 -0.088)">
       <use xlink:href="#DejaVuSerif-49"/>
       <use x="63.623047" xlink:href="#DejaVuSerif-50"/>
       <use x="127.246094" xlink:href="#DejaVuSerif-53"/>
      </g>
     </g>
    </g>
    <g id="xtick_7">
     <g id="text_18">
      <!-- 150 -->
      <g style="fill:#262626;" transform="translate(474.801211 449.878635)scale(0.088 -0.088)">
       <use xlink:href="#DejaVuSerif-49"/>
       <use x="63.623047" xlink:href="#DejaVuSerif-53"/>
       <use x="127.246094" xlink:href="#DejaVuSerif-48"/>
      </g>
     </g>
    </g>
    <g id="xtick_8">
     <g id="text_19">
      <!-- 175 -->
      <g style="fill:#262626;" transform="translate(543.418704 449.878635)scale(0.088 -0.088)">
       <use xlink:href="#DejaVuSerif-49"/>
       <use x="63.623047" xlink:href="#DejaVuSerif-55"/>
       <use x="127.246094" xlink:href="#DejaVuSerif-53"/>
      </g>
     </g>
    </g>
    <g id="xtick_9">
     <g id="text_20">
      <!-- 200 -->
      <g style="fill:#262626;" transform="translate(612.036197 449.878635)scale(0.088 -0.088)">
       <use xlink:href="#DejaVuSerif-50"/>
       <use x="63.623047" xlink:href="#DejaVuSerif-48"/>
       <use x="127.246094" xlink:href="#DejaVuSerif-48"/>
      </g>
     </g>
    </g>
    <g id="text_21">
     <!-- Epoch -->
     <defs>
      <path d="M 5.515625 0 
L 5.515625 5.171875 
L 14.796875 5.171875 
L 14.796875 67.671875 
L 5.515625 67.671875 
L 5.515625 72.90625 
L 64.203125 72.90625 
L 64.203125 56.6875 
L 58.203125 56.6875 
L 58.203125 66.890625 
L 24.703125 66.890625 
L 24.703125 42.484375 
L 48.578125 42.484375 
L 48.578125 51.609375 
L 54.59375 51.609375 
L 54.59375 27.390625 
L 48.578125 27.390625 
L 48.578125 36.53125 
L 24.703125 36.53125 
L 24.703125 6 
L 58.984375 6 
L 58.984375 16.21875 
L 64.984375 16.21875 
L 64.984375 0 
z
" id="DejaVuSerif-69"/>
      <path d="M 20.515625 28.515625 
L 20.515625 23.390625 
Q 20.515625 14.015625 24.09375 9.109375 
Q 27.6875 4.203125 34.515625 4.203125 
Q 41.40625 4.203125 44.9375 9.71875 
Q 48.484375 15.234375 48.484375 25.984375 
Q 48.484375 36.765625 44.9375 42.234375 
Q 41.40625 47.703125 34.515625 47.703125 
Q 27.6875 47.703125 24.09375 42.765625 
Q 20.515625 37.84375 20.515625 28.515625 
z
M 11.53125 46.6875 
L 2.875 46.6875 
L 2.875 51.90625 
L 20.515625 51.90625 
L 20.515625 43.796875 
Q 23.140625 48.6875 27.21875 51 
Q 31.296875 53.328125 37.3125 53.328125 
Q 46.875 53.328125 52.921875 45.75 
Q 58.984375 38.1875 58.984375 25.984375 
Q 58.984375 13.765625 52.921875 6.171875 
Q 46.875 -1.421875 37.3125 -1.421875 
Q 31.296875 -1.421875 27.21875 0.890625 
Q 23.140625 3.21875 20.515625 8.109375 
L 20.515625 -15.578125 
L 29 -15.578125 
L 29 -20.796875 
L 2.875 -20.796875 
L 2.875 -15.578125 
L 11.53125 -15.578125 
z
" id="DejaVuSerif-112"/>
      <path d="M 4.109375 0 
L 4.109375 5.171875 
L 12.203125 5.171875 
L 12.203125 70.796875 
L 3.609375 70.796875 
L 3.609375 75.984375 
L 21.1875 75.984375 
L 21.1875 42.671875 
Q 23.6875 47.953125 27.65625 50.640625 
Q 31.640625 53.328125 36.921875 53.328125 
Q 45.515625 53.328125 49.5625 48.390625 
Q 53.609375 43.453125 53.609375 33.015625 
L 53.609375 5.171875 
L 61.625 5.171875 
L 61.625 0 
L 36.8125 0 
L 36.8125 5.171875 
L 44.578125 5.171875 
L 44.578125 30.171875 
Q 44.578125 39.703125 42.25 43.1875 
Q 39.9375 46.6875 33.984375 46.6875 
Q 27.734375 46.6875 24.453125 42.140625 
Q 21.1875 37.59375 21.1875 28.90625 
L 21.1875 5.171875 
L 29 5.171875 
L 29 0 
z
" id="DejaVuSerif-104"/>
     </defs>
     <g style="fill:#262626;" transform="translate(329.346375 463.00326)scale(0.096 -0.096)">
      <use xlink:href="#DejaVuSerif-69"/>
      <use x="72.998047" xlink:href="#DejaVuSerif-112"/>
      <use x="137.011719" xlink:href="#DejaVuSerif-111"/>
      <use x="197.216797" xlink:href="#DejaVuSerif-99"/>
      <use x="253.222656" xlink:href="#DejaVuSerif-104"/>
     </g>
    </g>
   </g>
   <g id="matplotlib.axis_4">
    <g id="ytick_7">
     <g id="text_22">
      <!-- 0.25 -->
      <g style="fill:#262626;" transform="translate(16.29124 417.012422)scale(0.088 -0.088)">
       <use xlink:href="#DejaVuSerif-48"/>
       <use x="63.623047" xlink:href="#DejaVuSerif-46"/>
       <use x="95.410156" xlink:href="#DejaVuSerif-50"/>
       <use x="159.033203" xlink:href="#DejaVuSerif-53"/>
      </g>
     </g>
    </g>
    <g id="ytick_8">
     <g id="text_23">
      <!-- 0.30 -->
      <defs>
       <path d="M 9.71875 69.828125 
Q 15.4375 71.96875 20.671875 73.09375 
Q 25.921875 74.21875 30.515625 74.21875 
Q 41.21875 74.21875 47.21875 69.59375 
Q 53.21875 64.984375 53.21875 56.78125 
Q 53.21875 50.203125 49.0625 45.78125 
Q 44.921875 41.359375 37.3125 39.796875 
Q 46.296875 38.53125 51.25 33.28125 
Q 56.203125 28.03125 56.203125 19.671875 
Q 56.203125 9.46875 49.34375 4.015625 
Q 42.484375 -1.421875 29.59375 -1.421875 
Q 23.875 -1.421875 18.421875 -0.1875 
Q 12.984375 1.03125 7.625 3.515625 
L 7.625 17.671875 
L 13.09375 17.671875 
Q 13.578125 10.640625 17.828125 7.03125 
Q 22.078125 3.421875 29.78125 3.421875 
Q 37.25 3.421875 41.578125 7.734375 
Q 45.90625 12.0625 45.90625 19.578125 
Q 45.90625 28.171875 41.453125 32.59375 
Q 37.015625 37.015625 28.421875 37.015625 
L 23.78125 37.015625 
L 23.78125 42 
L 26.21875 42 
Q 34.765625 42 39.03125 45.53125 
Q 43.3125 49.078125 43.3125 56.203125 
Q 43.3125 62.59375 39.796875 65.984375 
Q 36.28125 69.390625 29.6875 69.390625 
Q 23.09375 69.390625 19.453125 66.265625 
Q 15.828125 63.140625 15.1875 56.984375 
L 9.71875 56.984375 
z
" id="DejaVuSerif-51"/>
      </defs>
      <g style="fill:#262626;" transform="translate(16.29124 391.783521)scale(0.088 -0.088)">
       <use xlink:href="#DejaVuSerif-48"/>
       <use x="63.623047" xlink:href="#DejaVuSerif-46"/>
       <use x="95.410156" xlink:href="#DejaVuSerif-51"/>
       <use x="159.033203" xlink:href="#DejaVuSerif-48"/>
      </g>
     </g>
    </g>
    <g id="ytick_9">
     <g id="text_24">
      <!-- 0.35 -->
      <g style="fill:#262626;" transform="translate(16.29124 366.55462)scale(0.088 -0.088)">
       <use xlink:href="#DejaVuSerif-48"/>
       <use x="63.623047" xlink:href="#DejaVuSerif-46"/>
       <use x="95.410156" xlink:href="#DejaVuSerif-51"/>
       <use x="159.033203" xlink:href="#DejaVuSerif-53"/>
      </g>
     </g>
    </g>
    <g id="ytick_10">
     <g id="text_25">
      <!-- 0.40 -->
      <g style="fill:#262626;" transform="translate(16.29124 341.325719)scale(0.088 -0.088)">
       <use xlink:href="#DejaVuSerif-48"/>
       <use x="63.623047" xlink:href="#DejaVuSerif-46"/>
       <use x="95.410156" xlink:href="#DejaVuSerif-52"/>
       <use x="159.033203" xlink:href="#DejaVuSerif-48"/>
      </g>
     </g>
    </g>
    <g id="ytick_11">
     <g id="text_26">
      <!-- 0.45 -->
      <g style="fill:#262626;" transform="translate(16.29124 316.096818)scale(0.088 -0.088)">
       <use xlink:href="#DejaVuSerif-48"/>
       <use x="63.623047" xlink:href="#DejaVuSerif-46"/>
       <use x="95.410156" xlink:href="#DejaVuSerif-52"/>
       <use x="159.033203" xlink:href="#DejaVuSerif-53"/>
      </g>
     </g>
    </g>
    <g id="ytick_12">
     <g id="text_27">
      <!-- 0.50 -->
      <g style="fill:#262626;" transform="translate(16.29124 290.867917)scale(0.088 -0.088)">
       <use xlink:href="#DejaVuSerif-48"/>
       <use x="63.623047" xlink:href="#DejaVuSerif-46"/>
       <use x="95.410156" xlink:href="#DejaVuSerif-53"/>
       <use x="159.033203" xlink:href="#DejaVuSerif-48"/>
      </g>
     </g>
    </g>
    <g id="ytick_13">
     <g id="text_28">
      <!-- 0.55 -->
      <g style="fill:#262626;" transform="translate(16.29124 265.639016)scale(0.088 -0.088)">
       <use xlink:href="#DejaVuSerif-48"/>
       <use x="63.623047" xlink:href="#DejaVuSerif-46"/>
       <use x="95.410156" xlink:href="#DejaVuSerif-53"/>
       <use x="159.033203" xlink:href="#DejaVuSerif-53"/>
      </g>
     </g>
    </g>
    <g id="text_29">
     <!-- Loss -->
     <defs>
      <path d="M 5.515625 0 
L 5.515625 5.171875 
L 14.796875 5.171875 
L 14.796875 67.671875 
L 5.515625 67.671875 
L 5.515625 72.90625 
L 33.984375 72.90625 
L 33.984375 67.671875 
L 24.703125 67.671875 
L 24.703125 6 
L 58.015625 6 
L 58.015625 18.21875 
L 64.015625 18.21875 
L 64.015625 0 
z
" id="DejaVuSerif-76"/>
     </defs>
     <g style="fill:#262626;" transform="translate(10.29474 349.69394)rotate(-90)scale(0.096 -0.096)">
      <use xlink:href="#DejaVuSerif-76"/>
      <use x="66.40625" xlink:href="#DejaVuSerif-111"/>
      <use x="126.611328" xlink:href="#DejaVuSerif-115"/>
      <use x="177.929688" xlink:href="#DejaVuSerif-115"/>
     </g>
    </g>
   </g>
   <g id="line2d_9">
    <path clip-path="url(#p05dce059bc)" d="M 71.494752 251.234944 
L 74.239452 319.384897 
L 76.984152 333.243365 
L 79.728851 340.485652 
L 82.473551 345.515187 
L 85.218251 349.955895 
L 87.962951 353.087565 
L 90.70765 354.504572 
L 93.45235 358.286573 
L 96.19705 358.465791 
L 98.94175 361.401025 
L 101.686449 361.642724 
L 104.431149 363.762409 
L 109.920548 365.862559 
L 112.665248 368.44865 
L 115.409948 368.379192 
L 118.154648 370.00238 
L 120.899347 370.093342 
L 123.644047 370.65223 
L 126.388747 373.001147 
L 129.133447 373.803794 
L 131.878146 374.425779 
L 134.622846 374.74996 
L 137.367546 375.501058 
L 140.112245 376.784125 
L 142.856945 377.745118 
L 148.346345 378.040035 
L 151.091044 380.344246 
L 153.835744 379.462291 
L 159.325144 381.14163 
L 162.069843 381.325525 
L 164.814543 382.469405 
L 167.559243 382.776382 
L 170.303942 384.151164 
L 173.048642 384.711014 
L 175.793342 384.750638 
L 178.538042 386.246518 
L 181.282741 386.242443 
L 184.027441 386.365405 
L 186.772141 393.790595 
L 189.51684 397.112505 
L 195.00624 398.357904 
L 197.75094 399.659242 
L 200.495639 399.561648 
L 203.240339 401.605814 
L 205.985039 400.967378 
L 208.729739 401.995108 
L 211.474438 402.168987 
L 214.219138 402.688296 
L 216.963838 404.5718 
L 219.708537 407.975003 
L 222.453237 410.118207 
L 225.197937 410.082643 
L 227.942637 410.906733 
L 230.687336 411.248403 
L 233.432036 411.82538 
L 236.176736 412.274869 
L 238.921436 413.325711 
L 241.666135 413.313741 
L 244.410835 413.865614 
L 247.155535 416.402043 
L 249.900234 417.492524 
L 255.389634 417.770893 
L 258.134334 418.612682 
L 263.623733 418.716156 
L 266.368433 419.215073 
L 269.113133 419.273021 
L 271.857832 419.506404 
L 274.602532 420.543404 
L 277.347232 421.20381 
L 280.091931 421.012126 
L 285.581331 421.471029 
L 288.326031 420.758502 
L 291.07073 422.10642 
L 293.81543 421.484585 
L 296.56013 422.853901 
L 299.30483 422.594405 
L 302.049529 422.928299 
L 304.794229 422.916939 
L 307.538929 423.33333 
L 310.283628 423.212683 
L 313.028328 422.82648 
L 318.517728 423.677924 
L 321.262427 423.1186 
L 324.007127 423.624458 
L 326.751827 423.694773 
L 329.496527 424.404382 
L 332.241226 423.458909 
L 334.985926 424.714841 
L 337.730626 424.351044 
L 340.475325 423.624021 
L 345.964725 424.785834 
L 348.709425 423.388051 
L 351.454124 424.956668 
L 354.198824 423.640473 
L 356.943524 424.655495 
L 359.688223 425.109345 
L 362.432923 424.829586 
L 365.177623 424.695089 
L 370.667022 425.44739 
L 373.411722 425.073796 
L 376.156422 425.395834 
L 384.390521 424.527796 
L 387.135221 425.449398 
L 389.87992 424.700781 
L 392.62462 425.52218 
L 395.36932 424.832315 
L 400.858719 425.463405 
L 403.603419 425.047556 
L 406.348119 425.442225 
L 409.092819 425.147548 
L 411.837518 425.280901 
L 414.582218 425.243307 
L 417.326918 425.388435 
L 420.071617 424.859631 
L 422.816317 425.327698 
L 425.561017 424.898962 
L 428.305717 425.186713 
L 431.050416 425.665759 
L 433.795116 425.120879 
L 436.539816 425.565864 
L 439.284516 424.200458 
L 442.029215 425.054232 
L 444.773915 425.59733 
L 447.518615 425.109947 
L 450.263314 425.189563 
L 453.008014 425.688909 
L 455.752714 425.694992 
L 458.497414 424.124292 
L 461.242113 425.047638 
L 463.986813 425.743458 
L 469.476213 425.2693 
L 472.220912 425.181142 
L 477.710312 424.834826 
L 480.455011 425.699834 
L 483.199711 425.075616 
L 485.944411 424.720804 
L 488.689111 425.354909 
L 491.43381 425.06515 
L 494.17851 424.893255 
L 499.66791 425.940217 
L 502.412609 425.302676 
L 505.157309 425.398458 
L 507.902009 424.586653 
L 510.646708 424.529195 
L 513.391408 425.068774 
L 518.880808 425.098864 
L 521.625507 425.694405 
L 524.370207 424.493924 
L 527.114907 425.012909 
L 529.859606 426.020954 
L 532.604306 424.965571 
L 535.349006 424.725653 
L 538.093706 425.103435 
L 540.838405 425.314044 
L 543.583105 426.14618 
L 546.327805 424.731022 
L 549.072505 424.944683 
L 551.817204 425.700789 
L 554.561904 424.770638 
L 557.306604 425.029962 
L 560.051303 424.998285 
L 562.796003 425.568323 
L 568.285403 425.58545 
L 571.030102 424.856578 
L 573.774802 425.313841 
L 576.519502 425.332947 
L 579.264202 426.146435 
L 582.008901 426.119285 
L 584.753601 425.422323 
L 587.498301 425.97924 
L 590.243 425.521338 
L 595.7324 425.202774 
L 598.4771 425.254924 
L 601.221799 425.429473 
L 603.966499 424.943849 
L 606.711199 425.255871 
L 609.455899 425.289315 
L 612.200598 426.114007 
L 614.945298 425.51833 
L 617.689998 424.555984 
L 617.689998 424.555984 
" style="fill:none;stroke:#c8102e;stroke-linecap:round;stroke-width:1.2;"/>
   </g>
   <g id="line2d_10">
    <path clip-path="url(#p05dce059bc)" d="M 71.494752 329.202207 
L 74.239452 345.274104 
L 76.984152 355.648858 
L 79.728851 357.724182 
L 82.473551 360.949521 
L 85.218251 363.1468 
L 87.962951 365.03889 
L 90.70765 366.408048 
L 93.45235 367.059282 
L 96.19705 368.937989 
L 98.94175 369.305447 
L 101.686449 371.639749 
L 104.431149 372.384501 
L 107.175849 370.986997 
L 112.665248 374.863478 
L 115.409948 374.515463 
L 118.154648 370.769493 
L 120.899347 374.098441 
L 123.644047 371.856997 
L 126.388747 374.799644 
L 129.133447 371.161433 
L 131.878146 374.725238 
L 134.622846 376.004682 
L 137.367546 375.776772 
L 140.112245 376.215719 
L 142.856945 375.395915 
L 145.601645 375.514486 
L 148.346345 376.595133 
L 153.835744 375.179088 
L 156.580444 377.718667 
L 159.325144 377.247434 
L 162.069843 375.959343 
L 164.814543 375.764742 
L 167.559243 376.693704 
L 173.048642 375.477719 
L 175.793342 377.312532 
L 178.538042 375.329779 
L 181.282741 376.031464 
L 184.027441 375.101614 
L 186.772141 378.287539 
L 189.51684 379.068472 
L 192.26154 378.506171 
L 195.00624 378.773103 
L 197.75094 377.839494 
L 200.495639 376.515749 
L 203.240339 374.769524 
L 205.985039 376.148396 
L 208.729739 376.782336 
L 211.474438 376.133388 
L 214.219138 374.878441 
L 216.963838 375.530576 
L 219.708537 374.916697 
L 222.453237 376.062306 
L 225.197937 374.935674 
L 227.942637 374.485328 
L 230.687336 373.742275 
L 233.432036 373.604711 
L 236.176736 372.535523 
L 238.921436 372.452831 
L 241.666135 374.07829 
L 244.410835 371.423192 
L 247.155535 371.210139 
L 249.900234 369.840229 
L 252.644934 370.190711 
L 255.389634 370.342966 
L 258.134334 370.287613 
L 260.879033 369.998981 
L 266.368433 368.836801 
L 269.113133 368.821237 
L 271.857832 369.379643 
L 274.602532 368.138349 
L 277.347232 368.645778 
L 280.091931 368.67856 
L 282.836631 367.7328 
L 285.581331 367.247913 
L 288.326031 367.546455 
L 291.07073 366.97068 
L 293.81543 367.366079 
L 296.56013 366.687236 
L 299.30483 366.683402 
L 302.049529 366.385823 
L 304.794229 366.686244 
L 307.538929 366.149462 
L 313.028328 366.471717 
L 315.773028 365.719387 
L 318.517728 365.475417 
L 321.262427 365.925582 
L 324.007127 365.216364 
L 326.751827 366.205988 
L 329.496527 365.464334 
L 332.241226 365.577657 
L 334.985926 365.446018 
L 337.730626 365.560665 
L 340.475325 365.426229 
L 343.220025 365.52274 
L 345.964725 365.154108 
L 348.709425 365.456093 
L 351.454124 365.103221 
L 356.943524 365.329492 
L 359.688223 365.308364 
L 370.667022 364.649567 
L 373.411722 365.013687 
L 376.156422 364.824003 
L 381.645821 364.59498 
L 384.390521 364.804574 
L 387.135221 364.687537 
L 389.87992 364.696319 
L 392.62462 364.591582 
L 395.36932 364.704604 
L 398.11402 364.604258 
L 414.582218 364.610274 
L 472.220912 364.555371 
L 480.455011 364.542258 
L 496.92321 364.555868 
L 502.412609 364.521341 
L 516.136108 364.522604 
L 535.349006 364.520018 
L 540.838405 364.493191 
L 584.753601 364.373311 
L 590.243 364.358559 
L 612.200598 364.306499 
L 617.689998 364.33083 
L 617.689998 364.33083 
" style="fill:none;stroke:#00b388;stroke-linecap:round;stroke-width:1.2;"/>
   </g>
   <g id="patch_8">
    <path d="M 44.18499 434.89201 
L 44.18499 242.489369 
" style="fill:none;stroke:#262626;stroke-linecap:square;stroke-linejoin:miter;"/>
   </g>
   <g id="patch_9">
    <path d="M 644.99976 434.89201 
L 644.99976 242.489369 
" style="fill:none;stroke:#262626;stroke-linecap:square;stroke-linejoin:miter;"/>
   </g>
   <g id="patch_10">
    <path d="M 44.18499 434.89201 
L 644.99976 434.89201 
" style="fill:none;stroke:#262626;stroke-linecap:square;stroke-linejoin:miter;"/>
   </g>
   <g id="patch_11">
    <path d="M 44.18499 242.489369 
L 644.99976 242.489369 
" style="fill:none;stroke:#262626;stroke-linecap:square;stroke-linejoin:miter;"/>
   </g>
   <g id="PathCollection_5">
    <g clip-path="url(#p05dce059bc)">
     <use style="fill:#888b8d;stroke:#888b8d;stroke-width:2;" x="189.51684" xlink:href="#m1ecc4b292c" y="397.112505"/>
    </g>
   </g>
   <g id="PathCollection_6">
    <g clip-path="url(#p05dce059bc)">
     <use style="fill:#888b8d;stroke:#888b8d;stroke-width:2;" x="189.51684" xlink:href="#m393181cfab" y="379.068472"/>
    </g>
   </g>
  </g>
 </g>
 <defs>
  <clipPath id="p427efd002b">
   <rect height="192.402641" width="600.81477" x="44.18499" y="16.15824"/>
  </clipPath>
  <clipPath id="p05dce059bc">
   <rect height="192.402641" width="600.81477" x="44.18499" y="242.489369"/>
  </clipPath>
 </defs>
</svg>
