<?xml version="1.0" encoding="utf-8" standalone="no"?>
<!DOCTYPE svg PUBLIC "-//W3C//DTD SVG 1.1//EN"
  "http://www.w3.org/Graphics/SVG/1.1/DTD/svg11.dtd">
<!-- Created with matplotlib (https://matplotlib.org/) -->
<svg height="468pt" version="1.1" viewBox="0 0 648 468" width="648pt" xmlns="http://www.w3.org/2000/svg" xmlns:xlink="http://www.w3.org/1999/xlink">
 <defs>
  <style type="text/css">
*{stroke-linecap:butt;stroke-linejoin:round;}
  </style>
 </defs>
 <g id="figure_1">
  <g id="patch_1">
   <path d="M 0 468 
L 648 468 
L 648 0 
L 0 0 
z
" style="fill:#ffffff;"/>
  </g>
  <g id="axes_1">
   <g id="patch_2">
    <path d="M 51.695615 205.584769 
L 644.99976 205.584769 
L 644.99976 16.29474 
L 51.695615 16.29474 
z
" style="fill:#ffffff;"/>
   </g>
   <g id="matplotlib.axis_1"/>
   <g id="matplotlib.axis_2">
    <g id="ytick_1">
     <g id="text_1">
      <!-- −0.75 -->
      <defs>
       <path d="M 10.59375 35.296875 
L 73.1875 35.296875 
L 73.1875 27.390625 
L 10.59375 27.390625 
z
" id="DejaVuSerif-8722"/>
       <path d="M 31.78125 3.421875 
Q 39.265625 3.421875 42.96875 11.625 
Q 46.6875 19.828125 46.6875 36.375 
Q 46.6875 52.984375 42.96875 61.1875 
Q 39.265625 69.390625 31.78125 69.390625 
Q 24.3125 69.390625 20.59375 61.1875 
Q 16.890625 52.984375 16.890625 36.375 
Q 16.890625 19.828125 20.59375 11.625 
Q 24.3125 3.421875 31.78125 3.421875 
z
M 31.78125 -1.421875 
Q 19.921875 -1.421875 13.25 8.53125 
Q 6.59375 18.5 6.59375 36.375 
Q 6.59375 54.296875 13.25 64.25 
Q 19.921875 74.21875 31.78125 74.21875 
Q 43.703125 74.21875 50.34375 64.25 
Q 56.984375 54.296875 56.984375 36.375 
Q 56.984375 18.5 50.34375 8.53125 
Q 43.703125 -1.421875 31.78125 -1.421875 
z
" id="DejaVuSerif-48"/>
       <path d="M 9.421875 5.078125 
Q 9.421875 7.8125 11.28125 9.71875 
Q 13.140625 11.625 15.921875 11.625 
Q 18.609375 11.625 20.5 9.71875 
Q 22.40625 7.8125 22.40625 5.078125 
Q 22.40625 2.390625 20.5 0.484375 
Q 18.609375 -1.421875 15.921875 -1.421875 
Q 13.140625 -1.421875 11.28125 0.453125 
Q 9.421875 2.34375 9.421875 5.078125 
z
" id="DejaVuSerif-46"/>
       <path d="M 56.390625 67.921875 
L 27.875 0 
L 20.609375 0 
L 47.796875 64.890625 
L 14.109375 64.890625 
L 14.109375 55.90625 
L 8.40625 55.90625 
L 8.40625 72.90625 
L 56.390625 72.90625 
z
" id="DejaVuSerif-55"/>
       <path d="M 50.296875 72.90625 
L 50.296875 64.890625 
L 16.890625 64.890625 
L 16.890625 44 
Q 19.4375 45.75 22.828125 46.625 
Q 26.21875 47.515625 30.421875 47.515625 
Q 42.234375 47.515625 49.0625 40.96875 
Q 55.90625 34.421875 55.90625 23.09375 
Q 55.90625 11.53125 49 5.046875 
Q 42.09375 -1.421875 29.59375 -1.421875 
Q 24.5625 -1.421875 19.28125 -0.1875 
Q 14.015625 1.03125 8.5 3.515625 
L 8.5 17.671875 
L 14.015625 17.671875 
Q 14.453125 10.75 18.421875 7.078125 
Q 22.40625 3.421875 29.59375 3.421875 
Q 37.3125 3.421875 41.453125 8.5 
Q 45.609375 13.578125 45.609375 23.09375 
Q 45.609375 32.5625 41.484375 37.609375 
Q 37.359375 42.671875 29.59375 42.671875 
Q 25.203125 42.671875 21.84375 41.109375 
Q 18.5 39.546875 15.921875 36.28125 
L 11.71875 36.28125 
L 11.71875 72.90625 
z
" id="DejaVuSerif-53"/>
      </defs>
      <g style="fill:#262626;" transform="translate(16.42774 208.538329)scale(0.088 -0.088)">
       <use xlink:href="#DejaVuSerif-8722"/>
       <use x="83.789062" xlink:href="#DejaVuSerif-48"/>
       <use x="147.412109" xlink:href="#DejaVuSerif-46"/>
       <use x="179.199219" xlink:href="#DejaVuSerif-55"/>
       <use x="242.822266" xlink:href="#DejaVuSerif-53"/>
      </g>
     </g>
    </g>
    <g id="ytick_2">
     <g id="text_2">
      <!-- −0.50 -->
      <g style="fill:#262626;" transform="translate(16.42774 182.514698)scale(0.088 -0.088)">
       <use xlink:href="#DejaVuSerif-8722"/>
       <use x="83.789062" xlink:href="#DejaVuSerif-48"/>
       <use x="147.412109" xlink:href="#DejaVuSerif-46"/>
       <use x="179.199219" xlink:href="#DejaVuSerif-53"/>
       <use x="242.822266" xlink:href="#DejaVuSerif-48"/>
      </g>
     </g>
    </g>
    <g id="ytick_3">
     <g id="text_3">
      <!-- −0.25 -->
      <defs>
       <path d="M 12.796875 55.515625 
L 7.328125 55.515625 
L 7.328125 68.5 
Q 12.546875 71.296875 17.84375 72.75 
Q 23.140625 74.21875 28.21875 74.21875 
Q 39.59375 74.21875 46.1875 68.703125 
Q 52.78125 63.1875 52.78125 53.71875 
Q 52.78125 43.015625 37.84375 28.125 
Q 36.671875 27 36.078125 26.421875 
L 17.671875 8.015625 
L 48.09375 8.015625 
L 48.09375 17 
L 53.8125 17 
L 53.8125 0 
L 6.78125 0 
L 6.78125 5.328125 
L 28.90625 27.390625 
Q 36.234375 34.71875 39.359375 40.84375 
Q 42.484375 46.96875 42.484375 53.71875 
Q 42.484375 61.078125 38.640625 65.234375 
Q 34.8125 69.390625 28.078125 69.390625 
Q 21.09375 69.390625 17.28125 65.921875 
Q 13.484375 62.453125 12.796875 55.515625 
z
" id="DejaVuSerif-50"/>
      </defs>
      <g style="fill:#262626;" transform="translate(16.42774 156.491067)scale(0.088 -0.088)">
       <use xlink:href="#DejaVuSerif-8722"/>
       <use x="83.789062" xlink:href="#DejaVuSerif-48"/>
       <use x="147.412109" xlink:href="#DejaVuSerif-46"/>
       <use x="179.199219" xlink:href="#DejaVuSerif-50"/>
       <use x="242.822266" xlink:href="#DejaVuSerif-53"/>
      </g>
     </g>
    </g>
    <g id="ytick_4">
     <g id="text_4">
      <!-- 0.00 -->
      <g style="fill:#262626;" transform="translate(23.801865 130.467435)scale(0.088 -0.088)">
       <use xlink:href="#DejaVuSerif-48"/>
       <use x="63.623047" xlink:href="#DejaVuSerif-46"/>
       <use x="95.410156" xlink:href="#DejaVuSerif-48"/>
       <use x="159.033203" xlink:href="#DejaVuSerif-48"/>
      </g>
     </g>
    </g>
    <g id="ytick_5">
     <g id="text_5">
      <!-- 0.25 -->
      <g style="fill:#262626;" transform="translate(23.801865 104.443804)scale(0.088 -0.088)">
       <use xlink:href="#DejaVuSerif-48"/>
       <use x="63.623047" xlink:href="#DejaVuSerif-46"/>
       <use x="95.410156" xlink:href="#DejaVuSerif-50"/>
       <use x="159.033203" xlink:href="#DejaVuSerif-53"/>
      </g>
     </g>
    </g>
    <g id="ytick_6">
     <g id="text_6">
      <!-- 0.50 -->
      <g style="fill:#262626;" transform="translate(23.801865 78.420173)scale(0.088 -0.088)">
       <use xlink:href="#DejaVuSerif-48"/>
       <use x="63.623047" xlink:href="#DejaVuSerif-46"/>
       <use x="95.410156" xlink:href="#DejaVuSerif-53"/>
       <use x="159.033203" xlink:href="#DejaVuSerif-48"/>
      </g>
     </g>
    </g>
    <g id="ytick_7">
     <g id="text_7">
      <!-- 0.75 -->
      <g style="fill:#262626;" transform="translate(23.801865 52.396541)scale(0.088 -0.088)">
       <use xlink:href="#DejaVuSerif-48"/>
       <use x="63.623047" xlink:href="#DejaVuSerif-46"/>
       <use x="95.410156" xlink:href="#DejaVuSerif-55"/>
       <use x="159.033203" xlink:href="#DejaVuSerif-53"/>
      </g>
     </g>
    </g>
    <g id="ytick_8">
     <g id="text_8">
      <!-- 1.00 -->
      <defs>
       <path d="M 14.203125 0 
L 14.203125 5.171875 
L 26.90625 5.171875 
L 26.90625 65.828125 
L 12.203125 56.296875 
L 12.203125 62.703125 
L 29.984375 74.21875 
L 36.71875 74.21875 
L 36.71875 5.171875 
L 49.421875 5.171875 
L 49.421875 0 
z
" id="DejaVuSerif-49"/>
      </defs>
      <g style="fill:#262626;" transform="translate(23.801865 26.37291)scale(0.088 -0.088)">
       <use xlink:href="#DejaVuSerif-49"/>
       <use x="63.623047" xlink:href="#DejaVuSerif-46"/>
       <use x="95.410156" xlink:href="#DejaVuSerif-48"/>
       <use x="159.033203" xlink:href="#DejaVuSerif-48"/>
      </g>
     </g>
    </g>
    <g id="text_9">
     <!-- Scaled Intensity -->
     <defs>
      <path d="M 9.28125 3.515625 
L 9.28125 20.125 
L 14.890625 20.0625 
Q 15.140625 11.765625 19.703125 7.78125 
Q 24.265625 3.8125 33.59375 3.8125 
Q 42.28125 3.8125 46.84375 7.25 
Q 51.421875 10.6875 51.421875 17.28125 
Q 51.421875 22.5625 48.65625 25.390625 
Q 45.90625 28.21875 37.015625 30.90625 
L 27.390625 33.796875 
Q 16.9375 36.96875 12.671875 41.703125 
Q 8.40625 46.4375 8.40625 54.6875 
Q 8.40625 63.96875 14.984375 69.09375 
Q 21.578125 74.21875 33.5 74.21875 
Q 38.578125 74.21875 44.625 73.109375 
Q 50.6875 72.015625 57.515625 69.921875 
L 57.515625 54.390625 
L 52 54.390625 
Q 51.171875 62.109375 46.84375 65.546875 
Q 42.53125 69 33.6875 69 
Q 25.984375 69 21.953125 65.84375 
Q 17.921875 62.703125 17.921875 56.6875 
Q 17.921875 51.46875 20.9375 48.484375 
Q 23.96875 45.515625 33.796875 42.578125 
L 42.828125 39.890625 
Q 52.734375 36.921875 56.953125 32.296875 
Q 61.1875 27.6875 61.1875 19.921875 
Q 61.1875 9.328125 54.390625 3.953125 
Q 47.609375 -1.421875 34.1875 -1.421875 
Q 28.171875 -1.421875 21.9375 -0.1875 
Q 15.71875 1.03125 9.28125 3.515625 
z
" id="DejaVuSerif-83"/>
      <path d="M 51.421875 15.578125 
Q 49.515625 7.28125 44.09375 2.921875 
Q 38.671875 -1.421875 30.078125 -1.421875 
Q 18.75 -1.421875 11.859375 6.078125 
Q 4.984375 13.578125 4.984375 25.984375 
Q 4.984375 38.421875 11.859375 45.875 
Q 18.75 53.328125 30.078125 53.328125 
Q 35.015625 53.328125 39.890625 52.171875 
Q 44.78125 51.03125 49.703125 48.6875 
L 49.703125 35.40625 
L 44.484375 35.40625 
Q 43.453125 42.234375 40.015625 45.359375 
Q 36.578125 48.484375 30.171875 48.484375 
Q 22.90625 48.484375 19.1875 42.84375 
Q 15.484375 37.203125 15.484375 25.984375 
Q 15.484375 14.75 19.171875 9.078125 
Q 22.859375 3.421875 30.171875 3.421875 
Q 35.984375 3.421875 39.453125 6.4375 
Q 42.921875 9.46875 44.1875 15.578125 
z
" id="DejaVuSerif-99"/>
      <path d="M 39.796875 16.3125 
L 39.796875 27.296875 
L 28.21875 27.296875 
Q 21.53125 27.296875 18.25 24.40625 
Q 14.984375 21.53125 14.984375 15.578125 
Q 14.984375 10.15625 18.296875 6.984375 
Q 21.625 3.8125 27.296875 3.8125 
Q 32.90625 3.8125 36.34375 7.28125 
Q 39.796875 10.75 39.796875 16.3125 
z
M 48.78125 32.421875 
L 48.78125 5.171875 
L 56.78125 5.171875 
L 56.78125 0 
L 39.796875 0 
L 39.796875 5.609375 
Q 36.8125 2 32.90625 0.28125 
Q 29 -1.421875 23.78125 -1.421875 
Q 15.140625 -1.421875 10.0625 3.171875 
Q 4.984375 7.765625 4.984375 15.578125 
Q 4.984375 23.640625 10.796875 28.078125 
Q 16.609375 32.515625 27.203125 32.515625 
L 39.796875 32.515625 
L 39.796875 36.078125 
Q 39.796875 42 36.203125 45.234375 
Q 32.625 48.484375 26.125 48.484375 
Q 20.75 48.484375 17.578125 46.046875 
Q 14.40625 43.609375 13.625 38.8125 
L 8.984375 38.8125 
L 8.984375 49.3125 
Q 13.671875 51.3125 18.09375 52.3125 
Q 22.515625 53.328125 26.703125 53.328125 
Q 37.5 53.328125 43.140625 47.96875 
Q 48.78125 42.625 48.78125 32.421875 
z
" id="DejaVuSerif-97"/>
      <path d="M 20.515625 5.171875 
L 29 5.171875 
L 29 0 
L 2.875 0 
L 2.875 5.171875 
L 11.53125 5.171875 
L 11.53125 70.796875 
L 2.875 70.796875 
L 2.875 75.984375 
L 20.515625 75.984375 
z
" id="DejaVuSerif-108"/>
      <path d="M 54.203125 25 
L 15.484375 25 
L 15.484375 24.609375 
Q 15.484375 14.109375 19.4375 8.765625 
Q 23.390625 3.421875 31.109375 3.421875 
Q 37.015625 3.421875 40.796875 6.515625 
Q 44.578125 9.625 46.09375 15.71875 
L 53.328125 15.71875 
Q 51.171875 7.171875 45.375 2.875 
Q 39.59375 -1.421875 30.171875 -1.421875 
Q 18.796875 -1.421875 11.890625 6.078125 
Q 4.984375 13.578125 4.984375 25.984375 
Q 4.984375 38.28125 11.765625 45.796875 
Q 18.5625 53.328125 29.59375 53.328125 
Q 41.359375 53.328125 47.65625 46.0625 
Q 53.953125 38.8125 54.203125 25 
z
M 43.609375 30.171875 
Q 43.3125 39.265625 39.765625 43.875 
Q 36.234375 48.484375 29.59375 48.484375 
Q 23.390625 48.484375 19.828125 43.84375 
Q 16.265625 39.203125 15.484375 30.171875 
z
" id="DejaVuSerif-101"/>
      <path d="M 52.484375 5.171875 
L 61.078125 5.171875 
L 61.078125 0 
L 43.5 0 
L 43.5 8.109375 
Q 40.875 3.21875 36.796875 0.890625 
Q 32.71875 -1.421875 26.703125 -1.421875 
Q 17.140625 -1.421875 11.0625 6.171875 
Q 4.984375 13.765625 4.984375 25.984375 
Q 4.984375 38.1875 11.03125 45.75 
Q 17.09375 53.328125 26.703125 53.328125 
Q 32.71875 53.328125 36.796875 51 
Q 40.875 48.6875 43.5 43.796875 
L 43.5 70.796875 
L 35.015625 70.796875 
L 35.015625 75.984375 
L 52.484375 75.984375 
z
M 43.5 23.390625 
L 43.5 28.515625 
Q 43.5 37.84375 39.90625 42.765625 
Q 36.328125 47.703125 29.5 47.703125 
Q 22.5625 47.703125 19.015625 42.234375 
Q 15.484375 36.765625 15.484375 25.984375 
Q 15.484375 15.234375 19.015625 9.71875 
Q 22.5625 4.203125 29.5 4.203125 
Q 36.328125 4.203125 39.90625 9.109375 
Q 43.5 14.015625 43.5 23.390625 
z
" id="DejaVuSerif-100"/>
      <path id="DejaVuSerif-32"/>
      <path d="M 24.703125 5.171875 
L 33.984375 5.171875 
L 33.984375 0 
L 5.515625 0 
L 5.515625 5.171875 
L 14.796875 5.171875 
L 14.796875 67.671875 
L 5.515625 67.671875 
L 5.515625 72.90625 
L 33.984375 72.90625 
L 33.984375 67.671875 
L 24.703125 67.671875 
z
" id="DejaVuSerif-73"/>
      <path d="M 4.109375 0 
L 4.109375 5.171875 
L 12.203125 5.171875 
L 12.203125 46.6875 
L 3.609375 46.6875 
L 3.609375 51.90625 
L 21.1875 51.90625 
L 21.1875 42.671875 
Q 23.6875 47.953125 27.65625 50.640625 
Q 31.640625 53.328125 36.921875 53.328125 
Q 45.515625 53.328125 49.5625 48.390625 
Q 53.609375 43.453125 53.609375 33.015625 
L 53.609375 5.171875 
L 61.625 5.171875 
L 61.625 0 
L 36.8125 0 
L 36.8125 5.171875 
L 44.578125 5.171875 
L 44.578125 30.171875 
Q 44.578125 39.703125 42.234375 43.234375 
Q 39.890625 46.78125 33.984375 46.78125 
Q 27.734375 46.78125 24.453125 42.203125 
Q 21.1875 37.640625 21.1875 28.90625 
L 21.1875 5.171875 
L 29 5.171875 
L 29 0 
z
" id="DejaVuSerif-110"/>
      <path d="M 10.796875 46.6875 
L 2.875 46.6875 
L 2.875 51.90625 
L 10.796875 51.90625 
L 10.796875 68.015625 
L 19.828125 68.015625 
L 19.828125 51.90625 
L 36.71875 51.90625 
L 36.71875 46.6875 
L 19.828125 46.6875 
L 19.828125 13.71875 
Q 19.828125 7.125 21.09375 5.265625 
Q 22.359375 3.421875 25.78125 3.421875 
Q 29.296875 3.421875 30.90625 5.484375 
Q 32.515625 7.5625 32.625 12.203125 
L 39.40625 12.203125 
Q 39.015625 5.125 35.546875 1.84375 
Q 32.078125 -1.421875 25 -1.421875 
Q 17.234375 -1.421875 14.015625 2.015625 
Q 10.796875 5.46875 10.796875 13.71875 
z
" id="DejaVuSerif-116"/>
      <path d="M 5.609375 2.875 
L 5.609375 14.984375 
L 10.796875 14.984375 
Q 10.984375 9.1875 14.421875 6.296875 
Q 17.875 3.421875 24.609375 3.421875 
Q 30.671875 3.421875 33.84375 5.6875 
Q 37.015625 7.953125 37.015625 12.3125 
Q 37.015625 15.71875 34.6875 17.8125 
Q 32.375 19.921875 24.90625 22.3125 
L 18.40625 24.515625 
Q 11.71875 26.65625 8.71875 29.875 
Q 5.71875 33.109375 5.71875 38.09375 
Q 5.71875 45.21875 10.9375 49.265625 
Q 16.15625 53.328125 25.390625 53.328125 
Q 29.5 53.328125 34.03125 52.25 
Q 38.578125 51.171875 43.40625 49.125 
L 43.40625 37.796875 
L 38.234375 37.796875 
Q 38.03125 42.828125 34.703125 45.65625 
Q 31.390625 48.484375 25.6875 48.484375 
Q 20.015625 48.484375 17.109375 46.484375 
Q 14.203125 44.484375 14.203125 40.484375 
Q 14.203125 37.203125 16.40625 35.21875 
Q 18.609375 33.25 25.203125 31.203125 
L 32.328125 29 
Q 39.703125 26.703125 42.9375 23.265625 
Q 46.1875 19.828125 46.1875 14.40625 
Q 46.1875 7.03125 40.546875 2.796875 
Q 34.90625 -1.421875 25 -1.421875 
Q 19.96875 -1.421875 15.1875 -0.34375 
Q 10.40625 0.734375 5.609375 2.875 
z
" id="DejaVuSerif-115"/>
      <path d="M 9.71875 68.015625 
Q 9.71875 70.265625 11.34375 71.921875 
Q 12.984375 73.578125 15.28125 73.578125 
Q 17.53125 73.578125 19.15625 71.921875 
Q 20.796875 70.265625 20.796875 68.015625 
Q 20.796875 65.71875 19.1875 64.109375 
Q 17.578125 62.5 15.28125 62.5 
Q 12.984375 62.5 11.34375 64.109375 
Q 9.71875 65.71875 9.71875 68.015625 
z
M 21.1875 5.171875 
L 29.6875 5.171875 
L 29.6875 0 
L 3.609375 0 
L 3.609375 5.171875 
L 12.203125 5.171875 
L 12.203125 46.6875 
L 3.609375 46.6875 
L 3.609375 51.90625 
L 21.1875 51.90625 
z
" id="DejaVuSerif-105"/>
      <path d="M 21.578125 -9.515625 
L 25 -0.875 
L 5.609375 46.6875 
L -0.296875 46.6875 
L -0.296875 51.90625 
L 23.578125 51.90625 
L 23.578125 46.6875 
L 15.28125 46.6875 
L 29.890625 10.984375 
L 44.484375 46.6875 
L 36.71875 46.6875 
L 36.71875 51.90625 
L 56.203125 51.90625 
L 56.203125 46.6875 
L 50.390625 46.6875 
L 26.609375 -11.71875 
Q 24.171875 -17.78125 21.1875 -20 
Q 18.21875 -22.21875 12.796875 -22.21875 
Q 10.5 -22.21875 8.078125 -21.828125 
Q 5.671875 -21.4375 3.21875 -20.703125 
L 3.21875 -10.796875 
L 7.8125 -10.796875 
Q 8.109375 -14.109375 9.5 -15.546875 
Q 10.890625 -17 13.8125 -17 
Q 16.5 -17 18.140625 -15.5 
Q 19.78125 -14.015625 21.578125 -9.515625 
z
" id="DejaVuSerif-121"/>
     </defs>
     <g style="fill:#262626;" transform="translate(10.29474 150.240504)rotate(-90)scale(0.096 -0.096)">
      <use xlink:href="#DejaVuSerif-83"/>
      <use x="68.505859" xlink:href="#DejaVuSerif-99"/>
      <use x="124.511719" xlink:href="#DejaVuSerif-97"/>
      <use x="184.130859" xlink:href="#DejaVuSerif-108"/>
      <use x="216.113281" xlink:href="#DejaVuSerif-101"/>
      <use x="275.292969" xlink:href="#DejaVuSerif-100"/>
      <use x="339.306641" xlink:href="#DejaVuSerif-32"/>
      <use x="371.09375" xlink:href="#DejaVuSerif-73"/>
      <use x="410.595703" xlink:href="#DejaVuSerif-110"/>
      <use x="475" xlink:href="#DejaVuSerif-116"/>
      <use x="515.185547" xlink:href="#DejaVuSerif-101"/>
      <use x="574.365234" xlink:href="#DejaVuSerif-110"/>
      <use x="638.769531" xlink:href="#DejaVuSerif-115"/>
      <use x="690.087891" xlink:href="#DejaVuSerif-105"/>
      <use x="722.070312" xlink:href="#DejaVuSerif-116"/>
      <use x="762.255859" xlink:href="#DejaVuSerif-121"/>
     </g>
    </g>
   </g>
   <g id="line2d_1">
    <path clip-path="url(#pb37b70ceb4)" d="M 78.663985 106.172579 
L 83.951901 147.36516 
L 89.239817 159.549364 
L 94.527732 158.98914 
L 99.815648 160.777623 
L 105.103564 112.772401 
L 110.39148 120.111292 
L 115.679395 115.749419 
L 120.967311 101.376807 
L 126.255227 120.79655 
L 131.543143 116.62054 
L 136.831058 102.749091 
L 142.118974 98.828152 
L 147.40689 96.081298 
L 152.694805 91.305972 
L 157.982721 90.841778 
L 163.270637 83.519744 
L 168.558553 73.36339 
L 173.846468 65.597996 
L 179.134384 35.52691 
L 184.4223 32.441732 
L 189.710216 94.65813 
L 194.998131 101.871589 
L 200.286047 131.110317 
L 205.573963 126.973677 
L 210.861878 85.009169 
L 216.149794 84.166273 
L 221.43771 29.844093 
L 226.725626 26.032695 
L 232.013541 38.372934 
L 237.301457 33.846093 
L 242.589373 31.406701 
L 247.877289 32.456555 
L 253.165204 28.857091 
L 258.45312 38.445167 
L 263.741036 48.502857 
L 269.028952 49.187221 
L 274.316867 27.869921 
L 279.604783 24.898832 
L 284.892699 34.682338 
L 290.180614 29.557792 
L 295.46853 26.587782 
L 300.756446 31.081981 
L 306.044362 43.505621 
L 311.332277 41.870576 
L 316.620193 28.720356 
L 321.908109 38.364335 
L 327.196025 27.333088 
L 332.48394 39.039194 
L 337.771856 51.317356 
L 343.059772 58.785188 
L 348.347688 50.806743 
L 353.635603 69.416882 
L 358.923519 69.516545 
L 364.211435 58.946679 
L 369.49935 49.054879 
L 374.787266 52.293178 
L 380.075182 63.741033 
L 385.363098 61.930257 
L 390.651013 44.604106 
L 395.938929 49.325712 
L 401.226845 63.212799 
L 406.514761 46.312396 
L 411.802676 66.672904 
L 417.090592 77.543391 
L 422.378508 95.808851 
L 427.666423 81.572571 
L 432.954339 82.026872 
L 438.242255 79.449025 
L 443.530171 52.575384 
L 448.818086 62.923836 
L 454.106002 36.715068 
L 459.393918 35.867922 
L 464.681834 69.218803 
L 469.969749 52.466613 
L 475.257665 74.132495 
L 480.545581 61.556646 
L 485.833497 56.873104 
L 491.121412 44.145245 
L 496.409328 51.369487 
L 501.697244 55.858536 
L 506.985159 53.131222 
L 512.273075 45.847305 
L 517.560991 49.9831 
L 522.848907 55.887995 
L 528.136822 74.039397 
L 533.424738 72.555729 
L 538.712654 95.424999 
L 544.00057 94.750609 
L 549.288485 124.556248 
L 554.576401 124.129393 
L 559.864317 134.399885 
L 565.152232 136.836153 
L 570.440148 132.968828 
L 575.728064 135.302388 
L 581.01598 134.417368 
L 586.303895 130.375788 
L 591.591811 122.06169 
L 596.879727 122.826951 
L 602.167643 123.36254 
L 607.455558 122.48826 
L 612.743474 115.793085 
L 618.03139 124.688436 
" style="fill:none;stroke:#c8102e;stroke-linecap:round;stroke-width:1.2;"/>
   </g>
   <g id="line2d_2">
    <path clip-path="url(#pb37b70ceb4)" d="M 78.663985 113.497059 
L 83.951901 162.02648 
L 89.239817 175.870486 
L 94.527732 177.376949 
L 99.815648 178.87915 
L 105.103564 118.550407 
L 110.39148 124.20255 
L 115.679395 117.530321 
L 120.967311 110.533478 
L 126.255227 123.49408 
L 131.543143 118.52381 
L 136.831058 108.880523 
L 142.118974 106.434766 
L 147.40689 104.398417 
L 152.694805 100.492356 
L 157.982721 101.702291 
L 163.270637 93.71066 
L 168.558553 86.790275 
L 173.846468 80.019608 
L 179.134384 53.998539 
L 184.4223 49.752242 
L 189.710216 102.070211 
L 194.998131 106.53467 
L 200.286047 144.376341 
L 205.573963 134.519979 
L 210.861878 94.127818 
L 216.149794 93.525133 
L 221.43771 45.042771 
L 226.725626 40.953436 
L 232.013541 54.898641 
L 237.301457 51.091977 
L 242.589373 46.645194 
L 247.877289 49.037748 
L 253.165204 45.173842 
L 258.45312 55.039924 
L 263.741036 64.463016 
L 269.028952 65.380776 
L 274.316867 43.551354 
L 279.604783 38.626389 
L 284.892699 48.712427 
L 290.180614 41.751039 
L 295.46853 40.582493 
L 300.756446 46.731486 
L 306.044362 59.074721 
L 311.332277 55.011197 
L 316.620193 43.4642 
L 321.908109 51.312529 
L 327.196025 42.171284 
L 332.48394 54.903456 
L 337.771856 66.136635 
L 343.059772 73.077845 
L 348.347688 64.692868 
L 353.635603 81.998278 
L 358.923519 81.544244 
L 364.211435 74.766727 
L 369.49935 63.25388 
L 374.787266 66.412996 
L 380.075182 77.61658 
L 385.363098 74.919805 
L 390.651013 60.304966 
L 395.938929 67.194449 
L 401.226845 77.691828 
L 406.514761 64.176367 
L 411.802676 80.148888 
L 417.090592 89.98173 
L 422.378508 103.732604 
L 427.666423 91.043593 
L 432.954339 92.972 
L 438.242255 91.174747 
L 443.530171 70.143897 
L 448.818086 79.001754 
L 454.106002 54.717829 
L 459.393918 54.579977 
L 464.681834 85.328441 
L 469.969749 72.419478 
L 475.257665 88.232878 
L 480.545581 79.456222 
L 485.833497 74.411649 
L 491.121412 63.458511 
L 496.409328 70.040374 
L 501.697244 73.378386 
L 506.985159 71.932851 
L 512.273075 64.115575 
L 517.560991 68.217847 
L 522.848907 73.380508 
L 528.136822 89.043334 
L 533.424738 87.404612 
L 538.712654 104.250297 
L 544.00057 103.930266 
L 549.288485 127.753251 
L 554.576401 125.884799 
L 559.864317 138.132737 
L 565.152232 143.075118 
L 570.440148 135.561464 
L 575.728064 138.647807 
L 581.01598 137.671635 
L 586.303895 131.766922 
L 591.591811 126.057394 
L 596.879727 125.829734 
L 602.167643 126.184094 
L 607.455558 124.700571 
L 612.743474 119.232628 
L 618.03139 127.360874 
" style="fill:none;stroke:#00b388;stroke-linecap:round;stroke-width:1.2;"/>
   </g>
   <g id="line2d_3">
    <path clip-path="url(#pb37b70ceb4)" d="M 78.663985 120.821541 
L 83.951901 176.687801 
L 89.239817 192.191608 
L 94.527732 195.764759 
L 99.815648 196.980677 
L 105.103564 124.328413 
L 110.39148 128.293808 
L 115.679395 119.311222 
L 120.967311 119.690149 
L 126.255227 126.19161 
L 131.543143 120.427079 
L 136.831058 115.011956 
L 142.118974 114.04138 
L 147.40689 112.715537 
L 152.694805 109.678739 
L 157.982721 112.562803 
L 163.270637 103.901577 
L 168.558553 100.217161 
L 173.846468 94.44122 
L 179.134384 72.470169 
L 184.4223 67.062752 
L 189.710216 109.482292 
L 194.998131 111.197751 
L 200.286047 157.642365 
L 205.573963 142.06628 
L 210.861878 103.246466 
L 216.149794 102.883992 
L 221.43771 60.24145 
L 226.725626 55.874177 
L 232.013541 71.424348 
L 237.301457 68.337861 
L 242.589373 61.883686 
L 247.877289 65.618942 
L 253.165204 61.490593 
L 258.45312 71.634681 
L 263.741036 80.423175 
L 269.028952 81.57433 
L 274.316867 59.232788 
L 279.604783 52.353945 
L 284.892699 62.742516 
L 290.180614 53.944287 
L 295.46853 54.577203 
L 300.756446 62.380991 
L 306.044362 74.643822 
L 311.332277 68.151818 
L 316.620193 58.208043 
L 321.908109 64.260724 
L 327.196025 57.00948 
L 332.48394 70.767717 
L 337.771856 80.955913 
L 343.059772 87.370503 
L 348.347688 78.578994 
L 353.635603 94.579674 
L 358.923519 93.571943 
L 364.211435 90.586773 
L 369.49935 77.452877 
L 374.787266 80.532812 
L 380.075182 91.49213 
L 385.363098 87.90935 
L 390.651013 76.005825 
L 395.938929 85.063186 
L 401.226845 92.170857 
L 406.514761 82.040342 
L 411.802676 93.624873 
L 417.090592 102.420068 
L 422.378508 111.656356 
L 427.666423 100.514614 
L 432.954339 103.917128 
L 438.242255 102.900468 
L 443.530171 87.712409 
L 448.818086 95.079668 
L 454.106002 72.720589 
L 459.393918 73.292031 
L 464.681834 101.438079 
L 469.969749 92.372343 
L 475.257665 102.333262 
L 480.545581 97.355799 
L 485.833497 91.950194 
L 491.121412 82.77178 
L 496.409328 88.711262 
L 501.697244 90.898236 
L 506.985159 90.73448 
L 512.273075 82.383846 
L 517.560991 86.452591 
L 522.848907 90.873021 
L 528.136822 104.047269 
L 533.424738 102.253497 
L 538.712654 113.075594 
L 544.00057 113.109924 
L 549.288485 130.950254 
L 554.576401 127.640205 
L 559.864317 141.86559 
L 565.152232 149.314082 
L 570.440148 138.154099 
L 575.728064 141.993225 
L 581.01598 140.925902 
L 586.303895 133.158055 
L 591.591811 130.053099 
L 596.879727 128.832518 
L 602.167643 129.005648 
L 607.455558 126.912882 
L 612.743474 122.672172 
L 618.03139 130.033312 
" style="fill:none;stroke:#f6be00;stroke-linecap:round;stroke-width:1.2;"/>
   </g>
   <g id="line2d_4"/>
   <g id="line2d_5"/>
   <g id="line2d_6"/>
   <g id="patch_3">
    <path d="M 51.695615 205.584769 
L 51.695615 16.29474 
" style="fill:none;stroke:#262626;stroke-linecap:square;stroke-linejoin:miter;"/>
   </g>
   <g id="patch_4">
    <path d="M 644.99976 205.584769 
L 644.99976 16.29474 
" style="fill:none;stroke:#262626;stroke-linecap:square;stroke-linejoin:miter;"/>
   </g>
   <g id="patch_5">
    <path d="M 51.695615 205.584769 
L 644.99976 205.584769 
" style="fill:none;stroke:#262626;stroke-linecap:square;stroke-linejoin:miter;"/>
   </g>
   <g id="patch_6">
    <path d="M 51.695615 16.29474 
L 644.99976 16.29474 
" style="fill:none;stroke:#262626;stroke-linecap:square;stroke-linejoin:miter;"/>
   </g>
   <g id="text_10">
    <!-- Self-Blocking Bricks Generated Samples -->
    <defs>
     <path d="M 43.015625 63.71875 
L 38.28125 63.71875 
Q 38.234375 67.390625 36.203125 69.28125 
Q 34.1875 71.1875 30.328125 71.1875 
Q 25.296875 71.1875 23.234375 68.421875 
Q 21.1875 65.671875 21.1875 58.59375 
L 21.1875 51.90625 
L 35.6875 51.90625 
L 35.6875 46.6875 
L 21.1875 46.6875 
L 21.1875 5.171875 
L 32.71875 5.171875 
L 32.71875 0 
L 3.609375 0 
L 3.609375 5.171875 
L 12.203125 5.171875 
L 12.203125 46.6875 
L 3.609375 46.6875 
L 3.609375 51.90625 
L 12.203125 51.90625 
L 12.203125 58.40625 
Q 12.203125 67.09375 16.71875 71.53125 
Q 21.234375 75.984375 29.984375 75.984375 
Q 33.25 75.984375 36.515625 75.390625 
Q 39.796875 74.8125 43.015625 73.578125 
z
" id="DejaVuSerif-102"/>
     <path d="M 4.390625 30.609375 
L 29.390625 30.609375 
L 29.390625 23 
L 4.390625 23 
z
" id="DejaVuSerif-45"/>
     <path d="M 24.703125 5.171875 
L 39.3125 5.171875 
Q 48.09375 5.171875 52.140625 8.984375 
Q 56.203125 12.796875 56.203125 21.09375 
Q 56.203125 29.34375 52.171875 33.125 
Q 48.140625 36.921875 39.3125 36.921875 
L 24.703125 36.921875 
z
M 24.703125 42.09375 
L 37.109375 42.09375 
Q 45.125 42.09375 48.796875 45.171875 
Q 52.484375 48.25 52.484375 54.890625 
Q 52.484375 61.578125 48.796875 64.625 
Q 45.125 67.671875 37.109375 67.671875 
L 24.703125 67.671875 
z
M 5.515625 0 
L 5.515625 5.171875 
L 14.796875 5.171875 
L 14.796875 67.671875 
L 5.515625 67.671875 
L 5.515625 72.90625 
L 41.5 72.90625 
Q 52.546875 72.90625 58.125 68.390625 
Q 63.71875 63.875 63.71875 54.890625 
Q 63.71875 48.390625 59.828125 44.53125 
Q 55.953125 40.671875 48.484375 39.796875 
Q 57.765625 38.625 62.578125 33.859375 
Q 67.390625 29.109375 67.390625 21.09375 
Q 67.390625 10.25 60.546875 5.125 
Q 53.71875 0 39.203125 0 
z
" id="DejaVuSerif-66"/>
     <path d="M 30.078125 3.421875 
Q 37.3125 3.421875 40.984375 9.125 
Q 44.671875 14.84375 44.671875 25.984375 
Q 44.671875 37.109375 40.984375 42.796875 
Q 37.3125 48.484375 30.078125 48.484375 
Q 22.859375 48.484375 19.171875 42.796875 
Q 15.484375 37.109375 15.484375 25.984375 
Q 15.484375 14.84375 19.1875 9.125 
Q 22.90625 3.421875 30.078125 3.421875 
z
M 30.078125 -1.421875 
Q 18.75 -1.421875 11.859375 6.078125 
Q 4.984375 13.578125 4.984375 25.984375 
Q 4.984375 38.375 11.84375 45.84375 
Q 18.703125 53.328125 30.078125 53.328125 
Q 41.453125 53.328125 48.3125 45.84375 
Q 55.171875 38.375 55.171875 25.984375 
Q 55.171875 13.578125 48.3125 6.078125 
Q 41.453125 -1.421875 30.078125 -1.421875 
z
" id="DejaVuSerif-111"/>
     <path d="M 28.609375 0 
L 3.421875 0 
L 3.421875 5.171875 
L 11.53125 5.171875 
L 11.53125 70.796875 
L 2.875 70.796875 
L 2.875 75.984375 
L 20.515625 75.984375 
L 20.515625 26.515625 
L 42.390625 46.6875 
L 34.90625 46.6875 
L 34.90625 51.90625 
L 58.40625 51.90625 
L 58.40625 46.6875 
L 49.515625 46.6875 
L 34.078125 32.421875 
L 53.8125 5.171875 
L 61.28125 5.171875 
L 61.28125 0 
L 35.6875 0 
L 35.6875 5.171875 
L 43.109375 5.171875 
L 27.59375 26.515625 
L 20.515625 19.921875 
L 20.515625 5.171875 
L 28.609375 5.171875 
z
" id="DejaVuSerif-107"/>
     <path d="M 52.484375 46.6875 
L 52.484375 1.125 
Q 52.484375 -10.0625 46.328125 -16.140625 
Q 40.1875 -22.21875 28.8125 -22.21875 
Q 23.6875 -22.21875 19 -21.28125 
Q 14.3125 -20.359375 10.015625 -18.5 
L 10.015625 -7.625 
L 14.703125 -7.625 
Q 15.578125 -12.703125 18.84375 -15.046875 
Q 22.125 -17.390625 28.21875 -17.390625 
Q 36.140625 -17.390625 39.8125 -12.921875 
Q 43.5 -8.453125 43.5 1.125 
L 43.5 8.109375 
Q 40.875 3.21875 36.796875 0.890625 
Q 32.71875 -1.421875 26.703125 -1.421875 
Q 17.140625 -1.421875 11.0625 6.171875 
Q 4.984375 13.765625 4.984375 25.984375 
Q 4.984375 38.1875 11.03125 45.75 
Q 17.09375 53.328125 26.703125 53.328125 
Q 32.71875 53.328125 36.796875 51 
Q 40.875 48.6875 43.5 43.796875 
L 43.5 51.90625 
L 61.078125 51.90625 
L 61.078125 46.6875 
z
M 43.5 28.515625 
Q 43.5 37.84375 39.90625 42.765625 
Q 36.328125 47.703125 29.5 47.703125 
Q 22.5625 47.703125 19.015625 42.234375 
Q 15.484375 36.765625 15.484375 25.984375 
Q 15.484375 15.234375 19.015625 9.71875 
Q 22.5625 4.203125 29.5 4.203125 
Q 36.328125 4.203125 39.90625 9.109375 
Q 43.5 14.015625 43.5 23.390625 
z
" id="DejaVuSerif-103"/>
     <path d="M 47.796875 52 
L 47.796875 39.015625 
L 42.625 39.015625 
Q 42.390625 42.875 40.484375 44.78125 
Q 38.578125 46.6875 34.90625 46.6875 
Q 28.265625 46.6875 24.71875 42.09375 
Q 21.1875 37.5 21.1875 28.90625 
L 21.1875 5.171875 
L 31.59375 5.171875 
L 31.59375 0 
L 4.109375 0 
L 4.109375 5.171875 
L 12.203125 5.171875 
L 12.203125 46.78125 
L 3.609375 46.78125 
L 3.609375 51.90625 
L 21.1875 51.90625 
L 21.1875 42.671875 
Q 23.828125 48.09375 27.96875 50.703125 
Q 32.125 53.328125 38.09375 53.328125 
Q 40.28125 53.328125 42.703125 52.984375 
Q 45.125 52.640625 47.796875 52 
z
" id="DejaVuSerif-114"/>
     <path d="M 64.015625 51.125 
Q 62.3125 60.25 56.890625 64.625 
Q 51.46875 69 41.796875 69 
Q 29.203125 69 23 60.890625 
Q 16.796875 52.78125 16.796875 36.375 
Q 16.796875 20.3125 23.1875 12.0625 
Q 29.59375 3.8125 42 3.8125 
Q 47.515625 3.8125 52.53125 5.171875 
Q 57.5625 6.546875 62.109375 9.28125 
L 62.109375 28.078125 
L 48.390625 28.078125 
L 48.390625 33.296875 
L 72.015625 33.296875 
L 72.015625 6.109375 
Q 65.53125 2.34375 58.03125 0.453125 
Q 50.53125 -1.421875 42 -1.421875 
Q 25.484375 -1.421875 15.546875 8.90625 
Q 5.609375 19.234375 5.609375 36.375 
Q 5.609375 53.65625 15.5625 63.9375 
Q 25.53125 74.21875 42.390625 74.21875 
Q 48.640625 74.21875 55.296875 72.78125 
Q 61.96875 71.34375 69.484375 68.40625 
L 69.484375 51.125 
z
" id="DejaVuSerif-71"/>
     <path d="M 51.8125 41.796875 
Q 54.390625 47.515625 58.421875 50.421875 
Q 62.453125 53.328125 67.828125 53.328125 
Q 75.984375 53.328125 79.984375 48.265625 
Q 83.984375 43.21875 83.984375 33.015625 
L 83.984375 5.171875 
L 92.09375 5.171875 
L 92.09375 0 
L 67.1875 0 
L 67.1875 5.171875 
L 75 5.171875 
L 75 31.984375 
Q 75 39.9375 72.65625 43.3125 
Q 70.3125 46.6875 64.890625 46.6875 
Q 58.890625 46.6875 55.734375 42.140625 
Q 52.59375 37.59375 52.59375 28.90625 
L 52.59375 5.171875 
L 60.40625 5.171875 
L 60.40625 0 
L 35.796875 0 
L 35.796875 5.171875 
L 43.609375 5.171875 
L 43.609375 32.328125 
Q 43.609375 40.09375 41.265625 43.390625 
Q 38.921875 46.6875 33.5 46.6875 
Q 27.484375 46.6875 24.328125 42.140625 
Q 21.1875 37.59375 21.1875 28.90625 
L 21.1875 5.171875 
L 29 5.171875 
L 29 0 
L 4.109375 0 
L 4.109375 5.171875 
L 12.203125 5.171875 
L 12.203125 46.78125 
L 3.609375 46.78125 
L 3.609375 51.90625 
L 21.1875 51.90625 
L 21.1875 42.671875 
Q 23.6875 47.859375 27.53125 50.59375 
Q 31.390625 53.328125 36.28125 53.328125 
Q 42.328125 53.328125 46.375 50.3125 
Q 50.4375 47.3125 51.8125 41.796875 
z
" id="DejaVuSerif-109"/>
     <path d="M 20.515625 28.515625 
L 20.515625 23.390625 
Q 20.515625 14.015625 24.09375 9.109375 
Q 27.6875 4.203125 34.515625 4.203125 
Q 41.40625 4.203125 44.9375 9.71875 
Q 48.484375 15.234375 48.484375 25.984375 
Q 48.484375 36.765625 44.9375 42.234375 
Q 41.40625 47.703125 34.515625 47.703125 
Q 27.6875 47.703125 24.09375 42.765625 
Q 20.515625 37.84375 20.515625 28.515625 
z
M 11.53125 46.6875 
L 2.875 46.6875 
L 2.875 51.90625 
L 20.515625 51.90625 
L 20.515625 43.796875 
Q 23.140625 48.6875 27.21875 51 
Q 31.296875 53.328125 37.3125 53.328125 
Q 46.875 53.328125 52.921875 45.75 
Q 58.984375 38.1875 58.984375 25.984375 
Q 58.984375 13.765625 52.921875 6.171875 
Q 46.875 -1.421875 37.3125 -1.421875 
Q 31.296875 -1.421875 27.21875 0.890625 
Q 23.140625 3.21875 20.515625 8.109375 
L 20.515625 -15.578125 
L 29 -15.578125 
L 29 -20.796875 
L 2.875 -20.796875 
L 2.875 -15.578125 
L 11.53125 -15.578125 
z
" id="DejaVuSerif-112"/>
    </defs>
    <g style="fill:#262626;" transform="translate(249.824688 10.29474)scale(0.096 -0.096)">
     <use xlink:href="#DejaVuSerif-83"/>
     <use x="68.505859" xlink:href="#DejaVuSerif-101"/>
     <use x="127.685547" xlink:href="#DejaVuSerif-108"/>
     <use x="159.667969" xlink:href="#DejaVuSerif-102"/>
     <use x="196.632812" xlink:href="#DejaVuSerif-45"/>
     <use x="230.421875" xlink:href="#DejaVuSerif-66"/>
     <use x="303.908203" xlink:href="#DejaVuSerif-108"/>
     <use x="335.890625" xlink:href="#DejaVuSerif-111"/>
     <use x="396.095703" xlink:href="#DejaVuSerif-99"/>
     <use x="452.101562" xlink:href="#DejaVuSerif-107"/>
     <use x="512.697266" xlink:href="#DejaVuSerif-105"/>
     <use x="544.679688" xlink:href="#DejaVuSerif-110"/>
     <use x="609.083984" xlink:href="#DejaVuSerif-103"/>
     <use x="673.097656" xlink:href="#DejaVuSerif-32"/>
     <use x="704.884766" xlink:href="#DejaVuSerif-66"/>
     <use x="778.371094" xlink:href="#DejaVuSerif-114"/>
     <use x="826.173828" xlink:href="#DejaVuSerif-105"/>
     <use x="858.15625" xlink:href="#DejaVuSerif-99"/>
     <use x="914.162109" xlink:href="#DejaVuSerif-107"/>
     <use x="974.757812" xlink:href="#DejaVuSerif-115"/>
     <use x="1026.076172" xlink:href="#DejaVuSerif-32"/>
     <use x="1057.863281" xlink:href="#DejaVuSerif-71"/>
     <use x="1137.746094" xlink:href="#DejaVuSerif-101"/>
     <use x="1196.925781" xlink:href="#DejaVuSerif-110"/>
     <use x="1261.330078" xlink:href="#DejaVuSerif-101"/>
     <use x="1320.509766" xlink:href="#DejaVuSerif-114"/>
     <use x="1368.3125" xlink:href="#DejaVuSerif-97"/>
     <use x="1427.931641" xlink:href="#DejaVuSerif-116"/>
     <use x="1468.117188" xlink:href="#DejaVuSerif-101"/>
     <use x="1527.296875" xlink:href="#DejaVuSerif-100"/>
     <use x="1591.310547" xlink:href="#DejaVuSerif-32"/>
     <use x="1623.097656" xlink:href="#DejaVuSerif-83"/>
     <use x="1691.603516" xlink:href="#DejaVuSerif-97"/>
     <use x="1751.222656" xlink:href="#DejaVuSerif-109"/>
     <use x="1846.046875" xlink:href="#DejaVuSerif-112"/>
     <use x="1910.060547" xlink:href="#DejaVuSerif-108"/>
     <use x="1942.042969" xlink:href="#DejaVuSerif-101"/>
     <use x="2001.222656" xlink:href="#DejaVuSerif-115"/>
    </g>
   </g>
  </g>
  <g id="axes_2">
   <g id="legend_1">
    <g id="line2d_7">
     <path d="M 158.70975 226.617955 
L 176.30975 226.617955 
" style="fill:none;stroke:#c8102e;stroke-linecap:round;stroke-width:1.2;"/>
    </g>
    <g id="line2d_8"/>
    <g id="text_11">
     <!-- Mean + Standard Deviation -->
     <defs>
      <path d="M 5.515625 0 
L 5.515625 5.171875 
L 14.796875 5.171875 
L 14.796875 67.671875 
L 4.984375 67.671875 
L 4.984375 72.90625 
L 26.21875 72.90625 
L 51.8125 21 
L 77.390625 72.90625 
L 97.3125 72.90625 
L 97.3125 67.671875 
L 87.59375 67.671875 
L 87.59375 5.171875 
L 96.921875 5.171875 
L 96.921875 0 
L 68.40625 0 
L 68.40625 5.171875 
L 77.6875 5.171875 
L 77.6875 61.53125 
L 52.6875 10.6875 
L 45.796875 10.6875 
L 20.796875 61.53125 
L 20.796875 5.171875 
L 30.078125 5.171875 
L 30.078125 0 
z
" id="DejaVuSerif-77"/>
      <path d="M 45.796875 62.703125 
L 45.796875 35.296875 
L 73.1875 35.296875 
L 73.1875 27.390625 
L 45.796875 27.390625 
L 45.796875 0 
L 37.984375 0 
L 37.984375 27.390625 
L 10.59375 27.390625 
L 10.59375 35.296875 
L 37.984375 35.296875 
L 37.984375 62.703125 
z
" id="DejaVuSerif-43"/>
      <path d="M 24.703125 5.171875 
L 33.796875 5.171875 
Q 48 5.171875 55.59375 13.28125 
Q 63.1875 21.390625 63.1875 36.53125 
Q 63.1875 51.65625 55.609375 59.65625 
Q 48.046875 67.671875 33.796875 67.671875 
L 24.703125 67.671875 
z
M 5.515625 0 
L 5.515625 5.171875 
L 14.796875 5.171875 
L 14.796875 67.671875 
L 5.515625 67.671875 
L 5.515625 72.90625 
L 34.515625 72.90625 
Q 53.375 72.90625 63.890625 63.28125 
Q 74.421875 53.65625 74.421875 36.53125 
Q 74.421875 19.34375 63.875 9.671875 
Q 53.328125 0 34.515625 0 
z
" id="DejaVuSerif-68"/>
      <path d="M 24.703125 0 
L 5.609375 46.6875 
L -0.296875 46.6875 
L -0.296875 51.90625 
L 23.578125 51.90625 
L 23.578125 46.6875 
L 15.28125 46.6875 
L 29.890625 10.984375 
L 44.484375 46.6875 
L 36.71875 46.6875 
L 36.71875 51.90625 
L 56.203125 51.90625 
L 56.203125 46.6875 
L 50.390625 46.6875 
L 31.296875 0 
z
" id="DejaVuSerif-118"/>
     </defs>
     <g style="fill:#262626;" transform="translate(183.34975 229.697955)scale(0.088 -0.088)">
      <use xlink:href="#DejaVuSerif-77"/>
      <use x="102.392578" xlink:href="#DejaVuSerif-101"/>
      <use x="161.572266" xlink:href="#DejaVuSerif-97"/>
      <use x="221.191406" xlink:href="#DejaVuSerif-110"/>
      <use x="285.595703" xlink:href="#DejaVuSerif-32"/>
      <use x="317.382812" xlink:href="#DejaVuSerif-43"/>
      <use x="401.171875" xlink:href="#DejaVuSerif-32"/>
      <use x="432.958984" xlink:href="#DejaVuSerif-83"/>
      <use x="501.464844" xlink:href="#DejaVuSerif-116"/>
      <use x="541.650391" xlink:href="#DejaVuSerif-97"/>
      <use x="601.269531" xlink:href="#DejaVuSerif-110"/>
      <use x="665.673828" xlink:href="#DejaVuSerif-100"/>
      <use x="729.6875" xlink:href="#DejaVuSerif-97"/>
      <use x="789.306641" xlink:href="#DejaVuSerif-114"/>
      <use x="837.109375" xlink:href="#DejaVuSerif-100"/>
      <use x="901.123047" xlink:href="#DejaVuSerif-32"/>
      <use x="932.910156" xlink:href="#DejaVuSerif-68"/>
      <use x="1013.085938" xlink:href="#DejaVuSerif-101"/>
      <use x="1072.265625" xlink:href="#DejaVuSerif-118"/>
      <use x="1128.759766" xlink:href="#DejaVuSerif-105"/>
      <use x="1160.742188" xlink:href="#DejaVuSerif-97"/>
      <use x="1220.361328" xlink:href="#DejaVuSerif-116"/>
      <use x="1260.546875" xlink:href="#DejaVuSerif-105"/>
      <use x="1292.529297" xlink:href="#DejaVuSerif-111"/>
      <use x="1352.734375" xlink:href="#DejaVuSerif-110"/>
     </g>
    </g>
    <g id="line2d_9">
     <path d="M 325.660875 226.617955 
L 343.260875 226.617955 
" style="fill:none;stroke:#00b388;stroke-linecap:round;stroke-width:1.2;"/>
    </g>
    <g id="line2d_10"/>
    <g id="text_12">
     <!-- Mean -->
     <g style="fill:#262626;" transform="translate(350.300875 229.697955)scale(0.088 -0.088)">
      <use xlink:href="#DejaVuSerif-77"/>
      <use x="102.392578" xlink:href="#DejaVuSerif-101"/>
      <use x="161.572266" xlink:href="#DejaVuSerif-97"/>
      <use x="221.191406" xlink:href="#DejaVuSerif-110"/>
     </g>
    </g>
    <g id="line2d_11">
     <path d="M 393.0345 226.617955 
L 410.6345 226.617955 
" style="fill:none;stroke:#f6be00;stroke-linecap:round;stroke-width:1.2;"/>
    </g>
    <g id="line2d_12"/>
    <g id="text_13">
     <!-- Mean - Standard Deviation -->
     <g style="fill:#262626;" transform="translate(417.6745 229.697955)scale(0.088 -0.088)">
      <use xlink:href="#DejaVuSerif-77"/>
      <use x="102.392578" xlink:href="#DejaVuSerif-101"/>
      <use x="161.572266" xlink:href="#DejaVuSerif-97"/>
      <use x="221.191406" xlink:href="#DejaVuSerif-110"/>
      <use x="285.595703" xlink:href="#DejaVuSerif-32"/>
      <use x="317.382812" xlink:href="#DejaVuSerif-45"/>
      <use x="351.171875" xlink:href="#DejaVuSerif-32"/>
      <use x="382.958984" xlink:href="#DejaVuSerif-83"/>
      <use x="451.464844" xlink:href="#DejaVuSerif-116"/>
      <use x="491.650391" xlink:href="#DejaVuSerif-97"/>
      <use x="551.269531" xlink:href="#DejaVuSerif-110"/>
      <use x="615.673828" xlink:href="#DejaVuSerif-100"/>
      <use x="679.6875" xlink:href="#DejaVuSerif-97"/>
      <use x="739.306641" xlink:href="#DejaVuSerif-114"/>
      <use x="787.109375" xlink:href="#DejaVuSerif-100"/>
      <use x="851.123047" xlink:href="#DejaVuSerif-32"/>
      <use x="882.910156" xlink:href="#DejaVuSerif-68"/>
      <use x="963.085938" xlink:href="#DejaVuSerif-101"/>
      <use x="1022.265625" xlink:href="#DejaVuSerif-118"/>
      <use x="1078.759766" xlink:href="#DejaVuSerif-105"/>
      <use x="1110.742188" xlink:href="#DejaVuSerif-97"/>
      <use x="1170.361328" xlink:href="#DejaVuSerif-116"/>
      <use x="1210.546875" xlink:href="#DejaVuSerif-105"/>
      <use x="1242.529297" xlink:href="#DejaVuSerif-111"/>
      <use x="1302.734375" xlink:href="#DejaVuSerif-110"/>
     </g>
    </g>
   </g>
  </g>
  <g id="axes_3">
   <g id="patch_7">
    <path d="M 51.695615 434.89201 
L 644.99976 434.89201 
L 644.99976 245.601981 
L 51.695615 245.601981 
z
" style="fill:#ffffff;"/>
   </g>
   <g id="matplotlib.axis_3">
    <g id="xtick_1">
     <g id="text_14">
      <!-- 0 -->
      <g style="fill:#262626;" transform="translate(75.864485 449.878635)scale(0.088 -0.088)">
       <use xlink:href="#DejaVuSerif-48"/>
      </g>
     </g>
    </g>
    <g id="xtick_2">
     <g id="text_15">
      <!-- 20 -->
      <g style="fill:#262626;" transform="translate(178.8233 449.878635)scale(0.088 -0.088)">
       <use xlink:href="#DejaVuSerif-50"/>
       <use x="63.623047" xlink:href="#DejaVuSerif-48"/>
      </g>
     </g>
    </g>
    <g id="xtick_3">
     <g id="text_16">
      <!-- 40 -->
      <defs>
       <path d="M 34.90625 24.703125 
L 34.90625 63.484375 
L 10.015625 24.703125 
z
M 56.390625 0 
L 23.1875 0 
L 23.1875 5.171875 
L 34.90625 5.171875 
L 34.90625 19.484375 
L 3.078125 19.484375 
L 3.078125 24.8125 
L 35.015625 74.21875 
L 44.671875 74.21875 
L 44.671875 24.703125 
L 58.59375 24.703125 
L 58.59375 19.484375 
L 44.671875 19.484375 
L 44.671875 5.171875 
L 56.390625 5.171875 
z
" id="DejaVuSerif-52"/>
      </defs>
      <g style="fill:#262626;" transform="translate(284.581614 449.878635)scale(0.088 -0.088)">
       <use xlink:href="#DejaVuSerif-52"/>
       <use x="63.623047" xlink:href="#DejaVuSerif-48"/>
      </g>
     </g>
    </g>
    <g id="xtick_4">
     <g id="text_17">
      <!-- 60 -->
      <defs>
       <path d="M 32.71875 3.421875 
Q 39.59375 3.421875 43.296875 8.46875 
Q 47.015625 13.53125 47.015625 23 
Q 47.015625 32.46875 43.296875 37.515625 
Q 39.59375 42.578125 32.71875 42.578125 
Q 25.734375 42.578125 22.0625 37.6875 
Q 18.40625 32.8125 18.40625 23.578125 
Q 18.40625 13.875 22.109375 8.640625 
Q 25.828125 3.421875 32.71875 3.421875 
z
M 16.796875 40.140625 
Q 20.125 43.796875 24.3125 45.59375 
Q 28.515625 47.40625 33.796875 47.40625 
Q 44.671875 47.40625 51 40.859375 
Q 57.328125 34.328125 57.328125 23 
Q 57.328125 11.921875 50.515625 5.25 
Q 43.703125 -1.421875 32.328125 -1.421875 
Q 19.96875 -1.421875 13.328125 7.78125 
Q 6.6875 17 6.6875 34.078125 
Q 6.6875 53.21875 14.546875 63.71875 
Q 22.40625 74.21875 36.71875 74.21875 
Q 40.578125 74.21875 44.828125 73.484375 
Q 49.078125 72.75 53.515625 71.296875 
L 53.515625 59.28125 
L 48 59.28125 
Q 47.40625 64.203125 44.234375 66.796875 
Q 41.0625 69.390625 35.6875 69.390625 
Q 26.21875 69.390625 21.578125 62.203125 
Q 16.9375 55.03125 16.796875 40.140625 
z
" id="DejaVuSerif-54"/>
      </defs>
      <g style="fill:#262626;" transform="translate(390.339929 449.878635)scale(0.088 -0.088)">
       <use xlink:href="#DejaVuSerif-54"/>
       <use x="63.623047" xlink:href="#DejaVuSerif-48"/>
      </g>
     </g>
    </g>
    <g id="xtick_5">
     <g id="text_18">
      <!-- 80 -->
      <defs>
       <path d="M 46.578125 19.921875 
Q 46.578125 27.734375 42.6875 32.046875 
Q 38.8125 36.375 31.78125 36.375 
Q 24.75 36.375 20.875 32.046875 
Q 17 27.734375 17 19.921875 
Q 17 12.0625 20.875 7.734375 
Q 24.75 3.421875 31.78125 3.421875 
Q 38.8125 3.421875 42.6875 7.734375 
Q 46.578125 12.0625 46.578125 19.921875 
z
M 44.578125 55.328125 
Q 44.578125 61.96875 41.203125 65.671875 
Q 37.84375 69.390625 31.78125 69.390625 
Q 25.78125 69.390625 22.390625 65.671875 
Q 19 61.96875 19 55.328125 
Q 19 48.640625 22.390625 44.921875 
Q 25.78125 41.21875 31.78125 41.21875 
Q 37.84375 41.21875 41.203125 44.921875 
Q 44.578125 48.640625 44.578125 55.328125 
z
M 39.3125 38.8125 
Q 47.609375 37.703125 52.25 32.6875 
Q 56.890625 27.6875 56.890625 19.921875 
Q 56.890625 9.671875 50.390625 4.125 
Q 43.890625 -1.421875 31.78125 -1.421875 
Q 19.734375 -1.421875 13.203125 4.125 
Q 6.6875 9.671875 6.6875 19.921875 
Q 6.6875 27.6875 11.328125 32.6875 
Q 15.96875 37.703125 24.3125 38.8125 
Q 16.9375 40.140625 13 44.40625 
Q 9.078125 48.6875 9.078125 55.328125 
Q 9.078125 64.109375 15.125 69.15625 
Q 21.1875 74.21875 31.78125 74.21875 
Q 42.390625 74.21875 48.4375 69.15625 
Q 54.5 64.109375 54.5 55.328125 
Q 54.5 48.6875 50.5625 44.40625 
Q 46.625 40.140625 39.3125 38.8125 
z
" id="DejaVuSerif-56"/>
      </defs>
      <g style="fill:#262626;" transform="translate(496.098244 449.878635)scale(0.088 -0.088)">
       <use xlink:href="#DejaVuSerif-56"/>
       <use x="63.623047" xlink:href="#DejaVuSerif-48"/>
      </g>
     </g>
    </g>
    <g id="xtick_6">
     <g id="text_19">
      <!-- 100 -->
      <g style="fill:#262626;" transform="translate(599.057058 449.878635)scale(0.088 -0.088)">
       <use xlink:href="#DejaVuSerif-49"/>
       <use x="63.623047" xlink:href="#DejaVuSerif-48"/>
       <use x="127.246094" xlink:href="#DejaVuSerif-48"/>
      </g>
     </g>
    </g>
    <g id="text_20">
     <!-- Spectral Band -->
     <g style="fill:#262626;" transform="translate(313.758438 463.00326)scale(0.096 -0.096)">
      <use xlink:href="#DejaVuSerif-83"/>
      <use x="68.505859" xlink:href="#DejaVuSerif-112"/>
      <use x="132.519531" xlink:href="#DejaVuSerif-101"/>
      <use x="191.699219" xlink:href="#DejaVuSerif-99"/>
      <use x="247.705078" xlink:href="#DejaVuSerif-116"/>
      <use x="287.890625" xlink:href="#DejaVuSerif-114"/>
      <use x="335.693359" xlink:href="#DejaVuSerif-97"/>
      <use x="395.3125" xlink:href="#DejaVuSerif-108"/>
      <use x="427.294922" xlink:href="#DejaVuSerif-32"/>
      <use x="459.082031" xlink:href="#DejaVuSerif-66"/>
      <use x="532.568359" xlink:href="#DejaVuSerif-97"/>
      <use x="592.1875" xlink:href="#DejaVuSerif-110"/>
      <use x="656.591797" xlink:href="#DejaVuSerif-100"/>
     </g>
    </g>
   </g>
   <g id="matplotlib.axis_4">
    <g id="ytick_9">
     <g id="text_21">
      <!-- 1000 -->
      <g style="fill:#262626;" transform="translate(20.999615 424.379333)scale(0.088 -0.088)">
       <use xlink:href="#DejaVuSerif-49"/>
       <use x="63.623047" xlink:href="#DejaVuSerif-48"/>
       <use x="127.246094" xlink:href="#DejaVuSerif-48"/>
       <use x="190.869141" xlink:href="#DejaVuSerif-48"/>
      </g>
     </g>
    </g>
    <g id="ytick_10">
     <g id="text_22">
      <!-- 1200 -->
      <g style="fill:#262626;" transform="translate(20.999615 395.459496)scale(0.088 -0.088)">
       <use xlink:href="#DejaVuSerif-49"/>
       <use x="63.623047" xlink:href="#DejaVuSerif-50"/>
       <use x="127.246094" xlink:href="#DejaVuSerif-48"/>
       <use x="190.869141" xlink:href="#DejaVuSerif-48"/>
      </g>
     </g>
    </g>
    <g id="ytick_11">
     <g id="text_23">
      <!-- 1400 -->
      <g style="fill:#262626;" transform="translate(20.999615 366.53966)scale(0.088 -0.088)">
       <use xlink:href="#DejaVuSerif-49"/>
       <use x="63.623047" xlink:href="#DejaVuSerif-52"/>
       <use x="127.246094" xlink:href="#DejaVuSerif-48"/>
       <use x="190.869141" xlink:href="#DejaVuSerif-48"/>
      </g>
     </g>
    </g>
    <g id="ytick_12">
     <g id="text_24">
      <!-- 1600 -->
      <g style="fill:#262626;" transform="translate(20.999615 337.619824)scale(0.088 -0.088)">
       <use xlink:href="#DejaVuSerif-49"/>
       <use x="63.623047" xlink:href="#DejaVuSerif-54"/>
       <use x="127.246094" xlink:href="#DejaVuSerif-48"/>
       <use x="190.869141" xlink:href="#DejaVuSerif-48"/>
      </g>
     </g>
    </g>
    <g id="ytick_13">
     <g id="text_25">
      <!-- 1800 -->
      <g style="fill:#262626;" transform="translate(20.999615 308.699988)scale(0.088 -0.088)">
       <use xlink:href="#DejaVuSerif-49"/>
       <use x="63.623047" xlink:href="#DejaVuSerif-56"/>
       <use x="127.246094" xlink:href="#DejaVuSerif-48"/>
       <use x="190.869141" xlink:href="#DejaVuSerif-48"/>
      </g>
     </g>
    </g>
    <g id="ytick_14">
     <g id="text_26">
      <!-- 2000 -->
      <g style="fill:#262626;" transform="translate(20.999615 279.780151)scale(0.088 -0.088)">
       <use xlink:href="#DejaVuSerif-50"/>
       <use x="63.623047" xlink:href="#DejaVuSerif-48"/>
       <use x="127.246094" xlink:href="#DejaVuSerif-48"/>
       <use x="190.869141" xlink:href="#DejaVuSerif-48"/>
      </g>
     </g>
    </g>
    <g id="ytick_15">
     <g id="text_27">
      <!-- 2200 -->
      <g style="fill:#262626;" transform="translate(20.999615 250.860315)scale(0.088 -0.088)">
       <use xlink:href="#DejaVuSerif-50"/>
       <use x="63.623047" xlink:href="#DejaVuSerif-50"/>
       <use x="127.246094" xlink:href="#DejaVuSerif-48"/>
       <use x="190.869141" xlink:href="#DejaVuSerif-48"/>
      </g>
     </g>
    </g>
    <g id="text_28">
     <!-- Intensity -->
     <g style="fill:#262626;" transform="translate(14.866615 361.735246)rotate(-90)scale(0.096 -0.096)">
      <use xlink:href="#DejaVuSerif-73"/>
      <use x="39.501953" xlink:href="#DejaVuSerif-110"/>
      <use x="103.90625" xlink:href="#DejaVuSerif-116"/>
      <use x="144.091797" xlink:href="#DejaVuSerif-101"/>
      <use x="203.271484" xlink:href="#DejaVuSerif-110"/>
      <use x="267.675781" xlink:href="#DejaVuSerif-115"/>
      <use x="318.994141" xlink:href="#DejaVuSerif-105"/>
      <use x="350.976562" xlink:href="#DejaVuSerif-116"/>
      <use x="391.162109" xlink:href="#DejaVuSerif-121"/>
     </g>
    </g>
   </g>
   <g id="line2d_13">
    <path clip-path="url(#p80160461fd)" d="M 78.663985 348.498613 
L 83.951901 354.811248 
L 89.239817 357.160571 
L 94.527732 351.243993 
L 99.815648 345.55738 
L 105.103564 344.235103 
L 110.39148 342.948022 
L 115.679395 343.147616 
L 120.967311 342.49649 
L 126.255227 339.606202 
L 131.543143 335.775699 
L 136.831058 335.893967 
L 142.118974 334.54083 
L 147.40689 332.204253 
L 152.694805 329.10785 
L 157.982721 326.809701 
L 163.270637 324.231094 
L 168.558553 321.847587 
L 173.846468 319.404495 
L 179.134384 316.705539 
L 184.4223 314.590144 
L 189.710216 311.921095 
L 194.998131 308.928611 
L 200.286047 306.726075 
L 205.573963 303.572456 
L 210.861878 298.759475 
L 216.149794 296.676931 
L 221.43771 296.03029 
L 226.725626 294.761776 
L 232.013541 291.606626 
L 237.301457 288.398535 
L 242.589373 286.652218 
L 247.877289 285.060936 
L 253.165204 281.884995 
L 258.45312 279.126385 
L 263.741036 276.72985 
L 269.028952 274.693738 
L 274.316867 272.853891 
L 279.604783 272.267172 
L 284.892699 272.523 
L 290.180614 271.775152 
L 295.46853 271.059654 
L 300.756446 270.530732 
L 306.044362 269.874037 
L 311.332277 269.003091 
L 316.620193 268.424942 
L 321.908109 268.396772 
L 327.196025 268.916476 
L 332.48394 268.918997 
L 337.771856 270.257555 
L 343.059772 269.228556 
L 348.347688 267.613045 
L 353.635603 267.246497 
L 358.923519 266.928985 
L 364.211435 267.9334 
L 369.49935 268.544263 
L 374.787266 267.656596 
L 380.075182 265.65925 
L 385.363098 265.02288 
L 390.651013 266.161832 
L 395.938929 266.3148 
L 401.226845 265.872223 
L 406.514761 266.093745 
L 411.802676 267.453813 
L 417.090592 269.183117 
L 422.378508 267.880586 
L 427.666423 265.254855 
L 432.954339 264.691494 
L 438.242255 262.761018 
L 443.530171 261.631615 
L 448.818086 262.942758 
L 454.106002 266.142189 
L 459.393918 267.213942 
L 464.681834 265.11692 
L 469.969749 262.649691 
L 475.257665 258.958767 
L 480.545581 257.128763 
L 485.833497 256.181959 
L 491.121412 256.234071 
L 496.409328 256.521999 
L 501.697244 256.514868 
L 506.985159 259.873474 
L 512.273075 266.366493 
L 517.560991 264.829627 
L 522.848907 254.358057 
L 528.136822 254.206073 
L 533.424738 257.076884 
L 538.712654 259.340999 
L 544.00057 260.754648 
L 549.288485 261.060958 
L 554.576401 259.777291 
L 559.864317 260.393392 
L 565.152232 261.994252 
L 570.440148 262.193374 
L 575.728064 263.23002 
L 581.01598 267.023949 
L 586.303895 269.108 
L 591.591811 267.395819 
L 596.879727 267.166794 
L 602.167643 268.706031 
L 607.455558 269.74559 
L 612.743474 267.696829 
L 618.03139 266.272677 
" style="fill:none;stroke:#c8102e;stroke-linecap:round;stroke-width:1.2;"/>
   </g>
   <g id="line2d_14">
    <path clip-path="url(#p80160461fd)" d="M 78.663985 387.393265 
L 83.951901 388.688099 
L 89.239817 387.702217 
L 94.527732 380.141314 
L 99.815648 373.422675 
L 105.103564 371.16509 
L 110.39148 369.713325 
L 115.679395 369.955476 
L 120.967311 369.18822 
L 126.255227 366.158785 
L 131.543143 362.493498 
L 136.831058 362.404508 
L 142.118974 360.963543 
L 147.40689 358.725869 
L 152.694805 355.883957 
L 157.982721 353.700635 
L 163.270637 351.124594 
L 168.558553 348.709018 
L 173.846468 346.301453 
L 179.134384 343.63866 
L 184.4223 341.375931 
L 189.710216 338.66126 
L 194.998131 335.680836 
L 200.286047 333.172656 
L 205.573963 329.833601 
L 210.861878 325.21711 
L 216.149794 323.162167 
L 221.43771 322.375237 
L 226.725626 321.114766 
L 232.013541 318.181193 
L 237.301457 315.07019 
L 242.589373 313.268748 
L 247.877289 311.700974 
L 253.165204 308.726244 
L 258.45312 306.115408 
L 263.741036 303.765495 
L 269.028952 301.803981 
L 274.316867 300.116742 
L 279.604783 299.386206 
L 284.892699 299.219496 
L 290.180614 298.404722 
L 295.46853 297.772208 
L 300.756446 297.149788 
L 306.044362 296.3735 
L 311.332277 295.349838 
L 316.620193 294.535889 
L 321.908109 294.327983 
L 327.196025 294.676718 
L 332.48394 294.478984 
L 337.771856 295.488233 
L 343.059772 294.456991 
L 348.347688 292.853519 
L 353.635603 292.377858 
L 358.923519 291.888726 
L 364.211435 292.632379 
L 369.49935 293.117898 
L 374.787266 292.253759 
L 380.075182 290.490646 
L 385.363098 289.843366 
L 390.651013 290.688262 
L 395.938929 290.585566 
L 401.226845 289.921478 
L 406.514761 289.917158 
L 411.802676 290.900134 
L 417.090592 292.141127 
L 422.378508 290.933594 
L 427.666423 288.449017 
L 432.954339 287.44778 
L 438.242255 285.268464 
L 443.530171 283.894496 
L 448.818086 284.496417 
L 454.106002 286.715319 
L 459.393918 287.382706 
L 464.681834 285.522867 
L 469.969749 283.378581 
L 475.257665 280.067802 
L 480.545581 278.308538 
L 485.833497 277.202405 
L 491.121412 277.051758 
L 496.409328 277.118913 
L 501.697244 276.880297 
L 506.985159 279.659099 
L 512.273075 285.226914 
L 517.560991 283.774639 
L 522.848907 275.610401 
L 528.136822 275.602939 
L 533.424738 277.89583 
L 538.712654 279.908044 
L 544.00057 281.130618 
L 549.288485 281.295128 
L 554.576401 280.110765 
L 559.864317 280.773636 
L 565.152232 282.308343 
L 570.440148 282.47627 
L 575.728064 283.291358 
L 581.01598 286.509888 
L 586.303895 288.174585 
L 591.591811 286.697804 
L 596.879727 286.644944 
L 602.167643 288.07291 
L 607.455558 289.362286 
L 612.743474 287.873291 
L 618.03139 286.626565 
" style="fill:none;stroke:#00b388;stroke-linecap:round;stroke-width:1.2;"/>
   </g>
   <g id="line2d_15">
    <path clip-path="url(#p80160461fd)" d="M 78.663985 426.287918 
L 83.951901 422.564951 
L 89.239817 418.243864 
L 94.527732 409.038635 
L 99.815648 401.287971 
L 105.103564 398.095077 
L 110.39148 396.478628 
L 115.679395 396.763335 
L 120.967311 395.879951 
L 126.255227 392.711369 
L 131.543143 389.211298 
L 136.831058 388.915049 
L 142.118974 387.386256 
L 147.40689 385.247484 
L 152.694805 382.660064 
L 157.982721 380.591568 
L 163.270637 378.018094 
L 168.558553 375.570449 
L 173.846468 373.198411 
L 179.134384 370.571781 
L 184.4223 368.161717 
L 189.710216 365.401424 
L 194.998131 362.433061 
L 200.286047 359.619238 
L 205.573963 356.094746 
L 210.861878 351.674744 
L 216.149794 349.647404 
L 221.43771 348.720183 
L 226.725626 347.467755 
L 232.013541 344.75576 
L 237.301457 341.741845 
L 242.589373 339.885279 
L 247.877289 338.341012 
L 253.165204 335.567494 
L 258.45312 333.104432 
L 263.741036 330.801141 
L 269.028952 328.914223 
L 274.316867 327.379593 
L 279.604783 326.50524 
L 284.892699 325.915992 
L 290.180614 325.034292 
L 295.46853 324.484763 
L 300.756446 323.768844 
L 306.044362 322.872963 
L 311.332277 321.696585 
L 316.620193 320.646835 
L 321.908109 320.259194 
L 327.196025 320.43696 
L 332.48394 320.03897 
L 337.771856 320.71891 
L 343.059772 319.685427 
L 348.347688 318.093993 
L 353.635603 317.509219 
L 358.923519 316.848468 
L 364.211435 317.331358 
L 369.49935 317.691533 
L 374.787266 316.850921 
L 380.075182 315.322042 
L 385.363098 314.663853 
L 390.651013 315.214692 
L 395.938929 314.856333 
L 401.226845 313.970734 
L 406.514761 313.740572 
L 411.802676 314.346455 
L 417.090592 315.099136 
L 422.378508 313.986602 
L 427.666423 311.643179 
L 432.954339 310.204066 
L 438.242255 307.775909 
L 443.530171 306.157378 
L 448.818086 306.050076 
L 454.106002 307.28845 
L 459.393918 307.551471 
L 464.681834 305.928814 
L 469.969749 304.107471 
L 475.257665 301.176837 
L 480.545581 299.488313 
L 485.833497 298.222852 
L 491.121412 297.869446 
L 496.409328 297.715828 
L 501.697244 297.245727 
L 506.985159 299.444725 
L 512.273075 304.087335 
L 517.560991 302.71965 
L 522.848907 296.862744 
L 528.136822 296.999805 
L 533.424738 298.714775 
L 538.712654 300.475089 
L 544.00057 301.506587 
L 549.288485 301.529297 
L 554.576401 300.44424 
L 559.864317 301.153881 
L 565.152232 302.622434 
L 570.440148 302.759166 
L 575.728064 303.352697 
L 581.01598 305.995827 
L 586.303895 307.241171 
L 591.591811 305.999789 
L 596.879727 306.123094 
L 602.167643 307.439789 
L 607.455558 308.978981 
L 612.743474 308.049753 
L 618.03139 306.980453 
" style="fill:none;stroke:#f6be00;stroke-linecap:round;stroke-width:1.2;"/>
   </g>
   <g id="patch_8">
    <path d="M 51.695615 434.89201 
L 51.695615 245.601981 
" style="fill:none;stroke:#262626;stroke-linecap:square;stroke-linejoin:miter;"/>
   </g>
   <g id="patch_9">
    <path d="M 644.99976 434.89201 
L 644.99976 245.601981 
" style="fill:none;stroke:#262626;stroke-linecap:square;stroke-linejoin:miter;"/>
   </g>
   <g id="patch_10">
    <path d="M 51.695615 434.89201 
L 644.99976 434.89201 
" style="fill:none;stroke:#262626;stroke-linecap:square;stroke-linejoin:miter;"/>
   </g>
   <g id="patch_11">
    <path d="M 51.695615 245.601981 
L 644.99976 245.601981 
" style="fill:none;stroke:#262626;stroke-linecap:square;stroke-linejoin:miter;"/>
   </g>
  </g>
 </g>
 <defs>
  <clipPath id="pb37b70ceb4">
   <rect height="189.290029" width="593.304145" x="51.695615" y="16.29474"/>
  </clipPath>
  <clipPath id="p80160461fd">
   <rect height="189.290029" width="593.304145" x="51.695615" y="245.601981"/>
  </clipPath>
 </defs>
</svg>
