<?xml version="1.0" encoding="utf-8" standalone="no"?>
<!DOCTYPE svg PUBLIC "-//W3C//DTD SVG 1.1//EN"
  "http://www.w3.org/Graphics/SVG/1.1/DTD/svg11.dtd">
<!-- Created with matplotlib (https://matplotlib.org/) -->
<svg height="468pt" version="1.1" viewBox="0 0 648 468" width="648pt" xmlns="http://www.w3.org/2000/svg" xmlns:xlink="http://www.w3.org/1999/xlink">
 <defs>
  <style type="text/css">
*{stroke-linecap:butt;stroke-linejoin:round;}
  </style>
 </defs>
 <g id="figure_1">
  <g id="patch_1">
   <path d="M 0 468 
L 648 468 
L 648 0 
L 0 0 
z
" style="fill:#ffffff;"/>
  </g>
  <g id="axes_1">
   <g id="patch_2">
    <path d="M 46.98724 206.852954 
L 644.99976 206.852954 
L 644.99976 16.29474 
L 46.98724 16.29474 
z
" style="fill:#ffffff;"/>
   </g>
   <g id="matplotlib.axis_1"/>
   <g id="matplotlib.axis_2">
    <g id="ytick_1">
     <g id="text_1">
      <!-- −0.4 -->
      <defs>
       <path d="M 10.59375 35.296875 
L 73.1875 35.296875 
L 73.1875 27.390625 
L 10.59375 27.390625 
z
" id="DejaVuSerif-8722"/>
       <path d="M 31.78125 3.421875 
Q 39.265625 3.421875 42.96875 11.625 
Q 46.6875 19.828125 46.6875 36.375 
Q 46.6875 52.984375 42.96875 61.1875 
Q 39.265625 69.390625 31.78125 69.390625 
Q 24.3125 69.390625 20.59375 61.1875 
Q 16.890625 52.984375 16.890625 36.375 
Q 16.890625 19.828125 20.59375 11.625 
Q 24.3125 3.421875 31.78125 3.421875 
z
M 31.78125 -1.421875 
Q 19.921875 -1.421875 13.25 8.53125 
Q 6.59375 18.5 6.59375 36.375 
Q 6.59375 54.296875 13.25 64.25 
Q 19.921875 74.21875 31.78125 74.21875 
Q 43.703125 74.21875 50.34375 64.25 
Q 56.984375 54.296875 56.984375 36.375 
Q 56.984375 18.5 50.34375 8.53125 
Q 43.703125 -1.421875 31.78125 -1.421875 
z
" id="DejaVuSerif-48"/>
       <path d="M 9.421875 5.078125 
Q 9.421875 7.8125 11.28125 9.71875 
Q 13.140625 11.625 15.921875 11.625 
Q 18.609375 11.625 20.5 9.71875 
Q 22.40625 7.8125 22.40625 5.078125 
Q 22.40625 2.390625 20.5 0.484375 
Q 18.609375 -1.421875 15.921875 -1.421875 
Q 13.140625 -1.421875 11.28125 0.453125 
Q 9.421875 2.34375 9.421875 5.078125 
z
" id="DejaVuSerif-46"/>
       <path d="M 34.90625 24.703125 
L 34.90625 63.484375 
L 10.015625 24.703125 
z
M 56.390625 0 
L 23.1875 0 
L 23.1875 5.171875 
L 34.90625 5.171875 
L 34.90625 19.484375 
L 3.078125 19.484375 
L 3.078125 24.8125 
L 35.015625 74.21875 
L 44.671875 74.21875 
L 44.671875 24.703125 
L 58.59375 24.703125 
L 58.59375 19.484375 
L 44.671875 19.484375 
L 44.671875 5.171875 
L 56.390625 5.171875 
z
" id="DejaVuSerif-52"/>
      </defs>
      <g style="fill:#262626;" transform="translate(17.318365 207.270592)scale(0.088 -0.088)">
       <use xlink:href="#DejaVuSerif-8722"/>
       <use x="83.789062" xlink:href="#DejaVuSerif-48"/>
       <use x="147.412109" xlink:href="#DejaVuSerif-46"/>
       <use x="179.199219" xlink:href="#DejaVuSerif-52"/>
      </g>
     </g>
    </g>
    <g id="ytick_2">
     <g id="text_2">
      <!-- −0.2 -->
      <defs>
       <path d="M 12.796875 55.515625 
L 7.328125 55.515625 
L 7.328125 68.5 
Q 12.546875 71.296875 17.84375 72.75 
Q 23.140625 74.21875 28.21875 74.21875 
Q 39.59375 74.21875 46.1875 68.703125 
Q 52.78125 63.1875 52.78125 53.71875 
Q 52.78125 43.015625 37.84375 28.125 
Q 36.671875 27 36.078125 26.421875 
L 17.671875 8.015625 
L 48.09375 8.015625 
L 48.09375 17 
L 53.8125 17 
L 53.8125 0 
L 6.78125 0 
L 6.78125 5.328125 
L 28.90625 27.390625 
Q 36.234375 34.71875 39.359375 40.84375 
Q 42.484375 46.96875 42.484375 53.71875 
Q 42.484375 61.078125 38.640625 65.234375 
Q 34.8125 69.390625 28.078125 69.390625 
Q 21.09375 69.390625 17.28125 65.921875 
Q 13.484375 62.453125 12.796875 55.515625 
z
" id="DejaVuSerif-50"/>
      </defs>
      <g style="fill:#262626;" transform="translate(17.318365 175.272066)scale(0.088 -0.088)">
       <use xlink:href="#DejaVuSerif-8722"/>
       <use x="83.789062" xlink:href="#DejaVuSerif-48"/>
       <use x="147.412109" xlink:href="#DejaVuSerif-46"/>
       <use x="179.199219" xlink:href="#DejaVuSerif-50"/>
      </g>
     </g>
    </g>
    <g id="ytick_3">
     <g id="text_3">
      <!-- 0.0 -->
      <g style="fill:#262626;" transform="translate(24.69249 143.27354)scale(0.088 -0.088)">
       <use xlink:href="#DejaVuSerif-48"/>
       <use x="63.623047" xlink:href="#DejaVuSerif-46"/>
       <use x="95.410156" xlink:href="#DejaVuSerif-48"/>
      </g>
     </g>
    </g>
    <g id="ytick_4">
     <g id="text_4">
      <!-- 0.2 -->
      <g style="fill:#262626;" transform="translate(24.69249 111.275014)scale(0.088 -0.088)">
       <use xlink:href="#DejaVuSerif-48"/>
       <use x="63.623047" xlink:href="#DejaVuSerif-46"/>
       <use x="95.410156" xlink:href="#DejaVuSerif-50"/>
      </g>
     </g>
    </g>
    <g id="ytick_5">
     <g id="text_5">
      <!-- 0.4 -->
      <g style="fill:#262626;" transform="translate(24.69249 79.276489)scale(0.088 -0.088)">
       <use xlink:href="#DejaVuSerif-48"/>
       <use x="63.623047" xlink:href="#DejaVuSerif-46"/>
       <use x="95.410156" xlink:href="#DejaVuSerif-52"/>
      </g>
     </g>
    </g>
    <g id="ytick_6">
     <g id="text_6">
      <!-- 0.6 -->
      <defs>
       <path d="M 32.71875 3.421875 
Q 39.59375 3.421875 43.296875 8.46875 
Q 47.015625 13.53125 47.015625 23 
Q 47.015625 32.46875 43.296875 37.515625 
Q 39.59375 42.578125 32.71875 42.578125 
Q 25.734375 42.578125 22.0625 37.6875 
Q 18.40625 32.8125 18.40625 23.578125 
Q 18.40625 13.875 22.109375 8.640625 
Q 25.828125 3.421875 32.71875 3.421875 
z
M 16.796875 40.140625 
Q 20.125 43.796875 24.3125 45.59375 
Q 28.515625 47.40625 33.796875 47.40625 
Q 44.671875 47.40625 51 40.859375 
Q 57.328125 34.328125 57.328125 23 
Q 57.328125 11.921875 50.515625 5.25 
Q 43.703125 -1.421875 32.328125 -1.421875 
Q 19.96875 -1.421875 13.328125 7.78125 
Q 6.6875 17 6.6875 34.078125 
Q 6.6875 53.21875 14.546875 63.71875 
Q 22.40625 74.21875 36.71875 74.21875 
Q 40.578125 74.21875 44.828125 73.484375 
Q 49.078125 72.75 53.515625 71.296875 
L 53.515625 59.28125 
L 48 59.28125 
Q 47.40625 64.203125 44.234375 66.796875 
Q 41.0625 69.390625 35.6875 69.390625 
Q 26.21875 69.390625 21.578125 62.203125 
Q 16.9375 55.03125 16.796875 40.140625 
z
" id="DejaVuSerif-54"/>
      </defs>
      <g style="fill:#262626;" transform="translate(24.69249 47.277963)scale(0.088 -0.088)">
       <use xlink:href="#DejaVuSerif-48"/>
       <use x="63.623047" xlink:href="#DejaVuSerif-46"/>
       <use x="95.410156" xlink:href="#DejaVuSerif-54"/>
      </g>
     </g>
    </g>
    <g id="text_7">
     <!-- Scaled Intensity -->
     <defs>
      <path d="M 9.28125 3.515625 
L 9.28125 20.125 
L 14.890625 20.0625 
Q 15.140625 11.765625 19.703125 7.78125 
Q 24.265625 3.8125 33.59375 3.8125 
Q 42.28125 3.8125 46.84375 7.25 
Q 51.421875 10.6875 51.421875 17.28125 
Q 51.421875 22.5625 48.65625 25.390625 
Q 45.90625 28.21875 37.015625 30.90625 
L 27.390625 33.796875 
Q 16.9375 36.96875 12.671875 41.703125 
Q 8.40625 46.4375 8.40625 54.6875 
Q 8.40625 63.96875 14.984375 69.09375 
Q 21.578125 74.21875 33.5 74.21875 
Q 38.578125 74.21875 44.625 73.109375 
Q 50.6875 72.015625 57.515625 69.921875 
L 57.515625 54.390625 
L 52 54.390625 
Q 51.171875 62.109375 46.84375 65.546875 
Q 42.53125 69 33.6875 69 
Q 25.984375 69 21.953125 65.84375 
Q 17.921875 62.703125 17.921875 56.6875 
Q 17.921875 51.46875 20.9375 48.484375 
Q 23.96875 45.515625 33.796875 42.578125 
L 42.828125 39.890625 
Q 52.734375 36.921875 56.953125 32.296875 
Q 61.1875 27.6875 61.1875 19.921875 
Q 61.1875 9.328125 54.390625 3.953125 
Q 47.609375 -1.421875 34.1875 -1.421875 
Q 28.171875 -1.421875 21.9375 -0.1875 
Q 15.71875 1.03125 9.28125 3.515625 
z
" id="DejaVuSerif-83"/>
      <path d="M 51.421875 15.578125 
Q 49.515625 7.28125 44.09375 2.921875 
Q 38.671875 -1.421875 30.078125 -1.421875 
Q 18.75 -1.421875 11.859375 6.078125 
Q 4.984375 13.578125 4.984375 25.984375 
Q 4.984375 38.421875 11.859375 45.875 
Q 18.75 53.328125 30.078125 53.328125 
Q 35.015625 53.328125 39.890625 52.171875 
Q 44.78125 51.03125 49.703125 48.6875 
L 49.703125 35.40625 
L 44.484375 35.40625 
Q 43.453125 42.234375 40.015625 45.359375 
Q 36.578125 48.484375 30.171875 48.484375 
Q 22.90625 48.484375 19.1875 42.84375 
Q 15.484375 37.203125 15.484375 25.984375 
Q 15.484375 14.75 19.171875 9.078125 
Q 22.859375 3.421875 30.171875 3.421875 
Q 35.984375 3.421875 39.453125 6.4375 
Q 42.921875 9.46875 44.1875 15.578125 
z
" id="DejaVuSerif-99"/>
      <path d="M 39.796875 16.3125 
L 39.796875 27.296875 
L 28.21875 27.296875 
Q 21.53125 27.296875 18.25 24.40625 
Q 14.984375 21.53125 14.984375 15.578125 
Q 14.984375 10.15625 18.296875 6.984375 
Q 21.625 3.8125 27.296875 3.8125 
Q 32.90625 3.8125 36.34375 7.28125 
Q 39.796875 10.75 39.796875 16.3125 
z
M 48.78125 32.421875 
L 48.78125 5.171875 
L 56.78125 5.171875 
L 56.78125 0 
L 39.796875 0 
L 39.796875 5.609375 
Q 36.8125 2 32.90625 0.28125 
Q 29 -1.421875 23.78125 -1.421875 
Q 15.140625 -1.421875 10.0625 3.171875 
Q 4.984375 7.765625 4.984375 15.578125 
Q 4.984375 23.640625 10.796875 28.078125 
Q 16.609375 32.515625 27.203125 32.515625 
L 39.796875 32.515625 
L 39.796875 36.078125 
Q 39.796875 42 36.203125 45.234375 
Q 32.625 48.484375 26.125 48.484375 
Q 20.75 48.484375 17.578125 46.046875 
Q 14.40625 43.609375 13.625 38.8125 
L 8.984375 38.8125 
L 8.984375 49.3125 
Q 13.671875 51.3125 18.09375 52.3125 
Q 22.515625 53.328125 26.703125 53.328125 
Q 37.5 53.328125 43.140625 47.96875 
Q 48.78125 42.625 48.78125 32.421875 
z
" id="DejaVuSerif-97"/>
      <path d="M 20.515625 5.171875 
L 29 5.171875 
L 29 0 
L 2.875 0 
L 2.875 5.171875 
L 11.53125 5.171875 
L 11.53125 70.796875 
L 2.875 70.796875 
L 2.875 75.984375 
L 20.515625 75.984375 
z
" id="DejaVuSerif-108"/>
      <path d="M 54.203125 25 
L 15.484375 25 
L 15.484375 24.609375 
Q 15.484375 14.109375 19.4375 8.765625 
Q 23.390625 3.421875 31.109375 3.421875 
Q 37.015625 3.421875 40.796875 6.515625 
Q 44.578125 9.625 46.09375 15.71875 
L 53.328125 15.71875 
Q 51.171875 7.171875 45.375 2.875 
Q 39.59375 -1.421875 30.171875 -1.421875 
Q 18.796875 -1.421875 11.890625 6.078125 
Q 4.984375 13.578125 4.984375 25.984375 
Q 4.984375 38.28125 11.765625 45.796875 
Q 18.5625 53.328125 29.59375 53.328125 
Q 41.359375 53.328125 47.65625 46.0625 
Q 53.953125 38.8125 54.203125 25 
z
M 43.609375 30.171875 
Q 43.3125 39.265625 39.765625 43.875 
Q 36.234375 48.484375 29.59375 48.484375 
Q 23.390625 48.484375 19.828125 43.84375 
Q 16.265625 39.203125 15.484375 30.171875 
z
" id="DejaVuSerif-101"/>
      <path d="M 52.484375 5.171875 
L 61.078125 5.171875 
L 61.078125 0 
L 43.5 0 
L 43.5 8.109375 
Q 40.875 3.21875 36.796875 0.890625 
Q 32.71875 -1.421875 26.703125 -1.421875 
Q 17.140625 -1.421875 11.0625 6.171875 
Q 4.984375 13.765625 4.984375 25.984375 
Q 4.984375 38.1875 11.03125 45.75 
Q 17.09375 53.328125 26.703125 53.328125 
Q 32.71875 53.328125 36.796875 51 
Q 40.875 48.6875 43.5 43.796875 
L 43.5 70.796875 
L 35.015625 70.796875 
L 35.015625 75.984375 
L 52.484375 75.984375 
z
M 43.5 23.390625 
L 43.5 28.515625 
Q 43.5 37.84375 39.90625 42.765625 
Q 36.328125 47.703125 29.5 47.703125 
Q 22.5625 47.703125 19.015625 42.234375 
Q 15.484375 36.765625 15.484375 25.984375 
Q 15.484375 15.234375 19.015625 9.71875 
Q 22.5625 4.203125 29.5 4.203125 
Q 36.328125 4.203125 39.90625 9.109375 
Q 43.5 14.015625 43.5 23.390625 
z
" id="DejaVuSerif-100"/>
      <path id="DejaVuSerif-32"/>
      <path d="M 24.703125 5.171875 
L 33.984375 5.171875 
L 33.984375 0 
L 5.515625 0 
L 5.515625 5.171875 
L 14.796875 5.171875 
L 14.796875 67.671875 
L 5.515625 67.671875 
L 5.515625 72.90625 
L 33.984375 72.90625 
L 33.984375 67.671875 
L 24.703125 67.671875 
z
" id="DejaVuSerif-73"/>
      <path d="M 4.109375 0 
L 4.109375 5.171875 
L 12.203125 5.171875 
L 12.203125 46.6875 
L 3.609375 46.6875 
L 3.609375 51.90625 
L 21.1875 51.90625 
L 21.1875 42.671875 
Q 23.6875 47.953125 27.65625 50.640625 
Q 31.640625 53.328125 36.921875 53.328125 
Q 45.515625 53.328125 49.5625 48.390625 
Q 53.609375 43.453125 53.609375 33.015625 
L 53.609375 5.171875 
L 61.625 5.171875 
L 61.625 0 
L 36.8125 0 
L 36.8125 5.171875 
L 44.578125 5.171875 
L 44.578125 30.171875 
Q 44.578125 39.703125 42.234375 43.234375 
Q 39.890625 46.78125 33.984375 46.78125 
Q 27.734375 46.78125 24.453125 42.203125 
Q 21.1875 37.640625 21.1875 28.90625 
L 21.1875 5.171875 
L 29 5.171875 
L 29 0 
z
" id="DejaVuSerif-110"/>
      <path d="M 10.796875 46.6875 
L 2.875 46.6875 
L 2.875 51.90625 
L 10.796875 51.90625 
L 10.796875 68.015625 
L 19.828125 68.015625 
L 19.828125 51.90625 
L 36.71875 51.90625 
L 36.71875 46.6875 
L 19.828125 46.6875 
L 19.828125 13.71875 
Q 19.828125 7.125 21.09375 5.265625 
Q 22.359375 3.421875 25.78125 3.421875 
Q 29.296875 3.421875 30.90625 5.484375 
Q 32.515625 7.5625 32.625 12.203125 
L 39.40625 12.203125 
Q 39.015625 5.125 35.546875 1.84375 
Q 32.078125 -1.421875 25 -1.421875 
Q 17.234375 -1.421875 14.015625 2.015625 
Q 10.796875 5.46875 10.796875 13.71875 
z
" id="DejaVuSerif-116"/>
      <path d="M 5.609375 2.875 
L 5.609375 14.984375 
L 10.796875 14.984375 
Q 10.984375 9.1875 14.421875 6.296875 
Q 17.875 3.421875 24.609375 3.421875 
Q 30.671875 3.421875 33.84375 5.6875 
Q 37.015625 7.953125 37.015625 12.3125 
Q 37.015625 15.71875 34.6875 17.8125 
Q 32.375 19.921875 24.90625 22.3125 
L 18.40625 24.515625 
Q 11.71875 26.65625 8.71875 29.875 
Q 5.71875 33.109375 5.71875 38.09375 
Q 5.71875 45.21875 10.9375 49.265625 
Q 16.15625 53.328125 25.390625 53.328125 
Q 29.5 53.328125 34.03125 52.25 
Q 38.578125 51.171875 43.40625 49.125 
L 43.40625 37.796875 
L 38.234375 37.796875 
Q 38.03125 42.828125 34.703125 45.65625 
Q 31.390625 48.484375 25.6875 48.484375 
Q 20.015625 48.484375 17.109375 46.484375 
Q 14.203125 44.484375 14.203125 40.484375 
Q 14.203125 37.203125 16.40625 35.21875 
Q 18.609375 33.25 25.203125 31.203125 
L 32.328125 29 
Q 39.703125 26.703125 42.9375 23.265625 
Q 46.1875 19.828125 46.1875 14.40625 
Q 46.1875 7.03125 40.546875 2.796875 
Q 34.90625 -1.421875 25 -1.421875 
Q 19.96875 -1.421875 15.1875 -0.34375 
Q 10.40625 0.734375 5.609375 2.875 
z
" id="DejaVuSerif-115"/>
      <path d="M 9.71875 68.015625 
Q 9.71875 70.265625 11.34375 71.921875 
Q 12.984375 73.578125 15.28125 73.578125 
Q 17.53125 73.578125 19.15625 71.921875 
Q 20.796875 70.265625 20.796875 68.015625 
Q 20.796875 65.71875 19.1875 64.109375 
Q 17.578125 62.5 15.28125 62.5 
Q 12.984375 62.5 11.34375 64.109375 
Q 9.71875 65.71875 9.71875 68.015625 
z
M 21.1875 5.171875 
L 29.6875 5.171875 
L 29.6875 0 
L 3.609375 0 
L 3.609375 5.171875 
L 12.203125 5.171875 
L 12.203125 46.6875 
L 3.609375 46.6875 
L 3.609375 51.90625 
L 21.1875 51.90625 
z
" id="DejaVuSerif-105"/>
      <path d="M 21.578125 -9.515625 
L 25 -0.875 
L 5.609375 46.6875 
L -0.296875 46.6875 
L -0.296875 51.90625 
L 23.578125 51.90625 
L 23.578125 46.6875 
L 15.28125 46.6875 
L 29.890625 10.984375 
L 44.484375 46.6875 
L 36.71875 46.6875 
L 36.71875 51.90625 
L 56.203125 51.90625 
L 56.203125 46.6875 
L 50.390625 46.6875 
L 26.609375 -11.71875 
Q 24.171875 -17.78125 21.1875 -20 
Q 18.21875 -22.21875 12.796875 -22.21875 
Q 10.5 -22.21875 8.078125 -21.828125 
Q 5.671875 -21.4375 3.21875 -20.703125 
L 3.21875 -10.796875 
L 7.8125 -10.796875 
Q 8.109375 -14.109375 9.5 -15.546875 
Q 10.890625 -17 13.8125 -17 
Q 16.5 -17 18.140625 -15.5 
Q 19.78125 -14.015625 21.578125 -9.515625 
z
" id="DejaVuSerif-121"/>
     </defs>
     <g style="fill:#262626;" transform="translate(11.185365 150.874597)rotate(-90)scale(0.096 -0.096)">
      <use xlink:href="#DejaVuSerif-83"/>
      <use x="68.505859" xlink:href="#DejaVuSerif-99"/>
      <use x="124.511719" xlink:href="#DejaVuSerif-97"/>
      <use x="184.130859" xlink:href="#DejaVuSerif-108"/>
      <use x="216.113281" xlink:href="#DejaVuSerif-101"/>
      <use x="275.292969" xlink:href="#DejaVuSerif-100"/>
      <use x="339.306641" xlink:href="#DejaVuSerif-32"/>
      <use x="371.09375" xlink:href="#DejaVuSerif-73"/>
      <use x="410.595703" xlink:href="#DejaVuSerif-110"/>
      <use x="475" xlink:href="#DejaVuSerif-116"/>
      <use x="515.185547" xlink:href="#DejaVuSerif-101"/>
      <use x="574.365234" xlink:href="#DejaVuSerif-110"/>
      <use x="638.769531" xlink:href="#DejaVuSerif-115"/>
      <use x="690.087891" xlink:href="#DejaVuSerif-105"/>
      <use x="722.070312" xlink:href="#DejaVuSerif-116"/>
      <use x="762.255859" xlink:href="#DejaVuSerif-121"/>
     </g>
    </g>
   </g>
   <g id="line2d_1">
    <path clip-path="url(#pe5972b67ab)" d="M 74.169627 85.014511 
L 79.499507 111.148528 
L 84.829387 138.218721 
L 90.159267 148.700828 
L 95.489147 147.261631 
L 100.819027 134.439753 
L 106.148906 126.883693 
L 111.478786 125.349523 
L 116.808666 125.264843 
L 122.138546 123.223832 
L 127.468426 115.240799 
L 132.798306 105.718931 
L 138.128186 97.542654 
L 143.458065 90.373547 
L 148.787945 83.430593 
L 154.117825 77.809782 
L 159.447705 78.198071 
L 164.777585 80.627788 
L 170.107465 78.830404 
L 175.437345 70.670947 
L 180.767224 63.778679 
L 186.097104 53.78294 
L 191.426984 51.528844 
L 196.756864 51.657927 
L 202.086744 48.713908 
L 207.416624 46.758155 
L 212.746504 39.507446 
L 218.076383 35.879464 
L 223.406263 30.940756 
L 228.736143 27.787005 
L 234.066023 30.942577 
L 239.395903 30.408487 
L 244.725783 28.338785 
L 250.055663 28.615967 
L 255.385542 30.121921 
L 260.715422 25.971826 
L 266.045302 25.601312 
L 271.375182 26.300972 
L 276.705062 32.393621 
L 282.034942 27.189488 
L 287.364822 25.555548 
L 292.694701 24.978267 
L 298.024581 24.956477 
L 303.354461 32.203315 
L 308.684341 33.893319 
L 314.014221 36.193848 
L 319.344101 37.770256 
L 324.673981 29.807557 
L 330.00386 26.821263 
L 335.33374 29.899057 
L 340.66362 31.053427 
L 345.9935 36.228503 
L 351.32338 31.973041 
L 356.65326 37.764944 
L 361.98314 35.626523 
L 367.313019 38.891239 
L 372.642899 33.024238 
L 377.972779 32.234679 
L 383.302659 36.384412 
L 388.632539 39.005036 
L 393.962419 41.793031 
L 399.292299 37.121453 
L 404.622178 40.732756 
L 409.952058 40.560254 
L 415.281938 40.665258 
L 420.611818 39.624943 
L 425.941698 38.179888 
L 431.271578 47.663017 
L 436.601458 39.383579 
L 441.931337 39.636768 
L 447.261217 44.755665 
L 452.591097 43.718239 
L 457.920977 49.846392 
L 463.250857 49.514462 
L 468.580737 56.079578 
L 473.910617 56.990886 
L 479.240496 54.930367 
L 484.570376 57.021917 
L 489.900256 60.358908 
L 495.230136 70.208446 
L 500.560016 69.478242 
L 505.889896 75.790326 
L 511.219776 83.508748 
L 516.549655 80.630906 
L 521.879535 90.614272 
L 527.209415 91.45134 
L 532.539295 91.670713 
L 537.869175 88.985672 
L 543.199055 89.319156 
L 548.528935 88.154988 
L 553.858814 84.256857 
L 559.188694 85.519778 
L 564.518574 91.587204 
L 569.848454 91.11457 
L 575.178334 97.620585 
L 580.508214 93.946323 
L 585.838094 86.15061 
L 591.167973 86.825417 
L 596.497853 89.657952 
L 601.827733 81.203208 
L 607.157613 82.802056 
L 612.487493 87.824178 
L 617.817373 87.264435 
" style="fill:none;stroke:#c8102e;stroke-linecap:round;stroke-width:1.2;"/>
   </g>
   <g id="line2d_2">
    <path clip-path="url(#pe5972b67ab)" d="M 74.169627 132.311079 
L 79.499507 149.977903 
L 84.829387 167.421365 
L 90.159267 173.446023 
L 95.489147 171.979382 
L 100.819027 159.367828 
L 106.148906 152.888247 
L 111.478786 148.849732 
L 116.808666 146.939505 
L 122.138546 143.449555 
L 127.468426 136.319334 
L 132.798306 130.060482 
L 138.128186 124.150676 
L 143.458065 115.763982 
L 148.787945 110.106694 
L 154.117825 105.133569 
L 159.447705 104.621286 
L 164.777585 106.460684 
L 170.107465 105.279126 
L 175.437345 96.468347 
L 180.767224 90.370066 
L 186.097104 81.84638 
L 191.426984 82.243963 
L 196.756864 81.839905 
L 202.086744 79.675168 
L 207.416624 76.275729 
L 212.746504 68.502225 
L 218.076383 66.107564 
L 223.406263 62.483325 
L 228.736143 60.420575 
L 234.066023 63.044117 
L 239.395903 63.632306 
L 244.725783 62.580548 
L 250.055663 62.245575 
L 255.385542 63.125552 
L 260.715422 60.986035 
L 266.045302 60.60001 
L 271.375182 62.791252 
L 276.705062 67.560567 
L 282.034942 62.959816 
L 287.364822 61.606252 
L 292.694701 59.375944 
L 298.024581 60.819297 
L 303.354461 64.28623 
L 308.684341 65.471058 
L 314.014221 68.233053 
L 319.344101 69.877088 
L 324.673981 65.385766 
L 330.00386 61.575135 
L 335.33374 64.237619 
L 340.66362 65.199069 
L 345.9935 68.723691 
L 351.32338 65.636442 
L 356.65326 70.21741 
L 361.98314 69.397417 
L 367.313019 72.743701 
L 372.642899 67.44935 
L 377.972779 68.939045 
L 383.302659 71.771666 
L 388.632539 73.79052 
L 393.962419 74.948318 
L 399.292299 70.489748 
L 404.622178 75.716701 
L 409.952058 75.414457 
L 415.281938 76.687726 
L 420.611818 74.886747 
L 425.941698 73.229304 
L 431.271578 79.704669 
L 436.601458 72.818289 
L 441.931337 73.935525 
L 447.261217 76.942664 
L 452.591097 76.042285 
L 457.920977 80.888439 
L 463.250857 82.351627 
L 468.580737 88.563476 
L 473.910617 90.250166 
L 479.240496 88.744146 
L 484.570376 87.359646 
L 489.900256 91.480507 
L 495.230136 100.966967 
L 500.560016 101.324652 
L 505.889896 106.283475 
L 511.219776 113.057257 
L 516.549655 110.02579 
L 521.879535 120.175309 
L 527.209415 120.942616 
L 532.539295 120.416375 
L 537.869175 119.867242 
L 543.199055 120.820113 
L 548.528935 119.644283 
L 553.858814 115.23677 
L 559.188694 116.782688 
L 564.518574 121.66444 
L 569.848454 123.080103 
L 575.178334 128.42275 
L 580.508214 124.341408 
L 585.838094 118.46494 
L 591.167973 119.824595 
L 596.497853 122.148206 
L 601.827733 116.382309 
L 607.157613 120.20564 
L 612.487493 127.132352 
L 617.817373 123.536612 
" style="fill:none;stroke:#00b388;stroke-linecap:round;stroke-width:1.2;"/>
   </g>
   <g id="line2d_3">
    <path clip-path="url(#pe5972b67ab)" d="M 74.169627 179.607646 
L 79.499507 188.80728 
L 84.829387 196.624011 
L 90.159267 198.191217 
L 95.489147 196.697136 
L 100.819027 184.295902 
L 106.148906 178.892799 
L 111.478786 172.349941 
L 116.808666 168.614166 
L 122.138546 163.675278 
L 127.468426 157.397867 
L 132.798306 154.402034 
L 138.128186 150.758699 
L 143.458065 141.154417 
L 148.787945 136.782797 
L 154.117825 132.457354 
L 159.447705 131.044502 
L 164.777585 132.293582 
L 170.107465 131.727845 
L 175.437345 122.265746 
L 180.767224 116.961453 
L 186.097104 109.909815 
L 191.426984 112.959086 
L 196.756864 112.021886 
L 202.086744 110.636428 
L 207.416624 105.7933 
L 212.746504 97.497004 
L 218.076383 96.335659 
L 223.406263 94.025894 
L 228.736143 93.054145 
L 234.066023 95.145657 
L 239.395903 96.856131 
L 244.725783 96.82231 
L 250.055663 95.875184 
L 255.385542 96.129183 
L 260.715422 96.000243 
L 266.045302 95.598707 
L 271.375182 99.281532 
L 276.705062 102.727512 
L 282.034942 98.730143 
L 287.364822 97.656956 
L 292.694701 93.773616 
L 298.024581 96.682117 
L 303.354461 96.36914 
L 308.684341 97.048798 
L 314.014221 100.272259 
L 319.344101 101.983918 
L 324.673981 100.963975 
L 330.00386 96.329007 
L 335.33374 98.576175 
L 340.66362 99.344706 
L 345.9935 101.21888 
L 351.32338 99.299842 
L 356.65326 102.669877 
L 361.98314 103.168315 
L 367.313019 106.596166 
L 372.642899 101.874461 
L 377.972779 105.64341 
L 383.302659 107.158922 
L 388.632539 108.576005 
L 393.962419 108.103605 
L 399.292299 103.858038 
L 404.622178 110.700648 
L 409.952058 110.268663 
L 415.281938 112.710188 
L 420.611818 110.148546 
L 425.941698 108.278718 
L 431.271578 111.746325 
L 436.601458 106.253002 
L 441.931337 108.234284 
L 447.261217 109.129659 
L 452.591097 108.366333 
L 457.920977 111.930488 
L 463.250857 115.188795 
L 468.580737 121.047373 
L 473.910617 123.509449 
L 479.240496 122.557926 
L 484.570376 117.697372 
L 489.900256 122.602106 
L 495.230136 131.725487 
L 500.560016 133.171062 
L 505.889896 136.776627 
L 511.219776 142.605766 
L 516.549655 139.420674 
L 521.879535 149.736347 
L 527.209415 150.433893 
L 532.539295 149.162035 
L 537.869175 150.748814 
L 543.199055 152.321068 
L 548.528935 151.133577 
L 553.858814 146.216685 
L 559.188694 148.045596 
L 564.518574 151.741678 
L 569.848454 155.045636 
L 575.178334 159.224913 
L 580.508214 154.736491 
L 585.838094 150.77927 
L 591.167973 152.823773 
L 596.497853 154.63846 
L 601.827733 151.561409 
L 607.157613 157.609221 
L 612.487493 166.440523 
L 617.817373 159.80879 
" style="fill:none;stroke:#f6be00;stroke-linecap:round;stroke-width:1.2;"/>
   </g>
   <g id="line2d_4"/>
   <g id="line2d_5"/>
   <g id="line2d_6"/>
   <g id="patch_3">
    <path d="M 46.98724 206.852954 
L 46.98724 16.29474 
" style="fill:none;stroke:#262626;stroke-linecap:square;stroke-linejoin:miter;"/>
   </g>
   <g id="patch_4">
    <path d="M 644.99976 206.852954 
L 644.99976 16.29474 
" style="fill:none;stroke:#262626;stroke-linecap:square;stroke-linejoin:miter;"/>
   </g>
   <g id="patch_5">
    <path d="M 46.98724 206.852954 
L 644.99976 206.852954 
" style="fill:none;stroke:#262626;stroke-linecap:square;stroke-linejoin:miter;"/>
   </g>
   <g id="patch_6">
    <path d="M 46.98724 16.29474 
L 644.99976 16.29474 
" style="fill:none;stroke:#262626;stroke-linecap:square;stroke-linejoin:miter;"/>
   </g>
   <g id="text_8">
    <!-- Self-Blocking Bricks Generated Samples -->
    <defs>
     <path d="M 43.015625 63.71875 
L 38.28125 63.71875 
Q 38.234375 67.390625 36.203125 69.28125 
Q 34.1875 71.1875 30.328125 71.1875 
Q 25.296875 71.1875 23.234375 68.421875 
Q 21.1875 65.671875 21.1875 58.59375 
L 21.1875 51.90625 
L 35.6875 51.90625 
L 35.6875 46.6875 
L 21.1875 46.6875 
L 21.1875 5.171875 
L 32.71875 5.171875 
L 32.71875 0 
L 3.609375 0 
L 3.609375 5.171875 
L 12.203125 5.171875 
L 12.203125 46.6875 
L 3.609375 46.6875 
L 3.609375 51.90625 
L 12.203125 51.90625 
L 12.203125 58.40625 
Q 12.203125 67.09375 16.71875 71.53125 
Q 21.234375 75.984375 29.984375 75.984375 
Q 33.25 75.984375 36.515625 75.390625 
Q 39.796875 74.8125 43.015625 73.578125 
z
" id="DejaVuSerif-102"/>
     <path d="M 4.390625 30.609375 
L 29.390625 30.609375 
L 29.390625 23 
L 4.390625 23 
z
" id="DejaVuSerif-45"/>
     <path d="M 24.703125 5.171875 
L 39.3125 5.171875 
Q 48.09375 5.171875 52.140625 8.984375 
Q 56.203125 12.796875 56.203125 21.09375 
Q 56.203125 29.34375 52.171875 33.125 
Q 48.140625 36.921875 39.3125 36.921875 
L 24.703125 36.921875 
z
M 24.703125 42.09375 
L 37.109375 42.09375 
Q 45.125 42.09375 48.796875 45.171875 
Q 52.484375 48.25 52.484375 54.890625 
Q 52.484375 61.578125 48.796875 64.625 
Q 45.125 67.671875 37.109375 67.671875 
L 24.703125 67.671875 
z
M 5.515625 0 
L 5.515625 5.171875 
L 14.796875 5.171875 
L 14.796875 67.671875 
L 5.515625 67.671875 
L 5.515625 72.90625 
L 41.5 72.90625 
Q 52.546875 72.90625 58.125 68.390625 
Q 63.71875 63.875 63.71875 54.890625 
Q 63.71875 48.390625 59.828125 44.53125 
Q 55.953125 40.671875 48.484375 39.796875 
Q 57.765625 38.625 62.578125 33.859375 
Q 67.390625 29.109375 67.390625 21.09375 
Q 67.390625 10.25 60.546875 5.125 
Q 53.71875 0 39.203125 0 
z
" id="DejaVuSerif-66"/>
     <path d="M 30.078125 3.421875 
Q 37.3125 3.421875 40.984375 9.125 
Q 44.671875 14.84375 44.671875 25.984375 
Q 44.671875 37.109375 40.984375 42.796875 
Q 37.3125 48.484375 30.078125 48.484375 
Q 22.859375 48.484375 19.171875 42.796875 
Q 15.484375 37.109375 15.484375 25.984375 
Q 15.484375 14.84375 19.1875 9.125 
Q 22.90625 3.421875 30.078125 3.421875 
z
M 30.078125 -1.421875 
Q 18.75 -1.421875 11.859375 6.078125 
Q 4.984375 13.578125 4.984375 25.984375 
Q 4.984375 38.375 11.84375 45.84375 
Q 18.703125 53.328125 30.078125 53.328125 
Q 41.453125 53.328125 48.3125 45.84375 
Q 55.171875 38.375 55.171875 25.984375 
Q 55.171875 13.578125 48.3125 6.078125 
Q 41.453125 -1.421875 30.078125 -1.421875 
z
" id="DejaVuSerif-111"/>
     <path d="M 28.609375 0 
L 3.421875 0 
L 3.421875 5.171875 
L 11.53125 5.171875 
L 11.53125 70.796875 
L 2.875 70.796875 
L 2.875 75.984375 
L 20.515625 75.984375 
L 20.515625 26.515625 
L 42.390625 46.6875 
L 34.90625 46.6875 
L 34.90625 51.90625 
L 58.40625 51.90625 
L 58.40625 46.6875 
L 49.515625 46.6875 
L 34.078125 32.421875 
L 53.8125 5.171875 
L 61.28125 5.171875 
L 61.28125 0 
L 35.6875 0 
L 35.6875 5.171875 
L 43.109375 5.171875 
L 27.59375 26.515625 
L 20.515625 19.921875 
L 20.515625 5.171875 
L 28.609375 5.171875 
z
" id="DejaVuSerif-107"/>
     <path d="M 52.484375 46.6875 
L 52.484375 1.125 
Q 52.484375 -10.0625 46.328125 -16.140625 
Q 40.1875 -22.21875 28.8125 -22.21875 
Q 23.6875 -22.21875 19 -21.28125 
Q 14.3125 -20.359375 10.015625 -18.5 
L 10.015625 -7.625 
L 14.703125 -7.625 
Q 15.578125 -12.703125 18.84375 -15.046875 
Q 22.125 -17.390625 28.21875 -17.390625 
Q 36.140625 -17.390625 39.8125 -12.921875 
Q 43.5 -8.453125 43.5 1.125 
L 43.5 8.109375 
Q 40.875 3.21875 36.796875 0.890625 
Q 32.71875 -1.421875 26.703125 -1.421875 
Q 17.140625 -1.421875 11.0625 6.171875 
Q 4.984375 13.765625 4.984375 25.984375 
Q 4.984375 38.1875 11.03125 45.75 
Q 17.09375 53.328125 26.703125 53.328125 
Q 32.71875 53.328125 36.796875 51 
Q 40.875 48.6875 43.5 43.796875 
L 43.5 51.90625 
L 61.078125 51.90625 
L 61.078125 46.6875 
z
M 43.5 28.515625 
Q 43.5 37.84375 39.90625 42.765625 
Q 36.328125 47.703125 29.5 47.703125 
Q 22.5625 47.703125 19.015625 42.234375 
Q 15.484375 36.765625 15.484375 25.984375 
Q 15.484375 15.234375 19.015625 9.71875 
Q 22.5625 4.203125 29.5 4.203125 
Q 36.328125 4.203125 39.90625 9.109375 
Q 43.5 14.015625 43.5 23.390625 
z
" id="DejaVuSerif-103"/>
     <path d="M 47.796875 52 
L 47.796875 39.015625 
L 42.625 39.015625 
Q 42.390625 42.875 40.484375 44.78125 
Q 38.578125 46.6875 34.90625 46.6875 
Q 28.265625 46.6875 24.71875 42.09375 
Q 21.1875 37.5 21.1875 28.90625 
L 21.1875 5.171875 
L 31.59375 5.171875 
L 31.59375 0 
L 4.109375 0 
L 4.109375 5.171875 
L 12.203125 5.171875 
L 12.203125 46.78125 
L 3.609375 46.78125 
L 3.609375 51.90625 
L 21.1875 51.90625 
L 21.1875 42.671875 
Q 23.828125 48.09375 27.96875 50.703125 
Q 32.125 53.328125 38.09375 53.328125 
Q 40.28125 53.328125 42.703125 52.984375 
Q 45.125 52.640625 47.796875 52 
z
" id="DejaVuSerif-114"/>
     <path d="M 64.015625 51.125 
Q 62.3125 60.25 56.890625 64.625 
Q 51.46875 69 41.796875 69 
Q 29.203125 69 23 60.890625 
Q 16.796875 52.78125 16.796875 36.375 
Q 16.796875 20.3125 23.1875 12.0625 
Q 29.59375 3.8125 42 3.8125 
Q 47.515625 3.8125 52.53125 5.171875 
Q 57.5625 6.546875 62.109375 9.28125 
L 62.109375 28.078125 
L 48.390625 28.078125 
L 48.390625 33.296875 
L 72.015625 33.296875 
L 72.015625 6.109375 
Q 65.53125 2.34375 58.03125 0.453125 
Q 50.53125 -1.421875 42 -1.421875 
Q 25.484375 -1.421875 15.546875 8.90625 
Q 5.609375 19.234375 5.609375 36.375 
Q 5.609375 53.65625 15.5625 63.9375 
Q 25.53125 74.21875 42.390625 74.21875 
Q 48.640625 74.21875 55.296875 72.78125 
Q 61.96875 71.34375 69.484375 68.40625 
L 69.484375 51.125 
z
" id="DejaVuSerif-71"/>
     <path d="M 51.8125 41.796875 
Q 54.390625 47.515625 58.421875 50.421875 
Q 62.453125 53.328125 67.828125 53.328125 
Q 75.984375 53.328125 79.984375 48.265625 
Q 83.984375 43.21875 83.984375 33.015625 
L 83.984375 5.171875 
L 92.09375 5.171875 
L 92.09375 0 
L 67.1875 0 
L 67.1875 5.171875 
L 75 5.171875 
L 75 31.984375 
Q 75 39.9375 72.65625 43.3125 
Q 70.3125 46.6875 64.890625 46.6875 
Q 58.890625 46.6875 55.734375 42.140625 
Q 52.59375 37.59375 52.59375 28.90625 
L 52.59375 5.171875 
L 60.40625 5.171875 
L 60.40625 0 
L 35.796875 0 
L 35.796875 5.171875 
L 43.609375 5.171875 
L 43.609375 32.328125 
Q 43.609375 40.09375 41.265625 43.390625 
Q 38.921875 46.6875 33.5 46.6875 
Q 27.484375 46.6875 24.328125 42.140625 
Q 21.1875 37.59375 21.1875 28.90625 
L 21.1875 5.171875 
L 29 5.171875 
L 29 0 
L 4.109375 0 
L 4.109375 5.171875 
L 12.203125 5.171875 
L 12.203125 46.78125 
L 3.609375 46.78125 
L 3.609375 51.90625 
L 21.1875 51.90625 
L 21.1875 42.671875 
Q 23.6875 47.859375 27.53125 50.59375 
Q 31.390625 53.328125 36.28125 53.328125 
Q 42.328125 53.328125 46.375 50.3125 
Q 50.4375 47.3125 51.8125 41.796875 
z
" id="DejaVuSerif-109"/>
     <path d="M 20.515625 28.515625 
L 20.515625 23.390625 
Q 20.515625 14.015625 24.09375 9.109375 
Q 27.6875 4.203125 34.515625 4.203125 
Q 41.40625 4.203125 44.9375 9.71875 
Q 48.484375 15.234375 48.484375 25.984375 
Q 48.484375 36.765625 44.9375 42.234375 
Q 41.40625 47.703125 34.515625 47.703125 
Q 27.6875 47.703125 24.09375 42.765625 
Q 20.515625 37.84375 20.515625 28.515625 
z
M 11.53125 46.6875 
L 2.875 46.6875 
L 2.875 51.90625 
L 20.515625 51.90625 
L 20.515625 43.796875 
Q 23.140625 48.6875 27.21875 51 
Q 31.296875 53.328125 37.3125 53.328125 
Q 46.875 53.328125 52.921875 45.75 
Q 58.984375 38.1875 58.984375 25.984375 
Q 58.984375 13.765625 52.921875 6.171875 
Q 46.875 -1.421875 37.3125 -1.421875 
Q 31.296875 -1.421875 27.21875 0.890625 
Q 23.140625 3.21875 20.515625 8.109375 
L 20.515625 -15.578125 
L 29 -15.578125 
L 29 -20.796875 
L 2.875 -20.796875 
L 2.875 -15.578125 
L 11.53125 -15.578125 
z
" id="DejaVuSerif-112"/>
    </defs>
    <g style="fill:#262626;" transform="translate(247.4705 10.29474)scale(0.096 -0.096)">
     <use xlink:href="#DejaVuSerif-83"/>
     <use x="68.505859" xlink:href="#DejaVuSerif-101"/>
     <use x="127.685547" xlink:href="#DejaVuSerif-108"/>
     <use x="159.667969" xlink:href="#DejaVuSerif-102"/>
     <use x="196.632812" xlink:href="#DejaVuSerif-45"/>
     <use x="230.421875" xlink:href="#DejaVuSerif-66"/>
     <use x="303.908203" xlink:href="#DejaVuSerif-108"/>
     <use x="335.890625" xlink:href="#DejaVuSerif-111"/>
     <use x="396.095703" xlink:href="#DejaVuSerif-99"/>
     <use x="452.101562" xlink:href="#DejaVuSerif-107"/>
     <use x="512.697266" xlink:href="#DejaVuSerif-105"/>
     <use x="544.679688" xlink:href="#DejaVuSerif-110"/>
     <use x="609.083984" xlink:href="#DejaVuSerif-103"/>
     <use x="673.097656" xlink:href="#DejaVuSerif-32"/>
     <use x="704.884766" xlink:href="#DejaVuSerif-66"/>
     <use x="778.371094" xlink:href="#DejaVuSerif-114"/>
     <use x="826.173828" xlink:href="#DejaVuSerif-105"/>
     <use x="858.15625" xlink:href="#DejaVuSerif-99"/>
     <use x="914.162109" xlink:href="#DejaVuSerif-107"/>
     <use x="974.757812" xlink:href="#DejaVuSerif-115"/>
     <use x="1026.076172" xlink:href="#DejaVuSerif-32"/>
     <use x="1057.863281" xlink:href="#DejaVuSerif-71"/>
     <use x="1137.746094" xlink:href="#DejaVuSerif-101"/>
     <use x="1196.925781" xlink:href="#DejaVuSerif-110"/>
     <use x="1261.330078" xlink:href="#DejaVuSerif-101"/>
     <use x="1320.509766" xlink:href="#DejaVuSerif-114"/>
     <use x="1368.3125" xlink:href="#DejaVuSerif-97"/>
     <use x="1427.931641" xlink:href="#DejaVuSerif-116"/>
     <use x="1468.117188" xlink:href="#DejaVuSerif-101"/>
     <use x="1527.296875" xlink:href="#DejaVuSerif-100"/>
     <use x="1591.310547" xlink:href="#DejaVuSerif-32"/>
     <use x="1623.097656" xlink:href="#DejaVuSerif-83"/>
     <use x="1691.603516" xlink:href="#DejaVuSerif-97"/>
     <use x="1751.222656" xlink:href="#DejaVuSerif-109"/>
     <use x="1846.046875" xlink:href="#DejaVuSerif-112"/>
     <use x="1910.060547" xlink:href="#DejaVuSerif-108"/>
     <use x="1942.042969" xlink:href="#DejaVuSerif-101"/>
     <use x="2001.222656" xlink:href="#DejaVuSerif-115"/>
    </g>
   </g>
  </g>
  <g id="axes_2">
   <g id="legend_1">
    <g id="line2d_7">
     <path d="M 156.355562 225.359245 
L 173.955562 225.359245 
" style="fill:none;stroke:#c8102e;stroke-linecap:round;stroke-width:1.2;"/>
    </g>
    <g id="line2d_8"/>
    <g id="text_9">
     <!-- Mean + Standard Deviation -->
     <defs>
      <path d="M 5.515625 0 
L 5.515625 5.171875 
L 14.796875 5.171875 
L 14.796875 67.671875 
L 4.984375 67.671875 
L 4.984375 72.90625 
L 26.21875 72.90625 
L 51.8125 21 
L 77.390625 72.90625 
L 97.3125 72.90625 
L 97.3125 67.671875 
L 87.59375 67.671875 
L 87.59375 5.171875 
L 96.921875 5.171875 
L 96.921875 0 
L 68.40625 0 
L 68.40625 5.171875 
L 77.6875 5.171875 
L 77.6875 61.53125 
L 52.6875 10.6875 
L 45.796875 10.6875 
L 20.796875 61.53125 
L 20.796875 5.171875 
L 30.078125 5.171875 
L 30.078125 0 
z
" id="DejaVuSerif-77"/>
      <path d="M 45.796875 62.703125 
L 45.796875 35.296875 
L 73.1875 35.296875 
L 73.1875 27.390625 
L 45.796875 27.390625 
L 45.796875 0 
L 37.984375 0 
L 37.984375 27.390625 
L 10.59375 27.390625 
L 10.59375 35.296875 
L 37.984375 35.296875 
L 37.984375 62.703125 
z
" id="DejaVuSerif-43"/>
      <path d="M 24.703125 5.171875 
L 33.796875 5.171875 
Q 48 5.171875 55.59375 13.28125 
Q 63.1875 21.390625 63.1875 36.53125 
Q 63.1875 51.65625 55.609375 59.65625 
Q 48.046875 67.671875 33.796875 67.671875 
L 24.703125 67.671875 
z
M 5.515625 0 
L 5.515625 5.171875 
L 14.796875 5.171875 
L 14.796875 67.671875 
L 5.515625 67.671875 
L 5.515625 72.90625 
L 34.515625 72.90625 
Q 53.375 72.90625 63.890625 63.28125 
Q 74.421875 53.65625 74.421875 36.53125 
Q 74.421875 19.34375 63.875 9.671875 
Q 53.328125 0 34.515625 0 
z
" id="DejaVuSerif-68"/>
      <path d="M 24.703125 0 
L 5.609375 46.6875 
L -0.296875 46.6875 
L -0.296875 51.90625 
L 23.578125 51.90625 
L 23.578125 46.6875 
L 15.28125 46.6875 
L 29.890625 10.984375 
L 44.484375 46.6875 
L 36.71875 46.6875 
L 36.71875 51.90625 
L 56.203125 51.90625 
L 56.203125 46.6875 
L 50.390625 46.6875 
L 31.296875 0 
z
" id="DejaVuSerif-118"/>
     </defs>
     <g style="fill:#262626;" transform="translate(180.995563 228.439245)scale(0.088 -0.088)">
      <use xlink:href="#DejaVuSerif-77"/>
      <use x="102.392578" xlink:href="#DejaVuSerif-101"/>
      <use x="161.572266" xlink:href="#DejaVuSerif-97"/>
      <use x="221.191406" xlink:href="#DejaVuSerif-110"/>
      <use x="285.595703" xlink:href="#DejaVuSerif-32"/>
      <use x="317.382812" xlink:href="#DejaVuSerif-43"/>
      <use x="401.171875" xlink:href="#DejaVuSerif-32"/>
      <use x="432.958984" xlink:href="#DejaVuSerif-83"/>
      <use x="501.464844" xlink:href="#DejaVuSerif-116"/>
      <use x="541.650391" xlink:href="#DejaVuSerif-97"/>
      <use x="601.269531" xlink:href="#DejaVuSerif-110"/>
      <use x="665.673828" xlink:href="#DejaVuSerif-100"/>
      <use x="729.6875" xlink:href="#DejaVuSerif-97"/>
      <use x="789.306641" xlink:href="#DejaVuSerif-114"/>
      <use x="837.109375" xlink:href="#DejaVuSerif-100"/>
      <use x="901.123047" xlink:href="#DejaVuSerif-32"/>
      <use x="932.910156" xlink:href="#DejaVuSerif-68"/>
      <use x="1013.085938" xlink:href="#DejaVuSerif-101"/>
      <use x="1072.265625" xlink:href="#DejaVuSerif-118"/>
      <use x="1128.759766" xlink:href="#DejaVuSerif-105"/>
      <use x="1160.742188" xlink:href="#DejaVuSerif-97"/>
      <use x="1220.361328" xlink:href="#DejaVuSerif-116"/>
      <use x="1260.546875" xlink:href="#DejaVuSerif-105"/>
      <use x="1292.529297" xlink:href="#DejaVuSerif-111"/>
      <use x="1352.734375" xlink:href="#DejaVuSerif-110"/>
     </g>
    </g>
    <g id="line2d_9">
     <path d="M 323.306687 225.359245 
L 340.906687 225.359245 
" style="fill:none;stroke:#00b388;stroke-linecap:round;stroke-width:1.2;"/>
    </g>
    <g id="line2d_10"/>
    <g id="text_10">
     <!-- Mean -->
     <g style="fill:#262626;" transform="translate(347.946687 228.439245)scale(0.088 -0.088)">
      <use xlink:href="#DejaVuSerif-77"/>
      <use x="102.392578" xlink:href="#DejaVuSerif-101"/>
      <use x="161.572266" xlink:href="#DejaVuSerif-97"/>
      <use x="221.191406" xlink:href="#DejaVuSerif-110"/>
     </g>
    </g>
    <g id="line2d_11">
     <path d="M 390.680313 225.359245 
L 408.280313 225.359245 
" style="fill:none;stroke:#f6be00;stroke-linecap:round;stroke-width:1.2;"/>
    </g>
    <g id="line2d_12"/>
    <g id="text_11">
     <!-- Mean - Standard Deviation -->
     <g style="fill:#262626;" transform="translate(415.320312 228.439245)scale(0.088 -0.088)">
      <use xlink:href="#DejaVuSerif-77"/>
      <use x="102.392578" xlink:href="#DejaVuSerif-101"/>
      <use x="161.572266" xlink:href="#DejaVuSerif-97"/>
      <use x="221.191406" xlink:href="#DejaVuSerif-110"/>
      <use x="285.595703" xlink:href="#DejaVuSerif-32"/>
      <use x="317.382812" xlink:href="#DejaVuSerif-45"/>
      <use x="351.171875" xlink:href="#DejaVuSerif-32"/>
      <use x="382.958984" xlink:href="#DejaVuSerif-83"/>
      <use x="451.464844" xlink:href="#DejaVuSerif-116"/>
      <use x="491.650391" xlink:href="#DejaVuSerif-97"/>
      <use x="551.269531" xlink:href="#DejaVuSerif-110"/>
      <use x="615.673828" xlink:href="#DejaVuSerif-100"/>
      <use x="679.6875" xlink:href="#DejaVuSerif-97"/>
      <use x="739.306641" xlink:href="#DejaVuSerif-114"/>
      <use x="787.109375" xlink:href="#DejaVuSerif-100"/>
      <use x="851.123047" xlink:href="#DejaVuSerif-32"/>
      <use x="882.910156" xlink:href="#DejaVuSerif-68"/>
      <use x="963.085938" xlink:href="#DejaVuSerif-101"/>
      <use x="1022.265625" xlink:href="#DejaVuSerif-118"/>
      <use x="1078.759766" xlink:href="#DejaVuSerif-105"/>
      <use x="1110.742188" xlink:href="#DejaVuSerif-97"/>
      <use x="1170.361328" xlink:href="#DejaVuSerif-116"/>
      <use x="1210.546875" xlink:href="#DejaVuSerif-105"/>
      <use x="1242.529297" xlink:href="#DejaVuSerif-111"/>
      <use x="1302.734375" xlink:href="#DejaVuSerif-110"/>
     </g>
    </g>
   </g>
  </g>
  <g id="axes_3">
   <g id="patch_7">
    <path d="M 46.98724 434.89201 
L 644.99976 434.89201 
L 644.99976 244.333796 
L 46.98724 244.333796 
z
" style="fill:#ffffff;"/>
   </g>
   <g id="matplotlib.axis_3">
    <g id="xtick_1">
     <g id="text_12">
      <!-- 0 -->
      <g style="fill:#262626;" transform="translate(71.370127 449.878635)scale(0.088 -0.088)">
       <use xlink:href="#DejaVuSerif-48"/>
      </g>
     </g>
    </g>
    <g id="xtick_2">
     <g id="text_13">
      <!-- 20 -->
      <g style="fill:#262626;" transform="translate(175.168224 449.878635)scale(0.088 -0.088)">
       <use xlink:href="#DejaVuSerif-50"/>
       <use x="63.623047" xlink:href="#DejaVuSerif-48"/>
      </g>
     </g>
    </g>
    <g id="xtick_3">
     <g id="text_14">
      <!-- 40 -->
      <g style="fill:#262626;" transform="translate(281.765822 449.878635)scale(0.088 -0.088)">
       <use xlink:href="#DejaVuSerif-52"/>
       <use x="63.623047" xlink:href="#DejaVuSerif-48"/>
      </g>
     </g>
    </g>
    <g id="xtick_4">
     <g id="text_15">
      <!-- 60 -->
      <g style="fill:#262626;" transform="translate(388.363419 449.878635)scale(0.088 -0.088)">
       <use xlink:href="#DejaVuSerif-54"/>
       <use x="63.623047" xlink:href="#DejaVuSerif-48"/>
      </g>
     </g>
    </g>
    <g id="xtick_5">
     <g id="text_16">
      <!-- 80 -->
      <defs>
       <path d="M 46.578125 19.921875 
Q 46.578125 27.734375 42.6875 32.046875 
Q 38.8125 36.375 31.78125 36.375 
Q 24.75 36.375 20.875 32.046875 
Q 17 27.734375 17 19.921875 
Q 17 12.0625 20.875 7.734375 
Q 24.75 3.421875 31.78125 3.421875 
Q 38.8125 3.421875 42.6875 7.734375 
Q 46.578125 12.0625 46.578125 19.921875 
z
M 44.578125 55.328125 
Q 44.578125 61.96875 41.203125 65.671875 
Q 37.84375 69.390625 31.78125 69.390625 
Q 25.78125 69.390625 22.390625 65.671875 
Q 19 61.96875 19 55.328125 
Q 19 48.640625 22.390625 44.921875 
Q 25.78125 41.21875 31.78125 41.21875 
Q 37.84375 41.21875 41.203125 44.921875 
Q 44.578125 48.640625 44.578125 55.328125 
z
M 39.3125 38.8125 
Q 47.609375 37.703125 52.25 32.6875 
Q 56.890625 27.6875 56.890625 19.921875 
Q 56.890625 9.671875 50.390625 4.125 
Q 43.890625 -1.421875 31.78125 -1.421875 
Q 19.734375 -1.421875 13.203125 4.125 
Q 6.6875 9.671875 6.6875 19.921875 
Q 6.6875 27.6875 11.328125 32.6875 
Q 15.96875 37.703125 24.3125 38.8125 
Q 16.9375 40.140625 13 44.40625 
Q 9.078125 48.6875 9.078125 55.328125 
Q 9.078125 64.109375 15.125 69.15625 
Q 21.1875 74.21875 31.78125 74.21875 
Q 42.390625 74.21875 48.4375 69.15625 
Q 54.5 64.109375 54.5 55.328125 
Q 54.5 48.6875 50.5625 44.40625 
Q 46.625 40.140625 39.3125 38.8125 
z
" id="DejaVuSerif-56"/>
      </defs>
      <g style="fill:#262626;" transform="translate(494.961016 449.878635)scale(0.088 -0.088)">
       <use xlink:href="#DejaVuSerif-56"/>
       <use x="63.623047" xlink:href="#DejaVuSerif-48"/>
      </g>
     </g>
    </g>
    <g id="xtick_6">
     <g id="text_17">
      <!-- 100 -->
      <defs>
       <path d="M 14.203125 0 
L 14.203125 5.171875 
L 26.90625 5.171875 
L 26.90625 65.828125 
L 12.203125 56.296875 
L 12.203125 62.703125 
L 29.984375 74.21875 
L 36.71875 74.21875 
L 36.71875 5.171875 
L 49.421875 5.171875 
L 49.421875 0 
z
" id="DejaVuSerif-49"/>
      </defs>
      <g style="fill:#262626;" transform="translate(598.759113 449.878635)scale(0.088 -0.088)">
       <use xlink:href="#DejaVuSerif-49"/>
       <use x="63.623047" xlink:href="#DejaVuSerif-48"/>
       <use x="127.246094" xlink:href="#DejaVuSerif-48"/>
      </g>
     </g>
    </g>
    <g id="text_18">
     <!-- Spectral Band -->
     <g style="fill:#262626;" transform="translate(311.40425 463.00326)scale(0.096 -0.096)">
      <use xlink:href="#DejaVuSerif-83"/>
      <use x="68.505859" xlink:href="#DejaVuSerif-112"/>
      <use x="132.519531" xlink:href="#DejaVuSerif-101"/>
      <use x="191.699219" xlink:href="#DejaVuSerif-99"/>
      <use x="247.705078" xlink:href="#DejaVuSerif-116"/>
      <use x="287.890625" xlink:href="#DejaVuSerif-114"/>
      <use x="335.693359" xlink:href="#DejaVuSerif-97"/>
      <use x="395.3125" xlink:href="#DejaVuSerif-108"/>
      <use x="427.294922" xlink:href="#DejaVuSerif-32"/>
      <use x="459.082031" xlink:href="#DejaVuSerif-66"/>
      <use x="532.568359" xlink:href="#DejaVuSerif-97"/>
      <use x="592.1875" xlink:href="#DejaVuSerif-110"/>
      <use x="656.591797" xlink:href="#DejaVuSerif-100"/>
     </g>
    </g>
   </g>
   <g id="matplotlib.axis_4">
    <g id="ytick_7">
     <g id="text_19">
      <!-- 1000 -->
      <g style="fill:#262626;" transform="translate(16.29124 424.286502)scale(0.088 -0.088)">
       <use xlink:href="#DejaVuSerif-49"/>
       <use x="63.623047" xlink:href="#DejaVuSerif-48"/>
       <use x="127.246094" xlink:href="#DejaVuSerif-48"/>
       <use x="190.869141" xlink:href="#DejaVuSerif-48"/>
      </g>
     </g>
    </g>
    <g id="ytick_8">
     <g id="text_20">
      <!-- 1200 -->
      <g style="fill:#262626;" transform="translate(16.29124 395.172911)scale(0.088 -0.088)">
       <use xlink:href="#DejaVuSerif-49"/>
       <use x="63.623047" xlink:href="#DejaVuSerif-50"/>
       <use x="127.246094" xlink:href="#DejaVuSerif-48"/>
       <use x="190.869141" xlink:href="#DejaVuSerif-48"/>
      </g>
     </g>
    </g>
    <g id="ytick_9">
     <g id="text_21">
      <!-- 1400 -->
      <g style="fill:#262626;" transform="translate(16.29124 366.059321)scale(0.088 -0.088)">
       <use xlink:href="#DejaVuSerif-49"/>
       <use x="63.623047" xlink:href="#DejaVuSerif-52"/>
       <use x="127.246094" xlink:href="#DejaVuSerif-48"/>
       <use x="190.869141" xlink:href="#DejaVuSerif-48"/>
      </g>
     </g>
    </g>
    <g id="ytick_10">
     <g id="text_22">
      <!-- 1600 -->
      <g style="fill:#262626;" transform="translate(16.29124 336.945731)scale(0.088 -0.088)">
       <use xlink:href="#DejaVuSerif-49"/>
       <use x="63.623047" xlink:href="#DejaVuSerif-54"/>
       <use x="127.246094" xlink:href="#DejaVuSerif-48"/>
       <use x="190.869141" xlink:href="#DejaVuSerif-48"/>
      </g>
     </g>
    </g>
    <g id="ytick_11">
     <g id="text_23">
      <!-- 1800 -->
      <g style="fill:#262626;" transform="translate(16.29124 307.83214)scale(0.088 -0.088)">
       <use xlink:href="#DejaVuSerif-49"/>
       <use x="63.623047" xlink:href="#DejaVuSerif-56"/>
       <use x="127.246094" xlink:href="#DejaVuSerif-48"/>
       <use x="190.869141" xlink:href="#DejaVuSerif-48"/>
      </g>
     </g>
    </g>
    <g id="ytick_12">
     <g id="text_24">
      <!-- 2000 -->
      <g style="fill:#262626;" transform="translate(16.29124 278.71855)scale(0.088 -0.088)">
       <use xlink:href="#DejaVuSerif-50"/>
       <use x="63.623047" xlink:href="#DejaVuSerif-48"/>
       <use x="127.246094" xlink:href="#DejaVuSerif-48"/>
       <use x="190.869141" xlink:href="#DejaVuSerif-48"/>
      </g>
     </g>
    </g>
    <g id="ytick_13">
     <g id="text_25">
      <!-- 2200 -->
      <g style="fill:#262626;" transform="translate(16.29124 249.60496)scale(0.088 -0.088)">
       <use xlink:href="#DejaVuSerif-50"/>
       <use x="63.623047" xlink:href="#DejaVuSerif-50"/>
       <use x="127.246094" xlink:href="#DejaVuSerif-48"/>
       <use x="190.869141" xlink:href="#DejaVuSerif-48"/>
      </g>
     </g>
    </g>
    <g id="text_26">
     <!-- Intensity -->
     <g style="fill:#262626;" transform="translate(10.15824 361.101153)rotate(-90)scale(0.096 -0.096)">
      <use xlink:href="#DejaVuSerif-73"/>
      <use x="39.501953" xlink:href="#DejaVuSerif-110"/>
      <use x="103.90625" xlink:href="#DejaVuSerif-116"/>
      <use x="144.091797" xlink:href="#DejaVuSerif-101"/>
      <use x="203.271484" xlink:href="#DejaVuSerif-110"/>
      <use x="267.675781" xlink:href="#DejaVuSerif-115"/>
      <use x="318.994141" xlink:href="#DejaVuSerif-105"/>
      <use x="350.976562" xlink:href="#DejaVuSerif-116"/>
      <use x="391.162109" xlink:href="#DejaVuSerif-121"/>
     </g>
    </g>
   </g>
   <g id="line2d_13">
    <path clip-path="url(#pf399f491e4)" d="M 74.169627 347.919803 
L 79.499507 354.274732 
L 84.829387 356.639794 
L 90.159267 350.683577 
L 95.489147 344.958865 
L 100.819027 343.627729 
L 106.148906 342.332026 
L 111.478786 342.532957 
L 116.808666 341.877468 
L 122.138546 338.967816 
L 127.468426 335.11165 
L 132.798306 335.23071 
L 138.128186 333.868508 
L 143.458065 331.516277 
L 148.787945 328.399128 
L 154.117825 326.085583 
L 159.447705 323.4897 
L 164.777585 321.090224 
L 170.107465 318.630764 
L 175.437345 315.913726 
L 180.767224 313.784159 
L 186.097104 311.097227 
L 191.426984 308.084694 
L 196.756864 305.867403 
L 202.086744 302.692656 
L 207.416624 297.847429 
L 212.746504 295.750932 
L 218.076383 295.099959 
L 223.406263 293.822946 
L 228.736143 290.646657 
L 234.066023 287.417073 
L 239.395903 285.659056 
L 244.725783 284.057114 
L 250.055663 280.859895 
L 255.385542 278.082803 
L 260.715422 275.670211 
L 266.045302 273.620459 
L 271.375182 271.768285 
L 276.705062 271.177635 
L 282.034942 271.435178 
L 287.364822 270.682319 
L 292.694701 269.962027 
L 298.024581 269.429562 
L 303.354461 268.768467 
L 308.684341 267.891686 
L 314.014221 267.309664 
L 319.344101 267.281305 
L 324.673981 267.804491 
L 330.00386 267.807029 
L 335.33374 269.154555 
L 340.66362 268.118662 
L 345.9935 266.492328 
L 351.32338 266.123323 
L 356.65326 265.803684 
L 361.98314 266.814829 
L 367.313019 267.429784 
L 372.642899 266.53617 
L 377.972779 264.525443 
L 383.302659 263.884809 
L 388.632539 265.031392 
L 393.962419 265.185384 
L 399.292299 264.739842 
L 404.622178 264.962848 
L 409.952058 266.332029 
L 415.281938 268.072918 
L 420.611818 266.761661 
L 425.941698 264.118338 
L 431.271578 263.551203 
L 436.601458 261.607793 
L 441.931337 260.470823 
L 447.261217 261.790751 
L 452.591097 265.011617 
L 457.920977 266.09055 
L 463.250857 263.979478 
L 468.580737 261.49572 
L 473.910617 257.780068 
L 479.240496 255.937804 
L 484.570376 254.984657 
L 489.900256 255.037118 
L 495.230136 255.326974 
L 500.560016 255.319795 
L 505.889896 258.700903 
L 511.219776 265.237424 
L 516.549655 263.690261 
L 521.879535 253.148535 
L 527.209415 252.995533 
L 532.539295 255.885577 
L 537.869175 258.16486 
L 543.199055 259.587981 
L 548.528935 259.896343 
L 553.858814 258.604075 
L 559.188694 259.224304 
L 564.518574 260.83589 
L 569.848454 261.036346 
L 575.178334 262.079937 
L 580.508214 265.899284 
L 585.838094 267.997297 
L 591.167973 266.273646 
L 596.497853 266.043086 
L 601.827733 267.592636 
L 607.157613 268.63916 
L 612.487493 266.576672 
L 617.817373 265.142979 
" style="fill:none;stroke:#c8102e;stroke-linecap:round;stroke-width:1.2;"/>
   </g>
   <g id="line2d_14">
    <path clip-path="url(#pf399f491e4)" d="M 74.169627 387.075038 
L 79.499507 388.378547 
L 84.829387 387.38606 
L 90.159267 379.774501 
L 95.489147 373.010849 
L 100.819027 370.738139 
L 106.148906 369.276648 
L 111.478786 369.520421 
L 116.808666 368.748025 
L 122.138546 365.698294 
L 127.468426 362.00845 
L 132.798306 361.918864 
L 138.128186 360.468245 
L 143.458065 358.215579 
L 148.787945 355.354627 
L 154.117825 353.156677 
L 159.447705 350.563378 
L 164.777585 348.131618 
L 170.107465 345.707923 
L 175.437345 343.027291 
L 180.767224 340.749401 
L 186.097104 338.016543 
L 191.426984 335.016151 
L 196.756864 332.491168 
L 202.086744 329.129742 
L 207.416624 324.482321 
L 212.746504 322.413612 
L 218.076383 321.621409 
L 223.406263 320.352493 
L 228.736143 317.399266 
L 234.066023 314.26742 
L 239.395903 312.453909 
L 244.725783 310.875632 
L 250.055663 307.880972 
L 255.385542 305.252645 
L 260.715422 302.886987 
L 266.045302 300.912332 
L 271.375182 299.213789 
L 276.705062 298.478358 
L 282.034942 298.310532 
L 287.364822 297.490299 
L 292.694701 296.853548 
L 298.024581 296.226957 
L 303.354461 295.445468 
L 308.684341 294.414948 
L 314.014221 293.595546 
L 319.344101 293.386247 
L 324.673981 293.737318 
L 330.00386 293.538259 
L 335.33374 294.55427 
L 340.66362 293.51612 
L 345.9935 291.901905 
L 351.32338 291.423057 
L 356.65326 290.930648 
L 361.98314 291.679283 
L 367.313019 292.168055 
L 372.642899 291.298126 
L 377.972779 289.523201 
L 383.302659 288.871585 
L 388.632539 289.722141 
L 393.962419 289.618757 
L 399.292299 288.95022 
L 404.622178 288.945871 
L 409.952058 289.935433 
L 415.281938 291.184739 
L 420.611818 289.969117 
L 425.941698 287.467894 
L 431.271578 286.459949 
L 436.601458 284.266032 
L 441.931337 282.882859 
L 447.261217 283.488813 
L 452.591097 285.722581 
L 457.920977 286.394439 
L 463.250857 284.522139 
L 468.580737 282.363488 
L 473.910617 279.030527 
L 479.240496 277.259477 
L 484.570376 276.145933 
L 489.900256 275.994277 
L 495.230136 276.061882 
L 500.560016 275.821667 
L 505.889896 278.619086 
L 511.219776 284.224203 
L 516.549655 282.762198 
L 521.879535 274.543263 
L 527.209415 274.535751 
L 532.539295 276.844003 
L 537.869175 278.869699 
L 543.199055 280.100463 
L 548.528935 280.266076 
L 553.858814 279.073778 
L 559.188694 279.74109 
L 564.518574 281.286079 
L 569.848454 281.455131 
L 575.178334 282.27568 
L 580.508214 285.515773 
L 585.838094 287.191623 
L 591.167973 285.704948 
L 596.497853 285.651734 
L 601.827733 287.089267 
L 607.157613 288.387281 
L 612.487493 286.88831 
L 617.817373 285.633232 
" style="fill:none;stroke:#00b388;stroke-linecap:round;stroke-width:1.2;"/>
   </g>
   <g id="line2d_15">
    <path clip-path="url(#pf399f491e4)" d="M 74.169627 426.230273 
L 79.499507 422.482363 
L 84.829387 418.132326 
L 90.159267 408.865425 
L 95.489147 401.062834 
L 100.819027 397.848549 
L 106.148906 396.22127 
L 111.478786 396.507885 
L 116.808666 395.618582 
L 122.138546 392.428771 
L 127.468426 388.905251 
L 132.798306 388.607018 
L 138.128186 387.067982 
L 143.458065 384.914881 
L 148.787945 382.310126 
L 154.117825 380.227772 
L 159.447705 377.637056 
L 164.777585 375.173012 
L 170.107465 372.785083 
L 175.437345 370.140855 
L 180.767224 367.714644 
L 186.097104 364.935859 
L 191.426984 361.947608 
L 196.756864 359.114933 
L 202.086744 355.566829 
L 207.416624 351.117214 
L 212.746504 349.076291 
L 218.076383 348.142859 
L 223.406263 346.882039 
L 228.736143 344.151875 
L 234.066023 341.117767 
L 239.395903 339.248762 
L 244.725783 337.69415 
L 250.055663 334.90205 
L 255.385542 332.422486 
L 260.715422 330.103763 
L 266.045302 328.204204 
L 271.375182 326.659292 
L 276.705062 325.779081 
L 282.034942 325.185886 
L 287.364822 324.298279 
L 292.694701 323.745068 
L 298.024581 323.024353 
L 303.354461 322.122469 
L 308.684341 320.938211 
L 314.014221 319.881428 
L 319.344101 319.491189 
L 324.673981 319.670146 
L 330.00386 319.26949 
L 335.33374 319.953985 
L 340.66362 318.913578 
L 345.9935 317.311482 
L 351.32338 316.72279 
L 356.65326 316.057612 
L 361.98314 316.543737 
L 367.313019 316.906325 
L 372.642899 316.060082 
L 377.972779 314.52096 
L 383.302659 313.858361 
L 388.632539 314.412891 
L 393.962419 314.052131 
L 399.292299 313.160598 
L 404.622178 312.928895 
L 409.952058 313.538837 
L 415.281938 314.296561 
L 420.611818 313.176573 
L 425.941698 310.81745 
L 431.271578 309.368695 
L 436.601458 306.92427 
L 441.931337 305.294895 
L 447.261217 305.186874 
L 452.591097 306.433545 
L 457.920977 306.698328 
L 463.250857 305.0648 
L 468.580737 303.231255 
L 473.910617 300.280987 
L 479.240496 298.58115 
L 484.570376 297.30721 
L 489.900256 296.951436 
L 495.230136 296.79679 
L 500.560016 296.323539 
L 505.889896 298.537269 
L 511.219776 303.210983 
L 516.549655 301.834135 
L 521.879535 295.93799 
L 527.209415 296.075969 
L 532.539295 297.80243 
L 537.869175 299.574537 
L 543.199055 300.612946 
L 548.528935 300.635808 
L 553.858814 299.543482 
L 559.188694 300.257876 
L 564.518574 301.736268 
L 569.848454 301.873916 
L 575.178334 302.471424 
L 580.508214 305.132262 
L 585.838094 306.385949 
L 591.167973 305.13625 
L 596.497853 305.260382 
L 601.827733 306.585898 
L 607.157613 308.135402 
L 612.487493 307.199949 
L 617.817373 306.123485 
" style="fill:none;stroke:#f6be00;stroke-linecap:round;stroke-width:1.2;"/>
   </g>
   <g id="patch_8">
    <path d="M 46.98724 434.89201 
L 46.98724 244.333796 
" style="fill:none;stroke:#262626;stroke-linecap:square;stroke-linejoin:miter;"/>
   </g>
   <g id="patch_9">
    <path d="M 644.99976 434.89201 
L 644.99976 244.333796 
" style="fill:none;stroke:#262626;stroke-linecap:square;stroke-linejoin:miter;"/>
   </g>
   <g id="patch_10">
    <path d="M 46.98724 434.89201 
L 644.99976 434.89201 
" style="fill:none;stroke:#262626;stroke-linecap:square;stroke-linejoin:miter;"/>
   </g>
   <g id="patch_11">
    <path d="M 46.98724 244.333796 
L 644.99976 244.333796 
" style="fill:none;stroke:#262626;stroke-linecap:square;stroke-linejoin:miter;"/>
   </g>
  </g>
 </g>
 <defs>
  <clipPath id="pe5972b67ab">
   <rect height="190.558214" width="598.01252" x="46.98724" y="16.29474"/>
  </clipPath>
  <clipPath id="pf399f491e4">
   <rect height="190.558214" width="598.01252" x="46.98724" y="244.333796"/>
  </clipPath>
 </defs>
</svg>
