<?xml version="1.0" encoding="utf-8" standalone="no"?>
<!DOCTYPE svg PUBLIC "-//W3C//DTD SVG 1.1//EN"
  "http://www.w3.org/Graphics/SVG/1.1/DTD/svg11.dtd">
<!-- Created with matplotlib (https://matplotlib.org/) -->
<svg height="468pt" version="1.1" viewBox="0 0 648 468" width="648pt" xmlns="http://www.w3.org/2000/svg" xmlns:xlink="http://www.w3.org/1999/xlink">
 <defs>
  <style type="text/css">
*{stroke-linecap:butt;stroke-linejoin:round;}
  </style>
 </defs>
 <g id="figure_1">
  <g id="patch_1">
   <path d="M 0 468 
L 648 468 
L 648 0 
L 0 0 
z
" style="fill:#ffffff;"/>
  </g>
  <g id="axes_1">
   <g id="patch_2">
    <path d="M 46.98724 206.091918 
L 644.99976 206.091918 
L 644.99976 16.29474 
L 46.98724 16.29474 
z
" style="fill:#ffffff;"/>
   </g>
   <g id="matplotlib.axis_1"/>
   <g id="matplotlib.axis_2">
    <g id="ytick_1">
     <g id="text_1">
      <!-- −0.4 -->
      <defs>
       <path d="M 10.59375 35.296875 
L 73.1875 35.296875 
L 73.1875 27.390625 
L 10.59375 27.390625 
z
" id="DejaVuSerif-8722"/>
       <path d="M 31.78125 3.421875 
Q 39.265625 3.421875 42.96875 11.625 
Q 46.6875 19.828125 46.6875 36.375 
Q 46.6875 52.984375 42.96875 61.1875 
Q 39.265625 69.390625 31.78125 69.390625 
Q 24.3125 69.390625 20.59375 61.1875 
Q 16.890625 52.984375 16.890625 36.375 
Q 16.890625 19.828125 20.59375 11.625 
Q 24.3125 3.421875 31.78125 3.421875 
z
M 31.78125 -1.421875 
Q 19.921875 -1.421875 13.25 8.53125 
Q 6.59375 18.5 6.59375 36.375 
Q 6.59375 54.296875 13.25 64.25 
Q 19.921875 74.21875 31.78125 74.21875 
Q 43.703125 74.21875 50.34375 64.25 
Q 56.984375 54.296875 56.984375 36.375 
Q 56.984375 18.5 50.34375 8.53125 
Q 43.703125 -1.421875 31.78125 -1.421875 
z
" id="DejaVuSerif-48"/>
       <path d="M 9.421875 5.078125 
Q 9.421875 7.8125 11.28125 9.71875 
Q 13.140625 11.625 15.921875 11.625 
Q 18.609375 11.625 20.5 9.71875 
Q 22.40625 7.8125 22.40625 5.078125 
Q 22.40625 2.390625 20.5 0.484375 
Q 18.609375 -1.421875 15.921875 -1.421875 
Q 13.140625 -1.421875 11.28125 0.453125 
Q 9.421875 2.34375 9.421875 5.078125 
z
" id="DejaVuSerif-46"/>
       <path d="M 34.90625 24.703125 
L 34.90625 63.484375 
L 10.015625 24.703125 
z
M 56.390625 0 
L 23.1875 0 
L 23.1875 5.171875 
L 34.90625 5.171875 
L 34.90625 19.484375 
L 3.078125 19.484375 
L 3.078125 24.8125 
L 35.015625 74.21875 
L 44.671875 74.21875 
L 44.671875 24.703125 
L 58.59375 24.703125 
L 58.59375 19.484375 
L 44.671875 19.484375 
L 44.671875 5.171875 
L 56.390625 5.171875 
z
" id="DejaVuSerif-52"/>
      </defs>
      <g style="fill:#262626;" transform="translate(17.318365 208.032097)scale(0.088 -0.088)">
       <use xlink:href="#DejaVuSerif-8722"/>
       <use x="83.789062" xlink:href="#DejaVuSerif-48"/>
       <use x="147.412109" xlink:href="#DejaVuSerif-46"/>
       <use x="179.199219" xlink:href="#DejaVuSerif-52"/>
      </g>
     </g>
    </g>
    <g id="ytick_2">
     <g id="text_2">
      <!-- −0.2 -->
      <defs>
       <path d="M 12.796875 55.515625 
L 7.328125 55.515625 
L 7.328125 68.5 
Q 12.546875 71.296875 17.84375 72.75 
Q 23.140625 74.21875 28.21875 74.21875 
Q 39.59375 74.21875 46.1875 68.703125 
Q 52.78125 63.1875 52.78125 53.71875 
Q 52.78125 43.015625 37.84375 28.125 
Q 36.671875 27 36.078125 26.421875 
L 17.671875 8.015625 
L 48.09375 8.015625 
L 48.09375 17 
L 53.8125 17 
L 53.8125 0 
L 6.78125 0 
L 6.78125 5.328125 
L 28.90625 27.390625 
Q 36.234375 34.71875 39.359375 40.84375 
Q 42.484375 46.96875 42.484375 53.71875 
Q 42.484375 61.078125 38.640625 65.234375 
Q 34.8125 69.390625 28.078125 69.390625 
Q 21.09375 69.390625 17.28125 65.921875 
Q 13.484375 62.453125 12.796875 55.515625 
z
" id="DejaVuSerif-50"/>
      </defs>
      <g style="fill:#262626;" transform="translate(17.318365 177.408804)scale(0.088 -0.088)">
       <use xlink:href="#DejaVuSerif-8722"/>
       <use x="83.789062" xlink:href="#DejaVuSerif-48"/>
       <use x="147.412109" xlink:href="#DejaVuSerif-46"/>
       <use x="179.199219" xlink:href="#DejaVuSerif-50"/>
      </g>
     </g>
    </g>
    <g id="ytick_3">
     <g id="text_3">
      <!-- 0.0 -->
      <g style="fill:#262626;" transform="translate(24.69249 146.78551)scale(0.088 -0.088)">
       <use xlink:href="#DejaVuSerif-48"/>
       <use x="63.623047" xlink:href="#DejaVuSerif-46"/>
       <use x="95.410156" xlink:href="#DejaVuSerif-48"/>
      </g>
     </g>
    </g>
    <g id="ytick_4">
     <g id="text_4">
      <!-- 0.2 -->
      <g style="fill:#262626;" transform="translate(24.69249 116.162216)scale(0.088 -0.088)">
       <use xlink:href="#DejaVuSerif-48"/>
       <use x="63.623047" xlink:href="#DejaVuSerif-46"/>
       <use x="95.410156" xlink:href="#DejaVuSerif-50"/>
      </g>
     </g>
    </g>
    <g id="ytick_5">
     <g id="text_5">
      <!-- 0.4 -->
      <g style="fill:#262626;" transform="translate(24.69249 85.538923)scale(0.088 -0.088)">
       <use xlink:href="#DejaVuSerif-48"/>
       <use x="63.623047" xlink:href="#DejaVuSerif-46"/>
       <use x="95.410156" xlink:href="#DejaVuSerif-52"/>
      </g>
     </g>
    </g>
    <g id="ytick_6">
     <g id="text_6">
      <!-- 0.6 -->
      <defs>
       <path d="M 32.71875 3.421875 
Q 39.59375 3.421875 43.296875 8.46875 
Q 47.015625 13.53125 47.015625 23 
Q 47.015625 32.46875 43.296875 37.515625 
Q 39.59375 42.578125 32.71875 42.578125 
Q 25.734375 42.578125 22.0625 37.6875 
Q 18.40625 32.8125 18.40625 23.578125 
Q 18.40625 13.875 22.109375 8.640625 
Q 25.828125 3.421875 32.71875 3.421875 
z
M 16.796875 40.140625 
Q 20.125 43.796875 24.3125 45.59375 
Q 28.515625 47.40625 33.796875 47.40625 
Q 44.671875 47.40625 51 40.859375 
Q 57.328125 34.328125 57.328125 23 
Q 57.328125 11.921875 50.515625 5.25 
Q 43.703125 -1.421875 32.328125 -1.421875 
Q 19.96875 -1.421875 13.328125 7.78125 
Q 6.6875 17 6.6875 34.078125 
Q 6.6875 53.21875 14.546875 63.71875 
Q 22.40625 74.21875 36.71875 74.21875 
Q 40.578125 74.21875 44.828125 73.484375 
Q 49.078125 72.75 53.515625 71.296875 
L 53.515625 59.28125 
L 48 59.28125 
Q 47.40625 64.203125 44.234375 66.796875 
Q 41.0625 69.390625 35.6875 69.390625 
Q 26.21875 69.390625 21.578125 62.203125 
Q 16.9375 55.03125 16.796875 40.140625 
z
" id="DejaVuSerif-54"/>
      </defs>
      <g style="fill:#262626;" transform="translate(24.69249 54.915629)scale(0.088 -0.088)">
       <use xlink:href="#DejaVuSerif-48"/>
       <use x="63.623047" xlink:href="#DejaVuSerif-46"/>
       <use x="95.410156" xlink:href="#DejaVuSerif-54"/>
      </g>
     </g>
    </g>
    <g id="ytick_7">
     <g id="text_7">
      <!-- 0.8 -->
      <defs>
       <path d="M 46.578125 19.921875 
Q 46.578125 27.734375 42.6875 32.046875 
Q 38.8125 36.375 31.78125 36.375 
Q 24.75 36.375 20.875 32.046875 
Q 17 27.734375 17 19.921875 
Q 17 12.0625 20.875 7.734375 
Q 24.75 3.421875 31.78125 3.421875 
Q 38.8125 3.421875 42.6875 7.734375 
Q 46.578125 12.0625 46.578125 19.921875 
z
M 44.578125 55.328125 
Q 44.578125 61.96875 41.203125 65.671875 
Q 37.84375 69.390625 31.78125 69.390625 
Q 25.78125 69.390625 22.390625 65.671875 
Q 19 61.96875 19 55.328125 
Q 19 48.640625 22.390625 44.921875 
Q 25.78125 41.21875 31.78125 41.21875 
Q 37.84375 41.21875 41.203125 44.921875 
Q 44.578125 48.640625 44.578125 55.328125 
z
M 39.3125 38.8125 
Q 47.609375 37.703125 52.25 32.6875 
Q 56.890625 27.6875 56.890625 19.921875 
Q 56.890625 9.671875 50.390625 4.125 
Q 43.890625 -1.421875 31.78125 -1.421875 
Q 19.734375 -1.421875 13.203125 4.125 
Q 6.6875 9.671875 6.6875 19.921875 
Q 6.6875 27.6875 11.328125 32.6875 
Q 15.96875 37.703125 24.3125 38.8125 
Q 16.9375 40.140625 13 44.40625 
Q 9.078125 48.6875 9.078125 55.328125 
Q 9.078125 64.109375 15.125 69.15625 
Q 21.1875 74.21875 31.78125 74.21875 
Q 42.390625 74.21875 48.4375 69.15625 
Q 54.5 64.109375 54.5 55.328125 
Q 54.5 48.6875 50.5625 44.40625 
Q 46.625 40.140625 39.3125 38.8125 
z
" id="DejaVuSerif-56"/>
      </defs>
      <g style="fill:#262626;" transform="translate(24.69249 24.292335)scale(0.088 -0.088)">
       <use xlink:href="#DejaVuSerif-48"/>
       <use x="63.623047" xlink:href="#DejaVuSerif-46"/>
       <use x="95.410156" xlink:href="#DejaVuSerif-56"/>
      </g>
     </g>
    </g>
    <g id="text_8">
     <!-- Scaled Intensity -->
     <defs>
      <path d="M 9.28125 3.515625 
L 9.28125 20.125 
L 14.890625 20.0625 
Q 15.140625 11.765625 19.703125 7.78125 
Q 24.265625 3.8125 33.59375 3.8125 
Q 42.28125 3.8125 46.84375 7.25 
Q 51.421875 10.6875 51.421875 17.28125 
Q 51.421875 22.5625 48.65625 25.390625 
Q 45.90625 28.21875 37.015625 30.90625 
L 27.390625 33.796875 
Q 16.9375 36.96875 12.671875 41.703125 
Q 8.40625 46.4375 8.40625 54.6875 
Q 8.40625 63.96875 14.984375 69.09375 
Q 21.578125 74.21875 33.5 74.21875 
Q 38.578125 74.21875 44.625 73.109375 
Q 50.6875 72.015625 57.515625 69.921875 
L 57.515625 54.390625 
L 52 54.390625 
Q 51.171875 62.109375 46.84375 65.546875 
Q 42.53125 69 33.6875 69 
Q 25.984375 69 21.953125 65.84375 
Q 17.921875 62.703125 17.921875 56.6875 
Q 17.921875 51.46875 20.9375 48.484375 
Q 23.96875 45.515625 33.796875 42.578125 
L 42.828125 39.890625 
Q 52.734375 36.921875 56.953125 32.296875 
Q 61.1875 27.6875 61.1875 19.921875 
Q 61.1875 9.328125 54.390625 3.953125 
Q 47.609375 -1.421875 34.1875 -1.421875 
Q 28.171875 -1.421875 21.9375 -0.1875 
Q 15.71875 1.03125 9.28125 3.515625 
z
" id="DejaVuSerif-83"/>
      <path d="M 51.421875 15.578125 
Q 49.515625 7.28125 44.09375 2.921875 
Q 38.671875 -1.421875 30.078125 -1.421875 
Q 18.75 -1.421875 11.859375 6.078125 
Q 4.984375 13.578125 4.984375 25.984375 
Q 4.984375 38.421875 11.859375 45.875 
Q 18.75 53.328125 30.078125 53.328125 
Q 35.015625 53.328125 39.890625 52.171875 
Q 44.78125 51.03125 49.703125 48.6875 
L 49.703125 35.40625 
L 44.484375 35.40625 
Q 43.453125 42.234375 40.015625 45.359375 
Q 36.578125 48.484375 30.171875 48.484375 
Q 22.90625 48.484375 19.1875 42.84375 
Q 15.484375 37.203125 15.484375 25.984375 
Q 15.484375 14.75 19.171875 9.078125 
Q 22.859375 3.421875 30.171875 3.421875 
Q 35.984375 3.421875 39.453125 6.4375 
Q 42.921875 9.46875 44.1875 15.578125 
z
" id="DejaVuSerif-99"/>
      <path d="M 39.796875 16.3125 
L 39.796875 27.296875 
L 28.21875 27.296875 
Q 21.53125 27.296875 18.25 24.40625 
Q 14.984375 21.53125 14.984375 15.578125 
Q 14.984375 10.15625 18.296875 6.984375 
Q 21.625 3.8125 27.296875 3.8125 
Q 32.90625 3.8125 36.34375 7.28125 
Q 39.796875 10.75 39.796875 16.3125 
z
M 48.78125 32.421875 
L 48.78125 5.171875 
L 56.78125 5.171875 
L 56.78125 0 
L 39.796875 0 
L 39.796875 5.609375 
Q 36.8125 2 32.90625 0.28125 
Q 29 -1.421875 23.78125 -1.421875 
Q 15.140625 -1.421875 10.0625 3.171875 
Q 4.984375 7.765625 4.984375 15.578125 
Q 4.984375 23.640625 10.796875 28.078125 
Q 16.609375 32.515625 27.203125 32.515625 
L 39.796875 32.515625 
L 39.796875 36.078125 
Q 39.796875 42 36.203125 45.234375 
Q 32.625 48.484375 26.125 48.484375 
Q 20.75 48.484375 17.578125 46.046875 
Q 14.40625 43.609375 13.625 38.8125 
L 8.984375 38.8125 
L 8.984375 49.3125 
Q 13.671875 51.3125 18.09375 52.3125 
Q 22.515625 53.328125 26.703125 53.328125 
Q 37.5 53.328125 43.140625 47.96875 
Q 48.78125 42.625 48.78125 32.421875 
z
" id="DejaVuSerif-97"/>
      <path d="M 20.515625 5.171875 
L 29 5.171875 
L 29 0 
L 2.875 0 
L 2.875 5.171875 
L 11.53125 5.171875 
L 11.53125 70.796875 
L 2.875 70.796875 
L 2.875 75.984375 
L 20.515625 75.984375 
z
" id="DejaVuSerif-108"/>
      <path d="M 54.203125 25 
L 15.484375 25 
L 15.484375 24.609375 
Q 15.484375 14.109375 19.4375 8.765625 
Q 23.390625 3.421875 31.109375 3.421875 
Q 37.015625 3.421875 40.796875 6.515625 
Q 44.578125 9.625 46.09375 15.71875 
L 53.328125 15.71875 
Q 51.171875 7.171875 45.375 2.875 
Q 39.59375 -1.421875 30.171875 -1.421875 
Q 18.796875 -1.421875 11.890625 6.078125 
Q 4.984375 13.578125 4.984375 25.984375 
Q 4.984375 38.28125 11.765625 45.796875 
Q 18.5625 53.328125 29.59375 53.328125 
Q 41.359375 53.328125 47.65625 46.0625 
Q 53.953125 38.8125 54.203125 25 
z
M 43.609375 30.171875 
Q 43.3125 39.265625 39.765625 43.875 
Q 36.234375 48.484375 29.59375 48.484375 
Q 23.390625 48.484375 19.828125 43.84375 
Q 16.265625 39.203125 15.484375 30.171875 
z
" id="DejaVuSerif-101"/>
      <path d="M 52.484375 5.171875 
L 61.078125 5.171875 
L 61.078125 0 
L 43.5 0 
L 43.5 8.109375 
Q 40.875 3.21875 36.796875 0.890625 
Q 32.71875 -1.421875 26.703125 -1.421875 
Q 17.140625 -1.421875 11.0625 6.171875 
Q 4.984375 13.765625 4.984375 25.984375 
Q 4.984375 38.1875 11.03125 45.75 
Q 17.09375 53.328125 26.703125 53.328125 
Q 32.71875 53.328125 36.796875 51 
Q 40.875 48.6875 43.5 43.796875 
L 43.5 70.796875 
L 35.015625 70.796875 
L 35.015625 75.984375 
L 52.484375 75.984375 
z
M 43.5 23.390625 
L 43.5 28.515625 
Q 43.5 37.84375 39.90625 42.765625 
Q 36.328125 47.703125 29.5 47.703125 
Q 22.5625 47.703125 19.015625 42.234375 
Q 15.484375 36.765625 15.484375 25.984375 
Q 15.484375 15.234375 19.015625 9.71875 
Q 22.5625 4.203125 29.5 4.203125 
Q 36.328125 4.203125 39.90625 9.109375 
Q 43.5 14.015625 43.5 23.390625 
z
" id="DejaVuSerif-100"/>
      <path id="DejaVuSerif-32"/>
      <path d="M 24.703125 5.171875 
L 33.984375 5.171875 
L 33.984375 0 
L 5.515625 0 
L 5.515625 5.171875 
L 14.796875 5.171875 
L 14.796875 67.671875 
L 5.515625 67.671875 
L 5.515625 72.90625 
L 33.984375 72.90625 
L 33.984375 67.671875 
L 24.703125 67.671875 
z
" id="DejaVuSerif-73"/>
      <path d="M 4.109375 0 
L 4.109375 5.171875 
L 12.203125 5.171875 
L 12.203125 46.6875 
L 3.609375 46.6875 
L 3.609375 51.90625 
L 21.1875 51.90625 
L 21.1875 42.671875 
Q 23.6875 47.953125 27.65625 50.640625 
Q 31.640625 53.328125 36.921875 53.328125 
Q 45.515625 53.328125 49.5625 48.390625 
Q 53.609375 43.453125 53.609375 33.015625 
L 53.609375 5.171875 
L 61.625 5.171875 
L 61.625 0 
L 36.8125 0 
L 36.8125 5.171875 
L 44.578125 5.171875 
L 44.578125 30.171875 
Q 44.578125 39.703125 42.234375 43.234375 
Q 39.890625 46.78125 33.984375 46.78125 
Q 27.734375 46.78125 24.453125 42.203125 
Q 21.1875 37.640625 21.1875 28.90625 
L 21.1875 5.171875 
L 29 5.171875 
L 29 0 
z
" id="DejaVuSerif-110"/>
      <path d="M 10.796875 46.6875 
L 2.875 46.6875 
L 2.875 51.90625 
L 10.796875 51.90625 
L 10.796875 68.015625 
L 19.828125 68.015625 
L 19.828125 51.90625 
L 36.71875 51.90625 
L 36.71875 46.6875 
L 19.828125 46.6875 
L 19.828125 13.71875 
Q 19.828125 7.125 21.09375 5.265625 
Q 22.359375 3.421875 25.78125 3.421875 
Q 29.296875 3.421875 30.90625 5.484375 
Q 32.515625 7.5625 32.625 12.203125 
L 39.40625 12.203125 
Q 39.015625 5.125 35.546875 1.84375 
Q 32.078125 -1.421875 25 -1.421875 
Q 17.234375 -1.421875 14.015625 2.015625 
Q 10.796875 5.46875 10.796875 13.71875 
z
" id="DejaVuSerif-116"/>
      <path d="M 5.609375 2.875 
L 5.609375 14.984375 
L 10.796875 14.984375 
Q 10.984375 9.1875 14.421875 6.296875 
Q 17.875 3.421875 24.609375 3.421875 
Q 30.671875 3.421875 33.84375 5.6875 
Q 37.015625 7.953125 37.015625 12.3125 
Q 37.015625 15.71875 34.6875 17.8125 
Q 32.375 19.921875 24.90625 22.3125 
L 18.40625 24.515625 
Q 11.71875 26.65625 8.71875 29.875 
Q 5.71875 33.109375 5.71875 38.09375 
Q 5.71875 45.21875 10.9375 49.265625 
Q 16.15625 53.328125 25.390625 53.328125 
Q 29.5 53.328125 34.03125 52.25 
Q 38.578125 51.171875 43.40625 49.125 
L 43.40625 37.796875 
L 38.234375 37.796875 
Q 38.03125 42.828125 34.703125 45.65625 
Q 31.390625 48.484375 25.6875 48.484375 
Q 20.015625 48.484375 17.109375 46.484375 
Q 14.203125 44.484375 14.203125 40.484375 
Q 14.203125 37.203125 16.40625 35.21875 
Q 18.609375 33.25 25.203125 31.203125 
L 32.328125 29 
Q 39.703125 26.703125 42.9375 23.265625 
Q 46.1875 19.828125 46.1875 14.40625 
Q 46.1875 7.03125 40.546875 2.796875 
Q 34.90625 -1.421875 25 -1.421875 
Q 19.96875 -1.421875 15.1875 -0.34375 
Q 10.40625 0.734375 5.609375 2.875 
z
" id="DejaVuSerif-115"/>
      <path d="M 9.71875 68.015625 
Q 9.71875 70.265625 11.34375 71.921875 
Q 12.984375 73.578125 15.28125 73.578125 
Q 17.53125 73.578125 19.15625 71.921875 
Q 20.796875 70.265625 20.796875 68.015625 
Q 20.796875 65.71875 19.1875 64.109375 
Q 17.578125 62.5 15.28125 62.5 
Q 12.984375 62.5 11.34375 64.109375 
Q 9.71875 65.71875 9.71875 68.015625 
z
M 21.1875 5.171875 
L 29.6875 5.171875 
L 29.6875 0 
L 3.609375 0 
L 3.609375 5.171875 
L 12.203125 5.171875 
L 12.203125 46.6875 
L 3.609375 46.6875 
L 3.609375 51.90625 
L 21.1875 51.90625 
z
" id="DejaVuSerif-105"/>
      <path d="M 21.578125 -9.515625 
L 25 -0.875 
L 5.609375 46.6875 
L -0.296875 46.6875 
L -0.296875 51.90625 
L 23.578125 51.90625 
L 23.578125 46.6875 
L 15.28125 46.6875 
L 29.890625 10.984375 
L 44.484375 46.6875 
L 36.71875 46.6875 
L 36.71875 51.90625 
L 56.203125 51.90625 
L 56.203125 46.6875 
L 50.390625 46.6875 
L 26.609375 -11.71875 
Q 24.171875 -17.78125 21.1875 -20 
Q 18.21875 -22.21875 12.796875 -22.21875 
Q 10.5 -22.21875 8.078125 -21.828125 
Q 5.671875 -21.4375 3.21875 -20.703125 
L 3.21875 -10.796875 
L 7.8125 -10.796875 
Q 8.109375 -14.109375 9.5 -15.546875 
Q 10.890625 -17 13.8125 -17 
Q 16.5 -17 18.140625 -15.5 
Q 19.78125 -14.015625 21.578125 -9.515625 
z
" id="DejaVuSerif-121"/>
     </defs>
     <g style="fill:#262626;" transform="translate(11.185365 150.494079)rotate(-90)scale(0.096 -0.096)">
      <use xlink:href="#DejaVuSerif-83"/>
      <use x="68.505859" xlink:href="#DejaVuSerif-99"/>
      <use x="124.511719" xlink:href="#DejaVuSerif-97"/>
      <use x="184.130859" xlink:href="#DejaVuSerif-108"/>
      <use x="216.113281" xlink:href="#DejaVuSerif-101"/>
      <use x="275.292969" xlink:href="#DejaVuSerif-100"/>
      <use x="339.306641" xlink:href="#DejaVuSerif-32"/>
      <use x="371.09375" xlink:href="#DejaVuSerif-73"/>
      <use x="410.595703" xlink:href="#DejaVuSerif-110"/>
      <use x="475" xlink:href="#DejaVuSerif-116"/>
      <use x="515.185547" xlink:href="#DejaVuSerif-101"/>
      <use x="574.365234" xlink:href="#DejaVuSerif-110"/>
      <use x="638.769531" xlink:href="#DejaVuSerif-115"/>
      <use x="690.087891" xlink:href="#DejaVuSerif-105"/>
      <use x="722.070312" xlink:href="#DejaVuSerif-116"/>
      <use x="762.255859" xlink:href="#DejaVuSerif-121"/>
     </g>
    </g>
   </g>
   <g id="line2d_1">
    <path clip-path="url(#p51d53d7dbb)" d="M 74.169627 90.739169 
L 79.499507 119.623685 
L 84.829387 140.929537 
L 90.159267 159.339182 
L 95.489147 149.281936 
L 100.819027 138.366977 
L 106.148906 128.212104 
L 111.478786 129.1353 
L 116.808666 128.89498 
L 122.138546 127.860274 
L 127.468426 120.373441 
L 132.798306 107.864346 
L 138.128186 102.660005 
L 143.458065 94.888648 
L 148.787945 86.217614 
L 154.117825 78.998284 
L 159.447705 76.512722 
L 164.777585 82.467057 
L 170.107465 80.276229 
L 175.437345 72.031356 
L 180.767224 66.658567 
L 186.097104 53.92388 
L 191.426984 51.894258 
L 196.756864 52.246767 
L 202.086744 41.906094 
L 207.416624 44.122791 
L 212.746504 42.225128 
L 218.076383 37.613057 
L 223.406263 31.919829 
L 228.736143 33.104589 
L 234.066023 32.575702 
L 239.395903 30.885291 
L 244.725783 33.196757 
L 250.055663 25.451091 
L 255.385542 32.969481 
L 260.715422 31.3124 
L 266.045302 29.353453 
L 271.375182 25.457908 
L 276.705062 30.455837 
L 282.034942 27.953966 
L 287.364822 24.921884 
L 292.694701 27.526738 
L 298.024581 28.943994 
L 303.354461 32.380241 
L 308.684341 36.404002 
L 314.014221 34.029701 
L 319.344101 35.711889 
L 324.673981 30.161673 
L 330.00386 27.608584 
L 335.33374 29.783801 
L 340.66362 30.501214 
L 345.9935 34.1812 
L 351.32338 31.768677 
L 356.65326 36.831787 
L 361.98314 36.269424 
L 367.313019 38.277928 
L 372.642899 34.467917 
L 377.972779 26.367642 
L 383.302659 32.842185 
L 388.632539 40.645886 
L 393.962419 39.140058 
L 399.292299 34.013127 
L 404.622178 37.616214 
L 409.952058 35.789172 
L 415.281938 40.287737 
L 420.611818 38.654768 
L 425.941698 40.487661 
L 431.271578 43.257658 
L 436.601458 33.211569 
L 441.931337 40.330175 
L 447.261217 35.042728 
L 452.591097 41.518594 
L 457.920977 45.177334 
L 463.250857 52.250098 
L 468.580737 53.657461 
L 473.910617 63.655408 
L 479.240496 59.52055 
L 484.570376 58.968043 
L 489.900256 65.027296 
L 495.230136 71.213762 
L 500.560016 71.254065 
L 505.889896 74.558082 
L 511.219776 84.972866 
L 516.549655 79.554108 
L 521.879535 90.599991 
L 527.209415 88.863765 
L 532.539295 90.852145 
L 537.869175 88.201258 
L 543.199055 88.21158 
L 548.528935 89.46017 
L 553.858814 90.118525 
L 559.188694 87.164392 
L 564.518574 90.952901 
L 569.848454 95.010404 
L 575.178334 103.459532 
L 580.508214 98.461389 
L 585.838094 87.947296 
L 591.167973 88.559407 
L 596.497853 90.543457 
L 601.827733 82.860613 
L 607.157613 83.46921 
L 612.487493 91.540262 
L 617.817373 94.964876 
" style="fill:none;stroke:#c8102e;stroke-linecap:round;stroke-width:1.2;"/>
   </g>
   <g id="line2d_2">
    <path clip-path="url(#p51d53d7dbb)" d="M 74.169627 133.22703 
L 79.499507 154.950115 
L 84.829387 164.970427 
L 90.159267 178.401978 
L 95.489147 172.595078 
L 100.819027 162.876698 
L 106.148906 153.629686 
L 111.478786 151.146693 
L 116.808666 147.305247 
L 122.138546 147.743202 
L 127.468426 141.054663 
L 132.798306 132.718872 
L 138.128186 126.860963 
L 143.458065 119.705827 
L 148.787945 112.550818 
L 154.117825 106.912213 
L 159.447705 104.83749 
L 164.777585 110.189787 
L 170.107465 105.473505 
L 175.437345 99.739982 
L 180.767224 96.298721 
L 186.097104 84.58298 
L 191.426984 85.354493 
L 196.756864 83.406397 
L 202.086744 78.201121 
L 207.416624 76.413568 
L 212.746504 72.523312 
L 218.076383 70.523337 
L 223.406263 64.14569 
L 228.736143 64.815343 
L 234.066023 66.258847 
L 239.395903 65.192293 
L 244.725783 64.799399 
L 250.055663 59.310103 
L 255.385542 65.584293 
L 260.715422 65.049428 
L 266.045302 64.796388 
L 271.375182 63.344816 
L 276.705062 67.57761 
L 282.034942 64.622291 
L 287.364822 59.780736 
L 292.694701 61.59554 
L 298.024581 62.394606 
L 303.354461 66.574805 
L 308.684341 68.485642 
L 314.014221 66.682798 
L 319.344101 70.868545 
L 324.673981 67.498009 
L 330.00386 63.225397 
L 335.33374 64.5988 
L 340.66362 68.453257 
L 345.9935 69.038199 
L 351.32338 68.539616 
L 356.65326 73.216384 
L 361.98314 72.077024 
L 367.313019 74.221782 
L 372.642899 69.855723 
L 377.972779 68.070836 
L 383.302659 71.543168 
L 388.632539 73.238402 
L 393.962419 73.712882 
L 399.292299 69.867565 
L 404.622178 75.146086 
L 409.952058 75.957396 
L 415.281938 76.806644 
L 420.611818 76.049765 
L 425.941698 75.706026 
L 431.271578 76.809186 
L 436.601458 70.370432 
L 441.931337 74.479285 
L 447.261217 72.391631 
L 452.591097 74.382202 
L 457.920977 78.238507 
L 463.250857 84.384662 
L 468.580737 87.464712 
L 473.910617 94.47897 
L 479.240496 91.141719 
L 484.570376 89.075038 
L 489.900256 94.559913 
L 495.230136 101.986596 
L 500.560016 102.684847 
L 505.889896 105.984712 
L 511.219776 113.516917 
L 516.549655 109.761694 
L 521.879535 120.845598 
L 527.209415 121.462624 
L 532.539295 120.796769 
L 537.869175 120.971988 
L 543.199055 122.167902 
L 548.528935 121.550758 
L 553.858814 120.470339 
L 559.188694 117.836104 
L 564.518574 122.432184 
L 569.848454 125.947007 
L 575.178334 132.845326 
L 580.508214 128.782885 
L 585.838094 121.163532 
L 591.167973 122.849112 
L 596.497853 124.452487 
L 601.827733 119.491538 
L 607.157613 121.905711 
L 612.487493 128.038256 
L 617.817373 128.045597 
" style="fill:none;stroke:#00b388;stroke-linecap:round;stroke-width:1.2;"/>
   </g>
   <g id="line2d_3">
    <path clip-path="url(#p51d53d7dbb)" d="M 74.169627 175.714892 
L 79.499507 190.276547 
L 84.829387 189.011315 
L 90.159267 197.464774 
L 95.489147 195.908221 
L 100.819027 187.386418 
L 106.148906 179.047268 
L 111.478786 173.158087 
L 116.808666 165.715515 
L 122.138546 167.626131 
L 127.468426 161.735884 
L 132.798306 157.573397 
L 138.128186 151.061919 
L 143.458065 144.523009 
L 148.787945 138.884025 
L 154.117825 134.826142 
L 159.447705 133.162257 
L 164.777585 137.912516 
L 170.107465 130.670779 
L 175.437345 127.448607 
L 180.767224 125.938873 
L 186.097104 115.242077 
L 191.426984 118.814729 
L 196.756864 114.566028 
L 202.086744 114.496144 
L 207.416624 108.704347 
L 212.746504 102.821497 
L 218.076383 103.433618 
L 223.406263 96.37155 
L 228.736143 96.526093 
L 234.066023 99.941992 
L 239.395903 99.499295 
L 244.725783 96.402042 
L 250.055663 93.16911 
L 255.385542 98.1991 
L 260.715422 98.786455 
L 266.045302 100.239327 
L 271.375182 101.231724 
L 276.705062 104.699384 
L 282.034942 101.290617 
L 287.364822 94.639587 
L 292.694701 95.664346 
L 298.024581 95.845219 
L 303.354461 100.769364 
L 308.684341 100.567286 
L 314.014221 99.3359 
L 319.344101 106.025197 
L 324.673981 104.834341 
L 330.00386 98.842209 
L 335.33374 99.413798 
L 340.66362 106.405298 
L 345.9935 103.895202 
L 351.32338 105.310559 
L 356.65326 109.60098 
L 361.98314 107.884625 
L 367.313019 110.165636 
L 372.642899 105.24353 
L 377.972779 109.774029 
L 383.302659 110.244151 
L 388.632539 105.830913 
L 393.962419 108.285701 
L 399.292299 105.722003 
L 404.622178 112.67596 
L 409.952058 116.125616 
L 415.281938 113.325549 
L 420.611818 113.444763 
L 425.941698 110.924389 
L 431.271578 110.360709 
L 436.601458 107.529291 
L 441.931337 108.628392 
L 447.261217 109.740537 
L 452.591097 107.245814 
L 457.920977 111.29968 
L 463.250857 116.519224 
L 468.580737 121.271963 
L 473.910617 125.302535 
L 479.240496 122.76289 
L 484.570376 119.182033 
L 489.900256 124.09253 
L 495.230136 132.759427 
L 500.560016 134.115629 
L 505.889896 137.411342 
L 511.219776 142.060968 
L 516.549655 139.969281 
L 521.879535 151.091207 
L 527.209415 154.061482 
L 532.539295 150.741393 
L 537.869175 153.742716 
L 543.199055 156.124225 
L 548.528935 153.641348 
L 553.858814 150.822155 
L 559.188694 148.507819 
L 564.518574 153.911466 
L 569.848454 156.88361 
L 575.178334 162.231121 
L 580.508214 159.104383 
L 585.838094 154.37977 
L 591.167973 157.138819 
L 596.497853 158.361516 
L 601.827733 156.122461 
L 607.157613 160.342209 
L 612.487493 164.536247 
L 617.817373 161.126318 
" style="fill:none;stroke:#f6be00;stroke-linecap:round;stroke-width:1.2;"/>
   </g>
   <g id="line2d_4"/>
   <g id="line2d_5"/>
   <g id="line2d_6"/>
   <g id="patch_3">
    <path d="M 46.98724 206.091918 
L 46.98724 16.29474 
" style="fill:none;stroke:#262626;stroke-linecap:square;stroke-linejoin:miter;"/>
   </g>
   <g id="patch_4">
    <path d="M 644.99976 206.091918 
L 644.99976 16.29474 
" style="fill:none;stroke:#262626;stroke-linecap:square;stroke-linejoin:miter;"/>
   </g>
   <g id="patch_5">
    <path d="M 46.98724 206.091918 
L 644.99976 206.091918 
" style="fill:none;stroke:#262626;stroke-linecap:square;stroke-linejoin:miter;"/>
   </g>
   <g id="patch_6">
    <path d="M 46.98724 16.29474 
L 644.99976 16.29474 
" style="fill:none;stroke:#262626;stroke-linecap:square;stroke-linejoin:miter;"/>
   </g>
   <g id="text_9">
    <!-- Self-Blocking Bricks Generated Samples -->
    <defs>
     <path d="M 43.015625 63.71875 
L 38.28125 63.71875 
Q 38.234375 67.390625 36.203125 69.28125 
Q 34.1875 71.1875 30.328125 71.1875 
Q 25.296875 71.1875 23.234375 68.421875 
Q 21.1875 65.671875 21.1875 58.59375 
L 21.1875 51.90625 
L 35.6875 51.90625 
L 35.6875 46.6875 
L 21.1875 46.6875 
L 21.1875 5.171875 
L 32.71875 5.171875 
L 32.71875 0 
L 3.609375 0 
L 3.609375 5.171875 
L 12.203125 5.171875 
L 12.203125 46.6875 
L 3.609375 46.6875 
L 3.609375 51.90625 
L 12.203125 51.90625 
L 12.203125 58.40625 
Q 12.203125 67.09375 16.71875 71.53125 
Q 21.234375 75.984375 29.984375 75.984375 
Q 33.25 75.984375 36.515625 75.390625 
Q 39.796875 74.8125 43.015625 73.578125 
z
" id="DejaVuSerif-102"/>
     <path d="M 4.390625 30.609375 
L 29.390625 30.609375 
L 29.390625 23 
L 4.390625 23 
z
" id="DejaVuSerif-45"/>
     <path d="M 24.703125 5.171875 
L 39.3125 5.171875 
Q 48.09375 5.171875 52.140625 8.984375 
Q 56.203125 12.796875 56.203125 21.09375 
Q 56.203125 29.34375 52.171875 33.125 
Q 48.140625 36.921875 39.3125 36.921875 
L 24.703125 36.921875 
z
M 24.703125 42.09375 
L 37.109375 42.09375 
Q 45.125 42.09375 48.796875 45.171875 
Q 52.484375 48.25 52.484375 54.890625 
Q 52.484375 61.578125 48.796875 64.625 
Q 45.125 67.671875 37.109375 67.671875 
L 24.703125 67.671875 
z
M 5.515625 0 
L 5.515625 5.171875 
L 14.796875 5.171875 
L 14.796875 67.671875 
L 5.515625 67.671875 
L 5.515625 72.90625 
L 41.5 72.90625 
Q 52.546875 72.90625 58.125 68.390625 
Q 63.71875 63.875 63.71875 54.890625 
Q 63.71875 48.390625 59.828125 44.53125 
Q 55.953125 40.671875 48.484375 39.796875 
Q 57.765625 38.625 62.578125 33.859375 
Q 67.390625 29.109375 67.390625 21.09375 
Q 67.390625 10.25 60.546875 5.125 
Q 53.71875 0 39.203125 0 
z
" id="DejaVuSerif-66"/>
     <path d="M 30.078125 3.421875 
Q 37.3125 3.421875 40.984375 9.125 
Q 44.671875 14.84375 44.671875 25.984375 
Q 44.671875 37.109375 40.984375 42.796875 
Q 37.3125 48.484375 30.078125 48.484375 
Q 22.859375 48.484375 19.171875 42.796875 
Q 15.484375 37.109375 15.484375 25.984375 
Q 15.484375 14.84375 19.1875 9.125 
Q 22.90625 3.421875 30.078125 3.421875 
z
M 30.078125 -1.421875 
Q 18.75 -1.421875 11.859375 6.078125 
Q 4.984375 13.578125 4.984375 25.984375 
Q 4.984375 38.375 11.84375 45.84375 
Q 18.703125 53.328125 30.078125 53.328125 
Q 41.453125 53.328125 48.3125 45.84375 
Q 55.171875 38.375 55.171875 25.984375 
Q 55.171875 13.578125 48.3125 6.078125 
Q 41.453125 -1.421875 30.078125 -1.421875 
z
" id="DejaVuSerif-111"/>
     <path d="M 28.609375 0 
L 3.421875 0 
L 3.421875 5.171875 
L 11.53125 5.171875 
L 11.53125 70.796875 
L 2.875 70.796875 
L 2.875 75.984375 
L 20.515625 75.984375 
L 20.515625 26.515625 
L 42.390625 46.6875 
L 34.90625 46.6875 
L 34.90625 51.90625 
L 58.40625 51.90625 
L 58.40625 46.6875 
L 49.515625 46.6875 
L 34.078125 32.421875 
L 53.8125 5.171875 
L 61.28125 5.171875 
L 61.28125 0 
L 35.6875 0 
L 35.6875 5.171875 
L 43.109375 5.171875 
L 27.59375 26.515625 
L 20.515625 19.921875 
L 20.515625 5.171875 
L 28.609375 5.171875 
z
" id="DejaVuSerif-107"/>
     <path d="M 52.484375 46.6875 
L 52.484375 1.125 
Q 52.484375 -10.0625 46.328125 -16.140625 
Q 40.1875 -22.21875 28.8125 -22.21875 
Q 23.6875 -22.21875 19 -21.28125 
Q 14.3125 -20.359375 10.015625 -18.5 
L 10.015625 -7.625 
L 14.703125 -7.625 
Q 15.578125 -12.703125 18.84375 -15.046875 
Q 22.125 -17.390625 28.21875 -17.390625 
Q 36.140625 -17.390625 39.8125 -12.921875 
Q 43.5 -8.453125 43.5 1.125 
L 43.5 8.109375 
Q 40.875 3.21875 36.796875 0.890625 
Q 32.71875 -1.421875 26.703125 -1.421875 
Q 17.140625 -1.421875 11.0625 6.171875 
Q 4.984375 13.765625 4.984375 25.984375 
Q 4.984375 38.1875 11.03125 45.75 
Q 17.09375 53.328125 26.703125 53.328125 
Q 32.71875 53.328125 36.796875 51 
Q 40.875 48.6875 43.5 43.796875 
L 43.5 51.90625 
L 61.078125 51.90625 
L 61.078125 46.6875 
z
M 43.5 28.515625 
Q 43.5 37.84375 39.90625 42.765625 
Q 36.328125 47.703125 29.5 47.703125 
Q 22.5625 47.703125 19.015625 42.234375 
Q 15.484375 36.765625 15.484375 25.984375 
Q 15.484375 15.234375 19.015625 9.71875 
Q 22.5625 4.203125 29.5 4.203125 
Q 36.328125 4.203125 39.90625 9.109375 
Q 43.5 14.015625 43.5 23.390625 
z
" id="DejaVuSerif-103"/>
     <path d="M 47.796875 52 
L 47.796875 39.015625 
L 42.625 39.015625 
Q 42.390625 42.875 40.484375 44.78125 
Q 38.578125 46.6875 34.90625 46.6875 
Q 28.265625 46.6875 24.71875 42.09375 
Q 21.1875 37.5 21.1875 28.90625 
L 21.1875 5.171875 
L 31.59375 5.171875 
L 31.59375 0 
L 4.109375 0 
L 4.109375 5.171875 
L 12.203125 5.171875 
L 12.203125 46.78125 
L 3.609375 46.78125 
L 3.609375 51.90625 
L 21.1875 51.90625 
L 21.1875 42.671875 
Q 23.828125 48.09375 27.96875 50.703125 
Q 32.125 53.328125 38.09375 53.328125 
Q 40.28125 53.328125 42.703125 52.984375 
Q 45.125 52.640625 47.796875 52 
z
" id="DejaVuSerif-114"/>
     <path d="M 64.015625 51.125 
Q 62.3125 60.25 56.890625 64.625 
Q 51.46875 69 41.796875 69 
Q 29.203125 69 23 60.890625 
Q 16.796875 52.78125 16.796875 36.375 
Q 16.796875 20.3125 23.1875 12.0625 
Q 29.59375 3.8125 42 3.8125 
Q 47.515625 3.8125 52.53125 5.171875 
Q 57.5625 6.546875 62.109375 9.28125 
L 62.109375 28.078125 
L 48.390625 28.078125 
L 48.390625 33.296875 
L 72.015625 33.296875 
L 72.015625 6.109375 
Q 65.53125 2.34375 58.03125 0.453125 
Q 50.53125 -1.421875 42 -1.421875 
Q 25.484375 -1.421875 15.546875 8.90625 
Q 5.609375 19.234375 5.609375 36.375 
Q 5.609375 53.65625 15.5625 63.9375 
Q 25.53125 74.21875 42.390625 74.21875 
Q 48.640625 74.21875 55.296875 72.78125 
Q 61.96875 71.34375 69.484375 68.40625 
L 69.484375 51.125 
z
" id="DejaVuSerif-71"/>
     <path d="M 51.8125 41.796875 
Q 54.390625 47.515625 58.421875 50.421875 
Q 62.453125 53.328125 67.828125 53.328125 
Q 75.984375 53.328125 79.984375 48.265625 
Q 83.984375 43.21875 83.984375 33.015625 
L 83.984375 5.171875 
L 92.09375 5.171875 
L 92.09375 0 
L 67.1875 0 
L 67.1875 5.171875 
L 75 5.171875 
L 75 31.984375 
Q 75 39.9375 72.65625 43.3125 
Q 70.3125 46.6875 64.890625 46.6875 
Q 58.890625 46.6875 55.734375 42.140625 
Q 52.59375 37.59375 52.59375 28.90625 
L 52.59375 5.171875 
L 60.40625 5.171875 
L 60.40625 0 
L 35.796875 0 
L 35.796875 5.171875 
L 43.609375 5.171875 
L 43.609375 32.328125 
Q 43.609375 40.09375 41.265625 43.390625 
Q 38.921875 46.6875 33.5 46.6875 
Q 27.484375 46.6875 24.328125 42.140625 
Q 21.1875 37.59375 21.1875 28.90625 
L 21.1875 5.171875 
L 29 5.171875 
L 29 0 
L 4.109375 0 
L 4.109375 5.171875 
L 12.203125 5.171875 
L 12.203125 46.78125 
L 3.609375 46.78125 
L 3.609375 51.90625 
L 21.1875 51.90625 
L 21.1875 42.671875 
Q 23.6875 47.859375 27.53125 50.59375 
Q 31.390625 53.328125 36.28125 53.328125 
Q 42.328125 53.328125 46.375 50.3125 
Q 50.4375 47.3125 51.8125 41.796875 
z
" id="DejaVuSerif-109"/>
     <path d="M 20.515625 28.515625 
L 20.515625 23.390625 
Q 20.515625 14.015625 24.09375 9.109375 
Q 27.6875 4.203125 34.515625 4.203125 
Q 41.40625 4.203125 44.9375 9.71875 
Q 48.484375 15.234375 48.484375 25.984375 
Q 48.484375 36.765625 44.9375 42.234375 
Q 41.40625 47.703125 34.515625 47.703125 
Q 27.6875 47.703125 24.09375 42.765625 
Q 20.515625 37.84375 20.515625 28.515625 
z
M 11.53125 46.6875 
L 2.875 46.6875 
L 2.875 51.90625 
L 20.515625 51.90625 
L 20.515625 43.796875 
Q 23.140625 48.6875 27.21875 51 
Q 31.296875 53.328125 37.3125 53.328125 
Q 46.875 53.328125 52.921875 45.75 
Q 58.984375 38.1875 58.984375 25.984375 
Q 58.984375 13.765625 52.921875 6.171875 
Q 46.875 -1.421875 37.3125 -1.421875 
Q 31.296875 -1.421875 27.21875 0.890625 
Q 23.140625 3.21875 20.515625 8.109375 
L 20.515625 -15.578125 
L 29 -15.578125 
L 29 -20.796875 
L 2.875 -20.796875 
L 2.875 -15.578125 
L 11.53125 -15.578125 
z
" id="DejaVuSerif-112"/>
    </defs>
    <g style="fill:#262626;" transform="translate(247.4705 10.29474)scale(0.096 -0.096)">
     <use xlink:href="#DejaVuSerif-83"/>
     <use x="68.505859" xlink:href="#DejaVuSerif-101"/>
     <use x="127.685547" xlink:href="#DejaVuSerif-108"/>
     <use x="159.667969" xlink:href="#DejaVuSerif-102"/>
     <use x="196.632812" xlink:href="#DejaVuSerif-45"/>
     <use x="230.421875" xlink:href="#DejaVuSerif-66"/>
     <use x="303.908203" xlink:href="#DejaVuSerif-108"/>
     <use x="335.890625" xlink:href="#DejaVuSerif-111"/>
     <use x="396.095703" xlink:href="#DejaVuSerif-99"/>
     <use x="452.101562" xlink:href="#DejaVuSerif-107"/>
     <use x="512.697266" xlink:href="#DejaVuSerif-105"/>
     <use x="544.679688" xlink:href="#DejaVuSerif-110"/>
     <use x="609.083984" xlink:href="#DejaVuSerif-103"/>
     <use x="673.097656" xlink:href="#DejaVuSerif-32"/>
     <use x="704.884766" xlink:href="#DejaVuSerif-66"/>
     <use x="778.371094" xlink:href="#DejaVuSerif-114"/>
     <use x="826.173828" xlink:href="#DejaVuSerif-105"/>
     <use x="858.15625" xlink:href="#DejaVuSerif-99"/>
     <use x="914.162109" xlink:href="#DejaVuSerif-107"/>
     <use x="974.757812" xlink:href="#DejaVuSerif-115"/>
     <use x="1026.076172" xlink:href="#DejaVuSerif-32"/>
     <use x="1057.863281" xlink:href="#DejaVuSerif-71"/>
     <use x="1137.746094" xlink:href="#DejaVuSerif-101"/>
     <use x="1196.925781" xlink:href="#DejaVuSerif-110"/>
     <use x="1261.330078" xlink:href="#DejaVuSerif-101"/>
     <use x="1320.509766" xlink:href="#DejaVuSerif-114"/>
     <use x="1368.3125" xlink:href="#DejaVuSerif-97"/>
     <use x="1427.931641" xlink:href="#DejaVuSerif-116"/>
     <use x="1468.117188" xlink:href="#DejaVuSerif-101"/>
     <use x="1527.296875" xlink:href="#DejaVuSerif-100"/>
     <use x="1591.310547" xlink:href="#DejaVuSerif-32"/>
     <use x="1623.097656" xlink:href="#DejaVuSerif-83"/>
     <use x="1691.603516" xlink:href="#DejaVuSerif-97"/>
     <use x="1751.222656" xlink:href="#DejaVuSerif-109"/>
     <use x="1846.046875" xlink:href="#DejaVuSerif-112"/>
     <use x="1910.060547" xlink:href="#DejaVuSerif-108"/>
     <use x="1942.042969" xlink:href="#DejaVuSerif-101"/>
     <use x="2001.222656" xlink:href="#DejaVuSerif-115"/>
    </g>
   </g>
  </g>
  <g id="axes_2">
   <g id="legend_1">
    <g id="line2d_7">
     <path d="M 156.355562 226.114616 
L 173.955562 226.114616 
" style="fill:none;stroke:#c8102e;stroke-linecap:round;stroke-width:1.2;"/>
    </g>
    <g id="line2d_8"/>
    <g id="text_10">
     <!-- Mean + Standard Deviation -->
     <defs>
      <path d="M 5.515625 0 
L 5.515625 5.171875 
L 14.796875 5.171875 
L 14.796875 67.671875 
L 4.984375 67.671875 
L 4.984375 72.90625 
L 26.21875 72.90625 
L 51.8125 21 
L 77.390625 72.90625 
L 97.3125 72.90625 
L 97.3125 67.671875 
L 87.59375 67.671875 
L 87.59375 5.171875 
L 96.921875 5.171875 
L 96.921875 0 
L 68.40625 0 
L 68.40625 5.171875 
L 77.6875 5.171875 
L 77.6875 61.53125 
L 52.6875 10.6875 
L 45.796875 10.6875 
L 20.796875 61.53125 
L 20.796875 5.171875 
L 30.078125 5.171875 
L 30.078125 0 
z
" id="DejaVuSerif-77"/>
      <path d="M 45.796875 62.703125 
L 45.796875 35.296875 
L 73.1875 35.296875 
L 73.1875 27.390625 
L 45.796875 27.390625 
L 45.796875 0 
L 37.984375 0 
L 37.984375 27.390625 
L 10.59375 27.390625 
L 10.59375 35.296875 
L 37.984375 35.296875 
L 37.984375 62.703125 
z
" id="DejaVuSerif-43"/>
      <path d="M 24.703125 5.171875 
L 33.796875 5.171875 
Q 48 5.171875 55.59375 13.28125 
Q 63.1875 21.390625 63.1875 36.53125 
Q 63.1875 51.65625 55.609375 59.65625 
Q 48.046875 67.671875 33.796875 67.671875 
L 24.703125 67.671875 
z
M 5.515625 0 
L 5.515625 5.171875 
L 14.796875 5.171875 
L 14.796875 67.671875 
L 5.515625 67.671875 
L 5.515625 72.90625 
L 34.515625 72.90625 
Q 53.375 72.90625 63.890625 63.28125 
Q 74.421875 53.65625 74.421875 36.53125 
Q 74.421875 19.34375 63.875 9.671875 
Q 53.328125 0 34.515625 0 
z
" id="DejaVuSerif-68"/>
      <path d="M 24.703125 0 
L 5.609375 46.6875 
L -0.296875 46.6875 
L -0.296875 51.90625 
L 23.578125 51.90625 
L 23.578125 46.6875 
L 15.28125 46.6875 
L 29.890625 10.984375 
L 44.484375 46.6875 
L 36.71875 46.6875 
L 36.71875 51.90625 
L 56.203125 51.90625 
L 56.203125 46.6875 
L 50.390625 46.6875 
L 31.296875 0 
z
" id="DejaVuSerif-118"/>
     </defs>
     <g style="fill:#262626;" transform="translate(180.995563 229.194616)scale(0.088 -0.088)">
      <use xlink:href="#DejaVuSerif-77"/>
      <use x="102.392578" xlink:href="#DejaVuSerif-101"/>
      <use x="161.572266" xlink:href="#DejaVuSerif-97"/>
      <use x="221.191406" xlink:href="#DejaVuSerif-110"/>
      <use x="285.595703" xlink:href="#DejaVuSerif-32"/>
      <use x="317.382812" xlink:href="#DejaVuSerif-43"/>
      <use x="401.171875" xlink:href="#DejaVuSerif-32"/>
      <use x="432.958984" xlink:href="#DejaVuSerif-83"/>
      <use x="501.464844" xlink:href="#DejaVuSerif-116"/>
      <use x="541.650391" xlink:href="#DejaVuSerif-97"/>
      <use x="601.269531" xlink:href="#DejaVuSerif-110"/>
      <use x="665.673828" xlink:href="#DejaVuSerif-100"/>
      <use x="729.6875" xlink:href="#DejaVuSerif-97"/>
      <use x="789.306641" xlink:href="#DejaVuSerif-114"/>
      <use x="837.109375" xlink:href="#DejaVuSerif-100"/>
      <use x="901.123047" xlink:href="#DejaVuSerif-32"/>
      <use x="932.910156" xlink:href="#DejaVuSerif-68"/>
      <use x="1013.085938" xlink:href="#DejaVuSerif-101"/>
      <use x="1072.265625" xlink:href="#DejaVuSerif-118"/>
      <use x="1128.759766" xlink:href="#DejaVuSerif-105"/>
      <use x="1160.742188" xlink:href="#DejaVuSerif-97"/>
      <use x="1220.361328" xlink:href="#DejaVuSerif-116"/>
      <use x="1260.546875" xlink:href="#DejaVuSerif-105"/>
      <use x="1292.529297" xlink:href="#DejaVuSerif-111"/>
      <use x="1352.734375" xlink:href="#DejaVuSerif-110"/>
     </g>
    </g>
    <g id="line2d_9">
     <path d="M 323.306687 226.114616 
L 340.906687 226.114616 
" style="fill:none;stroke:#00b388;stroke-linecap:round;stroke-width:1.2;"/>
    </g>
    <g id="line2d_10"/>
    <g id="text_11">
     <!-- Mean -->
     <g style="fill:#262626;" transform="translate(347.946687 229.194616)scale(0.088 -0.088)">
      <use xlink:href="#DejaVuSerif-77"/>
      <use x="102.392578" xlink:href="#DejaVuSerif-101"/>
      <use x="161.572266" xlink:href="#DejaVuSerif-97"/>
      <use x="221.191406" xlink:href="#DejaVuSerif-110"/>
     </g>
    </g>
    <g id="line2d_11">
     <path d="M 390.680313 226.114616 
L 408.280313 226.114616 
" style="fill:none;stroke:#f6be00;stroke-linecap:round;stroke-width:1.2;"/>
    </g>
    <g id="line2d_12"/>
    <g id="text_12">
     <!-- Mean - Standard Deviation -->
     <g style="fill:#262626;" transform="translate(415.320312 229.194616)scale(0.088 -0.088)">
      <use xlink:href="#DejaVuSerif-77"/>
      <use x="102.392578" xlink:href="#DejaVuSerif-101"/>
      <use x="161.572266" xlink:href="#DejaVuSerif-97"/>
      <use x="221.191406" xlink:href="#DejaVuSerif-110"/>
      <use x="285.595703" xlink:href="#DejaVuSerif-32"/>
      <use x="317.382812" xlink:href="#DejaVuSerif-45"/>
      <use x="351.171875" xlink:href="#DejaVuSerif-32"/>
      <use x="382.958984" xlink:href="#DejaVuSerif-83"/>
      <use x="451.464844" xlink:href="#DejaVuSerif-116"/>
      <use x="491.650391" xlink:href="#DejaVuSerif-97"/>
      <use x="551.269531" xlink:href="#DejaVuSerif-110"/>
      <use x="615.673828" xlink:href="#DejaVuSerif-100"/>
      <use x="679.6875" xlink:href="#DejaVuSerif-97"/>
      <use x="739.306641" xlink:href="#DejaVuSerif-114"/>
      <use x="787.109375" xlink:href="#DejaVuSerif-100"/>
      <use x="851.123047" xlink:href="#DejaVuSerif-32"/>
      <use x="882.910156" xlink:href="#DejaVuSerif-68"/>
      <use x="963.085938" xlink:href="#DejaVuSerif-101"/>
      <use x="1022.265625" xlink:href="#DejaVuSerif-118"/>
      <use x="1078.759766" xlink:href="#DejaVuSerif-105"/>
      <use x="1110.742188" xlink:href="#DejaVuSerif-97"/>
      <use x="1170.361328" xlink:href="#DejaVuSerif-116"/>
      <use x="1210.546875" xlink:href="#DejaVuSerif-105"/>
      <use x="1242.529297" xlink:href="#DejaVuSerif-111"/>
      <use x="1302.734375" xlink:href="#DejaVuSerif-110"/>
     </g>
    </g>
   </g>
  </g>
  <g id="axes_3">
   <g id="patch_7">
    <path d="M 46.98724 434.89201 
L 644.99976 434.89201 
L 644.99976 245.094832 
L 46.98724 245.094832 
z
" style="fill:#ffffff;"/>
   </g>
   <g id="matplotlib.axis_3">
    <g id="xtick_1">
     <g id="text_13">
      <!-- 0 -->
      <g style="fill:#262626;" transform="translate(71.370127 449.878635)scale(0.088 -0.088)">
       <use xlink:href="#DejaVuSerif-48"/>
      </g>
     </g>
    </g>
    <g id="xtick_2">
     <g id="text_14">
      <!-- 20 -->
      <g style="fill:#262626;" transform="translate(175.168224 449.878635)scale(0.088 -0.088)">
       <use xlink:href="#DejaVuSerif-50"/>
       <use x="63.623047" xlink:href="#DejaVuSerif-48"/>
      </g>
     </g>
    </g>
    <g id="xtick_3">
     <g id="text_15">
      <!-- 40 -->
      <g style="fill:#262626;" transform="translate(281.765822 449.878635)scale(0.088 -0.088)">
       <use xlink:href="#DejaVuSerif-52"/>
       <use x="63.623047" xlink:href="#DejaVuSerif-48"/>
      </g>
     </g>
    </g>
    <g id="xtick_4">
     <g id="text_16">
      <!-- 60 -->
      <g style="fill:#262626;" transform="translate(388.363419 449.878635)scale(0.088 -0.088)">
       <use xlink:href="#DejaVuSerif-54"/>
       <use x="63.623047" xlink:href="#DejaVuSerif-48"/>
      </g>
     </g>
    </g>
    <g id="xtick_5">
     <g id="text_17">
      <!-- 80 -->
      <g style="fill:#262626;" transform="translate(494.961016 449.878635)scale(0.088 -0.088)">
       <use xlink:href="#DejaVuSerif-56"/>
       <use x="63.623047" xlink:href="#DejaVuSerif-48"/>
      </g>
     </g>
    </g>
    <g id="xtick_6">
     <g id="text_18">
      <!-- 100 -->
      <defs>
       <path d="M 14.203125 0 
L 14.203125 5.171875 
L 26.90625 5.171875 
L 26.90625 65.828125 
L 12.203125 56.296875 
L 12.203125 62.703125 
L 29.984375 74.21875 
L 36.71875 74.21875 
L 36.71875 5.171875 
L 49.421875 5.171875 
L 49.421875 0 
z
" id="DejaVuSerif-49"/>
      </defs>
      <g style="fill:#262626;" transform="translate(598.759113 449.878635)scale(0.088 -0.088)">
       <use xlink:href="#DejaVuSerif-49"/>
       <use x="63.623047" xlink:href="#DejaVuSerif-48"/>
       <use x="127.246094" xlink:href="#DejaVuSerif-48"/>
      </g>
     </g>
    </g>
    <g id="text_19">
     <!-- Spectral Band -->
     <g style="fill:#262626;" transform="translate(311.40425 463.00326)scale(0.096 -0.096)">
      <use xlink:href="#DejaVuSerif-83"/>
      <use x="68.505859" xlink:href="#DejaVuSerif-112"/>
      <use x="132.519531" xlink:href="#DejaVuSerif-101"/>
      <use x="191.699219" xlink:href="#DejaVuSerif-99"/>
      <use x="247.705078" xlink:href="#DejaVuSerif-116"/>
      <use x="287.890625" xlink:href="#DejaVuSerif-114"/>
      <use x="335.693359" xlink:href="#DejaVuSerif-97"/>
      <use x="395.3125" xlink:href="#DejaVuSerif-108"/>
      <use x="427.294922" xlink:href="#DejaVuSerif-32"/>
      <use x="459.082031" xlink:href="#DejaVuSerif-66"/>
      <use x="532.568359" xlink:href="#DejaVuSerif-97"/>
      <use x="592.1875" xlink:href="#DejaVuSerif-110"/>
      <use x="656.591797" xlink:href="#DejaVuSerif-100"/>
     </g>
    </g>
   </g>
   <g id="matplotlib.axis_4">
    <g id="ytick_8">
     <g id="text_20">
      <!-- 1000 -->
      <g style="fill:#262626;" transform="translate(16.29124 424.342209)scale(0.088 -0.088)">
       <use xlink:href="#DejaVuSerif-49"/>
       <use x="63.623047" xlink:href="#DejaVuSerif-48"/>
       <use x="127.246094" xlink:href="#DejaVuSerif-48"/>
       <use x="190.869141" xlink:href="#DejaVuSerif-48"/>
      </g>
     </g>
    </g>
    <g id="ytick_9">
     <g id="text_21">
      <!-- 1200 -->
      <g style="fill:#262626;" transform="translate(16.29124 395.344891)scale(0.088 -0.088)">
       <use xlink:href="#DejaVuSerif-49"/>
       <use x="63.623047" xlink:href="#DejaVuSerif-50"/>
       <use x="127.246094" xlink:href="#DejaVuSerif-48"/>
       <use x="190.869141" xlink:href="#DejaVuSerif-48"/>
      </g>
     </g>
    </g>
    <g id="ytick_10">
     <g id="text_22">
      <!-- 1400 -->
      <g style="fill:#262626;" transform="translate(16.29124 366.347572)scale(0.088 -0.088)">
       <use xlink:href="#DejaVuSerif-49"/>
       <use x="63.623047" xlink:href="#DejaVuSerif-52"/>
       <use x="127.246094" xlink:href="#DejaVuSerif-48"/>
       <use x="190.869141" xlink:href="#DejaVuSerif-48"/>
      </g>
     </g>
    </g>
    <g id="ytick_11">
     <g id="text_23">
      <!-- 1600 -->
      <g style="fill:#262626;" transform="translate(16.29124 337.350253)scale(0.088 -0.088)">
       <use xlink:href="#DejaVuSerif-49"/>
       <use x="63.623047" xlink:href="#DejaVuSerif-54"/>
       <use x="127.246094" xlink:href="#DejaVuSerif-48"/>
       <use x="190.869141" xlink:href="#DejaVuSerif-48"/>
      </g>
     </g>
    </g>
    <g id="ytick_12">
     <g id="text_24">
      <!-- 1800 -->
      <g style="fill:#262626;" transform="translate(16.29124 308.352934)scale(0.088 -0.088)">
       <use xlink:href="#DejaVuSerif-49"/>
       <use x="63.623047" xlink:href="#DejaVuSerif-56"/>
       <use x="127.246094" xlink:href="#DejaVuSerif-48"/>
       <use x="190.869141" xlink:href="#DejaVuSerif-48"/>
      </g>
     </g>
    </g>
    <g id="ytick_13">
     <g id="text_25">
      <!-- 2000 -->
      <g style="fill:#262626;" transform="translate(16.29124 279.355615)scale(0.088 -0.088)">
       <use xlink:href="#DejaVuSerif-50"/>
       <use x="63.623047" xlink:href="#DejaVuSerif-48"/>
       <use x="127.246094" xlink:href="#DejaVuSerif-48"/>
       <use x="190.869141" xlink:href="#DejaVuSerif-48"/>
      </g>
     </g>
    </g>
    <g id="ytick_14">
     <g id="text_26">
      <!-- 2200 -->
      <g style="fill:#262626;" transform="translate(16.29124 250.358296)scale(0.088 -0.088)">
       <use xlink:href="#DejaVuSerif-50"/>
       <use x="63.623047" xlink:href="#DejaVuSerif-50"/>
       <use x="127.246094" xlink:href="#DejaVuSerif-48"/>
       <use x="190.869141" xlink:href="#DejaVuSerif-48"/>
      </g>
     </g>
    </g>
    <g id="text_27">
     <!-- Intensity -->
     <g style="fill:#262626;" transform="translate(10.15824 361.481671)rotate(-90)scale(0.096 -0.096)">
      <use xlink:href="#DejaVuSerif-73"/>
      <use x="39.501953" xlink:href="#DejaVuSerif-110"/>
      <use x="103.90625" xlink:href="#DejaVuSerif-116"/>
      <use x="144.091797" xlink:href="#DejaVuSerif-101"/>
      <use x="203.271484" xlink:href="#DejaVuSerif-110"/>
      <use x="267.675781" xlink:href="#DejaVuSerif-115"/>
      <use x="318.994141" xlink:href="#DejaVuSerif-105"/>
      <use x="350.976562" xlink:href="#DejaVuSerif-116"/>
      <use x="391.162109" xlink:href="#DejaVuSerif-121"/>
     </g>
    </g>
   </g>
   <g id="line2d_13">
    <path clip-path="url(#pd455da3e32)" d="M 74.169627 348.267146 
L 79.499507 354.596694 
L 84.829387 356.952311 
L 90.159267 351.019882 
L 95.489147 345.318033 
L 100.819027 343.992213 
L 106.148906 342.701684 
L 111.478786 342.901813 
L 116.808666 342.248942 
L 122.138546 339.35091 
L 127.468426 335.510144 
L 132.798306 335.628729 
L 138.128186 334.271967 
L 143.458065 331.92913 
L 148.787945 328.824431 
L 154.117825 326.520125 
L 159.447705 323.934609 
L 164.777585 321.544716 
L 170.107465 319.095079 
L 175.437345 316.388892 
L 180.767224 314.267829 
L 186.097104 311.591629 
L 191.426984 308.591127 
L 196.756864 306.382691 
L 202.086744 303.220623 
L 207.416624 298.394746 
L 212.746504 296.306622 
L 218.076383 295.658249 
L 223.406263 294.386336 
L 228.736143 291.222733 
L 234.066023 288.006047 
L 239.395903 286.255051 
L 244.725783 284.659506 
L 250.055663 281.475056 
L 255.385542 278.709055 
L 260.715422 276.306098 
L 266.045302 274.264532 
L 271.375182 272.419755 
L 276.705062 271.831464 
L 282.034942 272.087978 
L 287.364822 271.338126 
L 292.694701 270.620711 
L 298.024581 270.090372 
L 303.354461 269.431918 
L 308.684341 268.558638 
L 314.014221 267.97894 
L 319.344101 267.950695 
L 324.673981 268.471791 
L 330.00386 268.474319 
L 335.33374 269.816463 
L 340.66362 268.784708 
L 345.9935 267.164868 
L 351.32338 266.797338 
L 356.65326 266.478975 
L 361.98314 267.486082 
L 367.313019 268.098581 
L 372.642899 267.208536 
L 377.972779 265.205839 
L 383.302659 264.567764 
L 388.632539 265.709767 
L 393.962419 265.863144 
L 399.292299 265.419382 
L 404.622178 265.641497 
L 409.952058 267.00521 
L 415.281938 268.739147 
L 420.611818 267.433126 
L 425.941698 264.80036 
L 431.271578 264.235489 
L 436.601458 262.299841 
L 441.931337 261.167413 
L 447.261217 262.482068 
L 452.591097 265.690071 
L 457.920977 266.764695 
L 463.250857 264.662055 
L 468.580737 262.188216 
L 473.910617 258.487403 
L 479.240496 256.652496 
L 484.570376 255.703156 
L 489.900256 255.755407 
L 495.230136 256.044106 
L 500.560016 256.036956 
L 505.889896 259.404561 
L 511.219776 265.914976 
L 516.549655 264.373993 
L 521.879535 253.874367 
L 527.209415 253.721976 
L 532.539295 256.600478 
L 537.869175 258.870659 
L 543.199055 260.288096 
L 548.528935 260.595227 
L 553.858814 259.30812 
L 559.188694 259.925872 
L 564.518574 261.531021 
L 569.848454 261.730677 
L 575.178334 262.7701 
L 580.508214 266.574194 
L 585.838094 268.663828 
L 591.167973 266.94706 
L 596.497853 266.717421 
L 601.827733 268.260782 
L 607.157613 269.303127 
L 612.487493 267.248876 
L 617.817373 265.820908 
" style="fill:none;stroke:#c8102e;stroke-linecap:round;stroke-width:1.2;"/>
   </g>
   <g id="line2d_14">
    <path clip-path="url(#pd455da3e32)" d="M 74.169627 387.266006 
L 79.499507 388.564309 
L 84.829387 387.575786 
L 90.159267 379.994625 
L 95.489147 373.257985 
L 100.819027 370.994352 
L 106.148906 369.538697 
L 111.478786 369.781497 
L 116.808666 369.012186 
L 122.138546 365.974634 
L 127.468426 362.299527 
L 132.798306 362.210298 
L 138.128186 360.765473 
L 143.458065 358.521803 
L 148.787945 355.672277 
L 154.117825 353.483105 
L 159.447705 350.900163 
L 164.777585 348.478115 
L 170.107465 346.0641 
L 175.437345 343.394173 
L 180.767224 341.125381 
L 186.097104 338.403436 
L 191.426984 335.415027 
L 196.756864 332.900128 
L 202.086744 329.552127 
L 207.416624 324.923266 
L 212.746504 322.862819 
L 218.076383 322.07378 
L 223.406263 320.809931 
L 228.736143 317.868499 
L 234.066023 314.749161 
L 239.395903 312.942893 
L 244.725783 311.370918 
L 250.055663 308.388219 
L 255.385542 305.770388 
L 260.715422 303.414178 
L 266.045302 301.447409 
L 271.375182 299.755649 
L 276.705062 299.023156 
L 282.034942 298.856 
L 287.364822 298.039043 
L 292.694701 297.404834 
L 298.024581 296.780746 
L 303.354461 296.002379 
L 308.684341 294.975974 
L 314.014221 294.159844 
L 319.344101 293.951381 
L 324.673981 294.30105 
L 330.00386 294.102786 
L 335.33374 295.114739 
L 340.66362 294.080735 
L 345.9935 292.472967 
L 351.32338 291.996031 
L 356.65326 291.505589 
L 361.98314 292.251234 
L 367.313019 292.738054 
L 372.642899 291.871599 
L 377.972779 290.103763 
L 383.302659 289.454749 
L 388.632539 290.301909 
L 393.962419 290.198938 
L 399.292299 289.53307 
L 404.622178 289.528739 
L 409.952058 290.514349 
L 415.281938 291.758666 
L 420.611818 290.547898 
L 425.941698 288.056664 
L 431.271578 287.052744 
L 436.601458 284.867589 
L 441.931337 283.489941 
L 447.261217 284.093474 
L 452.591097 286.318322 
L 457.920977 286.987496 
L 463.250857 285.122674 
L 468.580737 282.972644 
L 473.910617 279.652994 
L 479.240496 277.889017 
L 484.570376 276.77992 
L 489.900256 276.62887 
L 495.230136 276.696205 
L 500.560016 276.456949 
L 505.889896 279.243196 
L 511.219776 284.825928 
L 516.549655 283.369762 
L 521.879535 275.18365 
L 527.209415 275.176169 
L 532.539295 277.475202 
L 537.869175 279.492808 
L 543.199055 280.718657 
L 548.528935 280.883608 
L 553.858814 279.696073 
L 559.188694 280.360719 
L 564.518574 281.899538 
L 569.848454 282.067915 
L 575.178334 282.885187 
L 580.508214 286.11234 
L 585.838094 287.781497 
L 591.167973 286.300759 
L 596.497853 286.247758 
L 601.827733 287.67955 
L 607.157613 288.97238 
L 612.487493 287.479396 
L 617.817373 286.229329 
" style="fill:none;stroke:#00b388;stroke-linecap:round;stroke-width:1.2;"/>
   </g>
   <g id="line2d_15">
    <path clip-path="url(#pd455da3e32)" d="M 74.169627 426.264866 
L 79.499507 422.531924 
L 84.829387 418.19926 
L 90.159267 408.969368 
L 95.489147 401.197938 
L 100.819027 397.99649 
L 106.148906 396.37571 
L 111.478786 396.66118 
L 116.808666 395.775429 
L 122.138546 392.598357 
L 127.468426 389.088909 
L 132.798306 388.791867 
L 138.128186 387.258978 
L 143.458065 385.114476 
L 148.787945 382.520123 
L 154.117825 380.446086 
L 159.447705 377.865716 
L 164.777585 375.411513 
L 170.107465 373.03312 
L 175.437345 370.399453 
L 180.767224 367.982932 
L 186.097104 365.215244 
L 191.426984 362.238927 
L 196.756864 359.417565 
L 202.086744 355.883631 
L 207.416624 351.451786 
L 212.746504 349.419015 
L 218.076383 348.48931 
L 223.406263 347.233526 
L 228.736143 344.514266 
L 234.066023 341.492275 
L 239.395903 339.630735 
L 244.725783 338.082331 
L 250.055663 335.301382 
L 255.385542 332.83172 
L 260.715422 330.522258 
L 266.045302 328.630285 
L 271.375182 327.091543 
L 276.705062 326.214848 
L 282.034942 325.624021 
L 287.364822 324.739959 
L 292.694701 324.188958 
L 298.024581 323.471121 
L 303.354461 322.572839 
L 308.684341 321.39331 
L 314.014221 320.340747 
L 319.344101 319.952068 
L 324.673981 320.13031 
L 330.00386 319.731254 
L 335.33374 320.413015 
L 340.66362 319.376763 
L 345.9935 317.781066 
L 351.32338 317.194725 
L 356.65326 316.532203 
L 361.98314 317.016387 
L 367.313019 317.377527 
L 372.642899 316.534663 
L 377.972779 315.001688 
L 383.302659 314.341735 
L 388.632539 314.894051 
L 393.962419 314.534731 
L 399.292299 313.646759 
L 404.622178 313.415981 
L 409.952058 314.023487 
L 415.281938 314.778185 
L 420.611818 313.66267 
L 425.941698 311.312968 
L 431.271578 309.869999 
L 436.601458 307.435338 
L 441.931337 305.812469 
L 447.261217 305.70488 
L 452.591097 306.946572 
L 457.920977 307.210297 
L 463.250857 305.583294 
L 468.580737 303.757071 
L 473.910617 300.818585 
L 479.240496 299.125537 
L 484.570376 297.856685 
L 489.900256 297.502332 
L 495.230136 297.348303 
L 500.560016 296.876942 
L 505.889896 299.081832 
L 511.219776 303.73688 
L 516.549655 302.365531 
L 521.879535 296.492934 
L 527.209415 296.630361 
L 532.539295 298.349927 
L 537.869175 300.114957 
L 543.199055 301.149219 
L 548.528935 301.171989 
L 553.858814 300.084025 
L 559.188694 300.795567 
L 564.518574 302.268055 
L 569.848454 302.405153 
L 575.178334 303.000274 
L 580.508214 305.650486 
L 585.838094 306.899166 
L 591.167973 305.654458 
L 596.497853 305.778094 
L 601.827733 307.098317 
L 607.157613 308.641632 
L 612.487493 307.709915 
L 617.817373 306.63775 
" style="fill:none;stroke:#f6be00;stroke-linecap:round;stroke-width:1.2;"/>
   </g>
   <g id="patch_8">
    <path d="M 46.98724 434.89201 
L 46.98724 245.094832 
" style="fill:none;stroke:#262626;stroke-linecap:square;stroke-linejoin:miter;"/>
   </g>
   <g id="patch_9">
    <path d="M 644.99976 434.89201 
L 644.99976 245.094832 
" style="fill:none;stroke:#262626;stroke-linecap:square;stroke-linejoin:miter;"/>
   </g>
   <g id="patch_10">
    <path d="M 46.98724 434.89201 
L 644.99976 434.89201 
" style="fill:none;stroke:#262626;stroke-linecap:square;stroke-linejoin:miter;"/>
   </g>
   <g id="patch_11">
    <path d="M 46.98724 245.094832 
L 644.99976 245.094832 
" style="fill:none;stroke:#262626;stroke-linecap:square;stroke-linejoin:miter;"/>
   </g>
  </g>
 </g>
 <defs>
  <clipPath id="p51d53d7dbb">
   <rect height="189.797178" width="598.01252" x="46.98724" y="16.29474"/>
  </clipPath>
  <clipPath id="pd455da3e32">
   <rect height="189.797178" width="598.01252" x="46.98724" y="245.094832"/>
  </clipPath>
 </defs>
</svg>
