<?xml version="1.0" encoding="utf-8" standalone="no"?>
<!DOCTYPE svg PUBLIC "-//W3C//DTD SVG 1.1//EN"
  "http://www.w3.org/Graphics/SVG/1.1/DTD/svg11.dtd">
<!-- Created with matplotlib (https://matplotlib.org/) -->
<svg height="468pt" version="1.1" viewBox="0 0 648 468" width="648pt" xmlns="http://www.w3.org/2000/svg" xmlns:xlink="http://www.w3.org/1999/xlink">
 <defs>
  <style type="text/css">
*{stroke-linecap:butt;stroke-linejoin:round;}
  </style>
 </defs>
 <g id="figure_1">
  <g id="patch_1">
   <path d="M 0 468 
L 648 468 
L 648 0 
L 0 0 
z
" style="fill:#ffffff;"/>
  </g>
  <g id="axes_1">
   <g id="patch_2">
    <path d="M 44.18499 208.631112 
L 644.99976 208.631112 
L 644.99976 16.29474 
L 44.18499 16.29474 
z
" style="fill:#ffffff;"/>
   </g>
   <g id="matplotlib.axis_1"/>
   <g id="matplotlib.axis_2">
    <g id="ytick_1">
     <g id="text_1">
      <!-- 0.55 -->
      <defs>
       <path d="M 31.78125 3.421875 
Q 39.265625 3.421875 42.96875 11.625 
Q 46.6875 19.828125 46.6875 36.375 
Q 46.6875 52.984375 42.96875 61.1875 
Q 39.265625 69.390625 31.78125 69.390625 
Q 24.3125 69.390625 20.59375 61.1875 
Q 16.890625 52.984375 16.890625 36.375 
Q 16.890625 19.828125 20.59375 11.625 
Q 24.3125 3.421875 31.78125 3.421875 
z
M 31.78125 -1.421875 
Q 19.921875 -1.421875 13.25 8.53125 
Q 6.59375 18.5 6.59375 36.375 
Q 6.59375 54.296875 13.25 64.25 
Q 19.921875 74.21875 31.78125 74.21875 
Q 43.703125 74.21875 50.34375 64.25 
Q 56.984375 54.296875 56.984375 36.375 
Q 56.984375 18.5 50.34375 8.53125 
Q 43.703125 -1.421875 31.78125 -1.421875 
z
" id="DejaVuSerif-48"/>
       <path d="M 9.421875 5.078125 
Q 9.421875 7.8125 11.28125 9.71875 
Q 13.140625 11.625 15.921875 11.625 
Q 18.609375 11.625 20.5 9.71875 
Q 22.40625 7.8125 22.40625 5.078125 
Q 22.40625 2.390625 20.5 0.484375 
Q 18.609375 -1.421875 15.921875 -1.421875 
Q 13.140625 -1.421875 11.28125 0.453125 
Q 9.421875 2.34375 9.421875 5.078125 
z
" id="DejaVuSerif-46"/>
       <path d="M 50.296875 72.90625 
L 50.296875 64.890625 
L 16.890625 64.890625 
L 16.890625 44 
Q 19.4375 45.75 22.828125 46.625 
Q 26.21875 47.515625 30.421875 47.515625 
Q 42.234375 47.515625 49.0625 40.96875 
Q 55.90625 34.421875 55.90625 23.09375 
Q 55.90625 11.53125 49 5.046875 
Q 42.09375 -1.421875 29.59375 -1.421875 
Q 24.5625 -1.421875 19.28125 -0.1875 
Q 14.015625 1.03125 8.5 3.515625 
L 8.5 17.671875 
L 14.015625 17.671875 
Q 14.453125 10.75 18.421875 7.078125 
Q 22.40625 3.421875 29.59375 3.421875 
Q 37.3125 3.421875 41.453125 8.5 
Q 45.609375 13.578125 45.609375 23.09375 
Q 45.609375 32.5625 41.484375 37.609375 
Q 37.359375 42.671875 29.59375 42.671875 
Q 25.203125 42.671875 21.84375 41.109375 
Q 18.5 39.546875 15.921875 36.28125 
L 11.71875 36.28125 
L 11.71875 72.90625 
z
" id="DejaVuSerif-53"/>
      </defs>
      <g style="fill:#262626;" transform="translate(16.29124 186.594517)scale(0.088 -0.088)">
       <use xlink:href="#DejaVuSerif-48"/>
       <use x="63.623047" xlink:href="#DejaVuSerif-46"/>
       <use x="95.410156" xlink:href="#DejaVuSerif-53"/>
       <use x="159.033203" xlink:href="#DejaVuSerif-53"/>
      </g>
     </g>
    </g>
    <g id="ytick_2">
     <g id="text_2">
      <!-- 0.60 -->
      <defs>
       <path d="M 32.71875 3.421875 
Q 39.59375 3.421875 43.296875 8.46875 
Q 47.015625 13.53125 47.015625 23 
Q 47.015625 32.46875 43.296875 37.515625 
Q 39.59375 42.578125 32.71875 42.578125 
Q 25.734375 42.578125 22.0625 37.6875 
Q 18.40625 32.8125 18.40625 23.578125 
Q 18.40625 13.875 22.109375 8.640625 
Q 25.828125 3.421875 32.71875 3.421875 
z
M 16.796875 40.140625 
Q 20.125 43.796875 24.3125 45.59375 
Q 28.515625 47.40625 33.796875 47.40625 
Q 44.671875 47.40625 51 40.859375 
Q 57.328125 34.328125 57.328125 23 
Q 57.328125 11.921875 50.515625 5.25 
Q 43.703125 -1.421875 32.328125 -1.421875 
Q 19.96875 -1.421875 13.328125 7.78125 
Q 6.6875 17 6.6875 34.078125 
Q 6.6875 53.21875 14.546875 63.71875 
Q 22.40625 74.21875 36.71875 74.21875 
Q 40.578125 74.21875 44.828125 73.484375 
Q 49.078125 72.75 53.515625 71.296875 
L 53.515625 59.28125 
L 48 59.28125 
Q 47.40625 64.203125 44.234375 66.796875 
Q 41.0625 69.390625 35.6875 69.390625 
Q 26.21875 69.390625 21.578125 62.203125 
Q 16.9375 55.03125 16.796875 40.140625 
z
" id="DejaVuSerif-54"/>
      </defs>
      <g style="fill:#262626;" transform="translate(16.29124 160.699371)scale(0.088 -0.088)">
       <use xlink:href="#DejaVuSerif-48"/>
       <use x="63.623047" xlink:href="#DejaVuSerif-46"/>
       <use x="95.410156" xlink:href="#DejaVuSerif-54"/>
       <use x="159.033203" xlink:href="#DejaVuSerif-48"/>
      </g>
     </g>
    </g>
    <g id="ytick_3">
     <g id="text_3">
      <!-- 0.65 -->
      <g style="fill:#262626;" transform="translate(16.29124 134.804224)scale(0.088 -0.088)">
       <use xlink:href="#DejaVuSerif-48"/>
       <use x="63.623047" xlink:href="#DejaVuSerif-46"/>
       <use x="95.410156" xlink:href="#DejaVuSerif-54"/>
       <use x="159.033203" xlink:href="#DejaVuSerif-53"/>
      </g>
     </g>
    </g>
    <g id="ytick_4">
     <g id="text_4">
      <!-- 0.70 -->
      <defs>
       <path d="M 56.390625 67.921875 
L 27.875 0 
L 20.609375 0 
L 47.796875 64.890625 
L 14.109375 64.890625 
L 14.109375 55.90625 
L 8.40625 55.90625 
L 8.40625 72.90625 
L 56.390625 72.90625 
z
" id="DejaVuSerif-55"/>
      </defs>
      <g style="fill:#262626;" transform="translate(16.29124 108.909078)scale(0.088 -0.088)">
       <use xlink:href="#DejaVuSerif-48"/>
       <use x="63.623047" xlink:href="#DejaVuSerif-46"/>
       <use x="95.410156" xlink:href="#DejaVuSerif-55"/>
       <use x="159.033203" xlink:href="#DejaVuSerif-48"/>
      </g>
     </g>
    </g>
    <g id="ytick_5">
     <g id="text_5">
      <!-- 0.75 -->
      <g style="fill:#262626;" transform="translate(16.29124 83.013932)scale(0.088 -0.088)">
       <use xlink:href="#DejaVuSerif-48"/>
       <use x="63.623047" xlink:href="#DejaVuSerif-46"/>
       <use x="95.410156" xlink:href="#DejaVuSerif-55"/>
       <use x="159.033203" xlink:href="#DejaVuSerif-53"/>
      </g>
     </g>
    </g>
    <g id="ytick_6">
     <g id="text_6">
      <!-- 0.80 -->
      <defs>
       <path d="M 46.578125 19.921875 
Q 46.578125 27.734375 42.6875 32.046875 
Q 38.8125 36.375 31.78125 36.375 
Q 24.75 36.375 20.875 32.046875 
Q 17 27.734375 17 19.921875 
Q 17 12.0625 20.875 7.734375 
Q 24.75 3.421875 31.78125 3.421875 
Q 38.8125 3.421875 42.6875 7.734375 
Q 46.578125 12.0625 46.578125 19.921875 
z
M 44.578125 55.328125 
Q 44.578125 61.96875 41.203125 65.671875 
Q 37.84375 69.390625 31.78125 69.390625 
Q 25.78125 69.390625 22.390625 65.671875 
Q 19 61.96875 19 55.328125 
Q 19 48.640625 22.390625 44.921875 
Q 25.78125 41.21875 31.78125 41.21875 
Q 37.84375 41.21875 41.203125 44.921875 
Q 44.578125 48.640625 44.578125 55.328125 
z
M 39.3125 38.8125 
Q 47.609375 37.703125 52.25 32.6875 
Q 56.890625 27.6875 56.890625 19.921875 
Q 56.890625 9.671875 50.390625 4.125 
Q 43.890625 -1.421875 31.78125 -1.421875 
Q 19.734375 -1.421875 13.203125 4.125 
Q 6.6875 9.671875 6.6875 19.921875 
Q 6.6875 27.6875 11.328125 32.6875 
Q 15.96875 37.703125 24.3125 38.8125 
Q 16.9375 40.140625 13 44.40625 
Q 9.078125 48.6875 9.078125 55.328125 
Q 9.078125 64.109375 15.125 69.15625 
Q 21.1875 74.21875 31.78125 74.21875 
Q 42.390625 74.21875 48.4375 69.15625 
Q 54.5 64.109375 54.5 55.328125 
Q 54.5 48.6875 50.5625 44.40625 
Q 46.625 40.140625 39.3125 38.8125 
z
" id="DejaVuSerif-56"/>
      </defs>
      <g style="fill:#262626;" transform="translate(16.29124 57.118785)scale(0.088 -0.088)">
       <use xlink:href="#DejaVuSerif-48"/>
       <use x="63.623047" xlink:href="#DejaVuSerif-46"/>
       <use x="95.410156" xlink:href="#DejaVuSerif-56"/>
       <use x="159.033203" xlink:href="#DejaVuSerif-48"/>
      </g>
     </g>
    </g>
    <g id="ytick_7">
     <g id="text_7">
      <!-- 0.85 -->
      <g style="fill:#262626;" transform="translate(16.29124 31.223639)scale(0.088 -0.088)">
       <use xlink:href="#DejaVuSerif-48"/>
       <use x="63.623047" xlink:href="#DejaVuSerif-46"/>
       <use x="95.410156" xlink:href="#DejaVuSerif-56"/>
       <use x="159.033203" xlink:href="#DejaVuSerif-53"/>
      </g>
     </g>
    </g>
    <g id="text_8">
     <!-- Accuracy -->
     <defs>
      <path d="M 20.015625 26.421875 
L 46.78125 26.421875 
L 33.40625 61.078125 
z
M -0.59375 0 
L -0.59375 5.171875 
L 5.8125 5.171875 
L 31.78125 72.90625 
L 39.984375 72.90625 
L 66.015625 5.171875 
L 73.1875 5.171875 
L 73.1875 0 
L 46.6875 0 
L 46.6875 5.171875 
L 54.78125 5.171875 
L 48.6875 21.1875 
L 18.015625 21.1875 
L 11.921875 5.171875 
L 19.921875 5.171875 
L 19.921875 0 
z
" id="DejaVuSerif-65"/>
      <path d="M 51.421875 15.578125 
Q 49.515625 7.28125 44.09375 2.921875 
Q 38.671875 -1.421875 30.078125 -1.421875 
Q 18.75 -1.421875 11.859375 6.078125 
Q 4.984375 13.578125 4.984375 25.984375 
Q 4.984375 38.421875 11.859375 45.875 
Q 18.75 53.328125 30.078125 53.328125 
Q 35.015625 53.328125 39.890625 52.171875 
Q 44.78125 51.03125 49.703125 48.6875 
L 49.703125 35.40625 
L 44.484375 35.40625 
Q 43.453125 42.234375 40.015625 45.359375 
Q 36.578125 48.484375 30.171875 48.484375 
Q 22.90625 48.484375 19.1875 42.84375 
Q 15.484375 37.203125 15.484375 25.984375 
Q 15.484375 14.75 19.171875 9.078125 
Q 22.859375 3.421875 30.171875 3.421875 
Q 35.984375 3.421875 39.453125 6.4375 
Q 42.921875 9.46875 44.1875 15.578125 
z
" id="DejaVuSerif-99"/>
      <path d="M 35.40625 51.90625 
L 52.203125 51.90625 
L 52.203125 5.171875 
L 60.6875 5.171875 
L 60.6875 0 
L 43.21875 0 
L 43.21875 9.1875 
Q 40.71875 4 36.765625 1.28125 
Q 32.8125 -1.421875 27.59375 -1.421875 
Q 18.953125 -1.421875 14.875 3.484375 
Q 10.796875 8.40625 10.796875 18.890625 
L 10.796875 46.6875 
L 2.6875 46.6875 
L 2.6875 51.90625 
L 19.828125 51.90625 
L 19.828125 21.6875 
Q 19.828125 12.203125 22.140625 8.6875 
Q 24.46875 5.171875 30.421875 5.171875 
Q 36.671875 5.171875 39.9375 9.765625 
Q 43.21875 14.359375 43.21875 23.09375 
L 43.21875 46.6875 
L 35.40625 46.6875 
z
" id="DejaVuSerif-117"/>
      <path d="M 47.796875 52 
L 47.796875 39.015625 
L 42.625 39.015625 
Q 42.390625 42.875 40.484375 44.78125 
Q 38.578125 46.6875 34.90625 46.6875 
Q 28.265625 46.6875 24.71875 42.09375 
Q 21.1875 37.5 21.1875 28.90625 
L 21.1875 5.171875 
L 31.59375 5.171875 
L 31.59375 0 
L 4.109375 0 
L 4.109375 5.171875 
L 12.203125 5.171875 
L 12.203125 46.78125 
L 3.609375 46.78125 
L 3.609375 51.90625 
L 21.1875 51.90625 
L 21.1875 42.671875 
Q 23.828125 48.09375 27.96875 50.703125 
Q 32.125 53.328125 38.09375 53.328125 
Q 40.28125 53.328125 42.703125 52.984375 
Q 45.125 52.640625 47.796875 52 
z
" id="DejaVuSerif-114"/>
      <path d="M 39.796875 16.3125 
L 39.796875 27.296875 
L 28.21875 27.296875 
Q 21.53125 27.296875 18.25 24.40625 
Q 14.984375 21.53125 14.984375 15.578125 
Q 14.984375 10.15625 18.296875 6.984375 
Q 21.625 3.8125 27.296875 3.8125 
Q 32.90625 3.8125 36.34375 7.28125 
Q 39.796875 10.75 39.796875 16.3125 
z
M 48.78125 32.421875 
L 48.78125 5.171875 
L 56.78125 5.171875 
L 56.78125 0 
L 39.796875 0 
L 39.796875 5.609375 
Q 36.8125 2 32.90625 0.28125 
Q 29 -1.421875 23.78125 -1.421875 
Q 15.140625 -1.421875 10.0625 3.171875 
Q 4.984375 7.765625 4.984375 15.578125 
Q 4.984375 23.640625 10.796875 28.078125 
Q 16.609375 32.515625 27.203125 32.515625 
L 39.796875 32.515625 
L 39.796875 36.078125 
Q 39.796875 42 36.203125 45.234375 
Q 32.625 48.484375 26.125 48.484375 
Q 20.75 48.484375 17.578125 46.046875 
Q 14.40625 43.609375 13.625 38.8125 
L 8.984375 38.8125 
L 8.984375 49.3125 
Q 13.671875 51.3125 18.09375 52.3125 
Q 22.515625 53.328125 26.703125 53.328125 
Q 37.5 53.328125 43.140625 47.96875 
Q 48.78125 42.625 48.78125 32.421875 
z
" id="DejaVuSerif-97"/>
      <path d="M 21.578125 -9.515625 
L 25 -0.875 
L 5.609375 46.6875 
L -0.296875 46.6875 
L -0.296875 51.90625 
L 23.578125 51.90625 
L 23.578125 46.6875 
L 15.28125 46.6875 
L 29.890625 10.984375 
L 44.484375 46.6875 
L 36.71875 46.6875 
L 36.71875 51.90625 
L 56.203125 51.90625 
L 56.203125 46.6875 
L 50.390625 46.6875 
L 26.609375 -11.71875 
Q 24.171875 -17.78125 21.1875 -20 
Q 18.21875 -22.21875 12.796875 -22.21875 
Q 10.5 -22.21875 8.078125 -21.828125 
Q 5.671875 -21.4375 3.21875 -20.703125 
L 3.21875 -10.796875 
L 7.8125 -10.796875 
Q 8.109375 -14.109375 9.5 -15.546875 
Q 10.890625 -17 13.8125 -17 
Q 16.5 -17 18.140625 -15.5 
Q 19.78125 -14.015625 21.578125 -9.515625 
z
" id="DejaVuSerif-121"/>
     </defs>
     <g style="fill:#262626;" transform="translate(10.15824 134.953176)rotate(-90)scale(0.096 -0.096)">
      <use xlink:href="#DejaVuSerif-65"/>
      <use x="72.216797" xlink:href="#DejaVuSerif-99"/>
      <use x="128.222656" xlink:href="#DejaVuSerif-99"/>
      <use x="184.228516" xlink:href="#DejaVuSerif-117"/>
      <use x="248.632812" xlink:href="#DejaVuSerif-114"/>
      <use x="296.435547" xlink:href="#DejaVuSerif-97"/>
      <use x="356.054688" xlink:href="#DejaVuSerif-99"/>
      <use x="412.060547" xlink:href="#DejaVuSerif-121"/>
     </g>
    </g>
   </g>
   <g id="line2d_1">
    <path clip-path="url(#p8213a4fd80)" d="M 71.494752 199.88855 
L 74.239452 170.780879 
L 76.984152 156.904457 
L 79.728851 147.05137 
L 82.473551 138.799419 
L 85.218251 131.204307 
L 87.962951 125.087192 
L 90.70765 118.600569 
L 93.45235 116.588902 
L 101.686449 107.269517 
L 104.431149 103.615689 
L 107.175849 102.260861 
L 109.920548 102.219835 
L 112.665248 100.495531 
L 115.409948 98.032244 
L 118.154648 94.419472 
L 120.899347 91.422484 
L 123.644047 94.830005 
L 126.388747 91.299315 
L 129.133447 90.396107 
L 131.878146 90.231912 
L 134.622846 88.466552 
L 137.367546 86.988586 
L 140.112245 87.768625 
L 142.856945 81.774679 
L 145.601645 82.103099 
L 148.346345 83.211558 
L 151.091044 81.240947 
L 153.835744 78.613465 
L 156.580444 77.46395 
L 159.325144 80.173544 
L 162.069843 78.038707 
L 164.814543 77.628144 
L 167.559243 77.053386 
L 170.303942 77.01233 
L 173.048642 75.862814 
L 175.793342 77.094443 
L 178.538042 71.552085 
L 181.282741 75.329113 
L 184.027441 76.273347 
L 186.772141 73.194277 
L 189.51684 72.250012 
L 192.26154 67.692945 
L 195.00624 71.428916 
L 200.495639 70.813102 
L 203.240339 71.469973 
L 205.985039 69.088798 
L 208.729739 67.323469 
L 211.474438 66.215009 
L 214.219138 65.845503 
L 216.963838 66.789767 
L 219.708537 66.666598 
L 222.453237 67.85717 
L 225.197937 67.52875 
L 227.942637 65.476026 
L 230.687336 65.43497 
L 233.432036 63.218021 
L 236.176736 63.135908 
L 238.921436 62.109531 
L 241.666135 62.807458 
L 244.410835 62.520094 
L 247.155535 62.109531 
L 249.900234 63.505384 
L 252.644934 59.8105 
L 255.389634 63.259077 
L 258.134334 61.90428 
L 260.879033 60.344201 
L 263.623733 55.540827 
L 266.368433 58.37359 
L 269.113133 55.212376 
L 271.857832 59.440993 
L 274.602532 58.37359 
L 280.091931 55.417658 
L 282.836631 58.250421 
L 285.581331 57.880914 
L 288.326031 57.388269 
L 291.07073 55.294489 
L 293.81543 52.543839 
L 296.56013 54.103917 
L 299.30483 54.678675 
L 302.049529 54.103917 
L 304.794229 54.144974 
L 307.538929 52.790177 
L 310.283628 52.09225 
L 313.028328 50.532171 
L 315.773028 53.447047 
L 318.517728 53.364934 
L 321.262427 52.051194 
L 324.007127 50.491115 
L 326.751827 53.200709 
L 329.496527 52.133306 
L 332.241226 50.20372 
L 334.985926 49.670019 
L 337.730626 49.793188 
L 340.475325 48.972092 
L 343.220025 49.136318 
L 345.964725 54.144974 
L 348.709425 49.711075 
L 351.454124 51.763799 
L 354.198824 49.177374 
L 356.943524 45.769853 
L 359.688223 47.083594 
L 362.432923 46.590918 
L 367.922323 46.098273 
L 370.667022 45.68774 
L 373.411722 45.523515 
L 376.156422 44.57925 
L 378.901122 45.482459 
L 381.645821 45.646684 
L 384.390521 44.743476 
L 387.135221 45.523515 
L 389.87992 43.881324 
L 392.62462 42.854977 
L 395.36932 44.250831 
L 398.11402 44.538194 
L 400.858719 41.992825 
L 403.603419 41.089617 
L 406.348119 42.772865 
L 409.092819 42.48547 
L 411.837518 42.608639 
L 414.582218 41.705431 
L 417.326918 41.541236 
L 422.816317 42.280189 
L 425.561017 40.350634 
L 428.305717 42.362301 
L 431.050416 41.8286 
L 433.795116 39.816932 
L 436.539816 40.966448 
L 439.284516 39.365344 
L 442.029215 40.473803 
L 444.773915 37.599983 
L 447.518615 38.215797 
L 450.263314 38.708473 
L 453.008014 38.256854 
L 455.752714 38.667417 
L 458.497414 37.353645 
L 461.242113 37.435758 
L 463.986813 37.066282 
L 466.731513 37.435758 
L 469.476213 40.022214 
L 472.220912 36.53258 
L 474.965612 36.080961 
L 477.710312 33.33031 
L 480.455011 36.327299 
L 483.199711 35.300921 
L 485.944411 32.221851 
L 488.689111 36.450468 
L 491.43381 35.793597 
L 494.17851 32.098682 
L 496.92321 32.878722 
L 499.66791 34.274575 
L 502.412609 32.837665 
L 505.157309 32.468158 
L 507.902009 32.262908 
L 510.646708 30.784941 
L 513.391408 32.755553 
L 516.136108 32.509215 
L 518.880808 34.644051 
L 521.625507 29.840677 
L 524.370207 31.523924 
L 527.114907 34.76722 
L 529.859606 29.060637 
L 532.604306 30.702829 
L 535.349006 28.650105 
L 538.093706 31.852344 
L 540.838405 29.060637 
L 543.583105 31.647093 
L 546.327805 28.609049 
L 549.072505 30.415434 
L 551.817204 28.034291 
L 554.561904 27.993235 
L 557.306604 33.166085 
L 560.051303 31.523924 
L 562.796003 31.195474 
L 565.540703 28.362711 
L 568.285403 28.773274 
L 571.030102 29.389088 
L 573.774802 28.034291 
L 576.519502 29.101694 
L 579.264202 28.321654 
L 582.008901 30.045958 
L 584.753601 29.717508 
L 587.498301 26.761576 
L 592.9877 27.418477 
L 595.7324 27.172139 
L 601.221799 25.858398 
L 603.966499 26.227874 
L 606.711199 26.022623 
L 609.455899 27.090026 
L 614.945298 25.365722 
L 617.689998 25.037302 
L 617.689998 25.037302 
" style="fill:none;stroke:#c8102e;stroke-linecap:round;stroke-width:1.2;"/>
   </g>
   <g id="line2d_2">
    <path clip-path="url(#p8213a4fd80)" d="M 71.494752 164.006893 
L 74.239452 151.197874 
L 76.984152 136.295075 
L 79.728851 124.840854 
L 82.473551 113.879308 
L 85.218251 104.14939 
L 87.962951 106.120001 
L 90.70765 101.316627 
L 93.45235 98.360695 
L 96.19705 98.360695 
L 98.94175 91.340371 
L 101.686449 90.724557 
L 104.431149 92.325692 
L 107.175849 85.059031 
L 109.920548 85.798014 
L 112.665248 82.718913 
L 115.409948 83.08842 
L 120.899347 82.349437 
L 123.644047 81.733623 
L 126.388747 81.610454 
L 129.133447 81.856761 
L 131.878146 80.009318 
L 134.622846 80.009318 
L 140.112245 74.466961 
L 142.856945 74.713299 
L 145.601645 75.57542 
L 148.346345 73.727978 
L 151.091044 81.97993 
L 153.835744 75.57542 
L 156.580444 72.49635 
L 159.325144 76.437572 
L 162.069843 72.250012 
L 164.814543 78.408183 
L 167.559243 71.634198 
L 170.303942 73.604809 
L 173.048642 76.314403 
L 175.793342 72.126843 
L 178.538042 72.003674 
L 181.282741 72.250012 
L 184.027441 71.018384 
L 186.772141 70.648877 
L 189.51684 72.742657 
L 192.26154 72.126843 
L 195.00624 69.29408 
L 197.75094 68.678266 
L 200.495639 73.48164 
L 203.240339 71.38786 
L 205.985039 73.48164 
L 208.729739 70.40257 
L 211.474438 67.077131 
L 214.219138 71.757367 
L 216.963838 69.663587 
L 222.453237 69.663587 
L 225.197937 67.323469 
L 227.942637 73.235333 
L 230.687336 71.634198 
L 233.432036 74.220623 
L 236.176736 69.170911 
L 238.921436 67.323469 
L 241.666135 66.461317 
L 244.410835 70.40257 
L 247.155535 67.077131 
L 249.900234 66.584486 
L 252.644934 69.29408 
L 255.389634 67.323469 
L 258.134334 68.924604 
L 260.879033 67.446638 
L 263.623733 73.358471 
L 266.368433 69.663587 
L 269.113133 69.786756 
L 271.857832 72.003674 
L 274.602532 68.30879 
L 277.347232 69.417249 
L 280.091931 67.569807 
L 282.836631 67.816114 
L 285.581331 68.924604 
L 288.326031 69.909894 
L 291.07073 69.29408 
L 293.81543 66.953993 
L 296.56013 67.077131 
L 299.30483 71.264691 
L 302.049529 69.417249 
L 304.794229 67.077131 
L 307.538929 70.525708 
L 310.283628 65.722334 
L 313.028328 68.431928 
L 318.517728 69.909894 
L 321.262427 65.352857 
L 324.007127 65.106519 
L 326.751827 68.431928 
L 329.496527 64.98335 
L 332.241226 67.816114 
L 334.985926 67.692945 
L 337.730626 65.968671 
L 340.475325 67.692945 
L 343.220025 70.648877 
L 345.964725 70.033063 
L 348.709425 70.279401 
L 351.454124 71.634198 
L 354.198824 69.540418 
L 356.943524 66.338148 
L 359.688223 67.816114 
L 362.432923 72.003674 
L 365.177623 67.077131 
L 367.922323 67.2003 
L 370.667022 71.757367 
L 373.411722 68.678266 
L 376.156422 67.323469 
L 378.901122 65.476026 
L 381.645821 66.215009 
L 384.390521 68.431928 
L 387.135221 69.663587 
L 389.87992 67.2003 
L 392.62462 68.185621 
L 395.36932 72.250012 
L 398.11402 68.431928 
L 400.858719 67.939283 
L 403.603419 67.323469 
L 406.348119 65.229688 
L 411.837518 66.953993 
L 414.582218 70.40257 
L 417.326918 66.707655 
L 420.071617 65.229688 
L 422.816317 68.062452 
L 425.561017 67.2003 
L 428.305717 67.692945 
L 431.050416 68.801435 
L 433.795116 67.569807 
L 436.539816 66.09184 
L 439.284516 71.264691 
L 444.773915 65.599165 
L 447.518615 69.663587 
L 450.263314 68.185621 
L 453.008014 67.816114 
L 455.752714 67.2003 
L 458.497414 64.737043 
L 461.242113 69.417249 
L 463.986813 67.323469 
L 466.731513 69.786756 
L 469.476213 67.323469 
L 472.220912 67.323469 
L 474.965612 66.953993 
L 477.710312 68.678266 
L 480.455011 68.924604 
L 483.199711 68.678266 
L 485.944411 68.185621 
L 488.689111 66.584486 
L 491.43381 69.29408 
L 494.17851 65.599165 
L 496.92321 70.525708 
L 499.66791 66.830824 
L 502.412609 73.727978 
L 505.157309 66.707655 
L 507.902009 68.801435 
L 510.646708 69.417249 
L 513.391408 68.555097 
L 516.136108 68.555097 
L 518.880808 69.540418 
L 521.625507 71.511029 
L 524.370207 64.98335 
L 527.114907 69.047773 
L 529.859606 69.417249 
L 532.604306 69.170911 
L 535.349006 68.062452 
L 538.093706 72.003674 
L 540.838405 70.772046 
L 543.583105 71.018384 
L 546.327805 70.525708 
L 549.072505 68.30879 
L 551.817204 69.047773 
L 554.561904 67.323469 
L 557.306604 69.417249 
L 560.051303 72.988995 
L 562.796003 69.417249 
L 565.540703 70.525708 
L 568.285403 69.417249 
L 571.030102 68.678266 
L 573.774802 65.476026 
L 576.519502 69.786756 
L 579.264202 68.801435 
L 582.008901 67.939283 
L 584.753601 71.018384 
L 590.243 71.264691 
L 592.9877 69.909894 
L 595.7324 70.279401 
L 598.4771 69.047773 
L 601.221799 69.909894 
L 603.966499 74.466961 
L 606.711199 69.29408 
L 609.455899 68.185621 
L 612.200598 68.185621 
L 614.945298 72.126843 
L 617.689998 70.156232 
L 617.689998 70.156232 
" style="fill:none;stroke:#00b388;stroke-linecap:round;stroke-width:1.2;"/>
   </g>
   <g id="line2d_3"/>
   <g id="line2d_4"/>
   <g id="patch_3">
    <path d="M 44.18499 208.631112 
L 44.18499 16.29474 
" style="fill:none;stroke:#262626;stroke-linecap:square;stroke-linejoin:miter;"/>
   </g>
   <g id="patch_4">
    <path d="M 644.99976 208.631112 
L 644.99976 16.29474 
" style="fill:none;stroke:#262626;stroke-linecap:square;stroke-linejoin:miter;"/>
   </g>
   <g id="patch_5">
    <path d="M 44.18499 208.631112 
L 644.99976 208.631112 
" style="fill:none;stroke:#262626;stroke-linecap:square;stroke-linejoin:miter;"/>
   </g>
   <g id="patch_6">
    <path d="M 44.18499 16.29474 
L 644.99976 16.29474 
" style="fill:none;stroke:#262626;stroke-linecap:square;stroke-linejoin:miter;"/>
   </g>
   <g id="text_9">
    <!-- Indian Pines 1D-CNN Training History -->
    <defs>
     <path d="M 24.703125 5.171875 
L 33.984375 5.171875 
L 33.984375 0 
L 5.515625 0 
L 5.515625 5.171875 
L 14.796875 5.171875 
L 14.796875 67.671875 
L 5.515625 67.671875 
L 5.515625 72.90625 
L 33.984375 72.90625 
L 33.984375 67.671875 
L 24.703125 67.671875 
z
" id="DejaVuSerif-73"/>
     <path d="M 4.109375 0 
L 4.109375 5.171875 
L 12.203125 5.171875 
L 12.203125 46.6875 
L 3.609375 46.6875 
L 3.609375 51.90625 
L 21.1875 51.90625 
L 21.1875 42.671875 
Q 23.6875 47.953125 27.65625 50.640625 
Q 31.640625 53.328125 36.921875 53.328125 
Q 45.515625 53.328125 49.5625 48.390625 
Q 53.609375 43.453125 53.609375 33.015625 
L 53.609375 5.171875 
L 61.625 5.171875 
L 61.625 0 
L 36.8125 0 
L 36.8125 5.171875 
L 44.578125 5.171875 
L 44.578125 30.171875 
Q 44.578125 39.703125 42.234375 43.234375 
Q 39.890625 46.78125 33.984375 46.78125 
Q 27.734375 46.78125 24.453125 42.203125 
Q 21.1875 37.640625 21.1875 28.90625 
L 21.1875 5.171875 
L 29 5.171875 
L 29 0 
z
" id="DejaVuSerif-110"/>
     <path d="M 52.484375 5.171875 
L 61.078125 5.171875 
L 61.078125 0 
L 43.5 0 
L 43.5 8.109375 
Q 40.875 3.21875 36.796875 0.890625 
Q 32.71875 -1.421875 26.703125 -1.421875 
Q 17.140625 -1.421875 11.0625 6.171875 
Q 4.984375 13.765625 4.984375 25.984375 
Q 4.984375 38.1875 11.03125 45.75 
Q 17.09375 53.328125 26.703125 53.328125 
Q 32.71875 53.328125 36.796875 51 
Q 40.875 48.6875 43.5 43.796875 
L 43.5 70.796875 
L 35.015625 70.796875 
L 35.015625 75.984375 
L 52.484375 75.984375 
z
M 43.5 23.390625 
L 43.5 28.515625 
Q 43.5 37.84375 39.90625 42.765625 
Q 36.328125 47.703125 29.5 47.703125 
Q 22.5625 47.703125 19.015625 42.234375 
Q 15.484375 36.765625 15.484375 25.984375 
Q 15.484375 15.234375 19.015625 9.71875 
Q 22.5625 4.203125 29.5 4.203125 
Q 36.328125 4.203125 39.90625 9.109375 
Q 43.5 14.015625 43.5 23.390625 
z
" id="DejaVuSerif-100"/>
     <path d="M 9.71875 68.015625 
Q 9.71875 70.265625 11.34375 71.921875 
Q 12.984375 73.578125 15.28125 73.578125 
Q 17.53125 73.578125 19.15625 71.921875 
Q 20.796875 70.265625 20.796875 68.015625 
Q 20.796875 65.71875 19.1875 64.109375 
Q 17.578125 62.5 15.28125 62.5 
Q 12.984375 62.5 11.34375 64.109375 
Q 9.71875 65.71875 9.71875 68.015625 
z
M 21.1875 5.171875 
L 29.6875 5.171875 
L 29.6875 0 
L 3.609375 0 
L 3.609375 5.171875 
L 12.203125 5.171875 
L 12.203125 46.6875 
L 3.609375 46.6875 
L 3.609375 51.90625 
L 21.1875 51.90625 
z
" id="DejaVuSerif-105"/>
     <path id="DejaVuSerif-32"/>
     <path d="M 24.703125 37.109375 
L 37.59375 37.109375 
Q 44.875 37.109375 48.671875 41.03125 
Q 52.484375 44.96875 52.484375 52.390625 
Q 52.484375 59.859375 48.671875 63.765625 
Q 44.875 67.671875 37.59375 67.671875 
L 24.703125 67.671875 
z
M 5.515625 0 
L 5.515625 5.171875 
L 14.796875 5.171875 
L 14.796875 67.671875 
L 5.515625 67.671875 
L 5.515625 72.90625 
L 39.984375 72.90625 
Q 50.921875 72.90625 57.3125 67.359375 
Q 63.71875 61.8125 63.71875 52.390625 
Q 63.71875 43.015625 57.3125 37.453125 
Q 50.921875 31.890625 39.984375 31.890625 
L 24.703125 31.890625 
L 24.703125 5.171875 
L 35.984375 5.171875 
L 35.984375 0 
z
" id="DejaVuSerif-80"/>
     <path d="M 54.203125 25 
L 15.484375 25 
L 15.484375 24.609375 
Q 15.484375 14.109375 19.4375 8.765625 
Q 23.390625 3.421875 31.109375 3.421875 
Q 37.015625 3.421875 40.796875 6.515625 
Q 44.578125 9.625 46.09375 15.71875 
L 53.328125 15.71875 
Q 51.171875 7.171875 45.375 2.875 
Q 39.59375 -1.421875 30.171875 -1.421875 
Q 18.796875 -1.421875 11.890625 6.078125 
Q 4.984375 13.578125 4.984375 25.984375 
Q 4.984375 38.28125 11.765625 45.796875 
Q 18.5625 53.328125 29.59375 53.328125 
Q 41.359375 53.328125 47.65625 46.0625 
Q 53.953125 38.8125 54.203125 25 
z
M 43.609375 30.171875 
Q 43.3125 39.265625 39.765625 43.875 
Q 36.234375 48.484375 29.59375 48.484375 
Q 23.390625 48.484375 19.828125 43.84375 
Q 16.265625 39.203125 15.484375 30.171875 
z
" id="DejaVuSerif-101"/>
     <path d="M 5.609375 2.875 
L 5.609375 14.984375 
L 10.796875 14.984375 
Q 10.984375 9.1875 14.421875 6.296875 
Q 17.875 3.421875 24.609375 3.421875 
Q 30.671875 3.421875 33.84375 5.6875 
Q 37.015625 7.953125 37.015625 12.3125 
Q 37.015625 15.71875 34.6875 17.8125 
Q 32.375 19.921875 24.90625 22.3125 
L 18.40625 24.515625 
Q 11.71875 26.65625 8.71875 29.875 
Q 5.71875 33.109375 5.71875 38.09375 
Q 5.71875 45.21875 10.9375 49.265625 
Q 16.15625 53.328125 25.390625 53.328125 
Q 29.5 53.328125 34.03125 52.25 
Q 38.578125 51.171875 43.40625 49.125 
L 43.40625 37.796875 
L 38.234375 37.796875 
Q 38.03125 42.828125 34.703125 45.65625 
Q 31.390625 48.484375 25.6875 48.484375 
Q 20.015625 48.484375 17.109375 46.484375 
Q 14.203125 44.484375 14.203125 40.484375 
Q 14.203125 37.203125 16.40625 35.21875 
Q 18.609375 33.25 25.203125 31.203125 
L 32.328125 29 
Q 39.703125 26.703125 42.9375 23.265625 
Q 46.1875 19.828125 46.1875 14.40625 
Q 46.1875 7.03125 40.546875 2.796875 
Q 34.90625 -1.421875 25 -1.421875 
Q 19.96875 -1.421875 15.1875 -0.34375 
Q 10.40625 0.734375 5.609375 2.875 
z
" id="DejaVuSerif-115"/>
     <path d="M 14.203125 0 
L 14.203125 5.171875 
L 26.90625 5.171875 
L 26.90625 65.828125 
L 12.203125 56.296875 
L 12.203125 62.703125 
L 29.984375 74.21875 
L 36.71875 74.21875 
L 36.71875 5.171875 
L 49.421875 5.171875 
L 49.421875 0 
z
" id="DejaVuSerif-49"/>
     <path d="M 24.703125 5.171875 
L 33.796875 5.171875 
Q 48 5.171875 55.59375 13.28125 
Q 63.1875 21.390625 63.1875 36.53125 
Q 63.1875 51.65625 55.609375 59.65625 
Q 48.046875 67.671875 33.796875 67.671875 
L 24.703125 67.671875 
z
M 5.515625 0 
L 5.515625 5.171875 
L 14.796875 5.171875 
L 14.796875 67.671875 
L 5.515625 67.671875 
L 5.515625 72.90625 
L 34.515625 72.90625 
Q 53.375 72.90625 63.890625 63.28125 
Q 74.421875 53.65625 74.421875 36.53125 
Q 74.421875 19.34375 63.875 9.671875 
Q 53.328125 0 34.515625 0 
z
" id="DejaVuSerif-68"/>
     <path d="M 4.390625 30.609375 
L 29.390625 30.609375 
L 29.390625 23 
L 4.390625 23 
z
" id="DejaVuSerif-45"/>
     <path d="M 70.515625 19.28125 
Q 67.28125 9.078125 59.6875 3.828125 
Q 52.09375 -1.421875 40.484375 -1.421875 
Q 33.34375 -1.421875 27.234375 1.015625 
Q 21.140625 3.46875 16.40625 8.203125 
Q 10.9375 13.671875 8.265625 20.625 
Q 5.609375 27.59375 5.609375 36.375 
Q 5.609375 53.375 15.421875 63.796875 
Q 25.25 74.21875 41.3125 74.21875 
Q 47.265625 74.21875 54 72.65625 
Q 60.75 71.09375 68.5 67.921875 
L 68.5 51.125 
L 62.984375 51.125 
Q 61.1875 60.296875 55.734375 64.640625 
Q 50.296875 69 40.484375 69 
Q 28.8125 69 22.796875 60.71875 
Q 16.796875 52.4375 16.796875 36.375 
Q 16.796875 20.359375 22.796875 12.078125 
Q 28.8125 3.8125 40.484375 3.8125 
Q 48.640625 3.8125 53.90625 7.6875 
Q 59.1875 11.578125 61.53125 19.28125 
z
" id="DejaVuSerif-67"/>
     <path d="M 4.890625 0 
L 4.890625 5.171875 
L 14.703125 5.171875 
L 14.703125 67.671875 
L 4.890625 67.671875 
L 4.890625 72.90625 
L 23.578125 72.90625 
L 67.28125 15.375 
L 67.28125 67.671875 
L 57.515625 67.671875 
L 57.515625 72.90625 
L 83.109375 72.90625 
L 83.109375 67.671875 
L 73.296875 67.671875 
L 73.296875 -1.421875 
L 67.390625 -1.421875 
L 20.703125 60.015625 
L 20.703125 5.171875 
L 30.515625 5.171875 
L 30.515625 0 
z
" id="DejaVuSerif-78"/>
     <path d="M 19.09375 0 
L 19.09375 5.171875 
L 28.421875 5.171875 
L 28.421875 67.09375 
L 6.984375 67.09375 
L 6.984375 55.71875 
L 0.984375 55.71875 
L 0.984375 72.90625 
L 65.71875 72.90625 
L 65.71875 55.71875 
L 59.71875 55.71875 
L 59.71875 67.09375 
L 38.28125 67.09375 
L 38.28125 5.171875 
L 47.609375 5.171875 
L 47.609375 0 
z
" id="DejaVuSerif-84"/>
     <path d="M 52.484375 46.6875 
L 52.484375 1.125 
Q 52.484375 -10.0625 46.328125 -16.140625 
Q 40.1875 -22.21875 28.8125 -22.21875 
Q 23.6875 -22.21875 19 -21.28125 
Q 14.3125 -20.359375 10.015625 -18.5 
L 10.015625 -7.625 
L 14.703125 -7.625 
Q 15.578125 -12.703125 18.84375 -15.046875 
Q 22.125 -17.390625 28.21875 -17.390625 
Q 36.140625 -17.390625 39.8125 -12.921875 
Q 43.5 -8.453125 43.5 1.125 
L 43.5 8.109375 
Q 40.875 3.21875 36.796875 0.890625 
Q 32.71875 -1.421875 26.703125 -1.421875 
Q 17.140625 -1.421875 11.0625 6.171875 
Q 4.984375 13.765625 4.984375 25.984375 
Q 4.984375 38.1875 11.03125 45.75 
Q 17.09375 53.328125 26.703125 53.328125 
Q 32.71875 53.328125 36.796875 51 
Q 40.875 48.6875 43.5 43.796875 
L 43.5 51.90625 
L 61.078125 51.90625 
L 61.078125 46.6875 
z
M 43.5 28.515625 
Q 43.5 37.84375 39.90625 42.765625 
Q 36.328125 47.703125 29.5 47.703125 
Q 22.5625 47.703125 19.015625 42.234375 
Q 15.484375 36.765625 15.484375 25.984375 
Q 15.484375 15.234375 19.015625 9.71875 
Q 22.5625 4.203125 29.5 4.203125 
Q 36.328125 4.203125 39.90625 9.109375 
Q 43.5 14.015625 43.5 23.390625 
z
" id="DejaVuSerif-103"/>
     <path d="M 5.515625 0 
L 5.515625 5.171875 
L 14.796875 5.171875 
L 14.796875 67.671875 
L 5.515625 67.671875 
L 5.515625 72.90625 
L 33.984375 72.90625 
L 33.984375 67.671875 
L 24.703125 67.671875 
L 24.703125 42.484375 
L 62.5 42.484375 
L 62.5 67.671875 
L 53.21875 67.671875 
L 53.21875 72.90625 
L 81.6875 72.90625 
L 81.6875 67.671875 
L 72.40625 67.671875 
L 72.40625 5.171875 
L 81.6875 5.171875 
L 81.6875 0 
L 53.21875 0 
L 53.21875 5.171875 
L 62.5 5.171875 
L 62.5 36.53125 
L 24.703125 36.53125 
L 24.703125 5.171875 
L 33.984375 5.171875 
L 33.984375 0 
z
" id="DejaVuSerif-72"/>
     <path d="M 10.796875 46.6875 
L 2.875 46.6875 
L 2.875 51.90625 
L 10.796875 51.90625 
L 10.796875 68.015625 
L 19.828125 68.015625 
L 19.828125 51.90625 
L 36.71875 51.90625 
L 36.71875 46.6875 
L 19.828125 46.6875 
L 19.828125 13.71875 
Q 19.828125 7.125 21.09375 5.265625 
Q 22.359375 3.421875 25.78125 3.421875 
Q 29.296875 3.421875 30.90625 5.484375 
Q 32.515625 7.5625 32.625 12.203125 
L 39.40625 12.203125 
Q 39.015625 5.125 35.546875 1.84375 
Q 32.078125 -1.421875 25 -1.421875 
Q 17.234375 -1.421875 14.015625 2.015625 
Q 10.796875 5.46875 10.796875 13.71875 
z
" id="DejaVuSerif-116"/>
     <path d="M 30.078125 3.421875 
Q 37.3125 3.421875 40.984375 9.125 
Q 44.671875 14.84375 44.671875 25.984375 
Q 44.671875 37.109375 40.984375 42.796875 
Q 37.3125 48.484375 30.078125 48.484375 
Q 22.859375 48.484375 19.171875 42.796875 
Q 15.484375 37.109375 15.484375 25.984375 
Q 15.484375 14.84375 19.1875 9.125 
Q 22.90625 3.421875 30.078125 3.421875 
z
M 30.078125 -1.421875 
Q 18.75 -1.421875 11.859375 6.078125 
Q 4.984375 13.578125 4.984375 25.984375 
Q 4.984375 38.375 11.84375 45.84375 
Q 18.703125 53.328125 30.078125 53.328125 
Q 41.453125 53.328125 48.3125 45.84375 
Q 55.171875 38.375 55.171875 25.984375 
Q 55.171875 13.578125 48.3125 6.078125 
Q 41.453125 -1.421875 30.078125 -1.421875 
z
" id="DejaVuSerif-111"/>
    </defs>
    <g style="fill:#262626;" transform="translate(250.489875 10.29474)scale(0.096 -0.096)">
     <use xlink:href="#DejaVuSerif-73"/>
     <use x="39.501953" xlink:href="#DejaVuSerif-110"/>
     <use x="103.90625" xlink:href="#DejaVuSerif-100"/>
     <use x="167.919922" xlink:href="#DejaVuSerif-105"/>
     <use x="199.902344" xlink:href="#DejaVuSerif-97"/>
     <use x="259.521484" xlink:href="#DejaVuSerif-110"/>
     <use x="323.925781" xlink:href="#DejaVuSerif-32"/>
     <use x="355.712891" xlink:href="#DejaVuSerif-80"/>
     <use x="422.998047" xlink:href="#DejaVuSerif-105"/>
     <use x="454.980469" xlink:href="#DejaVuSerif-110"/>
     <use x="519.384766" xlink:href="#DejaVuSerif-101"/>
     <use x="578.564453" xlink:href="#DejaVuSerif-115"/>
     <use x="629.882812" xlink:href="#DejaVuSerif-32"/>
     <use x="661.669922" xlink:href="#DejaVuSerif-49"/>
     <use x="725.292969" xlink:href="#DejaVuSerif-68"/>
     <use x="805.484375" xlink:href="#DejaVuSerif-45"/>
     <use x="839.273438" xlink:href="#DejaVuSerif-67"/>
     <use x="915.787109" xlink:href="#DejaVuSerif-78"/>
     <use x="1003.287109" xlink:href="#DejaVuSerif-78"/>
     <use x="1090.787109" xlink:href="#DejaVuSerif-32"/>
     <use x="1122.574219" xlink:href="#DejaVuSerif-84"/>
     <use x="1189.273438" xlink:href="#DejaVuSerif-114"/>
     <use x="1237.076172" xlink:href="#DejaVuSerif-97"/>
     <use x="1296.695312" xlink:href="#DejaVuSerif-105"/>
     <use x="1328.677734" xlink:href="#DejaVuSerif-110"/>
     <use x="1393.082031" xlink:href="#DejaVuSerif-105"/>
     <use x="1425.064453" xlink:href="#DejaVuSerif-110"/>
     <use x="1489.46875" xlink:href="#DejaVuSerif-103"/>
     <use x="1553.482422" xlink:href="#DejaVuSerif-32"/>
     <use x="1585.269531" xlink:href="#DejaVuSerif-72"/>
     <use x="1672.476562" xlink:href="#DejaVuSerif-105"/>
     <use x="1704.458984" xlink:href="#DejaVuSerif-115"/>
     <use x="1755.777344" xlink:href="#DejaVuSerif-116"/>
     <use x="1795.962891" xlink:href="#DejaVuSerif-111"/>
     <use x="1856.167969" xlink:href="#DejaVuSerif-114"/>
     <use x="1903.970703" xlink:href="#DejaVuSerif-121"/>
    </g>
   </g>
  </g>
  <g id="axes_2">
   <g id="legend_1">
    <g id="line2d_5">
     <path d="M 269.483688 224.878217 
L 287.083688 224.878217 
" style="fill:none;stroke:#c8102e;stroke-linecap:round;stroke-width:1.2;"/>
    </g>
    <g id="line2d_6"/>
    <g id="text_10">
     <!-- Training -->
     <g style="fill:#262626;" transform="translate(294.123688 227.958217)scale(0.088 -0.088)">
      <use xlink:href="#DejaVuSerif-84"/>
      <use x="66.699219" xlink:href="#DejaVuSerif-114"/>
      <use x="114.501953" xlink:href="#DejaVuSerif-97"/>
      <use x="174.121094" xlink:href="#DejaVuSerif-105"/>
      <use x="206.103516" xlink:href="#DejaVuSerif-110"/>
      <use x="270.507812" xlink:href="#DejaVuSerif-105"/>
      <use x="302.490234" xlink:href="#DejaVuSerif-110"/>
      <use x="366.894531" xlink:href="#DejaVuSerif-103"/>
     </g>
    </g>
    <g id="line2d_7">
     <path d="M 349.644813 224.878217 
L 367.244813 224.878217 
" style="fill:none;stroke:#00b388;stroke-linecap:round;stroke-width:1.2;"/>
    </g>
    <g id="line2d_8"/>
    <g id="text_11">
     <!-- Validation -->
     <defs>
      <path d="M 17.484375 67.671875 
L 39.015625 11.71875 
L 60.5 67.671875 
L 52.296875 67.671875 
L 52.296875 72.90625 
L 73.6875 72.90625 
L 73.6875 67.671875 
L 66.609375 67.671875 
L 40.578125 0 
L 32.171875 0 
L 6.296875 67.671875 
L -0.984375 67.671875 
L -0.984375 72.90625 
L 25.59375 72.90625 
L 25.59375 67.671875 
z
" id="DejaVuSerif-86"/>
      <path d="M 20.515625 5.171875 
L 29 5.171875 
L 29 0 
L 2.875 0 
L 2.875 5.171875 
L 11.53125 5.171875 
L 11.53125 70.796875 
L 2.875 70.796875 
L 2.875 75.984375 
L 20.515625 75.984375 
z
" id="DejaVuSerif-108"/>
     </defs>
     <g style="fill:#262626;" transform="translate(374.284813 227.958217)scale(0.088 -0.088)">
      <use xlink:href="#DejaVuSerif-86"/>
      <use x="72.076172" xlink:href="#DejaVuSerif-97"/>
      <use x="131.695312" xlink:href="#DejaVuSerif-108"/>
      <use x="163.677734" xlink:href="#DejaVuSerif-105"/>
      <use x="195.660156" xlink:href="#DejaVuSerif-100"/>
      <use x="259.673828" xlink:href="#DejaVuSerif-97"/>
      <use x="319.292969" xlink:href="#DejaVuSerif-116"/>
      <use x="359.478516" xlink:href="#DejaVuSerif-105"/>
      <use x="391.460938" xlink:href="#DejaVuSerif-111"/>
      <use x="451.666016" xlink:href="#DejaVuSerif-110"/>
     </g>
    </g>
   </g>
  </g>
  <g id="axes_3">
   <g id="patch_7">
    <path d="M 44.18499 434.89201 
L 644.99976 434.89201 
L 644.99976 242.555638 
L 44.18499 242.555638 
z
" style="fill:#ffffff;"/>
   </g>
   <g id="matplotlib.axis_3">
    <g id="xtick_1">
     <g id="text_12">
      <!-- 0 -->
      <g style="fill:#262626;" transform="translate(68.695252 449.878635)scale(0.088 -0.088)">
       <use xlink:href="#DejaVuSerif-48"/>
      </g>
     </g>
    </g>
    <g id="xtick_2">
     <g id="text_13">
      <!-- 25 -->
      <defs>
       <path d="M 12.796875 55.515625 
L 7.328125 55.515625 
L 7.328125 68.5 
Q 12.546875 71.296875 17.84375 72.75 
Q 23.140625 74.21875 28.21875 74.21875 
Q 39.59375 74.21875 46.1875 68.703125 
Q 52.78125 63.1875 52.78125 53.71875 
Q 52.78125 43.015625 37.84375 28.125 
Q 36.671875 27 36.078125 26.421875 
L 17.671875 8.015625 
L 48.09375 8.015625 
L 48.09375 17 
L 53.8125 17 
L 53.8125 0 
L 6.78125 0 
L 6.78125 5.328125 
L 28.90625 27.390625 
Q 36.234375 34.71875 39.359375 40.84375 
Q 42.484375 46.96875 42.484375 53.71875 
Q 42.484375 61.078125 38.640625 65.234375 
Q 34.8125 69.390625 28.078125 69.390625 
Q 21.09375 69.390625 17.28125 65.921875 
Q 13.484375 62.453125 12.796875 55.515625 
z
" id="DejaVuSerif-50"/>
      </defs>
      <g style="fill:#262626;" transform="translate(134.513245 449.878635)scale(0.088 -0.088)">
       <use xlink:href="#DejaVuSerif-50"/>
       <use x="63.623047" xlink:href="#DejaVuSerif-53"/>
      </g>
     </g>
    </g>
    <g id="xtick_3">
     <g id="text_14">
      <!-- 50 -->
      <g style="fill:#262626;" transform="translate(203.130739 449.878635)scale(0.088 -0.088)">
       <use xlink:href="#DejaVuSerif-53"/>
       <use x="63.623047" xlink:href="#DejaVuSerif-48"/>
      </g>
     </g>
    </g>
    <g id="xtick_4">
     <g id="text_15">
      <!-- 75 -->
      <g style="fill:#262626;" transform="translate(271.748232 449.878635)scale(0.088 -0.088)">
       <use xlink:href="#DejaVuSerif-55"/>
       <use x="63.623047" xlink:href="#DejaVuSerif-53"/>
      </g>
     </g>
    </g>
    <g id="xtick_5">
     <g id="text_16">
      <!-- 100 -->
      <g style="fill:#262626;" transform="translate(337.566225 449.878635)scale(0.088 -0.088)">
       <use xlink:href="#DejaVuSerif-49"/>
       <use x="63.623047" xlink:href="#DejaVuSerif-48"/>
       <use x="127.246094" xlink:href="#DejaVuSerif-48"/>
      </g>
     </g>
    </g>
    <g id="xtick_6">
     <g id="text_17">
      <!-- 125 -->
      <g style="fill:#262626;" transform="translate(406.183718 449.878635)scale(0.088 -0.088)">
       <use xlink:href="#DejaVuSerif-49"/>
       <use x="63.623047" xlink:href="#DejaVuSerif-50"/>
       <use x="127.246094" xlink:href="#DejaVuSerif-53"/>
      </g>
     </g>
    </g>
    <g id="xtick_7">
     <g id="text_18">
      <!-- 150 -->
      <g style="fill:#262626;" transform="translate(474.801211 449.878635)scale(0.088 -0.088)">
       <use xlink:href="#DejaVuSerif-49"/>
       <use x="63.623047" xlink:href="#DejaVuSerif-53"/>
       <use x="127.246094" xlink:href="#DejaVuSerif-48"/>
      </g>
     </g>
    </g>
    <g id="xtick_8">
     <g id="text_19">
      <!-- 175 -->
      <g style="fill:#262626;" transform="translate(543.418704 449.878635)scale(0.088 -0.088)">
       <use xlink:href="#DejaVuSerif-49"/>
       <use x="63.623047" xlink:href="#DejaVuSerif-55"/>
       <use x="127.246094" xlink:href="#DejaVuSerif-53"/>
      </g>
     </g>
    </g>
    <g id="xtick_9">
     <g id="text_20">
      <!-- 200 -->
      <g style="fill:#262626;" transform="translate(612.036197 449.878635)scale(0.088 -0.088)">
       <use xlink:href="#DejaVuSerif-50"/>
       <use x="63.623047" xlink:href="#DejaVuSerif-48"/>
       <use x="127.246094" xlink:href="#DejaVuSerif-48"/>
      </g>
     </g>
    </g>
    <g id="text_21">
     <!-- Epoch -->
     <defs>
      <path d="M 5.515625 0 
L 5.515625 5.171875 
L 14.796875 5.171875 
L 14.796875 67.671875 
L 5.515625 67.671875 
L 5.515625 72.90625 
L 64.203125 72.90625 
L 64.203125 56.6875 
L 58.203125 56.6875 
L 58.203125 66.890625 
L 24.703125 66.890625 
L 24.703125 42.484375 
L 48.578125 42.484375 
L 48.578125 51.609375 
L 54.59375 51.609375 
L 54.59375 27.390625 
L 48.578125 27.390625 
L 48.578125 36.53125 
L 24.703125 36.53125 
L 24.703125 6 
L 58.984375 6 
L 58.984375 16.21875 
L 64.984375 16.21875 
L 64.984375 0 
z
" id="DejaVuSerif-69"/>
      <path d="M 20.515625 28.515625 
L 20.515625 23.390625 
Q 20.515625 14.015625 24.09375 9.109375 
Q 27.6875 4.203125 34.515625 4.203125 
Q 41.40625 4.203125 44.9375 9.71875 
Q 48.484375 15.234375 48.484375 25.984375 
Q 48.484375 36.765625 44.9375 42.234375 
Q 41.40625 47.703125 34.515625 47.703125 
Q 27.6875 47.703125 24.09375 42.765625 
Q 20.515625 37.84375 20.515625 28.515625 
z
M 11.53125 46.6875 
L 2.875 46.6875 
L 2.875 51.90625 
L 20.515625 51.90625 
L 20.515625 43.796875 
Q 23.140625 48.6875 27.21875 51 
Q 31.296875 53.328125 37.3125 53.328125 
Q 46.875 53.328125 52.921875 45.75 
Q 58.984375 38.1875 58.984375 25.984375 
Q 58.984375 13.765625 52.921875 6.171875 
Q 46.875 -1.421875 37.3125 -1.421875 
Q 31.296875 -1.421875 27.21875 0.890625 
Q 23.140625 3.21875 20.515625 8.109375 
L 20.515625 -15.578125 
L 29 -15.578125 
L 29 -20.796875 
L 2.875 -20.796875 
L 2.875 -15.578125 
L 11.53125 -15.578125 
z
" id="DejaVuSerif-112"/>
      <path d="M 4.109375 0 
L 4.109375 5.171875 
L 12.203125 5.171875 
L 12.203125 70.796875 
L 3.609375 70.796875 
L 3.609375 75.984375 
L 21.1875 75.984375 
L 21.1875 42.671875 
Q 23.6875 47.953125 27.65625 50.640625 
Q 31.640625 53.328125 36.921875 53.328125 
Q 45.515625 53.328125 49.5625 48.390625 
Q 53.609375 43.453125 53.609375 33.015625 
L 53.609375 5.171875 
L 61.625 5.171875 
L 61.625 0 
L 36.8125 0 
L 36.8125 5.171875 
L 44.578125 5.171875 
L 44.578125 30.171875 
Q 44.578125 39.703125 42.25 43.1875 
Q 39.9375 46.6875 33.984375 46.6875 
Q 27.734375 46.6875 24.453125 42.140625 
Q 21.1875 37.59375 21.1875 28.90625 
L 21.1875 5.171875 
L 29 5.171875 
L 29 0 
z
" id="DejaVuSerif-104"/>
     </defs>
     <g style="fill:#262626;" transform="translate(329.346375 463.00326)scale(0.096 -0.096)">
      <use xlink:href="#DejaVuSerif-69"/>
      <use x="72.998047" xlink:href="#DejaVuSerif-112"/>
      <use x="137.011719" xlink:href="#DejaVuSerif-111"/>
      <use x="197.216797" xlink:href="#DejaVuSerif-99"/>
      <use x="253.222656" xlink:href="#DejaVuSerif-104"/>
     </g>
    </g>
   </g>
   <g id="matplotlib.axis_4">
    <g id="ytick_8">
     <g id="text_22">
      <!-- 0.4 -->
      <defs>
       <path d="M 34.90625 24.703125 
L 34.90625 63.484375 
L 10.015625 24.703125 
z
M 56.390625 0 
L 23.1875 0 
L 23.1875 5.171875 
L 34.90625 5.171875 
L 34.90625 19.484375 
L 3.078125 19.484375 
L 3.078125 24.8125 
L 35.015625 74.21875 
L 44.671875 74.21875 
L 44.671875 24.703125 
L 58.59375 24.703125 
L 58.59375 19.484375 
L 44.671875 19.484375 
L 44.671875 5.171875 
L 56.390625 5.171875 
z
" id="DejaVuSerif-52"/>
      </defs>
      <g style="fill:#262626;" transform="translate(21.89024 424.241737)scale(0.088 -0.088)">
       <use xlink:href="#DejaVuSerif-48"/>
       <use x="63.623047" xlink:href="#DejaVuSerif-46"/>
       <use x="95.410156" xlink:href="#DejaVuSerif-52"/>
      </g>
     </g>
    </g>
    <g id="ytick_9">
     <g id="text_23">
      <!-- 0.6 -->
      <g style="fill:#262626;" transform="translate(21.89024 399.947987)scale(0.088 -0.088)">
       <use xlink:href="#DejaVuSerif-48"/>
       <use x="63.623047" xlink:href="#DejaVuSerif-46"/>
       <use x="95.410156" xlink:href="#DejaVuSerif-54"/>
      </g>
     </g>
    </g>
    <g id="ytick_10">
     <g id="text_24">
      <!-- 0.8 -->
      <g style="fill:#262626;" transform="translate(21.89024 375.654238)scale(0.088 -0.088)">
       <use xlink:href="#DejaVuSerif-48"/>
       <use x="63.623047" xlink:href="#DejaVuSerif-46"/>
       <use x="95.410156" xlink:href="#DejaVuSerif-56"/>
      </g>
     </g>
    </g>
    <g id="ytick_11">
     <g id="text_25">
      <!-- 1.0 -->
      <g style="fill:#262626;" transform="translate(21.89024 351.360488)scale(0.088 -0.088)">
       <use xlink:href="#DejaVuSerif-49"/>
       <use x="63.623047" xlink:href="#DejaVuSerif-46"/>
       <use x="95.410156" xlink:href="#DejaVuSerif-48"/>
      </g>
     </g>
    </g>
    <g id="ytick_12">
     <g id="text_26">
      <!-- 1.2 -->
      <g style="fill:#262626;" transform="translate(21.89024 327.066738)scale(0.088 -0.088)">
       <use xlink:href="#DejaVuSerif-49"/>
       <use x="63.623047" xlink:href="#DejaVuSerif-46"/>
       <use x="95.410156" xlink:href="#DejaVuSerif-50"/>
      </g>
     </g>
    </g>
    <g id="ytick_13">
     <g id="text_27">
      <!-- 1.4 -->
      <g style="fill:#262626;" transform="translate(21.89024 302.772988)scale(0.088 -0.088)">
       <use xlink:href="#DejaVuSerif-49"/>
       <use x="63.623047" xlink:href="#DejaVuSerif-46"/>
       <use x="95.410156" xlink:href="#DejaVuSerif-52"/>
      </g>
     </g>
    </g>
    <g id="ytick_14">
     <g id="text_28">
      <!-- 1.6 -->
      <g style="fill:#262626;" transform="translate(21.89024 278.479239)scale(0.088 -0.088)">
       <use xlink:href="#DejaVuSerif-49"/>
       <use x="63.623047" xlink:href="#DejaVuSerif-46"/>
       <use x="95.410156" xlink:href="#DejaVuSerif-54"/>
      </g>
     </g>
    </g>
    <g id="ytick_15">
     <g id="text_29">
      <!-- 1.8 -->
      <g style="fill:#262626;" transform="translate(21.89024 254.185489)scale(0.088 -0.088)">
       <use xlink:href="#DejaVuSerif-49"/>
       <use x="63.623047" xlink:href="#DejaVuSerif-46"/>
       <use x="95.410156" xlink:href="#DejaVuSerif-56"/>
      </g>
     </g>
    </g>
    <g id="text_30">
     <!-- Loss -->
     <defs>
      <path d="M 5.515625 0 
L 5.515625 5.171875 
L 14.796875 5.171875 
L 14.796875 67.671875 
L 5.515625 67.671875 
L 5.515625 72.90625 
L 33.984375 72.90625 
L 33.984375 67.671875 
L 24.703125 67.671875 
L 24.703125 6 
L 58.015625 6 
L 58.015625 18.21875 
L 64.015625 18.21875 
L 64.015625 0 
z
" id="DejaVuSerif-76"/>
     </defs>
     <g style="fill:#262626;" transform="translate(15.89374 349.727074)rotate(-90)scale(0.096 -0.096)">
      <use xlink:href="#DejaVuSerif-76"/>
      <use x="66.40625" xlink:href="#DejaVuSerif-111"/>
      <use x="126.611328" xlink:href="#DejaVuSerif-115"/>
      <use x="177.929688" xlink:href="#DejaVuSerif-115"/>
     </g>
    </g>
   </g>
   <g id="line2d_9">
    <path clip-path="url(#p0484f7c179)" d="M 71.494752 251.2982 
L 74.239452 309.379067 
L 76.984152 325.639014 
L 79.728851 336.713346 
L 82.473551 344.1328 
L 85.218251 350.73026 
L 87.962951 355.026563 
L 90.70765 357.75833 
L 93.45235 361.084436 
L 96.19705 364.607765 
L 98.94175 365.503875 
L 101.686449 368.570811 
L 104.431149 370.795299 
L 109.920548 373.231274 
L 112.665248 374.331339 
L 115.409948 375.255693 
L 118.154648 377.085351 
L 120.899347 378.5975 
L 123.644047 378.815458 
L 126.388747 380.329449 
L 129.133447 381.213854 
L 131.878146 381.232868 
L 134.622846 382.43006 
L 137.367546 383.076653 
L 140.112245 383.877923 
L 142.856945 385.573114 
L 145.601645 385.760518 
L 148.346345 386.391846 
L 156.580444 389.401127 
L 159.325144 389.093616 
L 162.069843 389.757977 
L 164.814543 389.54085 
L 167.559243 390.390861 
L 173.048642 390.867369 
L 175.793342 390.51167 
L 178.538042 393.18114 
L 181.282741 392.379367 
L 184.027441 392.21576 
L 186.772141 393.228269 
L 189.51684 394.710147 
L 192.26154 395.000551 
L 195.00624 394.378302 
L 197.75094 395.959744 
L 200.495639 395.922913 
L 203.240339 395.332582 
L 205.985039 395.522529 
L 208.729739 397.361992 
L 211.474438 397.949121 
L 216.963838 398.132401 
L 219.708537 398.339812 
L 225.197937 398.030082 
L 230.687336 399.285872 
L 233.432036 400.16006 
L 238.921436 400.800615 
L 241.666135 400.694513 
L 247.155535 401.500621 
L 249.900234 400.802038 
L 252.644934 402.138245 
L 255.389634 401.246339 
L 258.134334 401.842758 
L 260.879033 401.929058 
L 263.623733 404.304516 
L 266.368433 403.952421 
L 269.113133 404.21664 
L 271.857832 403.542146 
L 274.602532 404.479352 
L 277.347232 404.463178 
L 280.091931 405.394844 
L 282.836631 403.989861 
L 285.581331 405.137523 
L 288.326031 404.623727 
L 291.07073 405.866316 
L 293.81543 406.031992 
L 296.56013 405.942788 
L 299.30483 406.211455 
L 302.049529 405.908471 
L 304.794229 406.723654 
L 307.538929 407.723979 
L 310.283628 407.494969 
L 313.028328 407.137592 
L 315.773028 407.351343 
L 318.517728 407.681376 
L 321.262427 407.758241 
L 324.007127 408.561108 
L 326.751827 408.3299 
L 329.496527 408.699221 
L 332.241226 409.829856 
L 334.985926 410.675205 
L 337.730626 409.150169 
L 340.475325 409.555363 
L 343.220025 409.407588 
L 345.964725 408.311918 
L 348.709425 409.822285 
L 351.454124 409.752252 
L 354.198824 410.326447 
L 356.943524 411.743576 
L 359.688223 411.137972 
L 362.432923 412.3707 
L 365.177623 410.940955 
L 367.922323 411.147745 
L 370.667022 412.424283 
L 373.411722 412.294597 
L 376.156422 413.125267 
L 378.901122 412.525559 
L 381.645821 413.641137 
L 384.390521 412.225353 
L 387.135221 413.107951 
L 389.87992 413.717384 
L 392.62462 414.440762 
L 395.36932 413.553546 
L 403.603419 414.778255 
L 406.348119 414.788279 
L 409.092819 414.123162 
L 411.837518 414.225003 
L 414.582218 415.105302 
L 417.326918 415.125066 
L 420.071617 415.527359 
L 422.816317 414.512505 
L 425.561017 415.975727 
L 428.305717 415.44982 
L 431.050416 415.556523 
L 433.795116 415.835031 
L 439.284516 416.127172 
L 442.029215 415.747722 
L 444.773915 417.510756 
L 450.263314 417.240544 
L 455.752714 417.80492 
L 458.497414 418.156921 
L 463.986813 417.046908 
L 466.731513 417.513806 
L 469.476213 417.311356 
L 472.220912 417.940085 
L 474.965612 417.950021 
L 477.710312 418.878465 
L 480.455011 418.718101 
L 483.199711 417.723547 
L 485.944411 419.745513 
L 488.689111 419.01641 
L 491.43381 418.965055 
L 494.17851 420.466736 
L 496.92321 420.534464 
L 499.66791 420.714318 
L 502.412609 420.150325 
L 505.157309 421.002352 
L 507.902009 420.540572 
L 510.646708 421.551432 
L 513.391408 420.351421 
L 516.136108 421.743923 
L 518.880808 420.555878 
L 524.370207 421.883045 
L 527.114907 420.889366 
L 529.859606 422.485629 
L 532.604306 421.797902 
L 535.349006 423.28364 
L 538.093706 422.102326 
L 540.838405 423.152949 
L 543.583105 421.822059 
L 546.327805 422.535154 
L 549.072505 423.75208 
L 551.817204 423.198939 
L 554.561904 424.071428 
L 557.306604 421.315364 
L 560.051303 422.485336 
L 562.796003 422.538511 
L 565.540703 422.939339 
L 568.285403 422.896776 
L 571.030102 422.715619 
L 573.774802 423.817759 
L 576.519502 424.030297 
L 579.264202 423.219615 
L 582.008901 423.034109 
L 584.753601 423.451849 
L 587.498301 423.657516 
L 590.243 423.698953 
L 592.9877 423.324879 
L 595.7324 425.157726 
L 598.4771 424.75033 
L 601.221799 425.981104 
L 603.966499 424.988075 
L 606.711199 424.397119 
L 609.455899 425.202042 
L 612.200598 424.963974 
L 614.945298 425.87594 
L 617.689998 426.149448 
L 617.689998 426.149448 
" style="fill:none;stroke:#c8102e;stroke-linecap:round;stroke-width:1.2;"/>
   </g>
   <g id="line2d_10">
    <path clip-path="url(#p0484f7c179)" d="M 71.494752 316.069134 
L 74.239452 336.686732 
L 76.984152 348.226585 
L 79.728851 354.82887 
L 82.473551 359.349158 
L 85.218251 366.549411 
L 87.962951 367.994674 
L 90.70765 371.580217 
L 93.45235 372.922 
L 96.19705 374.040238 
L 98.94175 376.602999 
L 101.686449 377.756281 
L 104.431149 378.746745 
L 107.175849 381.620609 
L 109.920548 380.741616 
L 112.665248 382.719315 
L 115.409948 382.84024 
L 118.154648 383.495959 
L 120.899347 384.720085 
L 123.644047 384.315482 
L 126.388747 384.605137 
L 129.133447 385.234333 
L 131.878146 386.152456 
L 134.622846 386.411233 
L 137.367546 386.133171 
L 140.112245 388.16946 
L 142.856945 388.737404 
L 145.601645 388.212224 
L 148.346345 389.340364 
L 151.091044 388.507356 
L 153.835744 389.874693 
L 156.580444 390.433176 
L 159.325144 389.850835 
L 162.069843 389.884154 
L 164.814543 390.178563 
L 167.559243 390.923429 
L 170.303942 390.322621 
L 173.048642 388.565366 
L 175.793342 391.690704 
L 178.538042 391.657026 
L 181.282741 391.429427 
L 184.027441 391.432135 
L 186.772141 391.791054 
L 189.51684 391.337425 
L 192.26154 392.122368 
L 195.00624 391.723308 
L 197.75094 393.038392 
L 200.495639 391.48993 
L 203.240339 392.297719 
L 205.985039 391.85477 
L 208.729739 393.142526 
L 211.474438 393.244516 
L 214.219138 391.601223 
L 216.963838 392.683436 
L 219.708537 392.930905 
L 227.942637 392.925624 
L 230.687336 393.225873 
L 233.432036 389.49083 
L 236.176736 392.480342 
L 241.666135 393.738776 
L 244.410835 393.360491 
L 247.155535 392.371572 
L 249.900234 392.281585 
L 252.644934 393.147876 
L 255.389634 393.172551 
L 258.134334 392.792744 
L 260.879033 393.668673 
L 263.623733 392.300192 
L 266.368433 393.286115 
L 269.113133 392.889504 
L 271.857832 392.269552 
L 274.602532 392.955124 
L 277.347232 392.945248 
L 280.091931 393.516206 
L 282.836631 392.931238 
L 285.581331 392.150991 
L 288.326031 392.146253 
L 291.07073 392.569138 
L 293.81543 392.362319 
L 296.56013 393.187371 
L 299.30483 391.813429 
L 302.049529 391.942846 
L 304.794229 393.12546 
L 307.538929 390.899633 
L 310.283628 391.145557 
L 313.028328 392.097056 
L 318.517728 390.867607 
L 321.262427 392.598079 
L 324.007127 393.013471 
L 326.751827 391.790621 
L 329.496527 393.389563 
L 332.241226 391.548871 
L 334.985926 389.999425 
L 337.730626 390.922668 
L 340.475325 390.360184 
L 343.220025 390.260845 
L 345.964725 391.027175 
L 348.709425 390.908202 
L 351.454124 390.466679 
L 354.198824 390.79981 
L 356.943524 390.581418 
L 359.688223 389.958939 
L 362.432923 388.728531 
L 365.177623 390.520416 
L 367.922323 390.587952 
L 370.667022 389.360536 
L 373.411722 389.62455 
L 376.156422 389.562887 
L 378.901122 390.541968 
L 381.645821 390.48402 
L 384.390521 388.018583 
L 387.135221 389.046667 
L 389.87992 390.195588 
L 392.62462 389.562176 
L 395.36932 386.322098 
L 398.11402 387.456785 
L 400.858719 389.722017 
L 403.603419 389.273873 
L 406.348119 388.381917 
L 409.092819 388.898678 
L 411.837518 387.072923 
L 414.582218 388.220765 
L 417.326918 387.354885 
L 420.071617 385.756532 
L 422.816317 387.091661 
L 425.561017 387.297088 
L 428.305717 386.546634 
L 431.050416 386.669864 
L 433.795116 387.587314 
L 436.539816 388.822162 
L 439.284516 386.236307 
L 442.029215 388.973941 
L 444.773915 387.618548 
L 447.518615 386.930923 
L 450.263314 386.620065 
L 453.008014 384.632467 
L 455.752714 386.139388 
L 458.497414 385.12488 
L 461.242113 382.849566 
L 463.986813 383.723797 
L 466.731513 385.941267 
L 469.476213 383.929012 
L 472.220912 385.327884 
L 474.965612 385.233339 
L 477.710312 384.324787 
L 480.455011 380.756724 
L 483.199711 384.489796 
L 485.944411 383.260286 
L 488.689111 384.926702 
L 491.43381 385.204211 
L 494.17851 380.679501 
L 496.92321 379.250981 
L 499.66791 381.913684 
L 502.412609 382.572805 
L 505.157309 383.729671 
L 507.902009 380.943088 
L 510.646708 380.733788 
L 513.391408 377.357964 
L 516.136108 381.068502 
L 518.880808 379.66634 
L 521.625507 381.044653 
L 524.370207 379.046141 
L 527.114907 379.196584 
L 529.859606 382.561153 
L 532.604306 381.226537 
L 535.349006 378.548066 
L 538.093706 381.771573 
L 540.838405 378.682052 
L 543.583105 380.119749 
L 546.327805 379.578206 
L 549.072505 376.037302 
L 551.817204 379.979143 
L 554.561904 376.776849 
L 557.306604 373.844083 
L 560.051303 381.539408 
L 562.796003 376.02922 
L 565.540703 375.284892 
L 568.285403 378.106245 
L 571.030102 377.414994 
L 573.774802 377.664285 
L 576.519502 376.971195 
L 579.264202 373.879351 
L 582.008901 375.629967 
L 584.753601 371.16133 
L 587.498301 374.233874 
L 590.243 377.869898 
L 592.9877 376.23181 
L 595.7324 373.737215 
L 598.4771 374.345041 
L 601.221799 370.410915 
L 603.966499 374.562161 
L 606.711199 371.823027 
L 609.455899 372.477362 
L 612.200598 376.336577 
L 614.945298 370.313925 
L 617.689998 369.644457 
L 617.689998 369.644457 
" style="fill:none;stroke:#00b388;stroke-linecap:round;stroke-width:1.2;"/>
   </g>
   <g id="patch_8">
    <path d="M 44.18499 434.89201 
L 44.18499 242.555638 
" style="fill:none;stroke:#262626;stroke-linecap:square;stroke-linejoin:miter;"/>
   </g>
   <g id="patch_9">
    <path d="M 644.99976 434.89201 
L 644.99976 242.555638 
" style="fill:none;stroke:#262626;stroke-linecap:square;stroke-linejoin:miter;"/>
   </g>
   <g id="patch_10">
    <path d="M 44.18499 434.89201 
L 644.99976 434.89201 
" style="fill:none;stroke:#262626;stroke-linecap:square;stroke-linejoin:miter;"/>
   </g>
   <g id="patch_11">
    <path d="M 44.18499 242.555638 
L 644.99976 242.555638 
" style="fill:none;stroke:#262626;stroke-linecap:square;stroke-linejoin:miter;"/>
   </g>
  </g>
 </g>
 <defs>
  <clipPath id="p8213a4fd80">
   <rect height="192.336372" width="600.81477" x="44.18499" y="16.29474"/>
  </clipPath>
  <clipPath id="p0484f7c179">
   <rect height="192.336372" width="600.81477" x="44.18499" y="242.555638"/>
  </clipPath>
 </defs>
</svg>
